<?xml version="1.0" encoding="UTF-8" standalone="no"?>
<svg xmlns:xlink="http://www.w3.org/1999/xlink" height="394.8px" width="233.1px" xmlns="http://www.w3.org/2000/svg">
  <g transform="matrix(6.0, 0.0, 0.0, 6.0, 4.2, 0.0)">
    <use height="17.3" transform="matrix(0.3928, -0.9112, 0.769, 0.3315, 7.4, 22.5)" width="11.3" xlink:href="#sprite0"/>
    <use height="7.8" transform="matrix(0.8489, 0.2767, -0.3072, 0.9426, 17.4, 21.3)" width="16.95" xlink:href="#sprite1"/>
    <use height="15.35" transform="matrix(0.9554, 0.0298, -0.0298, 0.9548, 8.7738, 0.3752)" width="12.7" xlink:href="#sprite2"/>
    <use height="17.8" transform="matrix(0.8753, 0.3726, -0.3725, 0.8748, 6.6187, 26.7675)" width="13.35" xlink:href="#sprite3"/>
    <use height="22.2" transform="matrix(0.8847, -0.109, 0.115, 0.9339, -0.7024, 43.3647)" width="14.85" xlink:href="#sprite4"/>
    <use height="26.95" transform="matrix(0.9429, -0.1584, 0.1583, 0.9423, 0.5026, 12.0161)" width="17.7" xlink:href="#sprite5"/>
    <use height="17.8" transform="matrix(0.9312, -0.1863, 0.1861, 0.9306, 4.3435, 31.3545)" width="13.35" xlink:href="#sprite3"/>
    <use height="22.2" transform="matrix(0.9216, -0.2385, 0.2384, 0.921, 5.2766, 45.3118)" width="14.85" xlink:href="#sprite4"/>
    <use height="14.45" transform="matrix(0.5403, 0.701, -0.6331, 0.488, 18.7208, 13.7029)" width="35.4" xlink:href="#sprite6"/>
    <use height="17.3" transform="matrix(0.988, 0.065, -0.0549, 0.8338, 4.8, 13.35)" width="11.3" xlink:href="#sprite0"/>
    <use height="7.8" transform="matrix(0.9895, -0.0395, 0.0395, 0.9895, 6.4, 24.3)" width="16.95" xlink:href="#sprite1"/>
  </g>
  <defs>
    <g id="sprite0" transform="matrix(1.0, 0.0, 0.0, 1.0, 0.0, 0.0)">
      <use height="17.3" transform="matrix(1.0, 0.0, 0.0, 1.0, 0.0, 0.0)" width="11.3" xlink:href="#shape0"/>
    </g>
    <g id="shape0" transform="matrix(1.0, 0.0, 0.0, 1.0, 0.0, 0.0)">
      <path d="M4.95 0.3 Q3.2 3.45 2.8 7.0 L2.45 8.25 Q5.25 9.65 8.4 10.4 8.65 7.9 10.35 5.8 10.75 5.25 10.7 4.55 10.5 2.3 8.8 0.5 L4.95 0.3 M6.35 0.2 L6.9 0.0 9.25 0.3 Q12.55 3.5 10.55 7.25 L8.7 10.55 Q9.05 10.85 9.05 11.45 L8.95 13.4 7.65 13.3 7.2 14.4 Q6.85 14.95 6.85 15.65 L5.7 16.55 4.9 17.3 Q3.05 17.45 1.6 16.4 1.35 15.3 1.45 14.1 L1.7 12.0 1.8 11.9 0.0 11.15 Q1.1 9.6 1.25 7.65 L2.0 7.6 2.45 7.25 Q1.8 2.8 5.05 0.0 L6.35 0.2 M8.35 10.65 Q5.0 10.5 2.3 8.5 L2.1 8.9 1.75 9.2 1.5 9.1 0.65 10.9 Q4.45 12.7 8.6 12.7 L8.35 10.65 M2.0 15.95 Q4.25 17.65 5.95 15.5 L6.3 15.3 6.6 13.95 7.05 13.2 Q4.4 12.85 1.9 11.95 2.25 12.75 2.1 13.9 L2.0 15.95" fill="#000000" fill-rule="evenodd" stroke="none"/>
      <path d="M4.95 0.3 L8.8 0.5 Q10.5 2.3 10.7 4.55 10.75 5.25 10.35 5.8 8.65 7.9 8.4 10.4 5.25 9.65 2.45 8.25 L2.8 7.0 Q3.2 3.45 4.95 0.3 M8.35 10.65 L8.6 12.7 Q4.45 12.7 0.65 10.9 L1.5 9.1 1.75 9.2 2.1 8.9 2.3 8.5 Q5.0 10.5 8.35 10.65" fill="#968367" fill-rule="evenodd" stroke="none"/>
      <path d="M2.0 15.95 L2.1 13.9 Q2.25 12.75 1.9 11.95 4.4 12.85 7.05 13.2 L6.6 13.95 6.3 15.3 5.95 15.5 Q4.25 17.65 2.0 15.95" fill="#f0e1bd" fill-rule="evenodd" stroke="none"/>
      <path d="M10.85 5.15 L10.75 5.25 9.55 6.5 Q8.25 7.8 8.0 9.45 L7.85 9.5 Q7.45 9.5 7.6 9.05 L7.25 9.25 7.0 9.0 Q7.0 8.3 7.95 7.1 L6.85 7.75 6.5 7.4 Q6.5 7.05 8.45 5.95 10.35 4.9 10.75 4.9 L10.85 5.15 M4.3 4.95 L4.1 6.6 Q4.1 7.45 4.35 7.7 L4.3 7.9 4.05 8.0 3.6 7.55 3.35 7.05 Q3.35 3.75 4.0 2.5 L4.5 3.45 4.3 4.95 M1.3 9.25 L1.45 9.0 Q2.0 8.15 2.0 9.3 L2.0 9.35 2.1 9.5 2.0 9.7 1.85 9.85 2.9 10.9 3.1 11.0 3.7 11.3 4.15 11.3 4.15 11.55 4.75 11.8 5.55 11.95 5.7 12.0 5.75 12.0 5.95 12.0 6.4 11.95 6.45 12.05 7.5 12.05 7.6 12.25 8.0 12.3 8.1 12.5 7.85 12.75 7.35 12.75 7.25 12.75 6.0 12.7 5.85 12.75 5.4 12.65 4.7 12.5 Q3.7 12.4 2.95 12.0 L1.55 11.5 0.85 10.75 1.05 9.8 1.0 9.45 1.25 9.15 1.3 9.25" fill="#605342" fill-rule="evenodd" stroke="none"/>
    </g>
    <g id="sprite1" transform="matrix(1.0, 0.0, 0.0, 1.0, 0.0, 0.0)">
      <use height="7.8" transform="matrix(1.0, 0.0, 0.0, 1.0, 0.0, 0.0)" width="16.95" xlink:href="#shape1"/>
    </g>
    <g id="shape1" transform="matrix(1.0, 0.0, 0.0, 1.0, 0.0, 0.0)">
      <path d="M1.25 0.7 Q1.7 0.05 2.5 0.05 L5.0 0.2 Q5.85 0.45 6.65 0.95 L8.05 2.25 9.1 2.8 10.0 2.55 11.5 1.3 Q12.8 0.95 13.95 1.7 L13.75 2.55 Q15.35 2.3 16.8 3.1 L16.95 4.2 16.8 4.4 Q15.45 5.25 15.05 6.9 L14.0 7.8 11.75 7.55 9.15 6.95 2.7 5.5 Q1.1 5.2 0.1 3.95 -0.15 3.55 0.15 3.3 1.85 5.15 4.45 5.55 L8.2 5.95 8.85 3.55 4.75 0.5 1.25 0.7 M10.0 3.35 L9.45 3.6 9.15 4.65 Q8.6 5.9 9.0 6.0 L9.85 5.5 10.0 3.35 M12.9 2.85 L13.5 1.95 Q11.6 1.35 10.5 3.05 L10.75 5.3 9.6 6.1 Q10.25 6.7 11.05 7.2 L13.65 7.3 13.85 6.85 14.8 6.2 16.4 3.65 12.9 2.85" fill="#000000" fill-rule="evenodd" stroke="none"/>
      <path d="M1.25 0.7 L4.75 0.5 8.85 3.55 8.2 5.95 4.45 5.55 Q1.85 5.15 0.15 3.3 L0.3 1.05 1.25 0.7" fill="#f0e1bd" fill-rule="evenodd" stroke="none"/>
      <path d="M12.9 2.85 L16.4 3.65 14.8 6.2 13.85 6.85 13.65 7.3 11.05 7.2 Q10.25 6.7 9.6 6.1 L10.75 5.3 10.5 3.05 Q11.6 1.35 13.5 1.95 L12.9 2.85 M10.0 3.35 L9.85 5.5 9.0 6.0 Q8.6 5.9 9.15 4.65 L9.45 3.6 10.0 3.35" fill="#485331" fill-rule="evenodd" stroke="none"/>
    </g>
    <g id="sprite2" transform="matrix(1.0, 0.0, 0.0, 1.0, -0.4, 1.4)">
      <use height="15.35" transform="matrix(1.0, 0.0, 0.0, 1.0, 0.4, -1.4)" width="12.7" xlink:href="#shape2"/>
    </g>
    <g id="shape2" transform="matrix(1.0, 0.0, 0.0, 1.0, -0.4, 1.4)">
      <path d="M6.6 -1.05 Q6.7 -1.75 8.6 -1.05 L11.7 0.2 11.9 0.05 12.05 0.5 12.05 0.55 12.0 0.5 11.95 0.55 11.85 0.6 11.7 0.7 Q12.2 0.95 12.25 2.0 L12.35 2.95 12.95 3.85 13.1 4.1 12.9 4.6 12.9 4.65 12.6 6.0 12.65 6.0 12.7 7.55 Q12.85 7.45 12.95 7.45 L13.0 7.75 10.05 10.65 9.95 10.55 9.4 10.75 9.3 10.9 8.65 10.8 8.55 10.95 8.05 11.3 8.15 11.5 8.1 11.6 7.95 11.65 7.45 11.35 7.05 12.05 6.85 12.35 6.9 12.55 Q6.85 13.0 5.95 13.55 4.95 14.05 4.15 13.95 2.9 13.8 2.05 12.75 1.2 11.85 1.25 11.45 L1.25 11.4 1.35 11.3 Q1.75 10.1 2.25 9.5 L2.0 9.2 1.85 8.2 1.75 8.25 1.6 8.25 1.25 8.25 Q0.6 8.2 0.6 5.85 L0.4 5.55 0.7 5.2 1.35 5.05 1.3 4.2 Q1.45 2.95 1.7 2.4 L1.9 2.0 2.05 1.75 Q2.65 1.2 4.05 0.35 L6.65 -1.0 6.6 -1.05 M11.6 0.7 L6.8 -0.8 Q5.85 -0.35 4.8 0.3 2.9 1.35 2.25 2.45 L1.65 5.1 2.55 5.0 4.2 4.95 5.7 4.35 6.75 4.25 6.8 4.25 6.9 4.15 7.0 4.25 12.4 4.15 12.5 4.15 12.4 4.05 12.2 4.05 11.55 0.9 11.6 0.7 M12.45 4.65 L7.85 4.75 7.4 4.7 7.3 4.85 6.95 4.85 6.5 6.25 6.85 6.7 7.05 7.0 8.35 6.8 11.25 7.3 11.45 6.6 Q11.65 6.2 12.2 6.2 L12.1 5.95 Q12.2 5.0 12.45 4.65 M12.15 6.55 Q11.8 6.8 11.7 7.45 11.5 8.05 9.9 7.9 L7.45 7.65 7.5 7.8 7.35 8.05 7.2 8.05 6.9 7.55 6.8 7.55 6.6 7.45 6.7 7.3 6.7 7.25 6.15 7.35 6.5 8.7 Q7.0 9.55 8.35 10.2 L8.8 10.0 10.25 9.85 10.9 9.0 Q11.55 8.1 12.2 7.75 L12.15 6.55 M6.1 5.9 L6.35 5.0 6.4 4.9 5.05 5.15 2.4 5.65 1.3 5.55 0.95 5.75 1.25 7.65 1.3 7.7 Q1.6 7.3 3.35 7.1 L6.4 6.95 5.95 6.2 6.05 5.95 6.1 5.9 M2.25 7.95 L2.0 8.1 Q2.0 9.0 4.55 9.5 L6.65 10.4 7.6 10.95 7.95 10.6 7.95 10.55 8.05 10.4 6.5 9.0 Q5.65 8.05 5.7 7.4 L4.3 7.55 2.25 7.9 2.25 7.95 M1.75 11.35 L2.45 12.5 Q3.15 13.35 4.25 13.5 5.15 13.6 5.9 13.0 L6.1 12.8 6.1 12.7 7.0 11.05 Q5.45 10.05 4.45 9.9 L2.65 9.65 2.15 10.7 1.75 11.35" fill="#000000" fill-rule="evenodd" stroke="none"/>
      <path d="M11.6 0.7 L11.55 0.9 12.2 4.05 12.4 4.05 12.5 4.15 12.4 4.15 7.0 4.25 6.9 4.15 6.8 4.25 6.75 4.25 5.7 4.35 4.2 4.95 2.55 5.0 1.65 5.1 2.25 2.45 Q2.9 1.35 4.8 0.3 5.85 -0.35 6.8 -0.8 L11.6 0.7 M1.75 11.35 L2.15 10.7 2.65 9.65 4.45 9.9 Q5.45 10.05 7.0 11.05 L6.1 12.7 6.1 12.8 5.9 13.0 Q5.15 13.6 4.25 13.5 3.15 13.35 2.45 12.5 L1.75 11.35 M2.25 7.95 L2.25 7.9 4.3 7.55 5.7 7.4 Q5.65 8.05 6.5 9.0 L8.05 10.4 7.95 10.55 7.95 10.6 7.6 10.95 6.65 10.4 4.55 9.5 Q2.0 9.0 2.0 8.1 L2.25 7.95" fill="#485331" fill-rule="evenodd" stroke="none"/>
      <path d="M6.1 5.9 L6.05 5.95 5.95 6.2 6.4 6.95 3.35 7.1 Q1.6 7.3 1.3 7.7 L1.25 7.65 0.95 5.75 1.3 5.55 2.4 5.65 5.05 5.15 6.4 4.9 6.35 5.0 6.1 5.9 M12.15 6.55 L12.2 7.75 Q11.55 8.1 10.9 9.0 L10.25 9.85 8.8 10.0 8.35 10.2 Q7.0 9.55 6.5 8.7 L6.15 7.35 6.7 7.25 6.7 7.3 6.6 7.45 6.8 7.55 6.9 7.55 7.2 8.05 7.35 8.05 7.5 7.8 7.45 7.65 9.9 7.9 Q11.5 8.05 11.7 7.45 11.8 6.8 12.15 6.55" fill="#7e7b67" fill-rule="evenodd" stroke="none"/>
      <path d="M12.45 4.65 Q12.2 5.0 12.1 5.95 L12.2 6.2 Q11.65 6.2 11.45 6.6 L11.25 7.3 8.35 6.8 7.05 7.0 6.85 6.7 6.5 6.25 6.95 4.85 7.3 4.85 7.4 4.7 7.85 4.75 12.45 4.65" fill="url(#gradient0)" fill-rule="evenodd" stroke="none"/>
      <path d="M7.65 -0.1 Q9.2 -0.1 10.1 0.65 10.75 1.2 10.75 1.7 L10.5 2.25 10.1 2.75 Q8.8 1.45 7.25 0.35 L7.1 0.25 Q7.05 0.0 7.25 -0.05 L7.65 -0.1 M5.75 8.2 L6.0 8.45 5.95 8.65 5.75 8.75 5.25 8.35 5.25 8.3 5.75 8.2" fill="#a8b685" fill-rule="evenodd" stroke="none"/>
      <path d="M3.2 2.7 L3.25 2.75 3.25 2.8 3.2 2.7 M1.95 4.6 L1.9 4.6 2.05 4.25 2.1 4.2 2.15 4.55 1.95 4.6" fill="#3e4529" fill-rule="evenodd" stroke="none"/>
      <path d="M10.85 4.15 L10.45 4.4 9.35 4.2 7.85 4.2 7.75 4.4 5.75 4.4 5.5 4.65 5.15 4.7 5.25 4.95 4.95 4.75 3.8 4.75 3.05 4.75 2.75 5.0 2.7 5.5 2.35 5.65 Q2.15 5.65 1.5 5.0 L1.85 4.65 1.6 4.3 1.65 4.1 1.6 4.0 2.0 2.25 2.25 2.15 2.35 2.2 2.5 2.0 2.7 2.15 2.85 2.0 2.85 1.55 3.15 1.6 3.35 1.4 3.5 1.25 3.55 1.35 3.9 1.3 4.0 1.5 3.9 1.7 4.0 1.7 4.05 1.75 Q4.95 2.0 5.75 2.5 L7.4 3.6 8.15 3.65 10.7 3.65 10.85 4.15 M3.2 2.7 L3.25 2.8 3.25 2.75 3.2 2.7 M1.95 4.6 L2.15 4.55 2.1 4.2 2.05 4.25 1.9 4.6 1.85 4.65 1.95 4.6 M3.25 3.6 L3.1 3.4 3.3 3.7 3.25 3.6 M5.25 8.3 L4.65 8.3 6.3 9.45 7.75 10.55 7.7 10.85 7.4 10.9 6.45 10.65 7.35 11.7 6.85 11.9 7.0 12.1 Q7.0 12.55 4.6 13.25 3.3 13.25 3.25 12.15 L3.25 11.6 3.65 10.95 Q2.95 10.85 2.95 10.6 L3.1 10.3 2.6 10.0 2.6 9.7 3.55 9.95 4.35 10.2 5.05 10.0 5.1 10.0 3.65 9.2 Q3.25 9.1 3.0 8.85 L3.0 8.8 2.35 8.75 2.25 8.35 2.1 8.25 Q2.1 7.6 4.05 7.4 6.0 7.2 6.0 7.95 L5.75 8.2 5.25 8.3" fill="#2f3520" fill-rule="evenodd" stroke="none"/>
    </g>
    <linearGradient gradientTransform="matrix(0.0035, 4.0E-4, -2.0E-4, 0.0018, 9.45, 5.75)" gradientUnits="userSpaceOnUse" id="gradient0" spreadMethod="pad" x1="-819.2" x2="819.2">
      <stop offset="0.00784313725490196" stop-color="#373737"/>
      <stop offset="0.20784313725490197" stop-color="#ffffff"/>
      <stop offset="0.4588235294117647" stop-color="#5c5c5c"/>
      <stop offset="0.6941176470588235" stop-color="#dddddd"/>
      <stop offset="0.8705882352941177" stop-color="#929292"/>
      <stop offset="1.0" stop-color="#aaaaaa"/>
    </linearGradient>
    <g id="sprite3" transform="matrix(1.0, 0.0, 0.0, 1.0, -0.55, 0.1)">
      <use height="17.8" transform="matrix(1.0, 0.0, 0.0, 1.0, 0.55, -0.1)" width="13.35" xlink:href="#shape3"/>
    </g>
    <g id="shape3" transform="matrix(1.0, 0.0, 0.0, 1.0, -0.55, 0.1)">
      <path d="M3.45 -0.05 L6.4 0.3 Q8.0 0.5 8.55 2.0 11.2 4.4 12.4 8.15 13.6 11.35 13.85 14.75 L13.85 15.0 13.9 15.7 13.75 15.35 13.75 15.4 13.45 16.25 13.2 16.45 12.35 17.05 12.15 17.3 Q8.45 18.8 6.0 14.4 L5.25 12.75 5.05 12.55 5.25 12.6 5.15 12.45 Q2.75 10.35 1.25 6.8 0.0 3.8 1.0 1.45 L1.0 1.35 1.0 1.2 1.05 1.0 1.65 0.5 Q1.7 0.35 1.85 0.35 L1.95 0.4 2.15 0.3 3.25 -0.1 3.45 -0.05 M6.55 5.7 L6.55 6.15 6.8 6.3 7.75 8.5 Q8.3 9.8 8.5 11.15 L8.45 11.25 8.95 10.8 8.65 9.5 7.5 7.05 7.0 5.85 6.55 5.7 M4.2 0.45 L3.55 0.55 1.9 0.9 1.9 1.0 1.4 1.3 Q0.45 4.15 2.2 7.3 L2.45 6.6 Q3.7 5.0 5.7 4.95 7.7 5.15 8.65 7.85 9.25 9.5 9.1 11.05 9.05 11.55 8.65 11.8 L8.6 12.05 Q7.9 12.25 7.4 12.65 6.75 13.15 6.0 12.95 L8.6 16.45 Q8.95 16.95 9.55 17.1 11.45 17.4 12.9 16.05 L13.2 15.15 13.5 14.45 13.55 14.45 12.15 9.05 Q10.95 5.15 8.45 2.25 L7.7 1.75 6.65 0.9 Q5.5 0.35 4.2 0.45 M3.0 8.7 L4.9 11.75 5.0 11.7 5.65 12.55 Q6.65 12.35 7.6 11.8 L8.4 11.35 7.35 8.95 6.55 6.8 6.35 7.9 Q6.0 9.2 5.9 10.5 5.15 10.45 4.45 9.8 L3.6 9.3 3.55 9.15 3.5 9.1 3.4 8.95 3.0 8.7 M2.55 7.45 L2.7 7.65 2.75 7.8 2.8 8.1 5.05 9.5 5.45 9.95 5.9 7.6 Q5.95 6.45 6.45 5.65 4.8 5.25 3.35 6.2 2.7 6.7 2.55 7.45" fill="#000000" fill-rule="evenodd" stroke="none"/>
      <path d="M6.55 5.7 L7.0 5.85 7.5 7.05 8.65 9.5 8.95 10.8 8.45 11.25 8.5 11.15 Q8.3 9.8 7.75 8.5 L6.8 6.3 6.55 6.15 6.55 5.7 M4.2 0.45 L5.6 0.7 6.65 0.9 7.7 1.75 8.45 2.25 Q10.95 5.15 12.15 9.05 L13.55 14.45 13.5 14.45 13.2 15.15 12.9 16.05 Q11.45 17.4 9.55 17.1 8.95 16.95 8.6 16.45 L6.0 12.95 Q6.75 13.15 7.4 12.65 7.9 12.25 8.6 12.05 L8.65 11.8 Q9.05 11.55 9.1 11.05 9.25 9.5 8.65 7.85 7.7 5.15 5.7 4.95 3.7 5.0 2.45 6.6 L2.2 7.3 Q0.45 4.15 1.4 1.3 L1.9 1.0 1.9 0.9 3.55 0.55 4.2 0.45 M2.55 7.45 Q2.7 6.7 3.35 6.2 4.8 5.25 6.45 5.65 5.95 6.45 5.9 7.6 L5.45 9.95 5.05 9.5 2.8 8.1 2.75 7.8 2.7 7.65 2.55 7.45 M3.0 8.7 L3.4 8.95 3.5 9.1 3.55 9.15 3.6 9.3 4.45 9.8 Q5.15 10.45 5.9 10.5 6.0 9.2 6.35 7.9 L6.55 6.8 7.35 8.95 8.4 11.35 7.6 11.8 Q6.65 12.35 5.65 12.55 L5.0 11.7 4.9 11.75 3.0 8.7" fill="#968367" fill-rule="evenodd" stroke="none"/>
      <path d="M3.75 2.7 L4.5 3.85 3.85 4.6 4.0 4.95 3.6 5.1 3.5 5.0 3.4 5.15 3.25 5.25 3.0 5.2 3.0 5.45 2.95 5.65 2.75 5.75 Q2.45 5.75 2.3 5.0 L2.25 5.0 Q1.65 5.0 1.6 2.5 1.6 1.8 1.85 1.65 L2.1 2.2 2.75 1.65 3.75 2.7 M4.0 6.15 L3.55 7.55 4.65 8.35 Q5.75 9.1 5.75 9.65 L5.7 9.9 5.5 10.0 3.85 8.95 2.0 7.45 2.5 6.9 Q2.5 6.65 3.05 6.25 L3.75 5.9 4.0 6.15 M3.35 8.85 L3.45 8.75 Q3.9 8.95 4.95 10.6 5.3 11.1 6.5 10.9 7.5 10.75 7.5 11.5 L7.25 11.85 7.0 12.2 6.9 12.45 6.15 12.5 Q4.95 12.5 4.15 11.1 3.6 10.15 3.35 8.85 M9.25 9.9 L10.35 12.9 11.0 15.25 10.9 15.6 10.6 15.6 Q10.45 15.6 10.45 15.8 L10.35 16.15 9.6 13.2 9.0 10.2 9.25 9.9 M9.65 16.6 L9.5 16.65 Q9.15 16.65 8.45 15.25 7.75 13.9 7.6 13.0 9.15 12.95 9.85 15.85 L9.65 16.6 M12.05 14.4 L12.35 15.45 12.25 15.6 12.1 15.65 7.35 4.8 Q8.85 4.95 10.85 9.5 L12.5 14.05 12.05 14.4" fill="#605342" fill-rule="evenodd" stroke="none"/>
    </g>
    <g id="sprite4" transform="matrix(1.0, 0.0, 0.0, 1.0, 3.1, -0.35)">
      <use height="22.2" transform="matrix(1.0, 0.0, 0.0, 1.0, -3.1, 0.35)" width="14.85" xlink:href="#shape4"/>
    </g>
    <g id="shape4" transform="matrix(1.0, 0.0, 0.0, 1.0, 3.1, -0.35)">
      <path d="M5.7 0.7 L5.4 1.05 5.35 1.15 4.8 1.35 Q4.1 2.25 3.55 3.35 3.0 4.5 2.85 5.85 L2.85 5.95 3.5 6.55 4.75 7.95 Q6.5 8.8 8.5 9.25 9.1 7.85 10.25 6.2 11.8 4.05 10.85 2.0 L10.85 1.85 11.1 1.75 11.2 1.65 11.0 1.25 11.05 1.2 Q12.35 3.1 11.15 5.75 10.2 7.95 8.7 9.35 L8.9 9.35 8.65 9.4 Q8.8 9.95 8.15 10.75 L7.05 12.1 Q5.8 12.35 4.9 13.3 L4.65 13.65 Q4.7 13.95 4.2 14.3 L3.6 14.75 3.3 14.8 3.3 14.85 3.5 15.1 3.35 15.3 3.1 15.95 3.0 16.1 3.4 16.1 3.9 16.3 4.6 17.45 5.6 19.25 5.95 20.2 6.2 20.35 6.55 20.5 7.1 20.9 Q7.15 22.3 5.7 22.45 1.8 23.05 -0.55 20.35 L-0.25 20.3 -0.4 20.15 -1.15 19.55 Q-1.2 19.25 -1.4 19.15 -1.65 18.8 -2.0 18.75 L-2.05 18.65 -2.05 18.55 -2.1 18.45 -2.65 18.1 Q-2.75 17.75 -3.05 17.7 -3.25 15.75 -2.5 13.9 L-2.2 13.3 -1.85 12.3 -0.3 12.15 -0.8 11.75 -0.2 10.2 0.15 9.8 -0.05 9.55 0.05 9.2 0.3 8.6 0.95 6.85 1.4 6.1 2.35 6.2 Q2.25 5.8 2.5 5.35 2.4 4.35 2.9 3.1 3.85 1.15 5.6 0.5 L5.7 0.7 M-0.3 12.15 L-0.9 12.25 -0.95 12.5 -1.65 14.05 -1.75 14.0 -2.55 16.25 -2.7 17.15 -0.8 18.7 0.65 20.4 0.5 20.55 Q1.35 20.8 2.2 21.7 L2.35 21.85 Q4.05 22.05 5.75 21.85 6.15 21.85 6.6 21.4 5.9 21.05 5.45 19.95 4.9 18.65 3.95 17.5 L3.6 16.7 3.5 16.65 Q2.05 16.95 2.3 16.15 L2.35 15.95 2.8 16.0 Q2.6 15.5 3.15 14.8 L2.95 14.6 3.1 14.5 2.95 14.5 3.05 14.15 3.45 14.05 Q3.6 13.75 4.05 13.65 L4.25 13.25 Q5.0 11.95 6.45 11.35 7.3 11.1 7.75 10.2 L8.35 9.4 Q5.4 9.6 3.0 7.25 L2.5 6.75 1.55 6.8 1.5 6.9 1.25 7.45 Q1.2 7.45 1.1 7.55 L0.7 8.8 0.5 9.25 0.95 9.9 Q2.15 10.7 3.75 11.15 L4.4 11.85 3.6 11.95 0.65 10.25 0.25 9.9 -0.3 12.15" fill="#000000" fill-rule="evenodd" stroke="none"/>
      <path d="M11.0 1.25 L11.2 1.65 11.1 1.75 10.85 1.85 10.85 2.0 Q11.8 4.05 10.25 6.2 9.1 7.85 8.5 9.25 6.5 8.8 4.75 7.95 L3.5 6.55 2.85 5.95 2.85 5.85 Q3.0 4.5 3.55 3.35 4.1 2.25 4.8 1.35 L5.35 1.15 5.4 1.05 5.7 0.7 Q6.2 0.3 7.0 0.4 L7.55 0.35 10.8 0.65 10.95 0.75 10.9 0.8 Q10.75 1.2 11.0 1.25" fill="#968367" fill-rule="evenodd" stroke="none"/>
      <path d="M-0.3 12.15 L0.25 9.9 0.65 10.25 3.6 11.95 4.4 11.85 3.75 11.15 Q2.15 10.7 0.95 9.9 L0.5 9.25 0.7 8.8 1.1 7.55 Q1.2 7.45 1.25 7.45 L1.5 6.9 1.55 6.8 2.5 6.75 3.0 7.25 Q5.4 9.6 8.35 9.4 L7.75 10.2 Q7.3 11.1 6.45 11.35 5.0 11.95 4.25 13.25 L4.05 13.65 Q3.6 13.75 3.45 14.05 L3.05 14.15 2.95 14.5 3.1 14.5 2.95 14.6 3.15 14.8 Q2.6 15.5 2.8 16.0 L2.35 15.95 2.3 16.15 Q2.05 16.95 3.5 16.65 L3.6 16.7 3.95 17.5 Q4.9 18.65 5.45 19.95 5.9 21.05 6.6 21.4 6.15 21.85 5.75 21.85 4.05 22.05 2.35 21.85 L2.2 21.7 Q1.35 20.8 0.5 20.55 L0.65 20.4 -0.8 18.7 -2.7 17.15 -2.55 16.25 -1.75 14.0 -1.65 14.05 -0.95 12.5 -0.9 12.25 -0.3 12.15" fill="#485331" fill-rule="evenodd" stroke="none"/>
      <path d="M5.3 1.05 Q6.1 2.35 6.1 5.55 6.1 7.75 5.6 7.75 5.3 7.75 4.95 3.25 L3.95 6.4 3.6 6.35 3.6 5.85 4.15 3.45 2.75 5.65 2.5 5.4 Q3.65 1.3 5.25 0.55 L5.35 0.75 5.3 1.05 M6.0 1.25 L7.1 4.2 7.1 5.35 6.85 5.5 6.1 3.65 Q5.75 2.4 5.75 1.55 5.75 1.35 6.0 1.25" fill="#605342" fill-rule="evenodd" stroke="none"/>
    </g>
    <g id="sprite5" transform="matrix(1.0, 0.0, 0.0, 1.0, -1.5, -3.4)">
      <use height="26.95" transform="matrix(1.0, 0.0, 0.0, 1.0, 1.5, 3.4)" width="17.7" xlink:href="#shape5"/>
    </g>
    <g id="shape5" transform="matrix(1.0, 0.0, 0.0, 1.0, -1.5, -3.4)">
      <path d="M10.25 4.55 Q8.45 3.05 5.65 3.95 L5.6 4.05 5.5 4.6 5.5 4.95 7.4 5.25 9.75 5.9 9.95 5.7 10.05 5.8 10.05 5.65 10.1 5.65 10.25 5.55 10.25 5.0 10.25 4.6 10.25 4.55 M10.65 4.4 L10.65 5.0 10.8 4.95 11.25 4.95 11.4 5.0 11.45 5.1 11.55 5.25 11.6 5.5 11.65 5.6 12.45 6.05 12.95 6.4 13.05 6.4 14.55 7.0 16.55 7.05 16.95 6.7 17.45 6.5 Q18.55 8.1 19.05 10.4 19.4 12.35 18.8 13.95 L18.9 14.15 18.7 14.25 18.5 14.6 18.55 14.3 18.5 14.3 17.4 16.75 Q16.55 18.15 15.55 18.9 16.65 19.85 16.1 21.9 15.55 24.0 13.6 24.1 L12.8 24.25 Q12.35 28.65 7.95 30.15 5.65 30.85 4.75 29.05 L4.45 27.85 Q4.35 26.25 4.65 24.8 L4.45 24.0 Q1.4 24.55 1.5 21.7 1.5 19.75 2.25 18.0 L2.8 16.55 2.8 16.5 3.05 16.25 3.1 16.15 3.0 16.05 2.0 15.7 1.85 15.65 Q1.6 14.75 1.95 13.9 2.4 12.7 2.5 11.3 2.7 9.2 3.25 7.15 3.6 5.75 4.45 4.85 L4.95 4.85 4.95 4.75 5.15 3.85 5.25 3.6 5.3 3.55 5.4 3.5 5.65 3.45 5.85 3.4 9.2 3.6 10.3 3.75 10.35 3.85 10.35 4.05 10.6 4.3 10.65 4.4 M10.65 5.65 L10.65 6.15 11.45 6.85 12.1 7.45 12.1 7.3 12.3 6.95 12.45 6.8 12.2 6.7 11.25 5.65 11.2 5.45 11.15 5.45 Q10.85 5.35 10.65 5.65 M13.1 7.05 L13.0 7.9 12.85 9.1 12.7 10.8 12.35 11.2 11.95 11.35 11.95 11.6 11.95 12.1 11.9 12.45 11.95 13.05 11.95 13.6 12.4 14.0 12.35 13.15 Q12.35 11.95 12.7 11.2 L13.1 13.05 15.15 13.45 18.5 13.85 18.55 13.75 18.45 10.95 Q18.35 8.95 17.4 7.15 L16.65 7.6 16.45 7.6 Q15.6 8.0 14.35 7.6 L13.35 6.95 13.3 7.0 13.1 7.05 M10.35 6.75 L10.3 6.65 10.25 6.5 10.1 6.2 9.85 6.5 9.2 7.05 8.7 8.15 Q8.5 8.55 8.6 9.05 9.2 9.6 10.05 10.0 L11.4 11.05 11.6 10.85 11.7 10.8 11.8 10.9 12.2 10.6 12.4 9.3 12.35 8.3 12.1 8.2 11.5 7.65 Q11.4 7.5 11.15 7.45 L10.75 6.9 10.4 6.75 10.35 6.75 M11.35 11.35 L11.4 11.2 Q10.4 10.95 9.5 10.05 L8.3 10.0 8.55 10.6 8.6 10.6 Q8.85 10.7 8.75 10.95 L9.65 11.7 11.3 12.9 11.25 12.25 11.35 11.5 11.35 11.35 M6.55 5.65 Q7.0 7.55 5.3 8.75 L4.7 9.3 3.25 10.8 3.5 11.0 3.65 11.2 5.05 11.45 7.05 11.95 7.65 12.15 8.0 10.9 8.1 10.85 7.75 10.4 8.05 9.6 8.3 9.15 Q7.95 8.6 8.45 7.6 L9.45 6.25 7.5 5.95 6.55 5.65 4.55 5.45 Q3.95 6.2 3.75 7.15 L3.25 8.95 2.9 10.85 2.95 10.9 Q3.45 9.55 4.95 8.25 6.2 7.2 6.55 5.65 M2.8 11.85 L2.2 15.25 2.95 15.45 3.05 15.45 3.45 15.7 3.7 15.55 4.4 15.55 4.4 15.4 4.85 13.2 Q5.0 12.55 5.45 12.2 L4.2 11.9 Q3.5 11.65 2.85 11.2 L2.8 11.85 M8.4 11.2 L8.2 12.35 8.15 12.35 7.75 14.1 Q7.55 15.25 7.7 16.35 L7.7 16.95 8.9 17.1 Q9.7 17.3 10.4 17.75 L10.9 17.9 11.05 18.0 11.1 18.15 11.15 18.25 11.2 18.35 11.3 18.4 11.55 18.6 11.7 18.7 11.65 20.05 11.6 20.45 11.75 20.35 12.1 20.35 12.45 19.55 12.6 19.35 Q12.1 18.95 12.2 17.9 L12.5 15.75 12.65 15.25 12.6 15.15 12.5 15.25 12.5 15.1 11.95 14.6 Q11.25 14.15 11.45 13.65 L11.4 13.3 9.4 12.15 8.45 11.2 8.4 11.2 M6.55 12.7 L5.6 12.75 5.35 13.15 4.95 14.65 4.85 15.6 5.0 15.6 Q5.45 15.65 5.85 15.85 L5.9 15.95 6.1 16.2 6.4 16.9 6.4 17.1 6.7 16.6 Q6.6 16.2 6.95 15.55 L7.2 15.05 7.25 14.3 7.3 13.85 Q7.2 13.15 6.55 12.7 M7.25 16.9 L7.3 16.95 7.45 16.95 7.25 16.1 7.05 16.8 7.25 16.9 M2.9 19.2 Q4.1 18.3 5.65 18.55 L6.15 17.5 5.95 17.25 5.75 16.6 5.55 16.2 3.9 16.15 3.95 16.3 3.75 16.5 3.6 16.45 3.5 16.4 2.8 17.9 2.6 18.45 2.6 18.5 2.65 18.45 2.85 18.75 2.85 19.15 2.85 19.2 2.9 19.2 M7.05 17.5 L7.0 17.5 6.75 18.0 7.4 19.95 7.85 22.05 7.95 21.9 9.75 20.65 10.9 19.1 10.9 19.05 11.1 18.9 11.05 18.85 10.85 18.75 10.8 18.7 10.8 18.6 10.8 18.5 10.75 18.4 9.5 18.05 7.4 17.2 7.3 17.4 7.05 17.5 M7.6 12.4 L7.05 12.35 7.45 13.05 7.6 12.4 M4.3 23.6 L4.25 23.55 4.4 23.35 Q4.35 22.2 4.75 20.85 L5.55 18.75 3.35 19.7 2.55 19.75 Q2.4 19.5 2.4 19.1 L2.45 18.95 2.35 19.1 2.1 20.15 Q1.85 21.25 1.85 22.4 L1.9 22.9 2.15 23.05 3.3 23.35 4.25 23.6 4.3 23.65 4.3 23.6 M4.95 22.75 L4.75 23.65 4.8 23.85 Q6.2 24.65 7.8 25.0 L9.9 25.4 Q9.7 24.9 10.1 24.15 10.85 22.85 11.2 21.35 L11.3 19.25 Q11.05 20.15 10.0 21.05 8.9 22.05 7.95 22.45 L7.95 22.55 Q7.05 21.75 6.65 20.05 L6.45 18.7 5.85 20.3 Q5.4 21.7 5.25 23.2 L5.2 23.25 5.0 23.05 5.0 22.75 4.95 22.7 4.95 22.75 M11.3 22.6 L11.25 22.65 Q11.05 24.05 10.3 25.1 L10.3 25.2 10.3 25.4 10.3 25.45 10.35 25.45 10.3 25.5 10.25 25.65 10.2 25.75 10.0 25.55 Q7.6 25.85 5.3 24.65 L4.95 24.5 Q5.25 25.45 5.05 26.65 L4.9 27.8 5.0 29.3 Q9.65 31.15 11.7 26.2 12.1 25.1 12.6 24.25 L12.3 24.2 11.95 22.8 Q11.45 23.0 11.35 22.6 11.3 22.35 11.5 22.35 L11.95 22.35 11.9 22.2 Q11.85 21.5 11.95 20.85 L11.55 20.6 11.3 22.6 M15.4 18.45 L15.35 18.75 15.5 18.85 Q16.05 17.5 16.85 16.2 L18.05 14.4 Q15.75 15.0 13.6 13.75 L13.15 13.55 13.1 13.55 12.85 14.75 Q13.1 15.3 12.95 16.05 L12.6 19.3 12.8 19.0 12.9 18.95 13.1 18.9 13.0 18.35 Q12.95 18.0 13.25 17.9 L13.85 17.95 14.05 18.05 14.1 18.15 14.25 18.6 14.3 18.7 Q14.25 18.5 14.35 18.3 L14.7 17.9 15.1 17.9 15.25 17.95 15.25 18.05 15.4 18.45 M13.55 18.45 L13.45 18.8 13.85 18.85 13.8 18.7 13.65 18.4 13.55 18.45 M14.35 18.95 L14.3 18.8 14.3 18.9 14.35 18.95 M15.05 18.65 Q14.85 18.3 14.8 18.6 L14.75 18.75 15.05 18.65 M13.05 19.4 L12.55 20.5 12.55 20.6 12.45 20.7 12.4 21.1 Q12.2 22.2 12.5 23.25 L12.65 23.55 Q14.55 23.85 14.65 21.55 14.75 20.4 14.15 19.35 L13.85 19.3 13.6 19.3 13.45 19.35 13.05 19.4 M14.9 22.9 L15.6 21.9 15.9 21.0 15.45 19.1 15.2 19.1 14.65 19.3 Q15.3 20.5 15.1 21.95 L14.9 22.9" fill="#000000" fill-rule="evenodd" stroke="none"/>
      <path d="M10.25 4.55 L10.25 4.6 10.25 5.0 10.25 5.55 10.1 5.65 10.05 5.65 10.05 5.8 9.95 5.7 9.75 5.9 7.4 5.25 5.5 4.95 5.5 4.6 5.6 4.05 5.65 3.95 Q8.45 3.05 10.25 4.55 M13.1 7.05 L13.3 7.0 13.35 6.95 14.35 7.6 Q15.6 8.0 16.45 7.6 L16.65 7.6 17.4 7.15 Q18.35 8.95 18.45 10.95 L18.55 13.75 18.5 13.85 15.15 13.45 13.1 13.05 12.7 11.2 Q12.35 11.95 12.35 13.15 L12.4 14.0 11.95 13.6 11.95 13.05 11.9 12.45 11.95 12.1 11.95 11.6 11.95 11.35 12.35 11.2 12.7 10.8 12.85 9.1 13.0 7.9 13.1 7.05 M10.65 5.65 Q10.85 5.35 11.15 5.45 L11.2 5.45 11.25 5.65 12.2 6.7 12.45 6.8 12.3 6.95 12.1 7.3 12.1 7.45 11.45 6.85 10.65 6.15 10.65 5.65 M2.8 11.85 L2.85 11.2 Q3.5 11.65 4.2 11.9 L5.45 12.2 Q5.0 12.55 4.85 13.2 L4.4 15.4 4.4 15.55 3.7 15.55 3.45 15.7 3.05 15.45 2.95 15.45 2.2 15.25 2.8 11.85 M6.55 5.65 Q6.2 7.2 4.95 8.25 3.45 9.55 2.95 10.9 L2.9 10.85 3.25 8.95 3.75 7.15 Q3.95 6.2 4.55 5.45 L6.55 5.65 7.5 5.95 9.45 6.25 8.45 7.6 Q7.95 8.6 8.3 9.15 L8.05 9.6 7.75 10.4 8.1 10.85 8.0 10.9 7.65 12.15 7.05 11.95 5.05 11.45 3.65 11.2 3.5 11.0 3.25 10.8 4.7 9.3 5.3 8.75 Q7.0 7.55 6.55 5.65 M11.35 11.35 L11.35 11.5 11.25 12.25 11.3 12.9 9.65 11.7 8.75 10.95 Q8.85 10.7 8.6 10.6 L8.55 10.6 8.3 10.0 9.5 10.05 Q10.4 10.95 11.4 11.2 L11.35 11.35 M6.55 12.7 Q7.2 13.15 7.3 13.85 L7.25 14.3 7.2 15.05 6.95 15.55 Q6.6 16.2 6.7 16.6 L6.4 17.1 6.4 16.9 6.1 16.2 5.9 15.95 5.85 15.85 Q5.45 15.65 5.0 15.6 L4.85 15.6 4.95 14.65 5.35 13.15 5.6 12.75 6.55 12.7 M2.6 18.45 L2.8 17.9 3.5 16.4 3.6 16.45 3.75 16.5 3.95 16.3 3.9 16.15 5.55 16.2 5.75 16.6 5.95 17.25 6.15 17.5 5.65 18.55 Q4.1 18.3 2.9 19.2 L2.85 19.15 2.85 18.75 2.65 18.45 2.6 18.45 M7.6 12.4 L7.45 13.05 7.05 12.35 7.6 12.4 M7.05 17.5 L7.3 17.4 7.4 17.2 9.5 18.05 10.75 18.4 10.8 18.5 10.8 18.6 10.8 18.7 10.85 18.75 11.05 18.85 11.1 18.9 10.9 19.05 10.9 19.1 9.75 20.65 7.95 21.9 7.85 22.05 7.4 19.95 6.75 18.0 7.0 17.5 7.05 17.5 M2.4 19.1 Q2.4 19.5 2.55 19.75 L3.35 19.7 5.55 18.75 4.75 20.85 Q4.35 22.2 4.4 23.35 L4.25 23.55 4.3 23.6 4.25 23.6 3.3 23.35 2.15 23.05 1.9 22.9 1.85 22.4 Q1.85 21.25 2.1 20.15 L2.35 19.1 2.4 19.1 M5.0 22.75 L5.0 23.05 5.2 23.25 5.25 23.2 Q5.4 21.7 5.85 20.3 L6.45 18.7 6.65 20.05 Q7.05 21.75 7.95 22.55 L7.95 22.45 Q8.9 22.05 10.0 21.05 11.05 20.15 11.3 19.25 L11.2 21.35 Q10.85 22.85 10.1 24.15 9.7 24.9 9.9 25.4 L7.8 25.0 Q6.2 24.65 4.8 23.85 L4.75 23.65 4.95 22.75 5.0 22.75 M11.35 22.6 L11.3 22.6 11.55 20.6 11.95 20.85 Q11.85 21.5 11.9 22.2 L11.95 22.35 11.5 22.35 Q11.3 22.35 11.35 22.6 M13.55 18.45 L13.65 18.4 13.8 18.7 13.85 18.85 13.45 18.8 13.55 18.45 M15.4 18.45 L15.25 18.05 15.25 17.95 15.1 17.9 14.7 17.9 14.35 18.3 Q14.25 18.5 14.3 18.7 L14.25 18.6 14.1 18.15 14.05 18.05 13.85 17.95 13.25 17.9 Q12.95 18.0 13.0 18.35 L13.1 18.9 12.9 18.95 12.8 19.0 12.6 19.3 12.95 16.05 Q13.1 15.3 12.85 14.75 L13.1 13.55 13.15 13.55 13.6 13.75 Q15.75 15.0 18.05 14.4 L16.85 16.2 Q16.05 17.5 15.5 18.85 L15.35 18.75 15.4 18.45 M14.9 22.9 L15.1 21.95 Q15.3 20.5 14.65 19.3 L15.2 19.1 15.45 19.1 15.9 21.0 15.6 21.9 14.9 22.9 M13.05 19.4 L13.45 19.35 13.6 19.3 13.85 19.3 14.15 19.35 Q14.75 20.4 14.65 21.55 14.55 23.85 12.65 23.55 L12.5 23.25 Q12.2 22.2 12.4 21.1 L12.45 20.7 12.55 20.6 12.55 20.5 13.05 19.4 M15.05 18.65 L14.75 18.75 14.8 18.6 Q14.85 18.3 15.05 18.65" fill="#485331" fill-rule="evenodd" stroke="none"/>
      <path d="M10.35 6.75 L10.4 6.75 10.75 6.9 11.15 7.45 Q11.4 7.5 11.5 7.65 L12.1 8.2 12.35 8.3 12.4 9.3 12.2 10.6 11.8 10.9 11.7 10.8 11.6 10.85 11.4 11.05 10.05 10.0 Q9.2 9.6 8.6 9.05 8.5 8.55 8.7 8.15 L9.2 7.05 9.85 6.5 10.1 6.2 10.25 6.5 10.3 6.65 10.35 6.75 M8.4 11.2 L8.45 11.2 9.4 12.15 11.4 13.3 11.45 13.65 Q11.25 14.15 11.95 14.6 L12.5 15.1 12.5 15.25 12.6 15.15 12.65 15.25 12.5 15.75 12.2 17.9 Q12.1 18.95 12.6 19.35 L12.45 19.55 12.1 20.35 11.75 20.35 11.6 20.45 11.65 20.05 11.7 18.7 11.55 18.6 11.3 18.4 11.2 18.35 11.15 18.25 11.1 18.15 11.05 18.0 10.9 17.9 10.4 17.75 Q9.7 17.3 8.9 17.1 L7.7 16.95 7.7 16.35 Q7.55 15.25 7.75 14.1 L8.15 12.35 8.2 12.35 8.4 11.2 M7.25 16.9 L7.05 16.8 7.25 16.1 7.45 16.95 7.3 16.95 7.25 16.9 M11.35 22.6 Q11.45 23.0 11.95 22.8 L12.3 24.2 12.6 24.25 Q12.1 25.1 11.7 26.2 9.65 31.15 5.0 29.3 L4.9 27.8 5.05 26.65 Q5.25 25.45 4.95 24.5 L5.3 24.65 Q7.6 25.85 10.0 25.55 L10.2 25.75 10.25 25.65 10.3 25.5 10.35 25.45 10.3 25.45 10.3 25.4 10.3 25.2 10.3 25.1 Q11.05 24.05 11.25 22.65 L11.3 22.6 11.35 22.6" fill="#968367" fill-rule="evenodd" stroke="none"/>
      <path d="M8.0 16.2 L8.0 14.95 8.35 11.75 Q9.65 11.9 11.0 13.75 L10.05 13.85 8.35 16.25 8.0 16.2 M6.2 24.85 L6.25 25.2 6.05 26.45 Q7.25 27.9 7.25 28.1 L7.1 28.45 6.65 28.65 6.0 28.45 5.6 28.25 5.35 28.35 5.25 28.5 5.0 28.05 Q5.0 24.85 6.15 24.8 L6.2 24.85 M12.25 24.0 L11.8 24.95 12.15 25.0 12.25 25.25 Q10.75 27.9 9.25 28.75 L9.0 28.5 Q9.0 27.7 11.85 23.4 L12.25 24.0" fill="#605342" fill-rule="evenodd" stroke="none"/>
      <path d="M13.25 7.5 Q13.55 8.0 13.65 9.2 13.7 10.4 14.05 11.0 14.3 11.45 16.55 12.35 18.8 13.2 19.1 13.95 L19.05 14.05 18.85 14.15 17.85 13.9 16.4 13.65 Q13.9 13.65 13.1 12.1 12.75 11.4 12.75 9.85 L12.85 8.75 Q12.85 7.65 13.25 7.5 M11.85 12.25 L11.6 12.5 Q10.4 12.5 9.35 11.6 8.5 10.85 8.5 10.5 8.5 10.05 8.85 10.15 L9.95 11.1 Q10.95 11.85 11.75 12.05 L11.85 12.25 M4.8 10.15 Q5.35 10.15 6.9 10.9 L7.5 8.85 Q7.95 7.55 8.8 7.2 L8.85 7.55 7.25 11.9 5.35 11.55 5.25 11.65 3.45 11.65 3.35 11.4 3.45 11.25 4.75 11.15 4.5 10.75 4.4 10.65 4.25 10.5 4.35 10.2 4.8 10.15 M3.3 11.7 L3.5 12.05 3.25 13.85 3.85 14.5 4.85 15.15 4.55 15.6 4.25 15.9 3.35 15.45 3.25 15.7 3.1 15.75 Q2.55 15.75 2.5 14.6 L2.6 12.0 3.0 11.4 3.3 11.7 M7.65 18.35 L8.3 20.75 Q10.1 19.55 10.85 19.4 L11.1 19.8 9.85 21.15 8.25 22.25 7.5 20.5 6.85 18.45 7.05 17.85 Q7.3 17.5 7.65 17.7 L7.7 17.8 7.5 18.15 7.6 18.35 7.65 18.35 M5.5 18.35 L4.85 18.8 3.4 19.15 2.6 19.1 2.6 18.35 3.0 17.3 Q3.25 16.6 3.85 16.4 L4.1 16.65 3.85 17.1 Q3.6 17.5 3.5 17.95 L3.5 18.45 5.15 18.0 5.4 18.05 5.5 18.35 M6.15 24.8 L5.7 24.5 Q4.95 23.85 4.85 23.4 L4.75 23.4 4.15 22.95 3.5 23.15 3.35 23.05 Q3.3 22.9 3.15 22.9 L2.0 23.4 1.75 22.8 2.0 21.05 Q2.3 19.55 2.75 19.15 L3.55 20.5 Q3.95 21.25 3.75 22.25 4.3 22.3 4.9 23.0 4.95 22.25 5.45 21.0 L6.35 19.15 6.75 19.9 6.2 21.7 7.05 22.9 Q8.0 24.0 8.65 24.2 L8.75 24.4 8.3 24.7 9.4 25.05 9.5 25.25 9.1 25.5 Q7.35 25.5 6.2 24.85 L6.15 24.8 M15.4 12.5 L15.45 12.55 16.2 12.85 16.4 12.85 Q15.9 12.5 15.4 12.5 M13.25 14.0 L13.85 14.85 13.5 16.35 13.5 17.1 14.05 17.1 14.85 16.75 15.1 17.0 14.5 17.75 13.45 17.85 13.3 18.15 13.1 18.4 Q12.75 17.95 12.75 17.0 L12.85 15.3 Q13.0 14.05 13.25 14.0 M13.5 20.15 L13.5 20.2 13.3 21.0 13.1 21.75 Q13.1 22.45 13.7 22.45 L13.95 22.35 14.15 22.25 Q14.6 22.25 14.6 22.8 L14.55 23.2 13.85 23.25 Q13.85 24.15 13.5 24.15 13.15 24.15 12.35 22.35 L13.25 19.75 13.4 19.9 13.5 20.15" fill="#262b1a" fill-rule="evenodd" stroke="none"/>
      <path d="M14.1 7.7 L16.4 8.15 Q18.1 8.55 18.1 9.35 L17.95 10.35 17.65 10.4 Q17.1 10.4 15.65 9.25 L14.1 8.0 14.1 7.7 M6.25 4.1 Q6.25 3.6 7.0 3.7 L7.1 3.95 Q7.1 4.4 6.6 4.4 L6.35 4.35 6.25 4.1 M3.6 7.65 L3.9 6.75 Q4.2 5.9 4.6 5.75 L4.85 6.2 4.65 6.95 4.0 7.85 3.85 7.9 3.6 7.65 M4.6 8.9 L6.2 7.3 6.65 6.55 7.1 5.9 7.9 6.2 8.0 6.4 Q8.0 6.85 5.3 9.25 L4.7 9.15 4.6 8.9 M7.7 17.8 L7.7 17.75 Q7.95 17.65 8.25 18.2 8.05 18.4 7.85 18.4 L7.65 18.35 7.6 18.35 7.5 18.15 7.7 17.8 M8.2 17.8 L8.1 17.7 Q8.4 17.55 9.7 18.1 10.9 18.7 11.1 18.95 L10.85 19.25 10.35 19.5 9.9 19.4 9.5 19.75 Q9.15 19.75 9.1 19.5 L9.1 19.25 9.15 18.95 9.0 18.8 8.3 18.05 8.2 17.8 M17.6 15.15 L17.55 15.55 17.1 15.65 16.4 15.4 16.35 15.15 16.6 14.85 17.55 14.8 17.6 15.15 M15.1 19.5 L15.75 20.7 15.65 20.95 15.5 21.0 Q15.25 21.0 15.1 20.45 L15.0 19.85 15.05 19.55 15.1 19.5 M13.4 19.9 L13.35 19.65 Q14.05 19.2 14.05 20.0 L14.25 20.4 14.0 20.65 13.55 20.2 13.5 20.15 13.4 19.9" fill="#a8b685" fill-rule="evenodd" stroke="none"/>
    </g>
    <g id="sprite6" transform="matrix(1.0, 0.0, 0.0, 1.0, -3.0, 0.0)">
      <use height="14.45" transform="matrix(1.0, 0.0, 0.0, 1.0, 3.0, 0.0)" width="35.4" xlink:href="#shape6"/>
    </g>
    <g id="shape6" transform="matrix(1.0, 0.0, 0.0, 1.0, -3.0, 0.0)">
      <path d="M14.1 2.25 L15.3 2.2 16.75 0.0 24.55 0.75 Q24.55 1.9 25.0 3.15 30.3 4.85 35.9 4.95 L36.75 3.65 Q37.3 4.0 37.25 4.55 L37.15 5.25 38.4 5.85 37.8 6.85 32.7 7.3 32.8 8.25 Q29.6 9.6 25.85 8.65 L24.7 8.85 Q24.1 10.6 24.45 12.75 22.95 13.6 21.05 13.95 20.55 11.3 21.1 8.9 L16.85 8.7 Q15.65 11.05 15.25 13.85 L12.75 14.45 Q12.2 10.9 13.85 7.9 9.15 6.85 5.7 10.25 L4.5 11.1 Q1.5 7.15 4.6 2.95 6.8 2.5 9.15 2.9 L8.7 3.0 12.6 2.7 11.4 3.55 Q12.1 4.3 12.4 5.4 L22.5 4.6 23.6 4.1 24.4 3.65 Q20.7 2.7 16.7 2.6 L14.1 2.25 M36.65 4.55 L36.65 4.5 36.6 4.5 36.2 5.05 36.6 5.15 36.65 4.55 M32.3 7.5 Q29.4 6.75 26.25 8.2 L29.2 8.35 Q30.7 8.25 32.2 7.5 L32.3 7.5 M25.5 4.0 L22.9 5.2 22.9 5.55 22.7 6.85 22.3 8.1 25.25 8.15 25.85 7.45 25.9 4.25 25.5 4.0 M24.15 0.9 L17.15 0.35 16.5 1.35 15.8 2.2 16.6 1.95 16.75 1.85 17.3 1.25 18.0 0.85 19.95 1.25 20.45 1.1 Q22.5 0.7 23.35 2.75 L24.5 2.95 24.15 0.9 M22.55 1.75 L17.9 1.45 17.25 2.15 22.9 2.6 22.55 1.75 M24.15 8.85 L21.5 8.9 21.3 13.45 24.0 12.45 Q23.7 11.0 23.9 9.6 L24.15 8.85 M27.1 6.55 L27.95 6.4 38.05 5.9 26.35 4.35 26.35 6.95 27.1 6.55 M19.1 8.25 L21.75 8.15 22.5 5.35 16.95 5.9 14.6 5.65 12.4 5.6 12.25 6.35 12.0 6.5 11.45 6.9 11.0 7.4 14.6 7.5 14.95 7.8 Q13.65 8.3 13.55 9.65 L13.0 13.85 Q14.25 13.95 14.85 12.9 L15.8 10.4 Q16.4 8.2 18.15 8.35 L16.9 8.0 17.05 7.3 18.75 7.1 19.1 8.15 19.05 8.25 19.1 8.25 M12.0 4.85 L10.8 3.7 Q9.6 3.9 8.35 3.25 L8.15 3.25 8.1 3.05 Q4.1 2.85 3.6 7.1 3.35 9.05 4.55 10.6 7.25 7.95 10.6 7.35 L10.85 6.55 12.15 5.8 12.0 4.85 M18.3 7.9 Q18.65 7.9 18.45 7.65 L18.15 7.5 17.5 7.6 17.9 7.95 18.3 7.9" fill="#000000" fill-rule="evenodd" stroke="none"/>
      <path d="M12.6 2.7 L13.65 2.35 14.1 2.25 16.7 2.6 Q20.7 2.7 24.4 3.65 L23.6 4.1 22.5 4.6 12.4 5.4 Q12.1 4.3 11.4 3.55 L12.6 2.7 M36.6 4.5 L36.65 4.55 36.6 5.15 36.2 5.05 36.6 4.5 M24.15 0.9 L24.5 2.95 23.35 2.75 Q22.5 0.7 20.45 1.1 L19.95 1.25 18.0 0.85 17.3 1.25 16.75 1.85 16.6 1.95 15.8 2.2 16.5 1.35 17.15 0.35 24.15 0.9 M25.5 4.0 L25.9 4.25 25.85 7.45 25.25 8.15 22.3 8.1 22.7 6.85 22.9 5.55 22.9 5.2 25.5 4.0 M32.3 7.5 L32.2 7.5 Q30.7 8.25 29.2 8.35 L26.25 8.2 Q29.4 6.75 32.3 7.5 M19.1 8.15 L18.75 7.1 17.05 7.3 16.9 8.0 18.15 8.35 Q16.4 8.2 15.8 10.4 L14.85 12.9 Q14.25 13.95 13.0 13.85 L13.55 9.65 Q13.65 8.3 14.95 7.8 L14.6 7.5 11.0 7.4 11.45 6.9 12.0 6.5 12.25 6.35 12.4 5.6 14.6 5.65 16.95 5.9 22.5 5.35 21.75 8.15 19.1 8.25 19.1 8.15 M27.1 6.55 L26.35 6.95 26.35 4.35 38.05 5.9 27.95 6.4 27.1 6.55 M24.15 8.85 L23.9 9.6 Q23.7 11.0 24.0 12.45 L21.3 13.45 21.5 8.9 24.15 8.85 M12.0 4.85 L12.15 5.8 10.85 6.55 10.6 7.35 Q7.25 7.95 4.55 10.6 3.35 9.05 3.6 7.1 4.1 2.85 8.1 3.05 L8.15 3.25 8.35 3.25 Q9.6 3.9 10.8 3.7 L12.0 4.85" fill="#333333" fill-rule="evenodd" stroke="none"/>
    </g>
  </defs>
</svg>
