<?xml version="1.0" encoding="UTF-8" standalone="no"?>
<svg xmlns:xlink="http://www.w3.org/1999/xlink" height="67.0px" width="109.0px" xmlns="http://www.w3.org/2000/svg">
  <g transform="matrix(1.0, 0.0, 0.0, 1.0, 40.3, 65.85)">
    <use height="12.35" transform="matrix(0.976, -0.2032, 0.2032, 0.976, -0.2135, -37.8908)" width="4.45" xlink:href="#sprite0"/>
    <use height="28.3" transform="matrix(0.9977, 0.0619, -0.0619, 0.9977, -37.0539, -38.7467)" width="60.65" xlink:href="#sprite1"/>
    <use height="21.1" transform="matrix(0.9846, 0.1651, -0.1651, 0.9846, 13.0098, -26.6726)" width="28.35" xlink:href="#sprite2"/>
    <use height="12.25" transform="matrix(0.9517, 0.301, -0.301, 0.9517, 1.1611, -21.1454)" width="14.95" xlink:href="#sprite3"/>
    <use height="10.25" transform="matrix(0.9647, 0.2588, -0.203, 0.7566, 2.0865, -12.4818)" width="8.0" xlink:href="#sprite4"/>
    <use height="7.4" transform="matrix(0.9971, -0.061, 0.061, 0.9971, 2.6347, -6.3668)" width="7.3" xlink:href="#sprite5"/>
    <use height="12.6" transform="matrix(0.9259, 0.3746, -0.3746, 0.9259, -20.7179, -26.5743)" width="14.05" xlink:href="#sprite6"/>
    <use height="8.35" transform="matrix(1.0, 0.0, 0.0, 1.0, -19.65, -8.2)" width="8.5" xlink:href="#sprite7"/>
    <use height="9.8" transform="matrix(0.9942, 0.0959, -0.0959, 0.9942, -18.8017, -14.6914)" width="9.75" xlink:href="#sprite8"/>
    <use height="15.8" transform="matrix(0.8629, 0.5004, -0.5004, 0.8629, 0.1779, -28.925)" width="8.65" xlink:href="#sprite9"/>
    <use height="11.1" transform="matrix(0.959, -0.2758, 0.2758, 0.959, -3.0295, -34.3901)" width="5.7" xlink:href="#sprite10"/>
    <use height="32.55" transform="matrix(0.9607, 0.2717, -0.2717, 0.9607, -1.346, -64.653)" width="19.55" xlink:href="#sprite11"/>
    <use height="11.1" transform="matrix(0.7747, -0.6243, 0.6243, 0.7747, 1.169, -45.2383)" width="3.65" xlink:href="#sprite12"/>
    <use height="80.7" transform="matrix(-0.1134, 0.9917, -0.9917, -0.1134, 67.1488, -29.4757)" width="4.75" xlink:href="#sprite13"/>
    <use height="11.85" transform="matrix(0.6782, -0.73, 0.73, 0.6782, 7.0509, -38.1238)" width="3.95" xlink:href="#sprite14"/>
  </g>
  <defs>
    <g id="sprite0" transform="matrix(1.0, 0.0, 0.0, 1.0, 1.65, 1.0)">
      <use height="12.35" transform="matrix(1.0, 0.0, 0.0, 1.0, -1.65, -1.0)" width="4.45" xlink:href="#shape0"/>
    </g>
    <g id="shape0" transform="matrix(1.0, 0.0, 0.0, 1.0, 1.65, 1.0)">
      <path d="M0.85 -0.75 L0.85 -0.65 Q0.85 -0.15 1.2 0.85 L1.55 2.4 1.2 3.9 Q0.85 5.45 0.85 6.8 L0.85 7.2 0.9 7.45 1.1 7.45 1.1 7.5 1.6 7.95 2.2 8.55 2.15 9.15 2.3 9.75 2.1 9.8 1.75 9.55 1.55 9.35 1.5 9.2 1.55 8.9 Q1.55 8.65 0.9 8.5 L0.15 8.55 0.45 8.75 1.25 8.95 1.15 9.15 Q1.15 9.65 1.4 9.65 L1.8 10.05 1.55 10.5 Q1.35 11.1 1.0 11.1 L0.75 11.0 0.35 11.1 0.45 11.0 0.8 10.5 0.9 10.05 0.65 9.75 0.55 10.1 0.55 10.25 -0.4 10.5 -0.95 10.45 -1.05 10.25 Q-0.4 9.95 -0.4 9.5 L-0.45 9.35 -0.8 9.45 -0.85 9.55 -0.95 9.5 -1.05 9.35 -1.15 9.15 -0.55 8.15 -0.25 7.7 0.0 7.7 0.0 7.65 -0.05 7.55 0.0 7.5 0.1 7.45 0.45 7.25 0.45 7.15 0.0 7.2 -0.7 4.65 -1.35 2.05 -1.15 1.0 -1.0 0.65 -0.95 0.55 -0.9 0.45 -1.0 0.25 -1.05 -0.05 -1.0 -0.25 -0.9 -0.2 0.15 -0.5 0.7 -0.7 0.85 -0.75" fill="#ffead5" fill-rule="evenodd" stroke="none"/>
      <path d="M0.85 -0.75 L0.95 -1.0 1.1 -0.8 1.1 -0.85 1.25 -0.3 1.3 0.2 1.4 0.5 1.85 2.05 1.85 2.5 1.8 2.65 1.6 3.5 1.3 4.9 1.25 5.45 1.25 6.7 1.3 7.35 1.4 7.4 1.8 7.75 Q2.5 8.0 2.5 8.45 2.5 9.05 2.65 9.35 L2.8 9.85 2.5 10.05 2.2 10.15 Q1.9 11.3 0.7 11.35 -0.15 11.45 0.0 11.15 L0.25 10.75 -0.5 10.85 Q-1.35 10.85 -1.4 10.25 L-1.25 10.05 -1.0 9.95 -1.15 9.8 -1.55 9.05 Q-0.95 8.55 -0.8 8.05 -0.9 7.5 -0.35 7.3 L-0.6 6.25 -0.75 5.65 -1.0 4.8 -1.4 3.35 -1.6 2.3 -1.65 2.05 -1.65 1.9 -1.55 1.05 -1.4 0.65 -1.35 0.4 -1.4 0.25 -1.45 -0.15 -1.15 -0.6 Q-0.85 -0.8 -0.85 -0.5 L-0.95 -0.3 -1.0 -0.25 -1.05 -0.05 -1.0 0.25 -0.9 0.45 -0.95 0.55 -1.0 0.65 -1.15 1.0 -1.35 2.05 -0.7 4.65 0.0 7.2 0.45 7.15 0.45 7.25 0.1 7.45 0.0 7.5 -0.05 7.55 0.0 7.65 0.0 7.7 -0.25 7.7 -0.55 8.15 -1.15 9.15 -1.05 9.35 -0.95 9.5 -0.85 9.55 -0.8 9.45 -0.45 9.35 -0.4 9.5 Q-0.4 9.95 -1.05 10.25 L-0.95 10.45 -0.4 10.5 0.55 10.25 0.55 10.1 0.65 9.75 0.9 10.05 0.8 10.5 0.45 11.0 0.35 11.1 0.75 11.0 1.0 11.1 Q1.35 11.1 1.55 10.5 L1.8 10.05 1.4 9.65 Q1.15 9.65 1.15 9.15 L1.25 8.95 0.45 8.75 0.15 8.55 0.9 8.5 Q1.55 8.65 1.55 8.9 L1.5 9.2 1.55 9.35 1.75 9.55 2.1 9.8 2.3 9.75 2.15 9.15 2.2 8.55 1.6 7.95 1.1 7.5 1.1 7.45 0.9 7.45 0.85 7.2 0.85 6.8 Q0.85 5.45 1.2 3.9 L1.55 2.4 1.2 0.85 Q0.85 -0.15 0.85 -0.65 L0.85 -0.75" fill="#000000" fill-rule="evenodd" stroke="none"/>
    </g>
    <g id="sprite1" transform="matrix(1.0, 0.0, 0.0, 1.0, 30.35, 14.15)">
      <use height="28.3" transform="matrix(1.0, 0.0, 0.0, 1.0, -30.35, -14.15)" width="60.65" xlink:href="#shape1"/>
    </g>
    <g id="shape1" transform="matrix(1.0, 0.0, 0.0, 1.0, 30.35, 14.15)">
      <path d="M24.55 8.5 L24.55 8.95 23.95 9.1 23.1 9.35 21.55 9.8 21.0 9.95 20.5 10.05 20.4 10.05 Q18.2 10.45 15.15 11.6 11.6 12.95 9.4 13.35 L8.5 13.4 7.95 13.35 8.05 13.55 7.9 13.8 7.7 14.15 7.4 13.85 6.75 13.65 6.1 13.85 5.95 13.95 5.85 13.9 5.6 13.8 5.4 13.8 1.55 12.85 Q-1.35 11.9 -2.3 11.4 -3.25 10.95 -5.4 9.5 -7.8 8.35 -11.55 8.35 L-13.35 8.25 -14.1 8.15 -15.4 8.3 -15.85 8.15 -17.5 8.25 -20.7 8.35 Q-22.9 8.35 -26.35 7.35 -29.65 6.4 -29.9 5.6 L-30.35 5.35 -30.1 5.1 Q-29.9 5.1 -29.0 5.45 L-27.9 5.75 Q-25.0 5.75 -22.4 3.7 -20.9 2.5 -18.8 -0.1 L-14.65 -4.0 Q-12.15 -6.15 -11.4 -6.25 L-11.3 -6.45 -11.05 -7.15 -11.05 -7.8 Q-11.0 -8.15 -10.5 -8.15 L-10.35 -8.05 -9.05 -8.0 Q-7.9 -8.0 -7.45 -9.0 L-6.75 -10.05 Q-5.55 -9.3 -4.75 -9.3 -3.75 -9.3 -3.4 -9.65 L-2.5 -10.85 Q-2.1 -11.25 -1.05 -10.6 L-0.2 -10.3 -0.4 -11.2 Q-0.4 -11.4 0.9 -11.85 L2.8 -12.3 4.15 -11.3 Q5.4 -10.35 6.55 -10.35 L8.4 -10.2 9.15 -10.1 11.4 -10.55 13.05 -11.05 13.15 -11.05 Q13.85 -11.4 13.95 -11.5 L14.95 -12.5 15.3 -13.6 Q15.5 -14.25 16.2 -14.1 L18.35 -13.65 Q18.35 -12.95 17.55 -11.9 L16.75 -10.45 17.15 -9.85 17.45 -9.4 17.95 -9.2 Q18.35 -9.0 18.45 -9.0 18.7 -9.0 20.45 -10.2 21.6 -11.0 21.7 -9.5 22.0 -8.3 22.35 -8.0 L24.7 -6.9 Q26.45 -8.05 26.75 -8.05 27.1 -8.05 27.1 -7.1 L27.15 -5.7 27.55 -5.25 27.6 -5.2 27.65 -5.15 28.7 -3.95 Q30.3 -1.85 30.3 -0.15 30.3 0.3 30.1 0.3 L29.7 -0.75 29.15 -2.4 27.8 -4.15 27.45 -4.55 Q26.75 -4.95 26.7 -5.35 26.55 -5.95 26.55 -7.35 L24.75 -6.3 23.15 -7.1 22.4 -7.4 Q21.8 -7.65 21.7 -7.95 21.2 -8.9 21.05 -9.8 18.95 -8.45 18.45 -8.45 L17.3 -8.9 17.1 -8.8 15.65 -6.85 14.55 -4.35 13.35 -1.25 12.75 0.15 12.8 0.35 12.55 0.7 11.75 0.9 7.65 1.1 Q7.1 5.4 7.1 8.4 L7.35 11.15 7.85 13.15 9.25 13.0 Q11.05 12.8 12.25 12.2 13.3 11.7 15.1 11.1 19.95 9.15 21.2 9.3 L22.7 8.9 23.9 8.65 23.9 8.75 24.2 8.85 24.55 8.5 M21.05 -9.8 L21.05 -9.85 21.05 -9.8 M17.8 -13.4 L17.0 -13.5 16.0 -13.65 Q15.65 -12.75 14.9 -11.8 13.8 -10.3 12.75 -10.3 L12.55 -10.3 11.8 -10.1 9.15 -9.6 Q5.4 -9.6 4.05 -10.65 L2.7 -11.75 0.1 -11.1 0.4 -10.25 0.7 -9.95 0.55 -9.65 0.55 -9.55 2.1 -4.55 3.4 -1.75 Q4.2 -0.25 5.0 0.2 L5.45 0.4 5.75 0.5 7.05 0.6 8.15 0.55 8.3 0.4 10.4 0.45 11.65 0.35 12.1 0.4 12.1 0.35 14.1 -4.8 Q14.95 -7.1 16.2 -8.55 L16.75 -9.05 16.75 -9.15 16.9 -9.4 16.25 -10.4 Q16.25 -11.05 16.85 -11.9 L17.8 -13.4 M-2.65 -9.65 Q-3.3 -8.8 -4.85 -8.8 L-6.75 -9.4 Q-7.6 -7.4 -7.8 -7.4 L-8.05 -7.45 -8.05 -7.5 -10.45 -7.55 -10.7 -6.4 Q-11.0 -5.65 -11.3 -5.65 L-11.45 -5.65 -13.75 -3.9 Q-16.9 -1.5 -18.55 0.45 -19.9 2.4 -21.2 3.55 -24.2 6.15 -27.7 6.25 L-26.3 6.85 -24.1 7.4 -21.1 7.85 -16.7 7.7 -15.85 7.6 -15.25 7.75 -14.05 7.65 -10.75 7.8 Q-7.75 7.8 -5.05 9.15 L-2.05 10.95 1.65 12.45 5.55 13.4 Q5.25 12.6 5.1 10.8 L4.9 7.65 5.1 0.95 5.15 0.85 4.6 0.6 Q3.8 0.15 3.1 -1.25 L1.8 -4.1 0.85 -6.75 0.05 -9.55 -0.05 -9.75 Q-0.7 -9.95 -2.1 -10.5 L-2.65 -9.65 M7.1 1.1 L6.1 1.05 5.9 1.2 5.75 1.2 5.6 4.1 5.4 7.65 5.6 10.65 6.15 13.25 6.85 13.15 7.2 13.3 6.85 11.3 6.6 8.4 Q6.7 2.45 7.15 1.1 L7.1 1.1" fill="#000000" fill-rule="evenodd" stroke="none"/>
      <path d="M17.8 -13.4 L16.85 -11.9 Q16.25 -11.05 16.25 -10.4 L16.9 -9.4 16.75 -9.15 16.75 -9.05 16.2 -8.55 Q14.95 -7.1 14.1 -4.8 L12.1 0.35 12.1 0.4 11.65 0.35 10.4 0.45 8.3 0.4 8.15 0.55 7.05 0.6 5.75 0.5 5.45 0.4 5.0 0.2 Q4.2 -0.25 3.4 -1.75 L2.1 -4.55 0.55 -9.55 0.55 -9.65 0.7 -9.95 0.4 -10.25 0.1 -11.1 2.7 -11.75 4.05 -10.65 Q5.4 -9.6 9.15 -9.6 L11.8 -10.1 12.55 -10.3 12.75 -10.3 Q13.8 -10.3 14.9 -11.8 15.65 -12.75 16.0 -13.65 L17.0 -13.5 17.8 -13.4 M7.1 1.1 L7.15 1.1 Q6.7 2.45 6.6 8.4 L6.85 11.3 7.2 13.3 6.85 13.15 6.15 13.25 5.6 10.65 5.4 7.65 5.6 4.1 5.75 1.2 5.9 1.2 6.1 1.05 7.1 1.1" fill="#a58b52" fill-rule="evenodd" stroke="none"/>
      <path d="M30.1 0.3 L30.1 0.95 29.9 3.25 Q29.6 4.2 28.6 5.0 L26.05 6.95 24.55 8.5 24.2 8.85 23.9 8.75 23.9 8.65 22.7 8.9 21.2 9.3 Q19.95 9.15 15.1 11.1 13.3 11.7 12.25 12.2 11.05 12.8 9.25 13.0 L7.85 13.15 7.35 11.15 7.1 8.4 Q7.1 5.4 7.65 1.1 L11.75 0.9 12.55 0.7 12.8 0.35 12.75 0.15 13.35 -1.25 14.55 -4.35 15.65 -6.85 17.1 -8.8 17.3 -8.9 18.45 -8.45 Q18.95 -8.45 21.05 -9.8 21.2 -8.9 21.7 -7.95 21.8 -7.65 22.4 -7.4 L23.15 -7.1 24.75 -6.3 26.55 -7.35 Q26.55 -5.95 26.7 -5.35 26.75 -4.95 27.45 -4.55 L27.8 -4.15 29.15 -2.4 29.7 -0.75 30.1 0.3 M-2.65 -9.65 L-2.1 -10.5 Q-0.7 -9.95 -0.05 -9.75 L0.05 -9.55 0.85 -6.75 1.8 -4.1 3.1 -1.25 Q3.8 0.15 4.6 0.6 L5.15 0.85 5.1 0.95 4.9 7.65 5.1 10.8 Q5.25 12.6 5.55 13.4 L1.65 12.45 -2.05 10.95 -5.05 9.15 Q-7.75 7.8 -10.75 7.8 L-14.05 7.65 -15.25 7.75 -15.85 7.6 -16.7 7.7 -21.1 7.85 -24.1 7.4 -26.3 6.85 -27.7 6.25 Q-24.2 6.15 -21.2 3.55 -19.9 2.4 -18.55 0.45 -16.9 -1.5 -13.75 -3.9 L-11.45 -5.65 -11.3 -5.65 Q-11.0 -5.65 -10.7 -6.4 L-10.45 -7.55 -8.05 -7.5 -8.05 -7.45 -7.8 -7.4 Q-7.6 -7.4 -6.75 -9.4 L-4.85 -8.8 Q-3.3 -8.8 -2.65 -9.65" fill="#418822" fill-rule="evenodd" stroke="none"/>
    </g>
    <g id="sprite2" transform="matrix(1.0, 0.0, 0.0, 1.0, 14.15, 10.55)">
      <use height="21.1" transform="matrix(1.0, 0.0, 0.0, 1.0, -14.15, -10.55)" width="28.35" xlink:href="#shape2"/>
    </g>
    <g id="shape2" transform="matrix(1.0, 0.0, 0.0, 1.0, 14.15, 10.55)">
      <path d="M-9.1 3.2 L-9.15 3.2 Q-10.65 3.2 -12.05 1.55 -13.15 0.35 -13.25 -0.25 L-14.0 -2.35 -14.15 -4.15 Q-14.15 -7.05 -11.9 -8.8 -9.9 -10.3 -7.25 -10.3 L-6.0 -10.15 -5.85 -9.95 -5.85 -9.75 -4.8 -8.9 -4.3 -8.4 -2.6 -6.85 -1.5 -5.4 -0.55 -4.35 0.0 -4.65 1.2 -4.95 Q1.6 -4.95 1.95 -4.6 L2.2 -4.35 3.1 -3.75 4.15 -3.2 Q4.65 -2.4 5.95 -1.9 L6.15 -1.85 6.3 -1.8 Q6.25 -1.45 6.6 -1.05 6.95 -0.65 7.4 -0.45 L8.6 0.15 8.65 0.2 8.8 0.5 8.9 0.85 10.2 2.25 11.3 2.65 Q11.75 2.8 11.75 3.5 L11.6 3.85 11.4 4.15 11.3 4.5 10.85 7.1 8.45 8.65 6.75 9.7 6.6 9.65 6.05 9.85 5.5 10.0 3.15 8.7 Q0.7 7.95 0.5 7.6 L-0.3 6.05 -0.95 4.9 Q-1.2 4.6 -1.2 5.2 L-1.0 5.75 -1.45 5.5 Q-2.35 5.0 -3.1 5.05 L-3.25 3.35 -3.4 2.5 Q-3.5 1.6 -3.9 2.55 L-3.75 4.0 -4.5 3.6 -4.7 3.5 -6.0 3.1 -6.05 3.1 -7.7 2.9 -8.85 3.05 -9.1 3.2 M5.8 1.65 L6.75 2.5 7.0 2.25 5.3 0.15 4.1 -0.9 Q3.35 -1.5 2.4 -1.8 L2.5 -2.15 Q2.5 -2.65 2.2 -2.35 L1.9 -1.7 Q1.9 -1.45 3.0 -0.8 2.65 -0.3 2.65 0.4 L2.7 0.8 3.7 1.15 5.8 1.65 M9.15 5.3 L9.45 5.4 10.8 4.5 Q9.15 3.75 9.15 5.15 L9.15 5.3" fill="#418822" fill-rule="evenodd" stroke="none"/>
      <path d="M-6.0 -10.15 L-6.0 -10.55 -5.45 -10.2 -4.55 -9.35 -3.5 -8.5 -0.55 -5.05 -0.05 -5.25 1.2 -5.45 Q1.8 -5.45 2.35 -5.0 L2.55 -4.8 2.8 -4.65 3.75 -3.95 4.45 -3.8 4.6 -3.85 5.0 -3.7 6.35 -4.9 Q6.8 -5.5 6.8 -3.75 L6.7 -2.15 6.8 -1.75 Q6.8 -1.45 7.45 -1.05 8.0 -0.65 8.65 -0.45 L9.3 0.05 9.45 0.15 Q11.1 0.15 13.1 -2.6 L13.7 -4.05 Q14.3 -4.1 14.15 -2.8 L13.85 0.15 12.9 1.7 12.15 2.7 12.25 3.5 12.1 4.0 11.85 4.35 11.55 6.25 11.25 7.6 6.35 10.55 6.15 10.45 6.15 10.4 5.55 10.55 Q5.2 10.55 4.25 9.95 L3.15 9.25 1.65 8.85 Q0.9 8.65 0.3 8.25 -0.05 8.05 -0.65 6.65 L-0.75 6.4 -0.9 6.4 -1.65 6.0 Q-2.3 5.55 -2.75 5.55 L-3.05 5.65 -3.2 5.7 Q-3.5 5.7 -3.65 4.65 L-4.5 4.25 -6.0 3.7 -6.05 3.65 -7.75 3.4 -9.1 3.55 -9.1 3.2 -8.85 3.05 -7.7 2.9 -6.05 3.1 -6.0 3.1 -4.7 3.5 -4.5 3.6 -3.75 4.0 -3.9 2.55 Q-3.5 1.6 -3.4 2.5 L-3.25 3.35 -3.1 5.05 Q-2.35 5.0 -1.45 5.5 L-1.0 5.75 -1.2 5.2 Q-1.2 4.6 -0.95 4.9 L-0.3 6.05 0.5 7.6 Q0.7 7.95 3.15 8.7 L5.5 10.0 6.05 9.85 6.6 9.65 6.75 9.7 8.45 8.65 10.85 7.1 11.3 4.5 11.4 4.15 11.6 3.85 11.75 3.5 Q11.75 2.8 11.3 2.65 L10.2 2.25 8.9 0.85 8.8 0.5 8.65 0.2 8.6 0.15 7.4 -0.45 Q6.95 -0.65 6.6 -1.05 6.25 -1.45 6.3 -1.8 L6.15 -1.85 5.95 -1.9 Q4.65 -2.4 4.15 -3.2 L3.1 -3.75 2.2 -4.35 1.95 -4.6 Q1.6 -4.95 1.2 -4.95 L0.0 -4.65 -0.55 -4.35 -1.5 -5.4 -2.6 -6.85 -4.3 -8.4 -4.8 -8.9 -5.85 -9.75 -5.85 -9.95 -6.0 -10.15 M13.65 -2.5 Q11.4 0.65 9.55 0.65 L9.45 0.65 9.6 0.9 11.65 2.25 11.75 2.3 12.5 1.45 Q13.45 0.15 13.65 -1.7 L13.65 -2.5 M6.3 -3.75 L6.25 -3.8 Q5.75 -3.2 5.0 -3.2 L5.4 -2.8 6.05 -2.4 6.3 -2.8 6.3 -3.75 M5.8 1.65 L3.7 1.15 2.7 0.8 2.65 0.4 Q2.65 -0.3 3.0 -0.8 1.9 -1.45 1.9 -1.7 L2.2 -2.35 Q2.5 -2.65 2.5 -2.15 L2.4 -1.8 Q3.35 -1.5 4.1 -0.9 L5.3 0.15 7.0 2.25 6.75 2.5 5.8 1.65 M3.4 -0.45 L3.15 0.05 3.15 0.5 5.25 0.9 4.75 0.3 3.45 -0.55 3.4 -0.45 M9.15 5.3 L9.15 5.15 Q9.15 3.75 10.8 4.5 L9.45 5.4 9.15 5.3" fill="#000000" fill-rule="evenodd" stroke="none"/>
      <path d="M6.3 -3.75 L6.3 -2.8 6.05 -2.4 5.4 -2.8 5.0 -3.2 Q5.75 -3.2 6.25 -3.8 L6.3 -3.75 M13.65 -2.5 L13.65 -1.7 Q13.45 0.15 12.5 1.45 L11.75 2.3 11.65 2.25 9.6 0.9 9.45 0.65 9.55 0.65 Q11.4 0.65 13.65 -2.5" fill="#e9e9c9" fill-rule="evenodd" stroke="none"/>
      <path d="M3.4 -0.45 L3.45 -0.55 4.75 0.3 5.25 0.9 3.15 0.5 3.15 0.05 3.4 -0.45" fill="#ffff55" fill-rule="evenodd" stroke="none"/>
    </g>
    <g id="sprite3" transform="matrix(1.0, 0.0, 0.0, 1.0, 7.45, 6.15)">
      <use height="12.25" transform="matrix(1.0, 0.0, 0.0, 1.0, -7.45, -6.15)" width="14.95" xlink:href="#shape3"/>
    </g>
    <g id="shape3" transform="matrix(1.0, 0.0, 0.0, 1.0, 7.45, 6.15)">
      <path d="M-6.65 -5.85 L-5.4 -6.15 -4.1 -5.95 Q-3.25 -5.8 -3.0 -5.95 L4.2 -5.2 Q7.4 -4.6 7.5 -3.7 L7.5 -3.6 7.2 -3.4 7.05 -3.5 6.85 -2.6 Q6.55 -0.9 6.05 0.2 L4.3 2.85 3.45 4.0 3.55 4.25 3.5 4.5 Q3.2 4.9 2.05 5.4 0.55 6.1 -0.5 6.1 -2.1 6.1 -3.1 5.0 -3.9 4.2 -3.9 3.6 L-3.9 3.55 -3.75 3.3 -5.35 0.15 Q-6.95 -3.25 -6.95 -4.45 L-6.65 -5.6 -6.7 -5.75 -6.65 -5.85" fill="#418822" fill-rule="evenodd" stroke="none"/>
      <path d="M7.5 -3.6 L7.1 -1.45 6.5 0.5 Q4.15 4.45 3.5 4.5 L3.55 4.25 3.45 4.0 4.3 2.85 6.05 0.2 Q6.55 -0.9 6.85 -2.6 L7.05 -3.5 7.2 -3.4 7.5 -3.6 M-3.9 3.55 L-3.95 3.55 Q-4.8 3.55 -6.2 -0.4 L-7.45 -4.45 Q-6.75 -6.5 -6.65 -5.85 L-6.7 -5.75 -6.65 -5.6 -6.95 -4.45 Q-6.95 -3.25 -5.35 0.15 L-3.75 3.3 -3.9 3.55" fill="#000000" fill-rule="evenodd" stroke="none"/>
    </g>
    <g id="sprite4" transform="matrix(1.0, 0.0, 0.0, 1.0, 4.0, 5.15)">
      <use height="10.25" transform="matrix(1.0, 0.0, 0.0, 1.0, -4.0, -5.15)" width="8.0" xlink:href="#shape4"/>
    </g>
    <g id="shape4" transform="matrix(1.0, 0.0, 0.0, 1.0, 4.0, 5.15)">
      <path d="M-3.7 -3.4 L-2.75 -4.4 Q-1.7 -5.15 -0.75 -5.15 1.5 -5.15 2.75 -3.9 3.55 -3.05 3.6 -2.25 L3.6 -2.15 Q3.6 -1.8 3.4 -1.8 L3.25 -1.35 2.8 0.1 1.6 2.75 Q1.85 2.55 1.85 3.05 L1.8 3.15 Q0.7 5.1 -0.6 5.1 -1.7 5.1 -2.2 3.9 L-2.3 3.6 -2.2 3.4 -2.65 2.1 -3.25 0.15 -3.45 -2.0 -3.6 -3.1 -3.7 -3.4" fill="#418822" fill-rule="evenodd" stroke="none"/>
      <path d="M3.6 -2.25 L3.7 -2.4 Q4.0 -2.75 4.0 -2.1 2.55 3.15 1.85 3.15 L1.8 3.15 1.85 3.05 Q1.85 2.55 1.6 2.75 L2.8 0.1 3.25 -1.35 3.4 -1.8 Q3.6 -1.8 3.6 -2.15 L3.6 -2.25 M-2.2 3.9 L-2.35 4.0 Q-3.0 4.0 -3.55 1.05 L-4.0 -2.05 Q-4.0 -3.4 -3.7 -3.4 L-3.6 -3.1 -3.45 -2.0 -3.25 0.15 -2.65 2.1 -2.2 3.4 -2.3 3.6 -2.2 3.9" fill="#000000" fill-rule="evenodd" stroke="none"/>
    </g>
    <g id="sprite5" transform="matrix(1.0, 0.0, 0.0, 1.0, 3.65, 3.7)">
      <use height="7.4" transform="matrix(1.0, 0.0, 0.0, 1.0, -3.65, -3.7)" width="7.3" xlink:href="#shape5"/>
    </g>
    <g id="shape5" transform="matrix(1.0, 0.0, 0.0, 1.0, 3.65, 3.7)">
      <path d="M-3.15 -2.05 L-2.65 -2.95 Q-1.95 -3.7 -0.75 -3.7 0.05 -3.7 0.5 -3.15 L0.65 -2.9 0.8 -2.45 0.7 -2.2 Q0.85 -0.95 1.9 0.8 L2.25 1.35 Q1.15 1.45 1.15 2.6 L1.15 2.95 1.2 3.05 0.9 3.0 -0.65 2.9 -1.5 2.95 -2.1 3.05 -2.85 2.95 -3.15 1.2 -2.9 0.35 Q-2.65 -0.2 -2.65 -0.65 L-2.9 -1.75 -3.1 -1.85 -3.15 -2.0 -3.15 -2.05" fill="#418822" fill-rule="evenodd" stroke="none"/>
      <path d="M0.65 -2.9 Q0.7 -3.6 1.15 -2.65 L1.8 -0.3 2.95 1.4 Q3.65 2.35 3.65 2.95 3.65 3.7 3.35 3.7 L3.1 3.55 2.0 3.5 0.75 3.45 -0.65 3.4 -2.1 3.55 Q-3.65 3.55 -3.65 1.15 L-3.15 -0.65 -3.45 -1.65 -3.2 -2.05 -3.15 -2.05 -3.15 -2.0 -3.1 -1.85 -2.9 -1.75 -2.65 -0.65 Q-2.65 -0.2 -2.9 0.35 L-3.15 1.2 -2.85 2.95 -2.1 3.05 -1.5 2.95 -0.65 2.9 0.9 3.0 1.2 3.05 1.15 2.95 1.15 2.6 Q1.15 1.45 2.25 1.35 L1.9 0.8 Q0.85 -0.95 0.7 -2.2 L0.8 -2.45 0.65 -2.9 M3.15 2.8 L2.55 1.8 2.25 1.85 Q1.7 1.9 1.65 2.4 L1.7 3.05 2.2 3.05 3.35 3.1 3.15 2.9 3.15 2.8" fill="#000000" fill-rule="evenodd" stroke="none"/>
      <path d="M3.15 2.8 L3.15 2.9 3.35 3.1 2.2 3.05 1.7 3.05 1.65 2.4 Q1.7 1.9 2.25 1.85 L2.55 1.8 3.15 2.8" fill="#81805c" fill-rule="evenodd" stroke="none"/>
    </g>
    <g id="sprite6" transform="matrix(1.0, 0.0, 0.0, 1.0, 7.05, 6.3)">
      <use height="12.6" transform="matrix(1.0, 0.0, 0.0, 1.0, -7.05, -6.3)" width="14.05" xlink:href="#shape6"/>
    </g>
    <g id="shape6" transform="matrix(1.0, 0.0, 0.0, 1.0, 7.05, 6.3)">
      <path d="M-6.65 -0.95 L-6.65 -1.1 Q-6.65 -1.85 -6.1 -2.6 L-4.95 -4.1 -3.4 -5.55 Q-2.0 -6.3 0.5 -6.3 L3.0 -5.55 3.2 -5.5 3.2 -5.4 4.75 -3.75 Q6.5 -1.7 6.5 0.65 6.5 1.75 6.15 2.85 L5.75 3.95 5.75 4.0 Q6.0 3.85 6.0 4.2 L6.0 4.25 Q5.95 4.9 5.0 5.5 3.85 6.3 2.05 6.3 L0.3 6.05 -0.5 5.8 -0.7 5.9 -0.85 5.9 -0.95 5.6 -0.9 5.45 -1.05 5.4 Q-2.7 5.4 -4.75 3.15 -6.55 1.2 -6.55 0.3 L-6.4 -0.7 -6.4 -0.8 Q-6.45 -1.2 -6.65 -0.95" fill="#418822" fill-rule="evenodd" stroke="none"/>
      <path d="M3.0 -5.55 Q3.0 -5.8 3.35 -5.8 L4.75 -4.55 6.15 -2.65 6.65 -1.1 7.0 0.65 6.75 2.5 Q6.45 4.25 6.0 4.25 L6.0 4.2 Q6.0 3.85 5.75 4.0 L5.75 3.95 6.15 2.85 Q6.5 1.75 6.5 0.65 6.5 -1.7 4.75 -3.75 L3.2 -5.4 3.2 -5.5 3.0 -5.55 M-0.85 5.9 L-1.1 5.95 Q-2.9 5.95 -5.1 3.55 -7.05 1.4 -7.05 0.3 -7.05 -0.55 -6.7 -0.9 L-6.65 -0.95 Q-6.45 -1.2 -6.4 -0.8 L-6.4 -0.7 -6.55 0.3 Q-6.55 1.2 -4.75 3.15 -2.7 5.4 -1.05 5.4 L-0.9 5.45 -0.95 5.6 -0.85 5.9" fill="#000000" fill-rule="evenodd" stroke="none"/>
    </g>
    <g id="sprite7" transform="matrix(1.0, 0.0, 0.0, 1.0, 4.25, 4.2)">
      <use height="8.35" transform="matrix(1.0, 0.0, 0.0, 1.0, -4.25, -4.2)" width="8.5" xlink:href="#shape7"/>
    </g>
    <g id="shape7" transform="matrix(1.0, 0.0, 0.0, 1.0, 4.25, 4.2)">
      <path d="M-1.25 -2.9 L0.0 -3.65 Q1.6 -4.4 2.5 -4.1 3.2 -3.8 3.7 -2.9 L4.1 -1.65 4.1 -1.6 3.85 -1.15 3.75 -1.35 3.35 -0.8 Q2.45 0.6 2.45 1.35 L2.85 1.65 2.9 1.7 2.7 1.9 Q2.0 2.75 1.95 3.4 L0.25 3.3 -1.65 3.45 -2.7 3.6 Q-3.75 3.6 -3.75 2.9 -3.75 1.55 -2.5 -0.35 L-1.35 -2.35 -1.5 -2.55 -1.25 -2.9" fill="#418822" fill-rule="evenodd" stroke="none"/>
      <path d="M4.1 -1.65 L4.25 -1.4 Q3.0 0.55 3.0 1.05 L3.25 1.45 Q3.45 1.35 3.45 1.7 L3.45 1.75 3.55 1.9 Q4.1 2.65 4.1 3.4 4.1 4.15 3.65 4.15 L3.45 4.1 3.15 4.1 2.3 3.95 1.95 4.0 1.55 3.9 0.25 3.8 -2.7 4.15 Q-3.8 4.15 -4.15 3.65 L-4.25 2.9 Q-4.25 2.45 -3.05 -0.45 L-1.85 -2.65 Q-1.3 -3.5 -1.25 -2.9 L-1.5 -2.55 -1.35 -2.35 -2.5 -0.35 Q-3.75 1.55 -3.75 2.9 -3.75 3.6 -2.7 3.6 L-1.65 3.45 0.25 3.3 1.95 3.4 Q2.0 2.75 2.7 1.9 L2.9 1.7 2.85 1.65 2.45 1.35 Q2.45 0.6 3.35 -0.8 L3.75 -1.35 3.85 -1.15 4.1 -1.6 4.1 -1.65 M2.5 3.55 L3.5 3.6 3.6 3.45 3.25 2.3 3.2 2.1 2.95 2.35 Q2.45 2.9 2.45 3.4 L2.5 3.55" fill="#000000" fill-rule="evenodd" stroke="none"/>
      <path d="M2.5 3.55 L2.45 3.4 Q2.45 2.9 2.95 2.35 L3.2 2.1 3.25 2.3 3.6 3.45 3.5 3.6 2.5 3.55" fill="#81805c" fill-rule="evenodd" stroke="none"/>
    </g>
    <g id="sprite8" transform="matrix(1.0, 0.0, 0.0, 1.0, 4.9, 4.9)">
      <use height="9.8" transform="matrix(1.0, 0.0, 0.0, 1.0, -4.9, -4.9)" width="9.75" xlink:href="#shape8"/>
    </g>
    <g id="shape8" transform="matrix(1.0, 0.0, 0.0, 1.0, 4.9, 4.9)">
      <path d="M2.1 -4.25 L2.15 -4.15 2.15 -4.0 2.6 -2.7 3.05 -1.1 Q3.1 -0.2 3.75 0.55 4.35 1.25 4.35 1.9 L4.1 2.55 3.85 3.25 2.9 3.7 3.0 3.9 2.75 4.2 2.1 4.5 0.55 4.9 Q-0.75 4.9 -1.6 3.95 L-2.15 3.1 -2.2 2.8 -2.1 2.45 -3.65 -0.3 -4.15 -1.85 -4.5 -2.65 -4.65 -2.6 -4.9 -2.7 -4.9 -2.85 -4.05 -3.8 -2.35 -4.75 0.35 -4.8 Q1.85 -4.6 2.1 -4.25" fill="#418822" fill-rule="evenodd" stroke="none"/>
      <path d="M2.75 4.2 L3.0 3.9 2.9 3.7 3.85 3.25 4.1 2.55 4.35 1.9 Q4.35 1.25 3.75 0.55 3.1 -0.2 3.05 -1.1 L2.6 -2.7 2.15 -4.0 2.15 -4.15 2.1 -4.25 Q2.15 -4.9 2.65 -3.8 L3.55 -1.4 Q3.65 -0.5 4.3 0.45 4.85 1.25 4.85 1.95 L4.35 3.2 Q3.75 4.2 2.9 4.2 L2.75 4.2 M-4.9 -2.7 L-4.65 -2.6 -4.5 -2.65 -4.15 -1.85 -3.65 -0.3 -2.1 2.45 -2.2 2.8 -2.15 3.1 -2.2 3.1 Q-2.65 3.1 -4.0 0.2 L-4.9 -2.65 -4.9 -2.7" fill="#000000" fill-rule="evenodd" stroke="none"/>
    </g>
    <g id="sprite9" transform="matrix(1.0, 0.0, 0.0, 1.0, 3.3, 1.65)">
      <use height="15.8" transform="matrix(1.0, 0.0, 0.0, 1.0, -3.3, -1.65)" width="8.65" xlink:href="#shape9"/>
    </g>
    <g id="shape9" transform="matrix(1.0, 0.0, 0.0, 1.0, 3.3, 1.65)">
      <path d="M-1.2 -1.0 L-1.05 -1.05 -0.6 -1.3 -0.05 -1.55 0.45 -1.65 1.4 -1.05 1.5 -0.7 1.6 -0.45 1.4 -0.15 1.3 0.2 1.25 0.5 1.15 1.8 0.9 3.05 0.65 4.35 0.35 6.75 0.15 9.45 0.15 10.25 0.3 10.95 0.3 11.1 Q0.3 11.6 1.2 12.1 L2.1 12.55 2.75 12.7 4.1 12.95 4.2 12.95 4.35 12.9 4.6 12.85 4.8 12.85 4.85 12.9 5.05 13.1 5.05 13.15 Q5.05 13.55 4.6 13.55 L4.25 13.45 4.15 13.4 4.0 13.25 3.75 13.45 3.4 13.6 1.7 13.8 0.45 13.6 -0.45 13.4 -0.65 13.5 -1.35 13.6 -2.1 13.5 -2.2 13.2 -1.85 11.85 -1.8 11.75 -1.8 11.7 -1.65 11.5 -1.65 11.4 -1.6 11.35 -1.6 11.1 -1.45 10.4 -1.55 8.75 -1.6 7.75 -1.55 7.65 -1.6 7.5 -1.55 7.45 -1.6 7.25 -1.65 6.4 -1.75 6.05 -1.85 5.8 -1.85 5.75 -1.8 5.75 -1.75 5.6 -2.3 4.75 Q-2.85 3.8 -2.85 2.85 -2.85 2.25 -2.05 0.6 L-1.7 -0.05 -1.4 -0.45 -1.35 -0.6 -1.35 -0.65 -1.2 -0.85 -1.2 -0.9 -1.2 -1.0 M-2.4 13.65 L-2.3 13.75 -2.4 13.75 -2.4 13.7 -2.45 13.65 -2.4 13.65 M-0.15 11.15 L-0.15 11.05 -0.2 11.0 -0.25 11.15 -0.25 11.2 -0.2 11.25 -0.15 11.25 -0.15 11.15 M-0.8 10.1 L-0.9 10.5 -0.95 10.95 -1.05 11.85 -0.55 12.35 -0.3 12.2 -0.3 12.15 -0.35 12.15 -0.75 12.0 -0.9 11.8 -0.85 11.15 -0.75 10.5 -0.8 10.1 M-0.8 4.1 L-0.85 3.95 -1.05 4.35 -1.1 4.7 -1.35 5.0 -1.6 5.4 -1.45 5.45 Q-1.1 5.45 -0.8 4.1" fill="#ffead5" fill-rule="evenodd" stroke="none"/>
      <path d="M1.6 -0.45 L1.6 -0.5 1.8 -0.25 1.45 1.75 0.9 4.65 0.65 6.85 0.55 7.9 0.5 9.8 0.6 10.8 0.55 10.9 0.75 11.05 1.45 11.8 3.15 12.4 3.95 12.6 4.0 12.6 4.3 12.55 4.45 12.55 4.7 12.55 Q5.35 12.65 5.35 13.1 L5.25 13.55 4.6 13.85 4.35 13.8 4.05 13.75 3.3 13.95 1.75 14.15 0.05 13.9 -0.4 13.75 -0.55 13.75 -1.0 13.9 -2.15 14.1 -2.7 13.85 -2.75 13.65 -2.75 13.55 -2.6 13.5 -2.6 13.45 -2.5 13.05 -2.15 11.75 -1.8 10.4 -1.85 8.45 -1.95 7.45 -1.95 7.4 -1.95 6.7 -2.1 6.2 -2.2 5.75 -2.25 5.55 -2.45 5.25 -2.9 4.35 -3.15 3.55 -3.15 3.4 -3.3 3.05 -3.15 2.45 -3.1 2.3 -2.2 0.25 -2.0 -0.05 -2.0 -0.15 -1.85 -0.4 -1.7 -0.6 -1.7 -0.65 -1.6 -0.85 -1.4 -1.15 Q-1.3 -1.2 -1.25 -1.05 L-1.2 -1.0 -1.2 -0.9 -1.2 -0.85 -1.35 -0.65 -1.35 -0.6 -1.4 -0.45 -1.7 -0.05 -2.05 0.6 Q-2.85 2.25 -2.85 2.85 -2.85 3.8 -2.3 4.75 L-1.75 5.6 -1.8 5.75 -1.85 5.75 -1.85 5.8 -1.75 6.05 -1.65 6.4 -1.6 7.25 -1.55 7.45 -1.6 7.5 -1.55 7.65 -1.6 7.75 -1.55 8.75 -1.45 10.4 -1.6 11.1 -1.6 11.35 -1.65 11.4 -1.65 11.5 -1.8 11.7 -1.8 11.75 -1.85 11.85 -2.2 13.2 -2.1 13.5 -1.35 13.6 -0.65 13.5 -0.45 13.4 0.45 13.6 1.7 13.8 3.4 13.6 3.75 13.45 4.0 13.25 4.15 13.4 4.25 13.45 4.6 13.55 Q5.05 13.55 5.05 13.15 L5.05 13.1 4.85 12.9 4.8 12.85 4.6 12.85 4.35 12.9 4.2 12.95 4.1 12.95 2.75 12.7 2.1 12.55 1.2 12.1 Q0.3 11.6 0.3 11.1 L0.3 10.95 0.15 10.25 0.15 9.45 0.35 6.75 0.65 4.35 0.9 3.05 1.15 1.8 1.25 0.5 1.3 0.2 1.4 -0.15 1.6 -0.45 M-0.8 4.1 Q-1.1 5.45 -1.45 5.45 L-1.6 5.4 -1.35 5.0 -1.1 4.7 -1.05 4.35 -0.85 3.95 -0.8 4.1 M-0.8 10.1 L-0.75 10.5 -0.85 11.15 -0.9 11.8 -0.75 12.0 -0.35 12.15 -0.3 12.15 -0.3 12.2 -0.55 12.35 -1.05 11.85 -0.95 10.95 -0.9 10.5 -0.8 10.1 M-0.15 11.15 L-0.15 11.25 -0.2 11.25 -0.25 11.2 -0.25 11.15 -0.2 11.0 -0.15 11.05 -0.15 11.15 M-2.4 13.65 L-2.45 13.65 -2.4 13.7 -2.4 13.75 -2.3 13.75 -2.4 13.65" fill="#000000" fill-rule="evenodd" stroke="none"/>
    </g>
    <g id="sprite10" transform="matrix(1.0, 0.0, 0.0, 1.0, 2.85, 1.8)">
      <use height="11.1" transform="matrix(1.0, 0.0, 0.0, 1.0, -2.85, -1.8)" width="5.7" xlink:href="#shape10"/>
    </g>
    <g id="shape10" transform="matrix(1.0, 0.0, 0.0, 1.0, 2.85, 1.8)">
      <path d="M0.85 -1.55 L-0.05 -1.65 0.85 -1.5 0.95 -1.5 0.85 -1.55 M-1.6 8.3 L-1.65 8.35 -1.75 8.25 -1.75 8.15 -1.85 7.95 -1.8 7.9 -2.35 4.55 -2.6 1.95 -2.75 1.25 -2.75 0.5 -2.8 -0.75 -2.8 -0.9 -2.8 -0.95 -2.85 -1.05 -2.5 -1.25 -1.9 -1.4 -1.4 -1.5 -0.1 -1.65 0.9 -1.8 0.95 -1.75 1.1 -1.55 1.6 -1.35 2.0 -1.1 2.45 -0.7 2.4 -0.65 2.4 -0.6 2.4 -0.5 2.45 -0.35 2.5 -0.2 2.55 -0.15 2.7 0.05 2.7 -0.15 2.8 -0.15 2.85 0.05 2.4 2.65 2.3 2.95 2.05 4.2 1.5 5.8 1.25 6.2 1.45 6.45 1.85 7.5 1.7 8.2 1.4 8.65 1.35 8.75 1.25 8.85 1.2 8.8 1.15 8.75 1.0 8.75 0.85 8.65 0.8 8.55 1.1 8.25 1.15 8.2 1.25 8.15 1.4 7.8 1.55 7.45 1.3 6.8 1.05 6.4 0.9 6.3 0.9 6.2 1.3 5.05 1.55 4.5 1.8 3.85 2.0 2.7 2.15 2.1 2.35 1.75 2.45 1.75 2.65 0.35 2.4 -0.1 2.2 -0.55 2.0 -0.85 1.7 -1.1 1.4 -1.25 1.25 -1.35 1.15 -1.4 1.0 -1.45 -0.2 -1.5 -1.2 -1.3 -1.85 -1.1 -2.1 -1.0 -2.4 -0.85 -2.45 -0.9 -2.55 -0.9 -2.65 -0.8 -2.6 -0.7 -2.65 -0.6 -2.7 -0.5 -2.55 0.85 -2.5 0.85 Q-2.35 0.85 -2.35 1.35 L-2.2 2.25 -2.1 3.2 -2.05 4.15 -1.75 5.8 -1.55 7.8 -1.6 7.95 -1.65 7.95 -1.6 8.3" fill="#000000" fill-rule="evenodd" stroke="none"/>
      <path d="M1.2 8.8 L1.1 8.85 0.15 9.25 Q-0.75 9.4 -1.3 8.8 L-1.6 8.4 -1.6 8.3 -1.65 7.95 -1.6 7.95 -1.55 7.8 -1.75 5.8 -2.05 4.15 -2.1 3.2 -2.2 2.25 -2.35 1.35 Q-2.35 0.85 -2.5 0.85 L-2.55 0.85 -2.7 -0.5 -2.65 -0.6 -2.6 -0.7 -2.65 -0.8 -2.55 -0.9 -2.45 -0.9 -2.4 -0.85 -2.1 -1.0 -1.85 -1.1 -1.2 -1.3 -0.2 -1.5 1.0 -1.45 1.15 -1.4 1.25 -1.35 1.4 -1.25 1.7 -1.1 2.0 -0.85 2.2 -0.55 2.4 -0.1 2.65 0.35 2.45 1.75 2.35 1.75 2.15 2.1 2.0 2.7 1.8 3.85 1.55 4.5 1.3 5.05 0.9 6.2 0.9 6.3 1.05 6.4 1.3 6.8 1.55 7.45 1.4 7.8 1.25 8.15 1.15 8.2 1.1 8.25 0.8 8.55 0.85 8.65 1.0 8.75 1.15 8.75 1.2 8.8" fill="#ffead5" fill-rule="evenodd" stroke="none"/>
    </g>
    <g id="sprite11" transform="matrix(1.0, 0.0, 0.0, 1.0, 11.15, 19.75)">
      <use height="32.55" transform="matrix(1.0, 0.0, 0.0, 1.0, -11.15, -19.75)" width="19.55" xlink:href="#shape11"/>
    </g>
    <g id="shape11" transform="matrix(1.0, 0.0, 0.0, 1.0, 11.15, 19.75)">
      <path d="M3.1 -11.15 L3.25 -11.0 4.1 -9.65 4.0 -9.65 3.9 -9.7 3.55 -9.35 3.45 -9.4 3.4 -9.35 3.35 -9.3 3.4 -9.15 3.4 -9.1 3.25 -8.75 3.1 -8.25 2.85 -8.4 2.6 -8.7 2.2 -9.0 1.9 -9.15 1.8 -9.05 1.8 -9.0 1.65 -9.0 1.4 -9.05 1.2 -9.1 0.6 -9.3 -0.35 -9.3 Q-1.45 -9.4 -1.5 -8.95 L-1.6 -8.85 -1.6 -8.8 -1.55 -8.8 -1.4 -8.75 -1.35 -8.75 -1.15 -8.65 -0.9 -8.55 -0.7 -8.05 -0.35 -7.1 -0.35 -6.9 -0.3 -6.7 -0.15 -6.5 Q0.05 -6.25 0.45 -6.15 L2.15 -5.8 3.7 -5.55 4.3 -5.6 4.35 -5.5 4.5 -4.7 4.55 -4.45 4.6 -4.15 4.55 -3.9 4.45 -3.95 4.3 -4.0 4.15 -3.9 4.1 -3.9 4.1 -3.8 4.1 -3.65 4.15 -2.95 Q4.05 -2.95 4.05 -3.0 L3.95 -3.0 3.9 -3.0 3.85 -3.1 3.75 -3.2 3.7 -3.15 3.65 -3.1 3.55 -3.15 3.4 -3.1 3.35 -3.0 3.95 -2.25 4.15 -1.95 4.6 -1.05 4.45 -1.1 4.3 -0.9 4.4 -0.65 4.5 -0.35 4.4 -0.4 4.3 -0.45 4.15 -0.3 4.2 -0.05 4.0 0.0 4.0 0.15 4.05 0.35 4.1 0.55 4.05 0.9 3.95 1.35 3.9 1.8 3.85 2.2 3.85 2.8 3.5 1.6 2.85 -0.3 2.65 0.3 Q2.2 -0.65 2.1 -1.4 L1.95 -1.45 1.95 -1.4 1.9 -1.35 2.0 -0.9 2.0 -0.65 1.85 -0.25 1.45 -1.4 1.0 -2.1 Q0.65 -3.1 0.1 -3.45 L-0.9 -4.0 -2.1 -4.15 -2.4 -4.15 -2.4 -4.2 -2.45 -4.15 -3.2 -4.15 -3.2 -4.2 -3.3 -4.2 -3.35 -4.05 -3.45 -4.0 -3.4 -3.95 -3.8 -3.25 -3.95 -3.05 -3.95 -2.9 -4.0 -2.85 -4.15 -2.65 -4.6 -2.05 -4.35 -3.05 -4.0 -3.9 -3.55 -5.05 -3.55 -5.2 -3.75 -5.35 -4.1 -5.3 -4.4 -5.15 -4.4 -5.2 -3.65 -6.5 -3.2 -7.3 -3.4 -7.4 -4.15 -7.65 -4.0 -7.95 -3.9 -8.3 -3.9 -8.5 Q-3.75 -8.6 -3.55 -9.05 L-3.35 -9.55 -3.45 -9.75 -3.55 -9.85 -3.75 -9.95 -3.8 -10.0 -3.75 -10.0 Q-3.5 -10.0 -3.45 -10.15 L-3.45 -10.2 -3.45 -10.3 -3.5 -10.7 -3.35 -10.5 -3.1 -10.3 -3.0 -10.3 Q-2.85 -10.3 -2.65 -10.8 L-2.6 -10.9 -2.2 -11.45 -1.8 -11.9 -1.4 -12.05 -1.25 -12.0 Q-1.2 -12.0 -1.05 -12.1 L0.95 -12.3 1.85 -12.05 2.7 -11.6 3.1 -11.15" fill="#605142" fill-rule="evenodd" stroke="none"/>
      <path d="M3.1 -11.15 L2.7 -11.6 1.85 -12.05 0.95 -12.3 -1.05 -12.1 Q-1.2 -12.0 -1.25 -12.0 L-1.4 -12.05 -1.8 -11.9 -2.2 -11.45 -2.6 -10.9 -2.65 -10.8 Q-2.85 -10.3 -3.0 -10.3 L-3.1 -10.3 -3.35 -10.5 -3.5 -10.7 -3.45 -10.3 -3.45 -10.2 -3.45 -10.15 Q-3.5 -10.0 -3.75 -10.0 L-3.8 -10.0 -3.75 -9.95 -3.55 -9.85 -3.45 -9.75 -3.35 -9.55 -3.55 -9.05 Q-3.75 -8.6 -3.9 -8.5 L-3.9 -8.3 -4.0 -7.95 -4.15 -7.65 -3.4 -7.4 -3.2 -7.3 -3.65 -6.5 -4.4 -5.2 -4.4 -5.15 -4.1 -5.3 -3.75 -5.35 -3.55 -5.2 -3.55 -5.05 -4.0 -3.9 -4.35 -3.05 -4.6 -2.05 -4.15 -2.65 -4.0 -2.85 -3.95 -2.9 -3.95 -3.05 -3.8 -3.25 -3.4 -3.95 -3.45 -4.0 -3.35 -4.05 -3.3 -4.2 -3.2 -4.2 -3.2 -4.15 -2.45 -4.15 -2.4 -4.2 -2.4 -4.15 -2.1 -4.15 -0.9 -4.0 0.1 -3.45 Q0.65 -3.1 1.0 -2.1 L1.45 -1.4 1.85 -0.25 2.0 -0.65 2.0 -0.9 1.9 -1.35 1.95 -1.4 1.95 -1.45 2.1 -1.4 Q2.2 -0.65 2.65 0.3 L2.85 -0.3 3.5 1.6 3.85 2.8 3.85 2.2 3.9 1.8 3.95 1.35 4.05 0.9 4.1 0.55 4.05 0.35 4.0 0.15 4.0 0.0 4.2 -0.05 4.15 -0.3 4.3 -0.45 4.4 -0.4 4.5 -0.35 4.4 -0.65 4.3 -0.9 4.45 -1.1 4.6 -1.05 4.15 -1.95 3.95 -2.25 3.35 -3.0 3.4 -3.1 3.55 -3.15 3.65 -3.1 3.7 -3.15 3.75 -3.2 3.85 -3.1 3.9 -3.0 3.95 -3.0 4.05 -3.0 Q4.05 -2.95 4.15 -2.95 L4.1 -3.65 4.1 -3.8 4.1 -3.9 4.15 -3.9 4.3 -4.0 4.45 -3.95 4.55 -3.9 4.6 -4.15 4.55 -4.45 4.5 -4.7 4.35 -5.5 4.3 -5.6 3.7 -5.55 2.15 -5.8 0.45 -6.15 Q0.05 -6.25 -0.15 -6.5 L-0.3 -6.7 -0.35 -6.9 -0.35 -7.1 -0.7 -8.05 -0.9 -8.55 -1.15 -8.65 -1.35 -8.75 -1.4 -8.75 -1.55 -8.8 -1.6 -8.8 -1.6 -8.85 -1.5 -8.95 Q-1.45 -9.4 -0.35 -9.3 L0.6 -9.3 1.2 -9.1 1.4 -9.05 1.65 -9.0 1.8 -9.0 1.8 -9.05 1.9 -9.15 2.2 -9.0 2.6 -8.7 2.85 -8.4 3.1 -8.25 3.25 -8.75 3.4 -9.1 3.4 -9.15 3.35 -9.3 3.4 -9.35 3.45 -9.4 3.55 -9.35 3.9 -9.7 4.0 -9.65 4.1 -9.65 3.25 -11.0 3.1 -11.15 M4.4 -9.85 L4.7 -9.25 4.65 -9.15 4.55 -9.05 4.4 -9.15 4.0 -9.3 4.0 -9.25 4.05 -9.15 4.1 -9.0 4.1 -8.95 4.15 -8.8 4.15 -8.7 4.0 -8.6 4.0 -8.4 3.95 -8.3 4.35 -8.1 4.8 -7.7 4.9 -7.45 5.1 -6.8 5.25 -6.15 5.15 -5.9 4.65 -5.8 4.85 -4.95 4.95 -3.6 4.95 -3.45 4.8 -3.35 4.6 -3.4 4.45 -3.55 4.45 -2.95 4.25 -2.4 4.8 -1.55 5.2 -0.5 5.05 -0.3 4.9 -0.35 4.8 -0.45 4.85 -0.1 4.6 0.2 4.4 1.2 4.35 1.45 4.15 2.2 4.2 2.85 4.25 3.65 4.25 4.1 4.2 4.4 4.2 4.45 4.3 6.65 4.4 8.65 4.35 9.45 4.25 10.25 4.25 10.5 4.25 11.2 4.35 11.25 4.3 11.3 4.25 11.35 4.25 11.8 4.25 11.9 4.2 12.45 4.2 12.55 4.3 12.65 4.25 12.75 4.1 12.8 2.75 12.25 1.2 11.65 1.2 11.85 1.05 12.0 -1.05 11.4 -2.25 10.9 -2.55 10.95 -2.75 10.9 -2.8 10.85 -2.85 10.9 -3.0 10.95 -3.2 10.9 -3.35 10.85 -3.6 10.75 -3.75 10.65 -3.85 10.75 -3.95 10.8 -4.35 10.35 -4.45 10.4 -4.6 10.2 -4.6 9.95 -4.45 7.1 -4.45 7.0 -4.35 5.0 -4.4 5.15 -4.45 5.1 -4.35 4.75 -4.35 4.7 -4.35 4.55 -4.35 4.5 -4.35 3.8 -4.4 3.0 -4.45 2.2 -4.35 0.7 -4.25 -0.55 -4.15 -1.25 -4.05 -1.95 -3.95 -2.3 -3.9 -2.45 -4.05 -2.25 -4.7 -1.25 -4.7 -1.3 -5.05 -0.8 -5.2 -0.9 -5.2 -1.0 -4.65 -3.1 -4.05 -4.9 -4.15 -4.85 -4.25 -4.85 -4.4 -4.75 -4.8 -4.6 -4.95 -4.65 -4.95 -4.75 -4.4 -5.85 -3.6 -7.25 -3.75 -7.25 -4.4 -7.3 -4.45 -7.4 -4.5 -7.55 -4.35 -7.95 -4.2 -8.3 -4.25 -8.5 -4.3 -8.7 -4.3 -8.85 -3.95 -8.9 -3.7 -9.5 -4.0 -9.75 -4.3 -10.1 -4.05 -10.25 -3.8 -10.55 -3.8 -11.1 Q-3.7 -11.55 -3.3 -11.1 L-3.1 -10.85 -2.8 -11.3 -1.7 -12.25 2.45 -12.15 3.25 -11.45 3.85 -10.7 4.4 -9.85 M1.7 -8.3 L1.5 -8.5 1.45 -8.7 -0.1 -8.95 -0.8 -8.95 -0.75 -8.9 -0.7 -8.85 -0.7 -8.75 -0.35 -8.1 -0.05 -7.2 0.15 -6.75 Q0.35 -6.5 0.95 -6.35 L2.45 -6.05 2.65 -6.05 3.5 -6.05 4.2 -5.95 4.25 -6.0 4.25 -6.05 4.3 -6.1 4.4 -6.1 4.55 -6.1 4.9 -6.25 Q4.9 -7.25 4.25 -7.8 L4.05 -7.95 4.0 -7.95 3.8 -8.05 3.65 -8.2 3.6 -8.25 3.5 -8.3 3.5 -8.4 3.6 -8.55 3.6 -8.6 3.6 -8.7 3.45 -8.35 3.4 -8.0 3.15 -7.75 2.65 -8.15 2.0 -8.75 1.85 -8.5 1.7 -8.3 M3.6 -8.75 L3.65 -8.65 3.65 -8.75 3.6 -8.75 M0.65 -2.05 L0.65 -2.25 0.45 -2.85 0.15 -3.15 -0.35 -3.45 -0.85 -3.75 -2.35 -4.0 -2.35 -3.9 -2.4 -3.3 -2.5 -2.6 -2.55 -1.9 -2.6 -1.3 -2.5 0.85 Q-2.2 2.75 -1.05 2.75 -0.35 2.75 0.25 2.4 L0.75 1.9 0.75 1.8 0.8 1.65 0.65 -2.05 M1.05 -1.75 L1.05 -1.45 1.05 -1.35 1.0 -1.35 0.8 -1.85 0.85 -0.15 0.9 1.65 0.6 2.35 Q0.1 2.9 -1.05 2.9 -2.3 2.9 -2.65 0.95 L-2.75 -1.3 -2.65 -2.65 -2.45 -4.0 -3.2 -4.0 -3.6 -3.25 -3.55 -3.1 -3.6 -3.0 -3.55 -3.0 -3.55 -2.85 -3.85 -1.0 -4.1 2.2 -4.1 3.0 -4.0 3.8 -4.05 4.95 -4.1 6.25 -4.15 8.35 -4.3 9.95 -4.15 10.05 -3.9 10.15 -3.85 10.15 Q-3.7 10.15 -3.6 10.3 L-3.55 10.35 -3.35 10.4 -3.25 10.35 -3.05 10.45 -2.95 10.55 -2.9 10.5 -2.8 10.45 -2.6 10.55 -2.4 10.6 Q-2.35 10.45 -2.05 10.6 L-1.35 11.0 -0.35 11.25 0.85 11.55 0.85 11.35 1.05 11.2 Q1.45 11.2 2.9 11.9 L3.9 12.35 3.95 11.15 3.05 10.35 Q2.25 9.6 2.25 9.05 L2.3 9.0 2.35 8.9 2.3 8.8 2.25 8.65 2.75 8.45 3.35 8.3 2.95 8.0 2.7 7.75 Q2.7 7.4 3.0 7.1 3.4 6.75 4.0 6.95 L3.95 6.25 3.95 5.2 3.9 4.7 3.85 4.45 3.75 4.4 3.75 4.3 3.8 3.3 3.5 2.25 3.0 0.75 3.1 0.65 3.0 0.4 2.9 0.15 2.85 0.2 2.8 0.4 2.65 0.55 2.55 0.5 2.35 -0.2 2.1 -0.85 2.05 -0.4 1.8 0.1 1.45 -1.1 1.1 -1.65 1.05 -1.75 M3.35 2.6 L3.5 3.0 3.55 3.25 3.45 3.85 Q3.35 4.4 2.95 4.4 2.3 4.4 2.1 4.0 L2.0 3.5 2.0 3.3 1.9 3.25 1.8 3.05 2.25 2.4 2.65 2.2 2.7 2.1 3.15 2.35 3.35 2.6 M2.35 2.55 L2.25 2.65 2.15 2.8 1.95 3.1 2.05 3.15 2.15 2.95 2.1 3.2 2.15 3.2 2.25 3.3 2.2 3.35 2.15 3.4 2.15 3.35 2.1 3.3 2.1 3.5 Q2.1 4.2 2.95 4.2 3.2 4.2 3.3 3.8 L3.4 3.3 3.25 2.65 Q3.0 2.25 2.6 2.4 L2.4 2.55 2.45 2.45 2.35 2.55 M4.0 7.6 L4.0 7.2 3.35 7.1 3.2 7.05 Q3.05 7.05 2.85 7.75 L3.15 8.05 3.5 8.4 3.3 8.5 3.05 8.55 2.75 8.55 Q2.55 8.55 2.4 8.7 L2.45 8.95 2.45 9.0 2.4 9.05 Q2.4 9.55 3.35 10.4 L3.95 10.9 3.95 10.35 4.05 8.65 4.0 7.6 M-3.25 5.75 L-3.4 5.75 -3.4 5.3 -3.05 4.8 -2.35 4.3 -2.2 4.3 -1.6 4.85 Q-1.05 5.7 -1.05 5.9 L-1.2 6.3 Q-1.45 6.6 -1.8 6.6 L-2.6 6.35 Q-3.1 6.1 -3.2 5.7 L-3.25 5.75 M-3.25 5.55 L-3.05 5.55 -2.75 6.0 -2.3 6.2 -1.75 6.4 Q-1.55 6.4 -1.35 6.2 L-1.15 5.9 -1.55 5.15 -2.0 4.55 Q-2.25 4.3 -2.75 4.8 L-3.25 5.5 -3.25 5.55" fill="#000000" fill-rule="evenodd" stroke="none"/>
      <path d="M1.7 -8.3 L1.85 -8.5 2.0 -8.75 2.65 -8.15 3.15 -7.75 3.4 -8.0 3.45 -8.35 3.6 -8.7 3.6 -8.6 3.6 -8.55 3.5 -8.4 3.5 -8.3 3.6 -8.25 3.65 -8.2 3.8 -8.05 4.0 -7.95 4.05 -7.95 4.25 -7.8 Q4.9 -7.25 4.9 -6.25 L4.55 -6.1 4.4 -6.1 4.3 -6.1 4.25 -6.05 4.25 -6.0 4.2 -5.95 3.5 -6.05 2.65 -6.05 2.45 -6.05 0.95 -6.35 Q0.35 -6.5 0.15 -6.75 L-0.05 -7.2 -0.35 -8.1 -0.7 -8.75 -0.7 -8.85 -0.75 -8.9 -0.8 -8.95 -0.1 -8.95 1.45 -8.7 1.5 -8.5 1.7 -8.3 M0.65 -2.05 L0.8 1.65 0.75 1.8 0.75 1.9 0.25 2.4 Q-0.35 2.75 -1.05 2.75 -2.2 2.75 -2.5 0.85 L-2.6 -1.3 -2.55 -1.9 -2.5 -2.6 -2.4 -3.3 -2.35 -3.9 -2.35 -4.0 -0.85 -3.75 -0.35 -3.45 0.15 -3.15 0.45 -2.85 0.65 -2.25 0.65 -2.05" fill="#ffead5" fill-rule="evenodd" stroke="none"/>
      <path d="M1.05 -1.75 L1.1 -1.65 1.45 -1.1 1.8 0.1 2.05 -0.4 2.1 -0.85 2.35 -0.2 2.55 0.5 2.65 0.55 2.8 0.4 2.85 0.2 2.9 0.15 3.0 0.4 3.1 0.65 3.0 0.75 3.5 2.25 3.8 3.3 3.75 4.3 3.75 4.4 3.85 4.45 3.9 4.7 3.95 5.2 3.95 6.25 4.0 6.95 Q3.4 6.75 3.0 7.1 2.7 7.4 2.7 7.75 L2.95 8.0 3.35 8.3 2.75 8.45 2.25 8.65 2.3 8.8 2.35 8.9 2.3 9.0 2.25 9.05 Q2.25 9.6 3.05 10.35 L3.95 11.15 3.9 12.35 2.9 11.9 Q1.45 11.2 1.05 11.2 L0.85 11.35 0.85 11.55 -0.35 11.25 -1.35 11.0 -2.05 10.6 Q-2.35 10.45 -2.4 10.6 L-2.6 10.55 -2.8 10.45 -2.9 10.5 -2.95 10.55 -3.05 10.45 -3.25 10.35 -3.35 10.4 -3.55 10.35 -3.6 10.3 Q-3.7 10.15 -3.85 10.15 L-3.9 10.15 -4.15 10.05 -4.3 9.95 -4.15 8.35 -4.1 6.25 -4.05 4.95 -4.0 3.8 -4.1 3.0 -4.1 2.2 -3.85 -1.0 -3.55 -2.85 -3.55 -3.0 -3.6 -3.0 -3.55 -3.1 -3.6 -3.25 -3.2 -4.0 -2.45 -4.0 -2.65 -2.65 -2.75 -1.3 -2.65 0.95 Q-2.3 2.9 -1.05 2.9 0.1 2.9 0.6 2.35 L0.9 1.65 0.85 -0.15 0.8 -1.85 1.0 -1.35 1.05 -1.35 1.05 -1.45 1.05 -1.75 M3.35 2.6 L3.15 2.35 2.7 2.1 2.65 2.2 2.25 2.4 1.8 3.05 1.9 3.25 2.0 3.3 2.0 3.5 2.1 4.0 Q2.3 4.4 2.95 4.4 3.35 4.4 3.45 3.85 L3.55 3.25 3.5 3.0 3.35 2.6 M-3.25 5.75 L-3.2 5.7 Q-3.1 6.1 -2.6 6.35 L-1.8 6.6 Q-1.45 6.6 -1.2 6.3 L-1.05 5.9 Q-1.05 5.7 -1.6 4.85 L-2.2 4.3 -2.35 4.3 -3.05 4.8 -3.4 5.3 -3.4 5.75 -3.25 5.75" fill="#d9b83e" fill-rule="evenodd" stroke="none"/>
      <path d="M2.4 2.55 L2.6 2.4 Q3.0 2.25 3.25 2.65 L3.4 3.3 3.3 3.8 Q3.2 4.2 2.95 4.2 2.1 4.2 2.1 3.5 L2.1 3.3 2.15 3.35 2.15 3.4 2.2 3.35 2.25 3.3 2.15 3.2 2.1 3.2 2.15 2.95 2.05 3.15 1.95 3.1 2.15 2.8 2.25 2.65 2.35 2.55 2.4 2.55 M4.0 7.6 L4.05 8.65 3.95 10.35 3.95 10.9 3.35 10.4 Q2.4 9.55 2.4 9.05 L2.45 9.0 2.45 8.95 2.4 8.7 Q2.55 8.55 2.75 8.55 L3.05 8.55 3.3 8.5 3.5 8.4 3.15 8.05 2.85 7.75 Q3.05 7.05 3.2 7.05 L3.35 7.1 4.0 7.2 4.0 7.6 M-3.25 5.55 L-3.25 5.5 -2.75 4.8 Q-2.25 4.3 -2.0 4.55 L-1.55 5.15 -1.15 5.9 -1.35 6.2 Q-1.55 6.4 -1.75 6.4 L-2.3 6.2 -2.75 6.0 -3.05 5.55 -3.25 5.55" fill="#735437" fill-rule="evenodd" stroke="none"/>
      <path d="M0.2 -13.05 L-0.05 -13.0 -1.3 -13.35 Q-1.95 -13.35 -3.4 -12.25 L-5.1 -10.85 Q-5.65 -10.35 -5.65 -9.3 L-5.75 -8.3 -6.2 -6.8 Q-5.45 -6.85 -5.3 -6.4 L-5.2 -5.65 -4.85 -5.7 -4.15 -5.55 -3.8 -5.15 -3.75 -5.0 -3.1 -5.4 -2.6 -6.5 -2.4 -6.7 -2.55 -7.0 Q-2.55 -7.5 -1.45 -7.65 -0.3 -7.85 0.25 -7.2 L0.5 -6.9 0.5 -7.0 Q2.7 -9.55 5.7 -10.85 L6.0 -11.1 6.6 -11.4 6.7 -11.4 Q6.7 -11.65 7.6 -11.7 L7.6 -11.8 8.05 -12.15 7.55 -12.55 6.9 -13.2 6.05 -13.05 5.0 -13.6 4.35 -13.0 3.35 -13.1 3.3 -13.2 2.9 -13.1 2.55 -12.95 2.5 -12.9 2.4 -12.9 1.95 -12.8 1.95 -12.9 1.25 -12.9 1.1 -12.9 Q1.55 -12.75 1.55 -12.3 L0.7 -10.85 Q-0.15 -9.65 -0.5 -9.65 -1.45 -9.65 -2.25 -10.15 L-2.9 -10.9 -1.5 -12.05 0.2 -13.0 0.45 -13.0 0.2 -13.05 M0.15 -13.4 L2.4 -13.2 2.75 -13.4 3.8 -13.75 3.85 -13.6 3.8 -13.5 4.25 -13.4 4.65 -13.7 5.05 -14.1 6.05 -13.45 6.7 -13.55 6.85 -13.6 8.4 -12.15 8.25 -11.8 8.05 -11.55 8.0 -11.45 Q8.35 -11.05 8.35 -10.2 8.35 -8.95 7.75 -8.6 L7.7 -8.75 7.7 -8.85 7.5 -9.3 7.25 -10.0 6.85 -10.35 6.85 -10.2 6.8 -9.55 Q6.7 -9.1 6.2 -9.05 L6.15 -9.25 6.2 -9.35 5.9 -9.7 Q5.65 -9.9 5.15 -10.25 L5.15 -10.3 Q2.5 -8.85 0.7 -6.65 L0.65 -6.65 0.8 -6.15 1.15 -5.25 2.1 -4.25 3.5 -5.15 3.55 -4.9 3.4 -4.2 4.1 -4.6 4.25 -4.4 3.9 -3.05 4.3 -3.35 5.3 -3.5 5.3 -2.55 5.25 -2.45 5.85 -3.1 Q6.1 -3.55 6.25 -3.25 L6.35 -2.6 6.3 -1.95 5.75 -1.45 5.9 -0.7 Q5.9 -0.6 5.75 -0.65 L4.65 -0.5 Q4.55 -0.35 4.25 -0.35 4.05 -0.35 3.35 -1.1 L2.0 -2.15 Q0.05 -2.65 -1.55 -3.4 -2.65 -3.4 -2.9 -3.75 L-3.05 -4.15 -3.2 -4.15 -3.25 -4.8 -3.25 -4.85 -3.4 -4.75 Q-3.8 -4.4 -4.05 -4.4 L-4.0 -4.95 Q-4.05 -5.35 -4.8 -5.35 L-5.15 -5.0 Q-5.35 -4.75 -5.65 -4.8 L-5.7 -5.2 -5.6 -5.65 -5.6 -5.8 -5.85 -6.05 -5.75 -6.4 -5.95 -6.5 -6.35 -6.3 -6.75 -6.3 -6.75 -6.7 Q-6.4 -7.05 -6.3 -7.85 L-6.15 -9.0 -6.1 -8.95 -6.0 -9.95 -5.65 -10.7 -4.85 -11.5 Q-1.95 -14.2 0.1 -13.5 L0.15 -13.4 M7.75 -11.4 L7.2 -11.35 7.0 -11.2 7.0 -11.1 6.95 -10.95 7.5 -10.3 7.9 -9.55 8.05 -10.15 7.75 -11.4 M6.35 -10.95 L6.15 -10.8 5.7 -10.65 5.4 -10.4 6.4 -9.8 6.55 -10.15 6.35 -10.9 6.35 -10.95 M3.0 -4.05 L3.15 -4.4 3.1 -4.5 2.45 -4.15 2.3 -4.15 2.8 -3.75 3.0 -4.05 M3.2 -3.55 L3.55 -3.3 3.8 -3.8 3.7 -3.9 3.2 -3.55 M0.4 -4.25 Q-0.05 -4.25 -0.6 -4.95 L-1.05 -5.8 -1.3 -5.7 -1.55 -5.7 -1.6 -5.95 Q-1.6 -6.15 -0.9 -6.2 L-0.85 -6.0 -0.85 -5.9 -0.2 -5.35 0.55 -4.3 0.4 -4.25 M4.9 -3.05 L4.1 -2.7 4.6 -2.25 4.65 -2.35 4.9 -2.55 4.9 -3.05 M4.8 -1.75 L3.15 -2.85 1.25 -4.6 Q0.8 -5.0 0.45 -6.25 -0.1 -7.4 -1.5 -7.4 -1.75 -7.4 -2.0 -7.0 L-2.0 -6.9 -2.4 -6.1 -2.9 -4.8 -2.85 -4.5 -2.6 -4.0 -1.2 -3.6 Q0.45 -3.35 1.25 -2.9 2.45 -2.55 4.25 -0.75 L5.45 -0.95 5.45 -1.15 5.0 -1.55 4.8 -1.75 M5.85 -2.0 L6.0 -2.45 6.0 -2.7 5.05 -2.1 5.65 -1.75 5.85 -2.0 M0.35 -12.4 L-0.8 -12.2 Q-2.55 -11.2 -2.55 -10.9 -2.55 -10.8 -1.7 -10.4 L-0.6 -10.05 Q0.2 -10.05 1.15 -12.3 L0.35 -12.4 M-4.3 -8.1 Q-4.7 -8.1 -5.05 -8.85 L-4.9 -9.15 -4.6 -9.35 Q-4.3 -9.35 -4.05 -8.95 L-3.75 -8.55 Q-3.75 -8.1 -4.3 -8.1 M-4.5 -8.85 L-4.6 -8.75 -4.4 -8.45 -4.15 -8.45 -4.5 -8.85" fill="#000000" fill-rule="evenodd" stroke="none"/>
      <path d="M0.2 -13.0 L-1.5 -12.05 -2.9 -10.9 -2.25 -10.15 Q-1.45 -9.65 -0.5 -9.65 -0.15 -9.65 0.7 -10.85 L1.55 -12.3 Q1.55 -12.75 1.1 -12.9 L1.25 -12.9 1.95 -12.9 1.95 -12.8 2.4 -12.9 2.5 -12.9 2.55 -12.95 2.9 -13.1 3.3 -13.2 3.35 -13.1 4.35 -13.0 5.0 -13.6 6.05 -13.05 6.9 -13.2 7.55 -12.55 8.05 -12.15 7.6 -11.8 7.6 -11.7 Q6.7 -11.65 6.7 -11.4 L6.6 -11.4 6.0 -11.1 5.7 -10.85 Q2.7 -9.55 0.5 -7.0 L0.5 -6.9 0.25 -7.2 Q-0.3 -7.85 -1.45 -7.65 -2.55 -7.5 -2.55 -7.0 L-2.4 -6.7 -2.6 -6.5 -3.1 -5.4 -3.75 -5.0 -3.8 -5.15 -4.15 -5.55 -4.85 -5.7 -5.2 -5.65 -5.3 -6.4 Q-5.45 -6.85 -6.2 -6.8 L-5.75 -8.3 -5.65 -9.3 Q-5.65 -10.35 -5.1 -10.85 L-3.4 -12.25 Q-1.95 -13.35 -1.3 -13.35 L-0.05 -13.0 0.2 -13.05 0.2 -13.0 M5.85 -2.0 L5.65 -1.75 5.05 -2.1 6.0 -2.7 6.0 -2.45 5.85 -2.0 M4.8 -1.75 L5.0 -1.55 5.45 -1.15 5.45 -0.95 4.25 -0.75 Q2.45 -2.55 1.25 -2.9 0.45 -3.35 -1.2 -3.6 L-2.6 -4.0 -2.85 -4.5 -2.9 -4.8 -2.4 -6.1 -2.0 -6.9 -2.0 -7.0 Q-1.75 -7.4 -1.5 -7.4 -0.1 -7.4 0.45 -6.25 0.8 -5.0 1.25 -4.6 L3.15 -2.85 4.8 -1.75 M4.9 -3.05 L4.9 -2.55 4.65 -2.35 4.6 -2.25 4.1 -2.7 4.9 -3.05 M0.4 -4.25 L0.55 -4.3 -0.2 -5.35 -0.85 -5.9 -0.85 -6.0 -0.9 -6.2 Q-1.6 -6.15 -1.6 -5.95 L-1.55 -5.7 -1.3 -5.7 -1.05 -5.8 -0.6 -4.95 Q-0.05 -4.25 0.4 -4.25 M3.2 -3.55 L3.7 -3.9 3.8 -3.8 3.55 -3.3 3.2 -3.55 M3.0 -4.05 L2.8 -3.75 2.3 -4.15 2.45 -4.15 3.1 -4.5 3.15 -4.4 3.0 -4.05 M6.35 -10.95 L6.35 -10.9 6.55 -10.15 6.4 -9.8 5.4 -10.4 5.7 -10.65 6.15 -10.8 6.35 -10.95 M7.75 -11.4 L8.05 -10.15 7.9 -9.55 7.5 -10.3 6.95 -10.95 7.0 -11.1 7.0 -11.2 7.2 -11.35 7.75 -11.4 M-4.3 -8.1 Q-3.75 -8.1 -3.75 -8.55 L-4.05 -8.95 Q-4.3 -9.35 -4.6 -9.35 L-4.9 -9.15 -5.05 -8.85 Q-4.7 -8.1 -4.3 -8.1" fill="#fffaee" fill-rule="evenodd" stroke="none"/>
      <path d="M0.35 -16.55 L0.3 -16.65 0.3 -16.7 0.1 -17.9 -0.15 -17.9 -0.15 -17.85 -0.25 -18.15 -0.25 -18.1 -0.2 -17.65 -0.2 -17.2 -0.35 -17.05 -0.25 -16.85 -0.3 -16.6 -0.85 -15.45 -0.7 -15.25 -0.7 -15.0 -0.65 -14.95 -0.55 -14.8 -0.45 -14.65 -0.5 -14.55 -0.45 -14.45 -0.3 -14.45 -0.3 -14.4 -0.2 -14.45 -0.1 -14.45 0.15 -14.65 0.4 -14.9 0.45 -15.0 0.45 -15.05 0.45 -15.45 0.45 -15.55 0.55 -15.8 0.55 -16.1 0.45 -16.1 0.55 -16.4 0.5 -16.55 0.35 -16.55 M-0.7 -19.75 Q0.0 -19.75 0.75 -15.45 0.75 -14.05 -0.2 -14.0 L-0.35 -13.5 -0.6 -13.5 -0.6 -13.85 -0.55 -14.1 -1.0 -15.2 -0.75 -16.45 -0.5 -17.7 -0.95 -19.7 -0.7 -19.75 M-7.2 -15.75 L-7.8 -15.95 -7.05 -15.0 -7.15 -14.85 -6.45 -14.3 -5.85 -13.65 Q-5.85 -13.4 -5.45 -13.3 L-5.4 -13.3 -4.8 -12.85 -4.55 -12.75 -4.3 -12.7 Q-4.05 -12.7 -4.05 -13.15 L-4.05 -13.4 -3.9 -13.45 -3.9 -13.65 -3.75 -13.1 -3.8 -12.65 -3.45 -12.55 -3.05 -12.0 -3.25 -11.35 -3.75 -10.65 -3.95 -9.2 -4.3 -9.2 -4.35 -9.3 -4.2 -9.75 -4.45 -10.55 -4.75 -11.45 -4.3 -12.25 -4.45 -12.25 Q-5.2 -12.25 -6.7 -14.25 L-7.65 -15.25 -8.5 -16.35 -8.5 -16.4 -8.75 -16.8 -8.35 -16.7 -8.25 -16.5 Q-6.7 -16.0 -5.4 -15.05 L-4.0 -13.8 -4.15 -13.9 -4.3 -13.85 -4.45 -14.05 -4.5 -14.15 -4.8 -14.5 -4.9 -14.45 -5.75 -15.0 -6.1 -15.2 Q-6.7 -15.75 -7.1 -15.75 L-7.2 -15.75 M-8.0 -12.5 L-8.2 -12.55 -8.6 -12.45 -8.9 -12.15 -8.85 -12.0 -9.6 -11.0 -9.6 -10.55 -9.55 -10.5 -9.15 -11.0 -9.0 -11.1 -8.85 -11.2 -8.15 -11.4 -7.55 -11.35 -7.55 -11.3 -7.4 -11.25 -7.3 -11.25 -7.05 -11.05 -6.95 -10.9 -6.95 -10.85 -6.85 -10.75 -6.7 -10.7 Q-6.45 -10.7 -6.2 -10.95 L-5.9 -11.25 -5.9 -11.3 -5.9 -11.35 -6.45 -12.05 -6.55 -12.1 -6.55 -12.15 -6.8 -12.5 -7.25 -12.65 -7.45 -12.55 -7.6 -12.5 -7.8 -12.55 -8.0 -12.5 M-2.9 -16.85 Q-1.4 -15.4 -1.4 -14.6 -1.4 -14.15 -1.8 -14.0 L-1.6 -13.8 -1.6 -13.55 -1.55 -13.25 Q-1.55 -12.35 -2.3 -12.35 -3.1 -12.35 -3.1 -12.8 L-2.6 -13.45 -2.15 -13.75 -2.15 -13.9 -2.4 -13.9 Q-3.4 -13.9 -3.8 -14.9 L-4.15 -16.25 Q-4.45 -16.95 -5.5 -18.65 -4.6 -18.45 -3.1 -17.05 L-3.25 -16.85 -3.25 -16.7 -3.65 -17.1 -3.8 -17.5 -4.0 -17.4 -4.45 -17.6 Q-3.7 -16.5 -3.65 -15.8 L-3.45 -14.95 Q-3.15 -14.25 -2.4 -14.25 -1.7 -14.25 -1.7 -14.55 L-1.8 -14.9 -1.8 -15.0 Q-1.8 -15.4 -2.3 -15.95 L-2.9 -16.85 M-2.25 -13.25 L-2.7 -12.9 Q-2.6 -12.7 -2.3 -12.7 -1.85 -12.7 -1.85 -13.3 L-2.25 -13.25 M-11.15 -5.35 L-10.3 -6.35 -9.5 -7.45 Q-8.9 -8.9 -7.6 -9.2 L-7.25 -9.2 -6.7 -9.1 -6.5 -9.2 -6.0 -9.4 -5.95 -9.3 -5.55 -9.2 -5.55 -8.95 -5.95 -8.95 -6.05 -8.95 -6.25 -8.85 Q-6.4 -8.45 -8.3 -6.95 -10.35 -5.25 -10.95 -5.25 -11.05 -5.25 -11.15 -5.35 M-4.15 -10.75 L-4.1 -10.6 -3.75 -11.3 Q-3.4 -11.75 -3.35 -12.05 L-3.4 -12.1 -3.6 -12.0 -3.65 -12.0 -3.9 -12.15 -4.2 -11.95 -4.45 -11.4 -4.5 -11.25 Q-4.45 -10.75 -4.2 -10.75 L-4.15 -10.75 M-5.4 -10.85 L-5.7 -11.0 -5.9 -10.75 -6.6 -10.35 Q-7.15 -10.35 -7.25 -10.7 -7.35 -11.05 -8.15 -11.05 -8.8 -11.05 -9.2 -10.4 L-9.55 -9.55 -9.7 -9.5 Q-10.0 -9.5 -9.95 -10.1 -9.95 -11.0 -9.55 -11.75 -8.9 -12.9 -7.45 -12.9 -6.15 -12.9 -5.6 -11.35 -5.15 -11.2 -5.2 -10.9 L-5.4 -10.85 M-7.7 -8.95 L-7.95 -9.0 -8.25 -8.75 -8.45 -8.55 -8.7 -8.25 -9.25 -7.6 -9.2 -7.5 -9.3 -7.25 -9.55 -6.95 -10.15 -6.4 -10.1 -6.25 -9.85 -6.3 -10.0 -6.2 -9.4 -6.45 -9.25 -6.5 -8.15 -7.35 -7.65 -7.85 -7.5 -8.05 -7.25 -8.35 -6.95 -8.8 -7.2 -8.8 -7.2 -9.0 -7.7 -9.0 -7.7 -8.95" fill="#000000" fill-rule="evenodd" stroke="none"/>
      <path d="M0.0 -16.55 L0.0 -16.25 -0.05 -15.9 -0.1 -15.9 -0.35 -15.35 -0.3 -15.25 -0.2 -15.25 -0.2 -15.2 -0.3 -15.15 -0.45 -15.3 -0.65 -15.3 -0.25 -16.05 0.0 -16.55 M0.35 -16.55 L0.3 -16.55 0.3 -16.7 0.3 -16.65 0.35 -16.55 M-0.15 -17.85 L-0.15 -17.25 -0.2 -17.2 -0.2 -17.65 -0.25 -18.1 -0.25 -18.15 -0.15 -17.85 M0.45 -15.55 L0.45 -15.45 0.45 -15.05 0.25 -15.3 0.45 -15.55 M0.45 -15.0 L0.4 -14.9 0.15 -14.65 0.25 -14.75 0.45 -15.0 M-0.2 -14.45 L-0.3 -14.4 -0.3 -14.45 -0.2 -14.45 M-0.45 -14.65 L-0.55 -14.8 -0.65 -14.95 -0.4 -14.7 -0.45 -14.65 M-0.3 -16.6 L-0.25 -16.85 -0.25 -16.8 -0.3 -16.6 M0.45 -16.1 L0.4 -16.1 0.45 -16.1 M-7.2 -15.75 L-7.4 -15.55 -6.6 -14.95 -6.85 -15.05 -7.05 -15.0 -7.8 -15.95 -7.2 -15.75 M-5.1 -13.75 L-4.75 -13.6 -4.75 -13.5 -5.3 -13.7 -5.15 -13.75 -5.1 -13.75 M-4.35 -13.3 L-4.25 -13.5 Q-4.2 -13.4 -4.05 -13.4 L-4.05 -13.15 Q-4.05 -12.7 -4.3 -12.7 L-4.55 -12.75 Q-4.3 -12.75 -4.3 -13.1 L-4.35 -13.3 M-4.3 -13.85 L-4.45 -13.8 -4.45 -14.05 -4.3 -13.85 M-4.9 -14.45 L-4.95 -14.45 -5.0 -14.3 -5.15 -14.55 Q-5.25 -14.75 -5.55 -14.7 L-5.55 -14.6 -5.9 -15.0 -6.1 -15.2 -5.75 -15.0 -4.9 -14.45 M-8.0 -12.5 L-7.8 -12.55 -7.6 -12.5 -7.6 -12.45 -7.7 -12.45 -8.0 -12.5 M-6.55 -12.1 L-6.45 -12.05 -5.9 -11.35 -5.9 -11.3 -5.95 -11.5 -6.2 -11.5 -6.25 -11.65 -6.65 -11.4 -6.9 -11.1 -6.95 -11.1 -6.95 -10.9 -7.05 -11.05 -7.3 -11.25 -6.85 -11.4 -6.45 -11.7 -6.5 -11.85 -6.85 -11.8 -6.85 -11.9 -6.55 -12.1 M-6.2 -10.95 Q-6.45 -10.7 -6.7 -10.7 L-6.85 -10.75 -6.75 -10.75 -6.2 -10.95 M-7.55 -11.35 L-8.15 -11.4 -8.85 -11.2 -8.85 -11.25 -8.7 -11.4 -7.9 -11.7 -7.5 -11.95 -7.35 -11.85 -7.4 -11.85 -7.6 -11.5 -7.55 -11.4 -7.55 -11.35 M-9.0 -11.1 L-9.15 -11.0 -9.55 -10.5 -9.6 -10.55 -9.6 -11.0 -8.85 -12.0 -8.65 -12.0 -8.15 -12.2 -8.1 -12.15 -8.7 -11.9 -9.25 -11.25 -9.2 -11.1 -9.0 -11.1 M-6.0 -14.25 L-5.95 -14.2 -5.7 -13.85 -5.6 -13.85 -5.35 -13.7 -5.8 -13.85 -5.85 -13.65 -6.45 -14.3 -6.05 -14.25 -6.0 -14.25 M-3.25 -16.7 L-3.15 -16.4 -3.25 -16.25 -3.25 -15.95 -3.65 -17.1 -3.25 -16.7 M-2.2 -15.15 L-2.2 -15.0 -2.25 -14.75 -2.75 -14.5 -2.7 -14.4 -2.3 -14.4 -1.95 -14.65 -1.8 -14.9 -1.7 -14.55 Q-1.7 -14.25 -2.4 -14.25 -3.15 -14.25 -3.45 -14.95 L-3.65 -15.8 Q-3.7 -16.5 -4.45 -17.6 L-4.0 -17.4 -4.05 -17.25 -3.85 -16.8 -3.9 -16.8 -3.5 -15.7 -3.15 -14.9 -2.95 -14.5 -2.7 -14.8 -2.45 -14.7 -2.25 -14.75 -2.3 -14.95 -2.2 -15.15 M-4.8 -12.85 L-5.4 -13.3 -4.75 -13.05 -4.8 -12.85 M-0.2 -14.85 L-0.2 -14.75 -0.25 -14.75 -0.25 -14.85 -0.2 -14.85 M-2.25 -13.25 L-1.85 -13.3 Q-1.85 -12.7 -2.3 -12.7 -2.6 -12.7 -2.7 -12.9 L-2.25 -13.25 M-4.15 -10.75 L-4.05 -10.85 -4.15 -11.3 -3.95 -11.75 -3.65 -11.75 -3.65 -11.95 -3.65 -12.0 -3.6 -12.0 -3.4 -12.1 -3.35 -12.05 Q-3.4 -11.75 -3.75 -11.3 L-4.1 -10.6 -4.15 -10.75 M-7.25 -8.7 L-7.2 -8.75 -7.2 -8.8 -6.95 -8.8 -7.25 -8.35 -7.2 -8.55 -7.25 -8.7 M-9.2 -7.25 L-9.25 -7.3 -9.3 -7.25 -9.2 -7.5 -8.95 -7.5 -8.8 -7.6 -8.8 -7.5 -9.2 -7.25 M-9.4 -6.45 L-10.0 -6.2 -9.85 -6.3 -9.45 -6.6 -9.4 -6.45 M-9.25 -6.5 L-8.7 -7.0 -8.45 -7.25 -8.05 -7.55 -8.0 -7.65 -7.65 -7.85 -8.15 -7.35 -9.25 -6.5" fill="#0099cc" fill-rule="evenodd" stroke="none"/>
      <path d="M-0.3 -15.15 L-0.2 -15.2 -0.25 -14.95 -0.25 -15.1 -0.3 -15.15 M-0.2 -15.25 L-0.3 -15.25 -0.35 -15.35 -0.1 -15.9 -0.05 -15.9 -0.2 -15.25 M-5.85 -14.35 L-5.75 -14.3 -5.95 -14.25 -5.95 -14.2 -6.0 -14.25 -5.85 -14.3 -5.85 -14.35 M-5.55 -14.1 L-5.2 -13.85 -5.1 -13.75 -5.15 -13.75 -5.3 -13.7 -5.35 -13.7 -5.6 -13.85 -5.55 -13.9 -5.55 -14.1 M-7.4 -12.1 L-7.35 -12.1 -7.2 -12.0 -7.35 -11.85 -7.5 -11.95 -7.4 -12.05 -7.4 -12.1 M-6.95 -11.9 L-6.85 -11.9 -6.85 -11.8 -6.95 -11.8 -6.95 -11.85 -6.95 -11.9 M-3.15 -16.4 L-3.1 -16.25 -2.75 -15.75 -2.55 -15.8 -2.5 -15.4 -2.25 -15.4 -2.2 -15.15 -2.3 -14.95 Q-2.45 -15.3 -3.1 -15.5 L-3.15 -15.55 -3.15 -15.6 -3.25 -15.95 -3.25 -16.25 -3.15 -16.4 M-0.2 -14.85 L-0.25 -14.85 -0.25 -14.95 -0.2 -14.85" fill="#2e20ac" fill-rule="evenodd" stroke="none"/>
      <path d="M0.0 -16.55 L-0.25 -16.05 -0.65 -15.3 -0.45 -15.3 -0.3 -15.15 -0.25 -15.1 -0.25 -14.95 -0.25 -14.85 -0.25 -14.75 -0.4 -14.7 -0.65 -14.95 -0.7 -15.0 -0.7 -15.25 -0.85 -15.45 -0.3 -16.6 -0.25 -16.8 -0.25 -16.85 -0.35 -17.05 -0.2 -17.2 -0.15 -17.25 0.0 -16.55 M-7.05 -15.0 L-6.85 -15.05 -6.6 -14.95 -5.85 -14.35 -5.85 -14.3 -6.0 -14.25 -6.05 -14.25 -6.45 -14.3 -7.15 -14.85 -7.05 -15.0 M-5.75 -14.3 L-5.55 -14.1 -5.55 -13.9 -5.6 -13.85 -5.7 -13.85 -5.95 -14.2 -5.95 -14.25 -5.75 -14.3 M-4.75 -13.5 L-4.7 -13.2 -4.35 -13.3 -4.3 -13.1 Q-4.3 -12.75 -4.55 -12.75 L-4.8 -12.85 -4.75 -13.05 -5.4 -13.3 -5.45 -13.3 Q-5.85 -13.4 -5.85 -13.65 L-5.8 -13.85 -5.35 -13.7 -5.3 -13.7 -4.75 -13.5 M-7.3 -11.25 L-7.4 -11.25 -7.55 -11.3 -7.55 -11.35 -7.55 -11.4 -7.6 -11.5 -7.4 -11.85 -7.35 -11.85 -7.2 -12.0 -6.95 -11.9 -6.95 -11.85 -6.95 -11.8 -6.85 -11.8 -6.5 -11.85 -6.45 -11.7 -6.85 -11.4 -7.3 -11.25 M-6.9 -11.1 L-6.65 -11.4 -6.25 -11.65 -6.2 -11.5 -6.4 -11.5 -6.4 -11.2 -6.9 -11.1 M-8.1 -8.0 L-8.0 -8.1 -7.95 -8.1 -8.0 -8.05 -7.95 -7.95 -7.7 -7.95 -7.45 -8.25 -7.35 -8.55 -7.35 -8.65 -7.25 -8.7 -7.2 -8.55 -7.25 -8.35 -7.5 -8.05 -7.65 -7.85 -8.0 -7.65 -8.05 -7.55 -8.45 -7.25 -8.7 -7.0 -9.25 -6.5 -9.4 -6.45 -9.45 -6.6 -9.15 -6.85 -8.65 -7.4 -8.4 -7.65 -8.1 -8.0 M-9.3 -7.25 L-9.25 -7.3 -9.2 -7.25 -9.5 -7.05 -9.55 -6.95 -9.3 -7.25" fill="#ad1f9f" fill-rule="evenodd" stroke="none"/>
      <path d="M-7.6 -12.5 L-7.45 -12.55 -7.6 -12.45 -7.6 -12.5 M-8.7 -8.25 L-8.95 -7.9 -8.75 -7.7 -8.8 -7.6 -8.95 -7.5 -9.2 -7.5 -9.25 -7.6 -8.7 -8.25" fill="#a58b27" fill-rule="evenodd" stroke="none"/>
      <path d="M-8.85 -12.0 L-8.9 -12.15 -8.6 -12.45 -8.2 -12.55 -8.0 -12.5 -7.7 -12.45 -7.6 -12.45 -7.45 -12.55 -7.25 -12.65 -6.8 -12.5 -6.55 -12.15 -6.55 -12.1 -6.85 -11.9 -6.95 -11.9 -7.2 -12.0 -7.35 -12.1 -7.4 -12.1 -7.45 -12.2 -7.65 -12.2 -7.7 -12.25 -8.1 -12.15 -8.15 -12.2 -8.65 -12.0 -8.85 -12.0 M-2.25 -14.75 L-2.45 -14.7 -2.7 -14.8 -2.95 -14.5 -3.15 -14.9 -3.5 -15.7 -3.9 -16.8 -3.85 -16.8 -4.05 -17.25 -4.0 -17.4 -3.8 -17.5 -3.65 -17.1 -3.25 -15.95 -3.15 -15.6 -3.15 -15.55 -3.1 -15.5 Q-2.45 -15.3 -2.3 -14.95 L-2.25 -14.75 M-7.7 -8.95 L-7.85 -8.7 -7.8 -8.6 -7.6 -8.6 -7.75 -8.45 -7.95 -8.1 -8.0 -8.1 -8.1 -8.0 -8.1 -8.1 -8.15 -8.35 -8.65 -7.9 -8.75 -7.7 -8.95 -7.9 -8.7 -8.25 -8.45 -8.55 -8.25 -8.75 -7.95 -9.0 -7.7 -8.95" fill="#c96503" fill-rule="evenodd" stroke="none"/>
      <path d="M-0.05 -15.9 L0.0 -16.25 0.0 -16.55 -0.15 -17.25 -0.15 -17.85 -0.15 -17.9 0.1 -17.9 0.3 -16.7 0.3 -16.55 0.35 -16.55 0.5 -16.55 0.55 -16.4 0.45 -16.1 0.55 -16.1 0.55 -15.8 0.45 -15.55 0.25 -15.3 0.45 -15.05 0.45 -15.0 0.25 -14.75 0.15 -14.65 -0.1 -14.45 -0.2 -14.45 -0.3 -14.45 -0.45 -14.45 -0.5 -14.55 -0.45 -14.65 -0.4 -14.7 -0.25 -14.75 -0.2 -14.75 -0.2 -14.85 -0.25 -14.95 -0.2 -15.2 -0.2 -15.25 -0.05 -15.9 M0.45 -16.1 L0.4 -16.1 0.45 -16.1 M-6.6 -14.95 L-7.4 -15.55 -7.2 -15.75 -7.1 -15.75 Q-6.7 -15.75 -6.1 -15.2 L-5.9 -15.0 -5.55 -14.6 -5.55 -14.7 Q-5.25 -14.75 -5.15 -14.55 L-5.0 -14.3 -4.95 -14.45 -4.9 -14.45 -4.8 -14.5 -4.5 -14.15 -4.45 -14.05 -4.45 -13.8 -4.3 -13.85 -4.15 -13.9 -4.0 -13.8 -3.9 -13.75 -3.9 -13.65 -3.9 -13.45 -4.05 -13.4 Q-4.2 -13.4 -4.25 -13.5 L-4.35 -13.3 -4.7 -13.2 -4.75 -13.5 -4.75 -13.6 -5.1 -13.75 -5.2 -13.85 -5.55 -14.1 -5.75 -14.3 -5.85 -14.35 -6.6 -14.95 M-5.9 -11.3 L-5.9 -11.25 -6.2 -10.95 -6.75 -10.75 -6.85 -10.75 -6.95 -10.85 -6.95 -10.9 -6.95 -11.1 -6.9 -11.1 -6.4 -11.2 -6.4 -11.5 -6.2 -11.5 -5.95 -11.5 -5.9 -11.3 M-8.85 -11.2 L-9.0 -11.1 -9.2 -11.1 -9.25 -11.25 -8.7 -11.9 -8.1 -12.15 -7.7 -12.25 -7.65 -12.2 -7.45 -12.2 -7.4 -12.1 -7.4 -12.05 -7.5 -11.95 -7.9 -11.7 -8.7 -11.4 -8.85 -11.25 -8.85 -11.2 M-3.1 -17.05 L-3.0 -17.05 -2.9 -16.85 -2.3 -15.95 Q-1.8 -15.4 -1.8 -15.0 L-1.8 -14.9 -1.95 -14.65 -2.3 -14.4 -2.7 -14.4 -2.75 -14.5 -2.25 -14.75 -2.2 -15.0 -2.2 -15.15 -2.25 -15.4 -2.5 -15.4 -2.55 -15.8 -2.75 -15.75 -3.1 -16.25 -3.15 -16.4 -3.25 -16.7 -3.25 -16.85 -3.1 -17.05 M-3.65 -12.0 L-3.65 -11.95 -3.65 -11.75 -3.95 -11.75 -4.15 -11.3 -4.05 -10.85 -4.15 -10.75 -4.2 -10.75 Q-4.45 -10.75 -4.5 -11.25 L-4.45 -11.4 -4.2 -11.95 -3.9 -12.15 -3.65 -12.0 M-7.95 -8.1 L-7.75 -8.45 -7.6 -8.6 -7.8 -8.6 -7.85 -8.7 -7.7 -8.95 -7.7 -9.0 -7.2 -9.0 -7.2 -8.8 -7.2 -8.75 -7.25 -8.7 -7.35 -8.65 -7.35 -8.55 -7.45 -8.25 -7.7 -7.95 -7.95 -7.95 -8.0 -8.05 -7.95 -8.1 M-8.75 -7.7 L-8.65 -7.9 -8.15 -8.35 -8.1 -8.1 -8.1 -8.0 -8.4 -7.65 -8.65 -7.4 -9.15 -6.85 -9.45 -6.6 -9.85 -6.3 -10.1 -6.25 -10.15 -6.4 -9.55 -6.95 -9.5 -7.05 -9.2 -7.25 -8.8 -7.5 -8.8 -7.6 -8.75 -7.7" fill="#cc0000" fill-rule="evenodd" stroke="none"/>
    </g>
    <g id="sprite12" transform="matrix(1.0, 0.0, 0.0, 1.0, 1.8, 1.5)">
      <use height="11.1" transform="matrix(1.0, 0.0, 0.0, 1.0, -1.8, -1.5)" width="3.65" xlink:href="#shape12"/>
    </g>
    <g id="shape12" transform="matrix(1.0, 0.0, 0.0, 1.0, 1.8, 1.5)">
      <path d="M0.8 8.5 L0.65 8.3 0.5 8.3 0.3 8.4 0.3 8.35 0.35 8.25 0.25 8.25 0.35 8.15 Q0.4 8.05 0.5 8.05 L0.65 7.9 1.1 6.55 1.55 3.85 1.3 3.0 1.05 2.3 1.25 1.5 1.45 0.45 1.35 -0.4 Q1.15 -1.15 0.55 -1.15 -0.7 -1.15 -1.2 -0.65 L-1.45 0.05 -1.4 1.05 -1.3 1.55 -1.25 1.65 -1.15 1.8 -1.2 2.1 -1.15 2.25 -1.2 2.2 -1.25 2.35 -1.35 2.75 -1.2 3.1 -1.0 3.45 -1.05 3.55 -0.9 4.05 -1.05 4.3 -1.15 4.6 -1.25 5.65 -1.15 6.95 -1.0 7.85 -1.05 7.95 -1.2 8.1 -1.0 8.3 -1.05 8.45 -1.1 8.45 -1.1 8.5 -1.15 8.65 -1.25 8.9 -1.2 9.1 -1.0 9.2 -0.9 9.25 -0.9 9.4 -1.05 9.45 -1.3 9.25 -1.4 9.0 -1.25 8.45 -1.5 8.3 -1.5 8.1 -1.4 7.9 -1.5 7.55 -1.55 6.55 -1.55 6.5 -1.6 5.65 -1.6 5.2 -1.5 4.6 -1.35 4.15 -1.6 3.45 -1.8 2.85 -1.7 2.25 -1.6 1.85 -1.6 1.75 -1.7 1.55 -1.75 0.7 -1.6 -0.55 -1.5 -0.7 -1.4 -0.8 -1.15 -1.1 -0.8 -1.35 0.6 -1.5 0.65 -1.45 Q1.75 -1.4 1.75 0.45 L1.6 1.6 1.5 1.8 1.55 2.4 1.55 2.8 1.65 2.9 1.85 3.85 1.6 6.0 1.5 6.45 1.3 7.25 0.9 8.05 0.8 8.5 M0.2 3.1 L0.25 3.1 0.25 3.15 -0.05 5.1 -0.1 6.1 -0.15 7.1 -0.2 7.05 -0.25 6.25 -0.1 4.65 0.2 3.1" fill="#000000" fill-rule="evenodd" stroke="none"/>
      <path d="M-0.9 9.4 L-0.9 9.25 -1.0 9.2 -1.2 9.1 -1.25 8.9 -1.15 8.65 -1.1 8.5 -1.1 8.45 -1.05 8.45 -1.0 8.3 -1.2 8.1 -1.05 7.95 -1.0 7.85 -1.15 6.95 -1.25 5.65 -1.15 4.6 -1.05 4.3 -0.9 4.05 -1.05 3.55 -1.0 3.45 -1.2 3.1 -1.35 2.75 -1.25 2.35 -1.2 2.2 -1.15 2.25 -1.2 2.1 -1.15 1.8 -1.25 1.65 -1.3 1.55 -1.4 1.05 -1.45 0.05 -1.2 -0.65 Q-0.7 -1.15 0.55 -1.15 1.15 -1.15 1.35 -0.4 L1.45 0.45 1.25 1.5 1.05 2.3 1.3 3.0 1.55 3.85 1.1 6.55 0.65 7.9 0.5 8.05 Q0.4 8.05 0.35 8.15 L0.25 8.25 0.35 8.25 0.3 8.35 0.3 8.4 0.5 8.3 0.65 8.3 0.8 8.5 0.8 8.6 0.75 8.6 0.7 8.85 Q0.4 9.6 -0.3 9.6 L-0.9 9.4 M0.2 3.1 L-0.1 4.65 -0.25 6.25 -0.2 7.05 -0.15 7.1 -0.1 6.1 -0.05 5.1 0.25 3.15 0.25 3.1 0.2 3.1" fill="#ffead5" fill-rule="evenodd" stroke="none"/>
    </g>
    <g id="sprite13" transform="matrix(1.0, 0.0, 0.0, 1.0, 2.45, 51.6)">
      <use height="80.7" transform="matrix(1.0, 0.0, 0.0, 1.0, -2.45, -51.6)" width="4.75" xlink:href="#shape13"/>
    </g>
    <g id="shape13" transform="matrix(1.0, 0.0, 0.0, 1.0, 2.45, 51.6)">
      <path d="M0.05 -51.45 L0.1 -51.4 0.1 -51.6 Q1.75 -47.0 1.75 -45.25 L1.65 -44.9 1.7 -44.7 1.55 -44.2 1.75 -43.7 1.75 -43.45 2.1 -43.25 2.3 -42.9 2.2 -42.6 1.85 -42.35 2.05 -41.8 Q2.05 -41.5 1.8 -41.5 L1.95 -41.2 1.95 -41.05 2.05 -40.35 Q2.05 -39.6 1.8 -39.55 L1.65 -39.85 1.6 -39.85 1.2 -39.35 1.1 -38.75 1.05 -38.5 0.8 -37.75 0.75 -36.85 0.9 -36.1 0.85 -35.15 1.0 -33.8 0.85 -31.9 0.8 -29.0 0.85 -28.45 0.8 -27.25 0.8 -21.65 0.8 -17.95 0.85 -16.1 0.85 -15.6 0.95 -15.4 0.85 -15.05 0.95 -14.55 0.8 -14.35 0.8 29.0 0.55 29.0 0.25 29.1 -0.2 29.0 -0.25 28.9 -0.25 29.0 -0.65 29.0 -0.65 -14.85 -0.6 -14.85 -0.6 -35.35 -0.5 -35.35 -0.55 -36.9 -0.55 -36.95 -0.7 -37.6 -1.05 -38.3 -1.55 -38.35 -1.5 -38.75 -2.45 -40.5 -2.25 -40.85 -2.2 -40.85 -2.4 -41.1 -2.3 -41.7 -2.45 -42.1 -2.25 -42.6 -2.3 -42.9 -2.1 -43.4 -1.95 -43.75 -2.05 -44.25 -1.1 -47.8 -0.7 -49.6 -0.15 -50.9 -0.15 -51.05 -0.05 -51.15 -0.1 -51.2 0.0 -51.35 0.05 -51.45 M1.05 -46.4 L0.8 -48.1 0.1 -50.55 -0.7 -47.9 -1.4 -44.75 -1.65 -44.1 -1.55 -43.7 -1.95 -42.6 -1.8 -42.35 -2.05 -42.1 -1.9 -41.6 -2.0 -41.0 -1.95 -41.0 -1.9 -40.75 -2.0 -40.45 -1.45 -39.65 Q0.75 -40.7 1.3 -40.7 L1.6 -40.65 1.7 -40.95 Q1.4 -41.0 1.4 -41.55 L1.55 -42.05 1.4 -42.55 1.55 -42.8 Q1.25 -42.9 1.35 -43.2 1.15 -43.4 1.15 -44.1 1.25 -44.85 1.45 -45.05 1.1 -45.6 1.05 -46.4 M1.75 -42.9 L1.65 -42.8 1.7 -42.7 1.75 -42.9 M1.25 -40.2 L-1.25 -39.4 -1.15 -39.3 Q-0.8 -39.15 -0.25 -38.6 -0.05 -39.05 0.7 -39.1 L1.05 -39.9 1.25 -40.2 M0.15 -37.45 L0.2 -37.5 -0.45 -38.05 -0.25 -37.35 -0.1 -36.95 0.25 -36.7 0.3 -37.25 0.15 -37.45 M0.15 -38.1 L0.35 -37.9 0.45 -38.25 0.45 -38.3 0.15 -38.1 M0.15 -36.15 L0.0 -36.25 -0.05 -34.45 0.05 -34.45 0.15 -36.15 M0.25 -33.9 L0.0 -33.6 -0.2 -33.65 -0.2 -14.85 -0.15 -14.7 -0.2 -14.5 -0.2 -14.45 -0.25 -14.15 -0.25 28.05 Q-0.1 27.6 0.4 27.75 L0.4 -14.7 0.4 -15.0 0.55 -15.5 Q0.4 -17.85 0.4 -21.7 L0.4 -25.4 0.4 -27.0 0.35 -27.25 0.35 -27.4 0.45 -28.85 0.4 -29.2 0.45 -30.1 0.45 -31.9 0.35 -33.8 0.35 -33.9 0.25 -33.9" fill="#000000" fill-rule="evenodd" stroke="none"/>
      <path d="M0.25 -33.9 L0.35 -33.9 0.35 -33.8 0.45 -31.9 0.45 -30.1 0.4 -29.2 0.45 -28.85 0.35 -27.4 0.35 -27.25 0.4 -27.0 0.4 -25.4 0.4 -21.7 Q0.4 -17.85 0.55 -15.5 L0.4 -15.0 0.4 -14.7 0.4 27.75 Q-0.1 27.6 -0.25 28.05 L-0.25 -14.15 -0.2 -14.45 -0.2 -14.5 -0.15 -14.7 -0.2 -14.85 -0.2 -33.65 0.0 -33.6 0.25 -33.9" fill="#b59b39" fill-rule="evenodd" stroke="none"/>
      <path d="M0.15 -36.15 L0.05 -34.45 -0.05 -34.45 0.0 -36.25 0.15 -36.15 M0.15 -38.1 L0.45 -38.3 0.45 -38.25 0.35 -37.9 0.15 -38.1 M0.15 -37.45 L0.3 -37.25 0.25 -36.7 -0.1 -36.95 -0.25 -37.35 -0.45 -38.05 0.2 -37.5 0.15 -37.45 M1.25 -40.2 L1.05 -39.9 0.7 -39.1 Q-0.05 -39.05 -0.25 -38.6 -0.8 -39.15 -1.15 -39.3 L-1.25 -39.4 1.25 -40.2" fill="#decf98" fill-rule="evenodd" stroke="none"/>
      <path d="M1.05 -46.4 Q1.1 -45.6 1.45 -45.05 1.25 -44.85 1.15 -44.1 1.15 -43.4 1.35 -43.2 1.25 -42.9 1.55 -42.8 L1.4 -42.55 1.55 -42.05 1.4 -41.55 Q1.4 -41.0 1.7 -40.95 L1.6 -40.65 1.3 -40.7 Q0.75 -40.7 -1.45 -39.65 L-2.0 -40.45 -1.9 -40.75 -1.95 -41.0 -2.0 -41.0 -1.9 -41.6 -2.05 -42.1 -1.8 -42.35 -1.95 -42.6 -1.55 -43.7 -1.65 -44.1 -1.4 -44.75 -0.7 -47.9 0.1 -50.55 0.8 -48.1 1.05 -46.4" fill="#a3a298" fill-rule="evenodd" stroke="none"/>
    </g>
    <g id="sprite14" transform="matrix(1.0, 0.0, 0.0, 1.0, 1.65, 1.0)">
      <use height="11.85" transform="matrix(1.0, 0.0, 0.0, 1.0, -1.65, -1.0)" width="3.95" xlink:href="#shape14"/>
    </g>
    <g id="shape14" transform="matrix(1.0, 0.0, 0.0, 1.0, 1.65, 1.0)">
      <path d="M0.85 -0.75 L0.95 -1.0 1.1 -0.8 1.1 -0.85 1.25 -0.3 1.3 0.2 1.4 0.5 1.85 2.05 1.85 2.5 1.8 2.65 1.6 3.5 1.3 4.9 1.25 5.45 1.25 6.7 1.3 7.6 1.55 7.95 2.15 8.75 2.3 9.0 2.25 9.05 2.25 9.15 2.1 9.25 2.05 9.25 1.9 9.25 1.85 9.2 1.65 9.15 1.45 9.15 1.3 9.7 1.2 10.2 1.3 10.55 1.15 10.75 1.05 10.8 0.9 10.85 0.85 10.85 Q-0.1 10.85 -0.8 10.4 L-1.3 10.1 -1.3 9.95 -1.4 9.8 Q-1.4 8.65 -0.7 7.9 L-0.3 7.6 -0.6 6.25 -0.75 5.65 -1.0 4.8 -1.4 3.35 -1.6 2.3 -1.65 2.05 -1.65 1.9 -1.55 1.05 -1.4 0.65 -1.35 0.4 -1.4 0.25 -1.45 -0.15 -1.15 -0.6 Q-0.85 -0.8 -0.85 -0.5 L-0.95 -0.3 -1.0 -0.25 -1.05 -0.05 -1.0 0.25 -0.9 0.45 -0.95 0.55 -1.0 0.65 -1.15 1.0 -1.35 2.05 -0.7 4.65 Q0.0 6.9 0.0 7.4 L-0.05 7.55 0.0 7.65 -0.15 7.8 -0.15 7.85 -0.25 7.95 -0.3 7.95 -0.4 8.05 -0.9 8.7 -1.05 9.75 Q-1.05 10.1 0.05 10.3 L0.8 10.5 0.85 10.45 0.9 10.2 0.95 9.7 1.0 9.2 1.35 8.9 1.7 8.85 1.8 8.85 1.85 8.85 1.25 8.05 1.2 8.1 0.9 7.75 0.95 7.7 0.9 7.5 0.9 7.45 0.85 7.2 0.85 6.8 Q0.85 5.45 1.2 3.9 L1.55 2.4 1.2 0.85 Q0.85 -0.15 0.85 -0.65 L0.85 -0.75" fill="#000000" fill-rule="evenodd" stroke="none"/>
      <path d="M0.85 -0.75 L0.85 -0.65 Q0.85 -0.15 1.2 0.85 L1.55 2.4 1.2 3.9 Q0.85 5.45 0.85 6.8 L0.85 7.2 0.9 7.45 0.9 7.5 0.95 7.7 0.9 7.75 1.2 8.1 1.25 8.05 1.85 8.85 1.8 8.85 1.7 8.85 1.35 8.9 1.0 9.2 0.95 9.7 0.9 10.2 0.85 10.45 0.8 10.5 0.05 10.3 Q-1.05 10.1 -1.05 9.75 L-0.9 8.7 -0.4 8.05 -0.3 7.95 -0.25 7.95 -0.15 7.85 -0.15 7.8 0.0 7.65 -0.05 7.55 0.0 7.4 Q0.0 6.9 -0.7 4.65 L-1.35 2.05 -1.15 1.0 -1.0 0.65 -0.95 0.55 -0.9 0.45 -1.0 0.25 -1.05 -0.05 -1.0 -0.25 -0.9 -0.2 0.15 -0.5 0.7 -0.7 0.85 -0.75" fill="#ffead5" fill-rule="evenodd" stroke="none"/>
    </g>
  </defs>
</svg>
