<?xml version="1.0" encoding="UTF-8" standalone="no"?>
<svg xmlns:xlink="http://www.w3.org/1999/xlink" height="214.5px" width="1230.0px" xmlns="http://www.w3.org/2000/svg">
  <g transform="matrix(6.0, 0.0, 0.0, 6.0, 3.0, 102.0)">
    <use height="34.0" id="bfr" transform="matrix(1.0, 0.0, 0.0, 1.0, 170.5, -17.0)" width="34.0" xlink:href="#button0"/>
    <use height="34.0" id="bf1" transform="matrix(1.0, 0.0, 0.0, 1.0, -0.5, -17.0)" width="34.0" xlink:href="#button1"/>
    <use height="34.0" id="bf2" transform="matrix(1.0, 0.0, 0.0, 1.0, 39.5, -17.0)" width="34.0" xlink:href="#button2"/>
    <use height="34.0" id="bf3" transform="matrix(1.0, 0.0, 0.0, 1.0, 79.5, -17.0)" width="34.0" xlink:href="#button3"/>
  </g>
  <defs>
    <g id="button0" transform="matrix(1.0, 0.0, 0.0, 1.0, 0.5, 0.5)">
      <use height="34.0" transform="matrix(1.0, 0.0, 0.0, 1.0, -0.5, -0.5)" width="34.0" xlink:href="#shape0"/>
      <use height="32.3" transform="matrix(1.0, 0.0, 0.0, 1.0, 0.6, 0.3)" width="32.1" xlink:href="#shape1"/>
    </g>
    <g id="shape0" transform="matrix(1.0, 0.0, 0.0, 1.0, 0.5, 0.5)">
      <path d="M33.0 0.0 L33.0 33.0 0.0 33.0 0.0 0.0 33.0 0.0" fill="#c4c4c4" fill-rule="evenodd" stroke="none"/>
      <path d="M33.0 0.0 L33.0 33.0 0.0 33.0 0.0 0.0 33.0 0.0 Z" fill="none" stroke="#000000" stroke-linecap="round" stroke-linejoin="round" stroke-width="1.0"/>
      <path d="M30.0 3.0 L3.0 3.0 3.0 30.0 30.0 30.0 30.0 3.0 M33.0 0.0 L33.0 33.0 0.0 33.0 0.0 0.0 33.0 0.0" fill="url(#gradient0)" fill-rule="evenodd" stroke="none"/>
      <path d="M30.0 3.0 L30.0 30.0 3.0 30.0 3.0 3.0 30.0 3.0" fill="#7b7b7b" fill-rule="evenodd" stroke="none"/>
      <path d="M30.0 3.0 L30.0 30.0 3.0 30.0 3.0 3.0 30.0 3.0 M33.0 0.0 L33.0 33.0 0.0 33.0 0.0 0.0 33.0 0.0" fill="none" stroke="#000000" stroke-linecap="round" stroke-linejoin="round" stroke-width="1.0"/>
      <path d="M28.0 0.0 L33.0 0.0 33.0 5.0 28.0 5.0 28.0 0.0 M0.0 0.0 L5.0 0.0 5.0 5.0 0.0 5.0 0.0 0.0 M5.0 28.0 L5.0 33.0 0.0 33.0 0.0 28.0 5.0 28.0 M28.0 28.0 L33.0 28.0 33.0 33.0 28.0 33.0 28.0 28.0" fill="#990000" fill-rule="evenodd" stroke="none"/>
      <path d="M28.0 0.0 L33.0 0.0 33.0 5.0 28.0 5.0 28.0 0.0 M0.0 0.0 L5.0 0.0 5.0 5.0 0.0 5.0 0.0 0.0 M5.0 28.0 L5.0 33.0 0.0 33.0 0.0 28.0 5.0 28.0 M28.0 28.0 L33.0 28.0 33.0 33.0 28.0 33.0 28.0 28.0" fill="none" stroke="#000000" stroke-linecap="round" stroke-linejoin="round" stroke-width="1.0"/>
    </g>
    <linearGradient gradientTransform="matrix(0.0152, 0.0234, -0.0234, 0.0152, 16.5, 16.45)" gradientUnits="userSpaceOnUse" id="gradient0" spreadMethod="pad" x1="-819.2" x2="819.2">
      <stop offset="0.0" stop-color="#eed600"/>
      <stop offset="0.19607843137254902" stop-color="#fef292"/>
      <stop offset="0.36470588235294116" stop-color="#ecd502"/>
      <stop offset="0.6352941176470588" stop-color="#9a8b00"/>
      <stop offset="0.8627450980392157" stop-color="#fff9c4"/>
      <stop offset="1.0" stop-color="#c4c400"/>
    </linearGradient>
    <g id="shape1" transform="matrix(1.0, 0.0, 0.0, 1.0, -0.6, -0.3)">
      <path d="M29.6 1.25 L29.05 2.1 28.6 1.8 28.6 1.45 28.85 0.8 Q28.9 0.35 29.3 0.35 L29.4 0.4 Q29.85 0.1 29.85 0.7 L29.7 1.1 29.6 1.25 M1.25 2.6 Q0.8 2.6 0.7 2.2 L0.7 1.7 Q0.7 1.15 1.45 0.65 2.2 0.2 2.2 0.95 L1.25 2.6 M1.85 29.35 L1.55 29.85 1.0 30.25 Q0.6 30.25 0.6 29.8 0.6 29.5 0.9 29.25 1.3 28.9 1.8 29.1 L1.85 29.35 M29.95 29.35 L29.8 29.95 29.4 30.25 Q28.95 30.25 28.95 29.8 28.95 29.4 29.45 29.0 29.95 28.55 29.95 29.35" fill="#ff6666" fill-rule="evenodd" stroke="none"/>
      <path d="M32.7 3.95 L32.7 4.35 31.45 4.6 Q30.2 4.6 30.2 4.2 30.2 3.9 30.7 3.65 L31.35 2.95 Q31.15 2.6 31.45 2.15 31.8 1.75 32.3 1.95 L32.7 3.95 M4.2 2.5 Q4.2 4.6 2.45 4.6 L2.05 4.55 Q1.95 4.05 2.1 3.9 L1.7 3.5 Q1.7 3.05 3.35 3.05 L3.9 2.1 Q4.2 1.65 4.2 2.5 M3.6 30.35 Q3.7 30.0 4.3 30.1 L4.35 32.05 Q4.25 32.6 3.75 32.6 L1.6 32.45 Q1.45 32.4 1.45 32.15 2.65 30.7 3.6 30.85 L3.6 30.35 M32.25 32.5 L31.25 32.5 30.25 32.5 29.85 32.05 30.05 31.8 31.3 31.25 31.2 30.65 Q31.2 30.25 31.55 29.8 31.95 29.25 32.25 29.95 L32.45 31.75 32.25 32.5" fill="#660000" fill-rule="evenodd" stroke="none"/>
      <path d="M28.0 20.5 L14.5 20.5 14.5 26.0 5.0 16.5 14.5 7.0 14.5 12.5 28.0 12.5 28.0 20.5" fill="#b10101" fill-rule="evenodd" stroke="none"/>
    </g>
    <g id="button1" transform="matrix(1.0, 0.0, 0.0, 1.0, 0.5, 0.5)">
      <use height="34.0" transform="matrix(1.0, 0.0, 0.0, 1.0, -0.5, -0.5)" width="34.0" xlink:href="#shape2"/>
      <use height="32.3" transform="matrix(1.0, 0.0, 0.0, 1.0, 0.6, 0.3)" width="32.1" xlink:href="#shape3"/>
      <use height="25.9" transform="matrix(1.0, 0.0, 0.0, 1.0, 8.2, 3.95)" width="18.25" xlink:href="#shape4"/>
    </g>
    <g id="shape2" transform="matrix(1.0, 0.0, 0.0, 1.0, 0.5, 0.5)">
      <path d="M3.0 29.85 L3.0 30.0 30.0 30.0 30.0 29.85 33.0 29.85 30.0 29.85 30.0 3.0 3.0 3.0 3.0 29.85 0.0 29.85 3.0 29.85 M33.0 29.85 L33.0 33.0 0.0 33.0 0.0 29.85 0.0 0.0 33.0 0.0 33.0 29.85" fill="url(#gradient1)" fill-rule="evenodd" stroke="none"/>
      <path d="M30.0 29.85 L30.0 30.0 3.0 30.0 3.0 29.85 3.0 3.0 30.0 3.0 30.0 29.85 3.0 29.85 30.0 29.85" fill="#7b7b7b" fill-rule="evenodd" stroke="none"/>
      <path d="M30.0 29.85 L30.0 30.0 3.0 30.0 3.0 29.85 M0.0 29.85 L0.0 33.0 33.0 33.0 33.0 29.85 33.0 0.0 0.0 0.0 0.0 29.85 M30.0 29.85 L30.0 3.0 3.0 3.0 3.0 29.85" fill="none" stroke="#000000" stroke-linecap="round" stroke-linejoin="round" stroke-width="1.0"/>
      <path d="M33.0 0.0 L33.0 5.0 28.0 5.0 28.0 0.0 33.0 0.0 M5.0 0.0 L5.0 5.0 0.0 5.0 0.0 0.0 5.0 0.0 M5.0 29.85 L5.0 33.0 0.0 33.0 0.0 29.85 0.0 28.0 5.0 28.0 5.0 29.85 0.0 29.85 5.0 29.85 M33.0 29.85 L33.0 33.0 28.0 33.0 28.0 29.85 28.0 28.0 33.0 28.0 33.0 29.85 28.0 29.85 33.0 29.85" fill="#990000" fill-rule="evenodd" stroke="none"/>
      <path d="M33.0 0.0 L33.0 5.0 28.0 5.0 28.0 0.0 33.0 0.0 M5.0 0.0 L5.0 5.0 0.0 5.0 0.0 0.0 5.0 0.0 M5.0 29.85 L5.0 33.0 0.0 33.0 0.0 29.85 0.0 28.0 5.0 28.0 5.0 29.85 M33.0 29.85 L33.0 33.0 28.0 33.0 28.0 29.85 28.0 28.0 33.0 28.0 33.0 29.85" fill="none" stroke="#000000" stroke-linecap="round" stroke-linejoin="round" stroke-width="1.0"/>
    </g>
    <linearGradient gradientTransform="matrix(0.0152, 0.0234, -0.0234, 0.0152, 16.5, 16.45)" gradientUnits="userSpaceOnUse" id="gradient1" spreadMethod="pad" x1="-819.2" x2="819.2">
      <stop offset="0.0" stop-color="#eed600"/>
      <stop offset="0.19607843137254902" stop-color="#fef292"/>
      <stop offset="0.36470588235294116" stop-color="#ecd502"/>
      <stop offset="0.6352941176470588" stop-color="#9a8b00"/>
      <stop offset="0.8627450980392157" stop-color="#fff9c4"/>
      <stop offset="1.0" stop-color="#c4c400"/>
    </linearGradient>
    <g id="shape3" transform="matrix(1.0, 0.0, 0.0, 1.0, -0.6, -0.3)">
      <path d="M29.4 0.4 Q29.85 0.1 29.85 0.7 L29.7 1.1 29.6 1.25 29.05 2.1 28.6 1.8 28.6 1.45 28.85 0.8 Q28.9 0.35 29.3 0.35 L29.4 0.4 M1.25 2.6 Q0.8 2.6 0.7 2.2 L0.7 1.7 Q0.7 1.15 1.45 0.65 2.2 0.2 2.2 0.95 L1.25 2.6 M1.55 29.85 L0.6 29.85 1.55 29.85 1.0 30.25 Q0.6 30.25 0.6 29.85 L0.6 29.8 Q0.6 29.5 0.9 29.25 1.3 28.9 1.8 29.1 L1.85 29.35 1.55 29.85 M29.85 29.85 L29.8 29.95 29.4 30.25 Q29.0 30.25 28.95 29.85 L28.95 29.8 Q28.95 29.4 29.45 29.0 29.95 28.55 29.95 29.35 L29.85 29.85 28.95 29.85 29.85 29.85" fill="#ff6666" fill-rule="evenodd" stroke="none"/>
      <path d="M32.7 3.95 L32.7 4.35 31.45 4.6 Q30.2 4.6 30.2 4.2 30.2 3.9 30.7 3.65 L31.35 2.95 Q31.15 2.6 31.45 2.15 31.8 1.75 32.3 1.95 L32.7 3.95 M3.9 2.1 Q4.2 1.65 4.2 2.5 4.2 4.6 2.45 4.6 L2.05 4.55 Q1.95 4.05 2.1 3.9 L1.7 3.5 Q1.7 3.05 3.35 3.05 L3.9 2.1 M4.3 30.1 L4.35 32.05 Q4.25 32.6 3.75 32.6 L1.6 32.45 Q1.45 32.4 1.45 32.15 2.65 30.7 3.6 30.85 L3.6 30.35 Q3.7 30.0 4.3 30.1 M32.2 29.85 L32.25 29.95 32.45 31.75 32.25 32.5 31.25 32.5 30.25 32.5 29.85 32.05 30.05 31.8 31.3 31.25 31.2 30.65 Q31.2 30.25 31.5 29.85 L31.55 29.8 32.2 29.85 31.5 29.85 32.2 29.85" fill="#660000" fill-rule="evenodd" stroke="none"/>
    </g>
    <g id="shape4" transform="matrix(1.0, 0.0, 0.0, 1.0, -8.2, -3.95)">
      <path d="M14.25 29.85 L11.35 29.85 11.3 29.5 Q11.3 29.0 11.85 27.7 L12.15 27.3 12.5 27.25 12.6 27.15 12.7 27.15 12.8 26.95 12.7 26.7 12.7 26.6 14.5 27.35 14.45 27.6 14.45 28.6 14.25 29.55 14.25 29.85 M11.1 29.85 L9.35 29.85 9.3 28.95 Q9.3 28.45 10.0 27.25 L10.15 27.1 10.3 26.7 10.55 26.5 10.55 26.75 10.7 26.85 10.7 26.95 11.1 27.15 11.85 27.3 11.8 27.45 Q11.2 28.45 11.1 29.1 L11.1 29.15 11.0 29.6 11.1 29.85 M15.15 7.4 L15.15 7.55 15.2 7.55 15.2 7.6 15.35 7.7 15.5 7.8 15.55 7.8 15.7 7.9 Q16.25 8.35 16.25 9.1 L15.95 9.25 15.8 9.25 15.75 9.25 15.7 9.3 15.7 9.4 15.15 9.3 14.45 9.3 14.25 9.3 13.1 9.05 12.5 8.7 12.25 8.35 12.05 7.7 11.8 7.15 11.8 7.05 11.75 7.05 11.75 7.0 12.25 7.0 13.5 7.2 13.5 7.35 13.7 7.55 13.75 7.35 13.9 7.15 14.45 7.6 14.85 7.95 15.0 7.75 15.05 7.5 15.2 7.2 15.2 7.35 15.15 7.4 M10.85 10.95 L10.5 11.15 10.5 11.0 10.5 10.9 11.3 10.95 10.85 10.95 M10.45 11.5 L11.8 11.35 Q12.25 11.45 12.35 11.95 L12.4 12.65 12.05 13.45 11.85 14.0 12.0 14.65 12.05 15.3 11.85 16.25 11.85 16.35 11.45 17.45 11.1 18.05 11.1 18.1 11.0 17.95 10.9 18.15 11.0 18.25 11.0 18.3 11.05 18.5 11.25 19.0 11.3 19.15 11.45 19.4 11.95 20.55 11.85 21.8 11.85 22.95 11.85 23.2 11.95 24.05 12.0 24.4 12.05 24.6 12.15 24.8 12.05 24.8 12.4 25.05 12.95 25.55 12.95 25.6 12.9 25.6 12.7 25.6 12.55 25.75 12.4 25.95 12.4 26.2 12.4 26.35 12.4 26.7 12.5 26.9 12.4 26.95 12.35 26.95 12.05 26.95 11.8 26.9 Q10.9 26.9 10.85 26.6 L10.85 26.2 10.85 25.95 10.85 25.8 11.2 25.25 11.25 25.2 11.25 25.0 11.4 24.85 11.4 24.8 11.4 24.65 10.45 22.6 10.35 22.4 9.6 20.7 9.6 19.8 9.7 19.6 9.7 19.45 9.75 19.4 9.6 19.25 9.55 19.0 9.55 18.8 9.6 18.65 9.55 18.6 9.55 18.5 9.4 18.4 9.6 18.25 9.6 18.15 9.6 17.5 9.7 16.45 9.9 15.65 9.95 15.4 10.15 15.2 10.1 14.85 10.1 14.7 9.95 14.45 9.9 14.15 10.1 13.9 10.1 13.75 10.15 13.8 10.1 13.7 10.15 13.45 10.15 13.35 10.1 13.25 10.1 12.8 10.1 11.95 10.3 11.65 10.35 11.5 10.45 11.5 M12.9 12.3 L12.9 12.45 12.95 15.6 12.55 16.0 12.05 16.2 12.25 15.4 12.25 14.55 12.2 14.5 12.25 14.15 12.2 13.75 12.35 13.55 12.6 12.7 12.55 11.65 12.7 11.85 12.9 12.3 M10.0 22.75 L10.1 22.65 10.15 22.65 10.25 22.8 10.55 23.4 10.7 23.85 11.2 24.85 10.1 24.45 10.0 23.55 10.0 22.8 10.0 22.75 M11.1 14.55 L11.05 14.55 10.7 15.8 10.7 15.95 10.35 17.0 10.35 17.7 10.45 17.5 10.55 16.95 10.65 16.15 10.7 16.0 10.75 15.85 11.1 14.65 11.1 14.55 M12.2 23.95 L12.15 23.35 13.15 23.55 13.3 23.4 13.3 23.3 Q13.45 23.3 14.1 23.65 L14.0 23.95 14.0 25.0 14.0 25.05 14.2 25.05 14.4 25.25 14.75 25.8 14.75 26.0 14.5 26.0 13.35 25.8 13.3 25.8 13.35 25.75 13.35 25.65 13.25 25.45 12.7 24.9 12.4 24.7 12.2 23.95 M10.15 26.15 L10.45 26.15 10.3 26.2 10.3 26.3 10.25 26.4 10.15 26.55 10.15 26.5 10.15 26.15" fill="#ffead5" fill-rule="evenodd" stroke="none"/>
      <path d="M9.35 29.85 L9.1 29.85 9.05 29.5 9.05 29.35 8.95 29.1 9.05 28.6 9.05 28.55 9.95 26.9 10.0 26.9 9.95 26.85 9.95 26.75 9.95 26.6 9.95 26.55 9.9 26.1 9.15 25.95 9.0 25.95 8.8 25.85 8.75 25.85 Q8.1 25.6 8.25 25.2 8.3 25.05 8.4 25.15 L8.4 25.05 8.3 24.9 8.75 24.3 8.85 24.4 9.7 24.25 9.75 24.3 9.75 23.9 9.75 22.65 9.7 22.65 9.5 22.55 9.4 22.45 9.3 22.55 9.2 22.6 8.95 22.25 8.8 22.25 8.75 22.15 8.75 21.9 8.8 19.65 8.8 19.6 8.95 18.05 8.85 18.1 8.8 18.1 8.95 17.85 8.95 17.65 8.95 17.1 8.85 16.45 8.8 15.8 8.95 14.65 9.0 13.6 9.05 13.05 9.15 12.5 9.2 12.25 9.15 12.3 8.65 13.05 8.3 13.4 8.25 13.35 8.25 13.25 8.65 11.65 9.15 10.2 9.05 10.25 9.0 10.25 Q8.95 10.25 8.85 10.35 L8.55 10.4 8.45 10.4 8.45 10.35 8.85 9.45 Q9.3 8.55 9.5 8.35 L9.4 8.35 8.85 8.3 8.8 8.25 8.8 8.1 8.95 7.8 9.0 7.55 9.0 7.35 8.95 7.2 8.95 7.05 9.2 7.05 9.4 6.6 9.2 6.4 8.95 6.1 9.15 6.0 9.35 5.7 9.35 5.3 Q9.4 4.95 9.75 5.3 L9.9 5.5 10.15 5.15 11.0 4.4 14.25 4.5 Q14.6 4.6 14.95 5.0 L15.4 5.65 15.8 6.3 16.1 6.75 16.0 6.85 15.95 6.95 15.8 6.85 15.5 6.75 15.55 6.85 15.6 6.95 15.6 7.0 15.6 7.15 15.6 7.2 15.5 7.25 15.5 7.4 15.5 7.55 15.75 7.7 16.15 7.95 16.25 8.15 16.35 8.7 16.5 9.2 16.45 9.4 16.0 9.45 16.15 10.15 16.25 11.2 16.25 11.35 16.15 11.45 15.95 11.35 15.9 11.3 15.9 11.75 15.7 12.2 16.15 12.85 16.45 13.7 16.35 13.8 16.25 13.8 16.15 13.75 16.15 14.0 15.95 14.2 15.8 15.05 15.75 15.25 15.6 15.8 15.7 16.35 15.7 16.95 15.7 17.3 15.7 17.55 15.75 19.35 15.8 20.9 15.75 21.5 15.7 22.2 15.7 22.4 15.7 22.95 15.75 22.95 15.75 23.0 15.7 23.0 15.7 23.4 15.7 23.5 15.7 23.9 15.7 23.95 15.75 24.05 15.7 24.15 15.6 24.15 14.5 23.75 14.45 23.75 14.4 24.5 14.25 24.85 14.45 25.05 15.0 25.75 15.05 26.1 16.0 26.0 16.35 26.15 Q16.45 26.0 16.7 25.95 L17.3 25.95 18.25 26.2 18.45 26.3 19.1 26.2 19.75 26.15 20.3 26.15 20.95 26.55 21.6 26.4 22.35 26.55 22.45 26.55 22.7 26.85 23.05 27.1 23.7 27.1 24.35 27.35 24.7 27.65 Q26.45 28.6 26.45 29.85 L26.15 29.85 25.95 29.4 25.55 28.45 24.0 27.6 23.8 27.45 23.65 27.3 22.95 27.3 Q22.5 27.15 22.3 26.85 L20.85 26.85 20.25 26.4 19.3 26.4 18.35 26.5 18.05 26.4 17.65 26.5 17.25 26.15 16.75 26.2 16.35 26.15 16.3 26.3 15.05 26.2 14.75 26.15 14.65 26.15 13.3 26.1 12.75 25.85 12.7 26.35 13.75 26.85 14.6 27.15 Q14.75 27.15 14.95 27.3 L15.6 27.6 15.9 27.5 16.3 27.85 16.65 27.85 17.25 27.9 17.95 28.35 18.8 29.15 18.9 29.1 19.85 29.4 Q20.35 29.55 20.65 29.85 L19.75 29.85 19.2 29.6 18.8 29.5 18.75 29.4 17.95 28.8 17.2 28.2 16.65 28.1 16.25 28.2 16.15 28.1 15.95 28.05 15.9 28.0 15.95 28.0 15.9 27.9 15.7 27.8 15.6 27.85 14.85 27.5 14.75 28.55 14.5 29.85 14.25 29.85 14.25 29.55 14.45 28.6 14.45 27.6 14.5 27.35 12.7 26.6 12.7 26.7 12.8 26.95 12.7 27.15 12.6 27.15 12.5 27.25 12.15 27.3 11.85 27.7 Q11.3 29.0 11.3 29.5 L11.35 29.85 11.1 29.85 11.0 29.6 11.1 29.15 11.1 29.1 Q11.2 28.45 11.8 27.45 L11.85 27.3 11.1 27.15 10.7 26.95 10.7 26.85 10.55 26.75 10.55 26.5 10.3 26.7 10.15 27.1 10.0 27.25 Q9.3 28.45 9.3 28.95 L9.35 29.85 M10.9 4.7 L10.65 5.0 10.3 5.45 10.25 5.55 9.95 5.9 9.9 5.9 9.7 5.75 9.55 5.65 9.6 5.9 9.6 6.05 9.4 6.2 9.55 6.3 9.6 6.4 9.7 6.5 9.55 6.95 9.3 7.35 9.3 7.55 9.2 7.8 9.05 8.0 9.7 8.25 9.8 8.3 9.5 8.9 8.85 9.95 8.85 10.0 9.05 9.85 9.4 9.85 Q9.55 9.85 9.55 9.95 L9.55 10.05 9.2 11.0 8.95 11.65 8.75 12.45 9.05 11.95 9.2 11.85 9.2 11.65 9.35 11.5 9.7 10.95 9.6 10.9 9.7 10.9 9.75 10.75 9.8 10.75 9.8 10.8 10.45 10.8 10.7 10.8 11.65 10.9 12.15 11.15 12.35 11.35 12.4 11.35 Q12.9 11.65 13.15 12.4 L13.5 13.0 13.75 13.9 13.9 13.55 13.9 13.35 13.85 13.0 13.9 13.0 13.9 12.95 14.0 13.0 14.45 14.3 14.6 13.8 15.15 15.3 15.4 16.25 15.4 15.8 15.4 15.5 15.5 15.1 15.55 14.75 15.6 14.5 15.55 14.35 15.5 14.15 15.5 14.1 Q15.55 14.0 15.7 14.0 L15.6 13.8 15.75 13.75 15.8 13.75 15.9 13.8 15.8 13.55 15.75 13.35 Q15.75 13.2 15.9 13.2 L15.95 13.25 15.6 12.5 15.5 12.3 15.0 11.7 15.0 11.65 Q15.0 11.55 15.15 11.55 L15.2 11.65 15.25 11.55 15.35 11.55 15.4 11.65 15.4 11.7 15.55 11.7 15.6 11.75 15.6 11.15 15.6 11.0 15.75 10.9 15.9 10.95 15.95 11.0 15.95 10.8 15.95 10.55 15.9 10.35 15.75 9.75 15.75 9.65 15.25 9.65 14.05 9.45 12.7 9.2 12.2 8.9 12.15 8.75 12.05 8.65 12.05 8.45 11.8 7.7 11.65 7.35 11.45 7.2 11.25 7.15 11.1 7.15 11.05 7.15 11.05 7.05 11.2 7.0 Q11.2 6.65 12.05 6.75 L12.8 6.75 13.3 6.85 13.45 6.95 13.65 6.95 13.75 6.95 13.85 6.85 14.1 6.95 14.4 7.2 14.6 7.4 14.8 7.55 14.95 7.15 15.0 6.85 15.0 6.65 15.15 6.65 15.4 6.4 15.5 6.45 15.6 6.45 14.95 5.35 14.8 5.25 14.45 4.9 13.75 4.55 13.1 4.35 11.5 4.5 11.4 4.6 11.25 4.55 10.9 4.7 M15.15 7.4 L15.2 7.35 15.2 7.2 15.05 7.5 15.0 7.75 14.85 7.95 14.45 7.6 13.9 7.15 13.75 7.35 13.7 7.55 13.5 7.35 13.5 7.2 12.25 7.0 11.75 7.0 11.75 7.05 11.8 7.05 11.8 7.15 12.05 7.7 12.25 8.35 12.5 8.7 13.1 9.05 14.25 9.3 14.45 9.3 15.15 9.3 15.7 9.4 15.7 9.3 15.75 9.25 15.8 9.25 15.95 9.25 16.25 9.1 Q16.25 8.35 15.7 7.9 L15.55 7.8 15.5 7.8 15.35 7.7 15.2 7.6 15.2 7.55 15.15 7.55 15.15 7.4 M10.45 11.5 L10.35 11.5 10.3 11.65 10.1 11.95 10.1 12.8 10.1 13.25 10.15 13.35 10.15 13.45 10.1 13.7 10.15 13.8 10.1 13.75 10.1 13.9 9.9 14.15 9.95 14.45 10.1 14.7 10.1 14.85 10.15 15.2 9.95 15.4 9.9 15.65 9.7 16.45 9.6 17.5 9.6 18.15 9.6 18.25 9.4 18.4 9.55 18.5 9.55 18.6 9.6 18.65 9.55 18.8 9.55 19.0 9.6 19.25 9.75 19.4 9.7 19.45 9.7 19.6 9.6 19.8 9.6 20.7 10.35 22.4 10.45 22.6 11.4 24.65 11.4 24.8 11.4 24.85 11.25 25.0 11.25 25.2 11.2 25.25 10.85 25.8 10.85 25.95 10.85 26.2 10.85 26.6 Q10.9 26.9 11.8 26.9 L12.05 26.95 12.35 26.95 12.4 26.95 12.5 26.9 12.4 26.7 12.4 26.35 12.4 26.2 12.4 25.95 12.55 25.75 12.7 25.6 12.9 25.6 12.95 25.6 12.95 25.55 12.4 25.05 12.05 24.8 12.15 24.8 12.05 24.6 12.0 24.4 11.95 24.05 11.85 23.2 11.85 22.95 11.85 21.8 11.95 20.55 11.45 19.4 11.3 19.15 11.25 19.0 11.05 18.5 11.0 18.3 11.0 18.25 10.9 18.15 11.0 17.95 11.1 18.1 11.1 18.05 11.45 17.45 11.85 16.35 11.85 16.25 12.05 15.3 12.0 14.65 11.85 14.0 12.05 13.45 12.4 12.65 12.35 11.95 Q12.25 11.45 11.8 11.35 L10.45 11.5 M10.85 10.95 L11.3 10.95 10.5 10.9 10.5 11.0 10.5 11.15 10.85 10.95 M10.3 11.35 L10.45 10.9 9.8 10.9 9.5 11.5 9.55 11.65 9.5 11.7 9.55 11.7 9.55 11.85 9.3 13.25 9.05 15.8 9.05 16.45 9.2 17.1 9.15 17.95 9.05 19.0 9.05 20.7 8.95 21.9 9.05 22.0 9.3 22.05 9.5 22.2 9.55 22.25 9.7 22.25 9.75 22.25 9.95 22.35 10.0 22.4 9.75 21.7 9.5 20.9 9.35 20.7 9.35 20.55 9.3 19.95 9.35 19.6 9.4 19.4 9.3 19.35 9.2 19.25 9.2 19.0 9.3 18.9 9.4 18.65 9.2 18.45 9.2 18.3 9.35 18.15 9.3 17.9 9.35 17.1 9.35 17.0 9.4 16.4 9.5 16.05 9.6 15.6 9.75 15.3 9.7 14.65 9.55 14.2 Q9.55 14.0 9.7 13.75 L9.8 13.4 9.9 13.35 9.75 13.2 9.8 12.5 Q9.9 11.75 10.1 11.55 10.1 11.5 10.25 11.45 L10.3 11.35 M12.9 12.3 L12.7 11.85 12.55 11.65 12.6 12.7 12.35 13.55 12.2 13.75 12.25 14.15 12.2 14.5 12.25 14.55 12.25 15.4 12.05 16.2 12.55 16.0 12.95 15.6 12.9 12.45 12.9 12.3 M10.0 22.75 L10.0 22.8 10.0 23.55 10.1 24.45 11.2 24.85 10.7 23.85 10.55 23.4 10.25 22.8 10.15 22.65 10.1 22.65 10.0 22.75 M9.0 24.7 L8.85 24.7 8.65 25.05 8.8 25.05 Q8.55 25.4 8.75 25.55 L9.05 25.8 9.9 25.85 10.15 25.85 10.35 25.85 10.55 25.95 10.65 25.95 Q10.7 25.45 10.9 25.15 L11.0 25.05 9.6 24.45 9.0 24.7 M15.4 17.75 L15.4 17.55 15.35 17.55 15.35 17.5 15.35 16.7 15.15 15.85 14.75 14.65 14.8 14.55 14.75 14.35 14.65 14.15 14.6 14.2 14.6 14.35 14.45 14.5 14.4 14.5 14.2 13.9 14.0 13.4 14.0 13.75 13.75 14.15 13.5 13.2 13.25 12.8 13.15 12.65 13.15 12.95 13.15 13.0 12.95 12.6 13.0 13.95 13.0 15.4 12.8 15.95 12.05 16.35 11.85 17.0 11.75 17.35 11.5 17.95 11.3 18.3 11.5 18.7 11.45 19.0 11.5 19.05 12.05 20.2 12.15 20.55 12.15 20.75 12.05 21.45 12.05 22.6 12.05 22.95 13.0 23.2 13.0 23.0 13.15 22.95 14.1 23.3 14.45 23.4 14.65 23.5 15.4 23.85 15.5 22.9 14.75 22.25 14.4 21.9 14.1 21.3 14.1 21.25 14.2 21.15 14.2 21.05 14.1 20.9 14.2 20.85 14.4 20.85 14.5 20.75 15.0 20.65 14.65 20.4 14.45 20.2 Q14.45 19.95 14.75 19.65 L15.5 19.55 15.5 19.0 15.5 18.15 15.4 17.75 M11.1 14.55 L11.1 14.65 10.75 15.85 10.7 16.0 10.65 16.15 10.55 16.95 10.45 17.5 10.35 17.7 10.35 17.0 10.7 15.95 10.7 15.8 11.05 14.55 11.1 14.55 M11.25 18.45 L11.25 18.5 11.4 18.9 11.45 18.7 11.3 18.4 11.25 18.45 M14.85 15.95 L15.0 16.15 15.15 16.45 15.15 16.6 15.05 17.1 14.65 17.55 Q14.2 17.55 14.0 17.2 L13.9 16.8 13.9 16.7 13.85 16.6 13.75 16.45 Q13.75 16.35 14.1 16.0 L14.45 15.8 14.45 15.7 14.85 15.95 M14.25 16.05 L14.25 16.0 14.2 16.05 14.1 16.15 14.05 16.25 13.9 16.55 14.0 16.55 14.05 16.4 14.0 16.6 14.05 16.6 14.1 16.7 14.1 16.75 14.05 16.75 14.0 16.7 14.0 16.8 Q14.0 17.35 14.65 17.35 L14.95 17.1 15.0 16.7 14.95 16.15 Q14.75 15.85 14.4 16.0 L14.25 16.05 M15.0 19.65 L14.85 19.65 Q14.75 19.65 14.6 20.2 L14.85 20.4 15.15 20.7 14.95 20.75 14.75 20.85 14.5 20.85 14.4 20.9 14.25 20.95 14.25 21.15 14.25 21.25 14.4 21.6 15.0 22.25 15.5 22.65 15.5 22.25 15.55 20.9 15.5 20.1 15.5 19.75 15.0 19.65 M12.2 23.95 L12.4 24.7 12.7 24.9 13.25 25.45 13.35 25.65 13.35 25.75 13.3 25.8 13.35 25.8 14.5 26.0 14.75 26.0 14.75 25.8 14.4 25.25 14.2 25.05 14.0 25.05 14.0 25.0 14.0 23.95 14.1 23.65 Q13.45 23.3 13.3 23.3 L13.3 23.4 13.15 23.55 12.15 23.35 12.2 23.95 M19.15 28.45 L18.7 28.2 18.75 28.05 19.1 28.1 19.3 28.4 19.3 28.45 19.15 28.45 M10.15 26.15 L10.15 26.5 10.15 26.55 10.25 26.4 10.3 26.3 10.3 26.2 10.45 26.15 10.15 26.15 M21.9 27.45 L22.35 27.8 22.95 27.8 23.45 27.9 23.4 28.1 22.35 28.0 21.95 27.9 21.6 27.5 21.9 27.45" fill="#000000" fill-rule="evenodd" stroke="none"/>
      <path d="M10.9 4.7 L11.25 4.55 11.4 4.6 11.5 4.5 13.1 4.35 13.75 4.55 14.45 4.9 14.8 5.25 14.95 5.35 15.6 6.45 15.5 6.45 15.4 6.4 15.15 6.65 15.0 6.65 15.0 6.85 14.95 7.15 14.8 7.55 14.6 7.4 14.4 7.2 14.1 6.95 13.85 6.85 13.75 6.95 13.65 6.95 13.45 6.95 13.3 6.85 12.8 6.75 12.05 6.75 Q11.2 6.65 11.2 7.0 L11.05 7.05 11.05 7.15 11.1 7.15 11.25 7.15 11.45 7.2 11.65 7.35 11.8 7.7 12.05 8.45 12.05 8.65 12.15 8.75 12.2 8.9 12.7 9.2 14.05 9.45 15.25 9.65 15.75 9.65 15.75 9.75 15.9 10.35 15.95 10.55 15.95 10.8 15.95 11.0 15.9 10.95 15.75 10.9 15.6 11.0 15.6 11.15 15.6 11.75 15.55 11.7 15.4 11.7 15.4 11.65 15.35 11.55 15.25 11.55 15.2 11.65 15.15 11.55 Q15.0 11.55 15.0 11.65 L15.0 11.7 15.5 12.3 15.6 12.5 15.95 13.25 15.9 13.2 Q15.75 13.2 15.75 13.35 L15.8 13.55 15.9 13.8 15.8 13.75 15.75 13.75 15.6 13.8 15.7 14.0 Q15.55 14.0 15.5 14.1 L15.5 14.15 15.55 14.35 15.6 14.5 15.55 14.75 15.5 15.1 15.4 15.5 15.4 15.8 15.4 16.25 15.15 15.3 14.6 13.8 14.45 14.3 14.0 13.0 13.9 12.95 13.9 13.0 13.85 13.0 13.9 13.35 13.9 13.55 13.75 13.9 13.5 13.0 13.15 12.4 Q12.9 11.65 12.4 11.35 L12.35 11.35 12.15 11.15 11.65 10.9 10.7 10.8 10.45 10.8 9.8 10.8 9.8 10.75 9.75 10.75 9.7 10.9 9.6 10.9 9.7 10.95 9.35 11.5 9.2 11.65 9.2 11.85 9.05 11.95 8.75 12.45 8.95 11.65 9.2 11.0 9.55 10.05 9.55 9.95 Q9.55 9.85 9.4 9.85 L9.05 9.85 8.85 10.0 8.85 9.95 9.5 8.9 9.8 8.3 9.7 8.25 9.05 8.0 9.2 7.8 9.3 7.55 9.3 7.35 9.55 6.95 9.7 6.5 9.6 6.4 9.55 6.3 9.4 6.2 9.6 6.05 9.6 5.9 9.55 5.65 9.7 5.75 9.9 5.9 9.95 5.9 10.25 5.55 10.3 5.45 10.65 5.0 10.9 4.7" fill="#605142" fill-rule="evenodd" stroke="none"/>
      <path d="M10.3 11.35 L10.25 11.45 Q10.1 11.5 10.1 11.55 9.9 11.75 9.8 12.5 L9.75 13.2 9.9 13.35 9.8 13.4 9.7 13.75 Q9.55 14.0 9.55 14.2 L9.7 14.65 9.75 15.3 9.6 15.6 9.5 16.05 9.4 16.4 9.35 17.0 9.35 17.1 9.3 17.9 9.35 18.15 9.2 18.3 9.2 18.45 9.4 18.65 9.3 18.9 9.2 19.0 9.2 19.25 9.3 19.35 9.4 19.4 9.35 19.6 9.3 19.95 9.35 20.55 9.35 20.7 9.5 20.9 9.75 21.7 10.0 22.4 9.95 22.35 9.75 22.25 9.7 22.25 9.55 22.25 9.5 22.2 9.3 22.05 9.05 22.0 8.95 21.9 9.05 20.7 9.05 19.0 9.15 17.95 9.2 17.1 9.05 16.45 9.05 15.8 9.3 13.25 9.55 11.85 9.55 11.7 9.5 11.7 9.55 11.65 9.5 11.5 9.8 10.9 10.45 10.9 10.3 11.35 M15.4 17.75 L15.5 18.15 15.5 19.0 15.5 19.55 14.75 19.65 Q14.45 19.95 14.45 20.2 L14.65 20.4 15.0 20.65 14.5 20.75 14.4 20.85 14.2 20.85 14.1 20.9 14.2 21.05 14.2 21.15 14.1 21.25 14.1 21.3 14.4 21.9 14.75 22.25 15.5 22.9 15.4 23.85 14.65 23.5 14.45 23.4 14.1 23.3 13.15 22.95 13.0 23.0 13.0 23.2 12.05 22.95 12.05 22.6 12.05 21.45 12.15 20.75 12.15 20.55 12.05 20.2 11.5 19.05 11.45 19.0 11.5 18.7 11.3 18.3 11.5 17.95 11.75 17.35 11.85 17.0 12.05 16.35 12.8 15.95 13.0 15.4 13.0 13.95 12.95 12.6 13.15 13.0 13.15 12.95 13.15 12.65 13.25 12.8 13.5 13.2 13.75 14.15 14.0 13.75 14.0 13.4 14.2 13.9 14.4 14.5 14.45 14.5 14.6 14.35 14.6 14.2 14.65 14.15 14.75 14.35 14.8 14.55 14.75 14.65 15.15 15.85 15.35 16.7 15.35 17.5 15.35 17.55 15.4 17.55 15.4 17.75 M14.85 15.95 L14.45 15.7 14.45 15.8 14.1 16.0 Q13.75 16.35 13.75 16.45 L13.85 16.6 13.9 16.7 13.9 16.8 14.0 17.2 Q14.2 17.55 14.65 17.55 L15.05 17.1 15.15 16.6 15.15 16.45 15.0 16.15 14.85 15.95" fill="#d9b83e" fill-rule="evenodd" stroke="none"/>
      <path d="M11.25 18.45 L11.3 18.4 11.45 18.7 11.4 18.9 11.25 18.5 11.25 18.45 M14.25 16.05 L14.4 16.0 Q14.75 15.85 14.95 16.15 L15.0 16.7 14.95 17.1 14.65 17.35 Q14.0 17.35 14.0 16.8 L14.0 16.7 14.05 16.75 14.1 16.75 14.1 16.7 14.05 16.6 14.0 16.6 14.05 16.4 14.0 16.55 13.9 16.55 14.05 16.25 14.1 16.15 14.2 16.05 14.25 16.05 M15.0 19.65 L15.5 19.75 15.5 20.1 15.55 20.9 15.5 22.25 15.5 22.65 15.0 22.25 14.4 21.6 14.25 21.25 14.25 21.15 14.25 20.95 14.4 20.9 14.5 20.85 14.75 20.85 14.95 20.75 15.15 20.7 14.85 20.4 14.6 20.2 Q14.75 19.65 14.85 19.65 L15.0 19.65" fill="#735437" fill-rule="evenodd" stroke="none"/>
      <path d="M26.15 29.85 L20.65 29.85 Q20.35 29.55 19.85 29.4 L18.9 29.1 18.8 29.15 17.95 28.35 17.25 27.9 16.65 27.85 16.3 27.85 15.9 27.5 15.6 27.6 14.95 27.3 Q14.75 27.15 14.6 27.15 L13.75 26.85 12.7 26.35 12.75 25.85 13.3 26.1 14.65 26.15 14.75 26.15 15.05 26.2 16.3 26.3 16.35 26.15 16.75 26.2 17.25 26.15 17.65 26.5 18.05 26.4 18.35 26.5 19.3 26.4 20.25 26.4 20.85 26.85 22.3 26.85 Q22.5 27.15 22.95 27.3 L23.65 27.3 23.8 27.45 24.0 27.6 25.55 28.45 25.95 29.4 26.15 29.85 M9.0 24.7 L9.6 24.45 11.0 25.05 10.9 25.15 Q10.7 25.45 10.65 25.95 L10.55 25.95 10.35 25.85 10.15 25.85 9.9 25.85 9.05 25.8 8.75 25.55 Q8.55 25.4 8.8 25.05 L8.65 25.05 8.85 24.7 9.0 24.7 M19.15 28.45 L19.3 28.45 19.3 28.4 19.1 28.1 18.75 28.05 18.7 28.2 19.15 28.45 M21.9 27.45 L21.6 27.5 21.95 27.9 22.35 28.0 23.4 28.1 23.45 27.9 22.95 27.8 22.35 27.8 21.9 27.45" fill="#785829" fill-rule="evenodd" stroke="none"/>
    </g>
    <g id="button2" transform="matrix(1.0, 0.0, 0.0, 1.0, 0.5, 0.5)">
      <use height="34.0" transform="matrix(1.0, 0.0, 0.0, 1.0, -0.5, -0.5)" width="34.0" xlink:href="#shape5"/>
      <use height="32.3" transform="matrix(1.0, 0.0, 0.0, 1.0, 0.6, 0.3)" width="32.1" xlink:href="#shape6"/>
    </g>
    <g id="shape5" transform="matrix(1.0, 0.0, 0.0, 1.0, 0.5, 0.5)">
      <path d="M33.0 0.0 L33.0 33.0 0.0 33.0 0.0 0.0 33.0 0.0 M30.0 3.0 L3.0 3.0 3.0 30.0 30.0 30.0 30.0 3.0" fill="url(#gradient2)" fill-rule="evenodd" stroke="none"/>
      <path d="M30.0 3.0 L30.0 30.0 3.0 30.0 3.0 3.0 30.0 3.0" fill="#7b7b7b" fill-rule="evenodd" stroke="none"/>
      <path d="M33.0 0.0 L33.0 33.0 0.0 33.0 0.0 0.0 33.0 0.0 M30.0 3.0 L30.0 30.0 3.0 30.0 3.0 3.0 30.0 3.0" fill="none" stroke="#000000" stroke-linecap="round" stroke-linejoin="round" stroke-width="1.0"/>
      <path d="M33.0 0.0 L33.0 5.0 28.0 5.0 28.0 0.0 33.0 0.0 M5.0 0.0 L5.0 5.0 0.0 5.0 0.0 0.0 5.0 0.0 M5.0 28.0 L5.0 33.0 0.0 33.0 0.0 28.0 5.0 28.0 M28.0 28.0 L33.0 28.0 33.0 33.0 28.0 33.0 28.0 28.0" fill="#990000" fill-rule="evenodd" stroke="none"/>
      <path d="M33.0 0.0 L33.0 5.0 28.0 5.0 28.0 0.0 33.0 0.0 M5.0 0.0 L5.0 5.0 0.0 5.0 0.0 0.0 5.0 0.0 M5.0 28.0 L5.0 33.0 0.0 33.0 0.0 28.0 5.0 28.0 M28.0 28.0 L33.0 28.0 33.0 33.0 28.0 33.0 28.0 28.0" fill="none" stroke="#000000" stroke-linecap="round" stroke-linejoin="round" stroke-width="1.0"/>
    </g>
    <linearGradient gradientTransform="matrix(0.0152, 0.0234, -0.0234, 0.0152, 16.5, 16.45)" gradientUnits="userSpaceOnUse" id="gradient2" spreadMethod="pad" x1="-819.2" x2="819.2">
      <stop offset="0.0" stop-color="#eed600"/>
      <stop offset="0.19607843137254902" stop-color="#fef292"/>
      <stop offset="0.36470588235294116" stop-color="#ecd502"/>
      <stop offset="0.6352941176470588" stop-color="#9a8b00"/>
      <stop offset="0.8627450980392157" stop-color="#fff9c4"/>
      <stop offset="1.0" stop-color="#c4c400"/>
    </linearGradient>
    <g id="shape6" transform="matrix(1.0, 0.0, 0.0, 1.0, -0.6, -0.3)">
      <path d="M29.4 0.4 Q29.85 0.1 29.85 0.7 L29.7 1.1 29.6 1.25 29.05 2.1 28.6 1.8 28.6 1.45 28.85 0.8 Q28.9 0.35 29.3 0.35 L29.4 0.4 M1.25 2.6 Q0.8 2.6 0.7 2.2 L0.7 1.7 Q0.7 1.15 1.45 0.65 2.2 0.2 2.2 0.95 L1.25 2.6 M1.85 29.35 L1.55 29.85 1.0 30.25 Q0.6 30.25 0.6 29.8 0.6 29.5 0.9 29.25 1.3 28.9 1.8 29.1 L1.85 29.35 M29.95 29.35 L29.8 29.95 29.4 30.25 Q28.95 30.25 28.95 29.8 28.95 29.4 29.45 29.0 29.95 28.55 29.95 29.35" fill="#ff6666" fill-rule="evenodd" stroke="none"/>
      <path d="M32.7 3.95 L32.7 4.35 31.45 4.6 Q30.2 4.6 30.2 4.2 30.2 3.9 30.7 3.65 L31.35 2.95 Q31.15 2.6 31.45 2.15 31.8 1.75 32.3 1.95 L32.7 3.95 M3.9 2.1 Q4.2 1.65 4.2 2.5 4.2 4.6 2.45 4.6 L2.05 4.55 Q1.95 4.05 2.1 3.9 L1.7 3.5 Q1.7 3.05 3.35 3.05 L3.9 2.1 M3.6 30.35 Q3.7 30.0 4.3 30.1 L4.35 32.05 Q4.25 32.6 3.75 32.6 L1.6 32.45 Q1.45 32.4 1.45 32.15 2.65 30.7 3.6 30.85 L3.6 30.35 M32.25 32.5 L31.25 32.5 30.25 32.5 29.85 32.05 30.05 31.8 31.3 31.25 31.2 30.65 Q31.2 30.25 31.55 29.8 31.95 29.25 32.25 29.95 L32.45 31.75 32.25 32.5" fill="#660000" fill-rule="evenodd" stroke="none"/>
      <path d="M12.2 29.85 L11.7 29.85 11.6 29.25 11.3 29.0 11.2 29.0 11.05 28.8 11.05 28.5 11.15 27.05 10.6 25.85 Q10.6 24.75 11.3 23.7 L11.3 23.35 11.2 23.25 11.3 22.9 11.3 22.7 11.3 22.6 11.3 21.85 11.3 21.05 11.2 20.2 11.3 18.55 11.4 17.25 11.6 16.4 11.7 15.7 11.8 15.3 11.85 15.1 Q11.7 15.2 11.7 15.4 L10.95 16.4 10.6 16.95 10.4 16.9 10.4 16.7 11.05 14.5 11.7 12.55 11.6 12.55 11.4 12.55 11.3 12.7 10.85 12.8 10.65 12.8 10.65 12.7 11.3 11.5 Q11.85 10.3 12.15 10.05 L11.95 10.05 11.7 10.05 Q11.2 10.3 11.2 10.7 L10.4 11.8 10.3 12.0 9.4 11.5 Q9.1 11.5 9.1 11.35 9.1 10.95 10.0 10.05 L11.15 8.85 10.1 8.3 Q9.45 8.1 9.45 7.75 9.45 6.6 11.6 7.75 L11.95 7.45 11.7 7.25 11.4 6.9 Q11.4 6.8 11.7 6.8 L11.95 6.45 11.95 5.9 Q12.05 5.35 12.5 5.9 L12.7 6.15 13.0 5.6 14.2 4.6 18.7 4.7 19.55 5.4 Q19.65 5.15 20.35 5.8 20.65 5.8 20.75 6.8 L20.65 7.0 20.75 7.2 21.1 7.8 21.0 7.9 20.95 8.1 20.75 7.9 20.35 7.8 20.35 7.9 20.45 8.1 20.45 8.3 20.45 8.45 20.35 8.55 20.35 8.75 20.3 8.85 20.75 9.1 21.2 9.5 21.3 9.75 21.5 10.5 21.65 11.15 21.55 11.45 21.0 11.5 21.3 12.45 21.4 13.9 21.4 14.1 21.2 14.2 21.0 14.1 20.85 14.0 20.85 14.65 20.65 15.2 21.2 16.15 21.65 17.25 21.5 17.55 21.3 17.45 21.2 17.35 21.3 17.7 21.0 18.0 20.75 19.1 20.75 19.35 20.45 20.2 20.55 20.85 20.65 21.5 20.75 21.6 20.65 22.05 20.65 22.25 20.55 22.5 20.55 22.6 20.55 22.8 20.95 24.1 21.1 24.75 20.75 25.45 20.75 27.15 20.75 27.95 20.65 28.8 20.65 29.1 20.65 29.85 20.3 29.85 20.3 29.8 19.35 29.0 18.7 28.35 18.5 27.95 17.8 28.45 17.9 29.65 17.9 29.85 17.5 29.85 17.5 28.6 17.4 28.6 17.3 28.35 17.4 28.25 17.15 27.4 16.95 26.75 16.7 26.75 16.7 26.65 16.05 26.65 15.75 26.75 15.75 27.05 15.65 27.95 15.55 29.55 15.65 29.85 15.3 29.85 15.3 28.45 15.4 26.75 15.3 26.3 14.75 25.2 14.55 24.85 14.45 24.65 14.2 24.1 14.1 23.7 14.1 23.65 14.2 23.25 14.25 23.35 14.35 23.25 14.35 23.15 14.75 22.4 15.3 20.95 15.4 20.75 15.55 19.65 15.45 18.75 15.3 17.9 15.55 16.95 16.05 15.95 16.05 15.05 Q15.85 14.2 15.2 14.1 14.0 13.9 13.45 14.5 L13.35 14.5 13.25 14.55 12.9 15.1 12.9 16.15 12.9 16.7 13.0 16.8 13.05 17.05 12.9 17.35 13.0 17.55 12.9 17.45 12.9 17.55 12.6 18.0 12.8 18.45 12.9 18.8 12.9 18.9 13.0 19.45 12.8 19.75 12.6 20.0 12.35 21.05 12.25 22.5 12.25 23.55 12.25 23.65 11.95 23.8 12.15 24.0 12.35 24.2 12.25 24.35 12.15 24.65 12.35 24.9 12.45 25.2 12.45 25.3 12.45 25.4 12.35 25.55 12.35 25.75 12.35 26.5 12.35 26.95 Q12.35 27.3 13.45 29.65 L13.55 29.85 13.25 29.85 13.15 29.7 12.45 28.35 12.15 27.5 12.05 27.6 12.05 27.7 11.95 27.95 11.85 28.35 11.95 28.7 12.05 29.25 12.2 29.85 M20.35 6.55 L20.2 6.25 19.8 6.0 19.55 5.9 19.35 5.9 16.75 6.25 14.9 6.8 12.45 7.75 12.25 7.75 12.25 7.8 12.05 8.45 11.85 9.1 11.95 9.1 Q13.15 8.55 14.45 8.2 14.55 7.75 15.45 7.8 L20.1 6.8 20.35 6.7 20.35 6.55 M20.3 7.2 L20.2 7.2 16.7 7.8 17.3 8.0 17.5 8.1 17.8 8.1 17.95 8.1 18.05 7.9 18.45 8.1 18.8 8.45 19.1 8.75 19.35 8.95 19.55 8.4 19.75 8.0 19.75 7.9 19.65 7.8 19.75 7.75 19.75 7.65 19.8 7.75 20.2 7.35 20.35 7.45 20.45 7.45 20.35 7.25 20.3 7.2 M20.65 11.8 L20.0 11.8 18.35 11.5 16.5 11.15 Q16.1 11.05 15.85 10.8 L15.75 10.6 15.65 10.4 15.65 10.15 15.3 9.1 15.1 8.55 14.85 8.45 12.05 9.5 11.95 9.75 12.35 9.85 12.6 9.95 12.05 10.8 11.3 12.15 11.3 12.25 Q11.3 12.15 11.6 12.05 L11.95 12.05 12.25 12.15 12.25 12.35 11.7 13.65 11.3 14.5 11.05 15.6 11.6 14.95 11.7 14.75 11.8 14.65 11.8 14.5 11.95 14.3 12.35 13.55 12.35 13.45 12.45 13.45 12.5 13.3 12.6 13.3 12.6 13.35 13.35 13.35 13.45 13.3 13.45 13.35 13.8 13.35 15.1 13.45 16.1 14.1 Q16.75 14.5 17.15 15.6 L17.6 16.3 18.05 17.55 18.15 17.05 18.15 16.9 18.05 16.3 18.15 16.3 18.15 16.25 18.25 16.3 18.9 18.1 19.1 17.55 19.8 19.55 20.2 20.85 20.2 20.2 20.2 19.75 20.3 19.3 20.35 18.75 20.45 18.35 20.35 18.15 20.35 18.0 20.35 17.8 20.55 17.7 20.45 17.55 20.65 17.35 20.75 17.35 20.85 17.45 20.75 17.05 20.65 16.9 20.85 16.6 21.0 16.7 20.45 15.7 20.3 15.4 19.65 14.55 19.75 14.5 19.8 14.4 20.0 14.5 20.0 14.4 20.1 14.4 20.2 14.5 20.2 14.55 20.35 14.55 20.45 14.65 20.45 13.85 20.45 13.65 20.65 13.45 20.85 13.55 20.95 13.65 21.0 13.35 20.95 13.0 20.85 12.7 20.75 11.9 20.65 11.8 M20.95 11.25 Q21.3 11.15 21.3 11.05 21.3 10.05 20.65 9.4 L20.35 9.2 20.1 9.1 20.0 8.95 19.9 8.95 19.8 8.85 19.8 8.75 19.9 8.55 19.9 8.45 19.75 8.85 19.75 9.2 19.45 9.5 18.9 9.0 18.15 8.4 18.05 8.65 17.9 8.85 17.6 8.65 17.6 8.45 15.95 8.2 15.55 8.2 15.3 8.3 15.3 8.4 15.65 9.1 15.95 10.05 16.2 10.5 Q16.4 10.8 17.05 10.95 L18.7 11.35 18.9 11.35 19.8 11.35 20.55 11.45 20.65 11.35 20.65 11.25 20.75 11.25 20.95 11.25 M20.35 23.15 L20.3 22.8 20.2 23.0 18.25 25.65 17.25 26.65 17.4 27.15 17.7 28.05 18.5 27.3 18.7 27.25 18.8 27.15 19.0 26.85 Q19.15 26.65 19.35 26.6 L19.45 26.5 19.45 26.4 20.1 25.55 20.35 25.3 20.65 24.85 20.75 24.45 20.65 23.8 20.35 23.15 M17.05 4.6 L14.9 4.75 14.65 4.85 14.55 4.85 14.1 4.95 13.65 5.5 13.25 6.05 13.15 6.15 12.8 6.7 12.7 6.7 12.45 6.55 12.25 6.25 12.35 6.7 12.35 6.9 11.95 7.0 11.95 7.1 12.25 7.2 12.35 7.25 Q13.25 6.8 15.2 6.25 L19.0 5.5 18.9 5.35 18.05 4.85 17.05 4.6 M11.15 8.2 L11.4 8.3 11.6 8.45 11.7 8.3 11.6 8.3 10.5 7.75 10.4 7.8 Q10.95 8.2 11.15 8.2 M11.4 9.5 L11.4 9.2 11.3 9.3 10.95 9.6 Q10.0 10.5 9.65 11.25 L10.2 11.35 10.95 10.25 11.2 9.85 11.4 9.6 11.4 9.5 M19.9 8.4 L20.0 8.45 20.0 8.4 19.9 8.4 M9.95 7.65 L10.2 7.75 9.95 7.55 9.95 7.65 M16.5 14.75 L16.2 14.4 Q16.5 14.95 16.3 15.95 L15.95 17.25 15.85 17.45 15.85 18.1 15.75 18.45 15.85 18.65 15.85 19.65 15.55 20.65 16.3 20.4 16.85 19.85 16.85 19.75 16.85 19.55 16.75 15.6 16.75 15.4 16.5 14.75 M17.15 16.25 L17.15 16.3 16.85 15.75 16.95 17.6 16.95 19.55 16.7 20.3 Q16.3 20.75 15.55 20.95 L15.3 21.85 15.1 22.35 14.85 23.25 14.65 23.65 14.9 24.2 14.75 24.55 14.9 24.75 15.65 26.3 16.6 26.2 Q16.6 25.95 16.75 25.95 L16.95 26.05 18.6 24.65 Q19.9 23.25 19.9 22.5 L20.1 21.95 20.1 21.8 20.1 21.3 19.8 20.2 19.25 18.65 19.35 18.55 19.25 18.25 19.15 18.0 19.1 18.0 19.1 18.25 18.9 18.35 18.8 18.35 18.5 17.6 18.25 16.9 18.25 17.35 17.95 17.9 17.6 16.6 17.25 16.05 17.15 15.95 17.15 16.25 M13.55 13.65 L13.55 13.9 13.9 13.75 15.0 13.75 Q14.45 13.45 13.55 13.45 L13.55 13.65 M13.05 14.3 L13.15 14.2 13.25 14.2 13.35 13.45 12.6 13.45 12.15 14.3 12.25 14.5 12.15 14.55 12.25 14.55 12.25 14.75 11.85 16.7 11.6 20.2 11.6 21.05 11.7 21.85 11.7 23.15 11.6 24.1 11.6 24.25 11.7 24.65 11.85 24.35 11.95 24.1 11.7 23.9 11.7 23.7 11.85 23.45 11.8 23.05 11.85 22.05 11.85 21.95 11.85 21.05 11.95 20.6 12.25 19.95 12.45 19.45 12.25 18.75 12.15 18.1 12.35 17.45 12.5 16.95 12.5 16.9 12.45 16.7 12.5 15.75 Q12.6 14.75 12.8 14.5 L13.05 14.3 M13.7 20.4 L13.65 20.65 13.55 21.7 13.45 22.5 13.25 22.8 13.25 21.85 13.7 20.3 13.7 20.2 13.8 20.1 14.25 18.65 13.8 20.2 13.7 20.4 M14.65 23.65 L14.55 23.8 14.65 24.0 14.75 24.35 14.85 24.2 14.65 23.65 M18.5 20.6 L18.45 20.65 18.35 20.85 18.15 21.15 18.25 21.2 18.35 21.2 18.45 21.3 18.45 21.4 18.35 21.5 18.35 21.4 18.25 21.3 18.25 21.6 Q18.25 22.35 19.15 22.35 19.45 22.35 19.55 21.85 L19.75 21.3 19.55 20.65 Q19.25 20.2 18.8 20.4 L18.7 20.5 18.5 20.6 M18.45 20.4 Q18.8 20.0 18.9 20.2 L18.9 20.0 19.45 20.3 19.65 20.6 19.8 21.05 19.8 21.3 19.75 21.95 Q19.65 22.5 19.15 22.5 18.5 22.5 18.25 22.15 L18.15 21.6 18.15 21.3 18.05 21.3 17.95 21.15 Q17.95 20.85 18.45 20.4 M19.8 26.85 L19.55 26.95 19.45 27.05 18.7 27.8 18.7 27.95 19.65 29.0 20.3 29.55 20.3 29.0 20.35 27.15 20.35 26.05 20.35 25.95 19.75 26.75 19.8 26.85 M11.6 25.4 L11.3 24.65 11.3 24.75 Q11.05 24.9 11.05 25.3 L10.95 25.55 10.95 26.05 11.15 26.3 11.6 26.75 11.85 27.15 11.95 26.95 11.85 26.75 11.85 25.85 11.6 25.4 M11.5 27.7 L11.4 28.15 11.6 27.8 11.5 27.7 M11.4 28.2 L11.4 28.5 11.5 28.6 11.4 28.2" fill="#000000" fill-rule="evenodd" stroke="none"/>
      <path d="M15.3 29.85 L13.55 29.85 13.45 29.65 Q12.35 27.3 12.35 26.95 L12.35 26.5 12.35 25.75 12.35 25.55 12.45 25.4 12.45 25.3 12.45 25.2 12.35 24.9 12.15 24.65 12.25 24.35 12.35 24.2 12.15 24.0 11.95 23.8 12.25 23.65 12.25 23.55 12.25 22.5 12.35 21.05 12.6 20.0 12.8 19.75 13.0 19.45 12.9 18.9 12.9 18.8 12.8 18.45 12.6 18.0 12.9 17.55 12.9 17.45 13.0 17.55 12.9 17.35 13.05 17.05 13.0 16.8 12.9 16.7 12.9 16.15 12.9 15.1 13.25 14.55 13.35 14.5 13.45 14.5 Q14.0 13.9 15.2 14.1 15.85 14.2 16.05 15.05 L16.05 15.95 15.55 16.95 15.3 17.9 15.45 18.75 15.55 19.65 15.4 20.75 15.3 20.95 14.75 22.4 14.35 23.15 14.35 23.25 14.25 23.35 14.2 23.25 14.1 23.65 14.1 23.7 14.2 24.1 14.45 24.65 14.55 24.85 14.75 25.2 15.3 26.3 15.4 26.75 15.3 28.45 15.3 29.85 M20.95 11.25 L20.75 11.25 20.65 11.25 20.65 11.35 20.55 11.45 19.8 11.35 18.9 11.35 18.7 11.35 17.05 10.95 Q16.4 10.8 16.2 10.5 L15.95 10.05 15.65 9.1 15.3 8.4 15.3 8.3 15.55 8.2 15.95 8.2 17.6 8.45 17.6 8.65 17.9 8.85 18.05 8.65 18.15 8.4 18.9 9.0 19.45 9.5 19.75 9.2 19.75 8.85 19.9 8.45 19.9 8.55 19.8 8.75 19.8 8.85 19.9 8.95 20.0 8.95 20.1 9.1 20.35 9.2 20.65 9.4 Q21.3 10.05 21.3 11.05 21.3 11.15 20.95 11.25 M16.5 14.75 L16.75 15.4 16.75 15.6 16.85 19.55 16.85 19.75 16.85 19.85 16.3 20.4 15.55 20.65 15.85 19.65 15.85 18.65 15.75 18.45 15.85 18.1 15.85 17.45 15.95 17.25 16.3 15.95 Q16.5 14.95 16.2 14.4 L16.5 14.75 M13.55 13.65 L13.55 13.45 Q14.45 13.45 15.0 13.75 L13.9 13.75 13.55 13.9 13.55 13.65 M13.7 20.4 L13.8 20.2 14.25 18.65 13.8 20.1 13.7 20.2 13.7 20.3 13.25 21.85 13.25 22.8 13.45 22.5 13.55 21.7 13.65 20.65 13.7 20.4" fill="#ffead5" fill-rule="evenodd" stroke="none"/>
      <path d="M20.65 11.8 L20.75 11.9 20.85 12.7 20.95 13.0 21.0 13.35 20.95 13.65 20.85 13.55 20.65 13.45 20.45 13.65 20.45 13.85 20.45 14.65 20.35 14.55 20.2 14.55 20.2 14.5 20.1 14.4 20.0 14.4 20.0 14.5 19.8 14.4 19.75 14.5 19.65 14.55 20.3 15.4 20.45 15.7 21.0 16.7 20.85 16.6 20.65 16.9 20.75 17.05 20.85 17.45 20.75 17.35 20.65 17.35 20.45 17.55 20.55 17.7 20.35 17.8 20.35 18.0 20.35 18.15 20.45 18.35 20.35 18.75 20.3 19.3 20.2 19.75 20.2 20.2 20.2 20.85 19.8 19.55 19.1 17.55 18.9 18.1 18.25 16.3 18.15 16.25 18.15 16.3 18.05 16.3 18.15 16.9 18.15 17.05 18.05 17.55 17.6 16.3 17.15 15.6 Q16.75 14.5 16.1 14.1 L15.1 13.45 13.8 13.35 13.45 13.35 13.45 13.3 13.35 13.35 12.6 13.35 12.6 13.3 12.5 13.3 12.45 13.45 12.35 13.45 12.35 13.55 11.95 14.3 11.8 14.5 11.8 14.65 11.7 14.75 11.6 14.95 11.05 15.6 11.3 14.5 11.7 13.65 12.25 12.35 12.25 12.15 11.95 12.05 11.6 12.05 Q11.3 12.15 11.3 12.25 L11.3 12.15 12.05 10.8 12.6 9.95 12.35 9.85 11.95 9.75 12.05 9.5 14.85 8.45 15.1 8.55 15.3 9.1 15.65 10.15 15.65 10.4 15.75 10.6 15.85 10.8 Q16.1 11.05 16.5 11.15 L18.35 11.5 20.0 11.8 20.65 11.8 M20.3 7.2 L20.35 7.25 20.45 7.45 20.35 7.45 20.2 7.35 19.8 7.75 19.75 7.65 19.75 7.75 19.65 7.8 19.75 7.9 19.75 8.0 19.55 8.4 19.35 8.95 19.1 8.75 18.8 8.45 18.45 8.1 18.05 7.9 17.95 8.1 17.8 8.1 17.5 8.1 17.3 8.0 16.7 7.8 20.2 7.2 20.3 7.2 M17.05 4.6 L18.05 4.85 18.9 5.35 19.0 5.5 15.2 6.25 Q13.25 6.8 12.35 7.25 L12.25 7.2 11.95 7.1 11.95 7.0 12.35 6.9 12.35 6.7 12.25 6.25 12.45 6.55 12.7 6.7 12.8 6.7 13.15 6.15 13.25 6.05 13.65 5.5 14.1 4.95 14.55 4.85 14.65 4.85 14.9 4.75 17.05 4.6" fill="#605142" fill-rule="evenodd" stroke="none"/>
      <path d="M20.3 29.85 L17.9 29.85 17.9 29.65 17.8 28.45 18.5 27.95 18.7 28.35 19.35 29.0 20.3 29.8 20.3 29.85 M20.35 6.55 L20.35 6.7 20.1 6.8 15.45 7.8 Q14.55 7.75 14.45 8.2 13.15 8.55 11.95 9.1 L11.85 9.1 12.05 8.45 12.25 7.8 12.25 7.75 12.45 7.75 14.9 6.8 16.75 6.25 19.35 5.9 19.55 5.9 19.8 6.0 20.2 6.25 20.35 6.55 M11.4 9.5 L11.4 9.6 11.2 9.85 10.95 10.25 10.2 11.35 9.65 11.25 Q10.0 10.5 10.95 9.6 L11.3 9.3 11.4 9.2 11.4 9.5 M11.15 8.2 Q10.95 8.2 10.4 7.8 L10.5 7.75 11.6 8.3 11.7 8.3 11.6 8.45 11.4 8.3 11.15 8.2 M17.15 16.25 L17.15 15.95 17.25 16.05 17.6 16.6 17.95 17.9 18.25 17.35 18.25 16.9 18.5 17.6 18.8 18.35 18.9 18.35 19.1 18.25 19.1 18.0 19.15 18.0 19.25 18.25 19.35 18.55 19.25 18.65 19.8 20.2 20.1 21.3 20.1 21.8 20.1 21.95 19.9 22.5 Q19.9 23.25 18.6 24.65 L16.95 26.05 16.75 25.95 Q16.6 25.95 16.6 26.2 L15.65 26.3 14.9 24.75 14.75 24.55 14.9 24.2 14.65 23.65 14.85 23.25 15.1 22.35 15.3 21.85 15.55 20.95 Q16.3 20.75 16.7 20.3 L16.95 19.55 16.95 17.6 16.85 15.75 17.15 16.3 17.15 16.25 M13.05 14.3 L12.8 14.5 Q12.6 14.75 12.5 15.75 L12.45 16.7 12.5 16.9 12.5 16.95 12.35 17.45 12.15 18.1 12.25 18.75 12.45 19.45 12.25 19.95 11.95 20.6 11.85 21.05 11.85 21.95 11.85 22.05 11.8 23.05 11.85 23.45 11.7 23.7 11.7 23.9 11.95 24.1 11.85 24.35 11.7 24.65 11.6 24.25 11.6 24.1 11.7 23.15 11.7 21.85 11.6 21.05 11.6 20.2 11.85 16.7 12.25 14.75 12.25 14.55 12.15 14.55 12.25 14.5 12.15 14.3 12.6 13.45 13.35 13.45 13.25 14.2 13.15 14.2 13.05 14.3 M18.45 20.4 Q17.95 20.85 17.95 21.15 L18.05 21.3 18.15 21.3 18.15 21.6 18.25 22.15 Q18.5 22.5 19.15 22.5 19.65 22.5 19.75 21.95 L19.8 21.3 19.8 21.05 19.65 20.6 19.45 20.3 18.9 20.0 18.9 20.2 Q18.8 20.0 18.45 20.4 M11.4 28.2 L11.5 28.6 11.4 28.5 11.4 28.2 M11.5 27.7 L11.6 27.8 11.4 28.15 11.5 27.7" fill="#d9b83e" fill-rule="evenodd" stroke="none"/>
      <path d="M14.65 23.65 L14.85 24.2 14.75 24.35 14.65 24.0 14.55 23.8 14.65 23.65 M18.5 20.6 L18.6 20.6 18.7 20.5 18.8 20.4 Q19.25 20.2 19.55 20.65 L19.75 21.3 19.55 21.85 Q19.45 22.35 19.15 22.35 18.25 22.35 18.25 21.6 L18.25 21.3 18.35 21.4 18.35 21.5 18.45 21.4 18.45 21.3 18.35 21.2 18.25 21.2 18.15 21.15 18.35 20.85 18.45 20.65 18.5 20.6 M19.8 26.85 L19.75 26.75 20.35 25.95 20.35 26.05 20.35 27.15 20.3 29.0 20.3 29.55 19.65 29.0 18.7 27.95 18.7 27.8 19.45 27.05 19.55 26.95 19.8 26.85" fill="#735437" fill-rule="evenodd" stroke="none"/>
      <path d="M17.5 29.85 L15.65 29.85 15.55 29.55 15.65 27.95 15.75 27.05 15.75 26.75 16.05 26.65 16.7 26.65 16.7 26.75 16.95 26.75 17.15 27.4 17.4 28.25 17.3 28.35 17.4 28.6 17.5 28.6 17.5 29.85 M13.25 29.85 L12.2 29.85 12.05 29.25 11.95 28.7 11.85 28.35 11.95 27.95 12.05 27.7 12.05 27.6 12.15 27.5 12.45 28.35 13.15 29.7 13.25 29.85 M20.35 23.15 L20.65 23.8 20.75 24.45 20.65 24.85 20.35 25.3 20.1 25.55 19.45 26.4 19.45 26.5 19.35 26.6 Q19.15 26.65 19.0 26.85 L18.8 27.15 18.7 27.25 18.5 27.3 17.7 28.05 17.4 27.15 17.25 26.65 18.25 25.65 20.2 23.0 20.3 22.8 20.35 23.15 M11.6 25.4 L11.85 25.85 11.85 26.75 11.95 26.95 11.85 27.15 11.6 26.75 11.15 26.3 10.95 26.05 10.95 25.55 11.05 25.3 Q11.05 24.9 11.3 24.75 L11.3 24.65 11.6 25.4" fill="#a06f4e" fill-rule="evenodd" stroke="none"/>
    </g>
    <g id="button3" transform="matrix(1.0, 0.0, 0.0, 1.0, 0.5, 0.5)">
      <use height="34.0" transform="matrix(1.0, 0.0, 0.0, 1.0, -0.5, -0.5)" width="34.0" xlink:href="#shape7"/>
      <use height="27.5" transform="matrix(1.0, 0.0, 0.0, 1.0, 3.6, 3.25)" width="26.15" xlink:href="#shape8"/>
      <use height="34.0" transform="matrix(1.0, 0.0, 0.0, 1.0, -0.5, -0.5)" width="34.0" xlink:href="#shape9"/>
      <use height="32.3" transform="matrix(1.0, 0.0, 0.0, 1.0, 0.6, 0.3)" width="32.1" xlink:href="#shape10"/>
    </g>
    <g id="shape7" transform="matrix(1.0, 0.0, 0.0, 1.0, 0.5, 0.5)">
      <path d="M33.0 0.0 L33.0 33.0 0.0 33.0 0.0 0.0 33.0 0.0" fill="#c4c4c4" fill-rule="evenodd" stroke="none"/>
      <path d="M33.0 0.0 L33.0 33.0 0.0 33.0 0.0 0.0 33.0 0.0 Z" fill="none" stroke="#000000" stroke-linecap="round" stroke-linejoin="round" stroke-width="1.0"/>
      <path d="M29.75 30.0 L30.0 30.0 30.0 3.0 29.75 3.0 29.75 0.0 29.75 3.0 3.0 3.0 3.0 30.0 29.75 30.0 29.75 33.0 29.75 30.0 M29.75 0.0 L33.0 0.0 33.0 33.0 29.75 33.0 0.0 33.0 0.0 0.0 29.75 0.0" fill="url(#gradient3)" fill-rule="evenodd" stroke="none"/>
      <path d="M29.75 3.0 L30.0 3.0 30.0 30.0 29.75 30.0 29.75 3.0 29.75 30.0 3.0 30.0 3.0 3.0 29.75 3.0" fill="#7b7b7b" fill-rule="evenodd" stroke="none"/>
      <path d="M29.75 3.0 L30.0 3.0 30.0 30.0 29.75 30.0 3.0 30.0 3.0 3.0 29.75 3.0 M29.75 33.0 L33.0 33.0 33.0 0.0 29.75 0.0 0.0 0.0 0.0 33.0 29.75 33.0" fill="none" stroke="#000000" stroke-linecap="round" stroke-linejoin="round" stroke-width="1.0"/>
    </g>
    <linearGradient gradientTransform="matrix(0.0152, 0.0234, -0.0234, 0.0152, 16.5, 16.45)" gradientUnits="userSpaceOnUse" id="gradient3" spreadMethod="pad" x1="-819.2" x2="819.2">
      <stop offset="0.0" stop-color="#eed600"/>
      <stop offset="0.19607843137254902" stop-color="#fef292"/>
      <stop offset="0.36470588235294116" stop-color="#ecd502"/>
      <stop offset="0.6352941176470588" stop-color="#9a8b00"/>
      <stop offset="0.8627450980392157" stop-color="#fff9c4"/>
      <stop offset="1.0" stop-color="#c4c400"/>
    </linearGradient>
    <g id="shape8" transform="matrix(1.0, 0.0, 0.0, 1.0, -3.6, -3.25)">
      <path d="M7.15 21.45 L7.15 21.75 7.05 21.75 6.95 21.95 6.75 22.3 6.1 23.15 6.45 22.3 7.15 21.45 M3.6 30.1 L3.6 10.4 8.75 11.7 8.75 11.9 9.2 12.05 9.4 12.05 9.5 12.15 9.9 12.15 11.3 12.45 14.05 13.2 18.05 14.25 18.8 14.55 19.35 14.55 20.7 15.1 Q21.15 15.5 21.9 15.75 L22.0 15.85 22.1 15.85 22.3 16.35 22.95 16.9 23.8 17.3 23.9 17.3 24.0 17.55 24.1 17.85 25.05 18.9 25.9 19.1 26.2 19.75 26.1 20.05 25.9 20.3 25.9 20.6 25.45 22.5 23.65 23.65 22.4 24.4 22.3 24.4 21.9 24.5 21.55 24.6 19.75 23.65 Q17.95 23.15 17.75 22.8 L17.2 21.65 16.7 20.8 Q16.5 20.6 16.5 21.0 L16.7 21.45 16.25 21.35 Q15.65 20.9 15.1 20.9 L15.0 19.65 14.9 19.0 Q14.8 18.4 14.45 19.1 L14.6 20.15 14.05 19.85 13.95 19.75 12.9 19.55 11.6 19.35 10.75 19.45 10.55 19.55 10.35 19.75 10.15 19.65 9.2 19.75 8.1 20.05 8.0 20.05 8.45 19.35 8.95 17.85 9.2 16.25 8.95 16.35 8.85 16.35 8.75 17.0 8.1 19.1 7.6 20.15 7.05 20.8 6.85 21.0 6.35 21.85 6.2 21.85 6.1 21.95 6.1 22.1 6.0 22.3 5.9 22.6 5.9 22.7 5.5 23.75 Q5.35 23.9 5.35 24.1 L5.05 24.85 4.75 25.55 4.65 25.8 4.75 26.0 4.75 26.2 4.65 26.3 Q4.7 27.0 5.2 27.85 L5.6 28.55 5.8 28.95 Q4.95 29.05 4.95 29.9 L4.95 30.1 5.05 30.2 4.85 30.2 3.7 30.1 3.6 30.1 M3.6 9.4 L3.6 8.85 4.0 8.0 5.05 6.55 5.15 6.55 6.0 6.85 Q6.45 6.85 8.0 5.8 L8.45 7.15 8.95 7.6 9.6 7.9 10.75 8.45 12.15 7.7 12.25 9.15 12.45 9.5 12.9 9.6 13.0 9.8 13.0 9.9 13.85 10.55 14.15 10.85 15.4 12.05 15.85 12.65 3.6 9.4 M21.35 17.3 L20.5 16.45 19.25 15.85 19.25 15.65 Q19.25 15.2 19.0 15.4 L18.8 15.95 19.65 16.6 Q19.35 17.0 19.35 17.55 L19.45 17.75 Q19.55 17.95 20.2 18.05 L21.75 18.4 22.4 19.0 22.6 18.9 21.35 17.3 M24.2 21.0 L24.2 21.15 24.4 21.25 25.45 20.6 Q24.2 19.95 24.2 21.0" fill="#418822" fill-rule="evenodd" stroke="none"/>
      <path d="M5.55 3.25 L5.95 3.25 5.35 4.3 Q4.75 5.05 4.75 5.35 L5.05 5.8 5.25 6.1 5.7 6.3 6.0 6.4 7.6 5.6 Q8.45 4.95 8.45 6.1 8.65 6.95 8.95 7.15 L10.75 8.0 12.25 7.15 Q12.45 7.15 12.45 7.9 L12.55 8.85 12.9 9.3 13.3 9.6 14.05 10.25 14.8 10.85 16.6 12.9 17.75 13.2 18.3 13.1 Q18.7 13.1 19.15 13.4 L19.35 13.6 21.55 14.25 22.2 13.5 Q22.5 13.1 22.5 14.35 L22.5 14.45 24.1 14.9 24.1 15.0 25.25 15.1 25.25 15.2 25.7 15.2 26.3 15.1 26.55 14.65 26.75 14.9 27.5 14.8 27.6 14.15 28.0 14.55 28.1 14.45 28.45 14.8 28.55 14.65 28.95 14.8 29.3 14.8 Q29.5 14.8 29.7 15.1 L29.75 15.05 29.75 15.35 29.7 15.3 29.4 15.3 29.3 15.1 28.85 15.1 28.55 14.9 28.55 15.0 28.2 14.9 28.1 14.8 28.0 14.9 27.4 15.0 27.5 15.5 27.6 15.95 27.7 17.2 27.5 17.4 27.7 17.55 27.7 17.65 28.1 17.55 28.55 17.75 28.85 17.75 29.05 17.85 29.5 17.75 29.75 17.75 29.75 18.15 29.7 18.15 29.5 18.05 29.3 18.25 29.05 18.4 28.85 18.25 28.75 17.95 28.2 17.95 Q28.0 17.95 28.1 17.75 L27.6 17.75 27.05 18.5 26.55 19.2 26.55 19.75 26.4 20.15 26.2 20.4 26.0 21.85 25.8 22.8 22.2 25.05 22.0 25.05 22.0 24.95 21.55 25.05 20.6 24.6 Q19.85 24.1 19.75 24.1 L18.6 23.75 Q18.05 23.65 17.65 23.35 17.35 23.25 16.9 22.2 L16.8 21.95 16.7 21.95 16.15 21.65 15.3 21.35 15.1 21.45 15.0 21.45 Q14.8 21.45 14.7 20.7 L14.05 20.4 12.9 19.95 11.6 19.75 10.55 19.85 10.15 19.95 9.5 20.15 8.35 20.5 7.9 20.6 7.7 20.7 7.6 20.9 7.5 21.0 7.15 21.45 6.45 22.3 6.1 23.15 6.75 22.3 6.95 21.95 7.05 21.75 7.15 21.75 7.3 21.65 Q7.6 21.35 7.4 21.85 L5.8 24.4 Q5.25 25.8 4.95 26.0 L5.5 27.7 5.55 27.85 6.35 28.95 6.85 30.1 Q6.85 30.75 6.65 30.75 L6.45 30.65 5.6 30.55 3.7 30.45 3.6 30.5 3.6 30.1 3.7 30.1 4.85 30.2 5.05 30.2 4.95 30.1 4.95 29.9 Q4.95 29.05 5.8 28.95 L5.6 28.55 5.2 27.85 Q4.7 27.0 4.65 26.3 L4.75 26.2 4.75 26.0 4.65 25.8 4.75 25.55 5.05 24.85 5.35 24.1 Q5.35 23.9 5.5 23.75 L5.9 22.7 5.9 22.6 6.0 22.3 6.1 22.1 6.1 21.95 6.2 21.85 6.35 21.85 6.85 21.0 7.05 20.8 7.6 20.15 8.1 19.1 8.75 17.0 8.85 16.35 8.95 16.35 9.2 16.25 8.95 17.85 8.45 19.35 8.0 20.05 8.1 20.05 9.2 19.75 10.15 19.65 10.35 19.75 10.55 19.55 10.75 19.45 11.6 19.35 12.9 19.55 13.95 19.75 14.05 19.85 14.6 20.15 14.45 19.1 Q14.8 18.4 14.9 19.0 L15.0 19.65 15.1 20.9 Q15.65 20.9 16.25 21.35 L16.7 21.45 16.5 21.0 Q16.5 20.6 16.7 20.8 L17.2 21.65 17.75 22.8 Q17.95 23.15 19.75 23.65 L21.55 24.6 21.9 24.5 22.3 24.4 22.4 24.4 23.65 23.65 25.45 22.5 25.9 20.6 25.9 20.3 26.1 20.05 26.2 19.75 25.9 19.1 25.05 18.9 24.1 17.85 24.0 17.55 23.9 17.3 23.8 17.3 22.95 16.9 22.3 16.35 22.1 15.85 22.0 15.85 21.9 15.75 Q21.15 15.5 20.7 15.1 L19.35 14.55 18.8 14.55 18.05 14.25 14.05 13.2 11.3 12.45 9.9 12.15 9.5 12.15 9.4 12.05 9.2 12.05 8.75 11.9 8.75 11.7 3.6 10.4 3.6 10.2 8.95 11.6 9.2 11.6 9.6 11.8 14.05 13.0 16.7 13.6 17.35 13.85 17.85 13.95 18.05 13.95 18.15 13.95 19.25 14.35 19.45 14.35 20.1 14.55 21.15 14.9 21.45 14.9 22.1 15.1 22.5 15.2 22.85 15.2 22.95 15.2 22.7 14.9 21.15 14.45 20.9 14.35 9.2 11.2 8.95 11.2 8.95 11.1 8.75 10.95 3.6 9.65 3.6 9.4 15.85 12.65 15.4 12.05 14.15 10.85 13.85 10.55 13.0 9.9 13.0 9.8 12.9 9.6 12.45 9.5 12.25 9.15 12.15 7.7 10.75 8.45 9.6 7.9 8.95 7.6 8.45 7.15 8.0 5.8 Q6.45 6.85 6.0 6.85 L5.15 6.55 5.05 6.55 4.0 8.0 3.6 8.85 3.6 7.95 4.3 6.75 4.75 6.4 4.75 6.3 4.85 6.1 4.4 5.35 Q4.4 4.95 4.85 4.3 L5.55 3.25 M3.6 4.05 L3.6 3.55 3.7 3.25 4.1 3.25 3.6 4.05 M25.7 16.25 L24.95 16.05 24.3 16.05 23.65 15.85 22.7 15.75 22.4 15.65 22.5 15.85 22.95 16.35 23.9 16.9 24.3 17.2 24.4 17.3 Q25.15 17.3 26.0 16.6 L25.7 16.25 M25.6 15.85 L26.1 15.5 25.45 15.4 25.15 15.5 24.95 15.75 25.25 15.85 25.45 15.75 25.6 15.85 M26.0 15.95 L25.8 15.95 26.0 16.15 26.0 15.95 M26.75 17.3 L26.95 17.3 26.65 16.9 26.3 16.8 Q25.35 17.65 24.5 17.65 L24.4 17.65 24.65 17.85 26.1 18.9 26.2 18.9 26.75 18.25 27.15 17.75 26.75 17.3 M28.95 17.95 L29.15 17.95 29.05 17.85 28.95 17.95 M23.35 15.1 L24.65 15.5 24.65 15.4 23.35 15.1 M22.0 15.4 L21.75 15.3 21.9 15.4 22.0 15.4 M21.35 17.3 L22.6 18.9 22.4 19.0 21.75 18.4 20.2 18.05 Q19.55 17.95 19.45 17.75 L19.35 17.55 Q19.35 17.0 19.65 16.6 L18.8 15.95 19.0 15.4 Q19.25 15.2 19.25 15.65 L19.25 15.85 20.5 16.45 21.35 17.3 M20.9 17.4 L19.95 16.8 19.95 16.9 19.75 17.2 19.75 17.55 21.35 17.85 20.9 17.4 M24.2 21.0 Q24.2 19.95 25.45 20.6 L24.4 21.25 24.2 21.15 24.2 21.0 M5.8 30.2 L6.65 30.2 6.55 30.1 6.55 30.0 6.0 29.25 5.8 29.4 Q5.35 29.4 5.35 29.7 L5.35 30.2 5.8 30.2" fill="#000000" fill-rule="evenodd" stroke="none"/>
      <path d="M5.8 30.2 L5.35 30.2 5.35 29.7 Q5.35 29.4 5.8 29.4 L6.0 29.25 6.55 30.0 6.55 30.1 6.65 30.2 5.8 30.2" fill="#81805c" fill-rule="evenodd" stroke="none"/>
      <path d="M3.6 7.95 L3.6 4.05 4.1 3.25 5.55 3.25 4.85 4.3 Q4.4 4.95 4.4 5.35 L4.85 6.1 4.75 6.3 4.75 6.4 4.3 6.75 3.6 7.95" fill="#a58b52" fill-rule="evenodd" stroke="none"/>
      <path d="M26.75 17.3 L27.15 17.75 26.75 18.25 26.2 18.9 26.1 18.9 24.65 17.85 24.4 17.65 24.5 17.65 Q25.35 17.65 26.3 16.8 L26.65 16.9 26.95 17.3 26.75 17.3 M22.0 15.4 L21.9 15.4 21.75 15.3 22.0 15.4" fill="#e9e9c9" fill-rule="evenodd" stroke="none"/>
      <path d="M20.9 17.4 L21.35 17.85 19.75 17.55 19.75 17.2 19.95 16.9 19.95 16.8 20.9 17.4" fill="#ffff55" fill-rule="evenodd" stroke="none"/>
      <path d="M29.75 15.35 L29.75 17.75 29.5 17.75 29.05 17.85 28.85 17.75 28.55 17.75 28.1 17.55 27.7 17.65 27.7 17.55 27.5 17.4 27.7 17.2 27.6 15.95 27.5 15.5 27.4 15.0 28.0 14.9 28.1 14.8 28.2 14.9 28.55 15.0 28.55 14.9 28.85 15.1 29.3 15.1 29.4 15.3 29.7 15.3 29.75 15.35" fill="#a3a298" fill-rule="evenodd" stroke="none"/>
      <path d="M3.6 10.2 L3.6 9.65 8.75 10.95 8.95 11.1 8.95 11.2 9.2 11.2 20.9 14.35 21.15 14.45 22.7 14.9 22.95 15.2 22.85 15.2 22.5 15.2 22.1 15.1 21.45 14.9 21.15 14.9 20.1 14.55 19.45 14.35 19.25 14.35 18.15 13.95 18.05 13.95 17.85 13.95 17.35 13.85 16.7 13.6 14.05 13.0 9.6 11.8 9.2 11.6 8.95 11.6 3.6 10.2" fill="#b59b39" fill-rule="evenodd" stroke="none"/>
      <path d="M26.0 15.95 L26.0 16.15 25.8 15.95 26.0 15.95 M25.6 15.85 L25.45 15.75 25.25 15.85 24.95 15.75 25.15 15.5 25.45 15.4 26.1 15.5 25.6 15.85 M23.35 15.1 L24.65 15.4 24.65 15.5 23.35 15.1" fill="#decf98" fill-rule="evenodd" stroke="none"/>
    </g>
    <g id="shape9" transform="matrix(1.0, 0.0, 0.0, 1.0, 0.5, 0.5)">
      <path d="M29.75 0.0 L29.75 5.0 29.75 0.0 33.0 0.0 33.0 5.0 29.75 5.0 28.0 5.0 28.0 0.0 29.75 0.0 M5.0 5.0 L0.0 5.0 0.0 0.0 5.0 0.0 5.0 5.0 M5.0 28.0 L5.0 33.0 0.0 33.0 0.0 28.0 5.0 28.0 M29.75 28.0 L33.0 28.0 33.0 33.0 29.75 33.0 28.0 33.0 28.0 28.0 29.75 28.0 29.75 33.0 29.75 28.0" fill="#990000" fill-rule="evenodd" stroke="none"/>
      <path d="M29.75 0.0 L28.0 0.0 28.0 5.0 29.75 5.0 33.0 5.0 33.0 0.0 29.75 0.0 M5.0 5.0 L0.0 5.0 0.0 0.0 5.0 0.0 5.0 5.0 M5.0 28.0 L5.0 33.0 0.0 33.0 0.0 28.0 5.0 28.0 M29.75 28.0 L33.0 28.0 33.0 33.0 29.75 33.0 28.0 33.0 28.0 28.0 29.75 28.0" fill="none" stroke="#000000" stroke-linecap="round" stroke-linejoin="round" stroke-width="1.0"/>
    </g>
    <g id="shape10" transform="matrix(1.0, 0.0, 0.0, 1.0, -0.6, -0.3)">
      <path d="M29.75 0.35 L29.85 0.7 29.75 0.95 29.7 1.1 29.6 1.25 29.05 2.1 28.6 1.8 28.6 1.45 28.85 0.8 Q28.9 0.35 29.3 0.35 L29.4 0.4 29.75 0.35 29.75 0.95 29.75 0.35 M1.25 2.6 Q0.8 2.6 0.7 2.2 L0.7 1.7 Q0.7 1.15 1.45 0.65 2.2 0.2 2.2 0.95 L1.25 2.6 M1.85 29.35 L1.55 29.85 1.0 30.25 Q0.6 30.25 0.6 29.8 0.6 29.5 0.9 29.25 1.3 28.9 1.8 29.1 L1.85 29.35 M29.75 28.85 Q29.95 28.85 29.95 29.35 L29.8 29.95 29.75 30.05 29.4 30.25 Q28.95 30.25 28.95 29.8 28.95 29.4 29.45 29.0 L29.75 28.85 29.75 30.05 29.75 28.85" fill="#ff6666" fill-rule="evenodd" stroke="none"/>
      <path d="M32.7 3.95 L32.7 4.35 31.45 4.6 Q30.2 4.6 30.2 4.2 30.2 3.9 30.7 3.65 L31.35 2.95 Q31.15 2.6 31.45 2.15 31.8 1.75 32.3 1.95 L32.7 3.95 M3.9 2.1 Q4.2 1.65 4.2 2.5 4.2 4.6 2.45 4.6 L2.05 4.55 Q1.95 4.05 2.1 3.9 L1.7 3.5 Q1.7 3.05 3.35 3.05 L3.9 2.1 M3.6 30.35 Q3.7 30.0 4.3 30.1 L4.35 32.05 Q4.25 32.6 3.75 32.6 L1.6 32.45 Q1.45 32.4 1.45 32.15 2.65 30.7 3.6 30.85 L3.6 30.35 M32.25 32.5 L31.25 32.5 30.25 32.5 29.85 32.05 30.05 31.8 31.3 31.25 31.2 30.65 Q31.2 30.25 31.55 29.8 31.95 29.25 32.25 29.95 L32.45 31.75 32.25 32.5" fill="#660000" fill-rule="evenodd" stroke="none"/>
    </g>
  </defs>
</svg>
