<?xml version="1.0" encoding="UTF-8" standalone="no"?>
<svg xmlns:xlink="http://www.w3.org/1999/xlink" height="214.5px" width="1230.0px" xmlns="http://www.w3.org/2000/svg">
  <g transform="matrix(6.0, 0.0, 0.0, 6.0, 3.0, 102.0)">
    <use height="34.0" id="bfr" transform="matrix(1.0, 0.0, 0.0, 1.0, 170.5, -17.0)" width="34.0" xlink:href="#button0"/>
    <use height="34.0" id="bf1" transform="matrix(1.0, 0.0, 0.0, 1.0, -0.5, -17.0)" width="34.0" xlink:href="#button1"/>
    <use height="34.0" id="bf2" transform="matrix(1.0, 0.0, 0.0, 1.0, 39.5, -17.0)" width="34.0" xlink:href="#button2"/>
    <use height="34.0" id="bf3" transform="matrix(1.0, 0.0, 0.0, 1.0, 79.5, -17.0)" width="34.0" xlink:href="#button3"/>
  </g>
  <defs>
    <g id="button0" transform="matrix(1.0, 0.0, 0.0, 1.0, 0.5, 0.5)">
      <use height="34.0" transform="matrix(1.0, 0.0, 0.0, 1.0, -0.5, -0.5)" width="34.0" xlink:href="#shape0"/>
      <use height="32.3" transform="matrix(1.0, 0.0, 0.0, 1.0, 0.6, 0.3)" width="32.1" xlink:href="#shape1"/>
    </g>
    <g id="shape0" transform="matrix(1.0, 0.0, 0.0, 1.0, 0.5, 0.5)">
      <path d="M33.0 0.0 L33.0 33.0 0.0 33.0 0.0 0.0 33.0 0.0" fill="#c4c4c4" fill-rule="evenodd" stroke="none"/>
      <path d="M33.0 0.0 L33.0 33.0 0.0 33.0 0.0 0.0 33.0 0.0 Z" fill="none" stroke="#000000" stroke-linecap="round" stroke-linejoin="round" stroke-width="1.0"/>
      <path d="M30.0 3.0 L3.0 3.0 3.0 30.0 30.0 30.0 30.0 3.0 M33.0 0.0 L33.0 33.0 0.0 33.0 0.0 0.0 33.0 0.0" fill="url(#gradient0)" fill-rule="evenodd" stroke="none"/>
      <path d="M30.0 3.0 L30.0 30.0 3.0 30.0 3.0 3.0 30.0 3.0" fill="#7b7b7b" fill-rule="evenodd" stroke="none"/>
      <path d="M30.0 3.0 L30.0 30.0 3.0 30.0 3.0 3.0 30.0 3.0 M33.0 0.0 L33.0 33.0 0.0 33.0 0.0 0.0 33.0 0.0" fill="none" stroke="#000000" stroke-linecap="round" stroke-linejoin="round" stroke-width="1.0"/>
      <path d="M28.0 0.0 L33.0 0.0 33.0 5.0 28.0 5.0 28.0 0.0 M0.0 0.0 L5.0 0.0 5.0 5.0 0.0 5.0 0.0 0.0 M5.0 28.0 L5.0 33.0 0.0 33.0 0.0 28.0 5.0 28.0 M28.0 28.0 L33.0 28.0 33.0 33.0 28.0 33.0 28.0 28.0" fill="#990000" fill-rule="evenodd" stroke="none"/>
      <path d="M28.0 0.0 L33.0 0.0 33.0 5.0 28.0 5.0 28.0 0.0 M0.0 0.0 L5.0 0.0 5.0 5.0 0.0 5.0 0.0 0.0 M5.0 28.0 L5.0 33.0 0.0 33.0 0.0 28.0 5.0 28.0 M28.0 28.0 L33.0 28.0 33.0 33.0 28.0 33.0 28.0 28.0" fill="none" stroke="#000000" stroke-linecap="round" stroke-linejoin="round" stroke-width="1.0"/>
    </g>
    <linearGradient gradientTransform="matrix(0.0152, 0.0234, -0.0234, 0.0152, 16.5, 16.45)" gradientUnits="userSpaceOnUse" id="gradient0" spreadMethod="pad" x1="-819.2" x2="819.2">
      <stop offset="0.0" stop-color="#eed600"/>
      <stop offset="0.19607843137254902" stop-color="#fef292"/>
      <stop offset="0.36470588235294116" stop-color="#ecd502"/>
      <stop offset="0.6352941176470588" stop-color="#9a8b00"/>
      <stop offset="0.8627450980392157" stop-color="#fff9c4"/>
      <stop offset="1.0" stop-color="#c4c400"/>
    </linearGradient>
    <g id="shape1" transform="matrix(1.0, 0.0, 0.0, 1.0, -0.6, -0.3)">
      <path d="M29.6 1.25 L29.05 2.1 28.6 1.8 28.6 1.45 28.85 0.8 Q28.9 0.35 29.3 0.35 L29.4 0.4 Q29.85 0.1 29.85 0.7 L29.7 1.1 29.6 1.25 M1.25 2.6 Q0.8 2.6 0.7 2.2 L0.7 1.7 Q0.7 1.15 1.45 0.65 2.2 0.2 2.2 0.95 L1.25 2.6 M1.85 29.35 L1.55 29.85 1.0 30.25 Q0.6 30.25 0.6 29.8 0.6 29.5 0.9 29.25 1.3 28.9 1.8 29.1 L1.85 29.35 M29.95 29.35 L29.8 29.95 29.4 30.25 Q28.95 30.25 28.95 29.8 28.95 29.4 29.45 29.0 29.95 28.55 29.95 29.35" fill="#ff6666" fill-rule="evenodd" stroke="none"/>
      <path d="M32.7 3.95 L32.7 4.35 31.45 4.6 Q30.2 4.6 30.2 4.2 30.2 3.9 30.7 3.65 L31.35 2.95 Q31.15 2.6 31.45 2.15 31.8 1.75 32.3 1.95 L32.7 3.95 M4.2 2.5 Q4.2 4.6 2.45 4.6 L2.05 4.55 Q1.95 4.05 2.1 3.9 L1.7 3.5 Q1.7 3.05 3.35 3.05 L3.9 2.1 Q4.2 1.65 4.2 2.5 M3.6 30.35 Q3.7 30.0 4.3 30.1 L4.35 32.05 Q4.25 32.6 3.75 32.6 L1.6 32.45 Q1.45 32.4 1.45 32.15 2.65 30.7 3.6 30.85 L3.6 30.35 M32.25 32.5 L31.25 32.5 30.25 32.5 29.85 32.05 30.05 31.8 31.3 31.25 31.2 30.65 Q31.2 30.25 31.55 29.8 31.95 29.25 32.25 29.95 L32.45 31.75 32.25 32.5" fill="#660000" fill-rule="evenodd" stroke="none"/>
      <path d="M28.0 20.5 L14.5 20.5 14.5 26.0 5.0 16.5 14.5 7.0 14.5 12.5 28.0 12.5 28.0 20.5" fill="#b10101" fill-rule="evenodd" stroke="none"/>
    </g>
    <g id="button1" transform="matrix(1.0, 0.0, 0.0, 1.0, 0.5, 0.5)">
      <use height="34.0" transform="matrix(1.0, 0.0, 0.0, 1.0, -0.5, -0.5)" width="34.0" xlink:href="#shape0"/>
      <use height="32.3" transform="matrix(1.0, 0.0, 0.0, 1.0, 0.6, 0.3)" width="32.1" xlink:href="#shape2"/>
    </g>
    <g id="shape2" transform="matrix(1.0, 0.0, 0.0, 1.0, -0.6, -0.3)">
      <path d="M29.4 0.4 Q29.85 0.1 29.85 0.7 L29.7 1.1 29.6 1.25 29.05 2.1 28.6 1.8 28.6 1.45 28.85 0.8 Q28.9 0.35 29.3 0.35 L29.4 0.4 M1.25 2.6 Q0.8 2.6 0.7 2.2 L0.7 1.7 Q0.7 1.15 1.45 0.65 2.2 0.2 2.2 0.95 L1.25 2.6 M1.85 29.35 L1.55 29.85 1.0 30.25 Q0.6 30.25 0.6 29.8 0.6 29.5 0.9 29.25 1.3 28.9 1.8 29.1 L1.85 29.35 M29.95 29.35 L29.8 29.95 29.4 30.25 Q28.95 30.25 28.95 29.8 28.95 29.4 29.45 29.0 29.95 28.55 29.95 29.35" fill="#ff6666" fill-rule="evenodd" stroke="none"/>
      <path d="M32.7 3.95 L32.7 4.35 31.45 4.6 Q30.2 4.6 30.2 4.2 30.2 3.9 30.7 3.65 L31.35 2.95 Q31.15 2.6 31.45 2.15 31.8 1.75 32.3 1.95 L32.7 3.95 M3.9 2.1 Q4.2 1.65 4.2 2.5 4.2 4.6 2.45 4.6 L2.05 4.55 Q1.95 4.05 2.1 3.9 L1.7 3.5 Q1.7 3.05 3.35 3.05 L3.9 2.1 M3.6 30.35 Q3.7 30.0 4.3 30.1 L4.35 32.05 Q4.25 32.6 3.75 32.6 L1.6 32.45 Q1.45 32.4 1.45 32.15 2.65 30.7 3.6 30.85 L3.6 30.35 M32.25 32.5 L31.25 32.5 30.25 32.5 29.85 32.05 30.05 31.8 31.3 31.25 31.2 30.65 Q31.2 30.25 31.55 29.8 31.95 29.25 32.25 29.95 L32.45 31.75 32.25 32.5" fill="#660000" fill-rule="evenodd" stroke="none"/>
      <path d="M11.45 26.5 L11.45 26.55 11.35 26.5 11.45 26.5 M12.35 26.95 L12.45 27.0 12.35 27.0 12.35 26.95 M10.35 27.75 L10.3 27.8 10.65 28.15 11.2 28.85 10.2 29.1 9.65 28.95 9.6 28.9 Q9.75 28.65 9.55 28.55 L9.5 28.4 9.95 27.25 10.05 27.3 9.95 27.3 10.1 27.35 10.35 27.75 M10.4 27.3 L10.6 27.1 10.9 27.85 10.6 27.5 10.45 27.3 10.4 27.3 M12.45 28.15 L12.55 28.1 12.7 28.25 12.85 28.25 14.35 28.9 13.6 28.6 13.0 28.45 11.75 28.65 11.7 28.7 11.5 28.45 11.25 28.25 12.0 28.05 12.45 28.15 M8.25 26.5 L8.35 26.5 9.0 26.75 9.05 26.85 8.55 28.15 8.25 26.5" fill="#666666" fill-rule="evenodd" stroke="none"/>
      <path d="M7.9 29.75 L7.55 29.75 7.55 29.65 7.7 29.4 7.75 29.45 8.05 29.1 7.9 28.65 8.0 28.4 8.05 28.4 8.0 28.35 8.15 28.35 7.95 26.55 7.55 26.3 7.35 26.05 7.0 25.7 7.1 25.35 5.75 24.7 4.95 24.65 4.95 24.85 4.75 24.7 4.3 23.6 4.3 23.35 5.35 22.95 5.5 23.0 5.6 22.9 Q5.8 23.0 6.0 23.25 L6.05 23.35 6.1 23.45 6.2 23.5 6.55 23.6 6.6 23.6 6.75 23.75 7.0 22.2 6.85 20.85 6.9 20.05 6.2 20.25 6.0 20.15 6.05 19.85 6.6 19.3 6.1 19.2 6.1 18.95 6.85 18.65 6.45 18.1 6.45 17.75 6.55 17.75 6.45 17.7 6.65 17.65 7.55 18.2 7.65 18.15 7.2 17.9 7.9 15.6 7.7 15.2 7.5 15.2 7.5 15.05 7.2 14.6 Q6.9 14.2 6.9 13.85 L7.15 12.8 7.4 12.2 7.45 11.85 7.4 11.7 7.5 11.5 7.7 10.6 Q8.0 9.6 8.35 9.6 L8.55 9.6 9.0 8.35 Q9.05 7.2 8.55 6.05 L8.45 5.95 Q8.45 5.4 9.55 4.75 10.65 4.05 11.8 4.05 11.8 3.95 12.0 3.95 12.45 3.95 13.65 4.8 L14.7 5.7 14.85 5.7 14.85 6.1 14.85 6.5 14.85 6.7 14.75 6.75 14.45 6.85 14.35 7.25 14.35 7.3 14.5 7.5 14.6 7.5 14.75 7.7 14.75 7.75 Q14.15 9.45 14.15 10.25 L14.3 11.3 14.7 12.5 14.6 12.6 13.35 11.6 13.15 11.95 13.1 12.0 Q13.6 12.2 14.15 13.6 14.75 15.0 14.75 15.5 L14.45 16.1 14.6 17.65 14.3 18.2 14.1 18.45 14.1 18.5 Q14.3 18.75 14.15 19.3 L14.05 19.7 13.85 19.95 13.9 20.0 13.95 20.0 13.95 20.1 13.95 20.35 13.8 20.7 13.6 20.85 13.6 20.9 13.7 20.9 14.05 22.15 13.85 23.0 13.65 23.5 13.65 23.75 13.35 23.85 13.35 23.8 13.3 23.8 13.85 25.35 14.2 26.65 21.15 29.75 20.75 29.75 13.8 26.65 13.55 26.65 13.25 26.4 12.8 26.05 12.45 25.45 12.35 25.5 12.25 25.6 12.05 25.6 11.7 25.6 11.45 25.6 11.35 25.6 11.35 25.65 11.15 25.65 11.0 25.4 11.0 25.3 10.9 25.35 10.85 25.4 10.75 25.95 10.75 26.2 11.45 26.5 11.35 26.5 11.45 26.55 12.1 26.3 12.2 26.7 12.3 26.95 12.35 27.0 12.45 27.0 18.6 29.75 18.45 29.75 12.45 27.05 12.45 27.1 11.7 27.35 11.5 27.05 11.4 26.65 10.65 26.25 10.45 26.5 10.2 26.75 10.15 26.8 10.3 27.0 Q10.45 26.8 10.65 26.85 L10.7 27.0 10.7 27.05 10.85 27.05 11.2 27.55 11.35 27.9 12.05 27.8 12.6 27.85 13.1 28.1 13.05 28.1 16.7 29.75 16.2 29.75 15.95 29.65 15.9 29.75 15.75 29.75 15.75 29.6 14.75 29.1 14.3 29.5 14.3 29.6 14.2 29.75 13.85 29.75 13.85 29.65 13.55 29.7 12.5 29.65 11.9 29.5 11.75 29.45 11.75 29.75 11.5 29.75 11.5 29.7 11.25 29.35 11.25 29.1 11.35 29.1 11.25 29.05 10.75 29.35 10.85 29.45 10.7 29.6 10.65 29.75 10.3 29.75 10.35 29.5 10.4 29.35 10.2 29.4 10.1 29.4 9.6 29.35 9.55 29.25 9.1 29.1 8.75 29.2 8.7 29.15 8.55 29.1 8.6 29.05 8.55 29.05 8.35 28.9 8.3 29.15 8.3 29.25 Q8.2 29.65 7.9 29.75 M12.0 4.35 L11.75 4.35 11.75 4.3 11.55 4.45 11.5 4.45 11.25 4.5 11.1 4.5 10.85 4.55 Q9.9 4.75 9.65 5.0 L8.85 5.85 9.35 6.05 9.35 6.2 9.25 6.25 8.85 6.15 8.75 6.1 8.95 6.6 Q9.3 7.65 9.25 8.35 L9.1 9.1 8.95 9.6 9.0 9.65 9.15 9.65 9.15 9.6 9.3 9.6 9.4 9.6 9.55 9.6 10.3 9.55 11.4 9.9 10.85 8.65 Q11.1 8.6 11.15 8.8 L11.25 9.15 11.7 9.95 11.7 10.1 12.0 10.25 12.25 10.45 13.5 11.0 13.55 11.0 13.6 11.15 13.65 11.25 13.55 11.25 13.5 11.4 13.65 11.5 14.15 12.0 13.95 10.2 14.2 8.75 Q14.35 8.05 14.65 7.75 L14.5 7.75 14.45 7.7 13.9 7.25 Q13.55 7.0 13.25 6.9 L11.4 6.9 11.25 6.75 14.6 6.5 14.5 6.35 14.65 5.9 13.5 5.0 13.35 5.0 13.3 4.9 Q13.05 4.55 12.6 4.5 L12.45 4.35 12.45 4.45 12.05 4.25 12.0 4.35 M10.9 11.6 L9.8 11.5 9.15 11.6 8.75 11.8 8.2 12.3 8.15 12.4 7.95 12.8 7.5 13.65 7.55 13.9 Q7.75 13.55 8.3 13.15 L8.35 13.1 Q8.7 12.9 9.0 12.8 L10.7 12.65 Q11.2 12.8 11.7 13.45 L11.95 13.9 12.0 14.0 12.05 14.15 12.3 14.95 12.3 15.15 12.5 14.95 12.7 14.9 12.25 13.35 12.2 13.1 12.2 13.0 11.9 12.35 11.4 11.8 11.1 11.7 10.9 11.6 M8.35 11.75 Q9.0 11.3 9.8 11.25 L10.45 11.3 10.95 11.4 11.0 11.4 11.25 11.45 12.0 12.1 12.2 12.6 12.45 13.3 12.5 13.3 12.55 13.45 12.6 13.55 12.9 14.8 13.0 14.7 12.85 12.6 12.75 12.2 12.7 11.75 12.45 10.95 12.45 10.9 Q12.0 10.15 10.3 9.8 L9.0 9.95 Q8.3 10.25 7.95 11.25 7.65 11.8 7.45 12.65 L7.5 12.75 7.65 12.6 7.75 12.35 8.0 12.0 8.15 11.85 8.2 11.85 8.2 11.8 8.25 11.8 8.35 11.75 M12.9 11.4 L12.9 11.55 13.05 11.4 13.25 11.2 12.8 11.05 12.9 11.4 M12.75 16.6 L13.15 16.75 13.6 16.65 13.9 16.5 14.2 16.15 14.5 15.35 14.5 15.25 13.9 13.55 13.9 13.45 13.7 13.15 13.6 12.85 13.35 12.5 13.4 12.4 13.3 12.35 13.05 12.3 13.0 12.25 13.0 12.3 13.05 12.65 13.05 12.7 13.3 14.6 13.15 15.15 13.05 15.05 12.85 15.0 12.85 15.15 12.75 15.0 12.6 15.3 12.55 15.3 12.35 15.5 12.45 15.75 12.6 16.3 12.7 16.55 12.7 16.6 12.75 16.6 M8.35 9.9 L8.05 10.45 8.8 9.95 8.75 9.95 8.35 9.9 M8.35 13.4 L8.0 13.95 8.05 14.15 8.15 14.2 8.2 14.45 9.55 15.0 10.05 15.45 11.15 15.05 11.65 15.25 11.75 15.25 12.0 15.05 11.75 14.2 11.65 13.95 Q11.1 13.05 10.6 12.9 L8.85 13.1 Q8.55 13.2 8.35 13.4 M7.65 14.35 L7.55 14.45 7.45 14.4 7.2 13.8 7.15 13.8 7.5 14.5 7.65 14.65 7.7 14.4 7.7 14.35 7.65 14.35 M7.9 14.4 L7.9 14.9 8.2 15.5 8.25 15.6 8.55 16.0 8.55 15.95 8.95 15.7 9.1 15.5 9.25 15.45 Q9.3 15.3 9.5 15.25 9.25 15.0 8.85 14.9 L8.5 14.75 8.3 14.7 8.05 14.75 8.0 14.6 7.9 14.4 M7.0 18.2 L7.15 18.8 6.95 18.9 6.7 19.05 6.95 19.15 6.95 19.35 6.45 19.85 7.35 19.55 7.8 19.5 8.2 19.5 8.5 19.55 8.6 19.6 9.0 19.7 9.4 19.7 9.4 19.2 8.6 19.15 8.5 19.2 7.7 18.75 7.5 18.55 7.45 18.55 7.0 18.2 M9.05 15.85 L8.75 16.15 9.35 16.9 10.3 16.55 10.3 15.6 10.05 15.75 9.55 15.35 9.35 15.55 9.05 15.85 M8.0 15.75 L7.65 17.15 7.55 17.65 8.25 18.1 8.5 18.2 8.8 18.35 9.25 18.2 9.55 18.1 9.85 17.9 10.1 17.65 10.55 17.1 10.6 16.9 10.7 16.85 10.75 16.6 10.55 16.75 9.35 17.3 8.7 16.55 8.35 16.15 8.0 15.75 M7.75 18.35 L8.35 18.7 8.35 18.5 8.2 18.45 7.75 18.2 7.75 18.35 M9.75 18.35 L9.55 18.4 8.85 18.65 8.5 18.75 8.6 18.75 8.6 18.8 9.35 18.9 9.6 18.95 Q9.6 18.7 9.75 18.55 L9.8 18.4 9.8 18.35 9.75 18.35 M4.85 24.05 L5.25 24.25 5.55 24.35 5.85 23.7 5.8 23.6 5.35 23.3 4.7 23.6 4.85 24.05 M9.5 21.7 L9.65 20.95 9.65 20.7 9.4 20.05 9.4 19.95 9.05 20.0 8.3 19.95 8.15 19.85 7.65 20.0 7.15 20.05 7.25 21.3 7.35 22.25 7.5 22.1 7.5 22.0 7.75 21.7 8.45 20.9 8.5 20.9 8.55 20.8 8.55 20.7 8.6 20.8 8.7 20.7 8.75 20.85 9.25 21.4 8.95 21.3 8.85 21.3 8.85 21.1 8.8 21.15 8.7 21.05 8.6 21.3 8.55 21.4 7.25 22.9 7.2 22.95 7.2 23.0 7.15 23.05 7.4 23.6 7.5 23.6 7.65 23.8 7.75 24.1 8.5 24.05 8.85 24.05 9.4 24.1 9.35 24.05 9.4 23.7 9.5 23.35 9.65 23.3 9.8 22.7 9.5 21.75 9.5 21.7 M9.6 19.75 L9.95 20.6 9.95 20.65 10.1 20.7 11.4 20.95 12.05 20.95 12.55 20.9 11.9 20.7 Q11.4 20.6 11.4 20.25 L11.65 19.85 11.75 19.35 Q11.75 18.8 12.5 17.75 L13.1 16.95 Q12.35 16.85 12.25 16.35 L12.05 16.15 12.1 16.05 12.1 15.55 12.1 15.3 12.05 15.35 12.05 15.45 11.75 15.85 11.55 16.15 11.65 16.35 11.75 16.8 11.1 17.35 11.1 17.4 11.1 17.55 Q11.0 18.4 10.2 18.4 L10.05 18.4 9.75 18.9 9.75 19.2 9.6 19.75 M6.2 24.15 L6.85 24.1 7.0 24.05 6.15 23.8 5.9 24.15 6.2 24.15 M7.2 23.9 L7.4 24.0 7.25 23.75 7.2 23.9 M6.35 24.5 L6.05 24.6 6.4 24.7 7.15 24.5 7.2 24.5 7.4 24.35 7.45 24.3 7.2 24.1 7.15 24.15 6.9 24.35 6.35 24.5 M9.65 21.95 L9.95 22.3 10.75 22.65 10.85 22.65 11.15 22.55 12.05 22.25 12.35 22.15 12.7 22.0 12.9 22.0 13.05 21.5 12.9 21.2 12.9 21.1 12.85 21.1 12.0 21.15 11.5 21.2 9.9 21.05 9.8 21.9 9.65 21.95 M8.05 24.3 L7.75 24.3 7.35 25.65 Q7.35 25.9 7.9 26.15 L7.95 26.15 8.2 26.25 9.05 26.4 9.1 26.3 9.25 26.0 9.35 25.7 9.35 25.6 9.8 25.3 9.4 24.35 9.4 24.25 8.85 24.25 8.05 24.3 M9.6 24.05 L9.95 25.05 9.95 24.95 10.3 24.35 9.75 23.9 9.6 24.05 M10.65 23.45 L10.7 23.2 10.7 23.1 10.65 22.95 10.05 22.75 9.85 23.55 9.85 23.7 10.4 24.1 10.4 24.0 10.65 23.45 M11.75 15.35 L10.95 15.35 10.6 15.5 10.6 16.0 10.6 16.35 10.6 16.4 10.75 16.35 11.25 16.15 11.2 16.1 11.55 15.7 11.9 15.35 11.75 15.35 M11.4 16.35 L11.2 16.4 10.85 17.05 10.95 17.15 11.2 16.95 11.5 16.75 11.4 16.35 M10.35 17.85 L10.05 18.15 10.2 18.15 Q10.7 18.15 10.7 17.75 L10.75 17.55 10.65 17.4 10.35 17.85 M13.5 16.95 L13.05 17.55 12.45 18.25 13.85 18.35 Q13.9 18.15 14.1 18.0 L14.35 17.65 14.15 16.6 13.65 16.95 13.5 16.95 M13.8 18.65 L13.8 18.55 13.15 18.7 12.45 18.65 12.0 19.35 Q12.25 19.35 12.25 19.55 L12.35 19.55 13.5 19.85 13.9 19.35 13.8 18.65 M13.3 20.7 Q13.3 20.6 13.5 20.6 L13.65 20.35 13.6 20.1 12.05 19.85 11.95 19.85 11.75 20.25 12.1 20.55 12.9 20.85 13.0 20.8 13.25 20.8 13.25 20.85 13.3 20.85 13.3 20.7 M13.6 21.85 L13.7 21.9 13.8 21.9 13.6 21.15 13.5 21.15 13.55 21.5 13.4 21.3 13.4 21.2 13.3 21.2 13.3 21.4 13.5 21.9 13.6 21.85 M11.7 22.7 L12.0 23.45 12.05 23.5 11.75 23.75 11.55 23.75 11.45 24.0 11.55 24.0 11.8 23.9 12.45 23.55 12.55 23.55 12.7 23.05 12.75 22.65 12.75 22.55 12.85 22.2 11.65 22.65 11.7 22.7 M11.7 23.3 L11.5 22.9 10.9 23.05 11.0 23.1 11.0 23.2 11.0 23.35 10.35 24.9 10.35 24.95 10.3 25.15 10.1 25.4 10.05 25.5 9.95 25.6 9.9 25.6 9.75 25.7 9.75 25.9 9.75 26.4 9.6 26.7 9.5 26.75 8.8 28.3 8.7 28.35 8.7 28.4 8.55 28.35 8.7 28.55 8.8 28.9 9.25 28.85 9.3 28.8 9.3 28.7 9.25 28.8 9.05 28.65 9.1 28.45 9.9 26.8 9.85 26.75 9.85 26.7 9.9 26.7 9.95 26.55 10.05 26.45 10.3 26.2 10.4 26.15 10.45 26.05 10.45 25.45 10.45 25.35 10.6 25.2 10.6 25.15 10.65 25.1 11.35 23.45 11.5 23.25 11.7 23.35 11.65 23.45 11.75 23.35 11.7 23.3 M11.65 24.1 L11.5 24.1 11.4 24.15 11.1 24.85 11.2 24.9 11.35 25.1 11.55 25.05 Q11.8 24.9 12.0 24.9 L12.2 24.8 12.3 24.65 12.3 24.35 12.45 23.85 11.9 24.05 11.65 24.1 M12.45 24.65 L12.45 24.8 12.35 24.9 12.45 25.05 12.25 25.1 12.3 25.2 12.35 25.15 12.5 25.15 12.5 25.1 12.55 25.15 13.0 25.85 13.4 26.05 13.4 26.25 13.55 26.25 13.7 26.4 14.05 26.5 13.65 25.6 13.05 24.0 13.0 24.15 12.75 24.15 12.7 24.1 12.5 24.65 12.45 24.65 M13.5 22.15 L13.6 22.75 13.8 22.15 13.8 22.1 13.6 22.15 13.5 22.15 M13.0 23.0 L12.85 23.5 12.8 23.55 12.85 23.55 13.15 23.45 13.35 23.35 13.35 23.3 13.4 23.25 13.15 22.15 13.0 23.0 M11.65 25.3 L11.5 25.3 11.35 25.35 11.35 25.4 11.5 25.4 11.65 25.3 M10.4 27.3 L10.45 27.3 10.6 27.5 10.9 27.85 10.6 27.1 10.4 27.3 M10.35 27.75 L10.1 27.35 9.95 27.3 10.05 27.3 9.95 27.25 9.5 28.4 9.55 28.55 Q9.75 28.65 9.6 28.9 L9.65 28.95 10.2 29.1 11.2 28.85 10.65 28.15 10.3 27.8 10.35 27.75 M11.65 26.7 L11.75 27.1 12.1 26.95 12.0 26.65 11.65 26.7 M12.1 29.15 L13.6 29.4 14.15 29.15 13.65 28.8 12.85 28.8 12.6 28.85 12.0 28.95 12.1 29.15 M12.45 28.15 L12.0 28.05 11.25 28.25 11.5 28.45 11.7 28.7 11.75 28.65 13.0 28.45 13.6 28.6 14.35 28.9 12.85 28.25 12.7 28.25 12.55 28.1 12.45 28.15 M8.25 26.5 L8.55 28.15 9.05 26.85 9.0 26.75 8.35 26.5 8.25 26.5 M7.2 25.05 L7.2 24.8 6.75 24.9 7.1 25.05 7.2 25.05" fill="#000000" fill-rule="evenodd" stroke="none"/>
      <path d="M12.45 24.65 L12.5 24.65 12.7 24.1 12.75 24.15 13.0 24.15 13.05 24.0 13.65 25.6 14.05 26.5 13.7 26.4 13.55 26.25 13.4 26.25 13.4 26.05 13.0 25.85 12.55 25.15 12.5 25.1 12.5 25.15 12.35 25.15 12.3 25.2 12.25 25.1 12.45 25.05 12.35 24.9 12.45 24.8 12.45 24.65" fill="#a6a6a6" fill-rule="evenodd" stroke="none"/>
      <path d="M9.25 28.85 L9.25 28.8 9.3 28.7 9.3 28.8 9.25 28.85 M11.7 23.35 L11.7 23.3 11.75 23.35 11.65 23.45 11.7 23.35 M12.3 26.95 L12.35 26.95 12.35 27.0 12.3 26.95" fill="#ffffff" fill-rule="evenodd" stroke="none"/>
      <path d="M10.35 17.85 L10.65 17.4 10.75 17.55 10.7 17.75 Q10.7 18.15 10.2 18.15 L10.05 18.15 10.35 17.85 M11.4 16.35 L11.5 16.75 11.2 16.95 10.95 17.15 10.85 17.05 11.2 16.4 11.4 16.35 M12.1 29.15 L12.0 28.95 12.6 28.85 12.85 28.8 13.65 28.8 14.15 29.15 13.6 29.4 12.1 29.15" fill="#333333" fill-rule="evenodd" stroke="none"/>
      <path d="M13.85 29.75 L11.75 29.75 11.75 29.45 11.9 29.5 12.5 29.65 13.55 29.7 13.85 29.65 13.85 29.75 M10.3 29.75 L10.15 29.75 10.2 29.6 10.15 29.6 Q9.95 29.5 9.85 29.7 L9.8 29.75 8.8 29.75 8.5 29.7 8.5 29.75 7.9 29.75 Q8.2 29.65 8.3 29.25 L8.3 29.15 8.35 28.9 8.55 29.05 8.6 29.05 8.55 29.1 8.7 29.15 8.75 29.2 9.1 29.1 9.55 29.25 9.6 29.35 10.1 29.4 10.2 29.4 10.4 29.35 10.35 29.5 10.3 29.75 M10.9 11.6 L11.1 11.7 11.4 11.8 11.9 12.35 12.2 13.0 12.2 13.1 12.25 13.35 12.7 14.9 12.5 14.95 12.3 15.15 12.3 14.95 12.05 14.15 12.0 14.0 11.95 13.9 11.7 13.45 Q11.2 12.8 10.7 12.65 L9.0 12.8 Q8.7 12.9 8.35 13.1 L8.3 13.15 Q7.75 13.55 7.55 13.9 L7.5 13.65 7.95 12.8 8.15 12.4 8.2 12.3 8.75 11.8 9.15 11.6 9.8 11.5 10.9 11.6" fill="#8c8c8c" fill-rule="evenodd" stroke="none"/>
      <path d="M15.3 29.75 L14.2 29.75 14.3 29.6 15.0 29.25 15.4 29.5 15.3 29.75 M11.5 29.75 L10.65 29.75 10.7 29.6 10.85 29.45 11.25 29.35 11.5 29.7 11.5 29.75 M11.2 10.5 L11.2 10.2 Q10.95 10.15 10.9 10.45 L10.3 10.45 9.85 10.75 9.65 10.7 9.65 10.6 9.75 10.4 9.6 10.35 9.5 10.5 Q9.5 10.9 9.65 10.9 L10.75 10.65 10.75 10.7 Q10.65 11.15 10.85 11.2 L10.9 11.25 11.15 10.7 11.25 11.0 11.8 11.25 12.0 11.2 12.2 11.15 11.95 10.7 11.9 10.9 12.0 11.05 11.9 11.15 11.75 11.05 Q11.45 11.0 11.4 10.75 L11.2 10.5 M12.0 12.1 L11.25 11.45 11.0 11.4 10.95 11.4 10.45 11.3 9.8 11.25 Q9.0 11.3 8.35 11.75 L8.35 11.6 Q8.5 11.55 8.7 11.45 L9.1 11.15 9.05 10.95 8.8 11.0 8.85 10.95 9.25 10.35 9.15 10.25 8.75 10.6 8.75 10.5 8.35 10.95 8.35 11.0 8.3 11.15 8.2 11.3 7.9 11.75 7.95 11.95 8.15 11.85 8.0 12.0 7.75 12.35 7.65 12.6 7.5 12.75 7.45 12.65 Q7.65 11.8 7.95 11.25 8.3 10.25 9.0 9.95 L10.3 9.8 Q12.0 10.15 12.45 10.9 L12.45 10.95 12.3 10.95 12.2 11.25 12.45 12.5 12.3 12.4 11.9 11.75 12.0 12.1 M8.25 11.8 L8.2 11.8 8.25 11.75 8.25 11.8 M12.6 13.55 L12.7 13.55 12.7 13.35 12.6 12.05 12.45 10.95 12.7 11.75 12.75 12.2 12.85 12.6 13.0 14.7 12.9 14.8 12.6 13.55" fill="#bfbfbf" fill-rule="evenodd" stroke="none"/>
      <path d="M15.75 29.75 L15.3 29.75 15.4 29.5 15.0 29.25 14.3 29.6 14.3 29.5 14.75 29.1 15.75 29.6 15.75 29.75 M10.15 29.75 L9.8 29.75 9.85 29.7 Q9.95 29.5 10.15 29.6 L10.2 29.6 10.15 29.75 M13.05 12.7 L13.05 12.65 13.0 12.3 13.0 12.25 13.05 12.3 13.3 12.35 13.4 12.4 13.35 12.5 13.6 12.85 13.7 13.15 13.9 13.45 13.9 13.55 14.5 15.25 14.5 15.35 14.2 16.15 13.9 16.5 13.6 16.65 13.15 16.75 12.75 16.6 12.7 16.55 12.6 16.3 12.7 16.15 12.45 15.75 12.35 15.5 12.55 15.3 12.6 15.3 12.75 15.85 13.4 15.8 13.55 16.0 13.3 16.1 13.35 16.35 13.35 16.5 13.95 16.1 14.1 15.8 14.2 15.45 14.2 15.2 13.65 15.05 13.3 14.95 13.3 14.8 14.15 14.8 13.65 13.8 13.1 12.75 13.05 12.7 M7.0 18.2 L7.45 18.55 7.5 18.55 7.7 18.75 8.5 19.2 8.6 19.15 9.4 19.2 9.4 19.7 9.0 19.7 8.6 19.6 8.5 19.55 8.2 19.5 7.8 19.5 7.35 19.55 6.45 19.85 6.95 19.35 6.95 19.15 6.7 19.05 6.95 18.9 7.15 18.8 7.0 18.2 M4.85 24.05 L4.7 23.6 5.35 23.3 5.8 23.6 5.85 23.7 5.55 24.35 5.25 24.25 4.85 24.05 M9.25 21.4 L9.4 21.6 9.5 21.7 9.5 21.75 9.8 22.7 9.65 23.3 9.5 23.35 9.4 23.1 9.55 22.65 9.1 21.95 8.8 21.7 8.8 22.65 8.6 22.55 8.6 21.95 8.55 21.9 7.45 23.05 7.55 23.6 7.5 23.6 7.4 23.6 7.15 23.05 7.2 23.0 7.25 22.9 8.55 21.4 8.8 21.15 8.85 21.1 8.85 21.3 8.95 21.3 9.25 21.4 M8.05 24.3 L8.85 24.25 9.4 24.25 9.4 24.35 8.7 24.8 7.7 24.95 7.65 24.9 8.05 24.3 M10.4 24.0 L10.1 23.75 Q10.1 23.45 10.45 23.45 L10.65 23.45 10.4 24.0 M13.55 21.5 L13.5 21.15 13.6 21.15 13.8 21.9 13.7 21.9 13.6 21.85 13.55 21.75 13.55 21.5 M10.3 22.0 Q10.2 21.65 10.55 21.65 L11.0 22.0 10.65 22.25 10.3 22.0 M9.25 28.85 L8.8 28.9 8.7 28.55 8.55 28.35 8.7 28.4 8.7 28.35 8.8 28.3 9.5 26.75 9.6 26.7 9.75 26.4 9.75 25.9 9.75 25.7 9.9 25.6 9.95 25.6 10.05 25.5 10.1 25.4 10.3 25.15 10.35 24.95 10.35 24.9 11.0 23.35 11.0 23.2 11.0 23.1 10.9 23.05 11.5 22.9 11.7 23.3 11.7 23.35 11.5 23.25 11.35 23.45 10.65 25.1 10.6 25.15 10.6 25.2 10.45 25.35 10.45 25.45 10.45 26.05 10.4 26.15 10.3 26.2 10.05 26.45 9.95 26.55 9.9 26.7 9.85 26.7 9.85 26.75 9.9 26.8 9.1 28.45 9.05 28.65 9.25 28.8 9.25 28.85 M10.85 29.45 L10.75 29.35 11.25 29.05 11.35 29.1 11.25 29.1 11.25 29.35 10.85 29.45" fill="#ffff00" fill-rule="evenodd" stroke="none"/>
      <path d="M11.75 4.35 L12.0 4.35 12.45 4.5 12.45 4.45 12.45 4.35 12.6 4.5 Q13.05 4.55 13.3 4.9 L13.35 5.0 14.1 5.65 14.1 5.85 13.9 5.85 Q13.65 5.85 13.4 5.55 L13.35 5.55 13.0 5.85 11.15 5.7 9.6 5.95 9.15 5.65 Q9.15 5.15 10.85 4.55 L11.1 4.5 11.25 4.5 11.5 4.45 11.55 4.45 11.75 4.35 M13.65 11.5 L13.5 11.4 13.55 11.25 13.65 11.25 13.6 11.15 13.55 11.0 13.5 11.0 12.25 10.45 12.0 10.25 11.35 9.0 11.35 8.9 10.95 8.2 11.15 7.85 11.25 8.0 11.4 7.85 Q12.45 8.8 13.85 11.05 L13.7 11.2 13.95 11.45 13.8 11.5 13.65 11.5" fill="#aaaaaa" fill-rule="evenodd" stroke="none"/>
      <path d="M12.0 4.35 L12.05 4.25 12.45 4.45 12.45 4.5 12.0 4.35 M11.55 4.45 L11.75 4.3 11.75 4.35 11.55 4.45 M13.5 16.95 L13.65 16.95 14.15 16.6 14.35 17.65 14.1 18.0 Q13.9 18.15 13.85 18.35 L12.45 18.25 13.05 17.55 13.5 16.95 M13.3 20.7 L13.3 20.85 13.25 20.85 13.25 20.8 13.0 20.8 12.9 20.85 12.1 20.55 11.75 20.25 11.95 19.85 12.05 19.85 13.6 20.1 13.65 20.35 13.5 20.6 Q13.3 20.6 13.3 20.7 M13.8 18.65 L13.9 19.35 13.5 19.85 12.35 19.55 12.25 19.55 Q12.25 19.35 12.0 19.35 L12.45 18.65 13.15 18.7 13.8 18.55 13.8 18.65" fill="#999999" fill-rule="evenodd" stroke="none"/>
      <path d="M13.35 5.0 L13.5 5.0 14.65 5.9 14.5 6.35 14.6 6.5 11.25 6.75 11.4 6.9 13.25 6.9 Q13.55 7.0 13.9 7.25 L14.45 7.7 14.5 7.75 14.65 7.75 Q14.35 8.05 14.2 8.75 L13.95 10.2 14.15 12.0 13.65 11.5 13.8 11.5 13.95 11.45 13.7 11.2 13.85 11.05 Q12.45 8.8 11.4 7.85 L11.25 8.0 11.15 7.85 10.95 8.2 11.35 8.9 11.35 9.0 12.0 10.25 11.7 10.1 11.7 9.95 11.25 9.15 11.15 8.8 Q11.1 8.6 10.85 8.65 L11.4 9.9 10.3 9.55 9.55 9.6 9.4 9.6 9.3 9.6 9.15 9.6 9.15 9.65 9.0 9.65 8.95 9.6 9.1 9.1 9.25 8.35 Q9.3 7.65 8.95 6.6 L8.75 6.1 8.85 6.15 9.25 6.25 9.35 6.2 9.35 6.05 8.85 5.85 9.65 5.0 Q9.9 4.75 10.85 4.55 9.15 5.15 9.15 5.65 L9.6 5.95 11.15 5.7 13.0 5.85 13.35 5.55 13.4 5.55 Q13.65 5.85 13.9 5.85 L14.1 5.85 14.1 5.65 13.35 5.0 M12.9 11.4 L12.8 11.05 13.25 11.2 13.05 11.4 12.9 11.55 12.9 11.4 M8.35 9.9 L8.75 9.95 8.8 9.95 8.05 10.45 8.35 9.9" fill="#515151" fill-rule="evenodd" stroke="none"/>
      <path d="M7.65 14.35 L7.7 14.35 7.7 14.4 7.65 14.65 7.5 14.5 7.15 13.8 7.2 13.8 7.45 14.4 7.55 14.45 7.65 14.35" fill="#cccccc" fill-rule="evenodd" stroke="none"/>
      <path d="M7.9 14.4 L8.0 14.6 8.05 14.75 8.3 14.7 8.5 14.75 8.85 14.9 Q9.25 15.0 9.5 15.25 9.3 15.3 9.25 15.45 L9.1 15.5 8.95 15.7 8.55 15.95 8.55 16.0 8.25 15.6 8.2 15.5 7.9 14.9 7.9 14.4 M9.25 21.4 L8.75 20.85 8.7 20.7 8.6 20.8 8.55 20.7 8.55 20.8 8.5 20.9 8.45 20.9 7.75 21.7 7.5 22.0 7.5 22.1 7.35 22.25 7.25 21.3 7.15 20.05 7.65 20.0 8.15 19.85 8.3 19.95 9.05 20.0 9.4 19.95 9.4 20.05 9.65 20.7 9.65 20.95 9.5 21.7 9.4 21.6 9.25 21.4 M9.6 19.75 L9.75 19.2 9.75 18.9 10.05 18.4 10.2 18.4 Q11.0 18.4 11.1 17.55 L11.1 17.4 11.1 17.35 11.75 16.8 11.65 16.35 11.55 16.15 11.75 15.85 12.05 15.45 12.05 15.35 12.1 15.3 12.1 15.55 12.1 16.05 12.05 16.15 12.25 16.35 Q12.35 16.85 13.1 16.95 L12.5 17.75 Q11.75 18.8 11.75 19.35 L11.65 19.85 11.4 20.25 Q11.4 20.6 11.9 20.7 L12.55 20.9 12.05 20.95 11.4 20.95 10.1 20.7 9.95 20.65 9.95 20.6 9.6 19.75 M11.75 15.35 L11.9 15.35 11.55 15.7 11.2 16.1 11.25 16.15 10.75 16.35 10.6 16.4 10.6 16.35 10.6 16.0 10.6 15.5 10.95 15.35 11.75 15.35" fill="#404040" fill-rule="evenodd" stroke="none"/>
      <path d="M12.75 16.6 L12.7 16.6 12.7 16.55 12.75 16.6 M12.6 16.3 L12.45 15.75 12.7 16.15 12.6 16.3 M12.6 15.3 L12.75 15.0 12.85 15.15 12.85 15.0 13.05 15.05 13.15 15.15 13.3 14.6 13.05 12.7 13.1 12.75 13.65 13.8 14.15 14.8 13.3 14.8 13.3 14.95 13.65 15.05 14.2 15.2 14.2 15.45 14.1 15.8 13.95 16.1 13.35 16.5 13.35 16.35 13.3 16.1 13.55 16.0 13.4 15.8 12.75 15.85 12.6 15.3" fill="#c8c8c8" fill-rule="evenodd" stroke="none"/>
      <path d="M9.5 23.35 L9.4 23.7 9.35 24.05 9.4 24.1 8.85 24.05 8.5 24.05 7.75 24.1 7.65 23.8 7.5 23.6 7.55 23.6 7.45 23.05 8.55 21.9 8.6 21.95 8.6 22.55 8.8 22.65 8.8 21.7 9.1 21.95 9.55 22.65 9.4 23.1 9.5 23.35 M7.2 23.0 L7.2 22.95 7.25 22.9 7.2 23.0 M8.55 21.4 L8.6 21.3 8.7 21.05 8.8 21.15 8.55 21.4 M9.65 21.95 L9.8 21.9 9.9 21.05 11.5 21.2 12.0 21.15 12.85 21.1 12.9 21.1 12.9 21.2 13.05 21.5 12.9 22.0 12.7 22.0 12.35 22.15 12.05 22.25 11.15 22.55 10.85 22.65 10.75 22.65 9.95 22.3 9.65 21.95 M9.4 24.35 L9.8 25.3 9.35 25.6 9.35 25.7 9.25 26.0 9.1 26.3 9.05 26.4 8.2 26.25 7.95 26.15 7.9 26.15 Q7.35 25.9 7.35 25.65 L7.75 24.3 8.05 24.3 7.65 24.9 7.7 24.95 8.7 24.8 9.4 24.35 M10.4 24.0 L10.4 24.1 9.85 23.7 9.85 23.55 10.05 22.75 10.65 22.95 10.7 23.1 10.7 23.2 10.65 23.45 10.45 23.45 Q10.1 23.45 10.1 23.75 L10.4 24.0 M9.6 24.05 L9.75 23.9 10.3 24.35 9.95 24.95 9.95 25.05 9.6 24.05 M13.6 21.85 L13.5 21.9 13.3 21.4 13.3 21.2 13.4 21.2 13.4 21.3 13.55 21.5 13.55 21.75 13.6 21.85 M11.7 22.7 L11.65 22.65 12.85 22.2 12.75 22.55 12.75 22.65 12.7 23.05 12.55 23.55 12.45 23.55 11.8 23.9 11.55 24.0 11.45 24.0 11.55 23.75 11.75 23.75 12.05 23.5 12.0 23.45 11.7 22.7 M10.3 22.0 L10.65 22.25 11.0 22.0 10.55 21.65 Q10.2 21.65 10.3 22.0 M11.65 24.1 L11.9 24.05 12.45 23.85 12.3 24.35 12.3 24.65 12.2 24.8 12.0 24.9 Q11.8 24.9 11.55 25.05 L11.35 25.1 11.2 24.9 11.1 24.85 11.4 24.15 11.5 24.1 11.65 24.1 M13.5 22.15 L13.6 22.15 13.8 22.1 13.8 22.15 13.6 22.75 13.5 22.15 M11.65 25.3 L11.5 25.4 11.35 25.4 11.35 25.35 11.5 25.3 11.65 25.3" fill="#7b7b7b" fill-rule="evenodd" stroke="none"/>
      <path d="M13.0 23.0 L13.15 22.15 13.4 23.25 13.35 23.3 13.35 23.35 13.15 23.45 12.85 23.55 12.8 23.55 12.85 23.5 13.0 23.0" fill="#2b2b2b" fill-rule="evenodd" stroke="none"/>
      <path d="M20.75 29.75 L18.6 29.75 12.45 27.0 12.35 26.95 12.3 26.95 12.2 26.7 12.1 26.3 11.45 26.55 11.45 26.5 10.75 26.2 10.75 25.95 10.85 25.4 10.9 25.35 11.0 25.3 11.0 25.4 11.15 25.65 11.35 25.65 11.35 25.6 11.45 25.6 11.7 25.6 12.05 25.6 12.25 25.6 12.35 25.5 12.45 25.45 12.8 26.05 13.25 26.4 13.55 26.65 13.8 26.65 20.75 29.75 M18.45 29.75 L16.7 29.75 13.05 28.1 13.1 28.1 12.6 27.85 12.05 27.8 11.35 27.9 11.2 27.55 10.85 27.05 10.7 27.05 10.7 27.0 10.65 26.85 Q10.45 26.8 10.3 27.0 L10.15 26.8 10.2 26.75 10.45 26.5 10.65 26.25 11.4 26.65 11.5 27.05 11.7 27.35 12.45 27.1 12.45 27.05 18.45 29.75" fill="#444444" fill-rule="evenodd" stroke="none"/>
      <path d="M6.2 24.15 L5.9 24.15 6.15 23.8 7.0 24.05 6.85 24.1 6.2 24.15 M6.35 24.5 L6.9 24.35 7.15 24.15 7.2 24.1 7.45 24.3 7.4 24.35 7.2 24.5 7.15 24.5 6.4 24.7 6.05 24.6 6.35 24.5 M7.2 25.05 L7.1 25.05 6.75 24.9 7.2 24.8 7.2 25.05" fill="#80503c" fill-rule="evenodd" stroke="none"/>
      <path d="M11.65 26.7 L12.0 26.65 12.1 26.95 11.75 27.1 11.65 26.7" fill="#e6e6e6" fill-rule="evenodd" stroke="none"/>
      <path d="M8.35 13.4 Q8.55 13.2 8.85 13.1 L10.6 12.9 Q11.1 13.05 11.65 13.95 L11.75 14.2 12.0 15.05 11.75 15.25 11.65 15.25 11.15 15.05 10.05 15.45 9.55 15.0 8.2 14.45 8.15 14.2 8.05 14.15 8.0 13.95 8.35 13.4" fill="#626262" fill-rule="evenodd" stroke="none"/>
      <path d="M11.2 10.5 L11.4 10.75 Q11.45 11.0 11.75 11.05 L11.9 11.15 12.0 11.05 11.9 10.9 11.95 10.7 12.2 11.15 12.0 11.2 11.8 11.25 11.25 11.0 11.15 10.7 10.9 11.25 10.85 11.2 Q10.65 11.15 10.75 10.7 L10.75 10.65 9.65 10.9 Q9.5 10.9 9.5 10.5 L9.6 10.35 9.75 10.4 9.65 10.6 9.65 10.7 9.85 10.75 10.3 10.45 10.9 10.45 Q10.95 10.15 11.2 10.2 L11.2 10.5 M12.0 12.1 L11.9 11.75 12.3 12.4 12.45 12.5 12.2 11.25 12.3 10.95 12.45 10.95 12.6 12.05 12.7 13.35 12.7 13.55 12.6 13.55 12.55 13.45 12.5 13.3 12.45 13.3 12.2 12.6 12.0 12.1 M8.15 11.85 L7.95 11.95 7.9 11.75 8.2 11.3 8.3 11.15 8.35 11.0 8.35 10.95 8.75 10.5 8.75 10.6 9.15 10.25 9.25 10.35 8.85 10.95 8.8 11.0 9.05 10.95 9.1 11.15 8.7 11.45 Q8.5 11.55 8.35 11.6 L8.35 11.75 8.25 11.8 8.25 11.75 8.2 11.8 8.2 11.85 8.15 11.85 M9.05 15.85 L9.35 15.55 9.55 15.35 10.05 15.75 10.3 15.6 10.3 16.55 9.35 16.9 8.75 16.15 9.05 15.85" fill="#ffff09" fill-rule="evenodd" stroke="none"/>
      <path d="M8.0 15.75 L8.35 16.15 8.7 16.55 9.35 17.3 10.55 16.75 10.75 16.6 10.7 16.85 10.6 16.9 10.55 17.1 10.1 17.65 9.85 17.9 9.55 18.1 9.25 18.2 8.8 18.35 8.5 18.2 8.25 18.1 7.55 17.65 7.65 17.15 8.0 15.75" fill="#777777" fill-rule="evenodd" stroke="none"/>
      <path d="M9.75 18.35 L9.8 18.35 9.8 18.4 9.75 18.55 Q9.6 18.7 9.6 18.95 L9.35 18.9 8.6 18.8 8.6 18.75 8.5 18.75 8.85 18.65 9.55 18.4 9.75 18.35 M7.75 18.35 L7.75 18.2 8.2 18.45 8.35 18.5 8.35 18.7 7.75 18.35" fill="#373737" fill-rule="evenodd" stroke="none"/>
    </g>
    <g id="button2" transform="matrix(1.0, 0.0, 0.0, 1.0, 0.5, 0.5)">
      <use height="34.0" transform="matrix(1.0, 0.0, 0.0, 1.0, -0.5, -0.5)" width="34.0" xlink:href="#shape0"/>
      <use height="32.3" transform="matrix(1.0, 0.0, 0.0, 1.0, 0.6, 0.3)" width="32.1" xlink:href="#shape3"/>
    </g>
    <g id="shape3" transform="matrix(1.0, 0.0, 0.0, 1.0, -0.6, -0.3)">
      <path d="M29.4 0.4 Q29.85 0.1 29.85 0.7 L29.7 1.1 29.6 1.25 29.05 2.1 28.6 1.8 28.6 1.45 28.85 0.8 Q28.9 0.35 29.3 0.35 L29.4 0.4 M1.25 2.6 Q0.8 2.6 0.7 2.2 L0.7 1.7 Q0.7 1.15 1.45 0.65 2.2 0.2 2.2 0.95 L1.25 2.6 M1.85 29.35 L1.55 29.85 1.0 30.25 Q0.6 30.25 0.6 29.8 0.6 29.5 0.9 29.25 1.3 28.9 1.8 29.1 L1.85 29.35 M29.95 29.35 L29.8 29.95 29.4 30.25 Q28.95 30.25 28.95 29.8 28.95 29.4 29.45 29.0 29.95 28.55 29.95 29.35" fill="#ff6666" fill-rule="evenodd" stroke="none"/>
      <path d="M32.7 3.95 L32.7 4.35 31.45 4.6 Q30.2 4.6 30.2 4.2 30.2 3.9 30.7 3.65 L31.35 2.95 Q31.15 2.6 31.45 2.15 31.8 1.75 32.3 1.95 L32.7 3.95 M3.9 2.1 Q4.2 1.65 4.2 2.5 4.2 4.6 2.45 4.6 L2.05 4.55 Q1.95 4.05 2.1 3.9 L1.7 3.5 Q1.7 3.05 3.35 3.05 L3.9 2.1 M3.6 30.35 Q3.7 30.0 4.3 30.1 L4.35 32.05 Q4.25 32.6 3.75 32.6 L1.6 32.45 Q1.45 32.4 1.45 32.15 2.65 30.7 3.6 30.85 L3.6 30.35 M32.25 32.5 L31.25 32.5 30.25 32.5 29.85 32.05 30.05 31.8 31.3 31.25 31.2 30.65 Q31.2 30.25 31.55 29.8 31.95 29.25 32.25 29.95 L32.45 31.75 32.25 32.5" fill="#660000" fill-rule="evenodd" stroke="none"/>
      <path d="M8.25 29.9 L7.95 29.9 7.9 29.1 7.65 28.85 7.3 28.7 7.2 28.6 7.05 29.55 6.9 29.6 6.9 29.7 6.65 29.8 6.55 28.9 Q6.55 27.85 6.95 26.25 L7.35 24.8 7.35 24.65 7.6 24.0 7.2 23.8 6.95 24.55 6.8 24.8 6.5 24.65 6.2 23.7 5.7 24.1 5.5 23.95 5.55 23.0 4.7 23.0 4.3 22.75 4.4 22.55 6.05 21.6 6.1 21.2 6.4 20.65 6.5 20.65 6.05 20.25 7.35 17.45 7.1 17.1 Q6.75 16.55 6.75 16.15 L6.95 15.05 6.95 14.95 7.05 14.75 7.35 13.95 7.45 13.65 7.5 13.55 7.35 13.35 7.5 13.1 7.5 13.05 7.75 11.95 Q8.15 10.7 8.6 10.7 L8.85 10.7 8.85 10.6 8.9 10.3 9.05 9.9 8.9 8.9 8.75 7.55 Q8.75 7.05 8.9 6.65 L8.85 6.55 Q8.85 6.25 9.55 5.25 L9.55 5.0 9.6 4.9 9.6 5.0 9.7 5.0 10.0 4.4 12.25 4.15 14.0 4.2 14.05 4.15 14.0 3.85 Q14.2 3.75 14.5 4.0 L14.9 4.4 15.55 5.85 15.7 5.85 15.6 5.8 15.85 5.6 15.85 5.45 16.1 5.45 16.1 7.75 16.15 7.75 16.15 8.05 16.0 8.25 16.1 8.25 16.15 8.5 16.25 8.8 16.4 9.35 16.0 11.3 Q16.0 12.1 16.15 12.4 L16.6 13.25 16.7 13.35 16.45 13.25 16.4 13.35 16.15 13.35 16.15 13.4 16.15 13.55 16.0 13.5 16.15 13.95 16.1 14.45 15.9 14.45 15.9 14.5 15.9 14.6 16.25 15.2 16.3 15.85 16.45 15.9 16.4 16.3 17.25 18.4 17.35 19.05 17.7 19.65 17.8 19.55 17.95 19.75 18.35 20.5 19.5 20.95 19.65 21.15 24.05 21.6 24.25 21.45 27.4 22.05 27.6 21.9 27.7 22.05 28.3 22.15 27.75 25.25 27.6 25.75 27.7 25.8 27.45 25.95 27.0 25.9 27.0 25.8 24.9 25.35 23.95 25.2 23.95 25.35 23.8 25.35 23.4 25.8 23.3 26.1 23.1 26.25 22.8 26.25 22.55 26.5 22.25 26.65 21.85 26.5 21.7 26.25 21.55 26.35 21.0 26.35 20.85 26.45 20.45 26.45 20.3 26.6 20.05 26.35 18.75 25.9 18.55 25.35 18.5 25.35 17.85 24.8 17.55 25.1 16.15 25.2 16.25 25.35 15.9 25.5 15.6 25.75 15.85 26.75 15.6 27.85 15.4 28.45 15.4 28.7 Q15.3 28.85 15.0 28.85 L15.4 29.9 14.95 29.9 14.6 29.0 14.5 29.3 14.15 29.3 14.05 29.25 13.85 29.9 13.6 29.9 13.6 29.55 13.8 28.85 13.2 29.1 12.9 29.15 12.55 29.25 11.1 29.6 9.05 28.0 8.75 27.65 8.6 27.5 8.5 27.85 8.45 28.45 8.45 28.6 8.9 29.4 9.15 29.7 9.15 29.45 9.9 29.9 8.65 29.9 8.5 29.4 8.2 29.25 8.25 29.9 M22.45 23.0 L22.85 23.25 27.2 24.1 27.3 23.25 27.6 22.45 24.65 21.85 20.05 21.65 19.6 21.6 18.65 21.45 18.65 21.6 18.5 22.05 20.05 22.2 20.45 22.3 20.6 22.3 22.1 22.75 22.45 23.0 M21.3 23.45 L21.45 23.45 21.6 23.45 21.6 23.4 21.85 23.45 21.9 23.45 22.0 23.55 22.6 23.7 22.7 23.7 24.1 24.0 24.1 24.1 24.05 24.3 23.85 24.3 22.1 24.1 21.4 23.8 21.3 23.8 Q21.05 23.8 20.85 24.25 20.5 24.25 20.6 23.8 20.6 23.55 20.85 23.45 L21.3 23.45 M21.05 23.0 L17.85 22.4 17.55 22.4 16.95 22.2 16.8 22.55 16.55 22.45 16.1 22.05 11.55 21.15 11.5 21.15 11.35 20.95 11.25 20.9 10.95 20.9 7.1 20.1 7.2 20.65 7.2 21.5 7.1 22.4 6.95 23.4 7.1 23.55 7.45 23.3 9.2 22.75 9.6 22.7 10.3 22.6 10.8 22.55 10.95 22.55 11.4 22.55 11.95 22.55 12.4 22.45 12.5 22.45 12.65 22.45 12.8 22.4 12.95 22.4 13.1 22.45 13.8 22.6 13.8 22.7 19.45 23.8 19.6 24.0 19.95 24.55 20.15 24.7 20.15 24.8 21.0 24.85 21.85 24.8 21.9 24.8 22.15 24.85 22.55 24.7 22.8 24.7 22.85 24.7 23.55 24.8 23.85 24.85 24.35 24.85 24.95 24.95 25.05 24.95 27.4 25.4 27.45 24.7 27.2 24.5 22.85 23.55 21.7 23.15 21.05 23.0 M27.45 24.15 L27.55 24.15 27.9 22.55 27.85 22.45 27.75 22.45 27.45 24.15 M15.75 6.1 L15.6 6.15 15.0 6.5 14.85 6.5 14.9 6.55 12.55 6.85 12.25 6.85 12.25 7.25 14.2 7.55 15.75 7.75 15.85 7.25 15.9 6.85 15.85 6.15 15.85 6.1 15.75 6.1 M14.35 4.4 L13.8 5.55 13.05 6.5 14.5 6.15 14.6 6.15 14.75 6.1 15.15 6.0 14.45 4.45 14.35 4.4 M10.85 10.2 L10.85 9.5 11.0 9.05 11.25 8.65 10.95 7.5 Q10.95 7.25 11.4 7.2 L11.95 7.1 Q11.85 6.85 12.05 6.8 L12.05 6.55 12.4 6.55 12.9 6.25 13.65 5.25 13.8 4.55 13.65 4.55 12.25 4.45 Q10.4 4.55 9.85 5.25 L9.85 5.3 9.6 5.6 Q9.0 6.15 9.0 7.55 L9.0 7.65 9.15 8.95 Q9.2 9.35 9.4 9.6 L9.4 9.7 9.4 9.9 9.4 10.15 9.2 10.4 9.7 10.4 9.9 10.45 10.65 10.45 10.65 10.4 10.85 10.4 10.95 10.2 10.85 10.2 M13.45 8.45 L13.25 8.6 13.1 8.75 13.35 9.05 13.6 9.75 13.1 10.85 13.25 11.25 14.85 12.25 15.0 12.3 15.45 12.55 16.3 13.1 15.9 12.55 15.85 12.4 15.75 11.3 15.9 10.45 16.15 9.3 16.0 8.9 15.9 8.9 13.45 8.35 13.45 8.45 M13.05 8.35 L12.8 8.35 12.8 7.9 12.9 7.75 12.05 7.65 12.05 7.4 11.95 7.4 11.4 7.5 11.35 7.55 11.55 8.75 11.5 9.15 11.25 9.5 11.25 9.7 11.25 9.9 11.25 10.2 11.25 10.4 11.4 10.45 12.4 10.85 12.65 10.9 12.95 11.1 12.9 10.85 13.1 10.3 13.35 9.75 13.1 9.2 12.9 8.95 12.9 8.65 12.9 8.5 13.05 8.35 M13.5 8.1 L14.9 8.2 15.55 8.2 15.55 8.1 13.35 7.8 13.25 7.95 Q13.35 7.95 13.5 8.1 M9.0 12.95 Q9.75 12.55 10.65 12.65 L11.25 12.7 11.95 12.95 12.25 13.1 12.35 13.1 Q13.05 13.4 13.45 14.25 L13.6 14.95 13.75 15.9 13.8 15.9 13.8 16.2 13.9 16.2 13.9 17.95 14.0 17.8 Q14.5 16.6 14.45 14.6 L14.45 14.35 14.45 14.2 14.35 13.25 14.35 13.1 14.3 12.85 14.05 12.5 Q13.45 11.6 11.8 10.9 10.65 10.45 9.6 11.15 8.9 11.6 8.35 12.55 L8.15 13.05 7.8 13.55 7.65 13.9 7.75 13.9 Q8.0 13.5 8.5 13.2 L8.75 13.05 8.9 12.95 9.0 12.95 M9.85 10.75 L9.85 10.7 9.75 10.7 9.6 10.75 9.85 10.75 M8.15 12.0 L7.9 12.8 8.0 12.8 8.05 12.55 8.7 11.4 9.15 11.15 9.05 11.15 8.6 11.1 Q8.35 11.1 8.2 11.95 L8.15 12.0 M8.6 13.5 L8.3 13.95 7.6 14.95 7.5 15.05 7.45 15.35 Q7.9 14.95 8.7 14.6 L9.05 14.5 9.9 14.35 11.7 14.65 Q12.4 14.9 12.8 16.0 L12.9 16.45 13.1 17.85 13.1 18.15 13.2 18.1 13.35 18.0 13.6 18.0 13.65 18.0 Q13.5 17.4 13.5 16.4 L13.5 15.6 13.5 15.5 13.45 14.95 13.25 14.5 13.05 14.05 12.55 13.5 12.25 13.35 11.95 13.2 10.65 12.85 10.4 12.85 9.4 13.05 Q8.9 13.1 8.85 13.35 L8.6 13.5 M8.6 15.05 L8.6 15.15 8.0 15.6 8.05 15.9 8.05 16.0 8.05 16.2 9.7 17.25 10.15 17.95 11.65 17.7 Q11.8 17.7 12.2 18.1 L12.75 17.95 12.55 16.9 Q12.2 15.2 11.55 14.9 L9.4 14.75 8.6 15.05 M7.2 16.0 L7.2 15.6 7.05 16.0 7.35 16.75 7.45 16.0 7.35 16.0 7.35 16.05 7.2 16.0 M7.75 16.0 Q7.45 16.45 7.65 17.15 L7.8 17.6 8.15 18.25 8.15 18.15 8.3 18.15 8.9 17.85 9.0 17.8 9.3 17.7 9.45 17.6 9.05 17.15 8.7 16.85 8.2 16.6 7.9 16.55 Q7.75 16.45 7.75 16.0 M9.05 18.1 L8.35 18.55 8.45 18.8 8.9 19.65 10.25 19.4 10.45 18.3 10.45 18.25 10.1 18.25 9.55 17.8 9.4 17.85 9.05 18.1 M7.75 19.9 L8.0 19.95 8.05 20.05 10.15 20.45 10.45 19.95 10.8 19.65 8.85 20.05 8.75 19.9 8.2 19.2 8.15 19.05 7.6 17.85 6.75 19.5 6.55 20.1 6.75 20.35 6.75 20.05 7.35 19.8 7.75 19.95 7.75 19.9 M6.65 20.8 L6.4 21.35 6.75 21.15 6.8 21.15 6.75 20.9 6.65 20.8 M6.5 22.0 L6.2 22.15 5.95 22.2 5.15 22.55 6.05 22.75 5.85 23.0 5.95 23.3 6.25 23.1 6.5 23.25 6.75 24.1 6.9 23.8 Q6.5 23.55 6.9 22.7 L6.9 21.75 6.5 22.0 M8.0 24.25 L7.75 24.95 7.65 25.2 Q7.9 25.25 8.0 25.4 L8.05 25.4 8.5 24.5 8.05 24.3 8.0 24.25 M7.75 23.7 L8.6 24.0 8.75 24.1 8.9 24.15 10.0 24.55 9.75 24.25 9.3 23.15 7.6 23.6 7.75 23.7 M15.3 12.7 L15.4 12.8 16.0 13.2 15.75 12.95 15.3 12.7 M15.2 14.2 L15.55 14.75 15.45 14.25 15.2 14.2 M15.75 19.35 L16.0 19.1 16.45 18.1 16.45 17.95 15.6 15.7 15.45 15.2 15.2 14.8 14.9 14.35 15.0 14.25 14.75 14.2 14.7 14.65 14.7 14.75 14.45 17.8 14.15 18.3 14.05 18.3 14.0 18.3 13.8 18.15 13.75 18.25 13.65 18.3 13.75 18.15 13.65 18.1 13.65 18.15 13.65 18.3 13.75 18.55 13.9 19.05 14.0 19.25 14.05 19.5 14.05 19.55 14.15 19.55 14.75 19.75 15.05 19.75 15.3 19.75 15.75 19.35 M15.75 14.65 L15.6 14.9 15.85 15.6 15.75 15.2 15.75 14.65 M15.85 14.05 Q15.7 13.65 15.85 13.4 L15.05 13.1 14.85 13.5 14.85 13.65 15.55 13.95 15.85 14.05 M16.15 16.15 L16.15 16.05 16.1 16.05 16.15 16.15 M16.8 18.25 L16.3 19.05 16.55 20.45 16.8 19.8 16.85 18.4 16.8 18.25 M14.85 12.7 L14.5 12.65 14.7 12.85 14.85 12.7 M11.35 18.1 L10.8 18.25 10.8 18.85 10.7 19.2 10.65 19.35 11.0 19.25 11.4 19.2 11.5 19.2 11.8 18.85 12.05 18.55 12.55 18.3 11.35 18.1 M13.35 18.4 L12.9 18.55 12.8 18.65 12.55 18.85 12.75 19.25 12.9 19.9 Q12.9 20.35 12.05 20.6 L12.05 20.8 13.8 21.15 13.9 21.05 14.15 20.65 14.3 20.5 14.6 20.1 13.65 19.65 13.6 19.5 13.5 19.35 13.5 19.25 13.35 19.2 13.25 19.1 13.35 19.05 13.45 18.95 13.45 18.65 13.45 18.4 13.35 18.4 M14.5 20.8 L14.2 21.2 15.6 21.5 15.45 21.2 16.15 20.75 15.9 19.55 15.3 20.1 15.05 20.1 14.6 20.8 14.5 20.8 M12.55 19.8 L12.25 19.1 11.95 19.25 11.8 19.35 11.35 19.55 10.45 20.5 11.55 20.75 11.15 19.95 11.4 19.75 11.85 20.35 12.2 20.1 12.55 19.8 M12.55 22.9 L12.4 22.85 10.8 22.9 10.4 22.9 9.75 23.0 10.7 25.1 10.8 25.25 11.5 25.35 11.55 25.2 12.05 25.25 12.25 25.25 12.5 24.55 12.8 23.95 13.25 23.4 13.2 23.4 12.9 23.15 12.55 22.9 M13.75 23.0 L13.35 22.9 13.25 23.15 13.35 23.15 13.5 23.25 13.65 23.25 13.65 23.15 13.75 23.0 M12.8 25.4 Q13.2 24.4 13.65 23.95 L13.65 23.8 13.65 23.6 13.65 23.45 13.45 23.45 13.1 24.0 Q12.75 24.55 12.75 25.0 L12.5 25.35 12.75 25.55 12.8 25.4 M14.05 24.15 L14.0 24.25 13.45 25.25 13.2 25.9 13.1 25.95 12.9 26.35 12.75 26.5 13.5 26.8 13.75 26.8 13.75 26.5 13.9 26.2 14.5 25.55 15.3 24.7 15.2 24.5 15.15 24.15 Q15.3 23.6 15.7 23.45 L14.05 23.1 14.15 23.25 14.15 23.45 14.15 23.55 14.05 23.8 14.05 24.15 M18.05 21.45 L17.8 21.9 18.2 22.0 18.35 21.45 18.05 21.45 M18.1 20.6 L18.05 20.35 17.7 19.95 17.25 20.45 17.25 20.5 17.65 20.95 17.7 20.9 18.1 20.65 18.1 20.6 M18.25 20.8 L18.25 20.9 18.55 20.95 18.25 20.8 M17.35 19.9 L17.55 19.75 17.35 19.35 17.25 19.65 17.15 20.1 17.35 19.9 M16.25 21.6 L16.3 21.65 16.55 22.0 17.35 21.85 17.4 21.85 17.5 21.5 17.7 21.35 17.35 21.2 16.95 20.8 16.85 20.75 16.1 21.3 16.0 21.3 16.1 21.35 16.25 21.6 M15.7 23.95 L15.7 24.1 15.75 24.5 15.75 24.55 16.0 24.85 16.45 24.8 17.55 24.55 16.8 23.95 16.45 23.6 16.1 23.55 16.0 23.6 15.7 23.95 M17.35 23.8 L17.55 23.95 17.55 23.8 17.35 23.8 M17.95 23.85 L17.95 24.3 18.5 24.85 18.5 24.65 18.65 24.8 18.8 24.85 19.05 25.1 19.1 25.0 19.25 25.0 19.65 24.85 19.45 24.7 19.1 24.1 17.95 23.85 M19.35 25.5 L19.25 25.4 19.05 25.4 19.05 25.55 19.05 25.65 19.65 26.05 19.65 25.95 19.75 25.8 19.8 25.35 19.35 25.5 M19.95 25.9 L20.45 25.95 20.35 25.75 20.45 25.5 20.05 25.5 19.95 25.9 M15.6 25.25 L14.85 25.65 14.05 26.45 14.15 26.6 14.45 26.45 Q14.5 26.25 14.7 26.2 L14.9 26.05 15.15 25.8 15.4 25.55 15.55 25.35 15.6 25.25 M15.4 26.05 L15.2 26.35 15.45 26.45 15.55 26.35 15.45 25.95 15.4 26.05 M15.55 26.65 L15.15 26.65 15.2 27.5 15.55 26.65 M13.25 27.2 L11.55 27.75 Q11.0 27.75 9.9 27.15 L9.85 27.15 9.15 26.65 8.85 26.2 8.7 27.05 8.6 27.35 8.75 27.3 8.9 27.45 9.9 28.2 Q10.95 29.15 11.1 29.15 L12.75 29.0 13.1 28.85 13.75 28.55 13.9 28.55 14.05 27.75 14.15 27.3 14.2 27.2 13.45 27.2 13.25 27.2 M14.45 27.65 L14.3 28.3 Q14.2 28.35 14.2 28.55 L14.35 28.45 14.85 28.35 14.9 28.3 15.0 28.3 15.0 28.15 14.7 26.75 14.45 27.65 M12.25 25.55 L12.2 25.5 10.55 25.5 10.3 25.25 Q9.4 25.0 9.0 24.65 L8.85 25.75 9.7 26.45 10.4 26.8 10.45 26.9 11.65 27.35 11.8 27.35 12.25 27.2 12.75 27.05 12.5 26.75 12.25 26.95 12.25 26.75 12.4 26.25 12.5 26.2 12.4 26.1 12.25 25.75 12.25 25.55 M7.65 25.75 L7.6 25.65 7.45 26.8 7.35 26.95 7.45 26.95 7.6 26.65 7.8 25.8 7.65 25.75 M8.45 26.35 Q8.5 25.5 8.7 24.95 L7.75 27.05 Q7.45 27.75 7.3 28.35 L7.45 28.35 8.0 28.55 8.2 28.7 8.3 28.7 8.15 28.45 8.2 27.75 8.45 26.35 M23.0 25.1 L22.6 25.1 22.4 25.25 22.7 25.5 22.8 25.8 23.25 25.25 23.0 25.1 M22.25 25.1 L22.0 25.1 22.15 25.2 22.25 25.1 M21.6 25.25 L21.4 25.75 21.15 25.95 21.2 26.05 21.6 25.95 21.7 25.95 21.85 26.05 21.85 25.75 22.0 25.5 21.7 25.25 21.6 25.25 M22.1 26.05 Q22.1 26.25 22.25 26.25 L22.45 26.2 22.55 26.1 22.55 25.95 22.3 25.55 22.25 25.5 22.25 25.55 22.15 25.8 22.1 25.9 22.1 26.05 M21.3 25.2 L20.85 25.2 20.75 25.25 21.15 25.4 21.2 25.35 21.3 25.2 M20.6 25.55 L20.6 25.75 20.7 25.9 20.9 26.05 20.9 25.8 21.0 25.8 21.0 25.75 20.9 25.75 20.7 25.55 20.6 25.55" fill="#000000" fill-rule="evenodd" stroke="none"/>
      <path d="M8.6 15.05 L9.4 14.75 11.55 14.9 Q12.2 15.2 12.55 16.9 L12.75 17.95 12.2 18.1 Q11.8 17.7 11.65 17.7 L10.15 17.95 9.7 17.25 8.05 16.2 8.05 16.0 8.05 15.9 8.0 15.6 8.6 15.15 8.6 15.05 M15.2 14.2 L15.45 14.25 15.55 14.75 15.2 14.2" fill="#626262" fill-rule="evenodd" stroke="none"/>
      <path d="M9.0 12.95 L9.05 12.7 9.45 12.65 10.1 12.4 10.0 12.1 9.7 12.15 9.75 12.0 10.4 11.4 10.45 11.25 Q10.3 11.25 9.75 11.55 L9.85 11.45 9.2 11.95 9.2 12.0 9.05 12.1 8.9 12.3 8.5 12.8 8.35 12.95 8.75 13.05 8.5 13.2 Q8.0 13.5 7.75 13.9 L7.65 13.9 7.8 13.55 8.15 13.05 8.35 12.55 Q8.9 11.6 9.6 11.15 10.65 10.45 11.8 10.9 13.45 11.6 14.05 12.5 L14.3 12.85 14.35 13.1 14.2 13.05 14.0 13.25 13.9 14.9 13.8 14.75 13.45 13.9 13.45 14.25 Q13.05 13.4 12.35 13.1 L12.25 13.1 11.95 12.95 11.25 12.7 10.65 12.65 Q9.75 12.55 9.0 12.95 M8.75 13.05 L8.9 12.85 8.9 12.95 8.75 13.05 M10.7 11.7 L10.95 12.15 12.35 12.1 12.25 12.15 Q12.05 12.8 12.25 12.85 L12.35 12.85 12.75 12.3 12.9 12.7 Q12.95 13.05 13.45 13.25 L13.75 13.2 14.0 13.1 13.75 12.55 13.6 12.8 13.75 13.05 13.6 13.05 13.45 12.95 Q13.05 12.8 13.05 12.5 L12.8 12.1 12.9 11.95 12.95 11.6 Q12.65 11.55 12.5 11.85 L11.7 11.8 11.15 12.0 10.95 11.95 10.95 11.8 11.1 11.6 10.95 11.55 10.7 11.7 M9.85 10.75 L9.6 10.75 9.75 10.7 9.85 10.7 9.85 10.75 M15.3 12.7 L15.75 12.95 16.0 13.2 15.4 12.8 15.3 12.7 M14.35 13.25 L14.45 14.2 14.45 14.35 14.45 14.6 Q14.5 16.6 14.0 17.8 L13.9 17.95 13.9 16.2 14.0 16.2 14.05 16.05 14.3 14.45 14.35 13.25" fill="#bfbfbf" fill-rule="evenodd" stroke="none"/>
      <path d="M8.6 13.5 L8.85 13.35 Q8.9 13.1 9.4 13.05 L10.4 12.85 10.65 12.85 11.95 13.2 12.25 13.35 12.55 13.5 13.05 14.05 13.25 14.5 13.45 14.95 13.5 15.5 13.5 15.6 13.5 16.4 Q13.5 17.4 13.65 18.0 L13.6 18.0 13.35 18.0 13.2 18.1 13.1 18.15 13.1 17.85 12.9 16.45 12.8 16.0 Q12.4 14.9 11.7 14.65 L9.9 14.35 9.05 14.5 8.7 14.6 Q7.9 14.95 7.45 15.35 L7.5 15.05 7.6 14.95 8.3 13.95 8.6 13.5 M15.85 14.05 L15.55 13.95 14.85 13.65 14.85 13.5 15.05 13.1 15.85 13.4 Q15.7 13.65 15.85 14.05" fill="#8c8c8c" fill-rule="evenodd" stroke="none"/>
      <path d="M7.75 16.0 Q7.75 16.45 7.9 16.55 L8.2 16.6 8.7 16.85 9.05 17.15 9.45 17.6 9.3 17.7 9.0 17.8 8.9 17.85 8.3 18.15 8.15 18.15 8.15 18.25 7.8 17.6 7.65 17.15 Q7.45 16.45 7.75 16.0 M7.75 23.7 L7.6 23.6 9.3 23.15 9.75 24.25 10.0 24.55 8.9 24.15 8.75 24.1 8.6 24.0 7.75 23.7 M15.75 14.65 L15.75 15.2 15.85 15.6 15.6 14.9 15.75 14.65 M16.15 16.15 L16.1 16.05 16.15 16.05 16.15 16.15 M13.35 18.4 L13.45 18.4 13.45 18.65 13.45 18.95 13.35 19.05 13.25 19.1 13.35 19.2 13.5 19.25 13.5 19.35 13.6 19.5 13.65 19.65 14.6 20.1 14.3 20.5 14.15 20.65 13.9 21.05 13.8 21.15 12.05 20.8 12.05 20.6 Q12.9 20.35 12.9 19.9 L12.75 19.25 12.55 18.85 12.8 18.65 12.9 18.55 13.35 18.4 M11.35 18.1 L12.55 18.3 12.05 18.55 11.8 18.85 11.5 19.2 11.4 19.2 11.0 19.25 10.65 19.35 10.7 19.2 10.8 18.85 10.8 18.25 11.35 18.1 M18.25 20.8 L18.55 20.95 18.25 20.9 18.25 20.8 M17.95 23.85 L19.1 24.1 19.45 24.7 19.65 24.85 19.25 25.0 19.1 25.0 19.05 25.1 18.8 24.85 18.65 24.8 18.5 24.65 18.5 24.85 17.95 24.3 17.95 23.85 M17.35 23.8 L17.55 23.8 17.55 23.95 17.35 23.8" fill="#404040" fill-rule="evenodd" stroke="none"/>
      <path d="M7.75 19.9 L7.75 19.95 7.35 19.8 6.75 20.05 6.75 20.35 6.55 20.1 6.75 19.5 7.6 17.85 8.15 19.05 8.2 19.2 8.75 19.9 8.85 20.05 10.8 19.65 10.45 19.95 10.15 20.45 8.05 20.05 8.0 19.95 7.75 19.9 M16.8 18.25 L16.85 18.4 16.8 19.8 16.55 20.45 16.3 19.05 16.8 18.25" fill="#777777" fill-rule="evenodd" stroke="none"/>
      <path d="M8.75 13.05 L8.35 12.95 8.5 12.8 8.9 12.3 9.05 12.1 9.2 12.0 9.2 11.95 9.85 11.45 9.75 11.55 Q10.3 11.25 10.45 11.25 L10.4 11.4 9.75 12.0 9.7 12.15 10.0 12.1 10.1 12.4 9.45 12.65 9.05 12.7 9.0 12.95 8.9 12.95 8.9 12.85 8.75 13.05 M13.45 14.25 L13.45 13.9 13.8 14.75 13.9 14.9 14.0 13.25 14.2 13.05 14.35 13.1 14.35 13.25 14.3 14.45 14.05 16.05 14.0 16.2 13.9 16.2 13.8 16.2 13.8 15.9 13.75 15.9 13.6 14.95 13.45 14.25 M10.7 11.7 L10.95 11.55 11.1 11.6 10.95 11.8 10.95 11.95 11.15 12.0 11.7 11.8 12.5 11.85 Q12.65 11.55 12.95 11.6 L12.9 11.95 12.8 12.1 13.05 12.5 Q13.05 12.8 13.45 12.95 L13.6 13.05 13.75 13.05 13.6 12.8 13.75 12.55 14.0 13.1 13.75 13.2 13.45 13.25 Q12.95 13.05 12.9 12.7 L12.75 12.3 12.35 12.85 12.25 12.85 Q12.05 12.8 12.25 12.15 L12.35 12.1 10.95 12.15 10.7 11.7 M9.05 18.1 L9.4 17.85 9.55 17.8 10.1 18.25 10.45 18.25 10.45 18.3 10.25 19.4 8.9 19.65 8.45 18.8 8.35 18.55 9.05 18.1" fill="#ffff09" fill-rule="evenodd" stroke="none"/>
      <path d="M6.65 20.8 L6.75 20.9 6.8 21.15 6.75 21.15 6.4 21.35 6.65 20.8 M17.35 19.9 L17.15 20.1 17.25 19.65 17.35 19.35 17.55 19.75 17.35 19.9" fill="#373737" fill-rule="evenodd" stroke="none"/>
      <path d="M13.6 29.9 L11.4 29.9 11.15 29.85 10.95 29.9 9.9 29.9 9.15 29.45 9.15 29.7 8.9 29.4 8.45 28.6 8.45 28.45 8.5 27.85 8.6 27.5 8.75 27.65 9.05 28.0 11.1 29.6 12.55 29.25 12.9 29.15 13.2 29.1 13.8 28.85 13.6 29.55 13.6 29.9 M8.0 24.25 L8.05 24.3 8.5 24.5 8.05 25.4 8.0 25.4 Q7.9 25.25 7.65 25.2 L7.75 24.95 8.0 24.25 M12.4 22.85 L12.5 22.9 12.55 22.9 12.9 23.15 13.2 23.4 13.25 23.4 12.8 23.95 12.5 24.55 12.25 25.25 12.05 25.25 11.55 25.2 11.55 25.1 10.85 24.85 10.3 23.0 10.4 22.9 11.1 23.3 11.15 23.15 10.8 22.9 12.4 22.85 M12.8 25.4 L12.75 25.55 12.5 25.35 12.75 25.0 Q12.65 25.25 12.8 25.4 M19.75 25.8 L19.35 25.5 19.8 25.35 19.75 25.8 M15.6 25.25 L15.55 25.35 15.4 25.55 15.15 25.8 14.9 26.05 14.7 26.2 Q14.5 26.25 14.45 26.45 L14.15 26.6 14.05 26.45 14.85 25.65 15.6 25.25 M19.95 25.9 L20.05 25.5 20.45 25.5 20.35 25.75 20.45 25.95 19.95 25.9 M13.25 27.2 L13.45 27.2 14.2 27.2 14.15 27.3 14.05 27.75 13.9 28.55 13.75 28.55 13.1 28.85 12.75 29.0 11.1 29.15 Q10.95 29.15 9.9 28.2 L8.9 27.45 8.75 27.3 8.6 27.35 8.7 27.05 8.85 26.2 9.15 26.65 9.85 27.15 9.9 27.15 Q11.0 27.75 11.55 27.75 L13.25 27.2 M15.55 26.65 L15.2 27.5 15.15 26.65 15.55 26.65 M12.25 25.55 L12.25 25.75 12.4 26.1 12.5 26.2 12.4 26.25 12.25 26.75 12.25 26.95 12.5 26.75 12.75 27.05 12.25 27.2 11.8 27.35 11.65 27.35 10.45 26.9 10.4 26.8 9.7 26.45 8.85 25.75 9.0 24.65 Q9.4 25.0 10.3 25.25 L10.55 25.5 12.2 25.5 12.25 25.55 M11.5 26.9 Q11.95 26.9 11.95 26.5 L11.35 26.1 Q10.95 26.1 11.0 26.5 11.0 26.9 11.5 26.9 M11.4 29.0 L11.65 28.7 Q11.65 28.3 11.25 28.35 10.8 28.35 10.8 28.75 10.8 29.0 11.4 29.0 M7.65 25.75 L7.8 25.8 7.6 26.65 7.45 26.95 7.35 26.95 7.45 26.8 7.6 25.65 7.65 25.75 M20.6 25.55 L20.7 25.55 20.9 25.75 21.0 25.75 21.0 25.8 20.9 25.8 20.9 26.05 20.7 25.9 20.6 25.75 20.6 25.55 M21.3 25.2 L21.2 25.35 21.15 25.4 20.75 25.25 20.85 25.2 21.3 25.2 M22.1 26.05 L22.1 25.9 22.15 25.8 22.25 25.55 22.25 25.5 22.3 25.55 22.55 25.95 22.55 26.1 22.45 26.2 22.25 26.25 Q22.1 26.25 22.1 26.05 M21.6 25.25 L21.7 25.25 22.0 25.5 21.85 25.75 21.85 26.05 21.7 25.95 21.6 25.95 21.2 26.05 21.15 25.95 21.4 25.75 21.6 25.25 M22.25 25.1 L22.15 25.2 22.0 25.1 22.25 25.1 M23.0 25.1 L23.25 25.25 22.8 25.8 22.7 25.5 22.4 25.25 22.6 25.1 23.0 25.1" fill="#7b7b7b" fill-rule="evenodd" stroke="none"/>
      <path d="M11.4 29.9 L10.95 29.9 11.15 29.85 11.4 29.9 M9.6 5.6 L9.7 5.7 9.45 6.7 Q9.2 7.2 9.2 7.65 L9.4 8.8 9.6 9.7 10.1 8.9 10.15 9.2 10.15 9.3 10.25 9.2 10.3 9.35 10.0 9.75 9.9 10.0 10.85 10.2 10.95 10.2 10.85 10.4 10.65 10.4 9.7 10.4 9.2 10.4 9.4 10.15 9.45 10.05 9.4 9.7 9.4 9.6 Q9.2 9.35 9.15 8.95 L9.0 7.65 9.0 7.55 Q9.0 6.15 9.6 5.6 M13.65 8.5 L13.75 8.65 14.75 8.75 14.85 8.8 14.5 9.05 14.0 8.9 14.0 9.05 14.05 9.85 13.8 10.4 14.2 10.4 14.5 10.4 13.9 10.85 13.75 10.85 14.35 11.4 14.9 11.8 15.2 11.95 15.75 12.25 15.75 12.4 15.45 12.3 Q14.35 11.95 13.8 11.4 L13.45 11.0 13.25 11.0 13.35 10.7 13.8 9.6 13.75 9.3 13.6 9.3 13.45 8.75 13.65 8.5 M6.5 22.0 L6.9 21.75 6.9 22.7 Q6.5 23.55 6.9 23.8 L6.75 24.1 6.5 23.25 6.25 23.1 5.95 23.3 5.85 23.0 6.05 22.75 5.15 22.55 5.95 22.2 6.2 22.15 6.5 22.0 M14.7 14.75 L14.7 14.65 14.75 14.2 15.0 14.25 14.9 14.35 15.2 14.8 15.45 15.2 15.6 15.7 16.45 17.95 16.45 18.1 16.0 19.1 15.75 19.35 15.05 19.75 14.75 19.75 14.15 19.55 14.05 19.5 14.0 19.25 14.05 19.1 13.75 18.25 13.8 18.15 14.0 18.3 14.05 18.3 14.15 18.7 15.05 18.65 15.15 18.85 14.85 19.05 14.9 19.35 14.9 19.5 15.75 19.05 15.85 18.65 16.1 18.15 16.0 17.8 15.3 17.7 14.9 17.55 14.9 17.4 15.9 17.4 15.4 16.05 14.7 14.75 M12.55 22.9 L12.5 22.9 12.4 22.85 12.55 22.9 M10.8 22.9 L11.15 23.15 11.1 23.3 10.4 22.9 10.3 23.0 10.85 24.85 11.55 25.1 11.55 25.2 11.5 25.35 10.8 25.25 10.7 25.1 9.75 23.0 10.4 22.9 10.8 22.9 M12.75 25.0 Q12.75 24.55 13.1 24.0 L13.45 23.45 13.65 23.45 13.65 23.6 13.65 23.8 13.65 23.95 Q13.2 24.4 12.8 25.4 12.65 25.25 12.75 25.0 M18.1 20.6 L18.1 20.65 17.7 20.9 17.65 20.95 17.25 20.5 17.25 20.45 17.7 19.95 18.05 20.35 18.1 20.6 M19.75 25.8 L19.65 25.95 19.65 26.05 19.05 25.65 19.05 25.55 19.05 25.4 19.25 25.4 19.35 25.5 19.75 25.8 M15.4 26.05 L15.45 25.95 15.55 26.35 15.45 26.45 15.2 26.35 15.4 26.05 M11.5 26.9 Q11.0 26.9 11.0 26.5 10.95 26.1 11.35 26.1 L11.95 26.5 Q11.95 26.9 11.5 26.9 M11.4 29.0 Q10.8 29.0 10.8 28.75 10.8 28.35 11.25 28.35 11.65 28.3 11.65 28.7 L11.4 29.0" fill="#ffff00" fill-rule="evenodd" stroke="none"/>
      <path d="M8.65 29.9 L8.25 29.9 8.2 29.25 8.5 29.4 8.65 29.9" fill="#666666" fill-rule="evenodd" stroke="none"/>
      <path d="M14.95 29.9 L13.85 29.9 14.05 29.25 14.15 29.3 14.5 29.3 14.6 29.0 14.95 29.9" fill="#a6a6a6" fill-rule="evenodd" stroke="none"/>
      <path d="M12.55 19.8 L12.2 20.1 11.85 20.35 11.4 19.75 11.15 19.95 11.55 20.75 10.45 20.5 11.35 19.55 11.8 19.35 11.95 19.25 12.25 19.1 12.55 19.8" fill="#333333" fill-rule="evenodd" stroke="none"/>
      <path d="M14.35 4.4 L14.45 4.45 15.15 6.0 14.75 6.1 14.6 6.15 14.5 6.15 13.05 6.5 13.8 5.55 14.35 4.4 M13.05 8.35 L12.9 8.5 12.9 8.65 12.9 8.95 13.1 9.2 13.35 9.75 13.1 10.3 12.9 10.85 12.95 11.1 12.65 10.9 12.4 10.85 11.4 10.45 11.25 10.4 11.25 10.2 11.25 9.9 11.25 9.7 11.25 9.5 11.5 9.15 11.55 8.75 11.35 7.55 11.4 7.5 11.95 7.4 12.05 7.4 12.05 7.65 12.9 7.75 12.8 7.9 12.8 8.35 13.05 8.35" fill="#555555" fill-rule="evenodd" stroke="none"/>
      <path d="M9.6 5.6 L9.85 5.3 9.85 5.25 Q10.4 4.55 12.25 4.45 L13.65 4.55 13.8 4.55 13.65 5.25 12.9 6.25 12.4 6.55 12.05 6.55 12.05 6.8 Q11.85 6.85 11.95 7.1 L11.4 7.2 Q10.95 7.25 10.95 7.5 L11.25 8.65 11.0 9.05 10.85 9.5 10.85 10.2 9.9 10.0 10.0 9.75 10.3 9.35 10.25 9.2 10.15 9.3 10.15 9.2 10.1 8.9 9.6 9.7 9.4 8.8 9.2 7.65 Q9.2 7.2 9.45 6.7 L9.7 5.7 9.6 5.6 M10.65 10.4 L10.65 10.45 9.9 10.45 9.7 10.4 10.65 10.4 M9.4 10.15 L9.4 9.9 9.4 9.7 9.45 10.05 9.4 10.15" fill="#9d9d9d" fill-rule="evenodd" stroke="none"/>
      <path d="M15.75 6.1 L15.85 6.1 15.85 6.15 15.9 6.85 15.85 7.25 15.75 7.75 14.2 7.55 12.25 7.25 12.25 6.85 12.55 6.85 14.9 6.55 14.85 6.5 15.0 6.5 15.6 6.15 15.75 6.1 M13.45 8.45 L13.45 8.35 15.9 8.9 16.0 8.9 16.15 9.3 15.9 10.45 15.75 11.3 15.85 12.4 15.9 12.55 16.3 13.1 15.45 12.55 15.0 12.3 14.85 12.25 13.25 11.25 13.1 10.85 13.6 9.75 13.35 9.05 13.1 8.75 13.25 8.6 13.45 8.45 M13.65 8.5 L13.45 8.75 13.6 9.3 13.75 9.3 13.8 9.6 13.35 10.7 13.25 11.0 13.45 11.0 13.8 11.4 Q14.35 11.95 15.45 12.3 L15.75 12.4 15.75 12.25 15.2 11.95 14.9 11.8 14.35 11.4 13.75 10.85 13.9 10.85 14.5 10.4 14.2 10.4 13.8 10.4 14.05 9.85 14.0 9.05 14.0 8.9 14.5 9.05 14.85 8.8 14.75 8.75 13.75 8.65 13.65 8.5" fill="#b3b3b3" fill-rule="evenodd" stroke="none"/>
      <path d="M13.5 8.1 Q13.35 7.95 13.25 7.95 L13.35 7.8 15.55 8.1 15.55 8.2 14.9 8.2 13.5 8.1" fill="#ff1111" fill-rule="evenodd" stroke="none"/>
      <path d="M7.2 16.0 L7.35 16.05 7.35 16.0 7.45 16.0 7.35 16.75 7.05 16.0 7.2 15.6 7.2 16.0" fill="#cccccc" fill-rule="evenodd" stroke="none"/>
      <path d="M8.15 12.0 L8.2 11.95 Q8.35 11.1 8.6 11.1 L9.05 11.15 9.15 11.15 8.7 11.4 8.05 12.55 8.0 12.8 7.9 12.8 8.15 12.0 M14.85 12.7 L14.7 12.85 14.5 12.65 14.85 12.7" fill="#515151" fill-rule="evenodd" stroke="none"/>
      <path d="M15.75 19.35 L15.3 19.75 15.05 19.75 15.75 19.35 M14.15 19.55 L14.05 19.55 14.05 19.5 14.15 19.55 M14.0 19.25 L13.9 19.05 13.75 18.55 13.65 18.3 13.65 18.15 13.65 18.1 13.75 18.15 13.65 18.3 13.75 18.25 14.05 19.1 14.0 19.25 M14.05 18.3 L14.15 18.3 14.45 17.8 14.7 14.75 15.4 16.05 15.9 17.4 14.9 17.4 14.9 17.55 15.3 17.7 16.0 17.8 16.1 18.15 15.85 18.65 15.75 19.05 14.9 19.5 14.9 19.35 14.85 19.05 15.15 18.85 15.05 18.65 14.15 18.7 14.05 18.3" fill="#c8c8c8" fill-rule="evenodd" stroke="none"/>
      <path d="M14.5 20.8 L14.6 20.8 15.05 20.1 15.3 20.1 15.9 19.55 16.15 20.75 15.45 21.2 15.6 21.5 14.2 21.2 14.5 20.8 M13.75 23.0 L13.65 23.15 13.65 23.25 13.5 23.25 13.35 23.15 13.25 23.15 13.35 22.9 13.75 23.0" fill="#999999" fill-rule="evenodd" stroke="none"/>
      <path d="M14.45 27.65 L14.7 26.75 15.0 28.15 15.0 28.3 14.9 28.3 14.85 28.35 14.35 28.45 14.2 28.55 Q14.2 28.35 14.3 28.3 L14.45 27.65 M8.45 26.35 L8.2 27.75 8.15 28.45 8.3 28.7 8.2 28.7 8.0 28.55 7.45 28.35 7.3 28.35 Q7.45 27.75 7.75 27.05 L8.7 24.95 Q8.5 25.5 8.45 26.35" fill="#2b2b2b" fill-rule="evenodd" stroke="none"/>
      <path d="M21.05 23.0 L21.7 23.15 22.85 23.55 27.2 24.5 27.45 24.7 27.4 25.4 25.05 24.95 24.95 24.95 24.35 24.85 23.85 24.85 23.55 24.8 22.85 24.7 22.8 24.7 22.55 24.7 22.15 24.85 21.9 24.8 21.85 24.8 21.0 24.85 20.15 24.8 20.15 24.7 19.95 24.55 19.6 24.0 19.45 23.8 13.8 22.7 13.8 22.6 13.1 22.45 12.95 22.4 12.8 22.4 12.65 22.45 12.5 22.45 12.4 22.45 11.95 22.55 11.4 22.55 10.95 22.55 10.8 22.55 10.3 22.6 9.6 22.7 9.2 22.75 7.45 23.3 7.1 23.55 6.95 23.4 7.1 22.4 7.2 21.5 7.2 20.65 7.1 20.1 10.95 20.9 11.25 20.9 11.35 20.95 11.5 21.15 11.55 21.15 16.1 22.05 16.55 22.45 16.8 22.55 16.95 22.2 17.55 22.4 17.85 22.4 21.05 23.0 M21.3 23.45 L20.85 23.45 Q20.6 23.55 20.6 23.8 20.5 24.25 20.85 24.25 21.05 23.8 21.3 23.8 L21.4 23.8 22.1 24.1 23.85 24.3 24.05 24.3 24.1 24.1 24.1 24.0 22.7 23.7 22.6 23.7 22.0 23.55 21.9 23.45 21.85 23.45 21.6 23.4 21.6 23.45 21.45 23.45 21.3 23.45 M14.05 24.15 L14.05 23.8 14.15 23.55 14.15 23.45 14.15 23.25 14.05 23.1 15.7 23.45 Q15.3 23.6 15.15 24.15 L15.2 24.5 15.3 24.7 14.5 25.55 13.9 26.2 13.75 26.5 13.75 26.8 13.5 26.8 12.75 26.5 12.9 26.35 13.1 25.95 13.2 25.9 13.45 25.25 14.0 24.25 14.05 24.15" fill="#803c21" fill-rule="evenodd" stroke="none"/>
      <path d="M27.45 24.15 L27.75 22.45 27.85 22.45 27.9 22.55 27.55 24.15 27.45 24.15 M18.05 21.45 L18.35 21.45 18.2 22.0 17.8 21.9 18.05 21.45" fill="#e8d006" fill-rule="evenodd" stroke="none"/>
      <path d="M22.45 23.0 L22.1 22.75 20.6 22.3 20.45 22.3 20.05 22.2 18.5 22.05 18.65 21.6 18.65 21.45 19.6 21.6 20.05 21.65 24.65 21.85 27.6 22.45 27.3 23.25 27.2 24.1 22.85 23.25 22.45 23.0 M16.25 21.6 L16.1 21.35 16.0 21.3 16.1 21.3 16.85 20.75 16.95 20.8 17.35 21.2 17.7 21.35 17.5 21.5 17.4 21.85 17.35 21.85 16.55 22.0 16.3 21.65 16.25 21.6" fill="#59616a" fill-rule="evenodd" stroke="none"/>
    </g>
    <g id="button3" transform="matrix(1.0, 0.0, 0.0, 1.0, 0.5, 0.5)">
      <use height="34.0" transform="matrix(1.0, 0.0, 0.0, 1.0, -0.5, -0.5)" width="34.0" xlink:href="#shape0"/>
      <use height="32.3" transform="matrix(1.0, 0.0, 0.0, 1.0, 0.6, 0.3)" width="32.1" xlink:href="#shape4"/>
    </g>
    <g id="shape4" transform="matrix(1.0, 0.0, 0.0, 1.0, -0.6, -0.3)">
      <path d="M29.4 0.4 Q29.85 0.1 29.85 0.7 L29.7 1.1 29.6 1.25 29.05 2.1 28.6 1.8 28.6 1.45 28.85 0.8 Q28.9 0.35 29.3 0.35 L29.4 0.4 M1.25 2.6 Q0.8 2.6 0.7 2.2 L0.7 1.7 Q0.7 1.15 1.45 0.65 2.2 0.2 2.2 0.95 L1.25 2.6 M1.85 29.35 L1.55 29.85 1.0 30.25 Q0.6 30.25 0.6 29.8 0.6 29.5 0.9 29.25 1.3 28.9 1.8 29.1 L1.85 29.35 M29.95 29.35 L29.8 29.95 29.4 30.25 Q28.95 30.25 28.95 29.8 28.95 29.4 29.45 29.0 29.95 28.55 29.95 29.35" fill="#ff6666" fill-rule="evenodd" stroke="none"/>
      <path d="M32.7 3.95 L32.7 4.35 31.45 4.6 Q30.2 4.6 30.2 4.2 30.2 3.9 30.7 3.65 L31.35 2.95 Q31.15 2.6 31.45 2.15 31.8 1.75 32.3 1.95 L32.7 3.95 M3.9 2.1 Q4.2 1.65 4.2 2.5 4.2 4.6 2.45 4.6 L2.05 4.55 Q1.95 4.05 2.1 3.9 L1.7 3.5 Q1.7 3.05 3.35 3.05 L3.9 2.1 M3.6 30.35 Q3.7 30.0 4.3 30.1 L4.35 32.05 Q4.25 32.6 3.75 32.6 L1.6 32.45 Q1.45 32.4 1.45 32.15 2.65 30.7 3.6 30.85 L3.6 30.35 M32.25 32.5 L31.25 32.5 30.25 32.5 29.85 32.05 30.05 31.8 31.3 31.25 31.2 30.65 Q31.2 30.25 31.55 29.8 31.95 29.25 32.25 29.95 L32.45 31.75 32.25 32.5" fill="#660000" fill-rule="evenodd" stroke="none"/>
      <path d="M20.3 5.65 L20.35 6.0 Q19.8 6.4 19.15 7.4 18.65 8.2 18.5 8.95 L18.35 9.75 18.4 9.95 18.5 10.55 18.55 10.75 18.65 10.95 Q18.85 11.5 19.2 11.65 L18.95 11.95 18.85 11.8 18.3 12.0 18.2 12.0 18.0 12.0 17.8 11.95 17.5 11.75 17.25 11.45 17.4 11.45 17.45 11.3 17.35 11.1 17.25 10.9 17.3 10.85 17.5 10.2 17.7 9.4 17.9 8.8 18.05 8.4 18.15 8.15 Q18.85 6.7 20.3 5.65 M7.0 29.7 L5.45 29.7 5.0 28.9 5.0 27.85 4.3 27.85 3.35 26.85 3.35 26.2 6.6 26.35 6.15 28.05 6.2 28.25 6.0 28.1 7.0 29.7 M20.2 7.7 L20.25 7.7 21.15 7.15 21.7 6.9 21.15 7.25 Q20.3 7.85 20.15 8.15 L20.2 7.7 M20.95 8.9 L21.0 9.0 20.9 8.95 20.3 8.35 22.35 6.8 21.5 7.85 Q20.95 8.5 20.95 8.9 M20.8 15.35 Q20.8 16.2 21.65 16.2 22.05 16.2 22.05 15.55 21.9 14.9 21.2 14.9 L20.85 14.9 20.8 15.35 M20.3 14.7 Q20.3 13.3 21.4 13.95 22.45 14.65 22.45 16.2 L22.45 16.65 Q22.35 17.0 21.7 17.0 21.1 17.0 20.65 15.95 20.3 15.15 20.3 14.7 M22.3 24.7 L22.55 24.7 22.55 24.75 21.4 24.65 21.65 24.5 22.3 24.7 M21.4 22.95 L21.45 23.0 21.5 22.95 21.7 22.95 25.15 22.45 25.65 23.1 26.05 23.55 25.6 24.45 25.2 25.05 23.75 24.9 23.75 24.85 23.35 24.85 23.2 24.8 23.05 24.8 23.05 24.75 22.95 24.75 22.9 24.6 23.1 24.1 22.9 23.5 Q22.6 23.15 22.15 23.15 21.45 23.15 21.45 23.95 L21.35 23.95 20.65 24.25 20.6 24.1 20.2 22.95 19.45 22.2 20.0 21.6 21.2 22.8 21.2 22.9 21.25 22.95 21.4 22.95 M24.6 24.05 L24.6 24.5 24.85 24.5 25.15 24.05 25.35 23.55 Q25.35 23.0 24.85 23.0 24.55 23.0 24.55 23.45 L24.7 23.85 24.6 24.05 M20.1 7.0 L19.8 8.4 19.95 9.9 19.7 10.55 19.65 10.6 19.45 10.65 19.35 11.2 19.3 11.2 18.85 10.3 18.65 9.75 18.7 9.3 Q18.95 8.15 20.25 6.5 L20.1 7.0 M10.1 19.4 Q9.7 19.4 8.7 21.2 L7.55 23.5 7.3 23.2 8.1 22.0 9.05 19.4 9.85 17.95 11.0 19.3 10.75 19.65 10.6 19.55 10.1 19.4 M11.8 14.8 L12.15 15.25 12.8 15.2 13.0 15.5 12.8 15.7 Q12.1 16.6 12.1 17.65 L12.15 18.0 12.0 18.15 10.65 16.65 11.8 14.8 M18.85 21.65 L18.85 21.55 17.25 20.55 17.5 20.45 18.45 20.0 19.55 21.1 19.0 21.5 18.85 21.65" fill="#39342d" fill-rule="evenodd" stroke="none"/>
      <path d="M20.3 5.65 Q18.85 6.7 18.15 8.15 L18.05 8.4 17.9 8.8 17.7 9.4 17.5 10.2 17.3 10.85 17.25 10.9 17.35 11.1 17.45 11.3 17.4 11.45 17.25 11.45 17.5 11.75 17.8 11.95 18.0 12.0 18.2 12.0 18.3 12.0 18.85 11.8 18.95 11.95 19.2 11.65 Q18.85 11.5 18.65 10.95 L18.55 10.75 18.5 10.55 18.4 9.95 18.35 9.75 18.5 8.95 Q18.65 8.2 19.15 7.4 19.8 6.4 20.35 6.0 L20.3 5.65 M3.35 12.7 L3.35 12.3 5.55 10.6 Q5.9 10.4 6.95 9.95 L6.05 8.7 6.05 8.45 7.45 8.5 Q7.5 8.15 7.8 8.3 L7.8 8.4 9.05 8.0 Q8.45 7.25 8.45 6.75 L8.45 6.7 8.45 6.6 8.5 6.6 Q8.55 6.45 8.8 6.5 L8.85 6.7 10.6 7.0 10.8 7.0 10.95 7.0 12.5 6.9 14.2 6.8 15.8 7.0 15.8 6.9 Q15.8 6.35 15.95 6.05 L15.95 5.75 Q16.35 5.7 17.0 6.5 L17.15 6.5 17.2 6.65 17.2 6.8 17.2 6.85 17.25 6.85 Q17.65 6.85 18.0 7.5 19.1 5.3 20.35 5.3 20.8 5.3 20.7 5.9 L20.4 7.15 20.35 7.35 Q20.7 7.0 22.3 6.4 L22.75 6.4 22.8 6.55 Q22.8 7.5 21.1 9.1 L21.4 9.25 21.4 9.3 21.95 9.3 22.0 9.65 22.0 9.75 25.8 10.1 25.85 10.25 24.85 11.0 Q23.75 11.8 23.25 12.3 L23.45 12.6 23.45 12.65 23.5 13.0 23.35 13.45 23.5 14.1 Q23.5 14.35 23.85 14.85 L24.15 15.4 24.15 15.65 24.4 15.65 26.1 15.85 26.15 16.0 25.5 16.6 24.7 17.25 24.8 17.3 24.8 17.35 24.85 17.35 24.85 17.45 24.8 17.65 26.2 17.45 26.25 17.6 25.25 18.55 Q25.6 18.6 25.65 19.0 L25.7 19.2 25.5 20.05 26.0 21.75 27.25 22.9 26.55 23.5 26.4 23.5 26.4 23.6 26.05 24.5 25.65 25.05 30.1 25.4 30.1 25.8 29.75 25.75 Q29.75 25.45 29.35 25.55 L28.95 25.7 25.05 25.35 24.95 25.2 24.8 25.2 24.6 25.3 23.45 25.2 23.2 25.1 23.1 25.15 23.05 25.1 22.25 25.05 21.75 24.7 Q21.0 24.65 20.6 24.95 L15.2 24.65 15.15 24.55 14.95 24.4 12.95 24.15 19.85 24.55 20.3 24.4 19.95 23.1 19.45 22.6 19.25 22.4 19.0 22.65 18.85 22.6 18.75 22.2 18.6 21.9 18.65 21.85 18.3 21.55 17.85 21.2 Q16.95 21.0 16.95 20.7 L17.0 20.65 15.35 20.9 14.8 20.85 13.35 22.15 Q12.4 22.95 11.95 24.1 L12.65 24.1 11.6 24.4 4.2 24.0 4.05 23.7 3.8 23.65 3.35 23.85 3.35 23.6 4.45 23.65 5.55 23.05 5.75 22.95 6.0 22.8 6.2 22.7 6.55 22.35 6.8 21.9 7.15 20.65 Q7.75 18.9 8.1 18.3 L8.9 16.8 9.15 16.45 9.3 16.15 9.5 15.85 9.7 15.55 10.8 14.25 10.65 13.0 10.45 12.45 Q9.15 12.5 7.9 11.1 L7.3 12.15 7.15 12.4 7.0 12.65 6.6 13.35 6.35 13.8 6.25 13.95 5.0 16.95 3.9 20.2 3.8 20.7 3.7 21.05 3.35 22.0 3.35 20.65 3.45 20.35 3.65 19.7 3.85 19.25 4.85 16.5 6.1 13.55 6.15 13.45 6.35 13.1 6.7 12.25 6.8 11.95 6.85 11.95 Q7.15 11.3 7.7 10.9 L7.1 10.2 5.85 10.85 3.65 12.45 3.35 12.7 M30.1 27.15 L30.1 27.5 22.5 27.2 22.5 27.25 22.05 27.25 21.95 27.3 21.85 27.2 21.85 27.25 19.5 27.15 20.6 26.9 21.4 26.95 21.55 27.1 21.95 26.9 30.1 27.15 M19.2 27.1 L12.05 26.7 11.45 26.7 10.4 26.7 10.2 27.4 Q9.9 28.9 9.9 29.7 L9.6 29.7 9.65 29.4 9.95 26.8 10.0 26.65 9.9 26.65 9.0 26.6 7.75 26.45 7.55 26.45 Q7.2 27.45 7.2 28.2 L8.25 29.7 7.8 29.7 7.55 29.4 Q6.9 28.6 6.9 28.2 L7.15 26.4 6.85 26.4 6.45 28.3 6.3 28.35 7.5 29.7 7.0 29.7 6.0 28.1 6.2 28.25 6.15 28.05 6.6 26.35 3.35 26.2 3.35 25.9 7.75 26.15 7.85 26.25 8.0 26.25 8.1 26.2 8.75 26.2 8.9 26.3 9.1 26.25 9.4 26.25 9.55 26.3 9.85 26.3 10.2 26.3 10.3 26.5 10.65 26.35 10.85 26.35 11.0 26.45 11.3 26.35 12.35 26.45 12.5 26.5 12.85 26.45 18.2 26.75 18.45 26.9 18.65 26.8 19.2 26.8 19.2 27.1 M5.45 29.7 L5.05 29.7 5.0 29.65 5.0 28.9 5.45 29.7 M4.3 27.85 L3.85 27.85 3.35 27.4 3.35 26.85 4.3 27.85 M3.35 17.65 L3.35 16.15 3.85 15.3 3.9 15.55 3.35 17.65 M20.25 7.7 L20.25 7.65 20.2 7.7 20.15 8.15 Q20.3 7.85 21.15 7.25 L21.7 6.9 21.15 7.15 20.25 7.7 M20.7 9.25 L20.35 8.95 20.15 8.75 20.25 9.45 20.2 9.65 20.25 9.95 20.1 10.45 20.1 10.5 19.9 10.9 19.75 11.15 19.7 11.25 19.6 11.5 19.6 11.6 19.45 12.05 Q19.25 12.35 18.95 12.35 L18.65 12.35 18.3 12.35 18.2 12.35 17.85 12.3 17.7 12.3 17.35 12.15 16.85 11.55 16.6 10.6 Q16.6 10.15 17.0 9.8 L17.05 9.8 17.15 9.7 17.55 8.55 17.6 8.4 17.75 8.1 17.8 7.9 17.9 7.7 17.85 7.65 17.85 7.6 Q17.85 7.2 17.3 7.1 16.7 7.0 16.7 7.45 L16.95 7.85 16.95 7.95 16.65 8.85 16.5 9.35 16.25 10.15 16.25 10.25 16.15 10.5 16.45 13.15 16.45 13.55 16.9 13.75 17.25 13.95 17.55 14.1 Q18.7 14.8 19.2 15.7 19.75 16.7 19.75 18.4 L19.75 18.45 19.8 18.45 19.8 19.1 19.65 19.35 20.8 20.6 21.7 21.7 23.1 21.4 24.35 20.95 24.7 20.95 25.4 21.25 25.35 21.15 25.2 20.0 25.2 19.4 25.3 19.15 25.2 18.9 Q24.55 18.85 24.4 18.45 L24.35 17.95 Q24.35 17.65 24.5 17.5 L24.4 17.45 24.15 17.45 24.1 17.3 24.15 17.3 Q23.6 16.9 23.6 16.05 23.6 15.65 23.75 15.5 L23.4 14.7 23.1 13.5 Q21.95 13.3 21.35 12.3 20.85 11.5 20.85 10.5 L20.9 10.2 21.05 10.15 21.1 9.75 21.1 9.55 21.2 9.4 21.0 9.4 20.7 9.25 M20.95 8.9 Q20.95 8.5 21.5 7.85 L22.35 6.8 20.3 8.35 20.9 8.95 21.0 9.0 20.95 8.9 M21.7 9.65 L21.35 9.65 21.15 10.4 Q21.15 11.95 22.25 12.7 L23.1 13.15 23.15 13.15 23.2 13.05 23.1 12.65 22.75 12.4 22.05 11.7 21.65 11.0 21.6 10.45 21.7 9.75 21.7 9.65 M21.95 10.3 L21.85 10.5 21.9 10.65 Q21.95 11.25 22.7 11.8 L22.95 12.05 23.75 11.35 24.95 10.5 25.05 10.45 24.45 10.45 24.45 10.4 Q24.45 10.0 23.15 10.0 L22.15 10.15 21.95 10.1 21.95 10.3 M25.35 17.95 L25.4 17.9 25.35 17.9 24.65 17.95 24.85 18.5 25.35 17.95 M20.8 15.35 L20.85 15.65 21.1 15.6 21.1 15.5 20.9 15.35 20.8 15.35 20.85 14.9 21.2 14.9 Q21.9 14.9 22.05 15.55 22.05 16.2 21.65 16.2 20.8 16.2 20.8 15.35 M21.25 15.0 L21.25 15.35 21.35 15.45 21.65 15.45 21.65 15.15 21.25 15.0 M20.3 14.7 Q20.3 15.15 20.65 15.95 21.1 17.0 21.7 17.0 22.35 17.0 22.45 16.65 L22.45 16.2 Q22.45 14.65 21.4 13.95 20.3 13.3 20.3 14.7 M22.35 17.25 L21.65 17.35 Q20.85 17.35 20.35 16.15 L19.95 14.65 Q19.95 13.4 21.1 13.4 21.85 13.4 22.4 14.75 L22.8 16.35 22.75 16.85 Q22.4 16.55 22.35 17.25 M25.2 16.1 Q25.15 15.75 24.65 15.8 24.35 15.85 24.2 16.0 L23.9 15.95 23.9 16.0 Q23.9 16.55 24.4 17.0 L24.45 17.05 25.45 16.15 25.2 16.1 M23.05 21.55 L22.05 22.0 21.8 22.0 21.8 22.05 21.75 22.2 20.4 20.75 19.35 19.4 19.35 19.2 19.35 18.55 19.45 18.4 Q19.45 15.85 17.45 14.4 L17.15 14.2 16.7 13.95 16.45 13.8 16.3 13.85 16.25 13.8 Q16.05 13.55 16.05 12.2 L15.9 10.7 15.65 10.7 15.6 10.55 16.15 9.15 16.2 8.95 16.6 7.8 16.65 7.6 16.7 7.35 16.8 6.9 16.35 6.55 16.15 6.35 16.2 7.1 16.2 7.15 16.2 7.45 16.15 7.6 15.75 8.9 15.75 8.95 14.9 10.1 Q15.4 10.5 15.7 12.7 L15.55 13.8 15.5 14.1 15.55 14.1 15.9 14.15 16.35 14.35 16.9 14.65 17.2 14.85 17.3 14.95 18.5 15.9 Q19.15 17.0 19.15 18.1 19.15 18.95 18.65 19.55 L18.65 19.65 Q18.95 19.65 21.35 22.65 L25.45 22.05 25.5 22.25 25.5 22.3 26.3 23.2 26.9 22.95 26.0 22.2 25.95 22.2 Q25.7 22.2 25.55 21.8 24.85 21.3 24.65 21.3 L23.05 21.55 M21.4 22.95 L21.25 22.95 21.2 22.9 21.2 22.8 20.0 21.6 19.45 22.2 20.2 22.95 20.6 24.1 20.65 24.25 21.35 23.95 21.45 23.95 Q21.45 23.15 22.15 23.15 22.6 23.15 22.9 23.5 L23.1 24.1 22.9 24.6 22.95 24.75 23.05 24.75 23.05 24.8 23.2 24.8 23.35 24.85 23.75 24.85 23.75 24.9 25.2 25.05 25.6 24.45 26.05 23.55 25.65 23.1 25.15 22.45 21.7 22.95 21.5 22.95 21.45 23.0 21.4 22.95 M22.3 24.7 L21.65 24.5 21.4 24.65 22.55 24.75 22.55 24.7 22.3 24.7 M21.9 24.25 L22.3 24.35 22.8 24.1 Q22.8 23.7 22.3 23.55 21.8 23.35 21.8 23.95 L21.85 23.95 21.9 24.2 21.9 24.25 M24.6 24.05 L24.7 23.85 24.55 23.45 Q24.55 23.0 24.85 23.0 25.35 23.0 25.35 23.55 L25.15 24.05 24.85 24.5 24.6 24.5 24.6 24.05 M15.8 7.5 L15.8 7.35 15.1 7.2 15.1 7.1 12.7 7.25 11.55 7.35 11.45 7.3 11.4 7.3 11.2 7.35 10.9 7.35 10.7 7.35 10.6 7.6 11.05 8.5 11.45 9.2 12.15 10.35 12.65 11.25 13.25 13.15 Q13.3 13.6 13.95 14.15 L14.5 14.55 15.1 14.4 15.05 14.3 15.2 13.55 15.35 12.65 15.2 11.5 14.35 10.2 Q14.45 10.0 14.6 10.0 L15.4 8.65 15.7 8.05 15.8 7.5 M10.3 7.35 L9.0 7.15 9.45 7.9 9.6 7.9 9.65 8.05 9.65 8.15 9.85 8.4 10.15 8.65 10.8 9.35 11.2 9.85 11.75 10.9 12.0 11.45 Q12.55 12.75 12.55 13.45 L12.45 14.0 13.15 14.7 13.15 14.75 13.5 15.1 Q13.75 14.85 14.1 14.7 L13.7 14.4 Q13.05 13.8 12.95 13.3 L12.35 11.45 12.05 10.8 11.65 10.1 11.1 9.05 10.75 8.5 10.2 7.65 10.3 7.35 M10.5 9.45 L10.05 9.0 9.85 8.8 9.45 8.4 9.35 8.3 8.35 8.55 7.9 8.65 8.3 9.4 8.45 9.6 8.75 9.95 9.25 10.9 Q9.6 11.4 10.45 11.4 L10.75 11.45 11.05 11.5 11.4 11.85 11.6 12.45 11.9 12.9 12.1 13.15 12.2 13.25 11.95 12.25 11.65 11.55 11.05 10.25 10.9 10.0 10.5 9.45 M10.7 12.25 L10.85 12.55 11.0 12.95 11.35 13.35 11.55 13.7 12.0 14.4 12.45 14.85 12.75 14.85 12.1 14.1 12.15 13.7 12.1 13.7 11.85 13.6 11.55 13.15 11.35 12.75 11.0 12.15 10.7 11.85 10.45 11.75 9.8 11.85 8.5 10.25 8.15 9.7 8.0 9.5 7.55 8.75 6.6 8.8 7.3 9.8 7.45 10.0 7.8 10.4 9.3 11.95 Q9.65 12.35 10.25 12.15 L10.7 12.25 M20.1 7.0 L20.25 6.5 Q18.95 8.15 18.7 9.3 L18.65 9.75 18.85 10.3 19.3 11.2 19.35 11.2 19.45 10.65 19.65 10.6 19.7 10.55 19.95 9.9 19.8 8.4 20.1 7.0 M17.05 10.7 L17.0 10.5 16.95 10.6 16.95 10.7 17.05 10.7 M9.95 16.0 L9.8 16.2 9.45 16.75 9.2 17.15 8.35 18.55 7.45 21.1 6.7 22.5 6.4 22.85 6.2 23.0 6.0 23.15 5.75 23.3 5.2 23.7 6.05 23.75 6.1 23.7 6.6 23.4 6.8 23.25 7.1 22.95 7.9 21.75 8.9 19.0 9.6 17.65 9.75 17.35 10.05 16.7 10.1 16.6 10.2 16.4 10.3 16.25 11.0 15.15 11.55 14.45 11.35 14.15 11.1 13.75 11.1 14.2 10.05 15.9 9.95 16.0 M10.1 19.4 L10.6 19.55 10.75 19.65 11.0 19.3 9.85 17.95 9.05 19.4 8.1 22.0 7.3 23.2 7.55 23.5 8.7 21.2 Q9.7 19.4 10.1 19.4 M10.15 22.8 Q10.0 22.2 10.0 21.4 L10.0 21.3 8.8 23.4 8.6 23.9 9.2 23.9 10.25 24.0 10.45 24.0 10.25 23.35 10.15 22.8 M6.9 23.8 L7.4 23.8 7.05 23.5 Q6.9 23.55 6.8 23.7 L6.9 23.8 M8.95 22.05 Q9.5 21.05 10.0 20.65 L10.55 19.9 Q10.3 19.75 10.15 19.75 9.95 19.75 9.05 21.45 L7.8 23.8 7.8 23.85 8.1 23.85 8.95 22.05 M15.6 14.95 L15.95 15.05 16.05 15.25 15.9 15.45 15.65 15.45 15.6 15.4 15.6 14.95 M15.5 14.5 L15.0 14.7 14.55 14.95 14.0 15.25 13.9 15.35 13.45 15.7 Q12.45 16.6 12.45 17.65 L12.5 18.1 12.55 18.35 12.75 18.8 13.0 19.25 13.1 19.4 Q13.65 20.25 14.6 20.5 L15.1 20.55 15.35 20.55 Q17.2 20.55 18.35 19.75 L18.3 19.65 18.6 19.0 18.85 18.1 Q18.85 17.0 18.05 15.95 17.7 15.5 17.25 15.2 L16.8 14.9 16.05 14.6 15.5 14.5 M17.3 15.7 Q17.6 15.7 17.6 16.05 L17.55 16.2 17.1 16.2 17.1 15.7 17.3 15.7 M16.75 15.9 L16.75 16.05 16.95 16.35 18.05 16.5 18.1 16.65 Q17.4 17.5 17.4 17.7 L17.85 18.1 18.25 18.5 17.65 18.6 Q17.35 18.65 17.15 18.85 16.95 19.0 16.9 19.25 L16.6 20.15 16.1 19.8 15.75 19.45 15.6 19.4 Q15.45 19.4 15.0 19.85 L14.55 19.85 Q14.55 18.9 13.95 18.7 L13.6 18.6 13.35 18.55 13.6 17.75 13.55 17.4 13.45 17.3 13.35 17.2 13.3 17.0 13.55 16.55 13.55 16.5 13.85 16.2 14.15 16.4 14.45 16.4 14.45 16.3 14.55 15.9 14.8 15.5 15.25 15.55 15.65 16.0 16.15 15.75 16.4 15.55 16.6 15.45 16.75 15.85 16.75 15.9 M16.5 16.55 L16.45 16.45 16.45 16.3 16.45 15.9 Q16.1 16.3 15.7 16.35 L15.6 16.35 Q15.3 16.35 15.2 16.15 L15.1 15.85 15.0 15.85 15.0 16.1 14.8 16.5 14.45 16.65 14.35 16.7 14.3 16.7 13.7 16.95 13.65 16.95 13.8 17.2 13.95 17.55 13.95 17.8 Q13.8 18.0 13.8 18.4 L14.0 18.45 Q14.55 18.5 14.7 18.8 L14.85 19.4 14.85 19.45 14.9 19.45 15.25 19.2 15.3 19.2 Q15.4 19.05 15.6 19.05 L15.7 19.05 Q16.05 19.1 16.45 19.6 L16.65 18.9 Q16.8 18.45 17.65 18.35 L17.05 17.8 17.15 17.3 17.55 16.75 16.8 16.65 16.5 16.55 M16.35 17.7 L16.35 17.75 16.0 18.35 15.5 18.4 15.1 18.35 14.8 18.05 14.6 17.65 14.6 17.6 Q14.65 16.9 15.5 16.85 L15.85 16.9 15.85 16.95 Q15.8 17.2 15.9 17.35 L15.5 17.25 Q14.95 17.3 14.95 17.65 L15.1 17.85 15.45 18.05 15.75 18.05 16.05 17.75 16.05 17.6 16.35 17.7 M18.45 17.6 L18.25 17.8 18.0 17.8 17.95 17.6 Q17.95 17.35 18.2 17.35 L18.45 17.6 M11.8 14.8 L10.65 16.65 12.0 18.15 12.15 18.0 12.1 17.65 Q12.1 16.6 12.8 15.7 L13.0 15.5 12.8 15.2 12.15 15.25 11.8 14.8 M10.65 17.2 L10.65 17.15 10.5 16.85 10.1 17.5 11.3 19.0 11.75 18.45 10.65 17.2 M14.3 15.8 L14.0 15.8 13.95 15.65 13.95 15.55 Q14.0 15.35 14.4 15.4 L14.45 15.55 14.3 15.8 M13.0 17.45 L13.25 17.45 13.3 17.65 13.1 17.8 13.05 17.8 12.9 17.7 12.85 17.5 13.0 17.45 M13.0 19.8 L12.75 19.45 12.5 19.05 Q10.9 20.8 10.9 21.3 L11.25 23.25 11.45 24.05 11.55 24.05 Q11.9 22.9 12.85 22.1 L13.05 22.1 Q13.35 22.1 13.45 21.6 L13.95 21.15 14.1 21.25 14.5 20.8 Q13.6 20.55 13.0 19.8 M13.65 19.45 L13.45 19.35 13.45 19.0 13.85 19.0 13.9 19.2 13.65 19.45 M10.3 21.5 Q10.3 22.25 10.6 23.3 L10.85 24.0 11.05 24.05 10.9 23.3 10.6 21.3 Q10.6 20.45 12.3 18.6 L12.25 18.45 10.4 20.8 10.3 21.5 M18.85 21.65 L19.0 21.5 19.55 21.1 18.45 20.0 17.5 20.45 17.25 20.55 18.85 21.55 18.85 21.65 M19.4 21.65 L19.0 21.95 19.1 22.0 19.85 21.4 19.75 21.35 19.4 21.65 M17.65 19.25 L17.35 19.5 17.3 19.45 17.3 19.0 17.55 19.05 17.65 19.25 M15.8 20.0 L15.5 20.1 15.5 20.0 15.45 19.95 15.65 19.75 15.8 19.75 15.8 20.0" fill="#000000" fill-rule="evenodd" stroke="none"/>
      <path d="M7.8 29.7 L7.5 29.7 6.3 28.35 6.45 28.3 6.85 26.4 7.15 26.4 6.9 28.2 Q6.9 28.6 7.55 29.4 L7.8 29.7 M21.7 9.65 L21.7 9.75 21.6 10.45 21.65 11.0 22.05 11.7 22.75 12.4 23.1 12.65 23.2 13.05 23.15 13.15 23.1 13.15 22.25 12.7 Q21.15 11.95 21.15 10.4 L21.35 9.65 21.7 9.65 M23.05 21.55 L24.65 21.3 Q24.85 21.3 25.55 21.8 25.7 22.2 25.95 22.2 L26.0 22.2 26.9 22.95 26.3 23.2 25.5 22.3 25.5 22.25 25.45 22.05 21.35 22.65 Q18.95 19.65 18.65 19.65 L18.65 19.55 Q19.15 18.95 19.15 18.1 19.15 17.0 18.5 15.9 L17.3 14.95 17.2 14.85 16.9 14.65 16.35 14.35 15.9 14.15 15.55 14.1 15.5 14.1 15.55 13.8 15.7 12.7 Q15.4 10.5 14.9 10.1 L15.75 8.95 15.75 8.9 16.15 7.6 16.2 7.45 16.2 7.15 16.2 7.1 16.15 6.35 16.35 6.55 16.8 6.9 16.7 7.35 16.65 7.6 16.6 7.8 16.2 8.95 16.15 9.15 15.6 10.55 15.65 10.7 15.9 10.7 16.05 12.2 Q16.05 13.55 16.25 13.8 L16.3 13.85 16.45 13.8 16.7 13.95 17.15 14.2 17.45 14.4 Q19.45 15.85 19.45 18.4 L19.35 18.55 19.35 19.2 19.35 19.4 20.4 20.75 21.75 22.2 21.8 22.05 21.8 22.0 22.05 22.0 23.05 21.55 M21.9 24.25 L21.9 24.2 21.85 23.95 21.8 23.95 Q21.8 23.35 22.3 23.55 22.8 23.7 22.8 24.1 L22.3 24.35 21.9 24.25 M10.3 7.35 L10.2 7.65 10.75 8.5 11.1 9.05 11.65 10.1 12.05 10.8 12.35 11.45 12.95 13.3 Q13.05 13.8 13.7 14.4 L14.1 14.7 Q13.75 14.85 13.5 15.1 L13.15 14.75 13.15 14.7 12.45 14.0 12.55 13.45 Q12.55 12.75 12.0 11.45 L11.75 10.9 11.2 9.85 10.8 9.35 10.15 8.65 9.85 8.4 9.65 8.15 9.65 8.05 9.6 7.9 9.45 7.9 9.0 7.15 10.3 7.35 M10.7 12.25 L10.25 12.15 Q9.65 12.35 9.3 11.95 L7.8 10.4 7.45 10.0 7.3 9.8 6.6 8.8 7.55 8.75 8.0 9.5 8.15 9.7 8.5 10.25 9.8 11.85 10.45 11.75 10.7 11.85 11.0 12.15 11.35 12.75 11.55 13.15 11.85 13.6 12.1 13.7 12.15 13.7 12.1 14.1 12.75 14.85 12.45 14.85 12.0 14.4 11.55 13.7 11.35 13.35 11.0 12.95 10.85 12.55 10.7 12.25 M9.95 16.0 L10.05 15.9 11.1 14.2 11.1 13.75 11.35 14.15 11.55 14.45 11.0 15.15 10.3 16.25 10.2 16.4 10.1 16.6 10.05 16.7 9.75 17.35 9.6 17.65 8.9 19.0 7.9 21.75 7.1 22.95 6.8 23.25 6.6 23.4 6.1 23.7 6.05 23.75 5.2 23.7 5.75 23.3 6.0 23.15 6.2 23.0 6.4 22.85 6.7 22.5 7.45 21.1 8.35 18.55 9.2 17.15 9.45 16.75 9.8 16.2 9.95 16.0 M16.75 15.9 L16.75 15.85 16.6 15.45 16.4 15.55 16.15 15.75 15.65 16.0 15.25 15.55 14.8 15.5 14.55 15.9 14.45 16.3 14.45 16.4 14.15 16.4 13.85 16.2 13.55 16.5 13.55 16.55 13.3 17.0 13.35 17.2 13.45 17.3 13.55 17.4 13.6 17.75 13.35 18.55 13.6 18.6 13.95 18.7 Q14.55 18.9 14.55 19.85 L15.0 19.85 Q15.45 19.4 15.6 19.4 L15.75 19.45 16.1 19.8 16.6 20.15 16.9 19.25 Q16.95 19.0 17.15 18.85 17.35 18.65 17.65 18.6 L18.25 18.5 17.85 18.1 17.4 17.7 Q17.4 17.5 18.1 16.65 L18.05 16.5 16.95 16.35 16.75 16.05 16.75 15.9 M17.3 15.7 L17.1 15.7 17.1 16.2 17.55 16.2 17.6 16.05 Q17.6 15.7 17.3 15.7 M15.5 14.5 L16.05 14.6 16.8 14.9 17.25 15.2 Q17.7 15.5 18.05 15.95 18.85 17.0 18.85 18.1 L18.6 19.0 18.3 19.65 18.35 19.75 Q17.2 20.55 15.35 20.55 L15.1 20.55 14.6 20.5 Q13.65 20.25 13.1 19.4 L13.0 19.25 12.75 18.8 12.55 18.35 12.5 18.1 12.45 17.65 Q12.45 16.6 13.45 15.7 L13.9 15.35 14.0 15.25 14.55 14.95 15.0 14.7 15.5 14.5 M15.6 14.95 L15.6 15.4 15.65 15.45 15.9 15.45 16.05 15.25 15.95 15.05 15.6 14.95 M8.95 22.05 L8.1 23.85 7.8 23.85 7.8 23.8 9.05 21.45 Q9.95 19.75 10.15 19.75 10.3 19.75 10.55 19.9 L10.0 20.65 Q9.5 21.05 8.95 22.05 M15.9 17.35 L16.05 17.6 16.05 17.75 15.75 18.05 15.45 18.05 15.1 17.85 14.95 17.65 Q14.95 17.3 15.5 17.25 L15.9 17.35 M18.45 17.6 L18.2 17.35 Q17.95 17.35 17.95 17.6 L18.0 17.8 18.25 17.8 18.45 17.6 M13.0 17.45 L12.85 17.5 12.9 17.7 13.05 17.8 13.1 17.8 13.3 17.65 13.25 17.45 13.0 17.45 M14.3 15.8 L14.45 15.55 14.4 15.4 Q14.0 15.35 13.95 15.55 L13.95 15.65 14.0 15.8 14.3 15.8 M13.65 19.45 L13.9 19.2 13.85 19.0 13.45 19.0 13.45 19.35 13.65 19.45 M10.3 21.5 L10.4 20.8 12.25 18.45 12.3 18.6 Q10.6 20.45 10.6 21.3 L10.9 23.3 11.05 24.05 10.85 24.0 10.6 23.3 Q10.3 22.25 10.3 21.5 M15.8 20.0 L15.8 19.75 15.65 19.75 15.45 19.95 15.5 20.0 15.5 20.1 15.8 20.0 M17.65 19.25 L17.55 19.05 17.3 19.0 17.3 19.45 17.35 19.5 17.65 19.25" fill="#ffe711" fill-rule="evenodd" stroke="none"/>
      <path d="M9.6 29.7 L8.25 29.7 7.2 28.2 Q7.2 27.45 7.55 26.45 L7.75 26.45 9.0 26.6 Q9.1 27.5 9.6 27.5 L9.85 27.45 9.9 27.15 9.9 26.65 10.0 26.65 9.95 26.8 9.65 29.4 9.6 29.7 M3.85 27.85 L3.5 27.85 3.35 27.65 3.35 27.4 3.85 27.85 M20.25 9.45 L20.15 8.75 20.35 8.95 20.7 9.25 20.25 9.3 20.25 9.45 M21.0 9.4 L21.2 9.4 21.1 9.55 21.0 9.4 M20.9 10.2 L20.85 10.5 Q20.85 11.5 21.35 12.3 21.95 13.3 23.1 13.5 L23.4 14.7 23.75 15.5 Q23.6 15.65 23.6 16.05 23.6 16.9 24.15 17.3 L24.1 17.3 24.15 17.45 24.4 17.45 24.5 17.5 Q24.35 17.65 24.35 17.95 L24.4 18.45 Q24.55 18.85 25.2 18.9 L25.3 19.15 25.2 19.4 25.2 20.0 25.35 21.15 25.4 21.25 24.7 20.95 24.35 20.95 23.1 21.4 21.7 21.7 20.8 20.6 19.65 19.35 19.8 19.1 19.8 18.45 19.75 18.45 19.75 18.4 Q19.75 16.7 19.2 15.7 18.7 14.8 17.55 14.1 L17.25 13.95 16.9 13.75 16.45 13.55 16.45 13.15 16.15 10.5 16.25 10.25 16.25 10.15 16.5 9.35 16.65 8.85 16.95 7.95 16.95 7.85 17.45 7.95 17.8 7.9 17.85 7.65 17.9 7.7 17.8 7.9 17.75 8.1 17.6 8.4 17.55 8.55 17.15 9.7 17.05 9.8 17.0 9.8 Q16.6 10.15 16.6 10.6 L16.85 11.55 17.35 12.15 17.7 12.3 17.85 12.3 18.2 12.35 18.3 12.35 18.65 12.35 18.95 12.35 Q19.25 12.35 19.45 12.05 L19.6 11.6 19.6 11.5 19.7 11.25 19.75 11.15 19.9 10.9 19.85 11.35 19.6 12.25 19.35 13.1 19.35 13.4 19.8 13.7 20.1 13.35 Q20.25 13.0 20.35 13.0 L20.85 12.95 20.95 12.55 20.1 10.5 20.1 10.45 20.25 9.95 Q20.35 10.2 20.8 10.2 L20.9 10.2 M21.95 10.3 L21.95 10.1 22.15 10.15 21.95 10.3 M24.45 10.45 L25.05 10.45 24.95 10.5 23.75 11.35 22.95 12.05 22.7 11.8 Q21.95 11.25 21.9 10.65 L23.3 10.95 Q24.45 10.95 24.45 10.45 M25.35 17.9 L25.35 17.95 24.85 18.5 24.65 17.95 25.35 17.9 M22.75 16.85 L22.8 16.35 22.4 14.75 Q21.85 13.4 21.1 13.4 19.95 13.4 19.95 14.65 L20.35 16.15 Q20.85 17.35 21.65 17.35 L22.35 17.25 22.35 17.35 22.1 17.4 21.45 17.35 Q21.2 17.4 21.2 17.7 21.2 18.2 22.1 18.2 L22.6 18.15 22.8 18.65 Q23.3 19.8 23.6 19.8 L23.95 19.65 Q23.8 18.55 23.3 17.6 L23.35 17.35 23.3 17.05 22.95 17.05 22.75 16.85 M25.2 16.1 L25.45 16.15 24.45 17.05 24.4 17.0 Q23.9 16.55 23.9 16.0 L23.9 15.95 24.2 16.0 24.1 16.25 24.2 16.5 24.75 16.55 25.2 16.15 25.2 16.1 M11.55 7.35 L12.7 7.25 15.1 7.1 15.1 7.2 15.8 7.35 15.8 7.5 14.0 7.55 12.25 7.55 11.55 7.35 M15.4 8.65 L14.6 10.0 Q14.45 10.0 14.35 10.2 L15.2 11.5 15.35 12.65 15.2 13.55 15.05 14.3 15.1 14.4 14.5 14.55 13.95 14.15 Q13.3 13.6 13.25 13.15 L12.65 11.25 12.15 10.35 11.45 9.2 11.05 8.5 10.6 7.6 10.7 7.35 10.9 7.35 11.2 7.35 Q10.95 7.5 10.95 7.85 L11.2 8.45 11.35 8.6 11.8 9.35 11.85 9.45 12.0 9.75 Q12.75 11.3 12.95 11.3 L13.3 11.2 13.35 10.8 12.85 9.7 14.35 8.55 14.75 8.45 14.85 8.45 15.4 8.65 M10.5 9.45 L10.9 10.0 11.05 10.25 11.65 11.55 11.95 12.25 12.2 13.25 12.1 13.15 11.9 12.9 11.6 12.45 11.4 11.85 11.05 11.5 10.75 11.45 10.45 11.4 Q9.6 11.4 9.25 10.9 L8.75 9.95 8.45 9.6 8.3 9.4 7.9 8.65 8.35 8.55 9.35 8.3 9.45 8.4 9.85 8.8 10.05 9.0 10.5 9.45 M17.05 10.7 L16.95 10.7 16.95 10.6 17.0 10.5 17.05 10.7 M8.65 8.6 Q8.2 8.6 8.2 9.05 L8.6 9.45 9.65 9.8 Q10.2 9.8 10.2 9.4 L9.85 9.05 Q9.85 8.7 9.1 8.6 L8.65 8.6 M9.2 23.9 L8.6 23.9 8.8 23.4 10.0 21.3 10.0 21.4 Q10.0 22.2 10.15 22.8 9.95 22.6 9.6 23.2 L9.2 23.9 M10.25 23.35 L10.45 24.0 10.25 24.0 10.25 23.7 10.25 23.35 M6.9 23.8 L6.8 23.7 Q6.9 23.55 7.05 23.5 L7.4 23.8 6.9 23.8 M16.5 16.55 L16.8 16.65 17.55 16.75 17.15 17.3 17.05 17.8 17.65 18.35 Q16.8 18.45 16.65 18.9 L16.45 19.6 Q16.05 19.1 15.7 19.05 L15.6 19.05 Q15.4 19.05 15.3 19.2 L15.25 19.2 14.9 19.45 14.85 19.45 14.85 19.4 14.7 18.8 Q14.55 18.5 14.0 18.45 L13.8 18.4 Q13.8 18.0 13.95 17.8 L13.95 17.55 13.8 17.2 13.65 16.95 13.7 16.95 14.3 16.7 14.35 16.7 14.45 16.65 14.8 16.5 15.0 16.1 15.0 15.85 15.1 15.85 15.2 16.15 Q15.3 16.35 15.6 16.35 L15.7 16.35 Q16.1 16.3 16.45 15.9 L16.45 16.3 16.45 16.45 16.5 16.55 M16.35 17.7 L16.5 17.7 16.8 17.65 16.85 17.4 16.35 16.7 Q15.9 16.3 15.85 16.9 L15.5 16.85 Q14.65 16.9 14.6 17.6 L14.6 17.65 14.8 18.05 15.1 18.35 15.5 18.4 16.0 18.35 16.35 17.75 16.35 17.7 M10.65 17.2 L11.75 18.45 11.3 19.0 10.1 17.5 10.25 17.5 10.6 17.45 10.65 17.2 M12.85 22.1 Q11.9 22.9 11.55 24.05 L11.45 24.05 11.25 23.25 10.9 21.3 Q10.9 20.8 12.5 19.05 L12.75 19.45 13.0 19.8 Q12.65 21.05 12.65 21.6 L12.65 21.85 12.85 22.1 M13.95 21.15 L13.45 21.6 13.5 21.0 13.95 21.15 M19.4 21.65 L19.75 21.35 19.85 21.4 19.1 22.0 19.0 21.95 19.4 21.65" fill="#999999" fill-rule="evenodd" stroke="none"/>
      <path d="M3.5 27.85 L3.35 27.85 3.35 27.65 3.5 27.85 M20.25 9.45 L20.25 9.3 20.7 9.25 21.0 9.4 21.1 9.55 21.1 9.75 21.05 10.15 20.9 10.2 20.8 10.2 Q20.35 10.2 20.25 9.95 L20.2 9.65 20.25 9.45 M16.95 7.85 L16.7 7.45 Q16.7 7.0 17.3 7.1 17.85 7.2 17.85 7.6 L17.85 7.65 17.8 7.9 17.45 7.95 16.95 7.85 M19.9 10.9 L20.1 10.5 20.95 12.55 20.85 12.95 20.35 13.0 Q20.25 13.0 20.1 13.35 L19.8 13.7 19.35 13.4 19.35 13.1 19.6 12.25 19.85 11.35 19.9 10.9 M21.9 10.65 L21.85 10.5 21.95 10.3 22.15 10.15 23.15 10.0 Q24.45 10.0 24.45 10.4 L24.45 10.45 Q24.45 10.95 23.3 10.95 L21.9 10.65 M22.75 16.85 L22.95 17.05 23.3 17.05 23.35 17.35 23.3 17.6 Q23.8 18.55 23.95 19.65 L23.6 19.8 Q23.3 19.8 22.8 18.65 L22.6 18.15 22.1 18.2 Q21.2 18.2 21.2 17.7 21.2 17.4 21.45 17.35 L22.1 17.4 22.35 17.35 22.35 17.25 Q22.4 16.55 22.75 16.85 M24.2 16.0 Q24.35 15.85 24.65 15.8 25.15 15.75 25.2 16.1 L25.2 16.15 24.75 16.55 24.2 16.5 24.1 16.25 24.2 16.0 M11.55 7.35 L12.25 7.55 14.0 7.55 15.8 7.5 15.7 8.05 15.4 8.65 14.85 8.45 14.75 8.45 14.35 8.55 12.85 9.7 13.35 10.8 13.3 11.2 12.95 11.3 Q12.75 11.3 12.0 9.75 L11.85 9.45 11.8 9.35 11.35 8.6 11.2 8.45 10.95 7.85 Q10.95 7.5 11.2 7.35 L11.4 7.3 11.45 7.3 11.55 7.35 M8.65 8.6 L9.1 8.6 Q9.85 8.7 9.85 9.05 L10.2 9.4 Q10.2 9.8 9.65 9.8 L8.6 9.45 8.2 9.05 Q8.2 8.6 8.65 8.6 M9.2 23.9 L9.6 23.2 Q9.95 22.6 10.15 22.8 L10.25 23.35 10.25 23.7 10.25 24.0 9.2 23.9 M15.85 16.9 Q15.9 16.3 16.35 16.7 L16.85 17.4 16.8 17.65 16.5 17.7 16.35 17.7 16.05 17.6 15.9 17.35 Q15.8 17.2 15.85 16.95 L15.85 16.9 M10.1 17.5 L10.5 16.85 10.65 17.15 10.65 17.2 10.6 17.45 10.25 17.5 10.1 17.5 M12.85 22.1 L12.65 21.85 12.65 21.6 Q12.65 21.05 13.0 19.8 13.6 20.55 14.5 20.8 L14.1 21.25 13.95 21.15 13.5 21.0 13.45 21.6 Q13.35 22.1 13.05 22.1 L12.85 22.1 M9.0 26.6 L9.9 26.65 9.9 27.15 9.85 27.45 9.6 27.5 Q9.1 27.5 9.0 26.6" fill="#cccccc" fill-rule="evenodd" stroke="none"/>
      <path d="M3.35 23.6 L3.35 22.0 3.7 21.05 3.8 20.7 3.9 20.2 5.0 16.95 6.25 13.95 6.35 13.8 6.6 13.35 7.0 12.65 7.15 12.4 7.3 12.15 7.9 11.1 Q9.15 12.5 10.45 12.45 L10.65 13.0 10.8 14.25 9.7 15.55 9.5 15.85 9.3 16.15 9.15 16.45 8.9 16.8 8.1 18.3 Q7.75 18.9 7.15 20.65 L6.8 21.9 6.55 22.35 6.2 22.7 6.0 22.8 5.75 22.95 5.55 23.05 4.45 23.65 3.35 23.6 M3.35 20.65 L3.35 17.65 3.9 15.55 3.85 15.3 3.35 16.15 3.35 12.7 3.65 12.45 5.85 10.85 7.1 10.2 7.7 10.9 Q7.15 11.3 6.85 11.95 L6.8 11.95 6.7 12.25 6.35 13.1 6.15 13.45 6.1 13.55 4.85 16.5 3.85 19.25 3.65 19.7 3.45 20.35 3.35 20.65" fill="#d81616" fill-rule="evenodd" stroke="none"/>
      <path d="M21.25 15.0 L21.65 15.15 21.65 15.45 21.35 15.45 21.25 15.35 21.25 15.0 M20.8 15.35 L20.9 15.35 21.1 15.5 21.1 15.6 20.85 15.65 20.8 15.35" fill="#ffffff" fill-rule="evenodd" stroke="none"/>
      <path d="M30.1 25.8 L30.1 26.15 29.65 26.1 29.75 25.75 30.1 25.8 M30.1 27.05 L30.1 27.15 21.95 26.9 22.3 26.7 23.2 26.5 Q24.95 26.25 25.0 25.5 L25.05 25.35 28.95 25.7 28.2 25.9 Q26.95 26.25 26.95 26.55 L26.95 26.7 27.0 26.8 27.2 26.85 27.6 26.75 28.05 26.65 29.4 27.0 30.1 27.05 M3.35 25.9 L3.35 24.85 4.2 24.0 11.6 24.4 11.05 24.45 9.3 24.5 Q7.85 24.8 7.75 26.05 L7.75 26.15 3.35 25.9 M15.2 24.65 L20.6 24.95 19.65 25.15 18.85 25.2 17.9 26.4 18.2 26.75 12.85 26.45 14.05 25.7 15.2 24.75 15.2 24.65 M22.25 25.05 L23.05 25.1 23.1 25.15 Q23.0 25.15 22.95 25.25 L22.7 25.4 22.25 25.05 M23.45 25.2 L24.6 25.3 23.75 25.75 Q23.7 25.3 23.45 25.2 M12.35 26.45 L11.3 26.35 11.75 26.0 12.25 26.1 12.35 26.45 M10.85 26.35 L10.65 26.35 10.8 26.1 10.85 26.35 M10.2 26.3 L9.85 26.3 10.15 26.05 10.2 26.3 M9.4 26.25 L9.1 26.25 9.3 26.0 9.4 26.25 M8.75 26.2 L8.1 26.2 8.5 25.85 8.75 26.2 M18.65 26.8 L18.65 26.7 Q18.75 26.5 18.9 26.55 19.2 26.55 19.2 26.7 L19.2 26.8 18.65 26.8 M21.4 26.95 L20.6 26.9 21.3 26.7 21.4 26.9 21.4 26.95" fill="#f2f2f2" fill-rule="evenodd" stroke="none"/>
      <path d="M30.1 26.15 L30.1 27.05 29.4 27.0 28.05 26.65 27.6 26.75 27.2 26.85 27.0 26.8 26.95 26.7 26.95 26.55 Q26.95 26.25 28.2 25.9 L28.95 25.7 29.35 25.55 Q29.75 25.45 29.75 25.75 L29.65 26.1 30.1 26.15 M19.5 27.15 L19.2 27.15 19.2 27.1 19.2 26.8 19.2 26.7 Q19.2 26.55 18.9 26.55 18.75 26.5 18.65 26.7 L18.65 26.8 18.45 26.9 18.2 26.75 17.9 26.4 18.85 25.2 19.65 25.15 20.6 24.95 Q21.0 24.65 21.75 24.7 L22.25 25.05 22.7 25.4 22.95 25.25 Q23.0 25.15 23.1 25.15 L23.2 25.1 23.45 25.2 Q23.7 25.3 23.75 25.75 L24.6 25.3 24.8 25.2 24.95 25.2 25.05 25.35 25.0 25.5 Q24.95 26.25 23.2 26.5 L22.3 26.7 21.95 26.9 21.55 27.1 21.4 26.95 21.4 26.9 21.3 26.7 20.6 26.9 19.5 27.15 M3.35 24.85 L3.35 23.85 3.8 23.65 4.05 23.7 4.2 24.0 3.35 24.85 M11.6 24.4 L12.65 24.1 12.95 24.15 14.95 24.4 15.15 24.55 15.2 24.65 15.2 24.75 14.05 25.7 12.85 26.45 12.5 26.5 12.35 26.45 12.25 26.1 11.75 26.0 11.3 26.35 11.0 26.45 10.85 26.35 10.8 26.1 10.65 26.35 10.3 26.5 10.2 26.3 10.15 26.05 9.85 26.3 9.55 26.3 9.4 26.25 9.3 26.0 9.1 26.25 8.9 26.3 8.75 26.2 8.5 25.85 8.1 26.2 8.0 26.25 7.85 26.25 7.75 26.15 7.75 26.05 Q7.85 24.8 9.3 24.5 L11.05 24.45 11.6 24.4" fill="#db3535" fill-rule="evenodd" stroke="none"/>
    </g>
  </defs>
</svg>
