<?xml version="1.0" encoding="UTF-8" standalone="no"?>
<svg xmlns:xlink="http://www.w3.org/1999/xlink" height="214.5px" width="1230.0px" xmlns="http://www.w3.org/2000/svg">
  <g transform="matrix(6.0, 0.0, 0.0, 6.0, 3.0, 102.0)">
    <use height="34.0" id="bfr" transform="matrix(1.0, 0.0, 0.0, 1.0, 170.5, -17.0)" width="34.0" xlink:href="#button0"/>
    <use height="34.0" id="bf1" transform="matrix(1.0, 0.0, 0.0, 1.0, -0.5, -17.0)" width="34.0" xlink:href="#button1"/>
    <use height="34.0" id="bf2" transform="matrix(1.0, 0.0, 0.0, 1.0, 39.5, -17.0)" width="34.0" xlink:href="#button2"/>
    <use height="34.0" id="bf3" transform="matrix(1.0, 0.0, 0.0, 1.0, 79.5, -17.0)" width="34.0" xlink:href="#button3"/>
  </g>
  <defs>
    <g id="button0" transform="matrix(1.0, 0.0, 0.0, 1.0, 0.5, 0.5)">
      <use height="34.0" transform="matrix(1.0, 0.0, 0.0, 1.0, -0.5, -0.5)" width="34.0" xlink:href="#shape0"/>
      <use height="32.3" transform="matrix(1.0, 0.0, 0.0, 1.0, 0.6, 0.3)" width="32.1" xlink:href="#shape1"/>
    </g>
    <g id="shape0" transform="matrix(1.0, 0.0, 0.0, 1.0, 0.5, 0.5)">
      <path d="M33.0 0.0 L33.0 33.0 0.0 33.0 0.0 0.0 33.0 0.0" fill="#c4c4c4" fill-rule="evenodd" stroke="none"/>
      <path d="M33.0 0.0 L33.0 33.0 0.0 33.0 0.0 0.0 33.0 0.0 Z" fill="none" stroke="#000000" stroke-linecap="round" stroke-linejoin="round" stroke-width="1.0"/>
      <path d="M30.0 3.0 L3.0 3.0 3.0 30.0 30.0 30.0 30.0 3.0 M33.0 0.0 L33.0 33.0 0.0 33.0 0.0 0.0 33.0 0.0" fill="url(#gradient0)" fill-rule="evenodd" stroke="none"/>
      <path d="M30.0 3.0 L30.0 30.0 3.0 30.0 3.0 3.0 30.0 3.0" fill="#7b7b7b" fill-rule="evenodd" stroke="none"/>
      <path d="M30.0 3.0 L30.0 30.0 3.0 30.0 3.0 3.0 30.0 3.0 M33.0 0.0 L33.0 33.0 0.0 33.0 0.0 0.0 33.0 0.0" fill="none" stroke="#000000" stroke-linecap="round" stroke-linejoin="round" stroke-width="1.0"/>
      <path d="M28.0 0.0 L33.0 0.0 33.0 5.0 28.0 5.0 28.0 0.0 M0.0 0.0 L5.0 0.0 5.0 5.0 0.0 5.0 0.0 0.0 M5.0 28.0 L5.0 33.0 0.0 33.0 0.0 28.0 5.0 28.0 M28.0 28.0 L33.0 28.0 33.0 33.0 28.0 33.0 28.0 28.0" fill="#990000" fill-rule="evenodd" stroke="none"/>
      <path d="M28.0 0.0 L33.0 0.0 33.0 5.0 28.0 5.0 28.0 0.0 M0.0 0.0 L5.0 0.0 5.0 5.0 0.0 5.0 0.0 0.0 M5.0 28.0 L5.0 33.0 0.0 33.0 0.0 28.0 5.0 28.0 M28.0 28.0 L33.0 28.0 33.0 33.0 28.0 33.0 28.0 28.0" fill="none" stroke="#000000" stroke-linecap="round" stroke-linejoin="round" stroke-width="1.0"/>
    </g>
    <linearGradient gradientTransform="matrix(0.0152, 0.0234, -0.0234, 0.0152, 16.5, 16.45)" gradientUnits="userSpaceOnUse" id="gradient0" spreadMethod="pad" x1="-819.2" x2="819.2">
      <stop offset="0.0" stop-color="#eed600"/>
      <stop offset="0.19607843137254902" stop-color="#fef292"/>
      <stop offset="0.36470588235294116" stop-color="#ecd502"/>
      <stop offset="0.6352941176470588" stop-color="#9a8b00"/>
      <stop offset="0.8627450980392157" stop-color="#fff9c4"/>
      <stop offset="1.0" stop-color="#c4c400"/>
    </linearGradient>
    <g id="shape1" transform="matrix(1.0, 0.0, 0.0, 1.0, -0.6, -0.3)">
      <path d="M29.6 1.25 L29.05 2.1 28.6 1.8 28.6 1.45 28.85 0.8 Q28.9 0.35 29.3 0.35 L29.4 0.4 Q29.85 0.1 29.85 0.7 L29.7 1.1 29.6 1.25 M1.25 2.6 Q0.8 2.6 0.7 2.2 L0.7 1.7 Q0.7 1.15 1.45 0.65 2.2 0.2 2.2 0.95 L1.25 2.6 M1.85 29.35 L1.55 29.85 1.0 30.25 Q0.6 30.25 0.6 29.8 0.6 29.5 0.9 29.25 1.3 28.9 1.8 29.1 L1.85 29.35 M29.95 29.35 L29.8 29.95 29.4 30.25 Q28.95 30.25 28.95 29.8 28.95 29.4 29.45 29.0 29.95 28.55 29.95 29.35" fill="#ff6666" fill-rule="evenodd" stroke="none"/>
      <path d="M32.7 3.95 L32.7 4.35 31.45 4.6 Q30.2 4.6 30.2 4.2 30.2 3.9 30.7 3.65 L31.35 2.95 Q31.15 2.6 31.45 2.15 31.8 1.75 32.3 1.95 L32.7 3.95 M4.2 2.5 Q4.2 4.6 2.45 4.6 L2.05 4.55 Q1.95 4.05 2.1 3.9 L1.7 3.5 Q1.7 3.05 3.35 3.05 L3.9 2.1 Q4.2 1.65 4.2 2.5 M3.6 30.35 Q3.7 30.0 4.3 30.1 L4.35 32.05 Q4.25 32.6 3.75 32.6 L1.6 32.45 Q1.45 32.4 1.45 32.15 2.65 30.7 3.6 30.85 L3.6 30.35 M32.25 32.5 L31.25 32.5 30.25 32.5 29.85 32.05 30.05 31.8 31.3 31.25 31.2 30.65 Q31.2 30.25 31.55 29.8 31.95 29.25 32.25 29.95 L32.45 31.75 32.25 32.5" fill="#660000" fill-rule="evenodd" stroke="none"/>
      <path d="M28.0 20.5 L14.5 20.5 14.5 26.0 5.0 16.5 14.5 7.0 14.5 12.5 28.0 12.5 28.0 20.5" fill="#b10101" fill-rule="evenodd" stroke="none"/>
    </g>
    <g id="button1" transform="matrix(1.0, 0.0, 0.0, 1.0, 0.5, 0.5)">
      <use height="34.0" transform="matrix(1.0, 0.0, 0.0, 1.0, -0.5, -0.5)" width="34.0" xlink:href="#shape0"/>
      <use height="32.3" transform="matrix(1.0, 0.0, 0.0, 1.0, 0.6, 0.3)" width="32.1" xlink:href="#shape2"/>
    </g>
    <g id="shape2" transform="matrix(1.0, 0.0, 0.0, 1.0, -0.6, -0.3)">
      <path d="M29.85 0.7 L29.7 1.1 29.6 1.25 29.05 2.1 28.6 1.8 28.6 1.45 28.85 0.8 Q28.9 0.35 29.3 0.35 L29.4 0.4 Q29.85 0.1 29.85 0.7 M1.25 2.6 Q0.8 2.6 0.7 2.2 L0.7 1.7 Q0.7 1.15 1.45 0.65 2.2 0.2 2.2 0.95 L1.25 2.6 M1.85 29.35 L1.55 29.85 1.0 30.25 Q0.6 30.25 0.6 29.8 0.6 29.5 0.9 29.25 1.3 28.9 1.8 29.1 L1.85 29.35 M29.95 29.35 L29.8 29.95 29.4 30.25 Q28.95 30.25 28.95 29.8 28.95 29.4 29.45 29.0 29.95 28.55 29.95 29.35" fill="#ff6666" fill-rule="evenodd" stroke="none"/>
      <path d="M32.7 3.95 L32.7 4.35 31.45 4.6 Q30.2 4.6 30.2 4.2 30.2 3.9 30.7 3.65 L31.35 2.95 Q31.15 2.6 31.45 2.15 31.8 1.75 32.3 1.95 L32.7 3.95 M4.2 2.5 Q4.2 4.6 2.45 4.6 L2.05 4.55 Q1.95 4.05 2.1 3.9 L1.7 3.5 Q1.7 3.05 3.35 3.05 L3.9 2.1 Q4.2 1.65 4.2 2.5 M3.6 30.35 Q3.7 30.0 4.3 30.1 L4.35 32.05 Q4.25 32.6 3.75 32.6 L1.6 32.45 Q1.45 32.4 1.45 32.15 2.65 30.7 3.6 30.85 L3.6 30.35 M32.25 32.5 L31.25 32.5 30.25 32.5 29.85 32.05 30.05 31.8 31.3 31.25 31.2 30.65 Q31.2 30.25 31.55 29.8 31.95 29.25 32.25 29.95 L32.45 31.75 32.25 32.5" fill="#660000" fill-rule="evenodd" stroke="none"/>
      <path d="M12.7 29.65 L12.5 29.65 12.6 29.3 12.7 29.2 12.75 29.15 12.85 29.15 12.6 28.2 11.75 27.65 11.0 26.75 10.85 25.6 10.05 25.4 10.55 23.35 Q10.85 22.3 11.45 21.4 L10.85 21.25 10.55 19.3 10.3 17.75 10.25 17.7 10.25 17.65 10.35 17.6 10.7 17.7 11.0 17.65 11.35 17.8 11.55 17.85 11.55 17.75 11.65 17.25 11.35 16.7 11.2 16.0 11.3 15.1 11.2 15.2 Q11.05 14.35 11.65 13.35 L12.3 12.35 12.2 12.1 Q12.15 11.9 12.25 11.75 L12.9 10.7 12.9 10.65 12.95 9.7 12.85 8.95 Q12.8 8.45 12.9 8.1 12.75 7.75 12.85 7.25 L13.1 6.65 13.35 6.2 Q13.85 5.6 14.55 5.35 L14.6 5.4 14.75 5.2 14.9 5.0 14.95 5.0 Q15.15 5.2 15.3 4.9 L15.45 4.75 15.5 4.75 15.65 4.75 15.85 4.85 15.8 5.0 15.85 5.0 17.65 5.3 17.7 5.3 17.75 5.5 17.75 5.55 18.5 6.1 18.6 6.35 Q18.95 6.9 18.8 7.65 18.7 8.25 18.25 8.55 L18.3 9.45 18.5 9.75 18.7 10.0 Q18.8 10.4 18.45 10.5 L18.0 10.65 17.8 11.3 17.6 11.7 17.8 12.2 18.0 12.7 17.8 12.95 17.65 13.0 Q17.4 13.15 17.3 13.45 L17.2 13.7 17.6 14.15 17.5 14.05 17.2 13.85 17.65 15.05 17.65 14.25 17.8 14.45 17.85 14.65 17.95 15.7 18.5 17.05 Q18.95 18.05 18.0 19.1 L17.8 19.3 17.85 19.6 17.8 20.6 17.6 20.6 18.2 22.1 18.3 22.7 19.1 24.3 18.7 24.65 18.55 24.75 18.5 25.05 18.45 24.95 18.45 25.7 Q19.25 25.5 20.1 25.7 L22.75 26.6 25.0 27.4 26.9 28.1 27.2 28.0 27.6 28.2 27.75 28.25 27.75 28.5 16.45 25.6 15.95 25.45 15.8 26.75 15.8 27.15 16.3 27.2 16.75 27.25 17.05 27.3 17.85 27.45 18.2 27.5 18.9 27.6 21.7 28.15 23.95 28.65 26.45 29.2 27.75 29.55 27.75 29.65 26.6 29.65 24.85 29.25 21.15 28.45 18.15 27.95 18.1 27.95 17.9 28.6 17.85 28.8 18.75 29.1 18.7 29.15 18.6 29.65 18.25 29.65 18.25 29.6 18.2 29.65 16.6 29.65 16.65 29.2 17.4 29.55 17.45 29.1 17.5 28.65 17.55 28.65 17.7 27.9 16.95 27.8 16.45 29.2 16.3 29.65 16.0 29.65 16.55 27.85 16.6 27.75 15.5 27.5 15.3 28.2 14.4 28.55 13.6 28.7 13.0 28.45 13.2 29.15 Q13.8 29.25 14.25 29.65 L12.8 29.65 12.75 29.6 12.7 29.6 12.7 29.65 M13.9 8.65 L13.8 8.5 13.8 8.7 Q13.8 9.3 14.05 9.9 L14.1 9.85 14.2 9.9 14.15 9.3 14.1 8.9 13.9 8.75 13.9 8.65 M14.65 9.2 L14.7 9.3 14.7 9.2 14.65 9.2 M12.6 12.25 L12.85 12.05 13.0 12.05 13.1 12.1 13.2 12.15 13.25 12.2 13.75 12.0 13.8 11.95 Q15.75 12.45 16.45 14.1 L16.45 14.35 Q16.4 16.3 15.45 18.1 L15.45 18.15 15.5 18.4 15.5 18.5 15.6 18.45 15.8 18.35 15.85 18.5 15.95 18.6 15.9 18.75 15.7 18.8 16.0 19.85 16.45 19.75 16.55 19.7 17.35 19.1 17.45 18.95 17.1 17.6 17.0 16.5 17.0 15.9 16.95 15.7 16.85 14.3 16.8 14.05 16.6 13.55 16.55 13.5 16.45 13.2 16.3 13.1 15.7 12.5 Q14.45 11.25 12.55 11.95 L12.6 12.25 M13.95 9.95 L13.9 9.85 13.95 10.0 13.95 9.95 M14.55 10.45 L13.15 10.65 13.15 10.75 13.05 10.95 12.95 11.1 12.95 11.2 12.9 11.45 12.85 11.5 12.85 11.55 12.75 11.65 12.85 11.65 12.9 11.65 13.1 11.65 13.45 11.6 13.5 11.55 13.55 11.55 Q15.15 11.2 16.15 12.3 L16.9 13.45 16.95 13.55 16.95 13.5 16.95 13.3 17.0 13.3 17.05 13.4 17.2 13.2 Q17.8 12.65 17.3 11.9 L17.25 11.8 17.15 11.65 16.75 11.0 16.4 10.85 14.9 10.5 14.55 10.45 M15.25 8.85 L15.05 9.95 14.95 10.3 16.45 10.7 17.3 11.35 17.4 11.1 17.75 10.6 17.7 10.6 Q17.8 10.45 18.05 10.35 L18.45 10.2 18.3 9.85 18.1 9.6 18.05 9.55 18.05 9.45 17.9 8.95 17.9 8.7 17.85 8.7 17.85 8.3 17.85 8.25 17.75 8.25 17.6 8.2 17.1 8.7 17.05 8.35 16.1 8.8 16.2 8.65 16.1 8.75 15.9 8.9 15.65 8.9 15.7 8.7 15.3 8.85 15.35 8.7 15.25 8.75 15.25 8.85 M17.75 8.0 L17.65 8.15 17.75 8.05 17.75 8.0 M17.55 7.75 L17.5 7.7 17.45 7.9 17.55 7.75 M16.2 13.7 L15.1 12.9 13.8 12.3 13.4 12.5 13.2 12.65 Q12.65 13.0 12.4 13.5 L12.35 15.05 12.25 15.8 12.15 16.2 12.05 16.6 12.1 17.4 12.15 18.0 13.0 18.25 14.2 18.35 Q14.35 18.35 14.5 18.5 L14.7 18.45 14.9 17.8 15.0 17.55 15.3 17.1 15.5 16.9 15.6 16.65 16.15 15.05 16.35 13.9 16.2 13.7 M17.3 14.95 L17.4 15.65 17.6 16.45 17.75 17.35 17.75 17.4 17.55 17.15 17.55 18.1 17.55 18.15 17.55 18.4 17.55 18.6 17.55 18.85 17.65 18.75 17.9 18.4 18.55 17.65 17.9 16.3 17.7 15.85 17.5 15.4 17.3 14.95 M12.1 13.75 L11.55 14.65 11.55 15.1 11.65 15.15 11.85 15.35 11.85 15.1 12.0 14.3 12.05 13.9 12.1 13.75 M11.6 15.6 L11.75 16.3 11.8 15.85 11.6 15.6 M10.35 17.85 L11.3 20.25 11.45 20.95 11.45 21.0 11.65 21.15 11.7 21.15 12.7 20.95 15.2 20.75 15.55 20.75 15.5 19.9 15.45 19.6 15.4 19.35 15.4 18.85 15.35 18.8 15.25 18.75 15.2 18.7 15.1 18.65 Q14.8 18.7 14.6 18.85 L14.55 18.85 13.3 18.55 12.15 18.35 11.85 18.2 11.8 18.15 11.65 18.2 11.25 18.2 11.1 18.05 11.0 18.0 10.6 17.95 10.35 17.85 M12.7 21.25 L12.2 21.35 12.05 21.35 12.1 21.55 12.1 21.6 12.2 22.05 12.2 22.1 12.25 22.4 12.05 23.35 11.95 24.2 11.9 24.3 11.9 24.45 11.9 24.55 12.05 24.85 12.3 25.7 13.0 25.75 13.2 25.95 13.7 25.9 13.75 25.9 13.8 25.85 13.95 25.85 14.05 25.95 14.1 26.0 14.1 26.05 14.15 26.15 14.2 26.2 14.25 26.25 14.35 26.15 14.45 26.05 Q14.4 25.55 14.7 25.05 L14.95 24.65 15.2 24.3 15.3 24.05 15.25 24.0 Q14.5 23.55 14.45 22.85 14.4 22.1 14.5 21.4 L14.55 21.2 14.55 21.05 13.55 21.15 12.7 21.25 M14.85 21.2 L15.35 21.2 15.3 21.1 14.8 21.1 14.85 21.2 M11.75 22.0 Q11.2 22.45 11.0 23.05 L10.4 25.2 10.85 25.3 11.05 24.05 11.5 24.1 11.5 23.95 11.9 23.0 11.75 22.4 11.75 22.0 M14.7 23.2 L15.25 23.55 15.35 23.65 Q15.7 22.35 16.25 21.35 L15.95 21.35 15.95 21.4 15.7 21.35 14.9 21.4 14.85 22.0 Q14.7 22.6 14.7 23.2 M17.4 19.6 L17.3 20.25 17.6 20.25 17.45 19.55 17.4 19.6 M16.8 20.0 L16.75 20.05 16.1 20.2 16.0 20.25 15.8 21.05 15.8 21.15 16.35 21.1 16.65 21.0 16.75 20.95 16.7 20.35 16.8 20.05 16.8 20.0 M16.35 21.25 L15.85 23.75 15.8 24.0 16.2 25.25 17.1 25.5 17.1 23.65 17.0 23.4 Q16.7 23.0 16.7 22.3 L16.45 21.25 16.35 21.25 M17.15 20.55 L17.05 20.9 17.25 20.85 17.2 20.95 17.6 21.55 17.2 20.6 17.15 20.55 M16.9 21.5 L17.4 21.95 17.15 21.0 17.05 21.1 17.1 21.35 17.05 21.4 16.85 21.2 16.75 21.2 16.55 21.25 16.9 21.5 M17.25 22.75 L17.3 25.55 17.8 25.45 18.2 25.7 18.25 24.45 17.65 23.2 17.15 22.2 17.25 22.75 M18.75 24.05 L18.4 23.5 18.2 23.2 18.45 23.95 18.5 24.35 18.75 24.05 M12.35 26.85 L11.05 25.3 11.0 25.3 11.1 25.65 Q11.35 26.75 12.25 27.65 L12.55 27.9 12.95 28.1 13.65 28.25 14.45 28.25 14.9 28.15 15.55 25.9 15.55 24.8 15.5 24.4 15.45 24.85 15.3 25.05 15.25 25.1 15.15 25.3 14.55 27.05 14.5 26.5 14.2 26.55 13.85 26.3 13.25 26.3 12.75 26.0 12.7 26.0 12.8 27.15 14.1 27.2 14.5 27.1 Q14.05 27.95 13.35 27.65 L13.05 27.65 12.4 26.9 12.5 27.0 12.55 26.0 12.15 25.85 11.9 25.8 12.35 26.85 M11.55 24.8 L11.5 25.05 11.6 24.95 11.55 24.9 11.55 24.8" fill="#000000" fill-rule="evenodd" stroke="none"/>
      <path d="M13.8 8.7 L13.9 8.65 13.9 8.75 14.1 8.9 14.15 9.3 14.2 9.9 14.1 9.85 14.05 9.9 Q13.8 9.3 13.8 8.7 M16.1 8.8 L17.05 8.35 17.1 8.7 17.6 8.2 17.75 8.25 17.85 8.25 17.85 8.3 17.85 8.7 17.9 8.7 17.9 8.95 18.05 9.45 18.05 9.55 18.1 9.6 18.3 9.85 18.45 10.2 18.05 10.35 Q17.8 10.45 17.7 10.6 L17.75 10.6 17.4 11.1 17.3 11.35 16.45 10.7 14.95 10.3 15.05 9.95 15.25 8.85 15.3 8.85 15.7 8.7 15.65 8.9 15.9 8.9 16.1 8.75 16.1 8.8" fill="#eedc9d" fill-rule="evenodd" stroke="none"/>
      <path d="M17.6 14.15 L17.65 14.2 17.65 14.25 17.65 15.05 17.2 13.85 17.5 14.05 17.6 14.15 M14.55 10.45 L14.9 10.5 16.4 10.85 16.75 11.0 17.15 11.65 17.25 11.8 17.3 11.9 Q17.8 12.65 17.2 13.2 L17.05 13.4 17.0 13.3 16.95 13.3 16.95 13.5 16.95 13.55 16.9 13.45 16.15 12.3 Q15.15 11.2 13.55 11.55 L13.5 11.55 13.45 11.6 13.1 11.65 12.9 11.65 12.85 11.65 12.75 11.65 12.85 11.55 12.85 11.5 12.9 11.45 12.95 11.2 12.95 11.1 13.05 10.95 13.15 10.75 13.15 10.65 14.55 10.45 M16.2 13.7 L16.35 13.9 16.15 15.05 15.6 16.65 15.5 16.9 15.3 17.1 15.0 17.55 14.9 17.8 14.7 18.45 14.5 18.5 Q14.35 18.35 14.2 18.35 L13.0 18.25 12.15 18.0 12.1 17.4 12.05 16.6 12.15 16.2 12.25 15.8 12.35 15.05 12.4 13.5 Q12.65 13.0 13.2 12.65 L13.4 12.5 13.8 12.3 15.1 12.9 16.2 13.7 M12.1 13.75 L12.05 13.9 12.0 14.3 11.85 15.1 11.85 15.35 11.65 15.15 11.55 15.1 11.55 14.65 12.1 13.75 M14.7 23.2 Q14.7 22.6 14.85 22.0 L14.9 21.4 15.7 21.35 15.95 21.4 15.95 21.35 16.25 21.35 Q15.7 22.35 15.35 23.65 L15.25 23.55 14.7 23.2 M11.75 22.0 L11.75 22.4 11.9 23.0 11.5 23.95 11.5 24.1 11.05 24.05 10.85 25.3 10.4 25.2 11.0 23.05 Q11.2 22.45 11.75 22.0 M16.9 21.5 L16.55 21.25 16.75 21.2 16.85 21.2 17.05 21.4 17.1 21.35 17.05 21.1 17.15 21.0 17.4 21.95 16.9 21.5 M18.75 24.05 L18.5 24.35 18.45 23.95 18.2 23.2 18.4 23.5 18.75 24.05" fill="#ffffff" fill-rule="evenodd" stroke="none"/>
      <path d="M12.8 29.65 L12.7 29.65 12.7 29.6 12.75 29.6 12.8 29.65 M12.6 12.25 L12.55 11.95 Q14.45 11.25 15.7 12.5 L16.3 13.1 16.45 13.2 16.55 13.5 16.6 13.55 16.8 14.05 16.85 14.3 16.95 15.7 17.0 15.9 17.0 16.5 17.1 17.6 17.45 18.95 17.35 19.1 16.55 19.7 16.45 19.75 16.0 19.85 15.7 18.8 15.9 18.75 15.95 18.6 15.85 18.5 15.8 18.35 15.6 18.45 15.5 18.5 15.5 18.4 15.45 18.15 15.45 18.1 Q16.4 16.3 16.45 14.35 L16.45 14.1 Q15.75 12.45 13.8 11.95 L13.75 12.0 13.25 12.2 13.2 12.15 13.1 12.1 13.0 12.05 12.85 12.05 12.6 12.25 M17.3 14.95 L17.5 15.4 17.7 15.85 17.9 16.3 18.55 17.65 17.9 18.4 17.65 18.75 17.55 18.85 17.55 18.6 17.55 18.4 17.55 18.15 17.55 18.1 17.55 17.15 17.75 17.4 17.75 17.35 17.6 16.45 17.4 15.65 17.3 14.95 M14.85 21.2 L14.8 21.1 15.3 21.1 15.35 21.2 14.85 21.2 M12.7 21.25 L13.55 21.15 14.55 21.05 14.55 21.2 14.5 21.4 Q14.4 22.1 14.45 22.85 14.5 23.55 15.25 24.0 L15.3 24.05 15.2 24.3 14.95 24.65 14.7 25.05 Q14.4 25.55 14.45 26.05 L14.35 26.15 14.25 26.25 14.2 26.2 14.15 26.15 14.1 26.05 14.1 26.0 14.05 25.95 13.95 25.85 13.8 25.85 13.75 25.9 13.7 25.9 13.2 25.95 13.0 25.75 12.3 25.7 12.05 24.85 11.9 24.55 11.9 24.45 11.9 24.3 11.95 24.2 12.05 23.35 12.25 22.4 12.2 22.1 12.2 22.05 12.1 21.6 12.1 21.55 12.05 21.35 12.2 21.35 12.7 21.25 M10.35 17.85 L10.6 17.95 11.0 18.0 11.1 18.05 11.25 18.2 11.65 18.2 11.8 18.15 11.85 18.2 12.15 18.35 13.3 18.55 14.55 18.85 14.6 18.85 Q14.8 18.7 15.1 18.65 L15.2 18.7 15.25 18.75 15.35 18.8 15.4 18.85 15.4 19.35 15.45 19.6 15.5 19.9 15.55 20.75 15.2 20.75 12.7 20.95 11.7 21.15 11.65 21.15 11.45 21.0 11.45 20.95 11.3 20.25 10.35 17.85 M11.6 15.6 L11.8 15.85 11.75 16.3 11.6 15.6 M17.4 19.6 L17.45 19.55 17.6 20.25 17.3 20.25 17.4 19.6" fill="#63492e" fill-rule="evenodd" stroke="none"/>
      <path d="M16.6 29.65 L16.3 29.65 16.45 29.2 16.95 27.8 17.7 27.9 17.55 28.65 17.5 28.65 17.45 29.1 17.4 29.55 16.65 29.2 16.6 29.65 M16.0 29.65 L14.25 29.65 Q13.8 29.25 13.2 29.15 L13.0 28.45 13.6 28.7 14.4 28.55 15.3 28.2 15.5 27.5 16.6 27.75 16.55 27.85 16.0 29.65 M17.15 20.55 L17.2 20.6 17.6 21.55 17.2 20.95 17.25 20.85 17.05 20.9 17.15 20.55 M16.35 21.25 L16.45 21.25 16.7 22.3 Q16.7 23.0 17.0 23.4 L17.1 23.65 17.1 25.5 16.2 25.25 15.8 24.0 15.85 23.75 16.35 21.25 M17.25 22.75 L17.15 22.2 17.65 23.2 18.25 24.45 18.2 25.7 17.8 25.45 17.3 25.55 17.25 22.75 M14.55 27.05 L14.5 27.1 14.1 27.2 12.8 27.15 12.7 26.0 12.75 26.0 13.25 26.3 13.85 26.3 14.2 26.55 14.5 26.5 14.55 27.05" fill="#3c3e7d" fill-rule="evenodd" stroke="none"/>
      <path d="M16.8 20.0 L16.8 20.05 16.7 20.35 16.75 20.95 16.65 21.0 16.35 21.1 15.8 21.15 15.8 21.05 16.0 20.25 16.1 20.2 16.75 20.05 16.8 20.0" fill="#666666" fill-rule="evenodd" stroke="none"/>
      <path d="M14.55 27.05 L15.15 25.3 15.25 25.1 15.3 25.05 15.45 24.85 15.5 24.4 15.55 24.8 15.55 25.9 14.9 28.15 14.45 28.25 13.65 28.25 12.95 28.1 12.55 27.9 12.25 27.65 Q11.35 26.75 11.1 25.65 L11.0 25.3 11.05 25.3 12.35 26.85 12.4 26.9 13.05 27.65 13.35 27.65 Q14.05 27.95 14.5 27.1 L14.55 27.05 M11.55 24.8 L11.55 24.9 11.6 24.95 11.5 25.05 11.55 24.8" fill="#e0dc8f" fill-rule="evenodd" stroke="none"/>
      <path d="M15.8 27.15 L15.8 26.75 15.95 25.45 16.45 25.6 15.8 27.15" fill="#e5e5e5" fill-rule="evenodd" stroke="none"/>
      <path d="M27.75 28.5 L27.75 29.55 26.45 29.2 23.95 28.65 21.7 28.15 18.9 27.6 18.2 27.5 17.85 27.45 17.05 27.3 16.75 27.25 16.3 27.2 15.8 27.15 16.45 25.6 27.75 28.5" fill="#e8e8e8" fill-rule="evenodd" stroke="none"/>
    </g>
    <g id="button2" transform="matrix(1.0, 0.0, 0.0, 1.0, 0.5, 0.5)">
      <use height="34.0" transform="matrix(1.0, 0.0, 0.0, 1.0, -0.5, -0.5)" width="34.0" xlink:href="#shape0"/>
      <use height="32.3" transform="matrix(1.0, 0.0, 0.0, 1.0, 0.6, 0.3)" width="32.1" xlink:href="#shape3"/>
    </g>
    <g id="shape3" transform="matrix(1.0, 0.0, 0.0, 1.0, -0.6, -0.3)">
      <path d="M29.85 0.7 L29.7 1.1 29.6 1.25 29.05 2.1 28.6 1.8 28.6 1.45 28.85 0.8 Q28.9 0.35 29.3 0.35 L29.4 0.4 Q29.85 0.1 29.85 0.7 M1.25 2.6 Q0.8 2.6 0.7 2.2 L0.7 1.7 Q0.7 1.15 1.45 0.65 2.2 0.2 2.2 0.95 L1.25 2.6 M1.85 29.35 L1.55 29.85 1.0 30.25 Q0.6 30.25 0.6 29.8 0.6 29.5 0.9 29.25 1.3 28.9 1.8 29.1 L1.85 29.35 M29.95 29.35 L29.8 29.95 29.4 30.25 Q28.95 30.25 28.95 29.8 28.95 29.4 29.45 29.0 29.95 28.55 29.95 29.35" fill="#ff6666" fill-rule="evenodd" stroke="none"/>
      <path d="M32.7 3.95 L32.7 4.35 31.45 4.6 Q30.2 4.6 30.2 4.2 30.2 3.9 30.7 3.65 L31.35 2.95 Q31.15 2.6 31.45 2.15 31.8 1.75 32.3 1.95 L32.7 3.95 M4.2 2.5 Q4.2 4.6 2.45 4.6 L2.05 4.55 Q1.95 4.05 2.1 3.9 L1.7 3.5 Q1.7 3.05 3.35 3.05 L3.9 2.1 Q4.2 1.65 4.2 2.5 M3.6 30.35 Q3.7 30.0 4.3 30.1 L4.35 32.05 Q4.25 32.6 3.75 32.6 L1.6 32.45 Q1.45 32.4 1.45 32.15 2.65 30.7 3.6 30.85 L3.6 30.35 M32.25 32.5 L31.25 32.5 30.25 32.5 29.85 32.05 30.05 31.8 31.3 31.25 31.2 30.65 Q31.2 30.25 31.55 29.8 31.95 29.25 32.25 29.95 L32.45 31.75 32.25 32.5" fill="#660000" fill-rule="evenodd" stroke="none"/>
      <path d="M6.55 11.75 L10.25 12.35 11.5 12.3 11.6 12.3 Q14.35 12.15 17.35 11.0 L17.9 10.85 Q19.55 10.3 21.15 10.25 L21.4 10.25 17.25 9.45 16.3 9.45 14.3 9.8 10.45 10.85 7.6 11.4 6.45 11.45 6.35 11.45 6.45 11.5 6.5 11.65 6.5 11.7 6.45 11.8 6.5 11.8 6.85 11.9 6.55 11.75 M11.0 7.6 L12.8 6.6 15.6 6.35 15.7 6.35 16.2 6.55 16.35 6.65 16.5 7.4 17.05 8.45 17.3 8.9 18.05 9.0 21.55 9.9 22.05 10.3 22.25 10.35 22.3 10.55 17.95 11.25 17.8 11.9 16.95 12.95 16.8 14.05 17.1 14.55 17.3 14.8 Q17.3 15.3 16.85 15.4 L16.3 15.45 15.95 16.25 15.75 16.6 15.75 16.7 15.75 16.75 15.65 16.9 16.65 16.8 16.9 16.55 17.9 15.8 Q17.85 15.4 18.25 15.35 L18.7 15.35 19.0 15.85 Q19.4 15.8 19.7 16.1 L19.95 16.3 21.4 16.15 21.4 16.1 24.55 15.8 29.55 15.75 29.75 15.5 29.75 16.45 29.55 16.85 29.6 17.0 Q29.3 17.15 29.1 17.4 L28.9 17.7 28.95 18.05 28.95 18.1 29.25 18.55 29.75 18.55 29.75 18.85 29.0 18.7 28.7 18.3 28.7 18.0 26.5 18.55 27.2 18.6 25.6 19.35 25.9 20.3 26.2 20.15 26.7 19.9 27.05 19.8 28.2 19.75 29.25 19.7 29.75 19.5 29.75 20.05 28.95 20.2 27.85 20.0 27.1 20.35 26.5 20.5 26.05 20.65 26.0 21.55 23.95 22.4 22.15 23.1 22.1 23.1 22.05 23.15 22.05 23.1 22.0 23.1 22.05 22.65 22.0 22.35 21.25 22.75 20.8 22.65 20.85 22.6 20.75 22.55 20.6 22.5 20.25 22.8 20.0 23.0 19.35 25.35 18.9 27.3 18.85 27.35 18.85 27.4 18.75 27.45 18.45 27.2 18.0 27.05 17.75 26.7 17.25 26.4 17.05 26.35 Q16.7 25.7 16.0 25.4 L15.0 24.85 14.4 25.2 14.1 26.05 13.85 26.8 14.1 26.8 14.0 26.85 15.1 29.0 15.4 29.6 14.3 29.6 13.9 28.65 Q13.35 28.35 12.95 27.7 L12.8 27.5 12.55 28.5 12.85 29.6 11.55 29.6 12.05 28.5 12.3 28.0 12.7 27.35 12.75 27.25 12.65 27.25 12.35 27.3 12.05 27.25 11.7 27.25 11.4 27.25 10.0 27.15 9.35 27.05 7.75 26.65 7.1 27.6 Q6.45 28.1 6.15 28.8 L5.8 29.6 5.4 29.6 5.5 29.25 Q6.0 27.6 7.2 26.5 L6.95 26.4 Q6.5 25.9 6.75 25.3 L7.05 24.2 Q7.15 23.85 7.5 23.7 L7.6 23.75 7.75 23.8 7.8 23.9 7.85 23.95 7.85 24.0 7.8 24.05 7.95 24.05 Q7.85 22.5 7.15 21.0 L7.05 20.15 7.2 19.0 7.1 19.15 7.25 18.2 7.4 16.8 7.45 16.7 8.7 15.75 8.6 15.4 8.8 15.0 9.65 13.75 10.2 13.3 10.2 12.8 9.75 12.75 7.7 12.3 7.65 12.35 7.6 12.4 Q6.8 12.75 6.2 12.1 L6.2 12.0 6.1 11.85 6.15 11.4 6.25 11.1 9.05 11.0 9.45 10.9 9.35 10.85 10.35 10.0 10.6 9.6 10.75 9.8 10.8 9.9 10.8 9.95 10.55 10.25 10.15 10.7 10.55 10.55 10.65 10.5 11.4 10.3 11.65 10.4 11.6 10.2 16.65 8.95 16.85 8.95 16.9 8.95 Q16.6 8.8 16.45 8.35 L16.0 7.1 15.95 6.85 12.9 7.0 Q11.95 7.25 11.15 7.75 11.45 8.2 11.25 8.8 L11.05 8.1 11.1 8.1 11.1 8.05 11.0 7.6 M23.1 19.9 Q24.0 19.1 25.1 18.8 L25.35 18.7 25.4 18.7 Q26.4 18.3 27.4 18.0 L28.7 17.75 Q28.75 17.05 29.2 16.35 L28.35 16.4 27.85 16.45 25.15 16.6 22.8 16.85 22.4 16.85 22.15 16.9 21.55 16.95 20.65 17.1 Q21.15 17.6 20.95 18.55 L20.95 18.65 21.9 18.9 22.15 18.95 22.25 18.95 22.6 19.1 23.0 19.25 23.05 19.85 23.05 19.9 23.1 19.9 M20.45 17.25 L20.15 17.2 19.8 16.9 19.6 16.55 19.15 16.4 19.05 16.35 18.95 16.35 18.9 16.35 18.65 16.1 18.6 16.0 18.65 16.0 18.6 15.8 18.6 15.75 18.25 15.8 17.7 16.65 17.45 16.8 16.65 17.4 16.3 17.65 Q16.95 18.5 16.7 19.4 L16.65 19.45 16.35 20.15 16.1 20.65 15.9 21.05 15.65 21.4 16.4 21.7 16.8 21.85 18.7 22.35 18.7 22.05 18.8 21.45 18.85 21.4 18.9 21.0 Q19.15 20.3 19.65 20.0 L20.15 19.05 20.2 19.0 20.4 18.6 20.4 18.4 Q20.35 17.8 20.45 17.25 M23.05 20.2 L22.9 20.0 22.6 19.55 22.6 19.65 22.45 21.2 22.4 21.35 22.4 21.4 22.5 21.9 22.4 22.15 22.4 22.25 22.35 22.7 22.3 22.95 Q23.75 21.85 25.6 21.05 25.85 21.0 25.7 20.7 L25.3 19.5 23.05 20.2 M20.55 19.6 L19.65 20.5 19.55 21.3 19.2 21.95 19.1 22.4 19.15 22.45 19.85 22.2 20.0 22.15 20.05 22.15 20.95 22.2 21.25 22.0 21.55 22.05 21.95 20.75 21.7 19.1 20.85 19.05 20.55 19.6 M16.2 11.9 L16.2 11.85 16.1 12.05 16.2 11.9 M16.4 12.2 L16.3 12.3 16.4 12.25 16.4 12.2 M16.55 11.85 L16.5 11.95 16.55 12.0 16.55 11.85 M9.4 14.9 L9.55 14.9 10.0 14.85 10.4 14.8 12.3 15.05 13.5 16.05 13.7 16.3 14.0 16.85 14.1 17.0 15.1 16.95 15.3 16.4 15.0 15.55 14.45 14.5 14.0 14.3 Q13.5 14.0 13.0 13.85 L11.75 13.6 11.45 13.6 10.25 13.65 10.0 13.7 9.95 13.85 9.8 14.05 9.7 14.25 9.4 14.85 9.35 14.9 9.4 14.9 M9.15 15.25 L9.15 15.55 9.5 15.4 11.4 15.3 11.65 15.45 13.65 17.15 13.75 17.1 13.05 16.35 12.95 16.2 Q12.55 15.7 12.0 15.45 L11.95 15.4 9.95 15.1 9.15 15.25 M9.25 15.95 L8.0 16.75 7.75 16.9 7.75 17.15 7.8 18.3 8.2 19.2 Q8.85 19.5 9.75 20.25 L10.2 20.6 11.2 21.55 11.5 21.75 12.05 22.0 12.85 22.4 13.0 22.5 13.05 22.55 13.3 22.7 13.55 21.9 14.35 20.7 15.35 21.25 Q15.3 20.95 15.55 20.65 L15.5 20.65 15.2 20.3 14.3 19.3 Q13.85 18.8 13.75 18.05 L13.6 17.85 13.25 17.3 12.25 16.2 11.1 15.3 10.85 15.3 Q10.35 15.4 9.9 15.65 L9.25 15.95 M7.95 19.5 L7.85 19.5 7.95 19.55 8.35 20.0 8.45 20.2 8.45 20.25 8.6 20.3 8.85 20.35 9.0 20.45 9.05 20.45 8.75 20.15 8.35 19.85 7.95 19.5 M9.35 20.75 L9.25 20.7 9.6 20.9 9.55 20.85 9.35 20.75 M7.55 19.1 L7.6 19.15 7.55 19.1 M7.3 24.65 L7.25 25.15 7.15 25.55 7.05 25.85 9.45 26.75 9.75 26.8 9.8 26.85 10.3 26.9 11.2 27.0 11.35 27.0 11.7 27.0 11.55 26.5 11.55 26.45 11.6 26.15 11.7 25.95 11.7 25.8 10.05 25.45 9.6 25.15 Q8.8 25.1 8.2 24.75 L7.95 24.8 7.95 24.45 7.6 24.35 7.4 24.3 7.3 24.65 M8.35 24.35 L8.4 24.4 10.9 25.25 11.7 25.4 11.6 22.35 11.25 22.1 8.9 20.95 Q7.95 20.35 7.55 19.7 L7.8 21.4 8.35 24.15 8.35 24.35 M13.2 12.85 L13.05 13.7 14.05 14.15 Q15.15 14.7 15.5 15.95 L15.95 15.35 16.35 15.15 16.95 15.0 16.8 14.55 16.6 14.25 16.55 14.1 16.5 14.0 Q16.4 13.8 16.45 13.35 L16.5 13.1 16.45 13.05 16.45 12.55 16.45 12.5 16.35 12.5 16.2 12.45 15.5 12.9 15.5 12.5 14.3 12.9 14.4 12.75 14.3 12.85 14.05 13.05 13.65 12.95 13.85 12.75 13.3 12.85 13.4 12.6 13.2 12.75 13.2 12.85 M16.05 17.4 L15.0 17.35 14.75 17.35 14.25 17.3 13.85 17.25 13.75 17.25 15.05 19.15 15.4 19.8 15.6 20.05 16.25 19.6 16.55 18.95 16.1 18.25 15.9 17.65 15.95 17.5 16.05 17.4 M13.0 12.5 L13.05 12.5 13.0 12.5 M11.8 12.7 L11.45 12.75 11.45 13.35 11.75 13.4 11.75 13.25 11.8 12.7 M12.45 13.2 L12.45 13.15 12.4 13.15 12.45 13.2 M12.1 22.75 L11.85 25.4 13.3 25.3 14.45 24.45 14.45 24.4 13.7 24.25 13.35 23.85 13.2 23.85 12.95 23.95 12.9 23.7 12.85 23.55 13.05 23.45 13.2 23.4 13.2 23.15 13.15 23.05 12.75 23.0 12.15 22.8 12.1 22.75 M13.85 23.15 L13.6 23.55 13.7 23.65 13.75 23.75 13.75 23.8 13.9 23.85 14.35 23.95 14.6 23.9 14.7 24.0 14.8 24.15 15.3 24.55 15.85 24.9 Q16.7 25.3 17.3 26.0 L17.35 26.1 18.0 26.3 18.15 26.55 18.2 26.65 18.65 26.9 18.85 27.15 Q18.75 25.15 19.15 23.1 19.25 22.8 18.95 22.75 L18.4 22.65 16.7 22.2 16.2 22.0 14.4 21.25 Q14.0 22.05 13.85 22.95 L13.85 23.15 M12.7 25.8 L12.2 25.8 12.2 26.35 12.2 26.4 12.25 26.9 12.25 26.95 12.35 26.95 13.0 26.9 13.45 26.85 13.45 26.15 13.6 25.7 12.7 25.8 M13.75 27.4 L13.5 27.15 13.3 27.2 13.15 27.2 13.7 27.65 14.1 28.15 13.95 26.95 13.8 27.05 13.75 27.35 13.75 27.4" fill="#000000" fill-rule="evenodd" stroke="none"/>
      <path d="M14.3 12.9 L15.5 12.5 15.5 12.9 16.2 12.45 16.35 12.5 16.45 12.5 16.45 12.55 16.45 13.05 16.5 13.1 16.45 13.35 Q16.4 13.8 16.5 14.0 L16.55 14.1 16.6 14.25 16.8 14.55 16.95 15.0 16.35 15.15 15.95 15.35 15.5 15.95 Q15.15 14.7 14.05 14.15 L13.05 13.7 13.2 12.85 13.3 12.85 13.85 12.75 13.65 12.95 14.05 13.05 14.3 12.85 14.3 12.9 M11.8 12.7 L11.75 13.25 11.75 13.4 11.45 13.35 11.45 12.75 11.8 12.7" fill="#eedc9d" fill-rule="evenodd" stroke="none"/>
      <path d="M11.55 29.6 L5.8 29.6 6.15 28.8 Q6.45 28.1 7.1 27.6 L7.75 26.65 9.35 27.05 10.0 27.15 11.4 27.25 11.7 27.25 12.05 27.25 12.35 27.3 12.65 27.25 12.75 27.25 12.7 27.35 12.3 28.0 12.05 28.5 11.55 29.6 M20.55 19.6 L20.85 19.05 21.7 19.1 21.95 20.75 21.55 22.05 21.25 22.0 20.95 22.2 20.05 22.15 20.0 22.15 19.85 22.2 19.15 22.45 19.1 22.4 19.2 21.95 19.55 21.3 19.65 20.5 20.55 19.6 M9.4 14.85 L9.7 14.25 9.8 14.05 9.95 13.85 10.0 13.7 10.25 13.65 11.45 13.6 11.75 13.6 13.0 13.85 Q13.5 14.0 14.0 14.3 L14.45 14.5 15.0 15.55 15.3 16.4 15.1 16.95 14.1 17.0 14.0 16.85 13.7 16.3 13.5 16.05 12.3 15.05 10.4 14.8 10.0 14.85 9.55 14.9 9.4 14.9 9.4 14.85 M7.95 19.5 L8.35 19.85 8.75 20.15 9.05 20.45 9.0 20.45 8.85 20.35 8.6 20.3 8.45 20.25 8.45 20.2 8.35 20.0 7.95 19.55 7.85 19.5 7.95 19.5 M9.25 15.95 L9.9 15.65 Q10.35 15.4 10.85 15.3 L11.1 15.3 12.25 16.2 13.25 17.3 13.6 17.85 13.75 18.05 Q13.85 18.8 14.3 19.3 L15.2 20.3 15.5 20.65 15.55 20.65 Q15.3 20.95 15.35 21.25 L14.35 20.7 13.55 21.9 13.3 22.7 13.05 22.55 13.0 22.5 12.85 22.4 12.05 22.0 11.5 21.75 11.2 21.55 10.2 20.6 9.75 20.25 Q8.85 19.5 8.2 19.2 L7.8 18.3 7.75 17.15 7.75 16.9 8.0 16.75 9.25 15.95 M7.55 19.1 L7.6 19.15 7.55 19.1 M13.75 27.4 L13.75 27.35 13.8 27.05 13.95 26.95 14.1 28.15 13.7 27.65 13.15 27.2 13.3 27.2 13.5 27.15 13.75 27.4" fill="#ffffff" fill-rule="evenodd" stroke="none"/>
      <path d="M6.45 11.45 L7.6 11.4 10.45 10.85 14.3 9.8 16.3 9.45 17.25 9.45 21.4 10.25 21.15 10.25 Q19.55 10.3 17.9 10.85 L17.35 11.0 Q14.35 12.15 11.6 12.3 L11.5 12.3 10.25 12.35 6.55 11.75 6.45 11.8 6.5 11.7 6.5 11.65 6.45 11.5 6.45 11.45 M29.75 16.45 L29.75 18.55 29.25 18.55 28.95 18.1 28.95 18.05 28.9 17.7 29.1 17.4 Q29.3 17.15 29.6 17.0 L29.55 16.85 29.75 16.45 M29.75 18.85 L29.75 19.5 29.25 19.7 28.2 19.75 27.05 19.8 26.7 19.9 26.2 20.15 25.9 20.3 25.6 19.35 27.2 18.6 26.5 18.55 28.7 18.0 28.7 18.3 29.0 18.7 29.75 18.85 M11.25 8.8 Q11.45 8.2 11.15 7.75 11.95 7.25 12.9 7.0 L15.95 6.85 16.0 7.1 16.45 8.35 Q16.6 8.8 16.9 8.95 L16.85 8.95 16.65 8.95 11.6 10.2 11.4 9.2 11.3 8.95 11.25 8.8 M11.4 10.3 L10.65 10.5 10.55 10.55 10.15 10.7 10.55 10.25 10.8 9.95 10.8 9.9 11.3 10.2 11.4 10.3 M23.05 19.85 L23.1 19.9 23.05 19.9 23.05 19.85 M23.05 20.2 L25.3 19.5 25.7 20.7 Q25.85 21.0 25.6 21.05 23.75 21.85 22.3 22.95 L22.35 22.7 22.4 22.25 22.4 22.15 22.5 21.9 22.4 21.4 22.4 21.35 22.45 21.2 22.6 19.65 22.6 19.55 22.9 20.0 23.05 20.2 M20.45 17.25 Q20.35 17.8 20.4 18.4 L20.4 18.6 20.2 19.0 20.15 19.05 19.65 20.0 Q19.15 20.3 18.9 21.0 L18.85 21.4 18.8 21.45 18.7 22.05 18.7 22.35 16.8 21.85 16.4 21.7 15.65 21.4 15.9 21.05 16.1 20.65 16.35 20.15 16.65 19.45 16.7 19.4 Q16.95 18.5 16.3 17.65 L16.65 17.4 17.45 16.8 17.7 16.65 18.25 15.8 18.6 15.75 18.6 15.8 18.65 16.0 18.6 16.0 18.65 16.1 18.9 16.35 18.95 16.35 19.05 16.35 19.15 16.4 19.6 16.55 19.8 16.9 20.15 17.2 20.45 17.25 M9.15 15.25 L9.95 15.1 11.95 15.4 12.0 15.45 Q12.55 15.7 12.95 16.2 L13.05 16.35 13.75 17.1 13.65 17.15 11.65 15.45 11.4 15.3 9.5 15.4 9.15 15.55 9.15 15.25 M9.35 20.75 L9.55 20.85 9.6 20.9 9.25 20.7 9.35 20.75 M8.35 24.35 L8.35 24.15 7.8 21.4 7.55 19.7 Q7.95 20.35 8.9 20.95 L11.25 22.1 11.6 22.35 11.7 25.4 10.9 25.25 8.4 24.4 8.35 24.35 M7.3 24.65 L7.4 24.3 7.6 24.35 7.95 24.45 7.95 24.8 8.2 24.75 Q8.8 25.1 9.6 25.15 L10.05 25.45 11.7 25.8 11.7 25.95 11.6 26.15 11.55 26.45 11.55 26.5 11.7 27.0 11.35 27.0 11.2 27.0 10.3 26.9 9.8 26.85 9.75 26.8 9.45 26.75 7.05 25.85 7.15 25.55 7.25 25.15 7.3 24.65 M13.85 23.15 L13.85 22.95 Q14.0 22.05 14.4 21.25 L16.2 22.0 16.7 22.2 18.4 22.65 18.95 22.75 Q19.25 22.8 19.15 23.1 18.75 25.15 18.85 27.15 L18.65 26.9 18.2 26.65 18.15 26.55 18.0 26.3 17.35 26.1 17.3 26.0 Q16.7 25.3 15.85 24.9 L15.3 24.55 14.8 24.15 14.7 24.0 14.6 23.9 14.35 23.95 13.9 23.85 13.75 23.8 13.75 23.75 13.7 23.65 13.6 23.55 13.85 23.15 M12.1 22.75 L12.15 22.8 12.75 23.0 13.15 23.05 13.2 23.15 13.2 23.4 13.05 23.45 12.85 23.55 12.9 23.7 12.95 23.95 13.2 23.85 13.35 23.85 13.7 24.25 14.45 24.4 14.45 24.45 13.3 25.3 11.85 25.4 12.1 22.75" fill="#63492e" fill-rule="evenodd" stroke="none"/>
      <path d="M14.3 29.6 L12.85 29.6 12.55 28.5 12.8 27.5 12.95 27.7 Q13.35 28.35 13.9 28.65 L14.3 29.6" fill="#3c3e7d" fill-rule="evenodd" stroke="none"/>
      <path d="M12.7 25.8 L13.6 25.7 13.45 26.15 13.45 26.85 13.0 26.9 12.35 26.95 12.25 26.95 12.25 26.9 12.2 26.4 12.2 26.35 12.2 25.8 12.7 25.8" fill="#666666" fill-rule="evenodd" stroke="none"/>
      <path d="M23.05 19.85 L23.0 19.25 22.6 19.1 22.25 18.95 22.15 18.95 21.9 18.9 20.95 18.65 20.95 18.55 Q21.15 17.6 20.65 17.1 L21.55 16.95 22.15 16.9 22.4 16.85 22.8 16.85 25.15 16.6 27.85 16.45 28.35 16.4 29.2 16.35 Q28.75 17.05 28.7 17.75 L27.4 18.0 Q26.4 18.3 25.4 18.7 L25.35 18.7 25.1 18.8 Q24.0 19.1 23.1 19.9 L23.05 19.85 M16.05 17.4 L15.95 17.5 15.9 17.65 16.1 18.25 16.55 18.95 16.25 19.6 15.6 20.05 15.4 19.8 15.05 19.15 13.75 17.25 13.85 17.25 14.25 17.3 14.75 17.35 15.0 17.35 16.05 17.4" fill="#2b1f13" fill-rule="evenodd" stroke="none"/>
      <path d="M10.6 9.6 L10.15 8.9 Q9.25 8.5 8.5 7.65 8.2 7.3 8.6 7.15 9.45 7.3 10.05 7.75 10.55 8.15 10.6 8.8 L10.7 8.8 10.7 7.9 10.3 7.5 9.55 6.1 9.65 6.1 10.65 6.85 11.0 7.6 11.1 8.05 11.1 8.1 11.05 8.1 11.25 8.8 11.3 8.95 11.4 9.2 11.6 10.2 11.65 10.4 11.4 10.3 11.3 10.2 10.8 9.9 10.75 9.8 10.6 9.6" fill="#990000" fill-rule="evenodd" stroke="none"/>
    </g>
    <g id="button3" transform="matrix(1.0, 0.0, 0.0, 1.0, 0.5, 0.5)">
      <use height="34.0" transform="matrix(1.0, 0.0, 0.0, 1.0, -0.5, -0.5)" width="34.0" xlink:href="#shape0"/>
      <use height="32.3" transform="matrix(1.0, 0.0, 0.0, 1.0, 0.6, 0.3)" width="32.1" xlink:href="#shape4"/>
    </g>
    <g id="shape4" transform="matrix(1.0, 0.0, 0.0, 1.0, -0.6, -0.3)">
      <path d="M29.85 0.7 L29.7 1.1 29.6 1.25 29.05 2.1 28.6 1.8 28.6 1.45 28.85 0.8 Q28.9 0.35 29.3 0.35 L29.4 0.4 Q29.85 0.1 29.85 0.7 M1.25 2.6 Q0.8 2.6 0.7 2.2 L0.7 1.7 Q0.7 1.15 1.45 0.65 2.2 0.2 2.2 0.95 L1.25 2.6 M1.85 29.35 L1.55 29.85 1.0 30.25 Q0.6 30.25 0.6 29.8 0.6 29.5 0.9 29.25 1.3 28.9 1.8 29.1 L1.85 29.35 M29.95 29.35 L29.8 29.95 29.4 30.25 Q28.95 30.25 28.95 29.8 28.95 29.4 29.45 29.0 29.95 28.55 29.95 29.35" fill="#ff6666" fill-rule="evenodd" stroke="none"/>
      <path d="M32.7 3.95 L32.7 4.35 31.45 4.6 Q30.2 4.6 30.2 4.2 30.2 3.9 30.7 3.65 L31.35 2.95 Q31.15 2.6 31.45 2.15 31.8 1.75 32.3 1.95 L32.7 3.95 M4.2 2.5 Q4.2 4.6 2.45 4.6 L2.05 4.55 Q1.95 4.05 2.1 3.9 L1.7 3.5 Q1.7 3.05 3.35 3.05 L3.9 2.1 Q4.2 1.65 4.2 2.5 M3.6 30.35 Q3.7 30.0 4.3 30.1 L4.35 32.05 Q4.25 32.6 3.75 32.6 L1.6 32.45 Q1.45 32.4 1.45 32.15 2.65 30.7 3.6 30.85 L3.6 30.35 M32.25 32.5 L31.25 32.5 30.25 32.5 29.85 32.05 30.05 31.8 31.3 31.25 31.2 30.65 Q31.2 30.25 31.55 29.8 31.95 29.25 32.25 29.95 L32.45 31.75 32.25 32.5" fill="#660000" fill-rule="evenodd" stroke="none"/>
      <path d="M24.0 18.8 L25.65 17.55 26.5 16.65 26.75 16.2 26.95 16.0 27.3 15.35 27.45 15.65 27.5 15.6 Q28.55 17.35 29.05 19.45 29.3 20.85 29.2 22.15 L29.3 22.65 29.2 23.5 29.15 23.55 29.2 23.75 28.2 23.4 26.55 22.55 25.9 22.5 25.05 23.05 23.15 23.95 22.75 24.15 22.6 24.45 22.2 24.65 21.9 25.2 20.35 25.25 17.7 26.45 17.4 26.2 17.15 26.35 Q17.1 26.8 16.2 26.9 L15.25 27.2 14.9 27.3 14.7 27.25 15.05 28.25 16.3 30.0 15.9 30.0 15.05 28.65 14.6 28.95 14.45 29.1 14.35 29.4 14.25 29.15 14.15 28.8 13.95 28.2 Q13.85 28.45 13.9 28.65 L13.9 29.95 13.9 30.0 13.3 30.0 13.3 29.95 13.35 29.8 Q13.3 28.75 13.65 27.8 L13.65 27.35 13.6 27.0 13.45 27.15 Q12.0 27.3 11.15 26.45 10.85 27.35 10.95 28.3 L10.95 28.35 11.9 30.0 11.35 30.0 10.8 28.9 10.5 30.0 10.2 30.0 Q10.05 28.95 10.55 27.8 L10.5 27.65 Q10.35 26.6 10.7 25.75 L10.65 25.6 10.05 25.5 7.5 25.1 6.7 24.9 6.5 25.05 Q5.8 25.6 5.5 26.25 L4.85 27.9 4.55 27.9 4.95 26.65 Q5.3 25.5 6.05 24.6 L4.65 24.05 4.6 23.95 4.7 23.9 4.85 23.65 4.0 23.25 5.2 22.2 5.35 21.75 5.55 21.65 Q5.2 21.1 5.35 20.4 L5.55 20.15 5.6 20.2 5.65 20.1 5.75 20.0 5.7 19.6 Q5.55 19.3 5.75 18.95 L6.1 18.1 5.65 17.15 Q5.65 16.7 6.7 14.7 L7.8 12.7 7.75 12.6 Q7.75 12.35 8.55 12.3 L8.85 11.75 8.9 11.55 9.0 11.1 8.15 11.45 8.05 11.45 7.85 11.5 7.75 11.45 7.75 11.3 8.1 10.25 8.4 9.8 8.4 9.7 8.55 9.55 Q8.25 9.25 8.4 7.8 8.75 5.35 10.7 4.55 11.05 4.25 12.1 4.1 13.8 3.85 15.15 4.8 L16.05 5.8 16.85 6.8 16.9 6.8 Q17.8 7.1 18.7 7.75 L18.65 7.85 18.5 7.9 18.4 7.85 16.3 8.45 15.5 9.5 15.5 10.6 15.75 11.0 15.95 11.25 Q16.0 11.75 15.6 11.9 L15.0 11.95 14.7 12.75 14.45 13.15 14.7 13.85 14.95 14.45 14.9 14.5 14.8 14.65 16.6 14.85 16.65 14.95 15.4 16.05 15.2 16.6 Q16.05 17.65 16.55 18.95 L16.55 18.9 16.55 18.8 16.55 18.65 16.65 18.6 16.8 18.5 16.85 18.6 16.85 18.65 16.9 18.8 Q18.0 18.8 18.85 19.7 L23.6 18.2 23.9 18.35 Q24.55 18.6 23.95 18.8 23.3 18.35 22.7 18.65 L19.65 19.8 18.9 20.05 18.45 20.15 17.45 20.5 17.0 20.65 16.6 20.8 16.25 20.95 24.0 18.8 M8.85 30.0 L7.4 30.0 6.1 29.7 6.1 30.0 5.9 30.0 5.9 29.65 5.65 29.55 5.65 29.1 5.95 29.2 6.1 29.25 8.85 30.0 M27.4 16.15 L27.2 16.4 25.45 18.5 25.7 18.9 Q26.55 20.45 26.25 22.15 L27.85 22.5 Q28.45 22.65 28.8 22.95 L28.75 22.75 28.85 22.2 28.6 19.8 Q28.25 17.85 27.4 16.15 M23.35 19.45 L22.3 19.8 Q23.0 20.35 22.95 21.25 L23.05 21.25 23.05 21.15 23.15 19.75 23.7 20.8 24.7 20.6 25.2 20.5 25.65 20.3 25.35 18.55 23.35 19.45 M24.45 22.95 L22.25 23.7 22.15 23.65 22.1 23.65 22.8 23.4 22.9 23.35 23.25 23.2 23.3 23.15 Q24.6 22.5 25.95 22.2 L25.9 22.15 26.0 22.1 25.65 20.55 23.8 21.25 23.1 21.5 22.25 21.85 21.85 22.0 21.75 22.05 21.05 22.25 20.65 22.4 20.55 22.4 Q20.0 22.5 19.6 22.75 L19.25 23.0 18.75 23.4 18.75 23.45 18.9 24.4 19.3 24.35 19.75 24.3 19.9 24.25 19.95 24.25 21.9 23.7 21.95 23.7 21.95 23.8 18.0 25.05 17.65 25.75 18.55 25.5 19.85 24.95 20.35 24.75 21.5 24.3 21.65 24.25 22.05 24.1 22.4 23.95 22.9 23.75 23.1 23.65 23.15 23.65 24.45 23.05 25.0 22.75 24.45 22.95 M21.7 20.15 L21.85 19.9 21.5 20.15 19.2 20.95 18.8 21.1 18.4 21.25 18.1 21.4 17.0 22.4 16.7 22.75 16.6 22.85 15.75 23.65 15.35 23.95 15.1 24.15 15.35 24.7 15.7 25.0 15.7 25.1 16.7 24.35 17.15 23.8 17.55 23.4 17.95 23.05 18.0 22.95 18.15 22.85 18.3 22.7 18.5 22.55 19.3 21.85 19.7 21.6 20.0 21.4 21.7 20.15 M16.65 24.85 L18.6 24.4 18.6 24.05 18.65 23.2 18.65 23.0 18.7 22.75 19.25 22.55 19.95 22.3 20.3 22.15 20.4 22.15 20.75 22.0 21.05 21.9 21.65 21.7 21.95 21.55 22.45 21.3 22.3 19.8 21.4 20.65 20.3 21.55 19.05 22.35 18.5 22.75 18.5 22.8 18.35 22.9 18.25 23.0 18.1 23.15 17.9 23.35 17.45 23.8 17.35 23.85 16.9 24.4 16.6 24.8 16.6 24.85 16.65 24.85 M21.7 24.65 L21.7 24.85 21.95 24.5 21.7 24.65 M10.55 4.85 Q8.95 5.75 8.7 7.85 L8.85 9.35 8.95 9.3 9.8 8.8 11.4 7.9 Q12.15 7.45 13.4 7.1 L12.95 6.1 11.65 5.2 10.8 4.85 10.7 5.0 10.55 4.85 M11.75 4.95 L13.05 5.8 13.65 7.1 16.15 6.8 16.55 6.8 15.7 5.8 Q14.7 4.6 13.2 4.4 11.8 4.2 11.05 4.7 L11.75 4.95 M13.5 8.05 L13.55 7.9 Q13.6 7.6 13.95 7.55 14.4 7.45 14.3 7.9 L13.85 8.25 13.5 8.05 M17.15 7.25 L17.15 7.6 16.7 7.9 16.4 7.75 16.3 7.65 16.3 7.4 16.35 7.35 Q16.4 7.1 16.75 7.1 L16.25 7.1 Q13.85 6.95 11.75 8.0 L8.95 9.75 8.75 9.8 8.35 10.75 9.0 10.35 9.45 10.15 9.5 10.15 9.8 10.0 9.8 9.95 9.5 9.8 9.5 9.55 Q9.5 9.35 9.85 9.35 10.1 9.4 10.15 9.55 L10.15 9.7 10.1 9.9 10.15 9.9 10.5 9.75 11.7 9.3 12.2 9.15 14.7 8.5 14.75 8.5 15.05 8.4 16.35 8.1 18.2 7.75 17.2 7.2 16.85 7.05 16.8 7.05 16.8 7.1 17.15 7.25 M14.9 8.9 L15.0 8.8 14.95 8.75 14.9 8.9 M12.95 9.55 L12.7 9.7 Q12.55 9.85 12.35 9.6 L12.5 9.4 11.95 9.55 11.9 9.55 11.55 10.9 11.35 11.25 13.25 11.95 14.2 12.7 14.3 12.5 14.7 11.9 14.65 11.9 Q14.8 11.7 15.1 11.6 L15.65 11.5 15.5 11.05 15.25 10.75 15.15 10.65 15.15 10.55 15.05 9.9 15.1 9.6 15.05 9.6 15.05 9.15 15.05 9.1 14.95 9.05 14.75 9.05 14.15 9.55 14.05 9.1 12.95 9.6 13.05 9.45 12.95 9.55 M12.0 8.85 L11.75 8.95 Q11.45 8.95 11.5 8.6 L11.9 8.25 Q12.2 8.25 12.15 8.6 L12.0 8.85 M11.15 9.95 L11.2 10.0 11.2 9.9 11.15 9.95 M10.15 10.65 Q10.05 10.85 10.2 10.85 L10.25 10.75 10.15 10.65 M10.25 10.45 L10.3 10.75 10.4 10.7 10.5 10.7 10.5 10.3 10.25 10.45 M11.0 11.45 L9.25 11.55 9.2 11.7 9.1 11.9 9.0 12.05 8.95 12.25 11.45 12.55 12.3 13.0 12.85 13.55 13.35 14.25 13.75 14.35 14.3 14.55 Q14.55 14.05 14.2 13.4 L14.15 13.3 14.0 13.0 13.6 12.35 13.15 12.1 Q12.3 11.6 11.25 11.5 L11.0 11.45 M16.65 7.55 L16.95 7.55 16.95 7.45 16.75 7.4 16.6 7.45 16.65 7.55 M9.25 13.35 L9.15 13.4 8.8 13.55 8.0 14.25 8.0 14.35 7.85 14.95 7.45 16.0 7.15 16.7 7.05 16.9 6.6 17.75 6.5 18.2 6.4 18.8 6.3 19.55 6.25 19.7 6.2 19.75 5.9 20.45 5.85 20.8 5.75 21.05 5.95 21.35 Q7.45 20.2 8.55 18.7 L8.55 18.55 8.65 18.4 8.8 18.3 9.0 18.3 9.05 18.4 9.05 18.45 9.0 18.65 Q9.8 18.8 10.4 19.25 L10.6 19.1 10.8 18.85 Q11.55 18.15 11.95 17.15 L12.45 15.85 12.35 15.6 11.35 14.35 10.0 13.2 9.25 13.35 M10.1 12.8 Q12.2 13.95 12.55 16.15 L12.5 16.4 Q11.95 18.2 10.85 19.7 L11.3 20.35 10.7 21.15 12.55 22.75 13.55 22.55 14.1 22.1 13.45 22.05 Q12.7 21.65 12.75 20.85 L15.15 21.05 15.45 20.25 15.75 19.45 15.6 19.15 13.85 17.9 13.9 17.8 13.95 17.8 14.1 17.9 14.6 18.1 Q14.85 18.2 15.1 18.4 L15.45 18.65 15.25 18.15 14.95 17.0 15.0 16.9 14.9 16.95 Q14.75 16.9 14.75 16.65 L14.75 16.55 14.9 16.25 15.0 16.15 15.0 16.05 14.65 15.95 14.5 15.9 14.2 15.8 14.15 15.8 14.05 15.75 13.75 15.25 13.65 15.1 13.1 14.2 Q12.55 13.35 11.65 12.95 11.1 12.6 10.35 12.6 L9.95 12.55 8.8 12.6 8.2 12.7 8.05 12.75 7.1 14.2 Q6.0 15.95 5.95 17.2 L6.25 17.75 6.6 16.65 6.85 15.95 Q7.0 15.45 7.3 15.05 7.15 14.75 7.45 14.55 L7.6 14.15 7.65 14.1 7.2 14.75 7.0 15.05 7.45 14.2 7.65 13.95 7.65 13.85 8.05 13.45 8.35 13.1 10.0 12.85 10.1 12.8 M8.65 19.25 L8.6 19.2 6.25 21.75 5.9 22.05 5.45 22.4 5.3 22.65 4.3 23.25 7.45 24.2 7.55 23.55 7.6 23.3 7.65 23.05 7.8 22.55 Q8.3 20.8 9.8 19.6 L8.65 19.25 M9.15 20.75 Q8.2 21.4 7.9 22.6 L7.8 23.05 7.75 23.4 7.75 23.6 7.65 24.25 8.35 24.45 8.75 23.85 8.8 23.75 10.8 20.25 10.05 19.85 9.2 20.7 9.15 20.75 M6.2 24.4 L6.95 24.65 5.15 23.8 4.95 24.0 5.85 24.25 6.2 24.4 M9.75 23.35 L9.4 23.2 9.75 24.4 9.75 23.35 M9.4 24.3 L9.25 23.5 8.95 24.1 9.4 24.3 M15.95 15.1 L14.4 14.85 14.15 14.8 13.85 14.7 13.45 14.5 13.85 15.1 14.0 15.3 14.15 15.6 14.35 15.65 15.0 15.7 15.3 15.75 Q15.45 15.45 15.95 15.1 M15.05 21.35 L13.0 21.2 13.25 21.7 14.9 21.6 15.4 21.5 15.6 21.5 16.8 21.25 17.05 21.2 18.3 20.8 18.4 20.75 18.3 20.8 17.45 20.95 17.1 21.05 16.85 21.1 16.5 21.15 15.75 21.3 15.25 21.35 15.05 21.35 M11.4 23.1 L10.85 23.4 10.8 23.45 11.05 23.6 12.5 23.15 12.0 22.85 11.4 23.1 M11.25 22.4 L9.45 23.05 10.2 23.3 11.75 22.6 11.35 22.25 11.25 22.4 M11.25 24.1 L11.1 24.0 10.95 25.1 10.95 25.45 11.3 25.7 11.25 25.75 11.3 25.85 Q11.65 26.45 12.35 26.55 L12.65 26.35 13.1 26.35 13.25 25.9 13.7 25.9 13.9 25.4 14.2 25.2 14.45 24.1 14.4 23.9 14.35 23.75 13.15 23.6 12.05 24.45 11.45 24.5 11.3 25.65 11.2 25.4 11.2 24.75 11.15 24.55 Q11.15 24.15 11.35 24.2 L11.25 24.1 M11.6 24.2 L13.05 23.45 12.75 23.2 11.25 23.75 11.45 24.0 11.6 24.2 M14.25 22.75 L14.85 23.65 15.05 23.6 15.4 23.3 16.65 22.1 16.8 21.95 17.25 21.45 16.9 21.6 16.7 21.65 Q15.85 21.95 15.0 22.35 L14.25 22.75 M14.35 22.1 L14.3 22.1 14.3 22.2 14.35 22.1 M13.0 23.05 L14.25 23.6 13.9 22.85 13.0 23.05 M10.45 21.45 L9.55 22.85 11.2 22.2 10.45 21.45 M17.9 19.65 L17.65 20.1 18.45 19.85 17.9 19.65 M16.7 19.4 L16.4 20.1 16.2 20.5 17.2 20.25 17.7 19.45 16.75 19.35 16.7 19.35 16.7 19.4 M16.0 19.45 L15.6 20.6 15.8 20.55 16.2 19.8 16.0 19.45 M15.45 21.05 L15.5 20.85 15.4 21.05 15.45 21.05 M9.85 23.45 L10.2 24.6 10.75 24.95 10.85 23.75 9.85 23.45 M16.75 25.6 L16.5 25.3 16.0 25.9 16.75 25.6 M15.8 25.7 L15.8 25.5 Q15.35 25.55 15.8 25.7 M17.15 25.9 L17.5 25.1 17.1 25.2 17.15 25.9 14.95 26.6 15.2 26.6 15.5 26.55 17.15 25.9 M15.25 25.05 L14.5 24.65 14.4 25.25 15.15 25.35 15.25 25.35 15.25 25.05 M14.8 26.25 L14.8 26.3 15.65 25.95 15.05 25.85 14.8 26.25 M14.35 25.65 L14.3 25.55 14.15 25.4 13.95 25.55 13.9 25.7 13.9 25.8 13.9 26.1 14.1 26.2 14.25 26.1 14.4 25.85 14.35 25.65 M13.65 26.15 L13.4 26.05 13.3 26.7 13.65 26.6 13.8 26.15 13.65 26.15 M14.35 26.55 L14.35 26.7 14.45 26.7 14.6 26.7 14.5 26.55 14.35 26.55 M14.1 27.1 L14.2 27.3 14.3 27.75 14.4 28.55 14.75 28.3 14.7 28.2 14.25 27.35 14.1 27.1 M10.0 25.25 L10.45 25.35 8.75 24.45 8.25 25.0 10.0 25.25 M21.25 24.85 L21.25 24.9 21.4 24.75 21.3 24.8 21.25 24.85" fill="#000000" fill-rule="evenodd" stroke="none"/>
      <path d="M21.7 24.65 L21.95 24.5 21.7 24.85 21.7 24.65 M12.95 9.6 L14.05 9.1 14.15 9.55 14.75 9.05 14.95 9.05 15.05 9.1 15.05 9.15 15.05 9.6 15.1 9.6 15.05 9.9 15.15 10.55 15.15 10.65 15.25 10.75 15.5 11.05 15.65 11.5 15.1 11.6 Q14.8 11.7 14.65 11.9 L14.7 11.9 14.3 12.5 14.2 12.7 13.25 11.95 11.35 11.25 11.55 10.9 11.9 9.55 11.95 9.55 12.5 9.4 12.35 9.6 Q12.55 9.85 12.7 9.7 L12.95 9.55 12.95 9.6 M10.25 10.45 L10.5 10.3 10.5 10.7 10.4 10.7 10.3 10.75 10.25 10.45 M13.0 23.05 L13.9 22.85 14.25 23.6 13.0 23.05 M15.25 25.05 L15.25 25.35 15.15 25.35 14.4 25.25 14.5 24.65 15.25 25.05 M13.65 26.15 L13.8 26.15 13.65 26.6 13.3 26.7 13.4 26.05 13.65 26.15 M14.35 25.65 L14.4 25.85 14.25 26.1 14.1 26.2 13.9 26.1 13.9 25.8 13.9 25.7 13.95 25.55 14.15 25.4 14.3 25.55 14.35 25.65 M21.25 24.85 L21.3 24.8 21.4 24.75 21.25 24.9 21.25 24.85" fill="#eedc9d" fill-rule="evenodd" stroke="none"/>
      <path d="M10.2 30.0 L8.85 30.0 6.1 29.25 5.95 29.2 5.65 29.1 5.65 27.9 4.85 27.9 5.5 26.25 Q5.8 25.6 6.5 25.05 L6.7 24.9 7.5 25.1 10.05 25.5 10.65 25.6 10.7 25.75 Q10.35 26.6 10.5 27.65 L10.55 27.8 Q10.05 28.95 10.2 30.0 M11.0 11.45 L11.25 11.5 Q12.3 11.6 13.15 12.1 L13.6 12.35 14.0 13.0 14.15 13.3 14.2 13.4 Q14.55 14.05 14.3 14.55 L13.75 14.35 13.35 14.25 12.85 13.55 12.3 13.0 11.45 12.55 8.95 12.25 9.0 12.05 9.1 11.9 9.2 11.7 9.25 11.55 11.0 11.45 M9.25 13.35 L10.0 13.2 11.35 14.35 12.35 15.6 12.45 15.85 11.95 17.15 Q11.55 18.15 10.8 18.85 L10.6 19.1 10.4 19.25 Q9.8 18.8 9.0 18.65 L9.05 18.45 9.05 18.4 9.0 18.3 8.8 18.3 8.65 18.4 8.55 18.55 8.55 18.7 Q7.45 20.2 5.95 21.35 L5.75 21.05 5.85 20.8 5.9 20.45 6.2 19.75 6.25 19.7 6.3 19.55 6.4 18.8 6.5 18.2 6.6 17.75 7.05 16.9 7.15 16.7 7.45 16.0 7.85 14.95 8.0 14.35 8.0 14.25 8.8 13.55 9.15 13.4 9.25 13.35 M15.45 21.05 L15.4 21.05 15.5 20.85 15.45 21.05 M16.0 19.45 L16.2 19.8 15.8 20.55 15.6 20.6 16.0 19.45 M14.1 27.1 L14.25 27.35 14.7 28.2 14.75 28.3 14.4 28.55 14.3 27.75 14.2 27.3 14.1 27.1" fill="#ffffff" fill-rule="evenodd" stroke="none"/>
      <path d="M9.15 20.75 L9.2 20.7 10.05 19.85 10.8 20.25 8.8 23.75 8.75 23.85 8.35 24.45 7.65 24.25 7.75 23.6 7.75 23.4 7.8 23.05 7.9 22.6 Q8.2 21.4 9.15 20.75 M8.65 19.25 L9.8 19.6 Q8.3 20.8 7.8 22.55 L7.65 23.05 7.6 23.3 7.55 23.55 7.45 24.2 4.3 23.25 5.3 22.65 5.45 22.4 5.9 22.05 6.25 21.75 8.6 19.2 8.65 19.25 M9.4 24.3 L8.95 24.1 9.25 23.5 9.4 24.3 M9.75 23.35 L9.75 24.4 9.4 23.2 9.75 23.35 M11.6 24.2 L11.45 24.0 11.25 23.75 12.75 23.2 13.05 23.45 11.6 24.2 M11.25 24.1 L11.35 24.2 Q11.15 24.15 11.15 24.55 L11.2 24.75 11.2 25.4 11.3 25.65 11.45 24.5 12.05 24.45 13.15 23.6 14.35 23.75 14.4 23.9 14.45 24.1 14.2 25.2 13.9 25.4 13.7 25.9 13.25 25.9 13.1 26.35 12.65 26.35 12.35 26.55 Q11.65 26.45 11.3 25.85 L11.25 25.75 11.3 25.7 10.95 25.45 10.95 25.1 11.1 24.0 11.25 24.1 M11.25 22.4 L11.35 22.25 11.75 22.6 10.2 23.3 9.45 23.05 11.25 22.4 M11.4 23.1 L12.0 22.85 12.5 23.15 11.05 23.6 10.8 23.45 10.85 23.4 11.4 23.1 M16.7 19.4 L16.7 19.35 16.75 19.35 17.7 19.45 17.2 20.25 16.2 20.5 16.4 20.1 16.7 19.4 M17.9 19.65 L18.45 19.85 17.65 20.1 17.9 19.65 M10.45 21.45 L11.2 22.2 9.55 22.85 10.45 21.45 M9.85 23.45 L10.85 23.75 10.75 24.95 10.2 24.6 9.85 23.45" fill="#666666" fill-rule="evenodd" stroke="none"/>
      <path d="M15.9 30.0 L13.9 30.0 13.9 29.95 13.9 28.65 Q13.85 28.45 13.95 28.2 L14.15 28.8 14.25 29.15 14.35 29.4 14.45 29.1 14.6 28.95 15.05 28.65 15.9 30.0 M11.35 30.0 L10.5 30.0 10.8 28.9 11.35 30.0 M7.4 30.0 L6.1 30.0 6.1 29.7 7.4 30.0" fill="#3c3e7d" fill-rule="evenodd" stroke="none"/>
      <path d="M13.3 30.0 L11.9 30.0 10.95 28.35 10.95 28.3 Q10.85 27.35 11.15 26.45 12.0 27.3 13.45 27.15 L13.6 27.0 13.65 27.35 13.65 27.8 Q13.3 28.75 13.35 29.8 L13.3 29.95 13.3 30.0 M23.95 18.8 L24.0 18.8 16.25 20.95 16.6 20.8 17.0 20.65 17.45 20.5 18.45 20.15 18.9 20.05 19.65 19.8 22.7 18.65 Q23.3 18.35 23.95 18.8 M27.4 16.15 Q28.25 17.85 28.6 19.8 L28.85 22.2 28.75 22.75 28.8 22.95 Q28.45 22.65 27.85 22.5 L26.25 22.15 Q26.55 20.45 25.7 18.9 L25.45 18.5 27.2 16.4 27.4 16.15 M23.35 19.45 L23.15 19.75 23.05 21.15 23.05 21.25 22.95 21.25 Q23.0 20.35 22.3 19.8 L23.35 19.45 M24.45 23.05 L23.15 23.65 23.1 23.65 22.9 23.75 22.4 23.95 22.05 24.1 21.65 24.25 21.5 24.3 20.35 24.75 19.85 24.95 18.55 25.5 17.65 25.75 18.0 25.05 21.95 23.8 21.95 23.7 21.9 23.7 19.95 24.25 19.9 24.25 19.75 24.3 19.3 24.35 18.9 24.4 18.75 23.45 18.75 23.4 19.25 23.0 19.6 22.75 Q20.0 22.5 20.55 22.4 L20.65 22.4 21.05 22.25 21.75 22.05 21.85 22.0 22.25 21.85 23.1 21.5 23.8 21.25 25.65 20.55 26.0 22.1 25.9 22.15 25.95 22.2 Q24.6 22.5 23.3 23.15 L23.25 23.2 22.9 23.35 22.8 23.4 22.1 23.65 22.15 23.65 22.25 23.7 24.45 22.95 24.45 23.05 M21.7 20.15 L20.0 21.4 19.7 21.6 19.3 21.85 18.5 22.55 18.3 22.7 18.15 22.85 18.0 22.95 17.95 23.05 17.55 23.4 17.15 23.8 16.7 24.35 15.7 25.1 15.7 25.0 15.35 24.7 15.1 24.15 15.35 23.95 15.75 23.65 16.6 22.85 16.7 22.75 17.0 22.4 18.1 21.4 18.4 21.25 18.8 21.1 19.2 20.95 21.5 20.15 21.85 19.9 21.7 20.15 M16.65 24.85 L16.6 24.85 16.6 24.8 16.65 24.85 M17.2 7.2 L18.2 7.75 16.35 8.1 15.05 8.4 14.75 8.5 14.7 8.5 12.2 9.15 11.7 9.3 10.5 9.75 10.15 9.9 10.1 9.9 10.15 9.7 10.15 9.55 Q10.1 9.4 9.85 9.35 9.5 9.35 9.5 9.55 L9.5 9.8 9.8 9.95 9.8 10.0 9.5 10.15 9.45 10.15 9.0 10.35 8.35 10.75 8.75 9.8 8.95 9.75 11.75 8.0 Q13.85 6.95 16.25 7.1 L16.75 7.1 Q16.4 7.1 16.35 7.35 L16.3 7.4 16.3 7.65 16.4 7.75 16.7 7.9 17.15 7.6 17.15 7.25 17.2 7.2 M13.5 8.05 L13.85 8.25 14.3 7.9 Q14.4 7.45 13.95 7.55 13.6 7.6 13.55 7.9 L13.5 8.05 M11.75 4.95 L11.05 4.7 Q11.8 4.2 13.2 4.4 14.7 4.6 15.7 5.8 L16.55 6.8 16.15 6.8 13.65 7.1 13.05 5.8 11.75 4.95 M10.55 4.85 L10.7 5.0 10.8 4.85 11.65 5.2 12.95 6.1 13.4 7.1 Q12.15 7.45 11.4 7.9 L9.8 8.8 8.95 9.3 8.85 9.35 8.7 7.85 Q8.95 5.75 10.55 4.85 M12.0 8.85 L12.15 8.6 Q12.2 8.25 11.9 8.25 L11.5 8.6 Q11.45 8.95 11.75 8.95 L12.0 8.85 M10.1 12.8 L10.0 12.85 8.35 13.1 8.05 13.45 7.65 13.85 7.65 13.95 7.45 14.2 7.0 15.05 7.2 14.75 7.65 14.1 7.6 14.15 7.45 14.55 Q7.15 14.75 7.3 15.05 7.0 15.45 6.85 15.95 L6.6 16.65 6.25 17.75 5.95 17.2 Q6.0 15.95 7.1 14.2 L8.05 12.75 8.2 12.7 8.8 12.6 9.95 12.55 10.35 12.6 Q11.1 12.6 11.65 12.95 12.55 13.35 13.1 14.2 L13.65 15.1 13.75 15.25 14.05 15.75 14.15 15.8 14.2 15.8 14.5 15.9 14.65 15.95 15.0 16.05 15.0 16.15 14.9 16.25 14.75 16.55 14.75 16.65 Q14.75 16.9 14.9 16.95 L15.0 16.9 14.95 17.0 15.25 18.15 15.45 18.65 15.1 18.4 Q14.85 18.2 14.6 18.1 L14.1 17.9 13.95 17.8 13.9 17.8 13.85 17.9 15.6 19.15 15.75 19.45 15.45 20.25 15.15 21.05 12.75 20.85 Q12.7 21.65 13.45 22.05 L14.1 22.1 13.55 22.55 12.55 22.75 10.7 21.15 11.3 20.35 10.85 19.7 Q11.95 18.2 12.5 16.4 L12.55 16.15 Q12.2 13.95 10.1 12.8 M6.2 24.4 L5.85 24.25 4.95 24.0 5.15 23.8 6.95 24.65 6.2 24.4 M15.95 15.1 Q15.45 15.45 15.3 15.75 L15.0 15.7 14.35 15.65 14.15 15.6 14.0 15.3 13.85 15.1 13.45 14.5 13.85 14.7 14.15 14.8 14.4 14.85 15.95 15.1 M15.05 21.35 L15.25 21.35 15.75 21.3 16.5 21.15 16.85 21.1 17.1 21.05 17.45 20.95 18.3 20.8 18.4 20.75 18.3 20.8 17.05 21.2 16.8 21.25 15.6 21.5 15.4 21.5 14.9 21.6 13.25 21.7 13.0 21.2 15.05 21.35 M14.35 22.1 L14.3 22.2 14.3 22.1 14.35 22.1 M17.15 25.9 L15.5 26.55 15.2 26.6 14.95 26.6 17.15 25.9 17.1 25.2 17.5 25.1 17.15 25.9 M15.8 25.7 Q15.35 25.55 15.8 25.5 L15.8 25.7 M14.35 26.55 L14.5 26.55 14.6 26.7 14.45 26.7 14.35 26.7 14.35 26.55 M10.0 25.25 L8.25 25.0 8.75 24.45 10.45 25.35 10.0 25.25" fill="#999999" fill-rule="evenodd" stroke="none"/>
      <path d="M23.15 19.75 L23.35 19.45 25.35 18.55 25.65 20.3 25.2 20.5 24.7 20.6 23.7 20.8 23.15 19.75 M22.3 19.8 L22.45 21.3 21.95 21.55 21.65 21.7 21.05 21.9 20.75 22.0 20.4 22.15 20.3 22.15 19.95 22.3 19.25 22.55 18.7 22.75 18.65 23.0 18.65 23.2 18.6 24.05 18.6 24.4 16.65 24.85 16.6 24.8 16.9 24.4 17.35 23.85 17.45 23.8 17.9 23.35 18.1 23.15 18.25 23.0 18.35 22.9 18.5 22.8 18.5 22.75 19.05 22.35 20.3 21.55 21.4 20.65 22.3 19.8 M14.25 22.75 L15.0 22.35 Q15.85 21.95 16.7 21.65 L16.9 21.6 17.25 21.45 16.8 21.95 16.65 22.1 15.4 23.3 15.05 23.6 14.85 23.65 14.25 22.75" fill="#5a371d" fill-rule="evenodd" stroke="none"/>
      <path d="M24.45 23.05 L24.45 22.95 25.0 22.75 24.45 23.05" fill="#333333" fill-rule="evenodd" stroke="none"/>
    </g>
  </defs>
</svg>
