<?xml version="1.0" encoding="UTF-8" standalone="no"?>
<svg xmlns:xlink="http://www.w3.org/1999/xlink" height="214.5px" width="1230.0px" xmlns="http://www.w3.org/2000/svg">
  <g transform="matrix(6.0, 0.0, 0.0, 6.0, 3.0, 102.0)">
    <use height="34.0" id="bfr" transform="matrix(1.0, 0.0, 0.0, 1.0, 170.5, -17.0)" width="34.0" xlink:href="#button0"/>
    <use height="34.0" id="bf1" transform="matrix(1.0, 0.0, 0.0, 1.0, -0.5, -17.0)" width="34.0" xlink:href="#button1"/>
    <use height="35.75" id="bf2" transform="matrix(1.0, 0.0, 0.0, 1.0, 39.5, -17.0)" width="34.0" xlink:href="#button2"/>
    <use height="34.0" id="bf3" transform="matrix(1.0, 0.0, 0.0, 1.0, 79.5, -17.0)" width="34.0" xlink:href="#button3"/>
    <use height="35.75" id="bf2" transform="matrix(1.0, 0.0, 0.0, 1.0, 119.5, -17.0)" width="34.0" xlink:href="#button4"/>
  </g>
  <defs>
    <g id="button0" transform="matrix(1.0, 0.0, 0.0, 1.0, 0.5, 0.5)">
      <use height="34.0" transform="matrix(1.0, 0.0, 0.0, 1.0, -0.5, -0.5)" width="34.0" xlink:href="#shape0"/>
      <use height="32.3" transform="matrix(1.0, 0.0, 0.0, 1.0, 0.6, 0.3)" width="32.1" xlink:href="#shape1"/>
    </g>
    <g id="shape0" transform="matrix(1.0, 0.0, 0.0, 1.0, 0.5, 0.5)">
      <path d="M33.0 0.0 L33.0 33.0 0.0 33.0 0.0 0.0 33.0 0.0" fill="#c4c4c4" fill-rule="evenodd" stroke="none"/>
      <path d="M33.0 0.0 L33.0 33.0 0.0 33.0 0.0 0.0 33.0 0.0 Z" fill="none" stroke="#000000" stroke-linecap="round" stroke-linejoin="round" stroke-width="1.0"/>
      <path d="M30.0 3.0 L3.0 3.0 3.0 30.0 30.0 30.0 30.0 3.0 M33.0 0.0 L33.0 33.0 0.0 33.0 0.0 0.0 33.0 0.0" fill="url(#gradient0)" fill-rule="evenodd" stroke="none"/>
      <path d="M30.0 3.0 L30.0 30.0 3.0 30.0 3.0 3.0 30.0 3.0" fill="#7b7b7b" fill-rule="evenodd" stroke="none"/>
      <path d="M30.0 3.0 L30.0 30.0 3.0 30.0 3.0 3.0 30.0 3.0 M33.0 0.0 L33.0 33.0 0.0 33.0 0.0 0.0 33.0 0.0" fill="none" stroke="#000000" stroke-linecap="round" stroke-linejoin="round" stroke-width="1.0"/>
      <path d="M28.0 0.0 L33.0 0.0 33.0 5.0 28.0 5.0 28.0 0.0 M0.0 0.0 L5.0 0.0 5.0 5.0 0.0 5.0 0.0 0.0 M5.0 28.0 L5.0 33.0 0.0 33.0 0.0 28.0 5.0 28.0 M28.0 28.0 L33.0 28.0 33.0 33.0 28.0 33.0 28.0 28.0" fill="#990000" fill-rule="evenodd" stroke="none"/>
      <path d="M28.0 0.0 L33.0 0.0 33.0 5.0 28.0 5.0 28.0 0.0 M0.0 0.0 L5.0 0.0 5.0 5.0 0.0 5.0 0.0 0.0 M5.0 28.0 L5.0 33.0 0.0 33.0 0.0 28.0 5.0 28.0 M28.0 28.0 L33.0 28.0 33.0 33.0 28.0 33.0 28.0 28.0" fill="none" stroke="#000000" stroke-linecap="round" stroke-linejoin="round" stroke-width="1.0"/>
    </g>
    <linearGradient gradientTransform="matrix(0.0152, 0.0234, -0.0234, 0.0152, 16.5, 16.45)" gradientUnits="userSpaceOnUse" id="gradient0" spreadMethod="pad" x1="-819.2" x2="819.2">
      <stop offset="0.0" stop-color="#eed600"/>
      <stop offset="0.19607843137254902" stop-color="#fef292"/>
      <stop offset="0.36470588235294116" stop-color="#ecd502"/>
      <stop offset="0.6352941176470588" stop-color="#9a8b00"/>
      <stop offset="0.8627450980392157" stop-color="#fff9c4"/>
      <stop offset="1.0" stop-color="#c4c400"/>
    </linearGradient>
    <g id="shape1" transform="matrix(1.0, 0.0, 0.0, 1.0, -0.6, -0.3)">
      <path d="M29.6 1.25 L29.05 2.1 28.6 1.8 28.6 1.45 28.85 0.8 Q28.9 0.35 29.3 0.35 L29.4 0.4 Q29.85 0.1 29.85 0.7 L29.7 1.1 29.6 1.25 M1.25 2.6 Q0.8 2.6 0.7 2.2 L0.7 1.7 Q0.7 1.15 1.45 0.65 2.2 0.2 2.2 0.95 L1.25 2.6 M1.85 29.35 L1.55 29.85 1.0 30.25 Q0.6 30.25 0.6 29.8 0.6 29.5 0.9 29.25 1.3 28.9 1.8 29.1 L1.85 29.35 M29.95 29.35 L29.8 29.95 29.4 30.25 Q28.95 30.25 28.95 29.8 28.95 29.4 29.45 29.0 29.95 28.55 29.95 29.35" fill="#ff6666" fill-rule="evenodd" stroke="none"/>
      <path d="M32.7 3.95 L32.7 4.35 31.45 4.6 Q30.2 4.6 30.2 4.2 30.2 3.9 30.7 3.65 L31.35 2.95 Q31.15 2.6 31.45 2.15 31.8 1.75 32.3 1.95 L32.7 3.95 M4.2 2.5 Q4.2 4.6 2.45 4.6 L2.05 4.55 Q1.95 4.05 2.1 3.9 L1.7 3.5 Q1.7 3.05 3.35 3.05 L3.9 2.1 Q4.2 1.65 4.2 2.5 M3.6 30.35 Q3.7 30.0 4.3 30.1 L4.35 32.05 Q4.25 32.6 3.75 32.6 L1.6 32.45 Q1.45 32.4 1.45 32.15 2.65 30.7 3.6 30.85 L3.6 30.35 M32.25 32.5 L31.25 32.5 30.25 32.5 29.85 32.05 30.05 31.8 31.3 31.25 31.2 30.65 Q31.2 30.25 31.55 29.8 31.95 29.25 32.25 29.95 L32.45 31.75 32.25 32.5" fill="#660000" fill-rule="evenodd" stroke="none"/>
      <path d="M28.0 20.5 L14.5 20.5 14.5 26.0 5.0 16.5 14.5 7.0 14.5 12.5 28.0 12.5 28.0 20.5" fill="#b10101" fill-rule="evenodd" stroke="none"/>
    </g>
    <g id="button1" transform="matrix(1.0, 0.0, 0.0, 1.0, 0.5, 0.5)">
      <use height="34.0" transform="matrix(1.0, 0.0, 0.0, 1.0, -0.5, -0.5)" width="34.0" xlink:href="#shape2"/>
      <use height="32.3" transform="matrix(1.0, 0.0, 0.0, 1.0, 0.6, 0.3)" width="32.1" xlink:href="#shape3"/>
    </g>
    <g id="shape2" transform="matrix(1.0, 0.0, 0.0, 1.0, 0.5, 0.5)">
      <path d="M33.0 0.0 L33.0 33.0 0.0 33.0 0.0 0.0 33.0 0.0" fill="#c4c4c4" fill-rule="evenodd" stroke="none"/>
      <path d="M33.0 0.0 L33.0 33.0 0.0 33.0 0.0 0.0 33.0 0.0 Z" fill="none" stroke="#000000" stroke-linecap="round" stroke-linejoin="round" stroke-width="1.0"/>
      <path d="M33.0 30.0 L33.0 33.0 0.0 33.0 0.0 30.0 0.0 0.0 33.0 0.0 33.0 30.0 30.0 30.0 33.0 30.0 M3.0 30.0 L30.0 30.0 30.0 3.0 3.0 3.0 3.0 30.0 0.0 30.0 3.0 30.0" fill="url(#gradient1)" fill-rule="evenodd" stroke="none"/>
      <path d="M30.0 30.0 L3.0 30.0 3.0 3.0 30.0 3.0 30.0 30.0" fill="#7b7b7b" fill-rule="evenodd" stroke="none"/>
      <path d="M33.0 30.0 L33.0 33.0 0.0 33.0 0.0 30.0 0.0 0.0 33.0 0.0 33.0 30.0 M30.0 30.0 L3.0 30.0 3.0 3.0 30.0 3.0 30.0 30.0" fill="none" stroke="#000000" stroke-linecap="round" stroke-linejoin="round" stroke-width="1.0"/>
      <path d="M33.0 5.0 L28.0 5.0 28.0 0.0 33.0 0.0 33.0 5.0 M5.0 5.0 L0.0 5.0 0.0 0.0 5.0 0.0 5.0 5.0 M5.0 30.0 L5.0 33.0 0.0 33.0 0.0 30.0 0.0 28.0 5.0 28.0 5.0 30.0 0.0 30.0 5.0 30.0 M33.0 30.0 L33.0 33.0 28.0 33.0 28.0 30.0 28.0 28.0 33.0 28.0 33.0 30.0 28.0 30.0 33.0 30.0" fill="#990000" fill-rule="evenodd" stroke="none"/>
      <path d="M33.0 5.0 L28.0 5.0 28.0 0.0 33.0 0.0 33.0 5.0 M5.0 5.0 L0.0 5.0 0.0 0.0 5.0 0.0 5.0 5.0 M5.0 30.0 L5.0 33.0 0.0 33.0 0.0 30.0 0.0 28.0 5.0 28.0 5.0 30.0 M33.0 30.0 L33.0 33.0 28.0 33.0 28.0 30.0 28.0 28.0 33.0 28.0 33.0 30.0" fill="none" stroke="#000000" stroke-linecap="round" stroke-linejoin="round" stroke-width="1.0"/>
    </g>
    <linearGradient gradientTransform="matrix(0.0152, 0.0234, -0.0234, 0.0152, 16.5, 16.45)" gradientUnits="userSpaceOnUse" id="gradient1" spreadMethod="pad" x1="-819.2" x2="819.2">
      <stop offset="0.0" stop-color="#eed600"/>
      <stop offset="0.19607843137254902" stop-color="#fef292"/>
      <stop offset="0.36470588235294116" stop-color="#ecd502"/>
      <stop offset="0.6352941176470588" stop-color="#9a8b00"/>
      <stop offset="0.8627450980392157" stop-color="#fff9c4"/>
      <stop offset="1.0" stop-color="#c4c400"/>
    </linearGradient>
    <g id="shape3" transform="matrix(1.0, 0.0, 0.0, 1.0, -0.6, -0.3)">
      <path d="M29.85 0.7 L29.7 1.1 29.6 1.25 29.05 2.1 28.6 1.8 28.6 1.45 28.85 0.8 Q28.9 0.35 29.3 0.35 L29.4 0.4 Q29.85 0.1 29.85 0.7 M1.25 2.6 Q0.8 2.6 0.7 2.2 L0.7 1.7 Q0.7 1.15 1.45 0.65 2.2 0.2 2.2 0.95 L1.25 2.6 M0.65 30.0 L0.6 29.8 Q0.6 29.5 0.9 29.25 1.3 28.9 1.8 29.1 L1.85 29.35 1.55 29.85 1.45 30.0 1.0 30.25 0.65 30.0 1.45 30.0 0.65 30.0 M29.8 30.0 L29.4 30.25 Q29.05 30.25 29.0 30.0 L28.95 29.8 Q28.95 29.4 29.45 29.0 29.95 28.55 29.95 29.35 L29.8 29.95 29.8 30.0 29.0 30.0 29.8 30.0" fill="#ff6666" fill-rule="evenodd" stroke="none"/>
      <path d="M32.7 3.95 L32.7 4.35 31.45 4.6 Q30.2 4.6 30.2 4.2 30.2 3.9 30.7 3.65 L31.35 2.95 Q31.15 2.6 31.45 2.15 31.8 1.75 32.3 1.95 L32.7 3.95 M4.2 2.5 Q4.2 4.6 2.45 4.6 L2.05 4.55 Q1.95 4.05 2.1 3.9 L1.7 3.5 Q1.7 3.05 3.35 3.05 L3.9 2.1 Q4.2 1.65 4.2 2.5 M4.3 30.1 L4.35 32.05 Q4.25 32.6 3.75 32.6 L1.6 32.45 Q1.45 32.4 1.45 32.15 2.65 30.7 3.6 30.85 L3.6 30.35 Q3.7 30.0 4.3 30.1 M31.4 30.0 L31.55 29.8 Q31.95 29.25 32.25 29.95 L32.25 30.0 32.45 31.75 32.25 32.5 31.25 32.5 30.25 32.5 29.85 32.05 30.05 31.8 31.3 31.25 31.2 30.65 31.4 30.0 32.25 30.0 31.4 30.0" fill="#660000" fill-rule="evenodd" stroke="none"/>
      <path d="M14.25 10.35 L14.65 11.0 15.25 12.25 15.25 10.75 Q15.5 9.45 16.3 8.65 L16.45 8.55 Q17.25 9.6 17.5 11.15 L17.8 12.3 18.0 12.3 17.95 12.15 18.1 10.05 20.5 8.4 22.45 7.6 Q23.5 7.95 24.25 8.75 L24.35 8.65 24.5 8.8 24.7 9.2 25.55 10.6 25.45 11.6 25.15 11.8 25.05 12.45 25.1 12.5 25.7 11.55 26.25 11.0 Q26.55 10.8 26.9 10.75 L27.05 11.3 Q26.95 11.85 27.0 12.45 L26.8 13.0 27.6 13.15 27.7 13.2 28.4 14.2 28.55 14.15 28.65 14.3 28.45 14.2 28.7 14.45 28.9 15.15 28.95 15.35 29.25 16.05 29.2 16.2 28.95 16.3 28.8 16.3 28.65 16.3 28.3 16.3 27.65 16.45 27.6 16.5 27.55 16.65 27.55 16.85 27.5 17.0 27.4 17.05 26.8 17.15 26.65 17.7 Q27.0 18.45 27.0 19.4 27.05 20.3 26.75 21.0 L27.8 22.7 28.2 23.35 Q29.0 23.25 29.5 23.85 L29.75 24.4 29.7 24.4 29.6 24.45 29.65 24.6 28.9 25.1 29.15 25.5 29.4 25.8 29.65 25.7 Q31.05 25.45 30.0 24.7 L30.05 24.65 30.5 24.7 30.9 24.9 30.9 25.75 31.15 26.0 31.25 25.7 31.4 25.7 31.9 26.95 Q32.25 27.6 32.05 28.4 L31.95 28.55 31.45 28.8 31.45 28.85 Q30.85 29.5 30.05 28.85 L29.95 29.2 29.95 29.3 Q29.85 29.85 29.25 29.6 28.25 29.8 28.0 28.7 27.4 28.7 26.85 28.3 L26.45 27.4 26.3 27.1 Q26.25 27.1 26.15 27.2 L25.6 27.35 25.65 27.65 26.1 29.2 26.3 30.0 25.7 30.0 25.55 27.85 25.55 28.15 23.65 29.55 24.1 30.0 23.45 30.0 23.1 29.6 22.8 29.55 23.15 29.2 22.0 29.55 21.9 30.0 21.65 30.0 21.85 29.6 21.2 29.55 20.7 29.95 20.4 29.95 20.25 30.0 19.25 30.0 18.95 29.95 18.95 30.0 17.85 30.0 18.45 29.7 18.45 29.6 18.4 29.6 18.4 29.55 18.0 28.65 17.8 28.95 17.8 29.05 16.9 29.35 16.85 29.35 16.9 29.3 17.65 28.9 17.6 28.75 17.65 28.7 17.65 28.6 17.85 28.5 17.4 27.75 17.0 28.25 16.95 28.25 16.5 28.5 16.1 28.6 16.85 29.35 17.5 30.0 16.5 30.0 16.25 29.85 16.1 30.0 15.0 30.0 15.45 29.65 14.7 29.1 13.35 28.55 13.25 28.85 13.0 30.0 12.05 30.0 11.95 29.55 11.85 28.65 11.55 30.0 10.75 30.0 Q11.05 28.9 11.7 27.8 L11.7 27.2 Q10.85 27.8 9.7 27.85 L10.1 26.65 10.35 25.5 10.45 25.35 10.4 25.1 10.15 25.0 9.8 24.25 8.0 25.55 8.0 26.0 7.3 26.5 6.65 26.6 5.5 25.65 Q7.1 24.45 8.65 23.2 L7.7 22.75 8.3 23.25 7.4 22.6 5.0 20.6 3.0 18.75 3.0 18.05 3.1 18.15 7.75 22.15 8.85 22.95 8.9 23.0 9.95 22.15 Q7.3 18.95 3.6 16.55 L3.0 16.15 3.0 15.95 3.7 16.35 5.1 17.25 5.35 17.4 5.4 17.4 5.65 17.55 5.45 17.4 5.3 17.1 5.3 17.0 5.15 16.7 4.95 16.5 4.6 16.1 3.0 14.4 3.0 14.1 3.5 14.65 4.5 15.7 4.35 14.7 5.0 16.05 5.15 16.2 4.95 15.8 Q4.7 15.3 4.7 14.65 L4.65 14.55 4.15 11.6 4.1 11.15 3.3 10.3 4.3 14.7 3.7 13.95 3.0 13.0 3.0 12.6 3.2 12.8 3.0 12.5 3.0 12.3 3.45 13.1 3.9 13.75 3.6 12.15 3.0 10.8 3.0 9.0 3.8 9.85 4.6 10.75 5.0 11.2 6.55 13.0 11.3 18.4 11.65 17.9 11.6 17.55 11.9 17.8 11.95 17.8 12.5 17.3 12.6 17.3 13.0 18.9 13.4 17.05 13.35 17.0 13.0 16.2 12.15 15.9 12.1 15.85 12.05 15.7 12.1 15.45 12.05 15.3 12.0 15.25 11.4 14.95 11.05 14.85 10.85 14.8 10.5 14.4 Q10.55 14.05 10.85 13.85 L10.9 13.6 11.2 13.0 11.55 12.85 12.4 12.05 12.5 12.0 13.3 12.1 13.2 11.5 13.3 10.4 Q13.3 9.95 13.55 9.85 L14.25 10.3 14.0 10.3 13.85 10.6 13.7 10.5 13.7 10.6 13.7 10.9 13.7 11.0 13.65 11.45 13.6 12.0 13.55 12.15 14.25 12.2 14.7 12.3 14.65 11.9 14.2 10.95 14.25 10.5 14.25 10.35 M26.6 11.4 L26.45 11.0 26.25 11.0 26.15 11.2 26.15 11.65 Q25.75 11.95 25.65 12.45 L25.6 12.6 25.8 12.65 25.8 12.85 25.95 12.85 26.1 12.7 26.15 12.85 26.6 13.0 26.55 12.85 26.6 12.3 26.65 11.75 26.65 11.45 26.65 11.35 26.6 11.4 M24.15 11.4 L23.95 11.45 23.8 11.5 23.3 11.6 Q22.9 11.55 22.7 11.25 L22.55 11.35 22.4 11.65 22.8 11.85 23.35 12.0 23.7 12.0 23.7 12.1 23.8 13.0 24.35 12.65 24.25 12.25 24.25 12.2 24.6 11.85 24.55 11.65 24.45 11.6 24.4 11.45 24.55 11.45 24.6 11.5 24.7 11.5 24.85 11.5 24.95 11.45 24.7 10.3 24.45 10.3 23.4 10.0 23.55 11.1 23.7 11.15 24.05 11.35 24.15 11.4 M20.55 12.2 L23.15 14.25 23.15 14.0 23.2 13.9 23.25 13.45 23.3 13.15 23.35 13.0 23.2 12.35 22.8 11.95 22.8 12.3 21.4 11.85 20.55 12.2 M24.55 10.0 L24.6 10.0 24.5 9.8 24.25 9.4 23.95 9.05 Q22.75 7.7 20.7 8.55 19.45 9.6 18.55 10.9 L18.3 11.65 18.55 11.8 18.6 12.2 19.7 12.3 21.3 14.45 21.55 14.6 23.4 15.55 23.45 15.5 22.3 13.95 22.2 13.85 21.4 13.15 19.7 12.15 20.55 10.0 Q22.0 9.2 23.55 9.6 L23.95 9.75 24.45 9.95 24.55 10.0 M23.0 10.0 L20.95 10.3 20.1 11.9 22.95 10.75 23.0 10.0 M27.15 13.3 L26.9 13.4 27.15 13.7 26.3 13.45 26.05 13.55 26.2 13.85 26.3 13.85 26.4 13.85 Q26.55 14.2 26.3 14.55 27.0 14.3 27.8 15.1 L27.8 15.05 27.8 14.5 27.85 14.15 27.65 13.8 27.15 13.3 M28.15 14.7 L28.05 15.45 Q27.25 14.9 26.3 14.65 L26.25 14.7 26.3 15.15 26.45 15.3 Q26.9 15.7 26.95 16.15 L27.25 16.45 27.25 16.35 27.35 16.2 27.4 16.1 27.55 16.0 28.1 15.85 28.55 15.75 28.55 15.7 28.4 15.15 28.15 14.7 M25.4 13.1 L25.4 13.05 25.4 12.9 24.35 13.1 24.6 13.35 24.75 15.0 25.5 14.6 25.6 14.5 25.65 14.45 25.7 14.3 25.7 14.15 25.7 14.05 25.75 14.05 25.2 13.55 25.4 13.3 25.4 13.1 M26.05 14.85 L26.0 14.85 25.8 15.05 Q25.05 15.0 24.8 15.5 L24.8 15.6 24.8 16.0 24.7 18.55 24.7 18.6 24.5 20.2 24.1 22.1 23.95 22.7 24.25 22.0 25.0 19.85 25.5 18.5 25.8 17.45 26.05 14.9 26.05 14.85 M26.1 17.9 L26.1 17.85 25.75 19.35 24.95 21.45 Q25.55 21.05 26.35 21.0 L26.25 19.3 26.2 18.0 26.1 17.9 M23.8 13.35 L23.6 13.75 23.7 14.15 23.8 13.35 M21.65 14.95 L21.95 15.3 22.6 15.65 21.65 14.95 M24.45 15.35 L24.25 13.65 23.65 15.65 22.85 16.85 22.95 17.4 22.95 17.55 23.1 18.85 23.65 18.25 23.8 18.0 24.0 17.7 Q24.55 16.65 24.45 15.35 M19.45 17.4 L19.05 18.0 17.25 19.65 17.15 20.0 17.15 20.05 18.3 19.55 Q19.3 19.2 20.25 19.55 18.9 19.4 17.65 20.05 L17.2 20.3 17.1 20.35 17.05 21.5 18.05 20.75 19.75 21.1 19.45 21.15 18.95 21.2 Q17.9 21.15 17.05 21.7 L16.85 21.95 17.75 23.0 19.35 24.3 19.9 24.65 21.05 25.2 22.55 25.7 22.55 24.95 22.0 22.3 21.6 22.25 21.2 22.15 20.85 21.85 20.35 21.4 20.25 21.25 20.85 21.6 21.4 21.95 22.1 22.25 21.95 21.5 21.95 21.4 Q21.25 18.7 19.9 16.3 L19.8 16.7 19.45 17.4 M21.3 18.25 L21.85 18.45 21.9 18.45 22.1 19.05 22.9 19.0 22.4 16.75 19.4 12.8 19.25 14.05 19.5 14.15 19.55 14.3 19.55 14.5 Q20.1 14.7 20.05 15.45 L20.0 15.85 20.1 15.95 20.2 16.0 21.3 18.25 M22.75 19.35 L22.45 19.3 22.1 19.3 21.4 18.7 22.25 21.5 22.5 22.4 22.6 22.7 22.95 24.55 24.1 18.3 23.1 19.35 22.75 19.35 M24.85 22.0 L24.7 22.75 24.4 23.25 24.2 24.0 24.1 25.0 24.1 25.35 24.0 25.75 23.95 25.8 24.7 25.85 25.25 26.7 25.2 26.4 25.1 26.1 24.9 25.1 24.35 24.45 Q24.1 24.3 24.3 24.0 L25.2 24.7 25.55 26.9 Q26.15 25.85 27.4 25.1 28.0 24.65 28.95 24.6 L29.15 24.55 Q29.25 24.2 28.55 23.9 L28.95 24.55 28.95 24.6 28.25 23.75 27.75 23.4 27.85 23.35 26.95 22.25 26.35 21.7 26.3 21.75 26.3 21.7 Q25.65 21.5 24.85 22.0 M16.7 10.15 L16.7 9.6 16.55 9.3 16.55 9.4 16.45 9.1 Q15.95 9.8 15.85 10.95 L15.8 11.55 15.45 12.75 16.55 13.0 17.05 13.15 17.25 13.15 17.65 13.3 17.45 13.0 17.2 12.55 16.9 11.55 16.7 10.15 M5.35 16.05 L5.45 16.65 5.6 17.0 6.15 17.95 Q8.35 19.65 10.0 22.1 L12.55 19.85 12.3 17.5 11.0 19.0 10.05 17.95 9.3 18.9 8.7 19.0 6.55 16.7 5.25 14.95 5.35 15.7 5.35 16.05 M9.95 17.75 L4.5 11.6 5.15 14.45 Q5.85 15.6 6.85 16.55 L8.7 18.75 Q9.5 18.75 9.85 17.85 L9.95 17.75 M9.55 23.7 L9.1 23.4 6.35 25.8 7.0 26.1 7.65 25.7 7.65 25.25 9.85 23.9 9.55 23.7 M9.6 22.9 L9.8 22.95 10.15 23.15 10.15 23.25 10.2 23.3 10.45 23.35 10.5 23.4 10.7 23.25 10.85 23.15 11.5 22.6 11.65 22.5 12.6 21.65 12.35 21.1 12.3 21.05 12.3 20.5 9.6 22.9 M9.95 23.7 L10.0 23.75 10.3 23.5 10.15 23.55 10.05 23.4 Q9.95 23.25 9.7 23.25 L9.4 23.1 9.3 23.25 9.45 23.4 9.95 23.7 M19.0 12.8 L19.0 12.7 18.95 12.7 18.55 12.75 17.95 12.9 18.1 13.5 18.9 13.85 19.0 12.8 M17.95 14.25 L16.55 13.35 16.3 13.25 15.1 12.85 16.0 13.75 16.1 13.85 16.4 13.9 17.6 14.25 17.9 14.3 17.95 14.25 M18.55 15.2 L18.4 15.15 18.3 15.1 18.2 15.0 18.0 14.85 17.75 14.7 17.65 14.65 Q16.75 14.15 15.85 14.2 14.65 14.25 13.4 15.3 L13.0 15.55 12.85 15.5 12.45 15.55 12.45 15.65 13.0 15.7 13.25 15.75 13.4 16.0 13.8 16.7 13.85 16.75 14.15 17.15 14.55 17.8 14.7 17.65 14.75 17.8 Q14.9 17.4 15.3 17.3 L16.0 16.85 16.25 16.95 16.8 17.15 17.0 17.2 17.15 17.25 17.85 17.25 18.0 17.05 18.35 17.0 18.6 16.6 18.95 16.0 19.05 15.8 19.1 15.65 19.35 15.3 19.2 15.25 18.95 15.3 18.85 15.3 18.8 15.3 Q18.75 15.2 18.55 15.2 M16.3 17.15 Q15.7 17.3 15.2 17.8 L14.9 18.05 15.6 19.3 15.3 19.5 15.4 19.85 15.5 20.0 16.25 19.7 17.0 19.35 17.25 19.15 17.85 18.75 Q18.85 18.05 19.2 16.95 L19.4 16.15 19.4 16.05 19.4 16.0 19.4 15.55 19.25 15.95 19.15 16.15 18.95 16.45 18.55 17.1 18.55 17.15 18.45 17.2 18.05 17.25 18.05 17.3 18.0 17.4 17.95 17.5 17.0 17.5 16.4 17.25 16.3 17.15 M14.55 12.5 L14.7 12.6 15.3 12.7 15.0 12.6 14.55 12.5 M15.1 13.6 L13.8 12.7 12.9 12.7 13.25 12.45 13.0 12.3 12.4 12.65 12.15 12.95 12.15 13.3 12.1 13.85 12.1 13.9 Q13.2 13.2 14.15 14.1 L14.55 13.8 14.85 13.65 15.1 13.7 15.15 13.7 15.1 13.6 M13.4 14.45 L13.95 14.15 13.85 14.1 13.65 13.85 11.75 14.15 Q11.7 13.8 11.8 13.4 L11.4 13.8 11.2 14.25 11.2 14.3 11.7 14.55 12.2 14.85 12.3 14.95 12.4 15.1 12.4 15.3 12.4 15.4 12.8 15.15 Q12.85 14.7 13.4 14.45 M11.55 12.85 L11.35 12.85 11.4 12.75 11.55 12.85 M13.75 17.55 L13.65 18.8 14.15 18.2 13.75 17.55 M12.7 21.6 L13.0 21.25 13.15 21.1 12.95 20.55 12.85 20.0 12.4 20.4 12.55 20.95 12.55 21.0 12.7 21.6 M14.65 19.55 L14.85 19.3 14.6 18.4 13.0 19.85 13.2 20.45 13.3 21.0 13.85 20.45 14.65 19.55 M13.55 21.0 L13.35 21.15 13.35 21.35 13.3 21.3 13.25 21.55 13.4 21.8 Q13.85 21.85 14.0 22.1 L14.0 22.05 14.4 22.65 14.5 22.5 14.55 22.45 14.6 22.4 14.6 22.3 14.55 22.2 14.2 21.7 13.85 21.05 13.75 20.9 13.7 20.9 13.55 21.0 M15.2 23.15 L15.2 23.1 15.25 22.9 15.35 23.0 16.15 22.0 16.45 21.45 16.7 20.8 16.85 20.45 16.85 20.2 16.95 19.85 16.4 20.15 15.65 20.7 Q15.0 20.8 14.85 20.3 L14.75 19.95 14.0 20.55 14.3 20.85 14.75 21.65 14.95 22.25 14.85 23.0 15.05 23.2 15.25 23.55 15.25 23.15 15.2 23.15 M11.3 24.45 L11.75 24.5 12.15 23.95 11.85 24.0 11.3 24.25 11.2 24.2 11.6 23.15 12.35 22.6 12.4 22.55 13.1 21.9 12.9 21.7 12.85 21.7 11.65 22.75 10.6 23.65 10.55 23.75 11.1 24.35 11.2 24.4 11.3 24.55 11.35 24.7 11.25 24.95 Q10.85 24.95 10.85 24.7 L10.5 24.05 10.45 24.0 10.35 24.1 10.7 24.75 11.0 25.05 11.7 25.55 12.3 25.95 12.4 26.0 12.6 26.1 12.6 26.15 12.85 26.0 12.9 25.9 12.95 25.85 12.85 25.8 12.45 25.6 12.15 25.4 12.05 25.4 Q12.15 25.25 12.3 25.25 L11.9 25.1 11.75 25.0 11.3 24.45 M12.55 23.45 L12.45 23.65 12.7 23.5 Q13.55 23.0 13.55 22.2 12.9 22.55 12.65 23.3 L12.55 23.45 M14.1 23.15 Q13.85 23.15 14.1 23.0 L14.0 22.85 13.95 22.75 13.65 23.3 12.05 24.9 12.15 24.95 12.35 25.05 12.7 25.05 Q13.65 24.9 14.25 23.85 L14.35 23.7 14.35 23.6 14.2 23.25 14.15 23.15 14.1 23.15 M13.1 25.45 L14.3 25.0 14.7 24.85 14.7 24.7 Q14.65 24.4 14.75 24.2 L14.85 23.85 14.75 23.85 14.35 24.55 Q13.8 25.3 13.1 25.4 L13.0 25.4 13.1 25.45 M17.0 23.0 L16.5 22.4 Q16.1 22.9 15.5 23.1 L15.7 23.4 17.0 23.0 M15.7 24.7 L15.55 25.1 15.7 25.25 16.95 24.4 18.4 24.6 18.85 25.25 19.1 24.85 18.9 24.65 17.55 23.55 16.55 23.95 15.8 24.15 15.7 24.7 M20.2 25.3 L20.15 26.0 20.4 25.4 20.2 25.3 M19.95 25.2 L19.9 25.2 Q19.1 25.75 18.75 26.7 L18.6 27.1 18.45 27.6 Q18.35 28.3 18.9 28.4 L19.9 25.55 19.95 25.2 M19.7 27.25 L19.6 27.8 19.55 27.95 19.55 28.4 19.55 28.55 20.2 28.35 20.35 27.85 20.4 27.55 20.3 27.05 20.0 26.25 19.7 27.25 M18.5 25.55 L18.05 24.9 15.85 25.35 16.35 25.75 16.9 26.3 18.15 26.7 18.5 25.55 M15.2 25.4 L14.0 26.55 14.4 27.0 14.55 26.9 14.8 26.75 15.55 26.1 15.75 25.95 15.8 25.9 15.4 25.6 15.2 25.4 M16.0 27.0 Q16.2 26.7 16.5 26.7 L15.9 26.1 15.5 26.65 15.15 26.85 14.5 27.0 14.45 27.0 15.15 27.7 15.65 27.3 16.0 27.0 M15.6 27.65 L15.25 27.75 16.05 28.55 16.55 28.25 17.0 27.85 17.25 27.55 17.05 27.25 16.55 26.75 16.3 27.1 16.0 27.4 15.6 27.65 M16.15 29.25 L15.5 28.55 15.4 29.0 15.15 28.55 15.05 28.25 15.0 28.05 14.4 27.4 14.25 27.75 14.7 28.4 14.9 28.7 14.95 28.7 Q15.5 29.4 16.15 29.25 M18.1 27.0 L17.55 27.1 18.25 28.25 18.1 27.0 M18.65 29.1 L18.7 29.25 19.7 29.55 20.15 29.55 20.85 29.3 20.85 28.8 20.4 28.4 20.7 29.3 Q20.1 29.4 20.25 28.65 L19.4 28.7 18.7 29.25 19.1 28.55 18.6 28.85 18.65 29.1 M14.1 25.75 Q13.4 26.4 12.7 26.4 L12.65 26.4 13.6 26.65 13.65 26.6 13.5 26.45 14.9 25.4 15.0 25.25 14.35 25.5 14.1 25.75 M13.75 27.0 L13.45 28.1 14.25 28.55 14.0 27.0 13.75 27.0 M10.7 25.8 Q10.25 26.3 10.5 26.85 L10.55 27.0 11.7 26.8 11.95 26.7 11.7 26.55 10.95 26.0 10.7 25.8 M12.25 27.5 L12.3 27.85 12.3 28.15 12.3 28.4 12.4 28.9 12.85 28.35 12.95 27.95 13.0 27.85 13.35 27.0 12.5 26.9 12.35 27.15 12.25 27.35 12.25 27.5 M30.7 26.35 L30.65 26.55 30.4 26.9 30.55 27.05 30.75 26.95 Q31.35 27.2 31.4 27.85 L31.45 28.25 31.65 28.05 31.35 26.9 31.15 26.55 Q30.95 26.55 30.7 26.35 M30.75 28.35 L30.4 27.85 30.35 27.35 30.25 27.05 29.9 27.3 29.9 27.35 29.95 27.6 30.05 28.05 30.1 28.25 30.35 28.55 31.1 28.7 30.95 28.55 30.7 28.4 30.75 28.35 M29.75 26.0 Q29.25 26.1 28.95 26.55 28.8 26.75 28.8 27.0 L28.95 27.05 29.0 27.1 29.2 27.1 29.65 27.0 30.5 26.1 30.35 25.75 29.75 26.0 M28.55 25.55 L28.55 25.25 27.4 25.75 Q27.0 25.85 26.6 26.1 L26.4 26.65 26.4 26.7 26.55 26.65 26.9 27.2 27.2 27.95 27.25 28.1 27.9 28.3 Q27.8 27.4 28.45 27.05 L28.5 27.0 Q28.4 26.4 28.85 26.05 L28.55 25.55 M29.25 27.5 L29.35 28.0 29.35 28.55 29.4 28.95 29.4 29.2 Q29.65 29.05 29.55 28.6 L29.45 27.85 29.5 27.45 29.25 27.5 M28.55 27.9 L28.65 27.55 Q28.25 27.85 28.35 28.4 L28.4 28.55 28.5 28.6 28.4 28.65 Q28.5 29.05 28.95 29.25 L29.1 28.9 Q29.05 28.75 28.8 28.7 L28.5 28.45 28.55 27.9 M28.95 28.1 L29.0 28.3 28.95 28.0 28.95 28.1 M23.9 25.8 L23.8 25.4 23.8 24.85 23.8 24.8 23.75 24.25 23.25 24.8 22.7 25.95 21.4 25.7 21.7 26.55 23.85 25.8 23.9 25.8 M21.8 26.85 L21.85 27.5 21.8 27.95 21.3 29.4 22.45 28.95 22.45 26.65 21.8 26.85 M20.9 25.55 L20.75 25.55 20.7 25.7 20.45 26.15 20.6 28.25 21.1 28.7 21.15 27.7 21.1 27.2 20.9 25.55 M25.0 27.55 L25.25 27.2 25.25 27.1 24.65 26.4 23.95 26.15 23.8 28.7 25.0 27.55 M23.55 26.45 L22.8 26.6 22.7 28.85 23.4 28.45 23.45 28.4 23.55 26.45" fill="#000000" fill-rule="evenodd" stroke="none"/>
      <path d="M16.1 30.0 L16.25 29.85 16.5 30.0 16.1 30.0 M21.9 30.0 L22.0 29.55 23.15 29.2 22.8 29.55 23.1 29.6 23.45 30.0 21.9 30.0 M30.05 24.65 L30.0 24.7 Q31.05 25.45 29.65 25.7 L29.4 25.8 29.15 25.5 28.9 25.1 29.65 24.6 29.6 24.45 29.7 24.4 29.75 24.4 Q30.4 24.35 30.1 24.6 L30.05 24.65 M13.55 21.0 L13.7 20.9 13.75 20.9 13.85 21.05 14.2 21.7 14.55 22.2 14.6 22.3 14.6 22.4 14.55 22.45 14.5 22.5 14.4 22.65 14.0 22.05 14.0 22.1 Q13.85 21.85 13.4 21.8 L13.25 21.55 13.3 21.3 13.35 21.35 13.35 21.15 13.55 21.0 M15.05 23.2 L15.15 23.15 15.2 23.15 15.25 23.15 15.25 23.55 15.05 23.2 M11.3 24.55 L11.2 24.4 11.1 24.35 10.55 23.75 10.6 23.65 11.65 22.75 12.85 21.7 12.9 21.7 13.1 21.9 12.4 22.55 12.35 22.6 11.6 23.15 11.2 24.2 11.3 24.25 11.85 24.0 12.15 23.95 11.75 24.5 11.3 24.45 11.3 24.55 M12.7 23.5 L12.55 23.45 12.65 23.3 Q12.9 22.55 13.55 22.2 13.55 23.0 12.7 23.5 M13.1 25.4 Q13.8 25.3 14.35 24.55 L14.75 23.85 14.85 23.85 14.75 24.2 Q14.65 24.4 14.7 24.7 L14.7 24.85 14.3 25.0 13.1 25.45 13.1 25.4 M14.1 23.15 L14.15 23.15 14.2 23.25 14.35 23.6 14.35 23.7 14.25 23.85 Q13.65 24.9 12.7 25.05 L12.35 25.05 12.15 24.95 12.05 24.9 13.65 23.3 13.95 22.75 14.0 22.85 14.1 23.0 Q13.85 23.15 14.1 23.15 M17.0 23.0 L15.7 23.4 15.5 23.1 Q16.1 22.9 16.5 22.4 L17.0 23.0 M15.7 24.7 L15.8 24.15 16.55 23.95 17.55 23.55 18.9 24.65 19.1 24.85 18.85 25.25 18.4 24.6 16.95 24.4 15.7 25.25 15.55 25.1 15.7 24.7 M18.5 25.55 L18.15 26.7 16.9 26.3 16.35 25.75 15.85 25.35 18.05 24.9 18.5 25.55 M19.7 27.25 L20.0 26.25 20.3 27.05 20.4 27.55 20.35 27.85 20.2 28.35 19.55 28.55 19.55 28.4 19.55 27.95 19.6 27.8 19.7 27.25 M28.55 27.9 L28.5 28.45 28.8 28.7 Q29.05 28.75 29.1 28.9 L28.95 29.25 Q28.5 29.05 28.4 28.65 L28.5 28.6 28.4 28.55 28.35 28.4 Q28.25 27.85 28.65 27.55 L28.55 27.9 M29.25 27.5 L29.5 27.45 29.45 27.85 29.55 28.6 Q29.65 29.05 29.4 29.2 L29.4 28.95 29.35 28.55 29.35 28.0 29.25 27.5 M28.55 25.55 L28.85 26.05 Q28.4 26.4 28.5 27.0 L28.45 27.05 Q27.8 27.4 27.9 28.3 L27.25 28.1 27.2 27.95 26.9 27.2 26.55 26.65 26.4 26.7 26.4 26.65 26.6 26.1 Q27.0 25.85 27.4 25.75 L28.55 25.25 28.55 25.55 M29.75 26.0 L30.35 25.75 30.5 26.1 29.65 27.0 29.2 27.1 29.0 27.1 28.95 27.05 28.8 27.0 Q28.8 26.75 28.95 26.55 29.25 26.1 29.75 26.0 M30.75 28.35 L30.7 28.4 30.95 28.55 31.1 28.7 30.35 28.55 30.1 28.25 30.05 28.05 29.95 27.6 29.9 27.35 29.9 27.3 30.25 27.05 30.35 27.35 30.4 27.85 30.75 28.35 M30.7 26.35 Q30.95 26.55 31.15 26.55 L31.35 26.9 31.65 28.05 31.45 28.25 31.4 27.85 Q31.35 27.2 30.75 26.95 L30.55 27.05 30.4 26.9 30.65 26.55 30.7 26.35 M23.9 25.8 L23.85 25.8 21.7 26.55 21.4 25.7 22.7 25.95 23.25 24.8 23.75 24.25 23.8 24.8 23.8 24.85 23.8 25.4 23.9 25.8" fill="#32363d" fill-rule="evenodd" stroke="none"/>
      <path d="M14.2 10.95 L14.65 11.9 14.7 12.3 14.25 12.2 13.55 12.15 13.6 12.0 13.65 11.45 13.7 11.0 13.8 11.7 14.0 11.65 14.2 10.95 M13.7 10.9 L13.7 10.6 13.85 10.6 13.7 10.9 M11.55 30.0 L11.85 28.65 11.95 29.55 12.05 30.0 11.55 30.0 M13.0 30.0 L13.25 28.85 13.35 28.55 14.7 29.1 15.45 29.65 15.0 30.0 13.0 30.0 M20.25 30.0 L20.4 29.95 20.7 29.95 21.2 29.55 21.85 29.6 21.65 30.0 20.25 30.0 M24.1 30.0 L23.65 29.55 25.55 28.15 25.55 27.85 25.7 30.0 24.1 30.0 M26.65 11.45 L26.65 11.75 26.6 12.3 26.55 12.85 26.6 13.0 26.15 12.85 26.1 12.7 25.95 12.85 25.8 12.85 25.8 12.65 25.6 12.6 25.65 12.45 Q25.75 11.95 26.15 11.65 L26.25 12.35 26.45 12.5 26.6 11.85 26.6 11.45 26.65 11.45 M24.15 11.4 L24.05 11.35 23.7 11.15 23.55 11.1 23.4 10.0 24.45 10.3 24.7 10.3 24.95 11.45 24.85 11.5 24.7 11.5 24.6 11.5 24.55 11.45 24.4 11.45 24.25 11.3 24.15 11.4 M23.0 10.0 L22.95 10.75 20.1 11.9 20.95 10.3 23.0 10.0 M24.55 10.0 L24.45 9.95 23.95 9.75 23.55 9.6 Q22.0 9.2 20.55 10.0 L19.7 12.15 21.4 13.15 22.2 13.85 22.3 13.95 23.45 15.5 23.4 15.55 21.55 14.6 21.3 14.45 19.7 12.3 18.6 12.2 18.55 11.8 18.3 11.65 18.55 10.9 Q19.45 9.6 20.7 8.55 22.75 7.7 23.95 9.05 L24.25 9.4 24.5 9.8 24.6 10.0 24.55 10.0 M20.55 12.2 L21.4 11.85 22.8 12.3 22.8 11.95 23.2 12.35 23.35 13.0 23.3 13.15 23.25 13.45 23.2 13.9 23.15 14.0 23.15 14.25 20.55 12.2 M28.15 14.7 L28.4 15.15 28.55 15.7 28.55 15.75 28.1 15.85 27.55 16.0 27.4 16.1 27.35 16.2 27.25 16.35 27.25 16.45 26.95 16.15 Q26.9 15.7 26.45 15.3 L26.3 15.15 26.25 14.7 26.3 14.65 Q27.25 14.9 28.05 15.45 L28.15 14.7 M27.15 13.3 L27.65 13.8 27.85 14.15 27.8 14.5 27.8 15.05 27.8 15.1 Q27.0 14.3 26.3 14.55 26.55 14.2 26.4 13.85 L26.3 13.85 26.2 13.85 26.05 13.55 26.3 13.45 27.15 13.7 26.9 13.4 27.15 13.3 M26.05 14.85 L26.05 14.9 25.8 17.45 25.5 18.5 25.0 19.85 24.25 22.0 23.95 22.7 24.1 22.1 24.5 20.2 24.7 18.6 24.7 18.55 24.8 16.0 24.8 15.6 24.8 15.5 Q25.05 15.0 25.8 15.05 L26.0 14.85 26.05 14.85 M25.45 16.55 L25.6 15.9 25.4 15.4 25.15 15.8 25.0 16.15 25.2 16.7 25.45 16.55 M25.75 19.35 L26.1 20.0 26.3 19.8 26.15 18.5 26.1 17.9 26.2 18.0 26.25 19.3 26.35 21.0 Q25.55 21.05 24.95 21.45 L25.75 19.35 M19.45 17.4 L20.1 18.55 20.35 18.45 20.35 18.3 20.15 17.7 19.8 16.7 19.9 16.3 Q21.25 18.7 21.95 21.4 L21.95 21.5 22.1 22.25 21.4 21.95 20.85 21.6 20.25 21.25 20.35 21.4 20.85 21.85 21.2 22.15 21.6 22.25 22.0 22.3 22.55 24.95 22.55 25.7 21.05 25.2 19.9 24.65 19.35 24.3 17.75 23.0 16.85 21.95 17.05 21.7 Q17.9 21.15 18.95 21.2 L19.45 21.15 19.75 21.1 18.05 20.75 17.05 21.5 17.1 20.35 17.2 20.3 17.65 20.05 Q18.9 19.4 20.25 19.55 19.3 19.2 18.3 19.55 L17.15 20.05 17.15 20.0 17.25 19.65 19.05 18.0 19.45 17.4 M23.4 20.05 L23.4 19.95 23.4 19.85 23.55 19.75 23.45 19.55 22.6 19.55 22.55 19.7 22.25 19.8 22.25 19.95 22.55 20.15 22.7 21.15 Q22.7 21.85 22.95 22.1 L23.05 22.1 23.25 21.85 23.2 21.65 23.25 21.3 23.25 21.1 23.4 20.25 23.4 20.05 M22.75 19.35 L23.1 19.35 24.1 18.3 22.95 24.55 22.6 22.7 22.5 22.4 22.25 21.5 21.4 18.7 22.1 19.3 22.45 19.3 22.75 19.35 M24.85 22.2 L25.05 22.6 25.6 22.45 26.25 22.4 26.45 22.55 26.55 22.65 27.25 23.7 28.05 24.7 28.3 24.55 28.3 24.4 27.4 22.9 Q27.05 22.3 26.65 22.25 L25.9 22.0 24.85 22.2 M24.85 22.0 Q25.65 21.5 26.3 21.7 L26.3 21.75 26.35 21.7 26.95 22.25 27.85 23.35 27.75 23.4 28.25 23.75 28.95 24.6 28.95 24.55 28.55 23.9 Q29.25 24.2 29.15 24.55 L28.95 24.6 Q28.0 24.65 27.4 25.1 26.15 25.85 25.55 26.9 L25.2 24.7 24.3 24.0 Q24.1 24.3 24.35 24.45 L24.9 25.1 25.1 26.1 25.2 26.4 25.25 26.7 24.7 25.85 23.95 25.8 24.0 25.75 24.1 25.35 24.1 25.0 24.2 24.0 24.4 23.25 24.7 22.75 24.85 22.0 M16.7 10.15 L16.9 11.55 17.2 12.55 17.45 13.0 17.65 13.3 17.25 13.15 17.05 13.15 16.55 13.0 15.45 12.75 15.8 11.55 15.85 10.95 Q15.95 9.8 16.45 9.1 L16.55 9.4 16.4 9.6 16.3 9.6 16.1 10.0 15.8 11.55 15.9 11.85 16.25 11.8 16.25 11.75 16.35 11.7 16.45 11.0 16.6 10.45 16.7 10.15 M18.85 15.3 L18.95 15.3 19.2 15.25 19.35 15.3 19.1 15.65 19.05 15.8 18.95 16.0 18.6 16.6 18.35 17.0 18.0 17.05 17.85 17.25 17.15 17.25 17.0 17.2 16.8 17.15 16.25 16.95 16.0 16.85 15.3 17.3 Q14.9 17.4 14.75 17.8 L14.7 17.65 14.55 17.8 14.15 17.15 13.85 16.75 13.8 16.7 13.4 16.0 13.25 15.75 13.0 15.7 12.45 15.65 12.45 15.55 12.85 15.5 13.0 15.55 13.4 15.3 Q14.65 14.25 15.85 14.2 16.75 14.15 17.65 14.65 L17.75 14.7 18.0 14.85 18.2 15.0 18.3 15.1 18.4 15.15 18.55 15.2 18.45 15.2 16.3 14.55 Q14.1 14.15 14.0 15.5 L14.0 15.7 14.2 15.75 14.65 15.35 16.25 15.2 16.95 15.5 18.05 15.8 Q18.55 15.85 18.85 15.3 M17.95 14.25 L17.9 14.3 17.6 14.25 16.4 13.9 16.1 13.85 16.0 13.75 15.1 12.85 16.3 13.25 16.55 13.35 17.95 14.25 M15.75 18.15 L16.25 17.95 16.75 17.55 16.55 17.35 15.5 17.95 15.55 18.15 15.75 18.15 M16.3 17.15 L16.4 17.25 17.0 17.5 17.95 17.5 18.0 17.4 18.05 17.3 18.05 17.25 18.45 17.2 18.55 17.15 18.55 17.1 18.95 16.45 19.15 16.15 19.25 15.95 19.4 15.55 19.4 16.0 19.4 16.05 19.4 16.15 19.2 16.95 Q18.85 18.05 17.85 18.75 L17.25 19.15 17.0 19.35 16.25 19.7 15.5 20.0 15.4 19.85 15.3 19.5 15.6 19.3 14.9 18.05 15.2 17.8 Q15.7 17.3 16.3 17.15 M15.1 13.7 L14.85 13.65 14.55 13.8 14.15 14.1 Q13.2 13.2 12.1 13.9 L12.1 13.85 12.15 13.3 12.15 12.95 12.4 12.65 13.0 12.3 13.25 12.45 12.9 12.7 13.8 12.7 15.1 13.6 15.1 13.7 M13.4 14.45 Q12.85 14.7 12.8 15.15 L12.4 15.4 12.4 15.3 12.4 15.1 12.3 14.95 12.2 14.85 11.7 14.55 11.2 14.3 11.2 14.25 11.4 13.8 11.8 13.4 Q11.7 13.8 11.75 14.15 L13.65 13.85 13.85 14.1 13.95 14.15 13.4 14.45 M13.75 17.55 L14.15 18.2 13.65 18.8 13.75 17.55 M15.05 23.2 L14.85 23.0 14.95 22.25 14.75 21.65 14.3 20.85 14.0 20.55 14.75 19.95 14.85 20.3 Q15.0 20.8 15.65 20.7 L16.4 20.15 16.95 19.85 16.85 20.2 16.85 20.45 16.7 20.8 16.45 21.45 16.15 22.0 15.35 23.0 15.25 22.9 15.2 23.1 15.2 23.15 15.15 23.15 15.05 23.2 M11.3 24.55 L11.3 24.45 11.75 25.0 11.9 25.1 12.3 25.25 Q12.15 25.25 12.05 25.4 L12.15 25.4 12.45 25.6 12.85 25.8 12.95 25.85 12.9 25.9 12.85 26.0 12.6 26.15 12.6 26.1 12.4 26.0 12.3 25.95 11.7 25.55 11.0 25.05 10.7 24.75 10.35 24.1 10.5 24.05 10.85 24.7 Q10.85 24.95 11.25 24.95 L11.35 24.7 11.3 24.55 M13.1 25.4 L13.1 25.45 13.0 25.4 13.1 25.4 M19.95 25.2 L19.9 25.55 18.9 28.4 Q18.35 28.3 18.45 27.6 L18.6 27.1 18.75 26.7 Q19.1 25.75 19.9 25.2 L19.95 25.2 M20.2 25.3 L20.4 25.4 20.15 26.0 20.2 25.3 M16.15 29.25 Q15.5 29.4 14.95 28.7 L14.9 28.7 14.7 28.4 14.25 27.75 14.4 27.4 15.0 28.05 15.05 28.25 15.15 28.55 15.4 29.0 15.5 28.55 16.15 29.25 M18.65 29.1 L18.6 28.85 19.1 28.55 18.7 29.25 19.4 28.7 20.25 28.65 Q20.1 29.4 20.7 29.3 L20.4 28.4 20.85 28.8 20.85 29.3 20.15 29.55 19.7 29.55 18.7 29.25 18.65 29.1 M18.1 27.0 L18.25 28.25 17.55 27.1 18.1 27.0 M12.25 27.5 L12.25 27.35 12.35 27.15 12.5 26.9 13.35 27.0 13.0 27.85 12.95 27.95 12.85 28.35 12.4 28.9 12.3 28.4 12.3 28.15 12.3 27.85 12.25 27.5 M10.7 25.8 L10.95 26.0 11.7 26.55 11.95 26.7 11.7 26.8 10.55 27.0 10.5 26.85 Q10.25 26.3 10.7 25.8 M13.75 27.0 L14.0 27.0 14.25 28.55 13.45 28.1 13.75 27.0 M14.1 25.75 L14.35 25.5 15.0 25.25 14.9 25.4 13.5 26.45 13.65 26.6 13.6 26.65 12.65 26.4 12.7 26.4 Q13.4 26.4 14.1 25.75 M23.55 26.45 L23.45 28.4 23.4 28.45 22.7 28.85 22.8 26.6 23.55 26.45 M25.0 27.55 L23.8 28.7 23.95 26.15 24.65 26.4 25.25 27.1 25.25 27.2 25.0 27.55 M20.9 25.55 L21.1 27.2 21.15 27.7 21.1 28.7 20.6 28.25 20.45 26.15 20.7 25.7 20.75 25.55 20.9 25.55 M21.8 26.85 L22.45 26.65 22.45 28.95 21.3 29.4 21.8 27.95 21.85 27.5 21.8 26.85" fill="#535964" fill-rule="evenodd" stroke="none"/>
      <path d="M14.25 10.35 L14.25 10.5 14.2 10.95 14.0 11.65 13.8 11.7 13.7 11.0 13.7 10.9 13.85 10.6 14.0 10.3 14.25 10.3 14.25 10.35 M26.25 11.0 L26.45 11.0 26.6 11.4 26.6 11.45 26.6 11.85 26.45 12.5 26.25 12.35 26.15 11.65 26.15 11.2 26.25 11.0 M25.45 16.55 L25.2 16.7 25.0 16.15 25.15 15.8 25.4 15.4 25.6 15.9 25.45 16.55 M25.75 19.35 L26.1 17.85 26.1 17.9 26.15 18.5 26.3 19.8 26.1 20.0 25.75 19.35 M19.8 16.7 L20.15 17.7 20.35 18.3 20.35 18.45 20.1 18.55 19.45 17.4 19.8 16.7 M24.85 22.2 L25.9 22.0 26.65 22.25 Q27.05 22.3 27.4 22.9 L28.3 24.4 28.3 24.55 28.05 24.7 27.25 23.7 26.55 22.65 26.45 22.55 26.25 22.4 25.6 22.45 25.05 22.6 24.85 22.2 M16.55 9.4 L16.55 9.3 16.7 9.6 16.7 10.15 16.6 10.45 16.45 11.0 16.35 11.7 16.25 11.75 16.25 11.8 15.9 11.85 15.8 11.55 16.1 10.0 16.3 9.6 16.4 9.6 16.55 9.4 M18.85 15.3 Q18.55 15.85 18.05 15.8 L16.95 15.5 16.25 15.2 14.65 15.35 14.2 15.75 14.0 15.7 14.0 15.5 Q14.1 14.15 16.3 14.55 L18.45 15.2 18.55 15.2 Q18.75 15.2 18.8 15.3 L18.85 15.3 M15.75 18.15 L15.55 18.15 15.5 17.95 16.55 17.35 16.75 17.55 16.25 17.95 15.75 18.15" fill="#c4c8cc" fill-rule="evenodd" stroke="none"/>
      <path d="M25.4 13.1 L25.4 13.3 25.2 13.55 25.75 14.05 25.7 14.05 25.7 14.15 25.7 14.3 25.65 14.45 25.6 14.5 25.5 14.6 24.75 15.0 24.6 13.35 24.35 13.1 25.4 12.9 25.4 13.05 25.4 13.1 M24.45 15.35 Q24.55 16.65 24.0 17.7 L23.8 18.0 23.65 18.25 23.1 18.85 22.95 17.55 22.95 17.4 22.85 16.85 23.65 15.65 24.25 13.65 24.45 15.35 M21.65 14.95 L22.6 15.65 21.95 15.3 21.65 14.95 M21.3 18.25 L20.2 16.0 20.1 15.95 20.0 15.85 20.05 15.45 Q20.1 14.7 19.55 14.5 L19.55 14.3 19.5 14.15 19.25 14.05 19.4 12.8 22.4 16.75 22.9 19.0 22.1 19.05 21.9 18.45 21.85 18.45 21.3 18.25 M19.0 12.8 L18.9 13.85 18.1 13.5 17.95 12.9 18.55 12.75 18.95 12.7 19.0 12.7 19.0 12.8" fill="#8f7e7e" fill-rule="evenodd" stroke="none"/>
      <path d="M24.4 11.45 L24.45 11.6 24.55 11.65 24.6 11.85 24.25 12.2 24.25 12.25 24.35 12.65 23.8 13.0 23.7 12.1 23.7 12.0 23.35 12.0 22.8 11.85 22.4 11.65 22.55 11.35 22.7 11.25 Q22.9 11.55 23.3 11.6 L23.8 11.5 23.95 11.45 24.15 11.4 24.25 11.3 24.4 11.45 M23.8 13.35 L23.7 14.15 23.6 13.75 23.8 13.35 M23.4 20.05 L23.4 20.25 23.25 21.1 23.25 21.3 23.2 21.65 23.25 21.85 23.05 22.1 22.95 22.1 Q22.7 21.85 22.7 21.15 L22.55 20.15 22.25 19.95 22.25 19.8 22.55 19.7 22.6 19.55 23.45 19.55 23.55 19.75 23.4 19.85 23.4 19.95 23.4 20.05" fill="#ff0000" fill-rule="evenodd" stroke="none"/>
      <path d="M3.0 10.8 L3.6 12.15 3.9 13.75 3.45 13.1 3.0 12.3 3.0 10.8 M3.0 12.5 L3.2 12.8 3.0 12.6 3.0 12.5 M3.0 14.4 L4.6 16.1 4.95 16.5 5.15 16.7 5.3 17.0 5.1 17.25 3.7 16.35 3.0 15.95 3.0 14.4 M5.45 17.4 L5.65 17.55 5.4 17.4 5.45 17.4 M3.0 16.15 L3.6 16.55 Q7.3 18.95 9.95 22.15 L8.9 23.0 8.85 22.95 7.75 22.15 3.1 18.15 3.0 18.05 3.0 16.15 M5.35 16.05 L5.35 15.7 5.25 14.95 6.55 16.7 8.7 19.0 9.3 18.9 10.05 17.95 11.0 19.0 12.3 17.5 12.55 19.85 10.0 22.1 Q8.35 19.65 6.15 17.95 L5.6 17.0 5.45 16.65 5.35 16.05 M9.95 17.75 L9.85 17.85 Q9.5 18.75 8.7 18.75 L6.85 16.55 Q5.85 15.6 5.15 14.45 L4.5 11.6 9.95 17.75 M9.6 22.9 L12.3 20.5 12.3 21.05 12.35 21.1 12.6 21.65 11.65 22.5 11.5 22.6 10.85 23.15 10.7 23.25 10.5 23.4 10.45 23.35 10.2 23.3 10.15 23.25 10.15 23.15 9.8 22.95 9.6 22.9 M9.55 23.7 L9.85 23.9 7.65 25.25 7.65 25.7 7.0 26.1 6.35 25.8 9.1 23.4 9.55 23.7 M9.95 23.7 L9.45 23.4 9.3 23.25 9.4 23.1 9.7 23.25 Q9.95 23.25 10.05 23.4 L10.15 23.55 10.3 23.5 10.0 23.75 9.95 23.7 M14.65 19.55 L13.85 20.45 13.3 21.0 13.2 20.45 13.0 19.85 14.6 18.4 14.85 19.3 14.65 19.55 M12.7 21.6 L12.55 21.0 12.55 20.95 12.4 20.4 12.85 20.0 12.95 20.55 13.15 21.1 13.0 21.25 12.7 21.6" fill="#a2a7b0" fill-rule="evenodd" stroke="none"/>
      <path d="M3.0 13.0 L3.7 13.95 4.3 14.7 3.3 10.3 4.1 11.15 4.15 11.6 4.65 14.55 4.7 14.65 Q4.7 15.3 4.95 15.8 L5.15 16.2 5.0 16.05 4.35 14.7 4.5 15.7 3.5 14.65 3.0 14.1 3.0 13.0" fill="#727987" fill-rule="evenodd" stroke="none"/>
      <path d="M17.5 30.0 L16.85 29.35 16.1 28.6 16.5 28.5 16.95 28.25 17.0 28.25 17.4 27.75 17.85 28.5 17.65 28.6 17.65 28.7 17.6 28.75 17.65 28.9 16.9 29.3 16.85 29.35 16.9 29.35 17.8 29.05 17.8 28.95 18.0 28.65 18.4 29.55 18.4 29.6 18.45 29.6 18.45 29.7 17.85 30.0 17.5 30.0 M16.0 27.0 L15.65 27.3 15.15 27.7 14.45 27.0 14.5 27.0 15.15 26.85 15.5 26.65 15.9 26.1 16.5 26.7 Q16.2 26.7 16.0 27.0 M15.2 25.4 L15.4 25.6 15.8 25.9 15.75 25.95 15.55 26.1 14.8 26.75 14.55 26.9 14.4 27.0 14.0 26.55 15.2 25.4 M15.6 27.65 L16.0 27.4 16.3 27.1 16.55 26.75 17.05 27.25 17.25 27.55 17.0 27.85 16.55 28.25 16.05 28.55 15.25 27.75 15.6 27.65" fill="#5a616b" fill-rule="evenodd" stroke="none"/>
      <path d="M10.5 14.4 L10.85 14.8 12.35 16.3 Q12.75 16.6 12.8 17.05 L12.75 17.1 12.6 17.3 12.5 17.3 11.95 17.8 11.9 17.8 11.6 17.55 10.1 15.9 Q9.1 14.5 7.55 13.6 L7.3 13.0 6.1 12.0 4.6 10.1 4.3 9.45 3.0 8.45 3.0 7.95 4.45 9.5 6.6 11.9 7.55 12.7 9.6 14.95 11.6 17.1 11.85 17.15 12.3 16.95 12.2 16.85 6.95 11.25 4.5 8.5 3.0 6.9 3.0 6.4 4.15 7.75 Q5.35 9.3 6.9 10.5 L7.45 10.8 9.5 13.2 10.5 14.4" fill="#ff2828" fill-rule="evenodd" stroke="none"/>
      <path d="M3.0 6.9 L4.5 8.5 6.95 11.25 12.2 16.85 12.3 16.95 11.85 17.15 11.6 17.1 9.6 14.95 7.55 12.7 6.6 11.9 4.45 9.5 3.0 7.95 3.0 6.9" fill="#fff2f2" fill-rule="evenodd" stroke="none"/>
    </g>
    <g id="button2" transform="matrix(1.0, 0.0, 0.0, 1.0, 0.5, 0.5)">
      <use height="34.0" transform="matrix(1.0, 0.0, 0.0, 1.0, -0.5, -0.5)" width="34.0" xlink:href="#shape0"/>
      <use height="32.3" transform="matrix(1.0, 0.0, 0.0, 1.0, 0.6, 0.3)" width="32.1" xlink:href="#shape4"/>
      <use height="24.3" transform="matrix(0.6885, 0.082, -0.082, 0.6885, 4.972, 7.4911)" width="17.95" xlink:href="#sprite0"/>
      <use height="16.2" transform="matrix(0.1387, -0.4895, 0.5467, 0.1548, 12.73, 24.1596)" width="20.0" xlink:href="#sprite1"/>
      <use height="15.15" transform="matrix(0.5184, 0.2628, -0.3132, 0.6178, 18.15, 18.4)" width="28.55" xlink:href="#sprite2"/>
      <use height="5.0" transform="matrix(0.6559, 0.2235, -0.2235, 0.6559, 21.1, 25.05)" width="6.7" xlink:href="#sprite3"/>
      <use height="14.3" transform="matrix(0.6914, -0.0454, 0.0454, 0.6914, 13.3047, 8.3886)" width="13.4" xlink:href="#sprite4"/>
      <use height="26.85" transform="matrix(0.691, 0.0551, -0.0551, 0.691, 9.0417, 12.5178)" width="16.6" xlink:href="#sprite5"/>
      <use height="16.2" transform="matrix(0.5079, 0.0405, -0.0452, 0.5672, 8.7709, 14.0678)" width="20.0" xlink:href="#sprite1"/>
      <use height="6.8" transform="matrix(0.5793, 0.3791, -0.3791, 0.5793, 9.55, 19.9)" width="16.65" xlink:href="#sprite6"/>
    </g>
    <g id="shape4" transform="matrix(1.0, 0.0, 0.0, 1.0, -0.6, -0.3)">
      <path d="M29.7 1.1 L29.6 1.25 29.05 2.1 28.6 1.8 28.6 1.45 28.85 0.8 Q28.9 0.35 29.3 0.35 L29.4 0.4 Q29.85 0.1 29.85 0.7 L29.7 1.1 M1.25 2.6 Q0.8 2.6 0.7 2.2 L0.7 1.7 Q0.7 1.15 1.45 0.65 2.2 0.2 2.2 0.95 L1.25 2.6 M1.85 29.35 L1.55 29.85 1.0 30.25 Q0.6 30.25 0.6 29.8 0.6 29.5 0.9 29.25 1.3 28.9 1.8 29.1 L1.85 29.35 M29.95 29.35 L29.8 29.95 29.4 30.25 Q28.95 30.25 28.95 29.8 28.95 29.4 29.45 29.0 29.95 28.55 29.95 29.35" fill="#ff6666" fill-rule="evenodd" stroke="none"/>
      <path d="M32.7 3.95 L32.7 4.35 31.45 4.6 Q30.2 4.6 30.2 4.2 30.2 3.9 30.7 3.65 L31.35 2.95 Q31.15 2.6 31.45 2.15 31.8 1.75 32.3 1.95 L32.7 3.95 M3.9 2.1 Q4.2 1.65 4.2 2.5 4.2 4.6 2.45 4.6 L2.05 4.55 Q1.95 4.05 2.1 3.9 L1.7 3.5 Q1.7 3.05 3.35 3.05 L3.9 2.1 M3.6 30.35 Q3.7 30.0 4.3 30.1 L4.35 32.05 Q4.25 32.6 3.75 32.6 L1.6 32.45 Q1.45 32.4 1.45 32.15 2.65 30.7 3.6 30.85 L3.6 30.35 M32.25 32.5 L31.25 32.5 30.25 32.5 29.85 32.05 30.05 31.8 31.3 31.25 31.2 30.65 Q31.2 30.25 31.55 29.8 31.95 29.25 32.25 29.95 L32.45 31.75 32.25 32.5" fill="#660000" fill-rule="evenodd" stroke="none"/>
    </g>
    <g id="sprite0" transform="matrix(1.0, 0.0, 0.0, 1.0, -5.9, -1.1)">
      <use height="24.3" transform="matrix(1.0, 0.0, 0.0, 1.0, 5.9, 1.1)" width="17.95" xlink:href="#shape5"/>
    </g>
    <g id="shape5" transform="matrix(1.0, 0.0, 0.0, 1.0, -5.9, -1.1)">
      <path d="M20.9 2.75 L20.95 3.05 21.0 3.55 19.95 4.3 Q19.2 5.15 19.0 6.05 L18.2 5.75 17.65 5.55 Q18.2 5.45 18.9 4.65 L19.55 3.85 20.85 2.75 20.9 2.75 M22.0 2.95 L22.65 2.7 22.75 2.75 22.85 2.8 23.15 3.4 23.1 3.45 22.85 3.65 22.35 3.2 22.0 2.95 M21.15 5.25 L20.9 5.3 20.3 5.9 20.3 5.75 20.9 4.95 21.15 5.25 M20.7 4.25 L20.75 4.25 20.55 4.65 19.9 5.5 19.9 5.8 19.9 6.3 19.9 6.4 19.05 6.05 19.15 6.0 19.7 5.55 20.7 4.25 M22.4 3.95 L22.5 4.05 22.55 4.45 22.05 4.05 21.35 3.55 21.35 3.1 21.3 2.9 22.4 3.95 M15.6 15.25 L15.5 15.45 15.45 15.9 13.25 17.25 12.6 17.8 12.85 17.35 Q13.25 16.55 13.25 15.65 L13.15 13.45 13.8 14.15 Q14.5 14.3 14.9 14.7 L15.6 15.25 M15.9 15.45 L15.95 15.4 16.2 15.55 16.3 15.85 17.05 19.35 Q17.25 20.9 18.15 21.4 L16.95 23.5 Q16.5 23.8 16.05 24.2 L15.55 24.75 14.55 24.6 13.95 24.65 13.55 24.2 12.6 23.8 12.4 23.75 11.95 23.05 Q11.7 22.35 11.25 21.95 10.75 21.4 10.65 20.65 L10.65 20.55 11.55 19.4 12.75 18.5 Q13.8 17.3 15.2 16.8 15.25 16.45 15.55 16.35 L15.8 16.05 15.85 15.95 Q15.75 15.65 15.9 15.45 M6.4 20.95 L7.65 18.45 Q9.1 15.9 11.45 14.4 L12.7 13.1 12.8 13.6 Q13.15 14.75 12.85 15.8 12.15 18.15 10.75 19.95 L10.55 20.05 10.35 20.1 10.35 20.15 Q8.4 20.35 6.65 21.35 L6.6 21.25 6.5 21.15 6.4 20.95 M14.6 8.95 L14.55 9.0 14.15 8.95 14.2 8.85 14.3 8.6 14.55 8.85 14.6 8.95 M13.45 4.5 L13.5 5.65 13.6 6.35 Q13.1 7.2 12.85 8.1 L12.9 6.65 Q12.95 5.55 13.45 4.5 M17.05 2.45 L17.0 2.6 16.7 2.95 16.65 2.95 16.55 3.45 16.2 4.85 16.2 5.25 15.15 5.2 16.0 3.65 Q16.55 2.85 17.05 2.45 M21.85 6.9 Q21.95 10.4 20.9 14.25 20.05 17.5 18.55 20.6 L18.35 20.95 18.0 20.35 17.2 17.7 16.55 15.2 15.85 14.8 16.4 13.0 16.7 11.6 17.2 10.45 Q18.05 9.85 18.95 9.75 20.55 9.4 20.05 8.65 L19.9 8.7 Q18.25 8.9 17.2 9.95 16.25 10.85 15.9 12.45 15.6 13.75 15.7 14.8 L14.55 14.05 13.05 12.75 12.9 11.75 12.9 10.0 Q13.0 8.5 13.7 7.1 L14.05 8.25 14.05 8.3 13.8 8.85 Q13.6 9.2 13.9 9.45 L14.4 9.55 14.75 9.15 14.75 9.1 15.3 9.45 15.2 9.7 Q15.2 10.2 15.6 10.0 L15.7 9.6 16.85 9.6 15.2 8.45 13.8 6.9 14.05 6.55 14.15 6.5 14.1 6.35 14.45 5.85 16.35 5.8 16.4 5.9 16.45 5.85 17.85 6.3 19.7 6.6 19.75 6.7 20.2 7.1 Q21.1 7.5 21.85 6.9 M21.4 6.3 L21.3 6.65 20.25 6.45 20.8 6.2 Q21.2 5.95 21.65 5.85 L21.4 6.3 M22.65 5.05 L22.05 4.95 Q21.6 4.6 21.15 4.7 L21.35 4.25 21.6 4.5 Q22.1 4.95 22.65 5.05" fill="#32363d" fill-rule="evenodd" stroke="none"/>
      <path d="M22.0 2.95 L22.35 3.2 22.85 3.65 23.1 3.45 23.15 3.4 22.85 2.8 22.75 2.75 22.65 2.7 22.0 2.95 M20.9 2.75 L20.85 2.75 19.55 3.85 18.9 4.65 Q18.2 5.45 17.65 5.55 L18.2 5.75 19.0 6.05 Q19.2 5.15 19.95 4.3 L21.0 3.55 20.95 3.05 20.9 2.75 M21.25 2.45 L21.35 2.3 22.8 2.45 Q23.55 2.65 23.85 3.3 L23.75 3.35 23.45 3.6 23.4 3.65 23.4 4.45 23.5 4.6 23.35 4.6 23.25 4.75 Q23.55 4.85 23.3 5.1 23.05 5.35 23.05 5.7 L23.0 5.8 22.1 5.75 22.05 5.8 21.65 6.4 21.65 6.65 21.7 6.75 21.85 6.75 21.85 6.55 21.9 6.75 21.95 6.8 Q22.55 9.05 22.0 11.85 21.05 16.8 18.85 21.15 L18.9 21.15 18.65 21.6 18.6 21.6 18.2 22.3 15.95 25.05 16.0 25.1 15.7 25.4 15.55 25.35 15.0 25.25 13.45 24.65 12.15 24.2 11.9 23.8 Q11.55 22.9 10.95 22.35 L10.3 21.1 10.25 20.45 Q8.3 21.25 6.35 21.5 L5.95 21.25 5.9 21.0 Q6.9 18.95 8.25 17.2 9.8 15.2 11.65 13.6 L12.6 12.8 Q12.2 10.75 12.65 8.8 L12.7 8.75 Q12.25 7.95 12.45 6.5 L13.05 4.25 13.5 3.65 13.8 3.2 Q14.15 3.85 14.0 4.85 L13.95 5.75 14.3 5.3 14.9 5.2 Q14.9 4.25 15.75 3.25 16.7 2.05 17.9 1.1 18.55 1.3 17.9 2.15 L17.05 3.2 16.8 4.15 16.6 5.3 17.2 5.45 18.7 3.9 Q19.65 3.05 20.7 2.3 L21.25 2.45 M22.4 3.95 L21.3 2.9 21.35 3.1 21.35 3.55 22.05 4.05 22.55 4.45 22.5 4.05 22.4 3.95 M20.7 4.25 L19.7 5.55 19.15 6.0 19.05 6.05 19.9 6.4 19.9 6.3 19.9 5.8 19.9 5.5 20.55 4.65 20.75 4.25 20.7 4.25 M21.15 5.25 L20.9 4.95 20.3 5.75 20.3 5.9 20.9 5.3 21.15 5.25 M22.65 5.5 L22.75 5.3 22.6 5.35 22.55 5.4 22.65 5.5 M22.65 5.05 Q22.1 4.95 21.6 4.5 L21.35 4.25 21.15 4.7 Q21.6 4.6 22.05 4.95 L22.65 5.05 M21.4 6.3 L21.65 5.85 Q21.2 5.95 20.8 6.2 L20.25 6.45 21.3 6.65 21.4 6.3 M21.85 6.9 Q21.1 7.5 20.2 7.1 L19.75 6.7 19.7 6.6 17.85 6.3 16.45 5.85 16.4 5.9 16.35 5.8 14.45 5.85 14.1 6.35 14.15 6.5 14.05 6.55 13.8 6.9 15.2 8.45 16.85 9.6 15.7 9.6 15.6 10.0 Q15.2 10.2 15.2 9.7 L15.3 9.45 14.75 9.1 14.75 9.15 14.4 9.55 13.9 9.45 Q13.6 9.2 13.8 8.85 L14.05 8.3 14.05 8.25 13.7 7.1 Q13.0 8.5 12.9 10.0 L12.9 11.75 13.05 12.75 14.55 14.05 15.7 14.8 Q15.6 13.75 15.9 12.45 16.25 10.85 17.2 9.95 18.25 8.9 19.9 8.7 L20.05 8.65 Q20.55 9.4 18.95 9.75 18.05 9.85 17.2 10.45 L16.7 11.6 16.4 13.0 15.85 14.8 16.55 15.2 17.2 17.7 18.0 20.35 18.35 20.95 18.55 20.6 Q20.05 17.5 20.9 14.25 21.95 10.4 21.85 6.9 M17.05 2.45 Q16.55 2.85 16.0 3.65 L15.15 5.2 16.2 5.25 16.2 4.85 16.55 3.45 16.65 2.95 16.7 2.95 17.0 2.6 17.05 2.45 M13.45 4.5 Q12.95 5.55 12.9 6.65 L12.85 8.1 Q13.1 7.2 13.6 6.35 L13.5 5.65 13.45 4.5 M14.6 8.95 L14.55 8.85 14.3 8.6 14.2 8.85 14.15 8.95 14.55 9.0 14.6 8.95 M6.4 20.95 L6.5 21.15 6.6 21.25 6.65 21.35 Q8.4 20.35 10.35 20.15 L10.35 20.1 10.55 20.05 10.75 19.95 Q12.15 18.15 12.85 15.8 13.15 14.75 12.8 13.6 L12.7 13.1 11.45 14.4 Q9.1 15.9 7.65 18.45 L6.4 20.95 M15.9 15.45 Q15.75 15.65 15.85 15.95 L15.8 16.05 15.55 16.35 Q15.25 16.45 15.2 16.8 13.8 17.3 12.75 18.5 L11.55 19.4 10.65 20.55 10.65 20.65 Q10.75 21.4 11.25 21.95 11.7 22.35 11.95 23.05 L12.4 23.75 12.6 23.8 13.55 24.2 13.95 24.65 14.55 24.6 15.55 24.75 16.05 24.2 Q16.5 23.8 16.95 23.5 L18.15 21.4 Q17.25 20.9 17.05 19.35 L16.3 15.85 16.2 15.55 15.95 15.4 15.9 15.45 M15.6 15.25 L14.9 14.7 Q14.5 14.3 13.8 14.15 L13.15 13.45 13.25 15.65 Q13.25 16.55 12.85 17.35 L12.6 17.8 13.25 17.25 15.45 15.9 15.5 15.45 15.6 15.25" fill="#000000" fill-rule="evenodd" stroke="none"/>
      <path d="M14.9 6.5 Q14.9 5.55 16.5 6.0 L18.45 6.75 18.45 7.05 18.05 7.2 17.0 6.9 16.75 7.15 Q16.45 7.55 16.65 8.0 L16.35 8.4 15.9 8.0 15.65 8.1 Q14.9 6.9 14.9 6.55 L14.9 6.5 M16.2 6.95 L16.25 6.9 16.45 6.75 16.1 6.65 16.2 6.95 M17.5 11.75 L17.45 11.5 17.65 11.05 17.9 10.65 17.85 10.4 Q17.85 9.9 19.7 9.8 L19.7 9.75 20.0 10.05 18.3 10.7 18.3 10.9 Q18.3 11.45 17.7 11.85 L17.5 11.75 M7.6 19.05 L7.5 18.75 Q7.5 18.35 9.5 16.6 L11.9 14.8 12.0 14.6 12.1 14.65 12.35 15.1 12.3 15.5 12.35 15.65 12.2 15.8 12.0 16.2 11.7 16.25 11.45 16.25 11.4 16.15 10.9 16.2 10.6 16.45 7.8 19.05 7.6 19.05" fill="#aeaeae" fill-rule="evenodd" stroke="none"/>
    </g>
    <g id="sprite1" transform="matrix(1.0, 0.0, 0.0, 1.0, 0.5, 0.55)">
      <use height="16.2" transform="matrix(1.0, 0.0, 0.0, 1.0, -0.5, -0.55)" width="20.0" xlink:href="#shape6"/>
    </g>
    <g id="shape6" transform="matrix(1.0, 0.0, 0.0, 1.0, 0.5, 0.55)">
      <path d="M12.45 9.1 Q12.85 8.85 13.2 8.7 L16.55 7.9 15.95 7.75 Q15.1 7.65 15.0 7.05 L17.0 7.75 17.65 7.6 18.4 6.15 Q18.75 4.9 18.65 3.5 L18.3 3.6 17.55 3.65 17.05 3.35 17.75 2.35 17.05 1.7 16.75 1.9 16.2 2.1 15.9 2.05 16.1 1.05 16.15 0.9 16.25 0.9 Q16.6 0.9 16.25 0.6 L16.25 0.55 Q13.1 0.2 10.4 1.2 10.2 2.15 10.75 3.1 11.55 4.45 12.95 5.35 10.8 4.25 10.25 2.4 L9.5 2.9 Q8.4 3.4 8.2 4.35 L7.55 4.95 8.9 6.4 Q10.3 8.05 12.35 9.05 L12.45 9.1 M16.9 1.5 L16.75 1.4 Q16.45 1.4 16.5 1.6 L16.9 1.5 M19.1 2.85 Q19.55 4.1 19.5 5.55 19.35 6.7 18.55 7.65 L18.5 7.95 17.15 8.5 15.55 8.8 Q14.0 9.0 12.75 9.8 L12.1 9.7 Q11.6 12.05 9.15 12.95 L8.6 15.0 4.6 14.75 4.15 15.5 3.75 15.65 Q1.8 15.6 0.1 14.0 L-0.4 13.2 Q-0.9 11.1 1.2 10.05 L2.05 9.95 3.15 7.85 3.55 7.7 5.45 5.65 5.95 5.5 6.3 5.3 6.95 4.9 6.95 4.2 7.95 2.55 Q8.8 1.05 10.7 0.4 L11.9 0.0 16.2 -0.2 Q18.3 0.85 19.1 2.85 M12.2 7.8 Q12.9 7.75 12.35 7.9 L12.2 7.8 M17.9 2.7 L17.55 3.15 18.6 3.4 17.9 2.7 M10.45 11.55 L10.65 10.9 11.2 10.65 11.5 9.75 11.65 9.4 11.65 9.35 11.45 9.3 10.05 8.4 Q8.15 7.05 7.05 5.25 L6.05 6.4 Q4.1 8.3 2.5 10.35 L3.8 12.45 4.6 11.35 6.25 9.75 Q6.4 10.55 5.95 11.1 L4.5 12.7 8.7 12.5 9.05 12.2 9.65 11.9 10.1 11.75 10.45 11.55 M15.85 6.5 L15.95 6.6 Q15.2 6.8 15.85 6.5 M2.35 10.8 L2.3 10.75 2.25 10.8 2.15 10.7 0.8 11.55 Q-0.15 12.2 0.15 13.2 L0.55 13.4 1.5 14.15 Q2.35 14.85 3.05 15.0 L3.95 14.95 3.75 13.85 2.35 10.8 M8.1 14.1 L8.45 13.3 4.1 13.05 4.25 13.3 4.6 14.7 6.2 14.45 8.1 14.1" fill="#000000" fill-rule="evenodd" stroke="none"/>
      <path d="M16.9 1.5 L16.5 1.6 Q16.45 1.4 16.75 1.4 L16.9 1.5 M12.35 9.05 Q10.3 8.05 8.9 6.4 L7.55 4.95 8.2 4.35 Q8.4 3.4 9.5 2.9 L10.25 2.4 Q10.8 4.25 12.95 5.35 11.55 4.45 10.75 3.1 10.2 2.15 10.4 1.2 13.1 0.2 16.25 0.55 L16.25 0.6 Q16.6 0.9 16.25 0.9 L16.15 0.9 16.1 1.05 15.9 2.05 16.2 2.1 16.75 1.9 17.05 1.7 17.75 2.35 17.05 3.35 17.55 3.65 18.3 3.6 18.65 3.5 Q18.75 4.9 18.4 6.15 L17.65 7.6 17.0 7.75 15.0 7.05 Q15.1 7.65 15.95 7.75 L16.55 7.9 13.2 8.7 Q12.85 8.85 12.45 9.1 L12.4 9.05 12.35 9.05 M17.9 2.7 L18.6 3.4 17.55 3.15 17.9 2.7 M12.2 7.8 L12.35 7.9 Q12.9 7.75 12.2 7.8 M15.85 6.5 Q15.2 6.8 15.95 6.6 L15.85 6.5 M2.35 10.8 L3.75 13.85 3.95 14.95 3.05 15.0 Q2.35 14.85 1.5 14.15 L0.55 13.4 0.15 13.2 Q-0.15 12.2 0.8 11.55 L2.15 10.7 2.25 10.8 2.35 10.8 M8.1 14.1 L6.2 14.45 4.6 14.7 4.25 13.3 4.1 13.05 8.45 13.3 8.1 14.1" fill="#32363d" fill-rule="evenodd" stroke="none"/>
      <path d="M10.45 11.55 L10.1 11.75 9.65 11.9 9.05 12.2 8.7 12.5 4.5 12.7 5.95 11.1 Q6.4 10.55 6.25 9.75 L4.6 11.35 3.8 12.45 2.5 10.35 Q4.1 8.3 6.05 6.4 L7.05 5.25 Q8.15 7.05 10.05 8.4 L11.45 9.3 11.65 9.35 11.65 9.4 11.5 9.75 11.2 10.65 10.65 10.9 10.45 11.55" fill="#535964" fill-rule="evenodd" stroke="none"/>
      <path d="M15.45 4.55 L14.8 5.0 Q14.05 5.0 13.7 4.45 L13.5 3.85 Q13.5 2.8 14.65 2.85 15.8 2.9 15.8 3.8 L15.45 4.55" fill="#ff0000" fill-rule="evenodd" stroke="none"/>
      <path d="M13.8 1.65 L12.95 1.75 Q12.8 2.25 13.15 3.1 L13.1 3.3 12.7 3.45 Q12.0 3.45 11.6 2.45 L11.3 1.4 Q11.3 0.75 13.4 0.8 15.45 0.85 15.45 1.3 15.45 1.9 14.85 1.85 L13.8 1.65 M9.0 3.95 L9.25 3.65 10.1 3.1 10.4 3.55 9.35 4.3 Q9.0 4.45 9.0 3.95 M1.35 11.15 Q2.3 10.7 2.75 11.8 L3.2 13.3 3.15 13.45 2.8 13.55 Q1.8 13.55 1.25 11.65 L1.35 11.15 M6.8 13.25 L5.85 13.8 Q5.5 14.0 5.5 13.5 L5.6 12.95 6.5 12.95 6.5 12.9 6.8 13.25" fill="#c8ccd0" fill-rule="evenodd" stroke="none"/>
    </g>
    <g id="sprite2" transform="matrix(1.0, 0.0, 0.0, 1.0, 0.0, 0.0)">
      <use height="15.15" transform="matrix(1.0, 0.0, 0.0, 1.0, 0.0, 0.0)" width="28.55" xlink:href="#shape7"/>
    </g>
    <g id="shape7" transform="matrix(1.0, 0.0, 0.0, 1.0, 0.0, 0.0)">
      <path d="M28.4 3.9 L27.05 4.8 26.35 5.2 26.0 6.2 22.65 6.95 23.0 11.4 23.0 12.7 22.3 12.6 20.1 9.35 19.45 8.25 Q18.25 8.95 16.65 8.9 L14.05 8.75 12.65 8.75 11.65 9.45 11.85 9.9 7.4 10.55 7.1 10.9 Q5.6 11.25 4.3 10.9 L3.2 10.45 Q3.05 12.5 2.35 14.5 L2.05 15.1 1.25 15.15 0.75 15.05 0.1 14.75 0.0 11.0 0.15 9.0 Q0.5 6.75 1.95 5.05 L3.6 3.25 21.9 2.6 22.85 0.0 23.5 1.6 23.75 2.75 25.1 3.15 25.35 3.35 28.45 3.45 28.4 3.9 M26.0 3.7 L25.55 3.75 24.8 4.45 27.95 3.7 26.0 3.7 M12.2 4.3 L13.45 3.45 3.85 3.8 2.85 4.65 2.4 6.4 Q1.25 7.0 0.85 8.25 L0.55 9.1 1.2 8.15 Q1.35 9.75 0.95 11.1 0.65 12.25 0.7 13.45 0.7 14.05 0.85 14.65 L1.7 14.7 2.45 13.95 2.85 10.0 4.2 10.2 4.45 10.15 4.7 10.25 4.7 10.4 5.7 9.8 6.7 8.95 5.9 7.8 6.1 7.25 6.9 8.45 7.05 9.05 6.3 10.15 5.95 10.5 Q8.45 9.65 11.0 9.55 L10.85 7.4 11.45 7.95 Q12.15 7.5 12.95 7.2 16.3 5.8 20.05 5.8 L22.45 5.85 24.0 4.3 24.8 3.4 Q22.7 3.05 20.55 3.45 L13.7 3.45 13.6 4.4 Q11.55 5.15 9.45 5.35 L8.15 5.4 7.4 6.75 Q7.35 6.25 7.45 5.8 L7.85 4.9 Q9.35 5.25 10.9 4.9 L12.2 4.3 M13.0 7.6 L11.95 7.95 11.7 8.7 14.5 8.05 19.0 8.1 20.5 6.25 13.1 7.55 Q13.0 7.45 13.0 7.6 M22.6 2.4 L23.0 2.6 22.65 1.85 22.5 2.25 22.6 2.4 M24.05 5.15 L23.3 5.9 23.0 6.2 22.6 6.35 23.9 5.9 25.6 5.15 24.05 5.15 M20.75 7.0 L19.7 8.05 22.5 11.8 21.95 7.05 20.75 7.0 M22.1 6.35 L21.7 6.1 22.15 5.95 21.0 6.2 22.1 6.35 M4.7 10.4 L4.85 10.55 5.4 10.6 4.7 10.4" fill="#000000" fill-rule="evenodd" stroke="none"/>
      <path d="M4.7 10.4 L5.4 10.6 4.85 10.55 4.7 10.4 4.7 10.25 4.45 10.15 4.2 10.2 2.85 10.0 2.45 13.95 1.7 14.7 0.85 14.65 Q0.7 14.05 0.7 13.45 0.65 12.25 0.95 11.1 1.35 9.75 1.2 8.15 L0.55 9.1 0.85 8.25 Q1.25 7.0 2.4 6.4 L2.85 4.65 3.85 3.8 13.45 3.45 12.2 4.3 10.9 4.9 Q9.35 5.25 7.85 4.9 L7.45 5.8 Q7.35 6.25 7.4 6.75 L8.15 5.4 9.45 5.35 Q11.55 5.15 13.6 4.4 L13.7 3.45 20.55 3.45 Q22.7 3.05 24.8 3.4 L24.0 4.3 22.45 5.85 20.05 5.8 Q16.3 5.8 12.95 7.2 12.15 7.5 11.45 7.95 L10.85 7.4 11.0 9.55 Q8.45 9.65 5.95 10.5 L6.3 10.15 7.05 9.05 6.9 8.45 6.1 7.25 5.9 7.8 6.7 8.95 5.7 9.8 4.7 10.4 M22.1 6.35 L21.0 6.2 22.15 5.95 21.7 6.1 22.1 6.35 M20.75 7.0 L21.95 7.05 22.5 11.8 19.7 8.05 20.75 7.0 M24.05 5.15 L25.6 5.15 23.9 5.9 22.6 6.35 23.0 6.2 23.3 5.9 24.05 5.15 M22.6 2.4 L22.5 2.25 22.65 1.85 23.0 2.6 22.6 2.4 M13.0 7.6 Q13.0 7.45 13.1 7.55 L20.5 6.25 19.0 8.1 14.5 8.05 11.7 8.7 11.95 7.95 13.0 7.6 M26.0 3.7 L27.95 3.7 24.8 4.45 25.55 3.75 26.0 3.7" fill="#333333" fill-rule="evenodd" stroke="none"/>
    </g>
    <g id="sprite3" transform="matrix(1.0, 0.0, 0.0, 1.0, 0.0, 0.0)">
      <use height="5.0" transform="matrix(1.0, 0.0, 0.0, 1.0, 0.0, 0.0)" width="6.7" xlink:href="#shape8"/>
    </g>
    <g id="shape8" transform="matrix(1.0, 0.0, 0.0, 1.0, 0.0, 0.0)">
      <path d="M3.8 2.2 Q3.7 2.8 3.3 2.55 L2.95 1.05 Q2.65 2.35 2.65 3.75 L2.55 4.3 4.0 3.85 4.4 3.85 Q4.65 2.2 4.25 0.55 L3.65 0.85 Q3.9 1.5 3.8 2.2 M3.4 0.25 L3.8 0.0 4.6 0.05 4.95 1.3 5.3 0.85 5.75 0.35 6.3 0.25 Q7.6 3.55 4.75 5.0 L4.3 4.85 4.7 4.55 2.9 4.85 2.45 4.55 2.0 4.85 1.3 4.85 1.2 4.25 Q-0.45 2.85 0.2 0.95 L0.5 0.8 0.85 0.8 1.2 0.95 Q1.35 1.75 1.8 2.25 L2.1 2.6 2.25 0.4 3.4 0.25 M1.9 4.2 Q1.8 2.55 0.55 1.45 0.45 2.95 1.5 3.8 L1.9 4.2 M6.2 0.8 L5.3 2.5 4.85 4.45 5.75 2.65 6.2 0.8" fill="#000000" fill-rule="evenodd" stroke="none"/>
      <path d="M3.8 2.2 Q3.9 1.5 3.65 0.85 L4.25 0.55 Q4.65 2.2 4.4 3.85 L4.0 3.85 2.55 4.3 2.65 3.75 Q2.65 2.35 2.95 1.05 L3.3 2.55 Q3.7 2.8 3.8 2.2 M6.2 0.8 L5.75 2.65 4.85 4.45 5.3 2.5 6.2 0.8 M1.9 4.2 L1.5 3.8 Q0.45 2.95 0.55 1.45 1.8 2.55 1.9 4.2" fill="#32363d" fill-rule="evenodd" stroke="none"/>
    </g>
    <g id="sprite4" transform="matrix(1.0, 0.0, 0.0, 1.0, 2.85, 1.65)">
      <use height="14.3" transform="matrix(1.0, 0.0, 0.0, 1.0, -2.85, -1.65)" width="13.4" xlink:href="#shape9"/>
    </g>
    <g id="shape9" transform="matrix(1.0, 0.0, 0.0, 1.0, 2.85, 1.65)">
      <path d="M2.55 3.15 Q1.25 2.0 0.75 0.25 L0.4 -1.0 2.8 -0.3 5.05 4.7 3.85 4.1 2.55 3.15 M0.9 6.55 L0.55 6.2 0.6 1.5 0.9 6.55 M9.05 11.9 L7.8 11.85 7.8 10.0 9.15 9.55 9.05 11.9 M9.1 2.85 L6.75 5.3 6.15 4.65 7.85 3.85 8.65 1.75 9.1 2.85 M5.5 7.6 L3.95 7.7 5.3 6.85 5.5 7.6 M-0.2 3.75 L0.65 6.7 -2.1 6.45 -0.2 3.75" fill="#32363d" fill-rule="evenodd" stroke="none"/>
      <path d="M3.85 4.1 L5.05 4.7 2.8 -0.3 0.4 -1.0 0.75 0.25 Q1.25 2.0 2.55 3.15 L1.3 2.55 1.4 3.65 Q1.55 5.25 0.9 6.55 L2.5 7.7 3.25 7.45 5.35 6.45 3.85 4.1 M0.9 6.55 L0.6 1.5 0.55 6.2 0.9 6.55 M9.05 11.9 L8.8 12.65 7.65 12.25 Q3.3 11.0 1.05 7.3 L-2.85 6.95 -2.0 6.0 Q0.8 2.65 0.15 -1.65 L1.15 -1.55 Q2.85 -1.25 4.15 -0.1 L5.35 -0.2 5.5 -1.6 6.75 0.2 7.65 0.55 8.95 0.65 10.55 6.25 9.65 7.7 9.25 8.0 9.4 9.0 Q9.6 10.45 9.05 11.9 L9.15 9.55 7.8 10.0 7.8 11.85 9.05 11.9 M9.1 2.85 L8.65 1.75 7.85 3.85 6.15 4.65 6.75 5.3 9.1 2.85 M9.3 3.75 L7.15 5.65 9.45 6.4 9.3 3.75 M8.05 2.4 L8.25 1.4 5.6 0.55 3.05 -0.25 4.2 1.9 4.05 1.5 4.55 1.9 4.8 1.75 5.6 0.55 5.4 1.35 5.45 2.7 5.95 4.4 8.05 2.4 M5.5 7.6 L5.3 6.85 3.95 7.7 5.5 7.6 M5.5 10.8 L5.5 7.9 2.5 8.05 5.5 10.8 M7.3 11.55 L7.3 10.0 6.65 9.65 6.35 8.9 6.0 11.05 7.3 11.55 M-0.2 3.75 L-2.1 6.45 0.65 6.7 -0.2 3.75" fill="#000000" fill-rule="evenodd" stroke="none"/>
      <path d="M3.85 4.1 L5.35 6.45 3.25 7.45 2.5 7.7 0.9 6.55 Q1.55 5.25 1.4 3.65 L1.3 2.55 2.55 3.15 3.85 4.1 M8.05 2.4 L5.95 4.4 5.45 2.7 5.4 1.35 5.6 0.55 4.8 1.75 4.55 1.9 4.05 1.5 4.2 1.9 3.05 -0.25 5.6 0.55 8.25 1.4 8.05 2.4 M9.3 3.75 L9.45 6.4 7.15 5.65 9.3 3.75 M7.3 11.55 L6.0 11.05 6.35 8.9 6.65 9.65 7.3 10.0 7.3 11.55 M5.5 10.8 L2.5 8.05 5.5 7.9 5.5 10.8" fill="#535964" fill-rule="evenodd" stroke="none"/>
      <path d="M8.0 1.65 Q7.8 1.85 7.5 1.85 L5.7 1.05 5.7 0.75 7.95 1.35 8.0 1.65 M9.45 5.25 L9.2 5.4 8.65 4.75 8.4 4.25 Q8.4 4.0 8.55 3.95 L8.7 3.9 9.45 5.25 M8.9 10.4 L8.45 10.55 8.25 10.55 8.15 10.25 8.25 9.9 Q8.5 9.7 9.0 10.2 L8.9 10.4" fill="#c8ccd0" fill-rule="evenodd" stroke="none"/>
      <path d="M6.7 5.75 L7.95 6.45 8.0 6.7 9.2 7.35 9.35 7.4 9.45 7.8 Q9.0 7.9 8.7 8.1 L8.45 8.35 8.45 8.4 Q8.45 8.75 7.7 9.05 7.35 9.05 7.05 8.35 L6.55 7.5 6.3 6.35 6.35 6.35 Q5.75 5.95 5.6 5.4 6.1 5.35 6.7 5.75" fill="#ff0000" fill-rule="evenodd" stroke="none"/>
    </g>
    <g id="sprite5" transform="matrix(1.0, 0.0, 0.0, 1.0, 2.4, 0.0)">
      <use height="26.85" transform="matrix(1.0, 0.0, 0.0, 1.0, -2.4, 0.0)" width="16.6" xlink:href="#shape10"/>
    </g>
    <g id="shape10" transform="matrix(1.0, 0.0, 0.0, 1.0, 2.4, 0.0)">
      <path d="M13.25 7.7 L13.8 6.7 13.1 5.1 12.3 3.7 11.9 4.05 11.6 4.4 11.35 4.6 11.05 4.7 11.2 3.85 11.9 3.45 12.1 2.75 11.65 2.35 Q9.45 0.85 6.65 1.15 L7.85 3.55 11.0 4.85 Q12.85 5.6 13.2 7.7 L13.2 7.75 13.25 7.7 M10.75 5.35 L10.8 6.15 10.55 7.7 9.3 10.85 12.0 12.2 13.05 10.3 Q13.65 9.2 13.25 9.0 L13.0 8.9 Q12.5 8.6 12.35 7.9 L11.8 6.55 10.75 5.35 M12.75 1.95 L13.7 4.7 14.2 7.5 13.95 8.9 13.65 10.35 12.75 12.1 12.1 12.9 11.2 15.2 10.35 17.2 10.75 18.75 10.65 19.75 10.65 19.8 Q12.2 20.75 12.55 22.7 13.0 25.15 10.7 25.1 L9.5 23.1 Q8.8 22.1 8.65 20.9 L7.45 23.75 5.7 26.8 5.65 26.85 Q1.2 26.95 -2.3 24.35 -2.7 22.65 -1.75 21.15 L0.1 18.15 0.2 18.05 0.0 17.4 0.9 15.25 1.6 15.2 Q1.7 14.55 1.45 14.0 1.1 13.15 1.05 12.3 0.95 10.75 1.2 9.25 1.4 7.75 1.95 6.35 L2.85 4.6 2.65 3.7 2.85 3.5 2.95 3.65 3.6 2.6 5.0 1.15 6.45 0.0 9.6 0.9 12.75 1.95 M7.55 3.9 L7.45 3.9 Q7.25 4.8 6.25 5.15 4.75 6.25 3.85 8.1 L3.85 9.3 Q5.0 9.6 5.3 10.6 L8.2 11.2 8.65 10.4 10.05 6.7 10.35 5.2 Q9.35 4.6 8.3 4.25 L7.55 3.9 M7.2 3.5 L6.15 1.25 4.3 2.95 3.35 4.1 3.5 4.4 3.75 4.8 Q5.45 3.7 7.2 3.5 M9.85 11.75 L9.0 11.8 11.6 12.8 11.85 12.45 11.35 12.55 10.75 12.3 9.95 12.1 9.9 12.0 9.85 11.9 9.85 11.75 M3.05 9.8 L2.85 9.75 1.55 10.8 Q1.55 12.4 1.95 13.85 L2.1 15.1 2.95 15.55 3.15 14.7 Q3.3 14.55 3.6 14.55 L3.5 15.75 6.4 16.45 7.95 16.9 7.85 15.9 7.75 13.5 Q7.65 12.3 8.15 11.3 5.8 11.8 3.8 10.45 L3.65 9.9 3.6 10.0 3.05 9.8 M3.9 5.05 L4.0 5.6 3.65 5.45 3.25 5.35 Q2.1 7.4 1.6 9.7 L3.05 9.05 Q3.65 6.2 5.95 4.45 4.95 5.05 3.9 5.05 M8.75 17.5 L8.9 18.25 8.85 19.8 8.75 20.3 10.05 19.8 9.9 17.45 8.75 17.5 M8.2 18.2 L8.05 17.35 5.85 17.1 6.0 18.6 5.7 19.4 5.35 20.05 8.0 20.25 Q8.35 19.3 8.2 18.2 M5.25 18.4 L5.55 17.05 3.65 16.5 3.45 17.75 2.9 19.4 5.15 20.0 5.25 18.4 M8.35 16.4 L9.1 17.0 10.0 16.55 8.35 16.4 M1.55 15.65 L1.4 16.3 1.05 17.75 1.0 18.4 2.4 19.2 2.45 18.75 3.1 16.25 1.55 15.65 M8.4 12.8 L8.45 15.9 10.2 16.05 11.0 13.8 11.05 13.45 11.45 13.0 Q9.85 13.4 8.6 12.25 L8.4 12.8 M0.7 19.0 Q-0.4 19.85 -1.05 21.2 L-1.6 22.5 -1.5 22.85 Q1.2 25.05 5.05 24.8 L5.15 24.75 5.85 22.5 Q6.1 21.5 6.65 20.65 L6.0 20.65 Q3.25 20.6 0.95 19.05 L0.75 18.9 0.7 19.0 M8.7 20.65 L8.65 20.85 Q9.45 21.2 10.0 22.25 L11.05 24.6 11.65 24.45 11.95 24.25 Q11.5 24.2 11.3 23.9 10.9 23.45 11.15 23.15 11.1 22.75 10.75 22.5 L10.75 22.4 10.75 22.1 10.75 22.0 10.2 21.5 10.05 21.1 10.05 21.0 9.6 20.65 Q9.4 20.6 9.6 20.5 L9.6 20.45 8.7 20.6 8.25 20.65 7.85 20.6 7.05 20.65 Q7.05 21.5 6.55 22.65 L6.05 24.0 5.45 25.25 Q1.45 25.85 -1.6 23.5 L-1.9 23.35 -2.0 23.65 Q0.5 26.0 4.0 26.25 L5.3 26.35 Q6.35 24.95 6.85 23.3 7.4 21.5 8.7 20.6 L8.7 20.65 M10.7 21.3 L10.75 21.4 10.9 21.45 11.2 21.65 Q11.2 22.25 11.6 22.7 L11.9 23.2 12.05 23.4 12.1 23.5 Q12.1 22.65 11.6 21.95 10.75 20.65 10.65 19.85 L10.2 20.5 10.2 20.4 10.05 20.45 10.3 20.65 10.7 21.3" fill="#000000" fill-rule="evenodd" stroke="none"/>
      <path d="M13.2 7.7 Q12.85 5.6 11.0 4.85 L7.85 3.55 6.65 1.15 Q9.45 0.85 11.65 2.35 L12.1 2.75 11.9 3.45 11.2 3.85 11.05 4.7 11.35 4.6 11.6 4.4 11.9 4.05 12.3 3.7 13.1 5.1 13.8 6.7 13.25 7.7 13.2 7.7 M10.75 5.35 L11.8 6.55 12.35 7.9 Q12.5 8.6 13.0 8.9 L13.25 9.0 Q13.65 9.2 13.05 10.3 L12.0 12.2 9.3 10.85 10.55 7.7 10.8 6.15 10.75 5.35 M7.2 3.5 Q5.45 3.7 3.75 4.8 L3.5 4.4 3.35 4.1 4.3 2.95 6.15 1.25 7.2 3.5 M5.25 18.4 L5.15 20.0 2.9 19.4 3.45 17.75 3.65 16.5 5.55 17.05 5.25 18.4 M8.2 18.2 Q8.35 19.3 8.0 20.25 L5.35 20.05 5.7 19.4 6.0 18.6 5.85 17.1 8.05 17.35 8.2 18.2 M8.75 17.5 L9.9 17.45 10.05 19.8 8.75 20.3 8.85 19.8 8.9 18.25 8.75 17.5 M8.4 12.8 L8.6 12.25 Q9.85 13.4 11.45 13.0 L11.05 13.45 11.0 13.8 10.2 16.05 8.45 15.9 8.4 12.8 M1.55 15.65 L3.1 16.25 2.45 18.75 2.4 19.2 1.0 18.4 1.05 17.75 1.4 16.3 1.55 15.65" fill="#32363d" fill-rule="evenodd" stroke="none"/>
      <path d="M7.55 3.9 L8.3 4.25 Q9.35 4.6 10.35 5.2 L10.05 6.7 8.65 10.4 8.2 11.2 5.3 10.6 Q5.0 9.6 3.85 9.3 L3.85 8.1 Q4.75 6.25 6.25 5.15 7.25 4.8 7.45 3.9 L7.55 3.9 M3.9 5.05 Q4.95 5.05 5.95 4.45 3.65 6.2 3.05 9.05 L1.6 9.7 Q2.1 7.4 3.25 5.35 L3.65 5.45 4.0 5.6 3.9 5.05 M3.05 9.8 L3.6 10.0 3.65 9.9 3.8 10.45 Q5.8 11.8 8.15 11.3 7.65 12.3 7.75 13.5 L7.85 15.9 7.95 16.9 6.4 16.45 3.5 15.75 3.6 14.55 Q3.3 14.55 3.15 14.7 L2.95 15.55 2.1 15.1 1.95 13.85 Q1.55 12.4 1.55 10.8 L2.85 9.75 3.05 9.8 M9.85 11.75 L9.85 11.9 9.9 12.0 9.95 12.1 10.75 12.3 11.35 12.55 11.85 12.45 11.6 12.8 9.0 11.8 9.85 11.75 M8.35 16.4 L10.0 16.55 9.1 17.0 8.35 16.4 M10.7 21.3 L10.3 20.65 10.05 20.45 10.2 20.4 10.2 20.5 10.65 19.85 Q10.75 20.65 11.6 21.95 12.1 22.65 12.1 23.5 L12.05 23.4 11.9 23.2 11.6 22.7 Q11.2 22.25 11.2 21.65 L10.9 21.45 10.75 21.4 10.7 21.3 M8.7 20.65 L8.7 20.6 Q7.4 21.5 6.85 23.3 6.35 24.95 5.3 26.35 L4.0 26.25 Q0.5 26.0 -2.0 23.65 L-1.9 23.35 -1.6 23.5 Q1.45 25.85 5.45 25.25 L6.05 24.0 6.55 22.65 Q7.05 21.5 7.05 20.65 L7.85 20.6 8.25 20.65 8.7 20.6 9.6 20.45 9.6 20.5 Q9.4 20.6 9.6 20.65 L10.05 21.0 10.05 21.1 10.2 21.5 10.75 22.0 10.75 22.1 10.75 22.4 10.75 22.5 Q11.1 22.75 11.15 23.15 10.9 23.45 11.3 23.9 11.5 24.2 11.95 24.25 L11.65 24.45 11.05 24.6 10.0 22.25 Q9.45 21.2 8.65 20.85 L8.7 20.65 M0.7 19.0 L0.75 18.9 0.95 19.05 Q3.25 20.6 6.0 20.65 L6.65 20.65 Q6.1 21.5 5.85 22.5 L5.15 24.75 5.05 24.8 Q1.2 25.05 -1.5 22.85 L-1.6 22.5 -1.05 21.2 Q-0.4 19.85 0.7 19.0" fill="#535964" fill-rule="evenodd" stroke="none"/>
      <path d="M12.0 3.0 L11.6 3.05 10.1 2.45 Q8.6 1.8 7.5 1.8 L7.1 1.7 7.05 1.4 Q7.05 0.15 9.25 1.0 11.25 1.75 12.05 2.7 L12.0 3.0 M12.3 3.15 Q12.9 3.2 13.3 4.35 L13.8 6.05 13.55 6.45 13.1 6.1 13.1 6.0 12.7 4.5 12.3 3.25 12.3 3.15 M11.4 5.7 L12.2 7.25 12.6 8.55 13.4 9.2 12.6 9.75 Q12.3 9.75 11.95 9.0 11.6 8.9 11.3 8.6 10.85 8.15 10.85 7.75 L11.1 7.4 11.25 7.3 11.2 7.2 10.7 5.95 10.8 5.7 11.1 5.7 11.2 5.75 11.4 5.7 M6.5 1.5 Q6.5 1.85 5.55 2.1 L5.25 2.0 Q5.15 2.15 5.15 1.75 5.15 1.45 5.65 1.35 6.15 1.2 6.45 1.35 6.5 1.15 6.5 1.5 M8.75 12.45 L10.35 12.8 11.25 13.25 11.1 13.85 10.8 14.55 10.35 14.55 Q10.2 14.6 10.2 14.25 L10.3 13.95 10.55 13.85 Q9.5 13.55 8.75 12.8 L8.75 12.45 M5.9 17.45 Q5.9 16.75 7.85 17.1 L7.95 17.5 7.95 17.7 6.6 17.6 Q6.4 17.6 6.35 17.75 L6.2 17.9 Q5.9 17.85 5.9 17.45 M8.45 17.7 L8.45 17.3 9.0 17.3 9.6 17.4 9.75 17.6 8.9 17.9 8.6 17.8 8.45 17.7 M1.75 16.25 L1.35 15.85 Q1.35 15.3 2.15 15.6 2.9 15.95 2.9 16.25 2.9 17.25 2.4 18.35 L2.25 18.45 Q1.9 17.9 2.0 17.3 L2.15 16.7 Q2.15 16.4 1.75 16.25 M4.65 17.3 L4.35 17.2 Q4.35 17.05 3.75 16.95 L3.65 16.5 4.4 16.4 Q4.85 16.6 5.0 17.15 L4.65 17.3 M11.35 21.0 L11.55 22.2 11.55 22.35 Q11.6 22.5 11.25 22.5 10.9 22.5 10.6 21.5 L10.35 20.5 Q10.35 20.05 10.65 19.95 11.25 20.35 11.35 21.0" fill="#c8ccd0" fill-rule="evenodd" stroke="none"/>
    </g>
    <g id="sprite6" transform="matrix(1.0, 0.0, 0.0, 1.0, 0.0, 0.0)">
      <use height="6.8" transform="matrix(1.0, 0.0, 0.0, 1.0, 0.0, 0.0)" width="16.65" xlink:href="#shape11"/>
    </g>
    <g id="shape11" transform="matrix(1.0, 0.0, 0.0, 1.0, 0.0, 0.0)">
      <path d="M15.95 2.15 L16.1 1.7 15.95 1.45 14.9 1.35 15.05 1.8 15.2 2.4 15.2 2.45 15.25 2.45 15.25 2.55 15.25 2.6 15.6 2.5 15.95 2.15 M16.65 2.45 L16.35 2.9 15.15 3.45 14.8 4.4 14.15 5.1 12.8 6.0 10.05 6.55 9.35 6.3 6.85 6.8 5.1 6.7 4.65 6.65 2.9 6.1 Q0.75 5.2 0.0 3.1 L0.2 2.25 0.5 1.75 Q1.35 0.95 2.45 0.65 L5.05 0.45 Q5.65 0.4 6.2 0.75 L6.95 0.95 7.55 1.7 7.85 1.75 Q8.7 2.3 9.45 2.2 L10.1 1.75 Q10.7 0.45 11.95 0.0 L12.25 0.4 12.3 0.85 14.55 1.0 14.55 0.95 14.65 0.85 14.75 1.05 16.55 1.15 16.65 2.45 M13.75 2.85 L14.1 2.8 14.25 2.8 14.35 2.9 14.75 2.8 14.75 2.7 14.85 2.45 14.75 2.3 14.7 2.25 14.5 2.15 14.4 2.1 14.25 2.05 14.0 2.15 Q13.6 2.3 13.55 2.6 L13.65 2.85 13.75 2.85 M13.45 3.05 L13.5 3.0 13.45 2.95 13.45 3.05 M13.45 2.2 Q13.8 1.9 14.25 1.9 L14.6 1.95 14.6 1.9 14.5 1.3 13.05 1.2 13.4 2.1 13.45 2.2 M12.8 1.2 L11.9 1.95 11.5 2.15 Q11.45 1.85 11.65 1.65 L11.8 1.45 11.5 1.2 10.85 1.55 10.85 1.85 10.75 2.05 10.45 2.35 Q10.9 4.2 10.55 5.85 L10.85 5.85 12.75 5.3 12.6 4.95 12.65 4.7 Q13.1 4.55 13.05 4.95 L13.05 5.1 13.3 4.9 Q12.85 4.65 12.85 4.1 L12.95 3.8 13.15 3.7 13.1 3.5 13.2 3.25 13.25 3.2 12.95 2.05 12.8 1.2 M12.5 1.15 L12.3 1.1 12.25 1.15 12.4 1.15 12.5 1.15 M14.3 3.35 L13.5 3.45 13.35 3.65 13.4 3.6 Q13.65 3.6 13.75 3.8 L13.8 3.9 13.95 3.8 14.25 3.7 14.5 3.35 14.3 3.35 M13.2 4.4 L13.55 4.6 13.9 4.15 13.55 4.1 13.25 4.1 13.05 4.2 13.2 4.4 M9.85 2.55 L8.75 2.9 7.95 2.75 7.9 2.85 7.9 2.8 7.7 2.6 7.6 2.55 7.4 2.55 7.4 2.35 7.35 2.3 6.9 1.65 5.1 0.9 3.95 0.7 3.75 1.45 3.7 1.6 3.55 1.85 3.4 2.3 3.6 2.35 3.8 2.75 4.35 3.4 5.2 3.6 5.4 3.65 5.6 3.8 Q6.4 4.35 6.45 4.9 L6.4 4.95 6.4 5.15 5.75 5.95 5.75 6.0 8.15 5.85 8.25 5.85 Q9.4 6.1 9.35 5.05 L9.3 5.0 9.1 5.0 9.35 4.8 9.35 5.5 10.05 5.3 9.95 2.55 9.9 2.5 9.85 2.55 M6.8 3.0 L6.6 2.9 5.95 2.65 6.85 2.95 6.8 3.0 M5.85 4.2 L4.65 3.85 3.55 3.3 3.05 3.15 2.95 3.0 2.75 3.05 2.6 2.45 2.7 2.45 2.75 2.45 2.9 1.65 Q3.1 1.05 3.5 0.7 2.05 0.75 0.8 1.95 L0.85 2.15 1.0 2.15 0.9 2.6 0.75 2.8 0.45 3.05 0.45 3.1 Q1.55 4.7 3.35 5.4 L5.25 5.95 5.45 5.9 5.65 5.3 5.9 4.4 5.85 4.2" fill="#000000" fill-rule="evenodd" stroke="none"/>
      <path d="M15.95 2.15 L15.6 2.5 15.25 2.6 15.25 2.55 15.25 2.45 15.2 2.45 15.2 2.4 15.05 1.8 14.9 1.35 15.95 1.45 16.1 1.7 15.95 2.15 M13.45 3.05 L13.45 2.95 13.5 3.0 13.45 3.05 M12.5 1.15 L12.4 1.15 12.25 1.15 12.3 1.1 12.5 1.15 M12.8 1.2 L12.95 2.05 13.25 3.2 13.2 3.25 13.1 3.5 13.15 3.7 12.95 3.8 12.85 4.1 Q12.85 4.65 13.3 4.9 L13.05 5.1 13.05 4.95 Q13.1 4.55 12.65 4.7 L12.6 4.95 12.75 5.3 10.85 5.85 10.55 5.85 Q10.9 4.2 10.45 2.35 L10.75 2.05 10.85 1.85 10.85 1.55 11.5 1.2 11.8 1.45 11.65 1.65 Q11.45 1.85 11.5 2.15 L11.9 1.95 12.8 1.2" fill="#32363d" fill-rule="evenodd" stroke="none"/>
      <path d="M13.75 2.85 L13.65 2.85 13.55 2.6 Q13.6 2.3 14.0 2.15 L14.25 2.05 14.4 2.1 14.5 2.15 14.7 2.25 14.75 2.3 14.85 2.45 14.75 2.7 14.75 2.8 14.35 2.9 14.25 2.8 14.1 2.8 13.75 2.85 M13.45 2.2 L13.4 2.1 13.05 1.2 14.5 1.3 14.6 1.9 14.6 1.95 14.25 1.9 Q13.8 1.9 13.45 2.2 M13.2 4.4 L13.05 4.2 13.25 4.1 13.55 4.1 13.9 4.15 13.55 4.6 13.2 4.4 M14.3 3.35 L14.5 3.35 14.25 3.7 13.95 3.8 13.8 3.9 13.75 3.8 Q13.65 3.6 13.4 3.6 L13.35 3.65 13.5 3.45 14.3 3.35 M9.95 2.55 L10.05 5.3 9.35 5.5 9.35 4.8 9.1 5.0 9.3 5.0 9.35 5.05 Q9.4 6.1 8.25 5.85 L8.15 5.85 5.75 6.0 5.75 5.95 6.4 5.15 6.4 4.95 6.45 4.9 Q6.4 4.35 5.6 3.8 L5.4 3.65 5.2 3.6 4.35 3.4 3.8 2.75 3.6 2.35 3.4 2.3 3.55 1.85 3.7 1.6 3.75 1.45 3.95 0.7 5.1 0.9 6.9 1.65 7.35 2.3 7.4 2.35 7.4 2.55 7.6 2.55 7.7 2.6 7.9 2.8 7.9 2.85 7.95 2.75 8.75 2.9 9.85 2.55 9.95 2.55 M6.8 3.0 L6.85 2.95 5.95 2.65 6.6 2.9 6.8 3.0 M5.85 4.2 L5.9 4.4 5.65 5.3 5.45 5.9 5.25 5.95 3.35 5.4 Q1.55 4.7 0.45 3.1 L0.45 3.05 0.75 2.8 0.9 2.6 1.0 2.15 0.85 2.15 0.8 1.95 Q2.05 0.75 3.5 0.7 3.1 1.05 2.9 1.65 L2.75 2.45 2.7 2.45 2.6 2.45 2.75 3.05 2.95 3.0 3.05 3.15 3.55 3.3 4.65 3.85 5.85 4.2" fill="#535964" fill-rule="evenodd" stroke="none"/>
      <path d="M10.8 2.5 L10.35 2.6 10.15 2.55 10.1 2.25 11.0 1.4 11.7 1.65 11.25 2.25 12.15 2.0 12.45 2.1 12.5 2.35 11.4 3.05 10.95 2.8 10.8 2.5 M8.55 2.7 L8.6 3.0 Q8.6 3.3 7.75 3.3 L6.75 3.0 6.3 2.55 6.4 2.3 6.15 2.3 5.0 1.95 4.2 1.4 4.3 1.3 4.1 1.2 4.2 0.8 Q6.35 1.05 6.8 2.25 L7.2 2.55 8.4 2.6 8.55 2.7" fill="#c8ccd0" fill-rule="evenodd" stroke="none"/>
    </g>
    <g id="button3" transform="matrix(1.0, 0.0, 0.0, 1.0, 0.5, 0.5)">
      <use height="34.0" transform="matrix(1.0, 0.0, 0.0, 1.0, -0.5, -0.5)" width="34.0" xlink:href="#shape0"/>
      <use height="32.3" transform="matrix(1.0, 0.0, 0.0, 1.0, 0.6, 0.3)" width="32.1" xlink:href="#shape12"/>
    </g>
    <g id="shape12" transform="matrix(1.0, 0.0, 0.0, 1.0, -0.6, -0.3)">
      <path d="M29.85 0.7 L29.7 1.1 29.6 1.25 29.05 2.1 28.6 1.8 28.6 1.45 28.85 0.8 Q28.9 0.35 29.3 0.35 L29.4 0.4 Q29.85 0.1 29.85 0.7 M1.25 2.6 Q0.8 2.6 0.7 2.2 L0.7 1.7 Q0.7 1.15 1.45 0.65 2.2 0.2 2.2 0.95 L1.25 2.6 M1.85 29.35 L1.55 29.85 1.0 30.25 Q0.6 30.25 0.6 29.8 0.6 29.5 0.9 29.25 1.3 28.9 1.8 29.1 L1.85 29.35 M29.95 29.35 L29.8 29.95 29.4 30.25 Q28.95 30.25 28.95 29.8 28.95 29.4 29.45 29.0 29.95 28.55 29.95 29.35" fill="#ff6666" fill-rule="evenodd" stroke="none"/>
      <path d="M32.7 3.95 L32.7 4.35 31.45 4.6 Q30.2 4.6 30.2 4.2 30.2 3.9 30.7 3.65 L31.35 2.95 Q31.15 2.6 31.45 2.15 31.8 1.75 32.3 1.95 L32.7 3.95 M4.2 2.5 Q4.2 4.6 2.45 4.6 L2.05 4.55 Q1.95 4.05 2.1 3.9 L1.7 3.5 Q1.7 3.05 3.35 3.05 L3.9 2.1 Q4.2 1.65 4.2 2.5 M3.6 30.35 Q3.7 30.0 4.3 30.1 L4.35 32.05 Q4.25 32.6 3.75 32.6 L1.6 32.45 Q1.45 32.4 1.45 32.15 2.65 30.7 3.6 30.85 L3.6 30.35 M32.25 32.5 L31.25 32.5 30.25 32.5 29.85 32.05 30.05 31.8 31.3 31.25 31.2 30.65 Q31.2 30.25 31.55 29.8 31.95 29.25 32.25 29.95 L32.45 31.75 32.25 32.5" fill="#660000" fill-rule="evenodd" stroke="none"/>
      <path d="M3.0 15.0 L3.0 14.25 3.3 14.1 6.1 14.3 9.05 15.15 9.65 15.45 10.5 15.45 10.7 15.4 11.25 15.25 11.5 15.3 11.95 15.55 12.4 16.1 13.45 16.0 14.55 16.4 14.65 16.75 14.65 17.15 14.6 17.35 19.65 17.45 19.8 17.45 24.2 17.55 25.35 17.6 25.4 17.4 25.6 16.45 Q25.65 16.25 25.85 16.2 26.7 16.7 27.35 17.3 27.9 17.8 28.05 18.3 L28.95 18.65 29.0 18.75 29.05 18.7 Q29.45 19.25 29.0 19.9 28.6 20.45 27.95 20.2 L27.15 21.05 25.45 22.1 25.4 22.1 Q25.05 21.9 25.15 21.45 L25.4 20.8 20.65 20.9 15.1 20.7 15.05 20.7 13.85 21.2 13.7 22.55 13.65 23.05 13.85 23.35 10.9 21.35 11.1 22.75 13.85 23.45 14.45 23.65 14.15 23.6 14.75 24.15 15.35 24.6 15.65 24.75 17.6 24.95 Q16.05 25.45 14.65 24.55 L14.3 24.25 13.9 23.8 13.85 23.7 13.85 23.55 13.65 23.55 12.9 23.45 11.6 23.3 9.3 23.1 7.05 22.95 6.7 22.95 4.3 22.9 3.0 22.9 3.0 22.75 6.25 21.95 6.3 21.95 6.5 21.85 6.1 21.1 3.85 21.4 3.5 21.4 3.0 21.4 3.0 20.15 3.8 20.3 Q3.7 19.3 3.0 18.7 L3.0 18.5 3.15 18.55 3.25 18.55 3.65 19.1 4.1 20.2 5.2 18.85 5.3 18.45 5.75 18.1 4.85 17.85 3.4 17.85 3.0 17.9 3.0 17.65 6.0 17.8 6.1 17.75 Q7.7 17.35 8.8 16.1 L4.7 16.55 3.0 16.6 3.0 15.9 8.7 15.55 6.05 14.95 4.25 14.7 3.15 14.95 3.0 15.0 M19.5 24.7 L23.65 24.95 23.6 25.65 23.9 25.65 24.15 26.0 Q25.15 26.2 25.9 27.0 L28.2 29.15 28.05 25.25 28.85 25.75 Q29.55 26.4 29.75 27.4 L29.95 29.25 29.5 29.25 Q29.5 27.85 28.85 26.65 L28.6 29.25 28.0 29.25 28.0 29.6 27.8 29.6 28.0 29.75 28.0 30.1 27.75 29.9 28.0 30.35 28.0 30.5 26.8 30.5 26.2 29.6 23.85 26.4 23.95 27.75 24.05 29.05 24.05 29.6 24.05 29.85 23.9 30.5 23.6 30.5 23.65 30.3 23.7 29.6 23.7 29.55 23.7 28.75 23.7 27.45 23.7 26.25 22.7 26.85 Q22.4 28.4 21.0 29.15 L20.35 29.6 19.85 30.1 19.55 30.5 19.2 30.5 19.5 29.9 19.65 29.6 Q20.65 27.95 22.3 26.75 L21.5 27.25 Q20.3 28.05 19.4 29.0 L19.35 29.05 18.9 29.6 18.2 30.5 17.8 30.5 18.7 29.05 17.85 29.0 18.65 28.9 18.6 28.85 16.6 28.65 16.0 28.45 17.65 28.35 18.4 28.5 18.95 28.8 20.7 27.1 18.55 27.45 Q17.35 27.65 16.2 28.1 L15.2 28.25 15.55 27.95 Q16.5 27.5 17.55 27.2 L20.9 26.9 22.7 25.65 20.3 25.15 18.4 24.95 19.5 24.7 M10.55 30.5 L9.9 30.5 11.1 29.75 11.15 29.6 11.2 29.55 11.6 29.25 12.0 29.0 12.1 28.9 12.15 28.65 12.15 28.6 15.55 28.45 15.5 28.5 13.05 28.9 Q12.2 29.1 11.4 29.6 L11.35 29.75 10.55 30.5 M9.6 30.5 L8.05 30.5 7.3 29.6 6.4 28.25 Q5.65 26.75 5.4 25.2 L5.25 24.3 4.2 26.05 3.35 26.95 3.0 27.35 3.0 27.0 5.2 24.05 3.0 23.5 3.0 23.05 5.0 23.7 5.1 23.5 5.3 23.9 5.7 25.4 Q6.4 27.5 8.0 29.15 L8.5 29.6 9.15 30.2 9.6 30.5 M25.9 17.7 L27.15 17.95 27.1 17.9 26.2 16.95 Q25.85 16.9 25.9 17.25 L25.9 17.7 M27.35 18.35 L27.2 18.35 25.5 18.2 25.45 19.2 25.4 20.2 27.4 20.0 27.5 20.0 27.75 19.85 27.55 19.4 27.6 18.7 27.7 18.65 27.85 18.6 27.55 18.4 27.35 18.35 M18.0 18.75 L18.15 18.75 18.15 18.95 19.8 18.55 20.2 18.5 20.55 18.45 20.8 17.95 19.8 17.9 19.65 17.95 15.1 17.8 15.85 18.15 16.35 18.2 17.0 18.4 17.05 18.45 17.75 18.7 18.0 18.75 M21.2 17.95 Q21.35 18.35 21.0 19.05 20.65 19.75 21.05 20.4 L24.75 20.2 24.9 20.25 24.65 19.3 Q24.7 18.7 25.05 18.2 L21.2 17.95 M16.6 20.45 L18.25 20.65 17.65 20.55 18.4 20.5 20.4 20.4 20.5 20.4 Q20.25 20.1 20.3 19.45 L20.35 19.0 19.8 19.05 Q18.85 19.1 18.05 19.45 L17.65 19.85 16.75 20.3 16.6 20.35 16.35 20.45 16.6 20.45 M28.6 19.75 L28.7 19.7 28.75 19.6 28.7 19.6 28.6 19.75 M25.8 21.05 L25.75 21.2 26.7 20.65 26.75 20.6 26.1 20.7 25.9 20.75 25.8 21.05 M6.2 18.05 L6.05 18.3 5.65 18.55 5.45 18.75 5.4 18.9 5.4 18.95 5.15 19.25 4.9 19.75 4.95 19.75 6.05 19.85 7.85 19.05 8.3 18.45 10.25 18.45 Q10.9 17.2 12.1 16.55 L10.7 15.75 9.25 16.05 8.55 17.05 Q7.7 17.65 6.65 17.9 L6.2 18.05 M4.8 20.45 L5.0 20.35 4.7 20.35 4.65 20.4 4.8 20.45 M11.95 17.7 Q11.25 18.45 10.35 18.9 L9.45 19.2 Q8.75 19.15 8.25 18.7 L8.25 19.1 Q9.55 19.45 10.75 20.2 12.05 20.95 12.95 22.05 L13.05 18.9 12.25 18.3 12.05 18.0 12.0 17.75 12.4 17.75 12.95 18.3 14.15 16.9 12.75 16.75 12.5 17.1 11.95 17.7 M7.5 21.95 L7.45 22.0 7.5 22.0 10.75 22.7 9.55 20.55 5.05 20.45 6.45 20.6 7.5 21.95 M15.3 18.45 L15.25 18.4 15.1 18.35 15.05 18.3 14.3 17.7 13.6 18.4 13.6 18.65 13.65 19.15 13.85 20.75 14.15 20.65 14.6 20.5 15.35 20.2 15.45 20.15 16.65 19.9 16.85 19.85 17.65 19.2 17.0 18.95 16.95 18.85 16.65 18.85 15.3 18.45" fill="#000000" fill-rule="evenodd" stroke="none"/>
      <path d="M14.45 23.65 L19.5 24.7 18.4 24.95 20.3 25.15 22.7 25.65 20.1 26.25 16.3 26.7 Q14.4 27.0 12.55 26.7 L8.75 26.25 6.8 25.8 6.5 25.45 6.35 25.25 6.15 25.15 5.9 25.05 5.7 25.4 5.3 23.9 5.1 23.5 5.0 23.7 3.0 23.05 3.0 22.9 4.3 22.9 6.7 22.95 7.05 22.95 9.3 23.1 11.6 23.3 12.9 23.45 13.65 23.55 13.85 23.55 13.85 23.7 13.9 23.8 14.3 24.25 14.65 24.55 Q16.05 25.45 17.6 24.95 L15.65 24.75 15.35 24.6 14.75 24.15 14.15 23.6 14.45 23.65 M28.0 30.1 L28.0 30.35 27.75 29.9 28.0 30.1 M3.0 20.15 L3.0 18.7 Q3.7 19.3 3.8 20.3 L3.0 20.15 M3.0 18.5 L3.0 17.9 3.4 17.85 4.85 17.85 5.75 18.1 5.3 18.45 5.2 18.85 4.1 20.2 3.65 19.1 3.25 18.55 3.15 18.55 3.0 18.5 M3.0 17.65 L3.0 17.0 5.3 17.1 6.3 16.75 6.25 16.55 5.05 16.7 3.0 16.7 3.0 16.6 4.7 16.55 8.8 16.1 Q7.7 17.35 6.1 17.75 L6.0 17.8 3.0 17.65 M3.0 15.9 L3.0 15.45 3.6 15.3 3.7 15.3 5.0 15.3 5.45 15.1 5.4 14.95 4.75 14.85 3.9 15.0 3.8 14.95 3.0 15.1 3.0 15.0 3.15 14.95 4.25 14.7 6.05 14.95 8.7 15.55 3.0 15.9 M15.85 18.15 L15.1 17.8 19.65 17.95 19.8 17.9 20.8 17.95 20.55 18.45 20.2 18.5 19.8 18.55 18.15 18.95 18.15 18.75 18.0 18.75 18.1 18.7 18.15 18.55 18.05 18.4 18.85 18.35 18.85 18.3 18.8 18.15 17.95 18.1 16.2 18.1 15.85 18.15 M27.35 18.35 L27.55 18.4 27.85 18.6 27.7 18.65 27.6 18.7 27.55 19.4 27.75 19.85 27.5 20.0 27.4 20.0 25.4 20.2 25.45 19.2 25.5 18.2 27.2 18.35 27.35 18.35 M17.75 18.7 L17.05 18.45 17.0 18.4 17.35 18.4 Q17.6 18.4 17.7 18.55 L17.75 18.7 M16.6 20.35 L16.6 20.45 16.35 20.45 16.6 20.35 M6.2 18.05 L6.65 17.9 Q7.7 17.65 8.55 17.05 L9.25 16.05 10.7 15.75 12.1 16.55 Q10.9 17.2 10.25 18.45 L8.3 18.45 7.85 19.05 6.05 19.85 4.95 19.75 4.9 19.75 5.15 19.25 5.4 18.95 5.4 18.9 5.45 18.75 5.65 18.55 6.05 18.3 6.2 18.05 M9.9 16.15 L10.05 16.3 10.4 16.45 11.4 16.5 11.6 16.45 11.6 16.3 10.95 15.95 10.3 15.95 Q10.05 15.95 9.9 16.15 M11.95 17.7 L12.5 17.1 12.75 16.75 14.15 16.9 12.95 18.3 12.4 17.75 12.0 17.75 11.95 17.7 M5.9 23.6 L5.85 23.75 6.0 24.15 6.2 24.3 6.1 24.45 6.25 24.55 6.8 24.35 6.85 24.35 10.65 24.95 12.95 25.3 14.5 25.55 14.7 25.35 14.75 25.3 14.75 25.15 13.4 24.85 13.35 24.75 13.0 24.7 12.95 24.6 12.9 24.6 12.7 24.6 12.0 24.4 11.85 24.4 11.85 24.25 8.95 23.95 8.4 23.9 6.05 23.6 6.05 23.7 6.0 23.6 5.9 23.6 M15.3 18.45 L16.65 18.85 15.55 18.55 15.3 18.45 M17.0 18.95 L17.65 19.2 16.85 19.85 16.65 19.9 15.45 20.15 15.35 20.2 14.6 20.5 14.15 20.65 13.85 20.75 13.65 19.15 13.6 18.65 13.6 18.4 14.3 17.7 15.05 18.3 14.7 18.25 14.3 18.15 Q14.45 18.55 14.9 18.8 L15.25 19.0 16.05 19.25 16.1 19.25 16.1 19.15 16.65 19.2 17.0 18.95 M12.9 16.85 L12.85 17.0 12.9 17.05 13.3 17.2 13.45 17.15 13.45 17.0 Q13.2 16.85 12.9 16.85" fill="#3e434a" fill-rule="evenodd" stroke="none"/>
      <path d="M26.5 30.5 L25.85 30.5 25.65 30.25 25.2 29.6 23.95 27.75 24.45 28.05 24.5 27.95 24.6 27.9 25.45 29.15 25.7 29.45 25.75 29.5 25.85 29.6 26.05 29.9 26.5 30.5 M3.0 17.0 L3.0 16.7 5.05 16.7 6.25 16.55 6.3 16.75 5.3 17.1 3.0 17.0 M3.0 15.45 L3.0 15.1 3.8 14.95 3.9 15.0 4.75 14.85 5.4 14.95 5.45 15.1 5.0 15.3 3.7 15.3 3.6 15.3 3.0 15.45 M15.85 18.15 L16.2 18.1 17.95 18.1 18.8 18.15 18.85 18.3 18.85 18.35 18.05 18.4 18.15 18.55 18.1 18.7 18.0 18.75 17.75 18.7 17.7 18.55 Q17.6 18.4 17.35 18.4 L17.0 18.4 16.35 18.2 15.85 18.15 M23.25 18.1 L24.15 18.2 24.35 18.45 24.25 18.6 23.85 18.65 22.25 18.5 21.85 18.35 21.85 18.3 22.45 18.15 23.25 18.1 M9.9 16.15 Q10.05 15.95 10.3 15.95 L10.95 15.95 11.6 16.3 11.6 16.45 11.4 16.5 10.4 16.45 10.05 16.3 9.9 16.15 M5.9 23.6 L6.0 23.6 6.05 23.7 6.05 23.6 8.4 23.9 8.95 23.95 11.85 24.25 11.85 24.4 12.0 24.4 12.7 24.6 12.9 24.6 12.95 24.6 13.0 24.7 13.35 24.75 13.4 24.85 14.75 25.15 14.75 25.3 14.7 25.35 14.5 25.55 12.95 25.3 10.65 24.95 6.85 24.35 6.8 24.35 6.25 24.55 6.1 24.45 6.2 24.3 6.0 24.15 5.85 23.75 5.9 23.6 M15.05 18.3 L15.1 18.35 15.25 18.4 15.3 18.45 15.55 18.55 16.65 18.85 16.95 18.85 17.0 18.95 16.65 19.2 16.1 19.15 16.1 19.25 16.05 19.25 15.25 19.0 14.9 18.8 Q14.45 18.55 14.3 18.15 L14.7 18.25 15.05 18.3 M12.9 16.85 Q13.2 16.85 13.45 17.0 L13.45 17.15 13.3 17.2 12.9 17.05 12.85 17.0 12.9 16.85 M23.15 27.3 L22.55 28.0 22.45 27.95 22.4 27.85 22.75 27.45 23.05 27.2 23.15 27.3" fill="#a8adb5" fill-rule="evenodd" stroke="none"/>
      <path d="M8.05 30.5 L4.75 30.5 4.75 29.7 5.0 29.95 6.05 28.65 6.1 28.65 6.9 29.6 7.2 30.0 7.4 29.85 6.3 28.5 6.3 28.4 6.4 28.25 7.3 29.6 8.05 30.5 M3.2 28.75 L3.0 28.75 3.0 28.45 3.2 28.75 M25.9 17.7 L25.9 17.25 Q25.85 16.9 26.2 16.95 L27.1 17.9 27.15 17.95 25.9 17.7 M21.2 17.95 L25.05 18.2 Q24.7 18.7 24.65 19.3 L24.9 20.25 24.75 20.2 21.05 20.4 Q20.65 19.75 21.0 19.05 21.35 18.35 21.2 17.95 M23.25 18.1 L22.45 18.15 21.85 18.3 21.85 18.35 22.25 18.5 23.85 18.65 24.25 18.6 24.35 18.45 24.15 18.2 23.25 18.1 M16.6 20.35 L16.75 20.3 17.65 19.85 18.05 19.45 Q18.85 19.1 19.8 19.05 L20.35 19.0 20.3 19.45 Q20.25 20.1 20.5 20.4 L20.4 20.4 18.4 20.5 17.65 20.55 18.25 20.65 16.6 20.45 16.6 20.35 M25.8 21.05 L25.9 20.75 26.1 20.7 26.75 20.6 26.7 20.65 25.75 21.2 25.8 21.05 M4.8 20.45 L4.65 20.4 4.7 20.35 5.0 20.35 4.8 20.45 M12.0 17.75 L12.05 18.0 12.25 18.3 13.05 18.9 12.95 22.05 Q12.05 20.95 10.75 20.2 9.55 19.45 8.25 19.1 L8.25 18.7 Q8.75 19.15 9.45 19.2 L10.35 18.9 Q11.25 18.45 11.95 17.7 L12.0 17.75 M7.5 22.0 L7.45 22.0 7.5 21.95 7.5 22.0" fill="#1d2023" fill-rule="evenodd" stroke="none"/>
      <path d="M17.8 30.5 L10.55 30.5 11.35 29.75 11.4 29.6 Q12.2 29.1 13.05 28.9 L15.5 28.5 15.55 28.45 12.15 28.6 12.15 28.65 12.1 28.9 12.0 29.0 11.6 29.25 11.2 29.55 11.15 29.6 11.1 29.75 9.9 30.5 9.6 30.5 9.15 30.2 8.5 29.6 8.0 29.15 Q6.4 27.5 5.7 25.4 L5.9 25.05 6.15 25.15 6.35 25.25 6.5 25.45 6.8 25.8 8.75 26.25 12.55 26.7 Q14.4 27.0 16.3 26.7 L20.1 26.25 22.7 25.65 20.9 26.9 17.55 27.2 Q16.5 27.5 15.55 27.95 L15.2 28.25 16.2 28.1 Q17.35 27.65 18.55 27.45 L20.7 27.1 18.95 28.8 18.4 28.5 17.65 28.35 16.0 28.45 16.6 28.65 18.6 28.85 18.65 28.9 17.85 29.0 18.7 29.05 17.8 30.5" fill="#26292d" fill-rule="evenodd" stroke="none"/>
      <path d="M13.85 23.35 L13.85 23.45 11.1 22.75 10.9 21.35 13.85 23.35 M29.5 29.25 L28.6 29.25 28.85 26.65 Q29.5 27.85 29.5 29.25 M28.0 29.6 L28.0 29.75 27.8 29.6 28.0 29.6 M26.8 30.5 L26.5 30.5 26.05 29.9 25.85 29.6 25.75 29.5 25.7 29.45 25.45 29.15 24.6 27.9 24.5 27.95 24.45 28.05 23.95 27.75 25.2 29.6 25.65 30.25 25.85 30.5 23.9 30.5 24.05 29.85 24.05 29.6 24.05 29.05 23.95 27.75 23.85 26.4 26.2 29.6 26.8 30.5 M23.6 30.5 L19.55 30.5 19.85 30.1 20.35 29.6 21.0 29.15 Q22.4 28.4 22.7 26.85 L23.7 26.25 23.7 27.45 23.7 28.75 23.7 29.55 23.7 29.6 23.65 30.3 23.6 30.5 M19.2 30.5 L18.2 30.5 18.9 29.6 19.35 29.05 19.4 29.0 Q20.3 28.05 21.5 27.25 L22.3 26.75 Q20.65 27.95 19.65 29.6 L19.5 29.9 19.2 30.5 M4.75 29.7 L4.75 28.75 3.2 28.75 3.0 28.45 3.0 27.35 3.35 26.95 4.2 26.05 5.25 24.3 5.4 25.2 Q5.65 26.75 6.4 28.25 L6.3 28.4 5.6 27.3 5.3 26.75 5.3 26.4 5.25 26.05 5.05 25.75 4.7 26.15 4.45 26.65 4.85 26.9 4.95 26.9 5.15 27.25 5.4 28.0 5.5 27.95 6.05 28.65 5.0 29.95 4.75 29.7 M3.0 27.0 L3.0 24.75 3.1 24.75 3.2 24.7 3.25 24.6 3.0 24.45 3.0 23.5 5.2 24.05 3.0 27.0 M3.0 22.75 L3.0 21.4 3.5 21.4 3.85 21.4 6.1 21.1 6.5 21.85 6.3 21.95 6.25 21.95 3.0 22.75 M7.5 21.95 L6.45 20.6 5.05 20.45 9.55 20.55 10.75 22.7 7.5 22.0 7.5 21.95 M23.15 27.3 L23.05 27.2 22.75 27.45 22.4 27.85 22.45 27.95 22.55 28.0 23.15 27.3" fill="#282c31" fill-rule="evenodd" stroke="none"/>
      <path d="M3.0 24.75 L3.0 24.45 3.25 24.6 3.2 24.7 3.1 24.75 3.0 24.75 M6.05 28.65 L5.5 27.95 5.4 28.0 5.15 27.25 4.95 26.9 4.85 26.9 4.45 26.65 4.7 26.15 5.05 25.75 5.25 26.05 5.3 26.4 5.3 26.75 5.6 27.3 6.3 28.4 6.3 28.5 7.4 29.85 7.2 30.0 6.9 29.6 6.1 28.65 6.05 28.65" fill="#8c949d" fill-rule="evenodd" stroke="none"/>
    </g>
    <g id="button4" transform="matrix(1.0, 0.0, 0.0, 1.0, 0.5, 0.5)">
      <use height="34.0" transform="matrix(1.0, 0.0, 0.0, 1.0, -0.5, -0.5)" width="34.0" xlink:href="#shape0"/>
      <use height="32.3" transform="matrix(1.0, 0.0, 0.0, 1.0, 0.6, 0.3)" width="32.1" xlink:href="#shape4"/>
      <use height="24.3" transform="matrix(0.6885, 0.082, -0.082, 0.6885, 4.972, 7.4911)" width="17.95" xlink:href="#sprite0"/>
      <use height="16.2" transform="matrix(0.1387, -0.4895, 0.5467, 0.1548, 12.73, 24.1596)" width="20.0" xlink:href="#sprite1"/>
      <use height="15.15" transform="matrix(0.5184, 0.2628, -0.3132, 0.6178, 18.15, 18.4)" width="28.55" xlink:href="#sprite2"/>
      <use height="5.0" transform="matrix(0.6559, 0.2235, -0.2235, 0.6559, 21.1, 25.05)" width="6.7" xlink:href="#sprite3"/>
      <use height="14.3" transform="matrix(0.6914, -0.0454, 0.0454, 0.6914, 13.3047, 8.3886)" width="13.4" xlink:href="#sprite4"/>
      <use height="26.85" transform="matrix(0.691, 0.0551, -0.0551, 0.691, 9.0417, 12.5178)" width="16.6" xlink:href="#sprite5"/>
      <use height="16.2" transform="matrix(0.5079, 0.0405, -0.0452, 0.5672, 8.7709, 14.0678)" width="20.0" xlink:href="#sprite1"/>
      <use height="6.8" transform="matrix(0.5793, 0.3791, -0.3791, 0.5793, 9.55, 19.9)" width="16.65" xlink:href="#sprite6"/>
    </g>
  </defs>
</svg>
