<?xml version="1.0" encoding="UTF-8" standalone="no"?>
<svg xmlns:xlink="http://www.w3.org/1999/xlink" height="204.0px" width="1233.3px" xmlns="http://www.w3.org/2000/svg">
  <g transform="matrix(6.0, 0.0, 0.0, 6.0, 6.3, 102.0)">
    <use height="34.0" id="btr" transform="matrix(1.0, 0.0, 0.0, 1.0, 170.5, -17.0)" width="34.0" xlink:href="#button0"/>
    <use height="34.0" id="bt1" transform="matrix(1.0, 0.0, 0.0, 1.0, -1.05, -17.0)" width="34.55" xlink:href="#button1"/>
    <use height="34.0" id="bt2" transform="matrix(1.0, 0.0, 0.0, 1.0, 39.5, -17.0)" width="34.0" xlink:href="#button2"/>
    <use height="34.0" id="bt3" transform="matrix(1.0, 0.0, 0.0, 1.0, 79.5, -17.0)" width="34.0" xlink:href="#button3"/>
  </g>
  <defs>
    <g id="button0" transform="matrix(1.0, 0.0, 0.0, 1.0, 0.5, 0.5)">
      <use height="34.0" transform="matrix(1.0, 0.0, 0.0, 1.0, -0.5, -0.5)" width="34.0" xlink:href="#shape0"/>
      <use height="32.3" transform="matrix(1.0, 0.0, 0.0, 1.0, 0.6, 0.3)" width="32.1" xlink:href="#shape1"/>
    </g>
    <g id="shape0" transform="matrix(1.0, 0.0, 0.0, 1.0, 0.5, 0.5)">
      <path d="M33.0 0.0 L33.0 33.0 0.0 33.0 0.0 0.0 33.0 0.0" fill="#c4c4c4" fill-rule="evenodd" stroke="none"/>
      <path d="M33.0 0.0 L33.0 33.0 0.0 33.0 0.0 0.0 33.0 0.0 Z" fill="none" stroke="#000000" stroke-linecap="round" stroke-linejoin="round" stroke-width="1.0"/>
      <path d="M30.0 3.0 L3.0 3.0 3.0 30.0 30.0 30.0 30.0 3.0 M33.0 0.0 L33.0 33.0 0.0 33.0 0.0 0.0 33.0 0.0" fill="url(#gradient0)" fill-rule="evenodd" stroke="none"/>
      <path d="M30.0 3.0 L30.0 30.0 3.0 30.0 3.0 3.0 30.0 3.0" fill="#7b7b7b" fill-rule="evenodd" stroke="none"/>
      <path d="M30.0 3.0 L30.0 30.0 3.0 30.0 3.0 3.0 30.0 3.0 M33.0 0.0 L33.0 33.0 0.0 33.0 0.0 0.0 33.0 0.0" fill="none" stroke="#000000" stroke-linecap="round" stroke-linejoin="round" stroke-width="1.0"/>
      <path d="M28.0 0.0 L33.0 0.0 33.0 5.0 28.0 5.0 28.0 0.0 M0.0 0.0 L5.0 0.0 5.0 5.0 0.0 5.0 0.0 0.0 M5.0 28.0 L5.0 33.0 0.0 33.0 0.0 28.0 5.0 28.0 M28.0 28.0 L33.0 28.0 33.0 33.0 28.0 33.0 28.0 28.0" fill="#990000" fill-rule="evenodd" stroke="none"/>
      <path d="M28.0 0.0 L33.0 0.0 33.0 5.0 28.0 5.0 28.0 0.0 M0.0 0.0 L5.0 0.0 5.0 5.0 0.0 5.0 0.0 0.0 M5.0 28.0 L5.0 33.0 0.0 33.0 0.0 28.0 5.0 28.0 M28.0 28.0 L33.0 28.0 33.0 33.0 28.0 33.0 28.0 28.0" fill="none" stroke="#000000" stroke-linecap="round" stroke-linejoin="round" stroke-width="1.0"/>
    </g>
    <linearGradient gradientTransform="matrix(0.0152, 0.0234, -0.0234, 0.0152, 16.5, 16.45)" gradientUnits="userSpaceOnUse" id="gradient0" spreadMethod="pad" x1="-819.2" x2="819.2">
      <stop offset="0.0" stop-color="#eed600"/>
      <stop offset="0.19607843137254902" stop-color="#fef292"/>
      <stop offset="0.36470588235294116" stop-color="#ecd502"/>
      <stop offset="0.6352941176470588" stop-color="#9a8b00"/>
      <stop offset="0.8627450980392157" stop-color="#fff9c4"/>
      <stop offset="1.0" stop-color="#c4c400"/>
    </linearGradient>
    <g id="shape1" transform="matrix(1.0, 0.0, 0.0, 1.0, -0.6, -0.3)">
      <path d="M29.6 1.25 L29.05 2.1 28.6 1.8 28.6 1.45 28.85 0.8 Q28.9 0.35 29.3 0.35 L29.4 0.4 Q29.85 0.1 29.85 0.7 L29.7 1.1 29.6 1.25 M1.25 2.6 Q0.8 2.6 0.7 2.2 L0.7 1.7 Q0.7 1.15 1.45 0.65 2.2 0.2 2.2 0.95 L1.25 2.6 M1.85 29.35 L1.55 29.85 1.0 30.25 Q0.6 30.25 0.6 29.8 0.6 29.5 0.9 29.25 1.3 28.9 1.8 29.1 L1.85 29.35 M29.95 29.35 L29.8 29.95 29.4 30.25 Q28.95 30.25 28.95 29.8 28.95 29.4 29.45 29.0 29.95 28.55 29.95 29.35" fill="#ff6666" fill-rule="evenodd" stroke="none"/>
      <path d="M32.7 3.95 L32.7 4.35 31.45 4.6 Q30.2 4.6 30.2 4.2 30.2 3.9 30.7 3.65 L31.35 2.95 Q31.15 2.6 31.45 2.15 31.8 1.75 32.3 1.95 L32.7 3.95 M4.2 2.5 Q4.2 4.6 2.45 4.6 L2.05 4.55 Q1.95 4.05 2.1 3.9 L1.7 3.5 Q1.7 3.05 3.35 3.05 L3.9 2.1 Q4.2 1.65 4.2 2.5 M3.6 30.35 Q3.7 30.0 4.3 30.1 L4.35 32.05 Q4.25 32.6 3.75 32.6 L1.6 32.45 Q1.45 32.4 1.45 32.15 2.65 30.7 3.6 30.85 L3.6 30.35 M32.25 32.5 L31.25 32.5 30.25 32.5 29.85 32.05 30.05 31.8 31.3 31.25 31.2 30.65 Q31.2 30.25 31.55 29.8 31.95 29.25 32.25 29.95 L32.45 31.75 32.25 32.5" fill="#660000" fill-rule="evenodd" stroke="none"/>
      <path d="M28.0 20.5 L14.5 20.5 14.5 26.0 5.0 16.5 14.5 7.0 14.5 12.5 28.0 12.5 28.0 20.5" fill="#b10101" fill-rule="evenodd" stroke="none"/>
    </g>
    <g id="button1" transform="matrix(1.0, 0.0, 0.0, 1.0, 1.05, 0.5)">
      <use height="34.0" transform="matrix(1.0, 0.0, 0.0, 1.0, -0.5, -0.5)" width="34.0" xlink:href="#shape0"/>
      <use height="32.3" transform="matrix(1.0, 0.0, 0.0, 1.0, -1.05, 0.3)" width="34.15" xlink:href="#shape2"/>
    </g>
    <g id="shape2" transform="matrix(1.0, 0.0, 0.0, 1.0, 1.05, -0.3)">
      <path d="M29.85 0.7 L29.7 1.1 29.6 1.25 29.05 2.1 28.6 1.8 28.6 1.45 28.85 0.8 Q28.9 0.35 29.3 0.35 L29.4 0.4 Q29.85 0.1 29.85 0.7 M1.25 2.6 Q0.8 2.6 0.7 2.2 L0.7 1.7 Q0.7 1.15 1.45 0.65 2.2 0.2 2.2 0.95 L1.25 2.6 M1.85 29.35 L1.55 29.85 1.0 30.25 Q0.6 30.25 0.6 29.8 0.6 29.5 0.9 29.25 1.3 28.9 1.8 29.1 L1.85 29.35 M29.95 29.35 L29.8 29.95 29.4 30.25 Q28.95 30.25 28.95 29.8 28.95 29.4 29.45 29.0 29.95 28.55 29.95 29.35" fill="#ff6666" fill-rule="evenodd" stroke="none"/>
      <path d="M32.7 3.95 L32.7 4.35 31.45 4.6 Q30.2 4.6 30.2 4.2 30.2 3.9 30.7 3.65 L31.35 2.95 Q31.15 2.6 31.45 2.15 31.8 1.75 32.3 1.95 L32.7 3.95 M4.2 2.5 Q4.2 4.6 2.45 4.6 L2.05 4.55 Q1.95 4.05 2.1 3.9 L1.7 3.5 Q1.7 3.05 3.35 3.05 L3.9 2.1 Q4.2 1.65 4.2 2.5 M3.6 30.35 Q3.7 30.0 4.3 30.1 L4.35 32.05 Q4.25 32.6 3.75 32.6 L1.6 32.45 Q1.45 32.4 1.45 32.15 2.65 30.7 3.6 30.85 L3.6 30.35 M32.25 32.5 L31.25 32.5 30.25 32.5 29.85 32.05 30.05 31.8 31.3 31.25 31.2 30.65 Q31.2 30.25 31.55 29.8 31.95 29.25 32.25 29.95 L32.45 31.75 32.25 32.5" fill="#660000" fill-rule="evenodd" stroke="none"/>
      <path d="M19.9 8.25 L20.25 8.7 20.3 8.85 20.3 19.4 20.5 19.5 20.65 19.45 20.65 9.2 21.1 9.75 22.6 11.25 23.05 11.95 23.6 12.85 23.55 13.35 23.55 13.4 Q23.2 13.45 23.2 14.8 L23.2 16.7 23.05 18.45 Q22.95 19.35 23.25 19.8 22.1 20.55 20.5 22.15 L19.05 23.65 16.95 23.65 12.8 23.55 12.25 23.6 10.5 21.6 10.4 21.5 8.3 19.35 8.4 14.65 8.3 13.65 8.35 13.6 8.45 13.0 9.3 11.9 10.7 10.6 Q12.7 8.7 12.7 8.4 L12.7 8.25 13.65 8.25 13.6 8.5 13.65 9.45 13.65 11.3 13.7 14.75 13.95 14.7 14.0 8.25 19.9 8.25 M10.9 14.45 L10.8 13.8 Q10.5 13.95 10.5 15.6 L10.55 21.6 10.8 21.6 10.9 14.45 M14.55 8.85 L14.15 9.15 Q14.15 9.45 14.6 9.45 L14.9 9.15 Q14.9 8.7 14.55 8.85 M17.55 22.7 Q17.55 23.0 17.85 23.0 18.25 23.0 18.25 22.6 L18.05 22.3 Q17.55 22.3 17.55 22.7 M19.35 22.3 L19.3 21.95 Q18.7 21.85 18.7 22.6 18.7 22.95 19.0 22.95 19.35 22.95 19.35 22.3 M17.25 11.0 L17.2 10.95 16.95 10.95 16.95 23.55 17.0 23.6 17.25 23.55 17.25 11.0" fill="#734d26" fill-rule="evenodd" stroke="none"/>
      <path d="M19.9 8.25 L14.0 8.25 13.95 14.7 13.7 14.75 13.65 11.3 13.65 9.45 13.6 8.5 13.65 8.25 12.7 8.25 12.7 8.4 Q12.7 8.7 10.7 10.6 L9.3 11.9 8.45 13.0 8.35 13.6 8.3 13.65 8.4 14.65 8.3 19.35 10.4 21.5 10.5 21.6 12.25 23.6 12.8 23.55 16.95 23.65 19.05 23.65 20.5 22.15 Q22.1 20.55 23.25 19.8 22.95 19.35 23.05 18.45 L23.2 16.7 23.2 14.8 Q23.2 13.45 23.55 13.4 L23.55 13.35 23.6 12.85 23.05 11.95 22.6 11.25 21.1 9.75 20.65 9.2 20.65 19.45 20.5 19.5 20.3 19.4 20.3 8.85 20.25 8.7 19.9 8.25 M20.35 8.35 Q22.75 10.5 23.75 12.55 L23.9 12.5 23.95 12.7 23.9 13.95 23.75 14.0 23.65 13.95 23.5 19.6 23.6 19.55 23.65 19.7 21.65 21.8 19.6 23.65 21.0 23.6 21.05 23.75 19.35 23.85 18.8 24.2 18.75 24.0 18.85 23.85 12.6 23.95 12.4 23.95 12.4 24.05 12.25 24.1 9.2 20.8 8.3 19.75 8.3 19.8 8.2 19.85 8.05 19.75 8.05 19.4 8.0 19.35 8.0 19.1 8.05 19.15 8.05 13.5 8.1 13.5 8.05 13.3 8.05 13.1 8.05 12.75 8.25 12.65 8.3 12.6 8.35 12.55 8.3 12.45 Q8.3 12.05 10.25 10.25 L12.6 8.25 12.55 8.25 12.5 8.2 12.5 7.95 13.85 7.9 14.0 7.85 14.0 7.9 20.25 7.95 20.3 8.15 20.25 8.25 20.35 8.35 M17.25 11.0 L17.25 23.55 17.0 23.6 16.95 23.55 16.95 10.95 17.2 10.95 17.25 11.0 M19.35 22.3 Q19.35 22.95 19.0 22.95 18.7 22.95 18.7 22.6 18.7 21.85 19.3 21.95 L19.35 22.3 M17.55 22.7 Q17.55 22.3 18.05 22.3 L18.25 22.6 Q18.25 23.0 17.85 23.0 17.55 23.0 17.55 22.7 M14.55 8.85 Q14.9 8.7 14.9 9.15 L14.6 9.45 Q14.15 9.45 14.15 9.15 L14.55 8.85 M10.9 14.45 L10.8 21.6 10.55 21.6 10.5 15.6 Q10.5 13.95 10.8 13.8 L10.9 14.45" fill="#000000" fill-rule="evenodd" stroke="none"/>
      <path d="M4.2 16.75 L3.95 16.0 Q3.65 15.95 3.65 16.35 3.65 16.75 4.05 16.95 L4.2 16.75 M6.3 18.95 L6.45 18.85 Q6.3 18.0 5.8 18.3 L5.95 18.7 6.3 18.95 M8.25 17.95 L8.2 17.7 7.9 17.75 7.95 18.0 8.2 18.0 8.25 17.95 M10.85 14.95 Q10.85 13.95 10.65 13.65 L9.9 12.95 Q9.35 12.5 9.2 12.5 L8.95 12.7 Q10.55 13.75 10.55 14.9 L10.25 17.15 10.4 17.35 Q10.7 17.05 10.8 16.05 L10.85 14.95 M6.85 15.35 Q6.5 15.05 6.2 15.05 L6.65 15.6 Q7.05 15.95 7.35 15.95 7.8 15.95 7.8 15.75 L7.75 15.6 6.85 15.35 M5.95 13.9 L6.0 14.0 Q6.55 14.0 6.95 13.6 L7.3 13.2 7.25 13.05 Q5.95 13.4 5.95 13.9 M3.45 14.8 L3.5 15.0 3.8 14.65 4.1 14.35 4.3 14.15 4.25 13.95 Q3.95 13.95 3.7 14.3 L3.45 14.8 M4.55 12.05 Q5.0 11.7 5.25 11.65 L7.05 11.35 8.9 11.4 Q10.9 12.9 11.2 13.55 L11.7 14.8 12.05 16.05 Q12.05 17.7 11.1 18.45 8.35 19.85 6.5 19.85 4.2 19.85 3.25 17.55 2.7 16.25 2.7 14.85 2.7 13.65 3.9 12.6 L4.55 12.05" fill="#857e69" fill-rule="evenodd" stroke="none"/>
      <path d="M4.75 11.45 L6.4 10.95 6.55 10.85 7.35 10.85 Q10.1 10.85 11.45 13.2 12.35 14.75 12.35 16.05 12.35 18.2 11.2 18.85 L9.0 19.75 6.8 20.2 Q4.0 20.2 2.95 17.8 2.4 16.55 2.4 14.85 L2.65 13.55 Q2.95 12.7 3.5 12.45 L4.0 12.0 4.75 11.45 M4.55 12.05 L3.9 12.6 Q2.7 13.65 2.7 14.85 2.7 16.25 3.25 17.55 4.2 19.85 6.5 19.85 8.35 19.85 11.1 18.45 12.05 17.7 12.05 16.05 L11.7 14.8 11.2 13.55 Q10.9 12.9 8.9 11.4 L7.05 11.35 5.25 11.65 Q5.0 11.7 4.55 12.05 M3.45 14.8 L3.7 14.3 Q3.95 13.95 4.25 13.95 L4.3 14.15 4.1 14.35 3.8 14.65 3.5 15.0 3.45 14.8 M5.95 13.9 Q5.95 13.4 7.25 13.05 L7.3 13.2 6.95 13.6 Q6.55 14.0 6.0 14.0 L5.95 13.9 M6.85 15.35 L7.75 15.6 7.8 15.75 Q7.8 15.95 7.35 15.95 7.05 15.95 6.65 15.6 L6.2 15.05 Q6.5 15.05 6.85 15.35 M10.85 14.95 L10.8 16.05 Q10.7 17.05 10.4 17.35 L10.25 17.15 10.55 14.9 Q10.55 13.75 8.95 12.7 L9.2 12.5 Q9.35 12.5 9.9 12.95 L10.65 13.65 Q10.85 13.95 10.85 14.95 M8.25 17.95 L8.2 18.0 7.95 18.0 7.9 17.75 8.2 17.7 8.25 17.95 M6.3 18.95 L5.95 18.7 5.8 18.3 Q6.3 18.0 6.45 18.85 L6.3 18.95 M4.2 16.75 L4.05 16.95 Q3.65 16.75 3.65 16.35 3.65 15.95 3.95 16.0 L4.2 16.75" fill="#000000" fill-rule="evenodd" stroke="none"/>
      <path d="M2.9 12.4 L2.9 17.65 3.4 18.1 3.55 18.55 Q3.55 19.45 2.4 19.45 L1.95 19.45 1.0 20.15 -0.4 21.1 -0.45 20.9 -0.4 20.75 -0.75 20.25 -1.0 20.25 -1.05 20.1 0.2 18.85 Q1.2 17.95 1.8 17.65 L1.75 17.3 1.8 14.2 Q1.8 13.1 1.95 12.7 L1.9 12.7 1.9 12.35 2.7 12.4 Q2.75 12.0 2.9 12.4 M2.65 12.7 L2.15 12.7 2.2 15.9 2.05 17.65 2.05 17.7 -0.55 20.1 -0.3 20.35 -0.2 20.5 2.05 19.05 2.1 19.1 2.75 18.95 Q3.25 18.85 3.25 18.55 L2.95 18.15 2.75 18.0 2.7 17.95 2.55 17.85 2.65 17.75 2.55 15.15 2.65 12.7" fill="#000000" fill-rule="evenodd" stroke="none"/>
      <path d="M2.65 12.7 L2.55 15.15 2.65 17.75 2.55 17.85 2.7 17.95 2.75 18.0 2.95 18.15 3.25 18.55 Q3.25 18.85 2.75 18.95 L2.1 19.1 2.05 19.05 -0.2 20.5 -0.3 20.35 -0.55 20.1 2.05 17.7 2.05 17.65 2.2 15.9 2.15 12.7 2.65 12.7" fill="#734d26" fill-rule="evenodd" stroke="none"/>
      <path d="M29.45 11.65 L29.45 11.95 29.7 12.6 30.0 13.15 30.15 13.1 30.15 17.0 31.5 17.0 31.45 16.15 31.45 15.05 31.55 13.2 31.5 13.2 31.45 13.05 Q31.45 13.0 32.15 12.5 L32.8 11.55 32.6 11.2 32.3 10.95 31.6 11.55 Q31.2 12.1 31.15 12.35 L31.1 12.35 31.1 12.4 30.95 12.45 Q30.75 12.45 30.65 11.95 30.5 11.4 29.85 11.4 L29.45 11.65 M31.85 17.1 L31.95 17.0 32.05 17.6 31.95 21.05 32.15 21.05 32.2 21.2 32.15 21.35 1.85 21.45 1.65 21.35 1.65 21.4 1.5 21.45 Q1.25 21.45 1.2 18.35 1.2 17.4 1.35 17.0 L1.3 16.95 1.35 16.8 1.4 16.8 1.65 16.7 1.7 16.8 4.05 17.05 29.05 17.05 29.0 17.0 29.8 17.0 29.8 13.45 Q29.4 13.4 29.2 12.6 L29.05 11.65 Q29.05 11.05 29.9 11.05 30.8 11.05 31.05 11.65 L31.05 11.7 31.5 11.2 Q32.05 10.6 32.35 10.6 32.8 10.6 33.1 11.55 L32.75 12.4 31.8 13.15 31.8 17.0 31.65 17.2 31.6 17.2 29.8 17.35 29.45 17.35 3.85 17.45 1.65 17.15 1.5 18.3 Q1.5 20.05 1.65 20.8 L1.65 21.05 1.75 21.05 31.6 21.05 31.6 21.1 31.85 21.1 31.9 20.95 31.75 20.75 31.7 20.75 31.65 19.2 Q31.65 17.9 31.8 17.35 L31.9 17.35 31.95 17.2 31.85 17.1" fill="#000000" fill-rule="evenodd" stroke="none"/>
      <path d="M29.45 11.65 L29.85 11.4 Q30.5 11.4 30.65 11.95 30.75 12.45 30.95 12.45 L31.1 12.4 31.1 12.35 31.15 12.35 Q31.2 12.1 31.6 11.55 L32.3 10.95 32.6 11.2 32.8 11.55 32.15 12.5 Q31.45 13.0 31.45 13.05 L31.5 13.2 31.55 13.2 31.45 15.05 31.45 16.15 31.5 17.0 30.15 17.0 30.15 13.1 30.0 13.15 29.7 12.6 29.45 11.95 29.45 11.65" fill="#ede8de" fill-rule="evenodd" stroke="none"/>
      <path d="M31.8 17.0 L31.85 17.1 31.95 17.2 31.9 17.35 31.8 17.35 Q31.65 17.9 31.65 19.2 L31.7 20.75 31.75 20.75 31.9 20.95 31.85 21.1 31.6 21.1 31.6 21.05 1.75 21.05 1.65 21.05 1.65 20.8 Q1.5 20.05 1.5 18.3 L1.65 17.15 3.85 17.45 29.45 17.35 29.8 17.35 31.6 17.2 31.65 17.2 31.8 17.0 M31.35 18.15 L31.3 18.0 29.45 17.95 Q28.95 17.95 28.95 18.15 L29.0 18.3 31.3 18.3 31.35 18.15 M22.2 20.2 L22.25 20.35 30.75 20.35 30.8 20.2 28.3 20.0 28.3 19.95 Q28.3 19.8 27.75 19.75 L22.4 19.6 22.2 19.7 22.1 19.85 21.9 19.9 21.8 20.0 6.6 20.0 6.45 20.15 6.5 20.3 22.0 20.3 22.0 20.2 22.2 20.2 M17.35 19.3 L27.2 19.3 27.25 19.15 27.2 19.0 9.6 18.9 7.7 19.2 7.75 19.25 4.65 19.25 4.5 19.45 4.55 19.6 17.35 19.6 17.4 19.45 17.35 19.3 M24.55 18.2 L24.2 18.0 22.55 18.0 20.75 18.0 20.75 18.25 20.8 18.3 24.35 18.4 24.55 18.2 M22.45 17.75 L22.4 17.6 20.65 17.6 20.65 17.85 20.7 17.9 22.4 17.9 22.45 17.75 M13.85 18.3 L13.8 18.1 3.25 18.15 2.25 18.3 2.3 18.45 13.8 18.45 13.85 18.3" fill="#85732e" fill-rule="evenodd" stroke="none"/>
      <path d="M31.35 18.15 L31.3 18.3 29.0 18.3 28.95 18.15 Q28.95 17.95 29.45 17.95 L31.3 18.0 31.35 18.15 M28.3 20.0 L28.25 20.1 24.6 20.1 22.25 20.1 22.25 20.2 22.2 20.2 22.0 20.2 22.0 20.3 6.5 20.3 6.45 20.15 6.6 20.0 21.8 20.0 21.9 19.9 22.1 19.85 22.2 19.7 22.4 19.6 27.75 19.75 Q28.3 19.8 28.3 19.95 L28.3 20.0 M17.35 19.3 L17.4 19.45 17.35 19.6 4.55 19.6 4.5 19.45 4.65 19.25 7.75 19.25 16.85 19.25 17.35 19.3 M22.45 17.75 L22.4 17.9 20.7 17.9 20.65 17.85 20.65 17.6 22.4 17.6 22.45 17.75" fill="#9d8837" fill-rule="evenodd" stroke="none"/>
      <path d="M24.6 20.1 L28.25 20.1 28.3 20.0 30.8 20.2 30.75 20.35 22.25 20.35 22.2 20.2 22.25 20.2 24.6 20.1 M7.75 19.25 L7.7 19.2 9.6 18.9 27.2 19.0 27.25 19.15 27.2 19.3 17.35 19.3 16.85 19.25 7.75 19.25 M24.55 18.2 L24.35 18.4 20.8 18.3 20.75 18.25 20.75 18.0 22.55 18.0 24.2 18.0 24.55 18.2 M13.85 18.3 L13.8 18.45 2.3 18.45 2.25 18.3 3.25 18.15 13.8 18.1 13.85 18.3" fill="#665126" fill-rule="evenodd" stroke="none"/>
      <path d="M24.6 20.1 L22.25 20.2 22.25 20.1 24.6 20.1" fill="#bfa748" fill-rule="evenodd" stroke="none"/>
      <path d="M32.4 13.2 L32.35 13.35 32.35 16.3 32.45 16.45 32.4 16.5 32.35 16.5 32.35 16.6 32.2 16.7 32.05 16.6 32.05 16.5 1.3 16.5 1.25 16.45 1.25 16.2 1.35 16.2 Q1.25 15.8 1.3 14.75 1.3 13.8 1.45 13.35 L1.2 13.35 1.15 13.3 1.15 13.05 1.55 13.05 1.55 13.0 1.6 13.05 32.35 13.05 32.4 13.2 M32.05 13.35 L1.65 13.35 1.65 16.2 32.05 16.15 32.05 13.35" fill="#000000" fill-rule="evenodd" stroke="none"/>
      <path d="M32.05 13.35 L32.05 16.15 1.65 16.2 1.65 13.35 32.05 13.35" fill="#990000" fill-rule="evenodd" stroke="none"/>
    </g>
    <g id="button2" transform="matrix(1.0, 0.0, 0.0, 1.0, 0.5, 0.5)">
      <use height="34.0" transform="matrix(1.0, 0.0, 0.0, 1.0, -0.5, -0.5)" width="34.0" xlink:href="#shape0"/>
      <use height="32.3" transform="matrix(1.0, 0.0, 0.0, 1.0, -0.3, 0.3)" width="33.0" xlink:href="#shape3"/>
    </g>
    <g id="shape3" transform="matrix(1.0, 0.0, 0.0, 1.0, 0.3, -0.3)">
      <path d="M29.85 0.7 L29.7 1.1 29.6 1.25 29.05 2.1 28.6 1.8 28.6 1.45 28.85 0.8 Q28.9 0.35 29.3 0.35 L29.4 0.4 Q29.85 0.1 29.85 0.7 M1.25 2.6 Q0.8 2.6 0.7 2.2 L0.7 1.7 Q0.7 1.15 1.45 0.65 2.2 0.2 2.2 0.95 L1.25 2.6 M1.85 29.35 L1.55 29.85 1.0 30.25 Q0.6 30.25 0.6 29.8 0.6 29.5 0.9 29.25 1.3 28.9 1.8 29.1 L1.85 29.35 M29.95 29.35 L29.8 29.95 29.4 30.25 Q28.95 30.25 28.95 29.8 28.95 29.4 29.45 29.0 29.95 28.55 29.95 29.35" fill="#ff6666" fill-rule="evenodd" stroke="none"/>
      <path d="M32.7 3.95 L32.7 4.35 31.45 4.6 Q30.2 4.6 30.2 4.2 30.2 3.9 30.7 3.65 L31.35 2.95 Q31.15 2.6 31.45 2.15 31.8 1.75 32.3 1.95 L32.7 3.95 M4.2 2.5 Q4.2 4.6 2.45 4.6 L2.05 4.55 Q1.95 4.05 2.1 3.9 L1.7 3.5 Q1.7 3.05 3.35 3.05 L3.9 2.1 Q4.2 1.65 4.2 2.5 M3.6 30.35 Q3.7 30.0 4.3 30.1 L4.35 32.05 Q4.25 32.6 3.75 32.6 L1.6 32.45 Q1.45 32.4 1.45 32.15 2.65 30.7 3.6 30.85 L3.6 30.35 M32.25 32.5 L31.25 32.5 30.25 32.5 29.85 32.05 30.05 31.8 31.3 31.25 31.2 30.65 Q31.2 30.25 31.55 29.8 31.95 29.25 32.25 29.95 L32.45 31.75 32.25 32.5" fill="#660000" fill-rule="evenodd" stroke="none"/>
      <path d="M16.05 24.65 Q16.05 24.9 16.35 24.9 L16.65 24.55 16.5 24.3 Q16.05 24.3 16.05 24.65 M17.6 24.3 L17.55 24.0 Q17.05 23.9 17.05 24.55 L17.3 24.85 Q17.6 24.85 17.6 24.3 M10.35 17.55 L10.3 17.0 Q10.05 17.15 10.05 18.55 L10.05 23.7 10.3 23.7 10.35 17.55 M13.5 12.75 L13.15 13.0 Q13.15 13.25 13.55 13.25 L13.8 13.0 Q13.8 12.65 13.5 12.75 M15.8 14.6 L15.75 14.55 15.55 14.55 15.55 25.35 15.6 25.4 15.8 25.35 15.8 14.6 M18.4 12.65 L18.45 12.75 18.45 21.8 18.6 21.9 18.75 21.85 18.75 13.05 19.1 13.55 20.4 14.8 20.8 15.4 21.25 16.2 21.2 16.6 21.2 16.65 Q20.9 16.7 20.9 17.85 L20.9 19.5 20.8 21.0 Q20.7 21.75 20.95 22.15 19.95 22.8 18.6 24.15 L17.35 25.45 15.55 25.45 12.0 25.35 11.55 25.4 10.05 23.7 9.95 23.6 8.15 21.75 8.2 17.75 8.15 16.9 8.2 16.85 8.25 16.3 9.0 15.4 10.2 14.25 11.9 12.35 11.9 12.25 12.75 12.25 12.7 12.45 12.75 13.25 12.75 14.85 12.75 17.8 13.0 17.8 13.05 12.25 18.1 12.25 18.4 12.65" fill="#734d26" fill-rule="evenodd" stroke="none"/>
      <path d="M18.45 12.35 Q20.55 14.2 21.4 15.95 L21.5 15.9 21.55 16.05 21.5 17.15 21.4 17.2 21.3 17.15 21.2 22.0 21.25 21.95 21.3 22.05 19.6 23.85 17.85 25.45 19.05 25.4 19.05 25.55 17.6 25.65 17.15 25.95 17.1 25.75 17.2 25.65 11.85 25.7 11.65 25.7 11.65 25.8 11.55 25.85 8.9 23.0 8.15 22.1 8.15 22.15 8.05 22.2 7.9 22.1 7.9 21.8 7.9 21.75 7.9 21.55 7.9 21.6 7.9 16.75 7.95 16.75 7.9 16.6 7.9 16.4 7.9 16.1 8.1 16.0 8.15 16.0 8.2 15.95 8.15 15.85 Q8.15 15.5 9.8 13.95 11.2 12.65 11.85 12.25 L11.8 12.25 11.75 12.2 11.75 12.0 12.9 11.95 13.05 11.9 13.05 11.95 18.4 12.0 18.45 12.15 18.4 12.25 18.45 12.35 M18.4 12.65 L18.1 12.25 13.05 12.25 13.0 17.8 12.75 17.8 12.75 14.85 12.75 13.25 12.7 12.45 12.75 12.25 11.9 12.25 11.9 12.35 10.2 14.25 9.0 15.4 8.25 16.3 8.2 16.85 8.15 16.9 8.2 17.75 8.15 21.75 9.95 23.6 10.05 23.7 11.55 25.4 12.0 25.35 15.55 25.45 17.35 25.45 18.6 24.15 Q19.95 22.8 20.95 22.15 20.7 21.75 20.8 21.0 L20.9 19.5 20.9 17.85 Q20.9 16.7 21.2 16.65 L21.2 16.6 21.25 16.2 20.8 15.4 20.4 14.8 19.1 13.55 18.75 13.05 18.75 21.85 18.6 21.9 18.45 21.8 18.45 12.75 18.4 12.65 M15.8 14.6 L15.8 25.35 15.6 25.4 15.55 25.35 15.55 14.55 15.75 14.55 15.8 14.6 M13.5 12.75 Q13.8 12.65 13.8 13.0 L13.55 13.25 Q13.15 13.25 13.15 13.0 L13.5 12.75 M10.35 17.55 L10.3 23.7 10.05 23.7 10.05 18.55 Q10.05 17.15 10.3 17.0 L10.35 17.55 M17.6 24.3 Q17.6 24.85 17.3 24.85 L17.05 24.55 Q17.05 23.9 17.55 24.0 L17.6 24.3 M16.05 24.65 Q16.05 24.3 16.5 24.3 L16.65 24.55 16.35 24.9 Q16.05 24.9 16.05 24.65" fill="#000000" fill-rule="evenodd" stroke="none"/>
      <path d="M14.8 16.15 L14.85 16.3 14.9 16.4 15.1 16.6 Q15.45 17.05 15.95 16.95 L16.35 16.9 16.35 16.75 16.35 16.7 16.4 16.7 16.4 16.65 16.65 16.65 16.65 16.7 16.8 16.65 Q17.5 16.6 18.4 17.75 L19.25 18.6 19.55 18.7 20.75 19.45 26.8 20.15 26.85 20.2 26.85 20.3 27.25 20.55 28.25 21.25 28.35 21.3 28.4 21.15 28.3 20.8 27.85 20.65 Q27.35 20.45 27.4 20.2 L28.4 20.4 29.3 20.55 29.3 20.5 29.0 19.9 Q27.9 20.2 27.75 19.6 L27.85 19.45 29.0 19.6 29.7 19.25 29.45 18.55 Q28.9 19.0 28.4 19.05 L28.1 18.8 28.4 18.75 29.5 18.1 30.2 17.2 29.4 17.05 Q28.7 16.9 28.7 16.6 L28.8 16.4 29.6 16.75 30.05 16.3 31.1 14.05 30.8 14.05 30.2 14.2 30.0 14.4 29.9 14.3 29.3 14.75 29.0 14.8 29.0 14.65 Q28.95 14.3 30.15 13.95 L30.65 12.95 30.85 12.4 30.95 12.05 Q29.95 12.25 29.4 12.7 L28.4 13.65 27.3 14.6 26.3 15.3 26.3 15.4 25.0 14.45 Q23.85 13.65 22.45 13.8 L21.85 13.95 21.75 14.0 21.2 14.15 20.05 14.4 19.95 14.4 19.95 14.45 18.6 14.8 Q17.85 15.15 17.75 15.25 L17.5 15.35 17.4 15.2 17.4 15.15 17.45 15.05 17.1 14.8 16.65 14.3 15.8 14.25 Q15.35 14.3 15.0 14.95 L14.65 15.45 14.7 15.5 14.7 15.7 14.55 15.7 14.55 15.8 13.8 16.3 14.35 16.15 14.6 16.1 14.6 16.15 14.8 16.15 M17.55 14.9 L17.7 14.85 17.75 15.0 Q19.05 14.3 19.95 14.15 L19.95 14.1 21.8 13.65 22.55 13.5 Q23.9 13.35 25.15 14.1 L26.25 15.1 30.4 11.85 31.15 11.8 31.15 11.85 31.15 11.9 31.25 11.85 31.25 12.1 30.85 13.25 30.5 13.85 31.45 13.6 31.5 13.7 30.9 15.4 29.8 16.8 Q30.5 16.9 30.5 17.15 L29.8 18.3 29.65 18.4 29.9 18.9 29.9 19.0 30.1 19.2 29.95 19.3 29.9 19.35 29.3 19.85 29.55 20.25 29.6 20.55 29.6 20.85 29.0 20.9 28.65 20.9 28.75 21.4 28.75 21.7 28.5 21.7 27.4 21.05 26.45 20.4 25.25 20.35 24.15 20.4 20.8 19.8 19.5 19.1 19.55 19.3 19.35 19.25 19.35 19.1 18.05 18.0 17.65 17.35 Q17.5 17.0 16.65 17.0 L16.4 17.2 15.25 17.2 15.8 17.2 15.35 17.2 15.25 17.2 14.85 16.9 14.55 17.0 14.3 16.85 14.1 16.6 13.85 16.7 13.4 16.9 13.35 16.7 Q13.35 16.35 13.65 16.0 L14.45 15.5 14.45 15.45 14.9 14.5 Q15.5 13.9 16.05 13.9 L16.2 13.9 16.2 14.0 17.15 14.0 17.15 14.25 16.95 14.4 Q17.15 14.45 17.3 14.65 L17.55 14.9 M15.5 15.25 L15.45 15.45 Q15.45 15.7 15.9 15.7 L16.2 15.7 16.35 15.45 16.0 15.1 15.95 15.1 15.8 15.35 15.5 15.4 15.5 15.25 M15.8 14.8 Q16.6 14.9 16.65 15.45 16.65 15.95 15.95 16.0 15.2 16.05 15.15 15.5 15.1 14.65 15.8 14.8 M22.4 15.4 L22.7 15.7 Q22.35 13.45 23.2 14.65 L23.55 15.55 23.85 16.4 Q24.95 16.55 25.2 16.8 L25.4 17.75 25.95 19.55 25.95 19.8 25.65 19.85 25.5 19.85 25.15 19.6 25.0 19.4 Q24.7 19.4 24.55 18.15 L23.85 17.45 23.55 17.3 23.6 17.6 23.0 18.2 22.9 18.05 22.95 17.6 22.4 17.1 21.85 16.75 21.9 16.6 22.35 16.4 21.85 15.45 21.85 15.2 21.95 15.15 22.4 15.4 M22.45 16.0 L22.7 16.6 22.5 16.75 Q23.3 17.2 23.2 17.6 L23.3 17.05 23.5 17.05 Q24.7 17.05 24.8 17.8 L25.1 19.15 25.1 19.2 25.35 19.3 25.4 19.5 25.6 19.5 25.4 18.45 25.0 17.0 24.2 16.8 23.65 16.6 23.25 15.9 22.85 14.75 22.8 14.75 23.0 16.35 22.9 16.4 22.5 15.95 22.45 15.95 22.45 16.0 M14.65 16.4 L14.25 16.55 14.65 16.55 14.65 16.4" fill="#000000" fill-rule="evenodd" stroke="none"/>
      <path d="M14.7 15.7 L14.7 15.5 14.65 15.45 15.0 14.95 Q15.35 14.3 15.8 14.25 L16.65 14.3 17.1 14.8 17.45 15.05 17.4 15.15 17.4 15.2 17.5 15.35 17.75 15.25 Q17.85 15.15 18.6 14.8 L19.95 14.45 19.95 14.4 20.05 14.4 21.2 14.15 21.75 14.0 21.85 13.95 22.45 13.8 Q23.85 13.65 25.0 14.45 L26.3 15.4 26.3 15.3 27.3 14.6 28.4 13.65 29.4 12.7 Q29.95 12.25 30.95 12.05 L30.85 12.4 30.65 12.95 30.15 13.95 Q28.95 14.3 29.0 14.65 L29.0 14.8 29.3 14.75 29.9 14.3 30.0 14.4 30.2 14.2 30.8 14.05 31.1 14.05 30.05 16.3 29.6 16.75 28.8 16.4 28.7 16.6 Q28.7 16.9 29.4 17.05 L30.2 17.2 29.5 18.1 28.4 18.75 28.1 18.8 28.4 19.05 Q28.9 19.0 29.45 18.55 L29.7 19.25 29.0 19.6 27.85 19.45 27.75 19.6 Q27.9 20.2 29.0 19.9 L29.3 20.5 29.3 20.55 28.4 20.4 27.4 20.2 Q27.35 20.45 27.85 20.65 L28.3 20.8 28.4 21.15 28.35 21.3 28.25 21.25 27.25 20.55 26.85 20.3 26.85 20.2 26.8 20.15 20.75 19.45 19.55 18.7 19.25 18.6 18.4 17.75 Q17.5 16.6 16.8 16.65 L16.65 16.7 16.65 16.65 16.4 16.65 16.4 16.7 16.35 16.7 16.35 16.75 16.35 16.9 15.95 16.95 Q15.45 17.05 15.1 16.6 L14.9 16.4 14.85 16.3 14.8 16.15 14.85 16.15 14.85 15.95 14.8 15.7 14.7 15.7 M22.4 15.4 L21.95 15.15 21.85 15.2 21.85 15.45 22.35 16.4 21.9 16.6 21.85 16.75 22.4 17.1 22.95 17.6 22.9 18.05 23.0 18.2 23.6 17.6 23.55 17.3 23.85 17.45 24.55 18.15 Q24.7 19.4 25.0 19.4 L25.15 19.6 25.5 19.85 25.65 19.85 25.95 19.8 25.95 19.55 25.4 17.75 25.2 16.8 Q24.95 16.55 23.85 16.4 L23.55 15.55 23.2 14.65 Q22.35 13.45 22.7 15.7 L22.4 15.4 M15.8 14.8 Q15.1 14.65 15.15 15.5 15.2 16.05 15.95 16.0 16.65 15.95 16.65 15.45 16.6 14.9 15.8 14.8 M15.5 15.25 L15.5 15.4 15.8 15.35 15.95 15.1 16.0 15.1 16.35 15.45 16.2 15.7 15.9 15.7 Q15.45 15.7 15.45 15.45 L15.5 15.25" fill="#ffffff" fill-rule="evenodd" stroke="none"/>
      <path d="M14.7 15.7 L14.8 15.7 14.85 15.95 14.85 16.15 14.8 16.15 14.6 16.15 14.6 16.1 14.35 16.15 13.8 16.3 14.55 15.8 14.55 15.7 14.7 15.7 M22.5 15.95 L22.9 16.4 23.0 16.35 22.8 14.75 22.85 14.75 23.25 15.9 23.65 16.6 24.2 16.8 25.0 17.0 25.4 18.45 25.6 19.5 25.4 19.5 25.35 19.3 25.1 19.2 25.1 19.15 24.8 17.8 Q24.7 17.05 23.5 17.05 L23.3 17.05 23.2 17.6 Q23.3 17.2 22.5 16.75 L22.7 16.6 22.45 16.0 22.5 15.95 M14.65 16.4 L14.65 16.55 14.25 16.55 14.65 16.4" fill="#ffff09" fill-rule="evenodd" stroke="none"/>
      <path d="M16.8 17.0 L16.9 17.0 16.8 17.0 M16.2 17.2 L16.3 17.2 16.35 17.2 16.05 17.25 16.55 17.35 16.7 18.0 16.8 18.7 16.65 19.4 16.95 19.4 16.95 19.35 17.2 19.3 17.25 19.4 18.4 19.35 19.35 19.45 19.55 19.4 19.7 19.4 19.6 19.35 19.75 18.75 19.75 18.7 19.85 18.35 19.95 17.1 19.95 16.7 20.05 16.15 20.15 15.45 20.25 14.8 20.2 14.35 20.2 14.15 20.2 14.05 Q20.4 13.4 21.2 13.55 L21.55 13.55 21.65 13.6 21.65 13.65 21.65 13.75 Q21.5 14.2 21.5 15.25 L21.5 15.6 21.45 16.05 21.2 18.85 21.1 19.0 Q21.1 19.55 21.75 19.55 L21.65 19.6 23.0 19.75 Q26.05 20.15 28.6 20.85 L29.6 21.1 30.7 21.4 31.2 21.5 31.25 21.65 31.15 21.7 25.4 21.25 Q21.65 21.0 18.1 21.2 L18.1 21.3 17.95 21.35 17.85 21.15 15.45 21.35 15.35 21.7 15.15 21.7 14.25 21.65 14.05 21.65 14.0 21.45 12.7 21.65 10.3 22.1 10.35 22.7 10.4 22.9 10.35 23.15 Q10.4 23.35 9.45 23.5 L9.5 23.75 9.3 23.85 9.2 23.55 9.05 23.55 9.0 23.45 9.1 23.3 8.9 22.6 8.65 22.75 8.2 23.55 8.0 23.8 7.55 24.05 Q7.05 24.1 6.75 23.6 L6.5 23.1 6.6 22.5 5.95 22.15 5.85 21.85 Q5.8 21.45 6.05 21.15 L6.25 20.95 4.3 15.4 4.3 15.35 4.2 15.25 4.55 14.6 4.9 14.2 4.85 14.2 4.85 14.0 5.0 13.9 7.35 14.35 9.3 14.8 9.45 14.75 10.95 19.3 11.0 19.3 11.25 19.4 11.25 19.65 11.3 19.9 12.7 19.8 12.95 19.75 12.85 19.5 12.95 18.45 12.8 17.9 12.8 17.6 14.0 17.4 15.05 17.3 15.1 17.3 15.95 17.2 16.05 17.2 16.2 17.2 M16.4 17.65 L13.05 17.8 13.05 18.0 13.2 18.4 13.15 19.75 14.05 19.65 14.3 19.6 14.45 19.2 14.45 19.25 14.5 19.15 14.95 19.1 15.7 19.2 15.85 19.3 15.85 19.45 16.3 19.4 16.5 18.45 16.4 17.65 M20.55 14.3 L20.45 14.3 20.4 14.4 20.45 15.1 Q20.3 15.45 20.3 16.5 L19.95 19.25 20.05 19.35 20.05 19.45 20.85 19.55 20.85 19.3 21.15 16.55 21.25 13.8 Q20.7 13.95 20.55 14.2 L20.55 14.3 M29.7 21.4 L25.4 20.5 22.05 20.0 Q21.85 20.15 21.95 20.45 L22.0 20.8 25.25 21.05 29.7 21.4 M21.5 19.55 L21.45 19.55 21.55 19.6 21.5 19.55 M21.7 20.5 Q21.65 20.15 21.75 19.95 L20.7 19.9 20.05 20.8 21.8 20.85 21.7 20.5 M19.85 20.8 L20.15 20.2 20.5 19.9 19.4 19.8 19.4 19.9 19.2 20.2 19.15 20.2 19.15 20.3 19.45 20.8 19.85 20.8 M18.7 19.8 L18.9 19.95 18.95 19.9 19.05 19.8 18.7 19.8 M17.5 20.5 L17.3 20.7 17.25 20.85 17.7 20.85 17.55 20.7 17.5 20.5 M19.1 20.8 L18.4 19.75 17.4 19.8 17.95 20.85 19.1 20.8 M15.3 19.45 L15.15 19.4 15.05 19.45 14.85 19.4 14.8 19.45 Q14.3 20.55 14.25 21.15 L14.9 21.4 15.2 21.1 15.25 21.1 15.3 20.85 15.35 20.75 15.45 20.0 15.45 19.9 15.45 19.75 15.4 19.5 15.45 19.5 15.5 19.4 15.3 19.45 M15.55 21.0 L15.75 21.0 16.95 20.9 17.15 20.5 17.35 20.2 17.05 19.8 15.75 19.85 15.65 20.4 15.55 21.0 M4.5 15.3 L5.5 18.05 6.4 20.85 6.4 20.9 6.75 20.9 Q7.05 20.7 7.25 20.75 L7.3 20.7 8.2 20.6 8.0 20.2 8.0 20.15 7.85 20.15 7.75 19.95 Q7.75 19.6 8.55 19.65 L9.55 19.6 9.7 19.6 9.85 20.2 10.0 20.2 11.1 19.9 11.05 19.9 10.75 19.9 10.05 17.3 Q9.4 15.85 9.25 15.05 L5.2 14.3 4.9 14.75 4.5 15.3 M13.75 20.4 L13.6 20.0 12.7 20.1 9.95 20.55 10.25 21.75 10.9 21.6 14.0 21.2 13.95 21.1 14.0 20.85 13.9 20.85 13.75 20.4 M14.25 19.9 L13.95 19.95 13.95 20.15 14.1 20.5 14.2 20.15 14.25 19.9 M9.65 20.6 L9.7 20.25 9.5 19.9 9.45 19.85 8.2 20.1 8.5 20.5 8.45 20.75 8.9 21.6 9.05 21.95 Q9.1 22.4 9.3 22.6 L9.4 22.9 9.4 23.2 10.15 23.05 10.05 22.75 10.05 22.55 9.8 21.4 9.75 21.2 9.75 21.0 9.65 20.6 M6.65 21.1 Q6.1 21.2 6.1 21.75 L6.2 22.0 7.0 22.2 7.05 22.3 6.75 23.0 6.95 23.45 Q7.2 23.75 7.55 23.75 L7.9 23.55 7.95 23.5 8.05 23.25 8.25 22.95 8.35 22.85 8.3 22.8 Q8.25 22.5 8.75 22.3 L8.8 22.3 8.35 20.95 7.6 21.1 7.55 21.15 7.55 21.2 7.4 21.25 7.15 21.1 6.95 21.05 6.95 21.15 6.8 21.25 6.7 21.1 6.65 21.1" fill="#000000" fill-rule="evenodd" stroke="none"/>
      <path d="M16.4 17.65 L16.5 18.45 16.3 19.4 15.85 19.45 15.85 19.3 15.7 19.2 14.95 19.1 14.5 19.15 14.45 19.25 14.45 19.2 14.3 19.6 14.05 19.65 13.15 19.75 13.2 18.4 13.05 18.0 13.05 17.8 16.4 17.65 M4.5 15.3 L4.9 14.75 5.2 14.3 9.25 15.05 Q9.4 15.85 10.05 17.3 L10.75 19.9 11.05 19.9 11.1 19.9 10.0 20.2 9.85 20.2 9.7 19.6 9.55 19.6 8.55 19.65 Q7.75 19.6 7.75 19.95 L7.85 20.15 8.0 20.15 8.0 20.2 8.2 20.6 7.3 20.7 7.25 20.75 Q7.05 20.7 6.75 20.9 L6.4 20.9 6.4 20.85 5.5 18.05 4.5 15.3" fill="#ac7339" fill-rule="evenodd" stroke="none"/>
      <path d="M20.55 14.3 L20.55 14.2 Q20.7 13.95 21.25 13.8 L21.15 16.55 20.85 19.3 20.85 19.55 20.05 19.45 20.05 19.35 19.95 19.25 20.3 16.5 Q20.3 15.45 20.45 15.1 L20.4 14.4 20.45 14.3 20.55 14.3 M15.3 19.45 L15.5 19.4 15.45 19.5 15.4 19.5 15.45 19.75 15.45 19.9 15.45 20.0 15.35 20.75 15.3 20.85 15.25 21.1 15.2 21.1 14.9 21.4 14.25 21.15 Q14.3 20.55 14.8 19.45 L14.85 19.4 15.05 19.45 15.15 19.4 15.3 19.45 M19.1 20.8 L17.95 20.85 17.4 19.8 18.4 19.75 19.1 20.8 M17.5 20.5 L17.55 20.7 17.7 20.85 17.25 20.85 17.3 20.7 17.5 20.5 M18.7 19.8 L19.05 19.8 18.95 19.9 18.9 19.95 18.7 19.8 M19.85 20.8 L19.45 20.8 19.15 20.3 19.15 20.2 19.2 20.2 19.4 19.9 19.4 19.8 20.5 19.9 20.15 20.2 19.85 20.8 M21.7 20.5 L21.8 20.85 20.05 20.8 20.7 19.9 21.75 19.95 Q21.65 20.15 21.7 20.5 M14.25 19.9 L14.2 20.15 14.1 20.5 13.95 20.15 13.95 19.95 14.25 19.9 M9.65 20.6 L9.75 21.0 9.75 21.2 9.8 21.4 10.05 22.55 10.05 22.75 10.15 23.05 9.4 23.2 9.4 22.9 9.3 22.6 Q9.1 22.4 9.05 21.95 L8.9 21.6 8.45 20.75 8.5 20.5 8.2 20.1 9.45 19.85 9.5 19.9 9.7 20.25 9.65 20.6" fill="#c8b159" fill-rule="evenodd" stroke="none"/>
      <path d="M26.45 16.8 L26.35 16.65 26.65 16.45 26.75 16.6 Q26.55 16.6 26.45 16.75 L26.45 16.8 M27.25 16.65 L27.8 16.5 27.8 16.55 27.9 16.85 28.15 16.95 28.15 17.0 27.25 16.65" fill="#ffffff" fill-rule="evenodd" stroke="none"/>
      <path d="M29.7 21.4 L25.25 21.05 22.0 20.8 21.95 20.45 Q21.85 20.15 22.05 20.0 L25.4 20.5 29.7 21.4 M15.55 21.0 L15.65 20.4 15.75 19.85 17.05 19.8 17.35 20.2 17.15 20.5 16.95 20.9 15.75 21.0 15.55 21.0 M13.75 20.4 L13.9 20.85 14.0 20.85 13.95 21.1 14.0 21.2 10.9 21.6 10.25 21.75 9.95 20.55 12.7 20.1 13.6 20.0 13.75 20.4 M6.65 21.1 L6.7 21.1 6.8 21.25 6.95 21.15 6.95 21.05 7.15 21.1 7.4 21.25 7.55 21.2 7.55 21.15 7.6 21.1 8.35 20.95 8.8 22.3 8.75 22.3 Q8.25 22.5 8.3 22.8 L8.35 22.85 8.25 22.95 8.05 23.25 7.95 23.5 7.9 23.55 7.55 23.75 Q7.2 23.75 6.95 23.45 L6.75 23.0 7.05 22.3 7.0 22.2 6.2 22.0 6.1 21.75 Q6.1 21.2 6.65 21.1" fill="#e2e0d8" fill-rule="evenodd" stroke="none"/>
      <path d="M7.25 6.55 Q7.4 7.2 6.8 7.85 L5.45 9.05 4.8 9.55 4.85 9.6 4.45 9.8 7.5 14.85 7.6 15.1 Q7.9 15.1 8.15 15.4 L8.55 16.05 8.6 16.8 7.85 17.5 6.65 17.4 6.1 16.9 Q6.0 16.5 6.2 15.95 L6.4 15.7 3.5 10.35 3.1 10.7 3.1 10.55 3.15 10.4 3.1 10.4 3.05 10.5 2.95 10.6 2.9 10.55 2.0 10.95 0.95 11.15 0.3 10.45 -0.2 9.4 Q-0.45 8.65 -0.15 8.3 L1.4 7.15 1.25 6.7 1.15 6.25 Q1.2 6.05 1.8 5.9 1.9 5.85 2.45 6.35 L3.35 5.65 Q4.35 4.6 5.5 4.85 L6.4 5.55 7.25 6.55 M1.9 6.15 L1.4 6.4 1.55 6.85 1.6 6.95 1.7 7.1 2.0 6.6 2.15 6.5 1.9 6.2 1.9 6.15 M1.45 7.6 L1.5 7.55 1.4 7.5 0.1 8.45 Q-0.2 8.75 0.05 9.35 L0.5 10.25 0.85 10.65 0.9 10.9 1.9 10.65 2.8 10.3 2.6 8.95 2.25 8.6 2.1 8.4 1.9 7.95 1.5 7.9 1.4 7.7 1.5 7.7 1.45 7.6 M2.5 7.6 L2.4 6.95 2.3 6.75 1.9 7.55 2.2 7.6 2.5 7.6 M2.9 6.95 L2.85 6.95 3.25 7.4 3.35 7.6 3.35 7.55 3.75 8.0 3.8 8.1 3.7 8.1 3.7 8.15 5.35 8.85 5.75 8.5 Q7.15 7.3 6.95 6.65 L6.2 5.6 Q5.5 4.9 4.85 5.1 4.0 5.35 2.7 6.6 L2.9 6.95 M2.7 7.35 L2.7 7.45 2.75 7.35 2.7 7.35 M4.3 9.2 L4.3 9.35 4.35 9.45 4.65 9.4 5.15 9.0 3.9 8.5 4.0 8.75 4.3 9.05 4.3 9.2 M3.45 9.75 L3.85 9.05 3.8 8.95 3.45 8.3 3.4 8.25 3.1 8.2 3.1 9.2 3.4 9.7 3.4 9.75 3.45 9.75 M2.2 8.0 L2.3 8.1 2.4 8.1 2.2 8.0 M3.2 9.95 L3.1 9.9 3.1 10.0 3.2 9.95 M3.7 10.1 L4.15 10.85 5.0 12.5 Q5.2 13.25 6.6 15.4 6.85 15.2 7.2 15.1 L7.35 15.1 4.25 9.95 4.05 10.0 3.7 10.1 M6.85 15.5 L6.95 15.6 6.95 15.7 Q6.25 16.3 6.4 16.8 L6.8 17.1 7.75 17.2 Q8.5 16.9 8.25 16.15 7.9 15.1 7.05 15.4 L6.85 15.5" fill="#000000" fill-rule="evenodd" stroke="none"/>
      <path d="M1.9 6.15 L1.9 6.2 2.15 6.5 2.0 6.6 1.7 7.1 1.6 6.95 1.55 6.85 1.4 6.4 1.9 6.15 M2.5 7.6 L2.2 7.6 1.9 7.55 2.3 6.75 2.4 6.95 2.5 7.6 M3.4 9.7 L3.1 9.2 3.1 8.2 3.4 8.25 3.45 8.3 3.8 8.95 3.85 9.05 3.45 9.75 3.4 9.7 M6.85 15.5 L7.05 15.4 Q7.9 15.1 8.25 16.15 8.5 16.9 7.75 17.2 L6.8 17.1 6.4 16.8 Q6.25 16.3 6.95 15.7 L6.95 15.6 6.85 15.5 M3.7 10.1 L4.05 10.0 4.25 9.95 7.35 15.1 7.2 15.1 Q6.85 15.2 6.6 15.4 5.2 13.25 5.0 12.5 L4.15 10.85 3.7 10.1" fill="#734d26" fill-rule="evenodd" stroke="none"/>
      <path d="M1.45 7.6 L1.5 7.7 1.4 7.7 1.5 7.9 1.9 7.95 2.1 8.4 2.25 8.6 2.6 8.95 2.8 10.3 1.9 10.65 0.9 10.9 0.85 10.65 0.5 10.25 0.05 9.35 Q-0.2 8.75 0.1 8.45 L1.4 7.5 1.5 7.55 1.45 7.6 M2.9 6.95 L2.7 6.6 Q4.0 5.35 4.85 5.1 5.5 4.9 6.2 5.6 L6.95 6.65 Q7.15 7.3 5.75 8.5 L5.35 8.85 3.7 8.15 3.7 8.1 3.8 8.1 3.75 8.0 3.35 7.55 3.35 7.6 3.25 7.4 2.85 6.95 2.9 6.95 M4.3 9.2 L4.3 9.05 4.0 8.75 3.9 8.5 5.15 9.0 4.65 9.4 4.35 9.45 4.3 9.35 4.3 9.2" fill="#9d9d9d" fill-rule="evenodd" stroke="none"/>
    </g>
    <g id="button3" transform="matrix(1.0, 0.0, 0.0, 1.0, 0.5, 0.5)">
      <use height="34.0" transform="matrix(1.0, 0.0, 0.0, 1.0, -0.5, -0.5)" width="34.0" xlink:href="#shape0"/>
      <use height="32.3" transform="matrix(1.0, 0.0, 0.0, 1.0, 0.6, 0.3)" width="32.1" xlink:href="#shape4"/>
    </g>
    <g id="shape4" transform="matrix(1.0, 0.0, 0.0, 1.0, -0.6, -0.3)">
      <path d="M29.85 0.7 L29.7 1.1 29.6 1.25 29.05 2.1 28.6 1.8 28.6 1.45 28.85 0.8 Q28.9 0.35 29.3 0.35 L29.4 0.4 Q29.85 0.1 29.85 0.7 M1.25 2.6 Q0.8 2.6 0.7 2.2 L0.7 1.7 Q0.7 1.15 1.45 0.65 2.2 0.2 2.2 0.95 L1.25 2.6 M1.85 29.35 L1.55 29.85 1.0 30.25 Q0.6 30.25 0.6 29.8 0.6 29.5 0.9 29.25 1.3 28.9 1.8 29.1 L1.85 29.35 M29.95 29.35 L29.8 29.95 29.4 30.25 Q28.95 30.25 28.95 29.8 28.95 29.4 29.45 29.0 29.95 28.55 29.95 29.35" fill="#ff6666" fill-rule="evenodd" stroke="none"/>
      <path d="M32.7 3.95 L32.7 4.35 31.45 4.6 Q30.2 4.6 30.2 4.2 30.2 3.9 30.7 3.65 L31.35 2.95 Q31.15 2.6 31.45 2.15 31.8 1.75 32.3 1.95 L32.7 3.95 M4.2 2.5 Q4.2 4.6 2.45 4.6 L2.05 4.55 Q1.95 4.05 2.1 3.9 L1.7 3.5 Q1.7 3.05 3.35 3.05 L3.9 2.1 Q4.2 1.65 4.2 2.5 M3.6 30.35 Q3.7 30.0 4.3 30.1 L4.35 32.05 Q4.25 32.6 3.75 32.6 L1.6 32.45 Q1.45 32.4 1.45 32.15 2.65 30.7 3.6 30.85 L3.6 30.35 M32.25 32.5 L31.25 32.5 30.25 32.5 29.85 32.05 30.05 31.8 31.3 31.25 31.2 30.65 Q31.2 30.25 31.55 29.8 31.95 29.25 32.25 29.95 L32.45 31.75 32.25 32.5" fill="#660000" fill-rule="evenodd" stroke="none"/>
      <path d="M7.7 22.1 L8.55 21.5 Q9.25 21.05 10.0 20.85 L10.25 20.8 10.3 20.8 11.05 20.85 11.5 20.9 11.9 20.35 Q12.05 20.05 12.5 19.85 L12.8 19.75 13.1 19.65 13.55 19.7 13.65 19.85 14.15 19.45 14.2 19.35 14.3 19.3 14.45 19.3 14.55 19.35 14.75 19.55 14.95 18.85 14.55 18.5 14.5 18.2 14.65 18.1 15.4 18.65 15.6 18.6 15.65 18.75 15.65 18.85 15.8 18.95 Q16.3 18.55 17.65 18.25 L18.65 18.35 19.15 17.25 19.2 17.15 Q19.4 16.8 19.85 16.75 L20.25 16.85 20.45 17.05 20.3 17.4 Q20.05 17.6 20.1 17.75 L20.3 18.05 20.7 18.15 22.25 17.4 22.6 17.2 23.2 16.9 22.6 16.2 22.25 15.65 22.2 15.5 22.25 15.2 22.6 14.85 22.85 14.65 23.65 14.15 23.3 13.9 22.9 13.45 Q22.85 13.1 23.1 13.05 L22.6 12.75 22.25 12.6 22.05 12.55 22.0 12.45 21.8 12.3 22.25 11.7 22.7 11.05 22.75 10.95 24.1 9.05 24.0 8.85 23.7 8.9 22.2 9.8 20.55 9.65 18.8 9.45 18.3 9.65 18.3 9.7 17.95 10.1 17.7 10.25 17.1 10.6 16.7 10.8 15.95 11.25 15.65 11.4 14.95 11.75 13.05 13.5 11.85 15.45 10.35 17.25 10.0 17.55 9.85 17.65 10.0 17.7 10.35 17.9 10.6 18.1 11.0 18.65 Q11.15 19.3 10.3 20.05 L10.0 20.25 Q9.05 20.9 7.3 21.55 7.65 21.65 7.65 22.05 L7.65 22.1 7.7 22.1 M3.25 24.8 L3.25 24.55 4.05 24.25 3.8 24.35 8.35 23.2 7.95 22.65 7.8 22.85 7.35 22.95 7.3 22.55 7.35 22.1 Q7.25 21.6 6.7 21.9 L6.6 21.75 Q6.5 21.35 7.3 21.15 L9.3 20.3 10.0 19.8 10.0 18.75 9.95 18.75 9.85 18.6 10.0 18.5 10.0 18.1 9.85 18.0 9.5 18.1 7.8 19.9 Q7.5 19.95 7.55 19.8 L7.6 19.75 7.5 19.7 7.9 18.9 8.55 18.25 8.55 18.3 9.65 17.25 10.0 16.95 10.0 15.85 10.05 15.85 10.0 15.65 10.0 15.45 10.0 15.1 10.2 15.0 10.25 14.95 10.3 14.9 10.25 14.8 Q10.25 14.4 12.2 12.6 13.65 11.25 14.4 10.7 L13.35 7.0 13.35 6.3 Q12.45 6.1 12.2 4.8 12.2 4.05 12.35 3.75 12.75 3.0 14.05 3.0 15.55 3.0 15.65 4.65 15.65 5.25 15.25 5.7 L15.1 5.9 15.2 5.85 16.35 10.25 16.75 10.25 17.1 10.05 17.25 10.0 Q17.35 9.75 17.9 9.45 18.05 9.25 18.7 9.15 L20.3 9.3 21.15 9.45 22.15 9.45 23.0 9.0 23.6 8.55 24.15 8.45 24.4 9.05 23.6 10.35 23.15 10.95 24.85 11.95 25.7 12.6 26.0 13.4 26.05 13.95 25.6 13.9 25.55 13.9 26.45 14.1 26.6 13.9 26.8 13.7 Q27.95 13.45 28.2 14.35 L28.05 14.85 28.05 14.9 28.1 15.0 28.5 15.5 28.55 15.65 28.8 15.95 28.95 15.8 29.0 15.85 29.25 15.75 29.55 15.9 29.75 15.95 29.75 16.3 28.95 16.2 28.95 16.15 27.5 17.5 27.6 17.75 27.75 18.15 27.05 18.65 27.8 19.35 28.65 19.1 28.85 19.2 29.15 18.95 29.25 18.8 29.3 18.8 29.75 18.2 29.75 18.8 29.65 18.95 29.75 19.05 29.75 19.4 29.5 19.25 29.45 19.2 28.85 19.8 28.6 19.85 28.5 19.7 28.55 19.5 27.5 19.75 27.3 19.35 26.75 18.8 Q26.65 18.35 27.15 18.2 L27.0 18.15 26.85 18.15 26.65 18.15 26.55 18.1 26.1 18.3 25.6 18.25 25.45 21.95 25.55 21.9 25.6 22.05 23.6 24.15 21.55 26.0 22.95 25.95 23.0 26.1 21.3 26.2 20.75 26.55 20.7 26.35 20.8 26.2 14.55 26.3 14.65 26.6 14.75 27.0 14.6 27.1 Q14.25 27.2 13.4 25.65 L13.1 25.35 12.0 25.65 12.0 26.35 12.75 28.55 12.6 28.65 Q12.3 28.7 11.35 27.6 L10.0 26.15 10.0 26.05 4.35 26.8 3.25 26.9 3.25 26.6 11.6 25.35 12.85 25.1 13.15 25.05 13.15 25.0 13.4 24.95 13.4 25.0 13.45 25.0 14.45 24.65 14.4 24.6 Q14.3 24.3 14.7 24.1 L14.75 24.25 14.75 24.45 15.55 24.05 17.25 23.25 17.8 23.0 17.8 22.65 17.0 21.55 16.7 21.2 16.3 21.3 16.35 21.75 15.65 21.65 14.95 22.2 14.5 21.95 14.5 22.25 14.4 21.9 14.55 21.85 14.85 22.15 Q15.35 21.6 15.6 21.55 L16.2 21.65 16.05 21.3 16.6 21.1 16.15 20.6 12.8 22.1 12.6 22.15 12.5 22.2 11.3 22.65 10.85 22.8 4.4 24.55 3.25 24.8 M22.6 11.6 L22.4 11.85 22.6 12.0 22.65 12.0 22.6 12.2 22.5 12.3 22.6 12.35 23.05 12.5 23.7 13.1 Q23.7 13.25 23.2 13.4 23.9 13.7 24.05 14.35 24.1 14.6 23.75 14.7 L22.6 15.35 22.45 15.45 22.6 15.65 23.05 16.15 23.5 16.85 23.45 17.0 24.4 16.15 24.3 15.15 24.8 14.0 25.0 13.7 25.25 13.4 25.65 13.3 24.4 12.15 23.25 11.6 22.85 11.3 22.65 11.6 22.6 11.6 M24.4 17.0 L24.45 17.15 24.55 17.15 24.55 16.95 25.15 17.15 25.2 17.15 25.6 17.35 25.75 17.5 25.6 17.85 26.05 17.95 26.4 17.75 Q26.5 17.6 26.7 17.6 L26.75 17.6 28.5 16.1 28.15 15.9 28.0 16.1 27.75 16.15 27.65 16.0 Q27.6 15.65 28.15 15.45 L27.85 15.35 26.9 16.25 26.8 16.1 Q26.75 15.9 27.15 15.35 L27.65 14.95 Q27.7 14.7 27.9 14.4 27.2 14.0 26.9 14.05 L26.7 14.25 26.75 14.3 25.95 15.25 25.9 15.2 25.75 15.05 25.9 14.95 26.3 14.55 25.05 14.15 24.95 14.25 Q24.6 14.65 24.55 15.35 L24.35 16.7 24.3 16.7 24.3 16.85 24.3 16.9 24.1 17.2 23.45 17.3 23.4 17.25 23.35 17.05 23.3 17.15 24.0 18.5 24.1 18.8 23.95 18.9 23.9 18.9 22.6 20.9 22.6 21.8 22.45 21.85 22.3 21.8 22.25 22.35 Q22.05 23.05 21.05 23.25 L19.55 23.45 19.2 23.55 19.2 25.9 18.95 25.95 18.9 25.9 18.9 23.65 Q17.65 24.15 16.05 25.75 15.8 25.8 15.4 25.05 15.2 24.85 14.8 24.75 L14.65 24.8 14.55 25.6 14.55 25.9 14.75 25.9 18.9 26.0 21.0 26.0 22.45 24.5 Q24.05 22.9 25.2 22.15 24.9 21.7 25.0 20.8 L25.15 19.05 25.15 17.45 24.8 17.35 24.3 17.2 24.4 17.0 M27.45 18.1 L27.4 18.05 27.4 18.1 27.45 18.1 M27.2 17.75 L27.15 17.8 27.25 17.85 27.2 17.75 M19.8 13.95 L20.0 13.7 20.05 13.9 20.3 13.85 20.6 13.6 21.0 13.5 21.05 13.65 20.65 13.65 20.1 14.0 19.9 13.95 19.4 14.2 19.2 14.5 19.15 14.5 18.9 14.45 18.85 14.4 Q18.75 14.25 18.9 14.1 L19.2 13.85 19.55 13.6 19.5 12.65 19.3 12.15 18.95 11.6 19.05 11.55 19.4 12.1 19.6 12.65 19.65 13.8 19.85 13.5 19.9 13.6 19.75 13.95 19.75 14.0 19.8 13.95 M22.25 17.85 L20.75 18.45 20.1 18.3 19.75 17.9 19.95 17.15 19.7 17.05 19.2 17.95 18.95 18.75 18.9 18.8 18.85 18.85 17.7 18.7 17.15 18.85 Q17.1 20.05 16.5 20.25 L17.25 21.1 18.1 22.6 18.9 22.5 18.95 22.5 19.2 22.65 19.6 22.65 Q20.3 22.5 21.1 20.9 L21.35 20.8 21.45 20.95 20.7 22.0 Q20.45 22.85 19.7 23.0 L19.2 23.05 19.05 23.0 18.9 22.95 18.5 22.9 18.1 23.3 18.05 23.3 16.0 24.25 15.05 24.65 15.5 24.75 Q15.85 24.9 15.85 25.25 L16.05 25.3 Q17.7 23.85 18.9 23.35 L19.2 23.25 19.5 23.15 21.0 22.95 Q21.6 22.8 22.2 21.1 L22.25 20.95 22.6 20.15 Q23.05 19.2 23.7 18.65 L23.4 18.15 23.0 17.4 23.0 17.35 22.6 17.65 22.25 17.85 M20.5 19.05 L20.3 19.1 20.25 18.85 20.5 19.05 M21.3 24.65 Q21.3 25.3 20.95 25.3 20.65 25.3 20.65 24.95 20.65 24.2 21.25 24.3 L21.3 24.65 M14.1 3.9 Q14.85 3.9 14.85 4.45 L14.75 4.85 14.5 4.85 14.55 4.45 14.35 4.25 Q14.15 4.25 14.1 3.9 M13.6 3.8 L13.2 4.55 13.3 4.9 Q13.45 5.15 13.7 5.05 L13.75 5.2 13.7 5.35 13.4 5.35 12.95 4.95 12.9 4.5 Q12.9 3.85 13.55 3.65 L13.6 3.8 M13.8 6.0 Q14.65 6.0 15.05 5.4 L15.35 4.65 Q15.35 3.3 13.95 3.3 12.5 3.3 12.5 4.85 L12.85 5.5 Q13.3 6.0 13.8 6.0 M14.35 7.05 L13.85 7.05 14.7 10.3 15.8 10.25 15.95 10.2 15.95 10.25 16.0 10.25 15.5 8.55 15.1 7.0 14.35 7.05 M14.4 6.3 L13.75 6.35 13.75 6.75 14.9 6.7 14.9 6.35 14.4 6.3 M14.65 10.75 L14.5 11.05 12.65 12.95 11.25 14.25 10.4 15.35 10.3 15.95 10.25 16.0 10.35 16.7 11.15 15.85 12.15 14.25 12.6 13.55 Q12.65 12.8 15.2 11.2 L15.6 11.0 15.55 10.85 15.6 10.6 14.65 10.6 14.65 10.75 M15.95 10.75 L16.25 10.6 15.95 10.6 15.95 10.75 M16.45 12.05 L17.7 12.0 18.45 12.4 18.95 12.8 18.2 11.0 18.45 10.95 18.35 11.2 19.0 12.35 19.15 13.2 19.1 13.2 19.1 13.3 18.95 13.75 18.9 13.95 18.55 14.7 18.25 15.6 Q17.95 16.05 16.15 16.45 L15.9 16.5 15.65 16.5 15.2 16.5 13.75 16.55 13.7 16.55 13.65 16.35 13.2 15.75 13.25 15.6 13.2 15.6 13.1 15.35 Q12.95 14.7 13.6 14.1 L15.3 12.6 15.6 12.4 15.95 12.25 16.45 12.05 M8.6 18.55 L8.5 18.75 9.05 18.3 8.75 18.4 8.6 18.55 M8.4 22.65 L8.65 23.1 10.6 22.5 11.0 22.35 11.5 22.15 11.45 22.1 11.5 21.25 11.05 21.2 10.3 21.15 10.0 21.25 Q8.85 21.55 8.2 22.25 L8.4 22.65 M17.95 12.5 Q17.15 12.1 16.6 12.25 L15.95 12.55 15.65 12.75 15.6 12.8 Q14.95 13.25 14.65 13.7 L13.75 14.65 Q13.3 14.9 13.35 15.2 L13.5 15.35 13.5 15.4 13.6 15.75 14.1 16.1 14.15 16.2 15.0 16.0 15.4 16.05 15.55 16.15 15.65 16.15 15.9 16.1 16.05 16.05 16.55 16.0 17.75 15.35 18.25 14.45 18.65 13.7 18.75 13.1 17.95 12.5 M11.4 18.25 L11.45 18.8 11.2 19.3 11.3 18.3 11.4 18.25 M13.1 15.95 L13.15 16.1 12.95 16.15 12.9 16.35 Q13.05 16.9 13.35 17.0 L13.35 17.1 Q12.95 17.1 12.85 16.4 12.75 16.0 13.0 15.85 L13.1 15.95 M14.45 19.65 L14.3 19.8 13.9 20.15 13.45 20.25 Q13.35 19.95 13.1 20.0 L12.8 20.1 12.5 20.2 12.1 20.4 12.05 20.95 12.0 21.05 11.85 22.05 12.5 21.75 12.8 21.6 14.35 20.95 14.3 20.85 Q14.2 20.4 14.55 19.8 L14.45 19.65 M14.65 20.8 L16.05 20.25 15.95 20.15 16.35 19.8 16.75 19.15 16.65 19.0 Q16.15 19.2 15.85 19.35 L15.45 19.2 14.9 20.1 14.85 20.25 14.65 20.8 M10.35 19.45 L10.7 18.65 10.35 18.65 10.3 19.5 10.35 19.45 M12.3 23.75 Q12.0 23.9 11.85 24.0 L11.65 24.1 11.6 24.05 11.75 23.85 11.9 23.6 12.15 23.55 12.5 23.5 12.75 23.4 12.95 23.35 13.15 23.35 12.75 23.55 12.5 23.65 12.3 23.75 M19.7 18.85 L20.05 18.75 19.95 18.8 Q19.7 18.85 19.55 19.05 L19.2 19.3 19.15 19.3 18.9 19.3 18.8 19.25 18.9 19.15 19.2 18.95 19.25 18.95 19.2 19.1 19.15 19.1 19.2 19.15 19.7 18.85 M16.3 22.7 L16.8 22.35 17.4 22.25 17.4 22.35 17.3 22.45 17.2 22.4 Q17.2 22.3 17.1 22.35 L16.3 22.7 M19.8 25.35 Q19.5 25.35 19.5 25.05 19.5 24.65 20.0 24.65 L20.2 24.95 Q20.2 25.35 19.8 25.35 M14.2 25.4 L14.25 24.95 13.6 25.2 13.55 25.2 14.15 26.35 14.15 25.9 14.2 25.4 M11.7 25.7 L11.65 25.75 10.35 26.0 11.05 26.7 12.0 27.8 11.7 26.4 11.7 25.7" fill="#000000" fill-rule="evenodd" stroke="none"/>
      <path d="M24.3 16.9 L24.4 17.0 24.3 17.2 24.8 17.35 25.15 17.45 25.15 19.05 25.0 20.8 Q24.9 21.7 25.2 22.15 24.05 22.9 22.45 24.5 L21.0 26.0 18.9 26.0 14.75 25.9 14.55 25.9 14.55 25.6 14.65 24.8 14.8 24.75 Q15.2 24.85 15.4 25.05 15.8 25.8 16.05 25.75 17.65 24.15 18.9 23.65 L18.9 25.9 18.95 25.95 19.2 25.9 19.2 23.55 19.55 23.45 21.05 23.25 Q22.05 23.05 22.25 22.35 L22.3 21.8 22.45 21.85 22.6 21.8 22.6 20.9 23.9 18.9 23.95 18.9 24.1 18.8 24.0 18.5 23.3 17.15 23.35 17.05 23.4 17.25 23.45 17.3 24.1 17.2 24.3 16.9 M19.75 13.95 L19.8 13.95 19.75 14.0 19.75 13.95 M21.3 24.65 L21.25 24.3 Q20.65 24.2 20.65 24.95 20.65 25.3 20.95 25.3 21.3 25.3 21.3 24.65 M14.35 7.05 L15.1 7.0 15.5 8.55 16.0 10.25 15.95 10.25 15.95 10.2 15.8 10.25 14.7 10.3 13.85 7.05 14.35 7.05 M13.8 6.0 Q13.3 6.0 12.85 5.5 L12.5 4.85 Q12.5 3.3 13.95 3.3 15.35 3.3 15.35 4.65 L15.05 5.4 Q14.65 6.0 13.8 6.0 M13.6 3.8 L13.55 3.65 Q12.9 3.85 12.9 4.5 L12.95 4.95 13.4 5.35 13.7 5.35 13.75 5.2 13.7 5.05 Q13.45 5.15 13.3 4.9 L13.2 4.55 13.6 3.8 M14.1 3.9 Q14.15 4.25 14.35 4.25 L14.55 4.45 14.5 4.85 14.75 4.85 14.85 4.45 Q14.85 3.9 14.1 3.9 M15.95 10.75 L15.95 10.6 16.25 10.6 15.95 10.75 M14.65 10.75 L14.65 10.6 15.6 10.6 15.55 10.85 15.6 11.0 15.2 11.2 Q12.65 12.8 12.6 13.55 L12.15 14.25 11.15 15.85 10.35 16.7 10.25 16.0 10.3 15.95 10.4 15.35 11.25 14.25 12.65 12.95 14.5 11.05 14.65 10.75 M10.35 19.45 L10.3 19.5 10.35 18.65 10.7 18.65 10.35 19.45 M19.8 25.35 Q20.2 25.35 20.2 24.95 L20.0 24.65 Q19.5 24.65 19.5 25.05 19.5 25.35 19.8 25.35" fill="#734d26" fill-rule="evenodd" stroke="none"/>
      <path d="M14.4 6.3 L14.9 6.35 14.9 6.7 13.75 6.75 13.75 6.35 14.4 6.3" fill="#ecd9c6" fill-rule="evenodd" stroke="none"/>
      <path d="M7.65 22.05 Q7.65 21.65 7.3 21.55 9.05 20.9 10.0 20.25 L10.3 20.05 Q11.15 19.3 11.0 18.65 L10.6 18.1 10.35 17.9 10.0 17.7 9.85 17.65 10.0 17.55 10.35 17.25 11.85 15.45 13.05 13.5 14.95 11.75 15.65 11.4 15.95 11.25 16.7 10.8 17.1 10.6 17.7 10.25 17.95 10.1 18.3 9.7 18.3 9.65 18.8 9.45 20.55 9.65 22.2 9.8 23.7 8.9 24.0 8.85 24.1 9.05 22.75 10.95 22.7 11.05 22.25 11.7 21.8 12.3 22.0 12.45 22.05 12.55 22.25 12.6 22.6 12.75 23.1 13.05 Q22.85 13.1 22.9 13.45 L23.3 13.9 23.65 14.15 22.85 14.65 22.6 14.85 22.25 15.2 22.2 15.5 22.25 15.65 22.6 16.2 23.2 16.9 22.6 17.2 22.25 17.4 20.7 18.15 20.3 18.05 20.1 17.75 Q20.05 17.6 20.3 17.4 L20.45 17.05 20.25 16.85 19.85 16.75 Q19.4 16.8 19.2 17.15 L19.15 17.25 18.65 18.35 17.65 18.25 Q16.3 18.55 15.8 18.95 L15.65 18.85 15.65 18.75 15.6 18.6 15.4 18.65 14.65 18.1 14.5 18.2 14.55 18.5 14.95 18.85 14.75 19.55 14.55 19.35 14.45 19.3 14.3 19.3 14.2 19.35 14.15 19.45 13.65 19.85 13.55 19.7 13.1 19.65 12.8 19.75 12.5 19.85 Q12.05 20.05 11.9 20.35 L11.5 20.9 11.05 20.85 10.3 20.8 10.25 20.8 10.0 20.85 Q9.25 21.05 8.55 21.5 L7.7 22.1 7.65 22.05 M29.75 16.3 L29.75 18.2 29.3 18.8 29.25 18.8 29.15 18.95 28.85 19.2 28.65 19.1 27.8 19.35 27.05 18.65 27.75 18.15 27.6 17.75 27.5 17.5 28.95 16.15 28.95 16.2 29.75 16.3 M29.75 18.8 L29.75 19.05 29.65 18.95 29.75 18.8 M3.25 26.6 L3.25 24.8 4.4 24.55 10.85 22.8 11.3 22.65 12.5 22.2 12.6 22.15 12.8 22.1 16.15 20.6 16.6 21.1 16.05 21.3 16.2 21.65 15.6 21.55 Q15.35 21.6 14.85 22.15 L14.55 21.85 14.4 21.9 14.5 22.25 14.5 21.95 14.95 22.2 15.65 21.65 16.35 21.75 16.3 21.3 16.7 21.2 17.0 21.55 17.8 22.65 17.8 23.0 17.25 23.25 15.55 24.05 14.75 24.45 14.75 24.25 14.7 24.1 Q14.3 24.3 14.4 24.6 L14.45 24.65 13.45 25.0 13.4 25.0 13.4 24.95 13.15 25.0 13.15 25.05 12.85 25.1 11.6 25.35 3.25 26.6 M24.3 16.9 L24.3 16.85 24.3 16.7 24.35 16.7 24.55 15.35 Q24.6 14.65 24.95 14.25 L25.05 14.15 26.3 14.55 25.9 14.95 25.75 15.05 25.9 15.2 25.95 15.25 26.75 14.3 26.7 14.25 26.9 14.05 Q27.2 14.0 27.9 14.4 27.7 14.7 27.65 14.95 L27.15 15.35 Q26.75 15.9 26.8 16.1 L26.9 16.25 27.85 15.35 28.15 15.45 Q27.6 15.65 27.65 16.0 L27.75 16.15 28.0 16.1 28.15 15.9 28.5 16.1 26.75 17.6 26.7 17.6 Q26.5 17.6 26.4 17.75 L26.05 17.95 25.6 17.85 25.75 17.5 25.6 17.35 25.2 17.15 25.15 17.15 24.55 16.95 24.55 17.15 24.45 17.15 24.4 17.0 24.3 16.9 M22.6 11.6 L22.65 11.6 22.85 11.3 23.25 11.6 24.4 12.15 25.65 13.3 25.25 13.4 25.0 13.7 24.8 14.0 24.3 15.15 24.4 16.15 23.45 17.0 23.5 16.85 23.05 16.15 22.6 15.65 22.45 15.45 22.6 15.35 23.75 14.7 Q24.1 14.6 24.05 14.35 23.9 13.7 23.2 13.4 23.7 13.25 23.7 13.1 L23.05 12.5 22.6 12.35 22.5 12.3 22.6 12.2 22.65 12.0 22.6 12.0 22.4 11.85 22.6 11.6 M19.75 13.95 L19.9 13.6 19.85 13.5 19.65 13.8 19.6 12.65 19.4 12.1 19.05 11.55 18.95 11.6 19.3 12.15 19.5 12.65 19.55 13.6 19.2 13.85 18.9 14.1 Q18.75 14.25 18.85 14.4 L18.9 14.45 19.15 14.5 19.2 14.5 19.4 14.2 19.9 13.95 20.1 14.0 20.65 13.65 21.05 13.65 21.0 13.5 20.6 13.6 20.3 13.85 20.05 13.9 20.0 13.7 19.8 13.95 19.75 13.95 M20.5 19.05 L20.25 18.85 20.3 19.1 20.5 19.05 M22.25 17.85 L22.6 17.65 23.0 17.35 23.0 17.4 23.4 18.15 23.7 18.65 Q23.05 19.2 22.6 20.15 L22.25 20.95 22.2 21.1 Q21.6 22.8 21.0 22.95 L19.5 23.15 19.2 23.25 18.9 23.35 Q17.7 23.85 16.05 25.3 L15.85 25.25 Q15.85 24.9 15.5 24.75 L15.05 24.65 16.0 24.25 18.05 23.3 18.1 23.3 18.5 22.9 18.9 22.95 19.05 23.0 19.2 23.05 19.7 23.0 Q20.45 22.85 20.7 22.0 L21.45 20.95 21.35 20.8 21.1 20.9 Q20.3 22.5 19.6 22.65 L19.2 22.65 18.95 22.5 18.9 22.5 18.1 22.6 17.25 21.1 16.5 20.25 Q17.1 20.05 17.15 18.85 L17.7 18.7 18.85 18.85 18.9 18.8 18.95 18.75 19.2 17.95 19.7 17.05 19.95 17.15 19.75 17.9 20.1 18.3 20.75 18.45 22.25 17.85 M16.45 12.05 L15.95 12.25 15.6 12.4 15.3 12.6 13.6 14.1 Q12.95 14.7 13.1 15.35 L13.2 15.6 13.25 15.6 13.2 15.75 13.65 16.35 13.7 16.55 13.75 16.55 15.2 16.5 15.65 16.5 15.9 16.5 16.15 16.45 Q17.95 16.05 18.25 15.6 L18.55 14.7 18.9 13.95 18.95 13.75 19.1 13.3 19.1 13.2 19.15 13.2 19.0 12.35 18.35 11.2 18.45 10.95 18.2 11.0 18.95 12.8 18.45 12.4 17.7 12.0 16.45 12.05 M8.4 22.65 L8.2 22.25 Q8.85 21.55 10.0 21.25 L10.3 21.15 11.05 21.2 11.5 21.25 11.45 22.1 11.5 22.15 11.0 22.35 10.6 22.5 8.65 23.1 8.4 22.65 M14.45 19.65 L14.55 19.8 Q14.2 20.4 14.3 20.85 L14.35 20.95 12.8 21.6 12.5 21.75 11.85 22.05 12.0 21.05 12.05 20.95 12.1 20.4 12.5 20.2 12.8 20.1 13.1 20.0 Q13.35 19.95 13.45 20.25 L13.9 20.15 14.3 19.8 14.45 19.65 M13.1 15.95 L13.0 15.85 Q12.75 16.0 12.85 16.4 12.95 17.1 13.35 17.1 L13.35 17.0 Q13.05 16.9 12.9 16.35 L12.95 16.15 13.15 16.1 13.1 15.95 M11.4 18.25 L11.3 18.3 11.2 19.3 11.45 18.8 11.4 18.25 M12.3 23.75 L12.5 23.65 12.75 23.55 13.15 23.35 12.95 23.35 12.75 23.4 12.5 23.5 12.15 23.55 11.9 23.6 11.75 23.85 11.6 24.05 11.65 24.1 11.85 24.0 Q12.0 23.9 12.3 23.75 M19.7 18.85 L19.2 19.15 19.15 19.1 19.2 19.1 19.25 18.95 19.2 18.95 18.9 19.15 18.8 19.25 18.9 19.3 19.15 19.3 19.2 19.3 19.55 19.05 Q19.7 18.85 19.95 18.8 L20.05 18.75 19.7 18.85 M16.3 22.7 L17.1 22.35 Q17.2 22.3 17.2 22.4 L17.3 22.45 17.4 22.35 17.4 22.25 16.8 22.35 16.3 22.7 M11.7 25.7 L11.7 26.4 12.0 27.8 11.05 26.7 10.35 26.0 11.65 25.75 11.7 25.7 M14.2 25.4 L14.15 25.9 14.15 26.35 13.55 25.2 13.6 25.2 14.25 24.95 14.2 25.4" fill="#fff7d5" fill-rule="evenodd" stroke="none"/>
      <path d="M17.95 12.5 L18.75 13.1 18.65 13.7 18.25 14.45 17.75 15.35 16.55 16.0 16.05 16.05 15.9 16.1 15.65 16.15 15.55 16.15 15.4 16.05 15.0 16.0 14.15 16.2 14.1 16.1 13.6 15.75 13.5 15.4 13.5 15.35 13.35 15.2 Q13.3 14.9 13.75 14.65 L14.65 13.7 Q14.95 13.25 15.6 12.8 L15.65 12.75 15.95 12.55 16.6 12.25 Q17.15 12.1 17.95 12.5 M14.65 20.8 L14.85 20.25 14.9 20.1 15.45 19.2 15.85 19.35 Q16.15 19.2 16.65 19.0 L16.75 19.15 16.35 19.8 15.95 20.15 16.05 20.25 14.65 20.8" fill="#443600" fill-rule="evenodd" stroke="none"/>
    </g>
  </defs>
</svg>
