<?xml version="1.0" encoding="UTF-8" standalone="no"?>
<svg xmlns:xlink="http://www.w3.org/1999/xlink" height="204.0px" width="1233.3px" xmlns="http://www.w3.org/2000/svg">
  <g transform="matrix(6.0, 0.0, 0.0, 6.0, 6.3, 102.0)">
    <use height="34.0" id="btr" transform="matrix(1.0, 0.0, 0.0, 1.0, 170.5, -17.0)" width="34.0" xlink:href="#button0"/>
    <use height="34.0" id="bt1" transform="matrix(1.0, 0.0, 0.0, 1.0, -0.5, -17.0)" width="34.0" xlink:href="#button1"/>
    <use height="34.0" id="bt2" transform="matrix(1.0, 0.0, 0.0, 1.0, 39.5, -17.0)" width="34.0" xlink:href="#button2"/>
    <use height="34.0" id="bt3" transform="matrix(1.0, 0.0, 0.0, 1.0, 79.5, -17.0)" width="34.0" xlink:href="#button3"/>
  </g>
  <defs>
    <g id="button0" transform="matrix(1.0, 0.0, 0.0, 1.0, 0.5, 0.5)">
      <use height="34.0" transform="matrix(1.0, 0.0, 0.0, 1.0, -0.5, -0.5)" width="34.0" xlink:href="#shape0"/>
      <use height="32.3" transform="matrix(1.0, 0.0, 0.0, 1.0, 0.6, 0.3)" width="32.1" xlink:href="#shape1"/>
    </g>
    <g id="shape0" transform="matrix(1.0, 0.0, 0.0, 1.0, 0.5, 0.5)">
      <path d="M33.0 0.0 L33.0 33.0 0.0 33.0 0.0 0.0 33.0 0.0" fill="#c4c4c4" fill-rule="evenodd" stroke="none"/>
      <path d="M33.0 0.0 L33.0 33.0 0.0 33.0 0.0 0.0 33.0 0.0 Z" fill="none" stroke="#000000" stroke-linecap="round" stroke-linejoin="round" stroke-width="1.0"/>
      <path d="M30.0 3.0 L3.0 3.0 3.0 30.0 30.0 30.0 30.0 3.0 M33.0 0.0 L33.0 33.0 0.0 33.0 0.0 0.0 33.0 0.0" fill="url(#gradient0)" fill-rule="evenodd" stroke="none"/>
      <path d="M30.0 3.0 L30.0 30.0 3.0 30.0 3.0 3.0 30.0 3.0" fill="#7b7b7b" fill-rule="evenodd" stroke="none"/>
      <path d="M30.0 3.0 L30.0 30.0 3.0 30.0 3.0 3.0 30.0 3.0 M33.0 0.0 L33.0 33.0 0.0 33.0 0.0 0.0 33.0 0.0" fill="none" stroke="#000000" stroke-linecap="round" stroke-linejoin="round" stroke-width="1.0"/>
      <path d="M28.0 0.0 L33.0 0.0 33.0 5.0 28.0 5.0 28.0 0.0 M0.0 0.0 L5.0 0.0 5.0 5.0 0.0 5.0 0.0 0.0 M5.0 28.0 L5.0 33.0 0.0 33.0 0.0 28.0 5.0 28.0 M28.0 28.0 L33.0 28.0 33.0 33.0 28.0 33.0 28.0 28.0" fill="#990000" fill-rule="evenodd" stroke="none"/>
      <path d="M28.0 0.0 L33.0 0.0 33.0 5.0 28.0 5.0 28.0 0.0 M0.0 0.0 L5.0 0.0 5.0 5.0 0.0 5.0 0.0 0.0 M5.0 28.0 L5.0 33.0 0.0 33.0 0.0 28.0 5.0 28.0 M28.0 28.0 L33.0 28.0 33.0 33.0 28.0 33.0 28.0 28.0" fill="none" stroke="#000000" stroke-linecap="round" stroke-linejoin="round" stroke-width="1.0"/>
    </g>
    <linearGradient gradientTransform="matrix(0.0152, 0.0234, -0.0234, 0.0152, 16.5, 16.45)" gradientUnits="userSpaceOnUse" id="gradient0" spreadMethod="pad" x1="-819.2" x2="819.2">
      <stop offset="0.0" stop-color="#eed600"/>
      <stop offset="0.19607843137254902" stop-color="#fef292"/>
      <stop offset="0.36470588235294116" stop-color="#ecd502"/>
      <stop offset="0.6352941176470588" stop-color="#9a8b00"/>
      <stop offset="0.8627450980392157" stop-color="#fff9c4"/>
      <stop offset="1.0" stop-color="#c4c400"/>
    </linearGradient>
    <g id="shape1" transform="matrix(1.0, 0.0, 0.0, 1.0, -0.6, -0.3)">
      <path d="M29.6 1.25 L29.05 2.1 28.6 1.8 28.6 1.45 28.85 0.8 Q28.9 0.35 29.3 0.35 L29.4 0.4 Q29.85 0.1 29.85 0.7 L29.7 1.1 29.6 1.25 M1.25 2.6 Q0.8 2.6 0.7 2.2 L0.7 1.7 Q0.7 1.15 1.45 0.65 2.2 0.2 2.2 0.95 L1.25 2.6 M1.85 29.35 L1.55 29.85 1.0 30.25 Q0.6 30.25 0.6 29.8 0.6 29.5 0.9 29.25 1.3 28.9 1.8 29.1 L1.85 29.35 M29.95 29.35 L29.8 29.95 29.4 30.25 Q28.95 30.25 28.95 29.8 28.95 29.4 29.45 29.0 29.95 28.55 29.95 29.35" fill="#ff6666" fill-rule="evenodd" stroke="none"/>
      <path d="M32.7 3.95 L32.7 4.35 31.45 4.6 Q30.2 4.6 30.2 4.2 30.2 3.9 30.7 3.65 L31.35 2.95 Q31.15 2.6 31.45 2.15 31.8 1.75 32.3 1.95 L32.7 3.95 M4.2 2.5 Q4.2 4.6 2.45 4.6 L2.05 4.55 Q1.95 4.05 2.1 3.9 L1.7 3.5 Q1.7 3.05 3.35 3.05 L3.9 2.1 Q4.2 1.65 4.2 2.5 M3.6 30.35 Q3.7 30.0 4.3 30.1 L4.35 32.05 Q4.25 32.6 3.75 32.6 L1.6 32.45 Q1.45 32.4 1.45 32.15 2.65 30.7 3.6 30.85 L3.6 30.35 M32.25 32.5 L31.25 32.5 30.25 32.5 29.85 32.05 30.05 31.8 31.3 31.25 31.2 30.65 Q31.2 30.25 31.55 29.8 31.95 29.25 32.25 29.95 L32.45 31.75 32.25 32.5" fill="#660000" fill-rule="evenodd" stroke="none"/>
      <path d="M28.0 20.5 L14.5 20.5 14.5 26.0 5.0 16.5 14.5 7.0 14.5 12.5 28.0 12.5 28.0 20.5" fill="#b10101" fill-rule="evenodd" stroke="none"/>
    </g>
    <g id="button1" transform="matrix(1.0, 0.0, 0.0, 1.0, 0.5, 0.5)">
      <use height="34.0" transform="matrix(1.0, 0.0, 0.0, 1.0, -0.5, -0.5)" width="34.0" xlink:href="#shape0"/>
      <use height="32.3" transform="matrix(1.0, 0.0, 0.0, 1.0, 0.6, 0.3)" width="32.1" xlink:href="#shape2"/>
    </g>
    <g id="shape2" transform="matrix(1.0, 0.0, 0.0, 1.0, -0.6, -0.3)">
      <path d="M29.85 0.7 L29.7 1.1 29.6 1.25 29.05 2.1 28.6 1.8 28.6 1.45 28.85 0.8 Q28.9 0.35 29.3 0.35 L29.4 0.4 Q29.85 0.1 29.85 0.7 M1.25 2.6 Q0.8 2.6 0.7 2.2 L0.7 1.7 Q0.7 1.15 1.45 0.65 2.2 0.2 2.2 0.95 L1.25 2.6 M1.85 29.35 L1.55 29.85 1.0 30.25 Q0.6 30.25 0.6 29.8 0.6 29.5 0.9 29.25 1.3 28.9 1.8 29.1 L1.85 29.35 M29.95 29.35 L29.8 29.95 29.4 30.25 Q28.95 30.25 28.95 29.8 28.95 29.4 29.45 29.0 29.95 28.55 29.95 29.35" fill="#ff6666" fill-rule="evenodd" stroke="none"/>
      <path d="M32.7 3.95 L32.7 4.35 31.45 4.6 Q30.2 4.6 30.2 4.2 30.2 3.9 30.7 3.65 L31.35 2.95 Q31.15 2.6 31.45 2.15 31.8 1.75 32.3 1.95 L32.7 3.95 M4.2 2.5 Q4.2 4.6 2.45 4.6 L2.05 4.55 Q1.95 4.05 2.1 3.9 L1.7 3.5 Q1.7 3.05 3.35 3.05 L3.9 2.1 Q4.2 1.65 4.2 2.5 M3.6 30.35 Q3.7 30.0 4.3 30.1 L4.35 32.05 Q4.25 32.6 3.75 32.6 L1.6 32.45 Q1.45 32.4 1.45 32.15 2.65 30.7 3.6 30.85 L3.6 30.35 M32.25 32.5 L31.25 32.5 30.25 32.5 29.85 32.05 30.05 31.8 31.3 31.25 31.2 30.65 Q31.2 30.25 31.55 29.8 31.95 29.25 32.25 29.95 L32.45 31.75 32.25 32.5" fill="#660000" fill-rule="evenodd" stroke="none"/>
      <path d="M27.6 18.5 L27.6 18.65 27.6 18.7 27.85 19.5 28.85 19.4 28.9 19.4 29.3 17.9 28.25 17.9 27.6 18.5 M26.35 17.9 L26.45 18.0 26.45 18.05 Q26.35 18.2 26.25 18.15 L25.4 19.0 26.25 19.85 26.3 19.8 26.65 20.1 26.7 20.1 26.75 20.15 27.6 20.15 27.35 18.9 27.3 18.85 26.8 19.25 26.8 19.35 26.6 19.55 26.55 19.7 26.55 19.75 26.2 19.7 26.3 19.4 26.5 19.2 27.85 17.9 26.35 17.9 M29.75 17.9 L29.55 17.9 29.45 18.75 29.75 19.15 29.75 19.65 29.4 18.85 29.1 19.45 29.15 19.45 29.2 19.5 29.25 19.55 29.2 19.65 29.05 19.7 28.95 20.1 28.95 20.15 29.75 20.15 29.75 20.5 26.7 20.45 26.6 20.45 25.7 20.45 25.55 20.5 25.5 20.45 22.85 20.45 22.8 20.5 22.75 20.55 22.55 20.45 21.35 20.45 21.1 20.5 21.0 20.45 16.15 20.4 16.1 20.5 15.9 20.55 15.8 20.75 15.75 20.8 15.25 20.8 14.8 20.9 14.6 21.05 14.65 21.05 14.7 21.1 12.4 21.25 Q9.65 21.1 8.35 18.6 L8.2 18.45 8.15 17.0 8.15 16.9 8.1 16.9 8.0 16.9 7.6 16.8 7.45 16.7 7.4 16.7 7.45 16.2 7.45 16.15 7.5 16.05 7.55 15.95 7.7 16.0 8.05 16.0 Q8.05 15.1 8.4 14.25 L8.4 14.2 8.5 14.15 8.55 14.1 8.55 14.05 8.6 14.0 8.7 13.85 8.65 13.8 8.65 13.75 8.6 13.75 Q8.85 12.95 9.65 12.55 10.5 12.15 11.4 11.9 13.3 11.9 14.9 12.95 L15.95 14.0 16.25 14.35 16.3 15.85 16.3 16.0 16.6 16.1 16.65 16.15 16.65 16.25 16.65 16.65 16.6 16.8 16.6 16.85 16.55 16.95 16.9 17.05 16.95 17.1 17.0 17.4 17.0 17.45 17.05 17.6 17.45 17.65 22.6 17.65 22.6 17.6 22.65 17.55 22.7 17.55 22.8 17.65 22.85 17.65 24.2 17.65 24.2 17.6 24.25 17.55 24.3 17.55 24.35 17.5 24.45 17.6 24.5 17.6 24.5 17.65 29.75 17.65 29.75 17.9 M21.4 17.95 L21.75 18.75 21.75 18.85 21.85 18.95 22.45 17.9 21.4 17.9 21.4 17.95 M21.1 17.95 L21.1 17.9 17.65 17.9 17.55 17.9 17.0 17.9 16.8 18.3 16.2 20.15 16.2 20.2 21.15 20.2 21.15 20.1 21.35 19.9 21.65 19.2 21.65 19.1 Q21.4 18.95 21.5 18.85 L21.2 18.2 21.1 18.1 21.1 17.95 M23.95 17.9 L22.75 17.9 22.0 19.3 22.0 19.35 21.95 19.35 21.95 19.45 21.65 19.9 21.65 20.0 21.45 20.2 22.6 20.2 22.8 20.0 22.85 19.95 23.25 19.2 23.35 19.1 23.35 19.05 23.4 18.95 23.95 18.15 23.9 18.05 24.0 17.95 23.95 17.95 23.95 17.9 M24.45 17.95 L25.2 18.8 26.2 17.9 24.5 17.9 24.45 17.95 M24.25 18.1 L24.15 18.3 24.9 19.2 24.95 19.25 25.0 19.3 25.0 19.25 25.15 19.4 25.15 19.5 25.35 19.95 25.4 20.05 25.6 20.1 25.65 20.15 26.35 20.15 26.3 20.05 26.25 20.05 26.1 20.05 24.35 18.2 24.25 18.1 M24.75 19.5 L24.0 18.5 23.65 19.15 23.65 19.2 23.0 20.2 24.25 20.2 24.2 20.1 24.75 19.5 M25.2 20.15 L24.9 19.7 24.55 20.15 24.55 20.2 25.2 20.15 M27.85 19.7 L27.8 19.9 27.8 19.95 27.9 20.15 28.55 20.15 28.55 20.1 28.65 20.0 28.75 19.75 27.85 19.7 M9.2 15.3 L9.25 15.35 9.25 16.0 16.0 16.0 16.05 15.45 Q16.1 14.6 15.65 13.9 L15.5 13.85 15.4 13.8 Q15.3 13.55 15.0 13.5 L14.9 13.45 Q13.4 12.15 11.4 12.2 L10.75 12.45 10.7 12.45 10.9 12.6 Q9.45 13.0 8.75 14.4 8.35 15.15 8.35 16.0 L8.95 16.0 9.1 15.3 9.15 15.25 9.2 15.3 M9.0 16.9 L8.4 16.9 8.35 16.9 8.45 17.75 8.45 18.2 8.45 18.25 8.7 18.6 Q9.35 19.8 10.5 20.4 L11.15 20.7 11.35 20.75 11.4 20.8 Q13.0 20.95 14.3 20.2 L14.3 20.15 Q15.1 19.45 15.55 18.55 L15.75 18.2 15.8 18.1 15.85 17.9 16.0 17.4 16.25 16.9 16.1 16.9 15.8 16.9 14.75 16.95 14.4 16.95 9.25 16.9 9.0 16.9 M9.25 16.65 L9.65 16.65 9.95 16.65 14.4 16.7 14.65 16.7 15.85 16.7 16.15 16.7 16.3 16.7 16.35 16.6 16.35 16.4 16.25 16.4 16.1 16.4 15.9 16.4 9.25 16.25 8.9 16.25 8.35 16.25 8.05 16.2 7.8 16.2 7.75 16.45 7.75 16.55 7.75 16.6 8.1 16.6 8.15 16.6 8.2 16.6 8.25 16.65 8.35 16.65 8.95 16.65 9.25 16.65 M15.25 15.5 L15.05 14.7 14.9 14.5 14.65 14.4 14.7 14.25 14.8 14.2 Q15.65 14.6 15.45 15.55 L15.25 15.55 15.25 15.5 M16.7 17.3 L16.45 17.2 15.8 18.7 15.8 18.8 15.65 18.9 15.45 19.25 15.0 19.85 14.85 20.0 14.9 20.05 13.75 20.8 14.0 20.85 14.95 20.45 15.05 20.5 15.35 20.4 15.5 20.55 15.6 20.45 15.7 20.3 15.75 20.3 15.85 20.4 16.0 19.8 15.95 19.8 15.9 19.7 16.4 18.35 16.6 17.75 16.65 17.75 16.7 17.45 16.7 17.4 16.75 17.4 16.7 17.3 M12.9 15.45 L12.95 15.5 13.05 15.7 13.05 15.75 Q12.9 16.0 12.7 15.75 L12.75 15.45 12.8 15.4 12.9 15.45 M12.45 12.7 Q11.65 13.2 10.8 13.1 L10.8 13.0 10.8 12.95 12.3 12.55 12.45 12.7 M10.85 14.25 L10.25 14.6 10.2 14.5 10.2 14.45 Q10.4 14.2 10.7 14.1 L10.85 14.2 10.85 14.25 M13.55 20.9 L13.6 20.9 13.65 20.85 13.55 20.9" fill="#000000" fill-rule="evenodd" stroke="none"/>
      <path d="M9.2 15.3 L9.15 15.25 9.1 15.3 8.95 16.0 8.35 16.0 Q8.35 15.15 8.75 14.4 9.45 13.0 10.9 12.6 L10.7 12.45 10.75 12.45 11.4 12.2 Q13.4 12.15 14.9 13.45 L15.0 13.5 Q15.3 13.55 15.4 13.8 L15.5 13.85 15.65 13.9 Q16.1 14.6 16.05 15.45 L16.0 16.0 9.25 16.0 9.25 15.35 9.2 15.3 M15.25 15.5 L15.25 15.55 15.45 15.55 Q15.65 14.6 14.8 14.2 L14.7 14.25 14.65 14.4 14.9 14.5 15.05 14.7 15.25 15.5 M10.85 14.25 L10.85 14.2 10.7 14.1 Q10.4 14.2 10.2 14.45 L10.2 14.5 10.25 14.6 10.85 14.25 M12.45 12.7 L12.3 12.55 10.8 12.95 10.8 13.0 10.8 13.1 Q11.65 13.2 12.45 12.7 M12.9 15.45 L12.8 15.4 12.75 15.45 12.7 15.75 Q12.9 16.0 13.05 15.75 L13.05 15.7 12.95 15.5 12.9 15.45" fill="#95917b" fill-rule="evenodd" stroke="none"/>
      <path d="M26.35 17.9 L27.85 17.9 26.5 19.2 26.3 19.4 26.2 19.7 26.55 19.75 26.55 19.7 26.6 19.55 26.8 19.35 26.8 19.25 27.3 18.85 27.35 18.9 27.6 20.15 26.75 20.15 26.7 20.1 26.65 20.1 26.3 19.8 26.25 19.85 25.4 19.0 26.25 18.15 Q26.35 18.2 26.45 18.05 L26.45 18.0 26.35 17.9 M27.6 18.5 L28.25 17.9 29.3 17.9 28.9 19.4 28.85 19.4 27.85 19.5 27.6 18.7 27.6 18.65 27.6 18.5 M29.75 19.15 L29.45 18.75 29.55 17.9 29.75 17.9 29.75 19.15 M29.75 20.15 L28.95 20.15 28.95 20.1 29.05 19.7 29.2 19.65 29.25 19.55 29.2 19.5 29.15 19.45 29.1 19.45 29.4 18.85 29.75 19.65 29.75 20.15 M21.4 17.95 L21.4 17.9 22.45 17.9 21.85 18.95 21.75 18.85 21.75 18.75 21.4 17.95 M27.85 19.7 L28.75 19.75 28.65 20.0 28.55 20.1 28.55 20.15 27.9 20.15 27.8 19.95 27.8 19.9 27.85 19.7 M25.2 20.15 L24.55 20.2 24.55 20.15 24.9 19.7 25.2 20.15 M24.75 19.5 L24.2 20.1 24.25 20.2 23.0 20.2 23.65 19.2 23.65 19.15 24.0 18.5 24.75 19.5 M24.25 18.1 L24.35 18.2 26.1 20.05 26.25 20.05 26.3 20.05 26.35 20.15 25.65 20.15 25.6 20.1 25.4 20.05 25.35 19.95 25.15 19.5 25.15 19.4 25.0 19.25 25.0 19.3 24.95 19.25 24.9 19.2 24.15 18.3 24.25 18.1 M24.45 17.95 L24.5 17.9 26.2 17.9 25.2 18.8 24.45 17.95 M23.95 17.9 L23.95 17.95 24.0 17.95 23.9 18.05 23.95 18.15 23.4 18.95 23.35 19.05 23.35 19.1 23.25 19.2 22.85 19.95 22.8 20.0 22.6 20.2 21.45 20.2 21.65 20.0 21.65 19.9 21.95 19.45 21.95 19.35 22.0 19.35 22.0 19.3 22.75 17.9 23.95 17.9" fill="#e3cdb3" fill-rule="evenodd" stroke="none"/>
      <path d="M21.1 17.95 L21.1 18.1 21.2 18.2 21.5 18.85 Q21.4 18.95 21.65 19.1 L21.65 19.2 21.35 19.9 21.15 20.1 21.15 20.2 16.2 20.2 16.2 20.15 16.8 18.3 17.0 17.9 17.55 17.9 17.65 17.9 21.1 17.9 21.1 17.95 M9.0 16.9 L9.25 16.9 14.4 16.95 14.75 16.95 15.8 16.9 16.1 16.9 16.25 16.9 16.0 17.4 15.85 17.9 15.8 18.1 15.75 18.2 15.55 18.55 Q15.1 19.45 14.3 20.15 L14.3 20.2 Q13.0 20.95 11.4 20.8 L11.35 20.75 11.15 20.7 10.5 20.4 Q9.35 19.8 8.7 18.6 L8.45 18.25 8.45 18.2 8.45 17.75 8.35 16.9 8.4 16.9 9.0 16.9" fill="#715426" fill-rule="evenodd" stroke="none"/>
      <path d="M9.25 16.65 L8.95 16.65 8.35 16.65 8.25 16.65 8.2 16.6 8.15 16.6 8.1 16.6 7.75 16.6 7.75 16.55 7.75 16.45 7.8 16.2 8.05 16.2 8.35 16.25 8.9 16.25 9.25 16.25 15.9 16.4 16.1 16.4 16.25 16.4 16.35 16.4 16.35 16.6 16.3 16.7 16.15 16.7 15.85 16.7 14.65 16.7 14.4 16.7 9.95 16.65 9.65 16.65 9.25 16.65 M16.7 17.3 L16.75 17.4 16.7 17.4 16.7 17.45 16.65 17.75 16.6 17.75 16.4 18.35 15.9 19.7 15.95 19.8 16.0 19.8 15.85 20.4 15.75 20.3 15.7 20.3 15.6 20.45 15.5 20.55 15.35 20.4 15.05 20.5 14.95 20.45 14.0 20.85 13.75 20.8 14.9 20.05 14.85 20.0 15.0 19.85 15.45 19.25 15.65 18.9 15.8 18.8 15.8 18.7 16.45 17.2 16.7 17.3" fill="#9d6f37" fill-rule="evenodd" stroke="none"/>
    </g>
    <g id="button2" transform="matrix(1.0, 0.0, 0.0, 1.0, 0.5, 0.5)">
      <use height="34.0" transform="matrix(1.0, 0.0, 0.0, 1.0, -0.5, -0.5)" width="34.0" xlink:href="#shape0"/>
      <use height="32.3" transform="matrix(1.0, 0.0, 0.0, 1.0, 0.6, 0.3)" width="32.1" xlink:href="#shape3"/>
    </g>
    <g id="shape3" transform="matrix(1.0, 0.0, 0.0, 1.0, -0.6, -0.3)">
      <path d="M29.85 0.7 L29.7 1.1 29.6 1.25 29.05 2.1 28.6 1.8 28.6 1.45 28.85 0.8 Q28.9 0.35 29.3 0.35 L29.4 0.4 Q29.85 0.1 29.85 0.7 M1.25 2.6 Q0.8 2.6 0.7 2.2 L0.7 1.7 Q0.7 1.15 1.45 0.65 2.2 0.2 2.2 0.95 L1.25 2.6 M1.85 29.35 L1.55 29.85 1.0 30.25 Q0.6 30.25 0.6 29.8 0.6 29.5 0.9 29.25 1.3 28.9 1.8 29.1 L1.85 29.35 M29.95 29.35 L29.8 29.95 29.4 30.25 Q28.95 30.25 28.95 29.8 28.95 29.4 29.45 29.0 29.95 28.55 29.95 29.35" fill="#ff6666" fill-rule="evenodd" stroke="none"/>
      <path d="M32.7 3.95 L32.7 4.35 31.45 4.6 Q30.2 4.6 30.2 4.2 30.2 3.9 30.7 3.65 L31.35 2.95 Q31.15 2.6 31.45 2.15 31.8 1.75 32.3 1.95 L32.7 3.95 M4.2 2.5 Q4.2 4.6 2.45 4.6 L2.05 4.55 Q1.95 4.05 2.1 3.9 L1.7 3.5 Q1.7 3.05 3.35 3.05 L3.9 2.1 Q4.2 1.65 4.2 2.5 M3.6 30.35 Q3.7 30.0 4.3 30.1 L4.35 32.05 Q4.25 32.6 3.75 32.6 L1.6 32.45 Q1.45 32.4 1.45 32.15 2.65 30.7 3.6 30.85 L3.6 30.35 M32.25 32.5 L31.25 32.5 30.25 32.5 29.85 32.05 30.05 31.8 31.3 31.25 31.2 30.65 Q31.2 30.25 31.55 29.8 31.95 29.25 32.25 29.95 L32.45 31.75 32.25 32.5" fill="#660000" fill-rule="evenodd" stroke="none"/>
      <path d="M15.2 11.95 L15.2 12.0 15.3 12.55 Q15.4 12.9 15.65 13.05 L16.15 13.55 16.8 13.9 16.85 14.9 16.75 14.9 16.75 15.5 13.0 15.5 13.05 15.2 13.15 14.95 13.25 14.85 13.35 14.7 13.3 14.6 13.1 14.6 13.05 14.6 13.05 14.65 12.95 14.75 12.65 14.75 11.25 14.7 11.1 14.55 10.85 14.5 10.8 15.5 10.7 15.5 10.65 14.35 Q10.65 13.95 10.8 13.95 L10.9 13.9 11.65 13.2 12.15 12.15 12.2 12.1 12.2 12.0 12.0 11.9 11.95 11.8 12.0 11.6 12.35 11.4 14.35 11.35 12.4 11.45 12.4 11.5 12.25 11.5 12.25 11.95 12.5 11.9 12.45 11.7 12.65 11.7 12.9 11.7 14.5 11.5 14.45 11.35 14.85 11.25 15.2 11.25 15.4 11.45 14.5 11.7 13.5 11.8 13.4 11.85 13.4 12.0 15.2 11.95 M15.5 11.55 L15.55 11.6 15.4 11.75 15.35 11.7 15.5 11.55 M15.5 13.85 L15.45 13.75 14.5 13.85 14.45 13.7 13.8 13.6 13.65 13.55 13.55 13.5 13.3 13.5 12.85 13.35 12.6 13.35 12.85 12.4 12.8 12.3 12.1 12.9 11.5 13.7 11.5 13.95 11.75 13.95 11.75 14.05 12.7 14.15 12.75 14.15 12.9 14.15 13.0 14.15 13.4 14.15 15.5 13.85 M15.35 14.5 L15.3 14.3 11.95 14.25 Q11.2 14.25 11.2 14.05 L11.0 14.05 11.0 14.2 11.35 14.4 13.5 14.55 15.35 14.5" fill="#ca984f" fill-rule="evenodd" stroke="none"/>
      <path d="M13.0 15.5 L10.8 15.5 10.85 14.5 11.1 14.55 11.25 14.7 12.65 14.75 12.95 14.75 13.05 14.65 13.05 14.6 13.1 14.6 13.3 14.6 13.35 14.7 13.25 14.85 13.15 14.95 13.05 15.2 13.0 15.5 M14.35 11.35 L14.45 11.35 14.5 11.5 12.9 11.7 12.65 11.7 12.45 11.7 12.5 11.9 12.25 11.95 12.25 11.5 12.4 11.5 12.4 11.45 14.35 11.35 M15.5 13.85 L13.4 14.15 13.0 14.15 12.9 14.15 12.75 14.15 12.7 14.15 11.75 14.05 11.75 13.95 11.5 13.95 11.5 13.7 12.1 12.9 12.8 12.3 12.85 12.4 12.6 13.35 12.85 13.35 13.3 13.5 13.55 13.5 13.65 13.55 13.8 13.6 14.45 13.7 14.5 13.85 15.45 13.75 15.5 13.85" fill="#e8d1b0" fill-rule="evenodd" stroke="none"/>
      <path d="M15.45 11.95 Q15.45 13.1 16.95 13.7 L16.95 13.75 17.0 13.75 17.1 14.15 17.0 14.4 17.15 15.5 17.7 15.5 18.15 15.6 18.2 15.65 18.2 15.75 18.2 16.15 18.15 16.3 18.15 16.35 18.1 16.45 18.45 16.55 18.5 16.6 18.55 16.9 18.55 16.95 18.6 17.1 19.0 17.15 24.15 17.15 24.15 17.1 24.2 17.05 24.25 17.05 24.35 17.15 24.4 17.15 25.75 17.15 25.75 17.1 25.8 17.05 25.85 17.05 25.9 17.0 26.0 17.1 26.05 17.1 26.05 17.15 30.25 17.15 30.25 17.4 29.8 17.4 29.15 18.0 29.15 18.15 29.15 18.2 29.4 19.0 30.25 18.9 30.25 19.25 29.4 19.2 29.35 19.4 29.35 19.45 29.45 19.65 30.1 19.65 30.1 19.6 30.2 19.5 30.25 19.4 30.25 20.0 28.25 19.95 28.15 19.95 27.25 19.95 27.1 20.0 27.05 19.95 24.4 19.95 24.35 20.0 24.3 20.05 24.1 19.95 22.9 19.95 22.65 20.0 22.55 19.95 17.7 19.9 17.65 20.0 17.45 20.05 17.35 20.25 17.3 20.3 16.8 20.3 16.35 20.4 16.15 20.55 16.2 20.55 16.25 20.6 13.95 20.75 Q11.2 20.6 9.9 18.1 L9.75 17.95 9.7 16.4 9.65 16.4 9.55 16.4 9.15 16.3 9.0 16.2 8.95 16.2 9.0 15.7 9.0 15.65 9.05 15.55 9.1 15.45 9.25 15.5 10.5 15.5 10.5 13.75 10.8 13.75 11.5 12.9 11.85 12.5 11.95 12.15 11.75 11.8 Q11.75 11.3 12.2 11.3 L14.35 11.1 14.75 11.1 14.9 10.95 15.55 10.95 15.6 11.05 15.5 11.2 15.55 11.3 15.8 11.6 15.5 11.9 15.45 11.9 15.45 11.8 15.3 11.75 15.35 11.7 15.4 11.75 15.55 11.6 15.5 11.55 15.45 11.45 15.4 11.45 15.2 11.25 14.85 11.25 14.45 11.35 14.35 11.35 12.35 11.4 12.0 11.6 11.95 11.8 12.0 11.9 12.2 12.0 12.2 12.1 12.15 12.15 11.65 13.2 10.9 13.9 10.8 13.95 Q10.65 13.95 10.65 14.35 L10.7 15.5 10.8 15.5 13.0 15.5 16.75 15.5 17.0 15.5 16.95 14.9 16.85 14.9 16.8 13.9 16.15 13.55 15.65 13.05 Q15.4 12.9 15.3 12.55 L15.2 12.0 15.2 11.95 15.45 11.95 M26.0 17.45 L26.75 18.3 27.75 17.4 26.05 17.4 26.0 17.45 M25.8 17.6 L25.7 17.8 26.45 18.7 26.5 18.75 26.55 18.8 26.55 18.75 26.7 18.9 26.7 19.0 26.9 19.45 26.95 19.55 27.15 19.6 27.2 19.65 27.9 19.65 27.85 19.55 27.8 19.55 27.65 19.55 25.9 17.7 25.8 17.6 M25.5 17.4 L24.3 17.4 23.55 18.8 23.55 18.85 23.5 18.85 23.5 18.95 23.2 19.4 23.2 19.5 23.0 19.7 24.15 19.7 24.35 19.5 24.4 19.45 24.8 18.7 24.9 18.6 24.9 18.55 24.95 18.45 25.5 17.65 25.45 17.55 25.55 17.45 25.5 17.45 25.5 17.4 M26.95 18.5 L27.8 19.35 27.85 19.3 28.2 19.6 28.25 19.6 28.3 19.65 29.15 19.65 28.9 18.4 28.85 18.35 28.35 18.75 28.35 18.85 28.15 19.05 28.1 19.2 28.1 19.25 27.75 19.2 27.85 18.9 28.05 18.7 29.4 17.4 27.9 17.4 28.0 17.5 28.0 17.55 27.8 17.65 26.95 18.5 M22.65 17.4 L19.2 17.4 19.1 17.4 18.55 17.4 18.35 17.8 17.75 19.65 17.75 19.7 22.7 19.7 22.7 19.6 22.9 19.4 23.2 18.7 23.2 18.6 23.05 18.35 22.75 17.7 22.65 17.6 22.65 17.45 22.65 17.4 M23.3 18.35 L23.4 18.45 24.0 17.4 22.95 17.4 22.95 17.45 23.3 18.25 23.3 18.35 M25.2 18.7 L24.55 19.7 25.8 19.7 25.75 19.6 Q25.95 19.25 26.3 19.0 L25.55 18.0 25.2 18.65 25.2 18.7 M26.1 19.65 L26.1 19.7 26.75 19.65 26.45 19.2 26.1 19.65 M9.8 16.15 L10.5 16.15 10.7 16.15 10.85 16.15 12.45 16.15 16.75 16.2 17.0 16.2 17.25 16.2 17.85 16.2 17.9 16.1 17.9 15.9 17.65 15.9 17.2 15.9 17.0 15.9 16.75 15.9 12.7 15.8 10.85 15.75 10.7 15.75 10.5 15.75 9.35 15.7 9.3 15.95 9.3 16.05 9.3 16.1 9.7 16.1 9.75 16.1 9.8 16.15 M10.0 17.75 L10.25 18.1 Q10.9 19.3 12.05 19.9 L12.7 20.2 12.9 20.25 12.95 20.3 Q14.55 20.45 15.85 19.7 L15.85 19.65 17.1 18.05 17.15 18.0 17.3 17.7 17.35 17.6 17.8 16.4 17.25 16.4 17.05 16.4 17.0 16.4 16.8 16.4 12.3 16.45 10.85 16.4 10.7 16.4 10.5 16.4 9.9 16.4 10.0 17.7 10.0 17.75 M15.35 14.5 L13.5 14.55 11.35 14.4 11.0 14.2 11.0 14.05 11.2 14.05 Q11.2 14.25 11.95 14.25 L15.3 14.3 15.35 14.5 M17.2 18.4 L17.0 18.75 16.55 19.35 16.4 19.5 16.45 19.55 15.3 20.3 15.55 20.35 16.5 19.95 16.6 20.0 16.9 19.9 17.05 20.05 17.15 19.95 17.25 19.8 17.3 19.8 17.4 19.9 17.55 19.3 17.5 19.3 17.45 19.2 17.95 17.85 18.15 17.25 18.2 17.25 18.25 16.95 18.25 16.9 18.3 16.9 18.25 16.8 18.0 16.7 17.35 18.2 17.35 18.3 17.2 18.4 M15.15 20.4 L15.2 20.35 15.1 20.4 15.15 20.4" fill="#000000" fill-rule="evenodd" stroke="none"/>
      <path d="M15.45 11.9 L15.45 11.95 15.2 11.95 13.4 12.0 13.4 11.85 13.5 11.8 14.5 11.7 15.4 11.45 15.45 11.45 15.5 11.55 15.35 11.7 15.3 11.75 15.45 11.8 15.45 11.9 M16.85 14.9 L16.95 14.9 17.0 15.5 16.75 15.5 16.75 14.9 16.85 14.9" fill="#412f14" fill-rule="evenodd" stroke="none"/>
      <path d="M30.25 17.4 L30.25 18.9 29.4 19.0 29.15 18.2 29.15 18.15 29.15 18.0 29.8 17.4 30.25 17.4 M30.25 19.25 L30.25 19.4 30.2 19.5 30.1 19.6 30.1 19.65 29.45 19.65 29.35 19.45 29.35 19.4 29.4 19.2 30.25 19.25 M26.95 18.5 L27.8 17.65 28.0 17.55 28.0 17.5 27.9 17.4 29.4 17.4 28.05 18.7 27.85 18.9 27.75 19.2 28.1 19.25 28.1 19.2 28.15 19.05 28.35 18.85 28.35 18.75 28.85 18.35 28.9 18.4 29.15 19.65 28.3 19.65 28.25 19.6 28.2 19.6 27.85 19.3 27.8 19.35 26.95 18.5 M25.5 17.4 L25.5 17.45 25.55 17.45 25.45 17.55 25.5 17.65 24.95 18.45 24.9 18.55 24.9 18.6 24.8 18.7 24.4 19.45 24.35 19.5 24.15 19.7 23.0 19.7 23.2 19.5 23.2 19.4 23.5 18.95 23.5 18.85 23.55 18.85 23.55 18.8 24.3 17.4 25.5 17.4 M25.8 17.6 L25.9 17.7 27.65 19.55 27.8 19.55 27.85 19.55 27.9 19.65 27.2 19.65 27.15 19.6 26.95 19.55 26.9 19.45 26.7 19.0 26.7 18.9 26.55 18.75 26.55 18.8 26.5 18.75 26.45 18.7 25.7 17.8 25.8 17.6 M26.0 17.45 L26.05 17.4 27.75 17.4 26.75 18.3 26.0 17.45 M26.1 19.65 L26.45 19.2 26.75 19.65 26.1 19.7 26.1 19.65 M25.2 18.7 L25.2 18.65 25.55 18.0 26.3 19.0 Q25.95 19.25 25.75 19.6 L25.8 19.7 24.55 19.7 25.2 18.7 M23.3 18.35 L23.3 18.25 22.95 17.45 22.95 17.4 24.0 17.4 23.4 18.45 23.3 18.35" fill="#e3cdb3" fill-rule="evenodd" stroke="none"/>
      <path d="M22.65 17.4 L22.65 17.45 22.65 17.6 22.75 17.7 23.05 18.35 23.2 18.6 23.2 18.7 22.9 19.4 22.7 19.6 22.7 19.7 17.75 19.7 17.75 19.65 18.35 17.8 18.55 17.4 19.1 17.4 19.2 17.4 22.65 17.4 M10.0 17.75 L10.0 17.7 9.9 16.4 10.5 16.4 10.7 16.4 10.85 16.4 12.3 16.45 16.8 16.4 17.0 16.4 17.05 16.4 17.25 16.4 17.8 16.4 17.35 17.6 17.3 17.7 17.15 18.0 17.1 18.05 15.85 19.65 15.85 19.7 Q14.55 20.45 12.95 20.3 L12.9 20.25 12.7 20.2 12.05 19.9 Q10.9 19.3 10.25 18.1 L10.0 17.75" fill="#715426" fill-rule="evenodd" stroke="none"/>
      <path d="M9.8 16.15 L9.75 16.1 9.7 16.1 9.3 16.1 9.3 16.05 9.3 15.95 9.35 15.7 10.5 15.75 10.7 15.75 10.85 15.75 12.7 15.8 16.75 15.9 17.0 15.9 17.2 15.9 17.65 15.9 17.9 15.9 17.9 16.1 17.85 16.2 17.25 16.2 17.0 16.2 16.75 16.2 12.45 16.15 10.85 16.15 10.7 16.15 10.5 16.15 9.8 16.15 M17.2 18.4 L17.35 18.3 17.35 18.2 18.0 16.7 18.25 16.8 18.3 16.9 18.25 16.9 18.25 16.95 18.2 17.25 18.15 17.25 17.95 17.85 17.45 19.2 17.5 19.3 17.55 19.3 17.4 19.9 17.3 19.8 17.25 19.8 17.15 19.95 17.05 20.05 16.9 19.9 16.6 20.0 16.5 19.95 15.55 20.35 15.3 20.3 16.45 19.55 16.4 19.5 16.55 19.35 17.0 18.75 17.2 18.4" fill="#9d6f37" fill-rule="evenodd" stroke="none"/>
    </g>
    <g id="button3" transform="matrix(1.0, 0.0, 0.0, 1.0, 0.5, 0.5)">
      <use height="34.0" transform="matrix(1.0, 0.0, 0.0, 1.0, -0.5, -0.5)" width="34.0" xlink:href="#shape0"/>
      <use height="32.3" transform="matrix(1.0, 0.0, 0.0, 1.0, 0.6, 0.3)" width="32.1" xlink:href="#shape4"/>
    </g>
    <g id="shape4" transform="matrix(1.0, 0.0, 0.0, 1.0, -0.6, -0.3)">
      <path d="M29.85 0.7 L29.7 1.1 29.6 1.25 29.05 2.1 28.6 1.8 28.6 1.45 28.85 0.8 Q28.9 0.35 29.3 0.35 L29.4 0.4 Q29.85 0.1 29.85 0.7 M1.25 2.6 Q0.8 2.6 0.7 2.2 L0.7 1.7 Q0.7 1.15 1.45 0.65 2.2 0.2 2.2 0.95 L1.25 2.6 M1.85 29.35 L1.55 29.85 1.0 30.25 Q0.6 30.25 0.6 29.8 0.6 29.5 0.9 29.25 1.3 28.9 1.8 29.1 L1.85 29.35 M29.95 29.35 L29.8 29.95 29.4 30.25 Q28.95 30.25 28.95 29.8 28.95 29.4 29.45 29.0 29.95 28.55 29.95 29.35" fill="#ff6666" fill-rule="evenodd" stroke="none"/>
      <path d="M32.7 3.95 L32.7 4.35 31.45 4.6 Q30.2 4.6 30.2 4.2 30.2 3.9 30.7 3.65 L31.35 2.95 Q31.15 2.6 31.45 2.15 31.8 1.75 32.3 1.95 L32.7 3.95 M4.2 2.5 Q4.2 4.6 2.45 4.6 L2.05 4.55 Q1.95 4.05 2.1 3.9 L1.7 3.5 Q1.7 3.05 3.35 3.05 L3.9 2.1 Q4.2 1.65 4.2 2.5 M3.6 30.35 Q3.7 30.0 4.3 30.1 L4.35 32.05 Q4.25 32.6 3.75 32.6 L1.6 32.45 Q1.45 32.4 1.45 32.15 2.65 30.7 3.6 30.85 L3.6 30.35 M32.25 32.5 L31.25 32.5 30.25 32.5 29.85 32.05 30.05 31.8 31.3 31.25 31.2 30.65 Q31.2 30.25 31.55 29.8 31.95 29.25 32.25 29.95 L32.45 31.75 32.25 32.5" fill="#660000" fill-rule="evenodd" stroke="none"/>
      <path d="M25.25 9.3 L24.85 9.3 24.75 9.35 24.75 9.4 24.6 9.4 24.5 9.45 24.45 9.45 24.25 9.55 24.2 9.55 24.1 9.5 22.05 10.15 21.7 10.0 21.35 10.3 19.75 10.55 19.05 10.45 Q18.7 10.35 18.5 10.6 L18.25 10.55 18.25 10.6 18.2 10.7 18.35 10.85 19.85 10.85 21.15 10.85 21.65 10.75 21.8 10.75 22.75 10.5 22.75 10.45 22.75 10.4 23.85 10.1 24.1 10.1 24.7 9.95 24.8 9.9 26.45 9.7 26.2 9.7 26.95 9.6 27.0 9.55 27.45 9.6 27.45 9.55 27.5 9.5 27.55 9.5 27.5 9.7 27.45 9.7 27.1 9.85 Q25.8 10.35 24.65 11.15 L24.35 11.65 23.45 12.55 23.45 12.65 23.45 12.75 23.0 13.3 21.55 14.7 21.55 14.8 21.5 14.85 21.45 14.9 21.45 14.95 21.5 15.0 21.5 15.05 21.7 15.05 21.75 15.05 Q21.5 15.75 21.6 16.55 L21.65 16.6 21.75 16.75 21.75 16.8 22.2 18.35 22.45 19.9 22.35 20.8 Q21.85 22.65 19.9 23.15 17.05 23.85 14.15 23.2 L13.2 23.15 Q12.4 23.1 11.75 22.65 10.55 21.8 9.85 20.4 L9.8 20.0 Q9.45 18.05 10.35 16.2 L10.45 16.15 10.65 15.75 Q11.25 14.6 10.9 13.4 L10.9 13.25 Q11.1 11.85 10.2 11.05 L10.2 11.0 10.3 10.95 10.4 10.75 10.45 10.75 10.65 10.65 10.95 10.65 12.45 10.7 Q12.7 10.7 12.8 10.5 L11.0 10.25 10.95 10.2 13.0 10.25 16.55 10.3 16.5 10.4 16.45 10.45 16.45 10.6 Q16.35 10.9 16.4 11.3 L16.4 11.35 16.35 11.5 Q15.95 11.65 15.65 11.9 L15.6 11.95 Q15.35 12.7 15.45 13.55 L15.25 13.65 15.2 13.6 15.15 13.55 15.05 13.4 15.05 13.35 15.1 12.95 15.05 12.9 14.9 12.85 14.55 13.15 14.55 13.2 14.4 13.5 14.4 13.55 Q14.3 14.3 14.5 15.0 L15.1 15.55 18.05 15.5 18.05 15.45 18.1 15.45 Q19.2 14.85 18.7 13.35 L18.5 13.3 18.4 13.4 18.3 14.0 18.1 14.0 18.1 13.9 18.1 13.85 18.2 13.65 Q18.4 12.9 18.1 12.1 L17.75 11.85 17.75 11.75 17.65 11.6 17.5 11.55 17.4 11.65 17.6 12.2 17.6 12.35 17.45 12.65 17.45 12.7 Q17.45 13.05 17.05 13.2 L16.85 13.15 16.8 13.05 Q16.45 12.35 17.0 11.7 L17.0 11.5 17.0 11.0 16.95 11.0 16.7 10.6 16.65 10.35 16.65 10.3 21.05 10.05 23.35 9.5 25.35 9.25 25.25 9.3 M24.7 9.45 L24.75 9.4 24.8 9.45 24.7 9.45 M17.3 16.15 L17.25 16.1 13.65 15.65 12.4 15.7 12.35 15.7 12.3 15.65 12.5 15.6 12.25 15.6 12.2 15.6 11.95 15.75 12.05 15.7 11.4 16.15 11.35 16.2 11.3 16.15 Q11.55 15.95 11.8 15.85 L11.7 15.85 11.15 16.0 11.1 16.0 11.0 16.1 10.6 16.8 Q10.35 17.35 10.4 17.9 10.25 18.4 10.35 19.0 L10.4 19.45 10.95 20.05 11.1 20.0 11.25 19.85 11.4 19.75 Q12.5 18.75 13.85 18.1 L14.4 17.95 16.35 17.5 16.6 17.35 Q17.45 17.0 17.3 16.15 M10.0 10.9 L9.9 10.8 9.9 10.75 10.15 10.05 10.35 10.1 10.3 10.1 10.25 10.35 10.2 10.45 10.1 10.55 10.0 10.9 M10.9 19.75 L10.9 19.7 10.95 19.75 10.9 19.75" fill="#333333" fill-rule="evenodd" stroke="none"/>
      <path d="M27.0 9.55 L26.95 9.6 26.2 9.7 26.45 9.7 24.8 9.9 24.7 9.95 24.1 10.1 23.85 10.1 22.75 10.4 22.75 10.45 22.75 10.5 21.8 10.75 21.65 10.75 21.15 10.85 19.85 10.85 18.35 10.85 18.2 10.7 18.25 10.6 18.25 10.55 18.5 10.6 Q18.7 10.35 19.05 10.45 L19.75 10.55 21.35 10.3 21.7 10.0 22.05 10.15 24.1 9.5 24.2 9.55 24.25 9.55 24.45 9.45 24.5 9.45 24.6 9.4 24.75 9.4 24.75 9.35 24.85 9.3 25.25 9.3 24.85 9.4 24.8 9.45 24.75 9.4 24.7 9.45 24.5 9.5 24.5 9.55 24.45 9.65 24.5 9.65 24.6 9.7 24.7 9.7 24.75 9.8 25.5 9.55 27.0 9.55 M11.0 10.25 L12.8 10.5 Q12.7 10.7 12.45 10.7 L10.95 10.65 11.2 10.45 11.0 10.3 11.0 10.25 M10.65 10.65 L10.45 10.75 10.4 10.75 10.3 10.95 10.2 11.0 10.2 11.05 10.05 10.95 10.0 10.9 10.1 10.55 10.05 10.6 10.2 10.8 10.5 10.6 10.65 10.65 M17.3 16.15 Q17.45 17.0 16.6 17.35 L16.35 17.5 14.4 17.95 13.85 18.1 Q12.5 18.75 11.4 19.75 L11.25 19.85 11.1 20.0 10.95 20.05 10.4 19.45 10.35 19.0 Q10.25 18.4 10.4 17.9 10.35 17.35 10.6 16.8 L11.0 16.1 11.1 16.0 11.15 16.0 11.7 15.85 11.8 15.85 Q11.55 15.95 11.3 16.15 L11.35 16.2 11.4 16.15 12.05 15.7 11.95 15.75 12.2 15.6 12.25 15.6 12.5 15.6 12.3 15.65 12.35 15.7 12.4 15.7 13.65 15.65 17.25 16.1 17.3 16.15 M11.35 16.2 Q10.95 16.45 10.85 16.95 L10.7 17.15 10.5 18.0 10.5 18.05 11.55 18.2 13.15 17.4 13.95 17.05 14.65 16.7 14.7 16.65 14.8 16.45 14.8 16.4 14.7 16.15 14.65 16.1 14.6 16.05 Q13.7 15.6 12.65 15.8 12.0 15.85 11.45 16.15 L11.35 16.2 M10.95 17.35 L10.95 17.4 10.9 17.4 11.1 17.1 10.95 17.35 M10.9 19.75 L10.95 19.75 10.9 19.7 10.9 19.75" fill="#5a5a5a" fill-rule="evenodd" stroke="none"/>
      <path d="M25.25 9.3 L25.35 9.25 25.5 9.2 25.65 9.2 27.4 9.4 27.45 9.4 27.5 9.45 27.5 9.5 27.45 9.55 27.45 9.6 27.0 9.55 25.5 9.55 25.8 9.35 25.65 9.2 Q25.15 9.35 24.7 9.65 L24.7 9.7 24.6 9.7 24.5 9.65 24.45 9.65 24.5 9.55 24.5 9.5 24.7 9.45 24.8 9.45 24.85 9.4 25.25 9.3 M10.95 10.65 L10.65 10.65 10.5 10.6 10.2 10.8 10.05 10.6 10.1 10.55 10.2 10.45 10.25 10.35 10.3 10.1 10.35 10.1 10.35 10.05 10.4 10.05 10.45 10.0 10.6 10.1 10.55 10.1 10.45 10.25 11.0 10.3 11.2 10.45 10.95 10.65 M11.35 16.2 L11.45 16.15 Q12.0 15.85 12.65 15.8 13.7 15.6 14.6 16.05 L14.65 16.1 14.7 16.15 14.8 16.4 14.8 16.45 14.7 16.65 14.65 16.7 13.95 17.05 13.15 17.4 11.55 18.2 10.5 18.05 10.5 18.0 10.7 17.15 10.85 16.95 Q10.95 16.45 11.35 16.2 M12.4 16.35 L12.5 16.3 12.6 16.2 12.15 16.0 12.05 16.05 11.9 16.15 11.8 16.3 11.7 16.55 11.75 16.6 12.1 16.75 12.25 16.65 12.4 16.35 M10.95 17.35 L11.1 17.1 10.9 17.4 10.95 17.4 10.95 17.35" fill="#767676" fill-rule="evenodd" stroke="none"/>
      <path d="M10.95 10.2 L11.0 10.25 11.0 10.3 10.45 10.25 10.55 10.1 10.6 10.1 10.6 10.05 Q10.85 10.05 10.95 10.2 M25.5 9.55 L24.75 9.8 24.7 9.7 24.7 9.65 Q25.15 9.35 25.65 9.2 L25.8 9.35 25.5 9.55 M12.4 16.35 L12.25 16.65 12.1 16.75 11.75 16.6 11.7 16.55 11.8 16.3 11.9 16.15 12.05 16.05 12.15 16.0 12.6 16.2 12.5 16.3 12.4 16.35" fill="#cbcbcb" fill-rule="evenodd" stroke="none"/>
      <path d="M25.35 9.25 L23.35 9.5 21.05 10.05 16.65 10.3 16.65 10.35 16.7 10.6 16.95 11.0 17.0 11.0 17.0 11.5 17.0 11.7 Q16.45 12.35 16.8 13.05 L16.85 13.15 17.05 13.2 Q17.45 13.05 17.45 12.7 L17.45 12.65 17.6 12.35 17.6 12.2 17.4 11.65 17.5 11.55 17.65 11.6 17.75 11.75 17.75 11.85 18.1 12.1 Q18.4 12.9 18.2 13.65 L18.1 13.85 18.1 13.9 18.1 14.0 18.3 14.0 18.4 13.4 18.5 13.3 18.7 13.35 Q19.2 14.85 18.1 15.45 L18.05 15.45 18.05 15.5 15.1 15.55 14.5 15.0 Q14.3 14.3 14.4 13.55 L14.4 13.5 14.55 13.2 14.55 13.15 14.9 12.85 15.05 12.9 15.1 12.95 15.05 13.35 15.05 13.4 15.15 13.55 15.2 13.6 15.25 13.65 15.15 13.7 14.95 13.65 14.95 13.6 14.8 13.55 14.7 13.55 14.7 13.6 14.65 13.7 Q14.5 14.15 14.65 14.45 L14.65 14.7 14.75 14.8 14.75 14.85 14.85 14.95 14.85 15.05 15.0 15.2 15.15 15.25 15.65 15.4 15.7 15.4 15.75 15.45 17.15 15.5 17.2 15.45 17.45 15.4 17.6 15.4 17.6 15.35 17.8 15.3 17.85 15.3 18.25 15.05 18.4 14.85 18.45 14.85 18.5 14.8 18.75 14.4 18.75 14.35 18.6 14.25 18.6 14.3 18.55 14.25 18.55 14.15 18.45 14.3 18.4 14.35 18.3 14.3 18.05 14.4 17.8 14.25 17.8 13.85 18.1 13.4 18.1 13.35 18.2 13.2 18.15 12.9 18.05 12.8 18.05 12.7 18.0 12.65 17.95 12.6 17.9 12.55 17.9 12.5 17.85 12.45 17.85 12.6 17.7 12.7 17.7 12.8 17.6 13.0 17.5 13.25 17.3 13.35 17.3 13.4 17.3 13.45 17.15 13.5 16.75 13.45 16.35 13.0 16.35 12.6 16.4 12.55 16.45 12.4 16.45 12.25 16.65 12.05 16.65 11.95 16.7 11.85 16.8 11.65 16.85 11.4 16.8 11.4 16.7 11.3 16.7 11.25 16.7 11.35 16.65 11.35 16.55 11.4 16.55 11.5 15.75 12.2 15.75 12.3 15.7 12.35 15.7 12.45 15.7 12.65 15.75 12.65 15.75 13.05 15.7 13.25 15.5 13.55 15.45 13.55 Q15.35 12.7 15.6 11.95 L15.65 11.9 Q15.95 11.65 16.35 11.5 L16.4 11.35 16.4 11.3 Q16.35 10.9 16.45 10.6 L16.45 10.45 16.5 10.4 16.55 10.3 13.0 10.25 10.95 10.2 Q10.85 10.05 10.6 10.05 L10.6 10.1 10.45 10.0 10.4 10.05 10.35 10.05 10.35 10.1 10.15 10.05 9.9 10.75 9.9 10.8 10.0 10.9 10.05 10.95 10.2 11.05 Q11.1 11.85 10.9 13.25 L10.9 13.4 Q11.25 14.6 10.65 15.75 L10.45 16.15 10.35 16.2 Q9.45 18.05 9.8 20.0 L9.85 20.4 Q10.55 21.8 11.75 22.65 12.4 23.1 13.2 23.15 L14.15 23.2 Q17.05 23.85 19.9 23.15 21.85 22.65 22.35 20.8 L22.45 19.9 22.2 18.35 21.75 16.8 21.75 16.75 21.65 16.6 21.6 16.55 Q21.5 15.75 21.75 15.05 L21.75 15.0 21.7 15.05 21.5 15.05 21.5 15.0 21.45 14.95 21.45 14.9 21.5 14.85 21.55 14.8 21.55 14.7 23.0 13.3 23.45 12.75 23.45 12.65 23.45 12.55 24.35 11.65 24.65 11.15 Q25.8 10.35 27.1 9.85 L27.45 9.7 27.5 9.7 27.55 9.5 27.5 9.5 27.5 9.45 27.45 9.4 27.4 9.4 25.65 9.2 25.5 9.2 25.35 9.25 M25.55 8.95 L27.4 9.1 27.5 9.15 27.55 9.15 27.7 9.25 27.75 9.15 27.8 9.1 27.85 9.1 27.95 9.2 28.0 9.2 27.95 9.4 28.0 9.45 28.0 9.5 27.9 9.55 27.9 9.6 27.8 9.75 27.9 9.9 27.55 10.0 27.35 10.1 Q26.1 10.5 25.05 11.3 L24.85 11.35 24.35 12.05 24.1 12.45 24.05 12.5 23.8 12.65 22.6 14.15 22.2 14.55 22.2 14.6 Q21.8 15.4 21.9 16.35 L21.9 16.4 22.45 18.15 Q23.1 20.0 22.35 21.75 L22.0 22.3 21.95 22.3 21.85 22.35 21.25 22.8 21.15 22.9 21.1 22.95 Q20.5 23.15 19.95 23.5 16.65 24.2 13.35 23.4 L12.65 23.3 Q10.9 22.95 10.05 21.3 L9.55 20.5 Q9.1 18.45 9.9 16.55 L10.05 16.1 10.6 14.85 10.6 14.8 10.75 13.7 10.7 13.65 10.65 13.55 10.6 13.5 Q10.75 12.35 10.15 11.45 L9.85 11.15 9.6 11.0 9.8 10.0 9.75 10.0 9.8 10.0 9.8 9.75 9.8 9.7 9.9 9.65 9.95 9.6 10.0 9.65 10.05 9.65 10.15 9.85 11.1 9.85 12.0 9.9 19.1 10.0 19.25 10.0 25.0 9.05 25.5 9.0 25.55 8.95 M16.7 11.25 L16.7 11.15 16.7 11.25" fill="#000000" fill-rule="evenodd" stroke="none"/>
      <path d="M17.9 12.55 L17.85 12.6 17.85 12.45 17.9 12.5 17.9 12.55 M17.5 13.25 L17.35 13.4 17.3 13.45 17.3 13.4 17.3 13.35 17.5 13.25 M17.15 13.5 L16.95 13.55 17.25 13.65 17.35 13.65 17.65 13.6 17.45 13.95 17.6 14.1 17.65 14.05 17.8 13.85 17.8 14.25 18.05 14.4 17.95 14.4 17.95 14.45 17.95 14.55 18.1 14.65 Q17.95 14.8 17.75 14.9 L17.7 14.95 17.7 15.0 17.0 15.2 15.9 15.2 15.3 15.0 15.3 14.95 15.3 14.9 15.15 14.75 15.15 14.7 15.1 14.6 14.95 14.45 14.95 14.4 14.95 14.1 15.8 14.0 15.85 13.95 15.9 13.75 16.15 13.15 16.15 13.05 16.15 12.9 16.1 12.85 16.05 12.75 16.05 12.7 16.05 12.5 16.1 12.45 16.2 12.35 16.2 12.5 16.35 12.6 16.35 13.0 16.75 13.45 17.15 13.5 M16.7 11.25 L16.7 11.3 16.7 11.35 16.7 11.25 M18.4 14.35 L18.45 14.3 18.55 14.15 18.55 14.25 18.6 14.3 18.4 14.35 M18.5 14.8 L18.45 14.85 18.4 14.85 18.25 15.05 17.85 15.3 17.8 15.3 18.4 14.85 18.5 14.8 M17.6 15.35 L17.6 15.4 17.45 15.4 17.6 15.35 M14.85 14.95 L14.75 14.85 14.75 14.8 14.8 14.8 14.9 14.95 14.85 14.95 M14.7 13.6 L14.7 13.55 14.8 13.55 14.75 13.55 14.7 13.6 M15.75 12.7 L15.75 12.8 15.75 13.05 15.75 12.65 15.75 12.7" fill="#e99916" fill-rule="evenodd" stroke="none"/>
      <path d="M15.25 13.65 L15.45 13.55 15.5 13.55 15.7 13.25 15.75 13.05 15.75 12.8 15.75 12.7 15.75 12.4 15.9 12.2 15.9 12.15 16.65 11.55 16.75 11.65 16.8 11.65 16.7 11.85 16.65 11.9 16.65 11.85 16.5 11.75 Q16.3 11.8 16.2 11.95 L16.15 12.1 16.2 12.35 16.1 12.45 16.05 12.5 16.05 12.7 16.05 12.75 16.0 13.1 15.95 13.45 15.8 13.55 15.8 13.6 15.75 13.7 15.65 13.8 15.4 13.85 15.4 13.9 15.35 13.95 14.95 14.05 14.95 14.1 14.95 14.4 14.95 14.45 14.95 14.5 15.0 14.6 14.9 14.55 14.8 14.8 14.75 14.8 14.65 14.7 14.65 14.45 14.65 13.9 14.75 13.6 14.95 13.65 15.15 13.7 15.25 13.65 M17.85 12.6 L17.9 12.55 17.95 12.6 18.0 12.65 18.05 12.7 18.05 12.8 18.15 12.9 18.2 13.2 18.1 13.35 18.1 13.4 18.2 13.1 18.15 13.1 18.05 13.0 18.0 13.05 17.65 13.6 17.35 13.65 17.25 13.65 16.95 13.55 17.15 13.5 17.3 13.45 17.35 13.4 17.5 13.25 17.6 13.0 17.7 12.8 17.7 12.7 17.85 12.6" fill="#f4cd8e" fill-rule="evenodd" stroke="none"/>
      <path d="M16.7 11.3 L16.8 11.4 16.85 11.4 16.8 11.65 16.75 11.65 16.65 11.55 15.9 12.15 15.9 12.2 15.75 12.4 15.75 12.7 15.75 12.65 15.7 12.65 15.7 12.45 15.7 12.35 15.75 12.3 15.75 12.2 16.55 11.5 16.55 11.4 16.65 11.35 16.7 11.35 16.7 11.3 M16.7 11.85 L16.65 11.95 16.65 12.05 16.45 12.25 16.45 12.1 16.6 12.0 16.65 11.95 16.65 11.9 16.7 11.85 M14.65 14.45 Q14.5 14.15 14.65 13.7 L14.7 13.6 14.75 13.55 14.8 13.55 14.95 13.6 14.95 13.65 14.75 13.6 14.65 13.9 14.65 14.45 M16.05 12.75 L16.1 12.85 16.15 12.9 16.15 13.05 16.15 13.15 15.9 13.75 15.85 13.95 15.8 14.0 14.95 14.1 14.95 14.05 15.35 13.95 15.4 13.9 15.4 13.85 15.65 13.8 15.75 13.7 15.8 13.6 15.8 13.55 15.95 13.45 16.0 13.1 16.05 12.75 M14.95 14.45 L15.1 14.6 15.15 14.7 15.15 14.75 15.1 14.75 15.1 14.7 15.0 14.6 14.95 14.5 14.95 14.45" fill="#efb85f" fill-rule="evenodd" stroke="none"/>
      <path d="M17.65 13.6 L18.0 13.05 18.05 13.0 18.15 13.1 18.2 13.1 18.1 13.4 17.8 13.85 17.65 14.05 17.6 14.1 17.45 13.95 17.65 13.6 M16.45 12.25 L16.45 12.4 16.4 12.55 16.35 12.6 16.2 12.5 16.2 12.35 16.15 12.1 16.2 11.95 Q16.3 11.8 16.5 11.75 L16.65 11.85 16.65 11.9 16.65 11.95 16.6 12.0 16.45 12.1 16.45 12.25 M18.05 14.4 L18.3 14.3 18.4 14.35 18.6 14.3 18.6 14.25 18.75 14.35 18.75 14.4 18.5 14.8 18.4 14.85 17.8 15.3 17.6 15.35 17.45 15.4 17.2 15.45 17.15 15.5 15.75 15.45 15.7 15.4 15.65 15.4 15.15 15.25 15.0 15.2 14.85 15.05 14.85 14.95 14.9 14.95 14.8 14.8 14.9 14.55 15.0 14.6 15.1 14.7 15.1 14.75 15.15 14.75 15.3 14.9 15.3 14.95 15.3 15.0 15.9 15.2 17.0 15.2 17.7 15.0 17.7 14.95 17.75 14.9 Q17.95 14.8 18.1 14.65 L17.95 14.55 17.95 14.45 17.95 14.4 18.05 14.4" fill="#95620f" fill-rule="evenodd" stroke="none"/>
      <path d="M18.1 17.0 L18.15 17.05 18.15 17.1 18.05 17.2 17.95 20.75 18.05 23.25 17.9 24.15 17.9 24.25 17.9 24.45 17.8 24.75 17.4 24.8 15.7 24.65 15.65 24.75 15.45 24.7 15.45 24.6 15.35 24.5 15.4 24.4 Q15.05 21.65 15.2 18.8 L15.3 17.25 15.25 17.15 15.2 17.1 15.2 17.05 15.25 17.0 15.3 17.0 15.3 16.85 15.4 16.8 15.45 16.75 15.55 16.85 15.6 16.85 15.6 16.9 18.05 16.95 18.1 17.0 M16.25 18.5 Q16.35 18.7 16.6 18.6 L16.65 18.55 16.65 18.5 16.9 18.25 Q16.8 17.95 16.4 18.0 16.15 18.2 16.2 18.5 L16.25 18.5 M16.4 17.7 Q16.9 17.65 17.15 18.05 L17.2 18.1 Q17.05 19.2 16.05 18.65 L15.9 18.4 15.9 18.15 16.0 18.05 16.05 17.95 16.05 17.9 16.35 17.75 16.4 17.7 M17.7 22.1 L17.55 19.6 17.75 17.25 15.6 17.3 15.55 22.8 15.7 24.25 15.75 24.4 15.8 24.4 17.45 24.55 17.6 24.45 17.6 24.35 17.6 24.3 17.6 24.2 17.7 23.9 17.7 23.8 17.7 23.75 17.75 22.5 17.7 22.1" fill="#000000" fill-rule="evenodd" stroke="none"/>
      <path d="M16.2 18.5 Q16.15 18.2 16.4 18.0 16.8 17.95 16.9 18.25 L16.65 18.5 16.65 18.55 16.6 18.6 Q16.35 18.7 16.25 18.5 L16.2 18.5" fill="#b9b9b9" fill-rule="evenodd" stroke="none"/>
      <path d="M17.7 22.1 L17.75 22.5 17.7 23.75 17.7 23.8 17.7 23.9 17.6 24.2 17.6 24.3 17.6 24.35 17.6 24.45 17.45 24.55 15.8 24.4 15.75 24.4 15.7 24.25 15.55 22.8 15.6 17.3 17.75 17.25 17.55 19.6 17.7 22.1 M16.4 17.7 L16.35 17.75 16.05 17.9 16.05 17.95 16.0 18.05 15.9 18.15 15.9 18.4 16.05 18.65 Q17.05 19.2 17.2 18.1 L17.15 18.05 Q16.9 17.65 16.4 17.7" fill="#ab813a" fill-rule="evenodd" stroke="none"/>
    </g>
  </defs>
</svg>
