<?xml version="1.0" encoding="UTF-8" standalone="no"?>
<svg xmlns:xlink="http://www.w3.org/1999/xlink" height="204.0px" width="1233.3px" xmlns="http://www.w3.org/2000/svg">
  <g transform="matrix(6.0, 0.0, 0.0, 6.0, 6.3, 102.0)">
    <use height="34.0" id="btr" transform="matrix(1.0, 0.0, 0.0, 1.0, 170.5, -17.0)" width="34.0" xlink:href="#button0"/>
    <use height="34.0" id="bt1" transform="matrix(1.0, 0.0, 0.0, 1.0, -0.5, -17.0)" width="34.0" xlink:href="#button1"/>
    <use height="34.0" id="bt2" transform="matrix(1.0, 0.0, 0.0, 1.0, 39.5, -17.0)" width="34.0" xlink:href="#button2"/>
    <use height="34.0" id="bt3" transform="matrix(1.0, 0.0, 0.0, 1.0, 79.5, -17.0)" width="34.0" xlink:href="#button3"/>
  </g>
  <defs>
    <g id="button0" transform="matrix(1.0, 0.0, 0.0, 1.0, 0.5, 0.5)">
      <use height="34.0" transform="matrix(1.0, 0.0, 0.0, 1.0, -0.5, -0.5)" width="34.0" xlink:href="#shape0"/>
      <use height="32.3" transform="matrix(1.0, 0.0, 0.0, 1.0, 0.6, 0.3)" width="32.1" xlink:href="#shape1"/>
    </g>
    <g id="shape0" transform="matrix(1.0, 0.0, 0.0, 1.0, 0.5, 0.5)">
      <path d="M33.0 0.0 L33.0 33.0 0.0 33.0 0.0 0.0 33.0 0.0" fill="#c4c4c4" fill-rule="evenodd" stroke="none"/>
      <path d="M33.0 0.0 L33.0 33.0 0.0 33.0 0.0 0.0 33.0 0.0 Z" fill="none" stroke="#000000" stroke-linecap="round" stroke-linejoin="round" stroke-width="1.0"/>
      <path d="M30.0 3.0 L3.0 3.0 3.0 30.0 30.0 30.0 30.0 3.0 M33.0 0.0 L33.0 33.0 0.0 33.0 0.0 0.0 33.0 0.0" fill="url(#gradient0)" fill-rule="evenodd" stroke="none"/>
      <path d="M30.0 3.0 L30.0 30.0 3.0 30.0 3.0 3.0 30.0 3.0" fill="#7b7b7b" fill-rule="evenodd" stroke="none"/>
      <path d="M30.0 3.0 L30.0 30.0 3.0 30.0 3.0 3.0 30.0 3.0 M33.0 0.0 L33.0 33.0 0.0 33.0 0.0 0.0 33.0 0.0" fill="none" stroke="#000000" stroke-linecap="round" stroke-linejoin="round" stroke-width="1.0"/>
      <path d="M28.0 0.0 L33.0 0.0 33.0 5.0 28.0 5.0 28.0 0.0 M0.0 0.0 L5.0 0.0 5.0 5.0 0.0 5.0 0.0 0.0 M5.0 28.0 L5.0 33.0 0.0 33.0 0.0 28.0 5.0 28.0 M28.0 28.0 L33.0 28.0 33.0 33.0 28.0 33.0 28.0 28.0" fill="#990000" fill-rule="evenodd" stroke="none"/>
      <path d="M28.0 0.0 L33.0 0.0 33.0 5.0 28.0 5.0 28.0 0.0 M0.0 0.0 L5.0 0.0 5.0 5.0 0.0 5.0 0.0 0.0 M5.0 28.0 L5.0 33.0 0.0 33.0 0.0 28.0 5.0 28.0 M28.0 28.0 L33.0 28.0 33.0 33.0 28.0 33.0 28.0 28.0" fill="none" stroke="#000000" stroke-linecap="round" stroke-linejoin="round" stroke-width="1.0"/>
    </g>
    <linearGradient gradientTransform="matrix(0.0152, 0.0234, -0.0234, 0.0152, 16.5, 16.45)" gradientUnits="userSpaceOnUse" id="gradient0" spreadMethod="pad" x1="-819.2" x2="819.2">
      <stop offset="0.0" stop-color="#eed600"/>
      <stop offset="0.19607843137254902" stop-color="#fef292"/>
      <stop offset="0.36470588235294116" stop-color="#ecd502"/>
      <stop offset="0.6352941176470588" stop-color="#9a8b00"/>
      <stop offset="0.8627450980392157" stop-color="#fff9c4"/>
      <stop offset="1.0" stop-color="#c4c400"/>
    </linearGradient>
    <g id="shape1" transform="matrix(1.0, 0.0, 0.0, 1.0, -0.6, -0.3)">
      <path d="M29.6 1.25 L29.05 2.1 28.6 1.8 28.6 1.45 28.85 0.8 Q28.9 0.35 29.3 0.35 L29.4 0.4 Q29.85 0.1 29.85 0.7 L29.7 1.1 29.6 1.25 M1.25 2.6 Q0.8 2.6 0.7 2.2 L0.7 1.7 Q0.7 1.15 1.45 0.65 2.2 0.2 2.2 0.95 L1.25 2.6 M1.85 29.35 L1.55 29.85 1.0 30.25 Q0.6 30.25 0.6 29.8 0.6 29.5 0.9 29.25 1.3 28.9 1.8 29.1 L1.85 29.35 M29.95 29.35 L29.8 29.95 29.4 30.25 Q28.95 30.25 28.95 29.8 28.95 29.4 29.45 29.0 29.95 28.55 29.95 29.35" fill="#ff6666" fill-rule="evenodd" stroke="none"/>
      <path d="M32.7 3.95 L32.7 4.35 31.45 4.6 Q30.2 4.6 30.2 4.2 30.2 3.9 30.7 3.65 L31.35 2.95 Q31.15 2.6 31.45 2.15 31.8 1.75 32.3 1.95 L32.7 3.95 M4.2 2.5 Q4.2 4.6 2.45 4.6 L2.05 4.55 Q1.95 4.05 2.1 3.9 L1.7 3.5 Q1.7 3.05 3.35 3.05 L3.9 2.1 Q4.2 1.65 4.2 2.5 M3.6 30.35 Q3.7 30.0 4.3 30.1 L4.35 32.05 Q4.25 32.6 3.75 32.6 L1.6 32.45 Q1.45 32.4 1.45 32.15 2.65 30.7 3.6 30.85 L3.6 30.35 M32.25 32.5 L31.25 32.5 30.25 32.5 29.85 32.05 30.05 31.8 31.3 31.25 31.2 30.65 Q31.2 30.25 31.55 29.8 31.95 29.25 32.25 29.95 L32.45 31.75 32.25 32.5" fill="#660000" fill-rule="evenodd" stroke="none"/>
      <path d="M28.0 20.5 L14.5 20.5 14.5 26.0 5.0 16.5 14.5 7.0 14.5 12.5 28.0 12.5 28.0 20.5" fill="#b10101" fill-rule="evenodd" stroke="none"/>
    </g>
    <g id="button1" transform="matrix(1.0, 0.0, 0.0, 1.0, 0.5, 0.5)">
      <use height="34.0" transform="matrix(1.0, 0.0, 0.0, 1.0, -0.5, -0.5)" width="34.0" xlink:href="#shape0"/>
      <use height="32.3" transform="matrix(1.0, 0.0, 0.0, 1.0, 0.6, 0.3)" width="32.1" xlink:href="#shape2"/>
    </g>
    <g id="shape2" transform="matrix(1.0, 0.0, 0.0, 1.0, -0.6, -0.3)">
      <path d="M29.85 0.7 L29.7 1.1 29.6 1.25 29.05 2.1 28.6 1.8 28.6 1.45 28.85 0.8 Q28.9 0.35 29.3 0.35 L29.4 0.4 Q29.85 0.1 29.85 0.7 M1.25 2.6 Q0.8 2.6 0.7 2.2 L0.7 1.7 Q0.7 1.15 1.45 0.65 2.2 0.2 2.2 0.95 L1.25 2.6 M1.85 29.35 L1.55 29.85 1.0 30.25 Q0.6 30.25 0.6 29.8 0.6 29.5 0.9 29.25 1.3 28.9 1.8 29.1 L1.85 29.35 M29.95 29.35 L29.8 29.95 29.4 30.25 Q28.95 30.25 28.95 29.8 28.95 29.4 29.45 29.0 29.95 28.55 29.95 29.35" fill="#ff6666" fill-rule="evenodd" stroke="none"/>
      <path d="M32.7 3.95 L32.7 4.35 31.45 4.6 Q30.2 4.6 30.2 4.2 30.2 3.9 30.7 3.65 L31.35 2.95 Q31.15 2.6 31.45 2.15 31.8 1.75 32.3 1.95 L32.7 3.95 M4.2 2.5 Q4.2 4.6 2.45 4.6 L2.05 4.55 Q1.95 4.05 2.1 3.9 L1.7 3.5 Q1.7 3.05 3.35 3.05 L3.9 2.1 Q4.2 1.65 4.2 2.5 M3.6 30.35 Q3.7 30.0 4.3 30.1 L4.35 32.05 Q4.25 32.6 3.75 32.6 L1.6 32.45 Q1.45 32.4 1.45 32.15 2.65 30.7 3.6 30.85 L3.6 30.35 M32.25 32.5 L31.25 32.5 30.25 32.5 29.85 32.05 30.05 31.8 31.3 31.25 31.2 30.65 Q31.2 30.25 31.55 29.8 31.95 29.25 32.25 29.95 L32.45 31.75 32.25 32.5" fill="#660000" fill-rule="evenodd" stroke="none"/>
      <path d="M5.4 13.0 L5.35 13.0 Q5.5 12.15 6.25 11.6 L6.8 11.4 6.85 11.35 6.9 11.25 7.0 11.25 7.0 11.2 7.15 11.25 7.15 11.2 7.2 11.25 7.3 11.25 7.3 11.3 7.35 11.35 7.35 11.4 7.8 12.05 Q8.4 11.35 9.3 11.1 L9.45 11.1 9.5 11.15 9.6 11.2 9.65 11.2 9.75 10.1 9.85 10.0 9.95 10.05 10.05 10.0 10.15 9.95 12.6 10.05 12.65 10.1 12.7 10.05 12.8 10.1 12.8 10.15 12.8 11.2 12.8 11.3 12.7 11.35 12.65 11.4 12.65 11.5 12.7 11.55 13.65 11.95 14.35 10.95 14.45 10.85 14.5 10.8 Q15.15 10.9 15.6 11.3 L16.75 12.4 16.8 12.45 16.8 12.5 16.85 12.55 16.3 13.3 16.95 14.85 17.0 15.0 16.95 15.1 16.5 16.55 15.8 18.25 16.15 18.6 16.2 18.55 16.35 18.7 16.45 18.8 16.5 18.85 15.45 20.6 15.35 20.7 15.25 20.85 15.15 20.9 15.05 20.85 14.85 20.9 14.9 21.0 14.8 21.05 14.65 21.05 14.55 20.95 14.4 20.95 14.3 20.75 14.3 20.7 14.0 20.5 13.85 20.5 13.7 20.4 13.35 20.8 13.4 20.85 12.9 21.15 12.85 21.75 12.8 21.85 12.85 21.95 Q12.5 22.3 12.1 22.25 L11.4 22.15 10.8 22.15 10.8 22.2 Q10.4 22.45 10.1 22.2 L10.05 22.2 9.9 22.1 9.8 21.4 9.75 21.35 9.75 21.3 9.65 21.25 9.55 21.2 9.6 21.25 8.05 20.8 7.55 21.1 Q7.4 21.35 7.15 21.3 6.25 20.7 6.15 19.65 L5.9 19.0 5.8 18.8 6.5 18.4 Q6.35 18.4 6.3 18.25 6.35 18.0 6.65 18.05 6.8 17.9 6.95 17.85 L6.85 17.75 6.8 17.7 6.6 17.3 6.2 16.1 6.1 15.15 5.9 14.6 5.9 14.5 5.9 14.4 5.85 14.25 5.8 14.2 5.85 14.15 5.35 13.7 5.4 13.6 5.45 13.5 5.25 13.45 5.2 13.45 5.25 13.15 5.35 13.05 6.2 14.1 6.2 14.15 6.1 14.25 6.25 14.5 6.25 14.45 6.3 14.5 6.35 14.55 6.35 14.8 6.5 15.65 6.7 16.8 7.05 17.55 7.45 17.8 7.45 17.95 7.4 18.05 7.15 18.05 6.9 18.2 6.9 18.4 6.9 18.5 6.15 18.9 6.4 19.4 6.35 19.6 Q6.55 20.4 7.2 21.05 L7.85 20.4 7.9 20.35 8.0 20.35 8.15 20.45 8.35 20.5 8.35 20.55 8.35 20.6 9.9 20.75 9.9 20.8 9.95 20.85 10.05 20.9 10.05 20.95 10.25 21.85 10.35 21.85 10.4 21.8 12.1 21.95 Q12.25 21.8 12.5 21.8 12.35 21.35 12.55 21.1 L12.55 21.05 12.6 21.1 12.6 21.0 12.6 20.9 12.7 20.85 12.75 20.8 12.8 20.85 12.85 20.85 12.9 20.8 12.95 20.8 13.4 20.3 13.6 20.0 13.7 19.95 13.75 19.9 13.85 20.0 13.9 20.0 13.9 20.05 14.2 20.2 14.25 20.2 14.3 20.25 14.3 20.35 14.65 20.6 16.0 19.2 16.05 19.25 16.1 19.15 16.1 19.0 15.65 18.55 15.6 18.55 15.55 18.6 15.4 18.45 15.45 18.4 15.2 18.2 15.15 18.15 15.2 18.05 15.3 18.0 15.55 18.1 15.9 17.15 15.8 17.05 16.05 16.7 16.35 15.75 16.35 15.7 16.45 15.65 16.5 15.6 16.55 15.65 16.75 15.05 16.1 13.75 16.05 13.7 15.7 13.25 15.8 13.1 15.85 13.1 15.9 13.15 16.45 12.65 16.4 12.6 16.2 12.3 16.1 12.15 16.15 12.3 16.15 12.35 16.1 12.35 15.9 12.35 Q15.55 11.4 14.65 11.15 L14.6 11.15 13.65 12.25 13.5 12.15 12.8 12.0 12.45 11.85 12.4 11.85 12.35 11.8 12.25 11.75 12.35 11.6 12.4 10.3 12.4 10.2 10.25 10.35 10.05 10.35 10.0 11.75 9.95 11.85 9.85 11.85 9.7 11.8 9.7 11.7 9.7 11.55 9.7 11.45 Q8.7 11.65 7.85 12.3 L7.75 12.35 7.65 12.3 7.05 11.6 7.05 11.55 Q6.1 12.0 5.7 13.0 L5.5 13.1 5.45 13.05 5.4 13.0 M13.9 20.05 L13.85 20.1 13.9 20.05 M10.25 21.85 L10.25 21.9 10.25 21.85" fill="#000000" fill-rule="evenodd" stroke="none"/>
      <path d="M5.35 13.05 L5.4 13.0 5.45 13.05 5.5 13.1 5.7 13.0 Q6.1 12.0 7.05 11.55 L7.05 11.6 7.65 12.3 7.75 12.35 7.85 12.3 Q8.7 11.65 9.7 11.45 L9.7 11.55 9.7 11.7 9.7 11.8 9.85 11.85 9.95 11.85 10.0 11.75 10.05 10.35 10.25 10.35 12.4 10.2 12.4 10.3 12.35 11.6 12.25 11.75 12.35 11.8 12.4 11.85 12.45 11.85 12.8 12.0 13.5 12.15 13.65 12.25 14.6 11.15 14.65 11.15 Q15.55 11.4 15.9 12.35 L16.1 12.35 16.15 12.35 16.15 12.3 16.2 12.3 16.4 12.6 16.45 12.65 15.9 13.15 15.85 13.1 15.8 13.1 15.7 13.25 16.05 13.7 16.1 13.75 16.75 15.05 16.55 15.65 16.5 15.6 16.45 15.65 16.35 15.7 16.35 15.75 16.05 16.7 15.8 17.05 15.9 17.15 15.55 18.1 15.3 18.0 15.2 18.05 15.15 18.15 15.2 18.2 15.45 18.4 15.4 18.45 15.55 18.6 15.6 18.55 15.65 18.55 16.1 19.0 16.1 19.15 16.05 19.25 16.0 19.2 14.65 20.6 14.3 20.35 14.3 20.25 14.25 20.2 14.2 20.2 13.9 20.05 13.9 20.0 13.85 20.0 13.75 19.9 13.7 19.95 13.6 20.0 13.4 20.3 12.95 20.8 12.9 20.8 12.85 20.85 12.8 20.85 12.75 20.8 12.7 20.85 12.6 20.9 12.6 21.0 12.6 21.1 12.55 21.05 12.55 21.1 Q12.35 21.35 12.5 21.8 12.25 21.8 12.1 21.95 L10.4 21.8 10.35 21.85 10.25 21.85 10.05 20.95 10.05 20.9 9.95 20.85 9.9 20.8 9.9 20.75 8.35 20.6 8.35 20.55 8.35 20.5 8.15 20.45 8.0 20.35 7.9 20.35 7.85 20.4 7.2 21.05 Q6.55 20.4 6.35 19.6 L6.4 19.4 6.15 18.9 6.9 18.5 6.9 18.4 6.9 18.2 7.15 18.05 7.4 18.05 7.45 17.95 7.45 17.8 7.05 17.55 6.7 16.8 6.5 15.65 6.35 14.8 6.35 14.55 6.3 14.5 6.25 14.45 6.25 14.5 6.1 14.25 6.2 14.15 6.2 14.1 5.35 13.05" fill="#754e39" fill-rule="evenodd" stroke="none"/>
      <path d="M16.15 13.6 L16.1 13.5 16.05 13.5 15.95 13.4 15.9 13.45 15.8 13.55 14.85 13.45 12.35 13.15 11.15 12.95 11.1 12.75 11.05 12.75 10.95 12.65 10.9 12.7 10.75 12.9 8.75 12.6 8.7 12.65 8.7 12.7 8.65 12.7 8.6 12.75 Q6.85 12.4 5.4 13.5 L4.75 14.3 Q4.35 15.0 4.3 15.8 L4.25 15.8 4.25 15.9 4.25 16.25 4.2 16.3 4.2 16.4 4.3 16.6 4.35 16.95 4.35 17.8 4.55 17.95 Q4.65 18.35 5.1 18.6 L5.2 18.7 5.25 18.85 5.4 18.9 5.6 19.05 5.85 19.3 5.95 19.35 6.05 19.35 6.1 19.45 6.8 19.65 7.15 19.7 8.2 19.7 8.65 19.7 8.7 19.7 8.25 19.8 9.8 19.8 9.9 19.85 9.95 19.8 10.0 19.8 10.85 19.65 11.0 19.7 11.1 19.7 11.35 19.55 11.35 19.45 11.4 19.45 11.45 19.45 11.95 19.35 12.95 19.2 15.05 19.0 15.1 19.0 15.8 18.95 15.85 19.1 14.25 19.3 8.4 20.1 8.35 20.05 7.65 20.15 6.7 19.9 Q5.35 19.45 4.45 18.35 L4.45 18.15 4.25 17.95 3.95 16.55 3.95 16.25 3.95 16.15 3.95 15.85 4.25 14.45 4.45 14.25 4.45 14.05 Q5.35 12.95 6.7 12.5 L7.65 12.25 8.35 12.35 8.4 12.3 14.25 13.1 17.3 13.45 23.1 14.05 28.35 14.35 28.3 14.3 28.3 14.25 28.6 14.0 Q28.7 13.85 28.85 13.8 L29.2 13.85 29.25 13.85 29.3 13.9 29.5 14.05 29.55 16.15 29.55 16.25 29.5 18.35 29.3 18.5 29.25 18.55 29.2 18.55 28.85 18.6 28.6 18.4 28.3 18.15 28.3 18.1 28.35 18.05 23.1 18.35 17.3 18.95 16.3 19.05 16.35 19.0 16.35 18.9 16.65 18.85 16.7 18.8 16.75 18.75 16.85 18.75 17.0 18.75 17.4 18.85 17.45 18.85 17.55 18.8 17.8 18.7 18.0 18.65 18.15 18.65 18.2 18.65 19.0 18.55 19.95 18.6 20.0 18.55 20.0 18.5 20.05 18.45 20.2 18.45 20.65 18.45 20.85 18.4 20.9 18.45 21.0 18.5 21.25 18.35 21.3 18.3 21.85 18.2 22.05 18.2 22.15 18.15 22.5 18.1 22.55 18.1 22.85 18.1 22.95 18.1 23.35 18.05 23.4 18.05 25.0 17.95 25.45 18.0 26.7 17.85 28.15 17.9 28.2 17.95 28.7 18.1 28.75 18.15 28.8 18.2 28.8 18.25 28.85 18.35 29.2 18.3 29.2 18.25 29.3 18.15 29.3 18.05 29.45 17.25 29.45 17.2 29.35 16.95 29.4 16.9 29.3 16.8 29.25 16.8 29.35 16.4 29.35 16.25 29.3 16.25 29.3 16.15 29.35 16.15 29.35 16.0 29.2 14.65 29.2 14.4 29.25 14.35 29.2 14.3 29.2 14.15 29.15 14.15 28.85 14.1 28.85 14.15 28.8 14.25 28.75 14.3 28.55 14.4 28.5 14.35 28.45 14.4 28.35 14.45 28.35 14.5 24.25 14.55 24.0 14.5 18.4 13.75 17.0 13.7 16.15 13.6" fill="#000000" fill-rule="evenodd" stroke="none"/>
      <path d="M11.35 14.25 L11.3 15.0 11.25 15.05 11.2 15.1 11.2 15.2 11.15 15.6 11.2 15.65 11.25 16.1 11.2 16.15 11.15 16.6 11.15 16.85 11.1 16.85 11.05 16.9 Q10.9 17.05 11.05 17.25 L11.0 17.35 Q10.8 17.85 11.1 18.35 L11.1 18.55 11.1 18.6 11.05 18.55 11.0 18.6 10.95 18.65 10.95 18.55 10.95 18.3 Q10.85 17.6 10.9 16.9 L10.9 16.65 10.9 16.5 10.9 16.4 10.95 16.4 10.9 15.2 11.0 14.2 11.1 13.85 11.1 13.8 11.1 13.7 11.1 13.35 11.1 13.2 11.15 13.05 11.2 13.0 11.15 13.0 11.15 12.95 12.35 13.15 14.85 13.45 15.8 13.55 15.75 13.6 15.7 13.65 15.6 13.7 15.55 13.7 14.0 13.55 11.25 13.0 11.25 13.05 11.3 13.1 11.35 13.25 11.4 13.25 11.4 13.45 11.4 13.85 11.35 14.25 M16.15 13.6 L17.0 13.7 16.2 13.7 16.25 13.75 16.3 13.75 16.35 13.85 16.35 13.9 16.4 13.9 16.4 14.15 16.35 14.95 16.3 15.3 16.25 15.35 16.2 15.4 16.15 15.8 16.2 15.85 16.2 16.0 Q19.9 15.7 23.65 15.9 L23.8 15.9 24.8 15.9 26.8 16.2 Q27.8 16.35 28.5 15.9 L28.6 16.3 28.6 16.65 28.55 16.7 28.45 16.75 21.15 17.1 17.5 17.55 16.95 17.65 16.35 17.75 16.4 16.3 16.35 16.3 16.25 16.2 16.2 16.25 16.15 16.8 16.1 16.8 16.05 16.85 Q15.9 16.95 16.05 17.15 L16.0 17.2 15.95 17.8 16.1 18.05 16.1 18.2 16.05 18.2 16.0 18.25 15.95 18.25 15.95 18.0 15.9 17.8 15.9 16.85 15.9 16.5 15.9 16.45 15.95 16.4 15.9 16.05 15.95 14.95 16.1 14.35 16.1 14.25 16.1 14.15 16.1 13.85 16.15 13.75 16.2 13.7 16.15 13.7 16.15 13.6 M24.25 14.55 L28.35 14.5 28.4 14.75 24.25 14.55 M28.55 14.4 L28.75 14.3 28.8 14.25 28.85 14.15 28.85 14.1 29.15 14.15 29.2 14.15 29.2 14.3 29.1 14.2 29.1 14.25 28.9 14.3 28.85 14.35 28.85 14.4 28.6 14.5 28.6 14.45 28.55 14.4 M29.2 14.65 L29.35 16.0 29.35 16.15 29.3 16.15 29.3 16.25 29.35 16.25 29.35 16.4 29.25 16.8 29.1 16.9 28.95 16.95 28.95 16.9 29.0 16.85 29.0 16.75 29.0 15.85 29.05 15.8 29.1 15.75 29.15 14.75 29.15 14.7 29.2 14.65 M5.6 19.05 L5.4 18.9 5.55 19.0 5.6 19.05 M5.2 18.7 L5.1 18.6 5.15 18.65 5.2 18.7 M4.35 16.95 L4.3 16.6 4.35 16.85 4.35 16.95 M4.3 15.8 Q4.35 15.0 4.75 14.3 L5.4 13.5 Q6.85 12.4 8.6 12.75 L8.65 12.7 8.7 12.7 8.7 12.65 8.75 12.6 10.75 12.9 10.7 12.95 8.15 12.75 8.0 12.8 Q6.8 13.0 5.7 13.6 5.15 13.85 4.85 14.4 L4.85 14.5 4.85 14.6 4.85 14.65 4.85 14.9 4.85 14.95 4.9 15.0 4.9 15.05 5.05 15.8 5.55 16.45 Q7.1 17.25 8.85 16.95 L10.7 16.7 10.7 16.8 10.7 17.15 Q10.4 17.7 10.65 18.45 L10.7 18.5 10.7 18.6 Q8.55 18.85 6.45 18.6 6.25 18.3 5.85 18.2 L5.35 17.65 5.35 17.6 5.35 17.5 4.7 16.45 4.75 16.25 4.7 16.25 4.6 16.15 4.55 16.2 4.55 16.15 4.5 15.8 4.45 15.75 4.4 15.7 4.35 15.75 4.3 15.8 M15.7 16.05 L15.7 16.2 15.7 16.75 15.7 17.05 Q15.45 17.4 15.6 17.85 L11.35 18.5 11.4 16.6 11.8 16.5 14.4 16.2 15.7 16.05 M4.9 17.55 L4.8 17.25 5.05 17.65 5.05 17.75 5.05 17.8 5.0 17.7 4.95 17.65 4.95 17.6 4.9 17.55" fill="#928647" fill-rule="evenodd" stroke="none"/>
      <path d="M29.25 16.8 L29.3 16.8 29.4 16.9 29.35 16.95 29.45 17.2 29.45 17.25 29.3 18.05 29.3 18.15 29.2 18.25 29.2 18.3 28.85 18.35 28.8 18.25 28.8 18.2 28.75 18.15 28.7 18.1 28.2 17.95 28.15 17.9 26.7 17.85 25.45 18.0 25.0 17.95 23.4 18.05 23.35 18.05 22.95 18.1 22.85 18.1 22.55 18.1 22.5 18.1 22.15 18.15 22.05 18.2 21.85 18.2 21.3 18.3 21.25 18.35 21.0 18.5 20.9 18.45 20.85 18.4 20.65 18.45 20.2 18.45 20.05 18.45 20.0 18.5 20.0 18.55 19.95 18.6 19.0 18.55 18.2 18.65 18.15 18.65 18.0 18.65 17.8 18.7 17.55 18.8 17.45 18.85 17.4 18.85 17.0 18.75 16.85 18.75 16.75 18.75 16.7 18.8 16.65 18.85 16.35 18.9 16.35 19.0 16.3 19.05 16.1 19.1 16.0 19.1 15.85 19.1 15.8 18.95 15.1 19.0 15.05 19.0 12.95 19.2 11.95 19.35 11.45 19.45 11.4 19.45 11.35 19.45 11.35 19.55 11.1 19.7 11.0 19.7 10.85 19.65 10.0 19.8 9.95 19.8 9.9 19.85 9.8 19.8 8.25 19.8 8.7 19.7 8.65 19.7 8.2 19.7 7.15 19.7 6.8 19.65 6.1 19.45 6.05 19.35 5.95 19.35 5.85 19.3 5.6 19.05 5.55 19.0 5.4 18.9 5.25 18.85 5.2 18.7 5.15 18.65 5.1 18.6 Q4.65 18.35 4.55 17.95 L4.35 17.8 4.35 16.95 4.35 16.85 4.3 16.6 4.2 16.4 4.2 16.3 4.25 16.25 4.25 15.9 4.25 15.8 4.3 15.8 4.35 15.75 4.4 15.7 4.45 15.75 4.5 15.8 4.55 16.15 4.55 16.2 4.6 16.15 4.7 16.25 4.75 16.25 4.7 16.45 5.35 17.5 5.35 17.6 5.35 17.65 5.85 18.2 Q6.25 18.3 6.45 18.6 8.55 18.85 10.7 18.6 L10.7 19.2 10.75 19.25 10.75 19.0 10.85 19.0 10.9 18.7 10.9 18.65 10.95 18.65 11.0 18.6 11.05 18.55 11.1 18.6 11.1 18.55 11.1 18.35 Q10.8 17.85 11.0 17.35 L11.05 17.25 Q10.9 17.05 11.05 16.9 L11.1 16.85 11.15 16.85 11.15 16.6 11.2 16.15 11.25 16.1 11.35 16.2 11.4 16.2 11.4 16.6 11.35 18.5 15.6 17.85 15.65 18.1 15.7 18.15 15.7 18.7 15.75 18.75 15.75 18.55 15.85 18.55 15.9 18.3 15.9 18.25 15.95 18.25 16.0 18.25 16.05 18.2 16.1 18.2 16.1 18.05 15.95 17.8 16.0 17.2 16.05 17.15 Q15.9 16.95 16.05 16.85 L16.1 16.8 16.15 16.8 16.2 16.25 16.25 16.2 16.35 16.3 16.4 16.3 16.35 17.75 16.95 17.65 17.5 17.55 21.15 17.1 28.45 16.75 28.55 16.7 28.6 16.65 28.6 16.8 28.65 16.85 28.7 17.5 28.95 17.55 28.95 17.45 28.95 16.95 29.1 16.9 29.25 16.8 M4.9 17.55 L4.95 17.6 4.95 17.65 5.0 17.7 5.05 17.8 5.05 17.75 5.05 17.65 4.8 17.25 4.9 17.55" fill="#443c22" fill-rule="evenodd" stroke="none"/>
      <path d="M11.35 14.25 L13.9 14.35 13.9 14.3 13.95 14.25 13.95 14.2 13.9 14.2 13.8 14.15 11.4 13.85 11.4 13.45 15.45 14.1 15.6 14.1 15.6 14.35 15.65 14.35 15.65 14.5 15.65 14.6 15.55 14.6 15.55 14.7 15.55 14.95 15.1 14.95 11.2 15.2 11.2 15.1 11.25 15.05 11.3 15.0 11.35 14.25 M15.9 13.95 L15.95 13.95 16.0 13.95 16.05 13.85 16.05 13.8 16.1 13.85 16.1 14.15 16.1 14.25 16.1 14.35 15.95 14.95 15.9 16.05 15.95 16.4 15.9 16.45 15.9 16.5 15.9 16.85 15.85 16.85 15.7 16.8 15.7 16.75 15.7 16.2 15.7 16.05 15.7 16.0 15.75 15.55 15.75 15.3 15.75 14.95 15.75 14.85 15.7 14.8 15.85 14.15 15.9 14.0 15.9 13.95 M16.4 14.15 L20.95 14.35 21.6 14.45 23.9 14.7 27.3 14.9 28.2 14.9 28.25 14.85 28.4 14.8 28.45 15.25 Q22.35 14.95 16.35 14.95 L16.4 14.15 M28.6 16.3 L28.6 16.0 28.6 15.95 28.7 15.9 28.7 15.75 28.75 15.25 28.75 15.0 28.75 14.95 28.85 14.9 28.9 14.85 28.95 14.9 29.0 14.85 29.05 14.7 29.05 14.65 29.1 14.7 29.15 14.7 29.15 14.75 29.1 15.75 29.05 15.8 29.0 15.85 29.0 16.75 29.0 16.85 28.95 16.9 28.95 16.95 28.95 17.45 28.95 17.55 28.7 17.5 28.65 16.85 28.65 16.65 28.6 16.3 M10.6 15.25 L8.7 15.5 Q6.9 15.75 5.35 15.0 L5.3 14.45 5.3 14.4 5.3 14.2 Q5.65 13.85 6.1 13.65 L7.9 13.1 8.15 13.05 9.5 13.15 10.6 13.25 10.65 13.3 10.6 13.75 7.9 13.3 7.85 13.35 7.75 13.4 7.75 13.5 7.15 13.45 7.15 13.5 Q6.5 13.5 6.1 13.95 L6.15 14.05 6.45 14.2 6.6 14.15 6.7 14.2 6.7 14.25 8.15 14.2 8.9 14.25 10.0 14.2 10.55 14.2 10.55 14.25 10.6 15.25 M10.7 16.7 L10.7 16.15 10.7 15.85 10.75 15.35 10.75 15.0 10.75 14.45 10.7 14.35 10.75 14.2 10.8 13.75 10.9 13.4 10.9 13.35 10.95 13.3 11.0 13.35 11.0 13.3 11.05 13.2 11.05 13.15 11.1 13.2 11.1 13.35 11.1 13.7 11.1 13.8 11.1 13.85 11.0 14.2 10.9 15.2 10.95 16.4 10.9 16.4 10.9 16.5 10.9 16.65 10.9 16.9 10.85 16.9 10.7 16.85 10.7 16.8 10.7 16.7" fill="#f7eebd" fill-rule="evenodd" stroke="none"/>
      <path d="M11.4 13.85 L13.8 14.15 13.9 14.2 13.95 14.2 13.95 14.25 13.9 14.3 13.9 14.35 11.35 14.25 11.4 13.85 M15.55 14.95 L15.55 14.7 15.55 14.6 15.65 14.6 15.7 14.55 15.65 14.5 15.65 14.35 15.6 14.35 15.6 14.1 15.65 13.9 15.7 13.75 15.7 13.7 15.75 13.6 15.8 13.55 15.9 13.45 15.95 13.4 16.05 13.5 16.1 13.5 16.15 13.6 16.15 13.7 16.15 13.75 16.1 13.85 16.05 13.8 16.05 13.85 16.0 13.95 15.95 13.95 15.9 13.95 15.9 14.0 15.85 14.15 15.7 14.8 15.75 14.85 15.75 14.95 15.75 15.3 15.75 15.55 15.65 15.55 15.6 15.5 15.55 14.95 M28.35 14.5 L28.35 14.45 28.45 14.4 28.5 14.35 28.55 14.4 28.6 14.45 28.6 14.5 28.85 14.4 28.85 14.35 28.9 14.3 29.1 14.25 29.1 14.2 29.2 14.3 29.25 14.35 29.2 14.4 29.2 14.65 29.15 14.7 29.1 14.7 29.05 14.65 29.05 14.7 29.0 14.85 28.95 14.9 28.9 14.85 28.85 14.9 28.75 14.95 28.75 15.0 28.75 15.25 28.7 15.75 28.7 15.9 28.6 15.95 28.6 16.0 28.6 16.3 28.5 15.9 28.45 15.25 28.4 14.8 28.4 14.75 28.35 14.5 M10.75 12.9 L10.9 12.7 10.95 12.65 11.05 12.75 11.1 12.75 11.15 12.95 11.15 13.0 11.15 13.05 11.1 13.2 11.05 13.15 11.05 13.2 11.0 13.3 11.0 13.35 10.95 13.3 10.9 13.35 10.9 13.4 10.8 13.75 10.75 14.2 10.7 14.35 10.75 14.45 10.75 15.0 10.75 15.35 10.65 15.3 10.6 15.25 10.55 14.25 10.55 14.2 10.0 14.2 8.9 14.25 8.15 14.2 6.7 14.25 6.7 14.2 6.6 14.15 6.45 14.2 6.15 14.05 6.1 13.95 Q6.5 13.5 7.15 13.5 L7.15 13.45 7.75 13.5 7.75 13.4 7.85 13.35 7.9 13.3 10.6 13.75 10.65 13.3 10.65 13.25 10.7 13.05 10.75 12.95 10.75 12.9 M28.6 16.65 L28.6 16.3 28.65 16.65 28.65 16.85 28.6 16.8 28.6 16.65 M10.65 14.05 L10.65 14.1 10.7 14.1 10.65 14.05" fill="#ffffff" fill-rule="evenodd" stroke="none"/>
      <path d="M11.2 15.2 L15.1 14.95 15.55 14.95 15.6 15.5 15.65 15.55 15.75 15.55 15.7 16.0 15.7 16.05 14.4 16.2 11.8 16.5 11.4 16.6 11.4 16.2 11.35 16.2 11.25 16.1 11.2 15.65 11.15 15.6 11.2 15.2 M15.65 14.6 L15.65 14.5 15.7 14.55 15.65 14.6 M15.6 14.1 L15.45 14.1 11.4 13.45 11.4 13.25 11.35 13.25 11.3 13.1 11.25 13.05 11.25 13.0 14.0 13.55 15.55 13.7 15.6 13.7 15.7 13.65 15.75 13.6 15.7 13.7 15.7 13.75 15.65 13.9 15.6 14.1 M17.0 13.7 L18.4 13.75 24.0 14.5 24.25 14.55 28.4 14.75 28.4 14.8 28.25 14.85 28.2 14.9 27.3 14.9 23.9 14.7 21.6 14.45 20.95 14.35 16.4 14.15 16.4 13.9 16.35 13.9 16.35 13.85 16.3 13.75 16.25 13.75 16.2 13.7 17.0 13.7 M16.15 13.75 L16.15 13.7 16.2 13.7 16.15 13.75 M15.9 14.0 L15.9 13.95 15.9 14.0 M28.5 15.9 Q27.8 16.35 26.8 16.2 L24.8 15.9 23.8 15.9 23.65 15.9 Q19.9 15.7 16.2 16.0 L16.2 15.85 16.15 15.8 16.2 15.4 16.25 15.35 16.3 15.3 16.35 14.95 Q22.35 14.95 28.45 15.25 L28.5 15.9 M15.7 16.75 L15.7 16.8 15.85 16.85 15.9 16.85 15.9 17.8 15.95 18.0 15.95 18.25 15.9 18.25 15.9 18.3 15.85 18.55 15.75 18.55 15.75 18.75 15.7 18.7 15.7 18.15 15.65 18.1 15.6 17.85 Q15.45 17.4 15.7 17.05 L15.7 16.75 M10.65 13.3 L10.6 13.25 9.5 13.15 8.15 13.05 7.9 13.1 6.1 13.65 Q5.65 13.85 5.3 14.2 L5.3 14.4 5.3 14.45 5.35 15.0 Q6.9 15.75 8.7 15.5 L10.6 15.25 10.65 15.3 10.75 15.35 10.7 15.85 10.7 16.15 10.7 16.7 8.85 16.95 Q7.1 17.25 5.55 16.45 L5.05 15.8 4.9 15.05 4.9 15.0 4.85 14.95 4.85 14.9 4.85 14.65 4.85 14.6 4.85 14.5 4.85 14.4 Q5.15 13.85 5.7 13.6 6.8 13.0 8.0 12.8 L8.15 12.75 10.7 12.95 10.75 12.9 10.75 12.95 10.7 13.05 10.65 13.25 10.65 13.3 M10.7 18.6 L10.7 18.5 10.65 18.45 Q10.4 17.7 10.7 17.15 L10.7 16.8 10.7 16.85 10.85 16.9 10.9 16.9 Q10.85 17.6 10.95 18.3 L10.95 18.55 10.95 18.65 10.9 18.65 10.9 18.7 10.85 19.0 10.75 19.0 10.75 19.25 10.7 19.2 10.7 18.6 M11.15 13.05 L11.15 13.0 11.2 13.0 11.15 13.05 M10.9 13.35 L10.9 13.4 10.9 13.35 M10.65 14.05 L10.7 14.1 10.65 14.1 10.65 14.05" fill="#c6c664" fill-rule="evenodd" stroke="none"/>
    </g>
    <g id="button2" transform="matrix(1.0, 0.0, 0.0, 1.0, 0.5, 0.5)">
      <use height="34.0" transform="matrix(1.0, 0.0, 0.0, 1.0, -0.5, -0.5)" width="34.0" xlink:href="#shape0"/>
      <use height="32.3" transform="matrix(1.0, 0.0, 0.0, 1.0, 0.3, 0.3)" width="32.4" xlink:href="#shape3"/>
    </g>
    <g id="shape3" transform="matrix(1.0, 0.0, 0.0, 1.0, -0.3, -0.3)">
      <path d="M29.85 0.7 L29.7 1.1 29.6 1.25 29.05 2.1 28.6 1.8 28.6 1.45 28.85 0.8 Q28.9 0.35 29.3 0.35 L29.4 0.4 Q29.85 0.1 29.85 0.7 M1.25 2.6 Q0.8 2.6 0.7 2.2 L0.7 1.7 Q0.7 1.15 1.45 0.65 2.2 0.2 2.2 0.95 L1.25 2.6 M1.85 29.35 L1.55 29.85 1.0 30.25 Q0.6 30.25 0.6 29.8 0.6 29.5 0.9 29.25 1.3 28.9 1.8 29.1 L1.85 29.35 M29.95 29.35 L29.8 29.95 29.4 30.25 Q28.95 30.25 28.95 29.8 28.95 29.4 29.45 29.0 29.95 28.55 29.95 29.35" fill="#ff6666" fill-rule="evenodd" stroke="none"/>
      <path d="M32.7 3.95 L32.7 4.35 31.45 4.6 Q30.2 4.6 30.2 4.2 30.2 3.9 30.7 3.65 L31.35 2.95 Q31.15 2.6 31.45 2.15 31.8 1.75 32.3 1.95 L32.7 3.95 M4.2 2.5 Q4.2 4.6 2.45 4.6 L2.05 4.55 Q1.95 4.05 2.1 3.9 L1.7 3.5 Q1.7 3.05 3.35 3.05 L3.9 2.1 Q4.2 1.65 4.2 2.5 M3.6 30.35 Q3.7 30.0 4.3 30.1 L4.35 32.05 Q4.25 32.6 3.75 32.6 L1.6 32.45 Q1.45 32.4 1.45 32.15 2.65 30.7 3.6 30.85 L3.6 30.35 M32.25 32.5 L31.25 32.5 30.25 32.5 29.85 32.05 30.05 31.8 31.3 31.25 31.2 30.65 Q31.2 30.25 31.55 29.8 31.95 29.25 32.25 29.95 L32.45 31.75 32.25 32.5" fill="#660000" fill-rule="evenodd" stroke="none"/>
      <path d="M5.75 13.25 L5.7 13.25 Q5.85 12.4 6.6 11.85 L7.15 11.65 7.2 11.6 7.25 11.5 7.35 11.5 7.35 11.45 7.5 11.5 7.5 11.45 7.55 11.5 7.65 11.5 7.65 11.55 7.7 11.6 7.7 11.65 8.15 12.3 Q8.75 11.6 9.65 11.35 L9.8 11.35 9.85 11.4 9.95 11.45 10.0 11.45 10.1 10.35 10.2 10.25 10.3 10.3 10.4 10.25 10.5 10.2 12.95 10.3 13.0 10.35 13.05 10.3 13.15 10.35 13.15 10.4 13.15 11.45 13.15 11.55 13.05 11.6 13.0 11.65 13.0 11.75 13.05 11.8 14.0 12.2 14.7 11.2 14.8 11.1 14.85 11.05 Q15.5 11.15 15.95 11.55 L17.1 12.65 17.15 12.7 17.15 12.75 17.2 12.8 16.65 13.55 17.3 15.1 17.35 15.25 17.3 15.35 16.85 16.8 16.15 18.5 16.5 18.85 16.55 18.8 16.7 18.95 16.8 19.05 16.85 19.1 15.8 20.85 15.7 20.95 15.6 21.1 15.5 21.15 15.4 21.1 15.2 21.15 15.25 21.25 15.15 21.3 15.0 21.3 14.9 21.2 14.75 21.2 14.65 21.0 14.65 20.95 14.35 20.75 14.2 20.75 14.05 20.65 13.7 21.05 13.75 21.1 13.25 21.4 13.2 22.0 13.15 22.1 13.2 22.2 12.45 22.5 11.75 22.4 11.15 22.4 11.15 22.45 Q10.75 22.7 10.45 22.45 L10.4 22.45 10.25 22.35 10.15 21.65 10.1 21.6 10.1 21.55 10.0 21.5 9.9 21.45 9.95 21.5 8.4 21.05 7.9 21.35 7.5 21.55 Q6.6 20.95 6.5 19.9 L6.25 19.25 6.15 19.05 Q6.45 18.8 6.85 18.65 L6.65 18.5 Q6.7 18.25 7.0 18.3 L7.3 18.1 7.2 18.0 7.15 17.95 6.95 17.55 6.55 16.35 6.45 15.4 6.25 14.85 6.25 14.75 6.25 14.65 6.2 14.5 6.15 14.45 6.2 14.4 5.7 13.95 5.75 13.85 5.8 13.75 5.6 13.7 5.55 13.7 5.6 13.4 5.7 13.3 6.55 14.35 6.55 14.4 6.45 14.5 6.6 14.75 6.6 14.7 6.65 14.75 6.7 14.8 6.7 15.05 6.85 15.9 7.05 17.05 7.4 17.8 7.8 18.05 7.8 18.2 7.75 18.3 7.5 18.3 7.25 18.45 7.25 18.65 7.25 18.75 6.5 19.15 6.75 19.65 6.7 19.85 Q6.9 20.65 7.55 21.3 L8.2 20.65 8.25 20.6 8.35 20.6 8.5 20.7 8.7 20.75 8.7 20.8 8.7 20.85 10.25 21.0 10.25 21.05 10.3 21.1 10.4 21.15 10.4 21.2 10.6 22.1 10.7 22.1 10.75 22.05 12.45 22.2 12.85 22.05 Q12.7 21.6 12.9 21.35 L12.9 21.3 12.95 21.35 12.95 21.25 12.95 21.15 13.05 21.1 13.1 21.05 13.15 21.1 13.2 21.1 13.25 21.05 13.3 21.05 13.75 20.55 13.95 20.25 14.05 20.2 14.1 20.15 14.2 20.25 14.25 20.25 14.25 20.3 14.55 20.45 14.6 20.45 14.65 20.5 14.65 20.6 15.0 20.85 16.35 19.45 16.4 19.5 16.45 19.4 16.45 19.25 16.0 18.8 15.95 18.8 15.9 18.85 15.75 18.7 15.8 18.65 15.55 18.45 15.5 18.4 15.55 18.3 15.65 18.25 15.9 18.35 16.25 17.4 16.15 17.3 16.4 16.95 16.7 16.0 16.7 15.95 16.8 15.9 16.85 15.85 16.9 15.9 17.1 15.3 16.45 14.0 16.4 13.95 16.05 13.5 16.15 13.35 16.2 13.35 16.25 13.4 16.8 12.9 16.75 12.85 16.55 12.55 16.45 12.4 16.5 12.55 16.5 12.6 16.45 12.6 16.25 12.6 Q15.9 11.65 15.0 11.4 L14.95 11.4 14.0 12.5 13.85 12.4 13.15 12.25 12.8 12.1 12.75 12.1 12.7 12.05 12.6 12.0 12.7 11.85 12.75 10.55 12.75 10.45 10.6 10.6 10.4 10.6 10.35 12.0 10.3 12.1 10.2 12.1 10.05 12.05 10.05 11.95 10.05 11.8 10.05 11.7 Q9.05 11.9 8.2 12.55 L8.1 12.6 8.0 12.55 7.4 11.85 7.4 11.8 Q6.45 12.25 6.05 13.25 L5.85 13.35 5.8 13.3 5.75 13.25 M14.25 20.3 L14.2 20.35 14.25 20.3 M10.6 22.1 L10.6 22.15 10.6 22.1" fill="#000000" fill-rule="evenodd" stroke="none"/>
      <path d="M5.7 13.3 L5.75 13.25 5.8 13.3 5.85 13.35 6.05 13.25 Q6.45 12.25 7.4 11.8 L7.4 11.85 8.0 12.55 8.1 12.6 8.2 12.55 Q9.05 11.9 10.05 11.7 L10.05 11.8 10.05 11.95 10.05 12.05 10.2 12.1 10.3 12.1 10.35 12.0 10.4 10.6 10.6 10.6 12.75 10.45 12.75 10.55 12.7 11.85 12.6 12.0 12.7 12.05 12.75 12.1 12.8 12.1 13.15 12.25 13.85 12.4 14.0 12.5 14.95 11.4 15.0 11.4 Q15.9 11.65 16.25 12.6 L16.45 12.6 16.5 12.6 16.5 12.55 16.55 12.55 16.75 12.85 16.8 12.9 16.25 13.4 16.2 13.35 16.15 13.35 16.05 13.5 16.4 13.95 16.45 14.0 17.1 15.3 16.9 15.9 16.85 15.85 16.8 15.9 16.7 15.95 16.7 16.0 16.4 16.95 16.15 17.3 16.25 17.4 15.9 18.35 15.65 18.25 15.55 18.3 15.5 18.4 15.55 18.45 15.8 18.65 15.75 18.7 15.9 18.85 15.95 18.8 16.0 18.8 16.45 19.25 16.45 19.4 16.4 19.5 16.35 19.45 15.0 20.85 14.65 20.6 14.65 20.5 14.6 20.45 14.55 20.45 14.25 20.3 14.25 20.25 14.2 20.25 14.1 20.15 14.05 20.2 13.95 20.25 13.75 20.55 13.3 21.05 13.25 21.05 13.2 21.1 13.15 21.1 13.1 21.05 13.05 21.1 12.95 21.15 12.95 21.25 12.95 21.35 12.9 21.3 12.9 21.35 Q12.7 21.6 12.85 22.05 L12.45 22.2 10.75 22.05 10.7 22.1 10.6 22.1 10.4 21.2 10.4 21.15 10.3 21.1 10.25 21.05 10.25 21.0 8.7 20.85 8.7 20.8 8.7 20.75 8.5 20.7 8.35 20.6 8.25 20.6 8.2 20.65 7.55 21.3 Q6.9 20.65 6.7 19.85 L6.75 19.65 6.5 19.15 7.25 18.75 7.25 18.65 7.25 18.45 7.5 18.3 7.75 18.3 7.8 18.2 7.8 18.05 7.4 17.8 7.05 17.05 6.85 15.9 6.7 15.05 6.7 14.8 6.65 14.75 6.6 14.7 6.6 14.75 6.45 14.5 6.55 14.4 6.55 14.35 5.7 13.3" fill="#754e39" fill-rule="evenodd" stroke="none"/>
      <path d="M15.6 12.75 L16.6 12.85 15.7 12.9 15.75 12.95 15.8 13.0 15.85 13.15 15.95 13.15 15.9 13.55 15.85 14.7 15.8 15.15 15.75 15.2 15.65 15.25 15.6 15.85 Q15.65 15.8 15.7 15.9 L15.7 16.15 Q20.3 15.7 25.0 16.0 L25.2 16.0 26.45 16.0 28.95 16.4 Q30.2 16.6 31.1 15.95 L31.25 16.55 31.25 17.05 31.15 17.1 31.05 17.2 21.9 17.7 17.3 18.3 16.6 18.45 15.9 18.55 15.95 16.55 15.85 16.55 15.75 16.4 15.7 16.4 15.7 16.45 15.6 17.25 15.55 17.25 15.5 17.3 Q15.3 17.45 15.5 17.7 L15.45 17.8 Q15.25 18.2 15.35 18.65 L15.5 18.95 15.5 19.2 15.45 19.25 15.35 19.25 15.35 18.9 15.3 18.65 15.25 17.3 15.3 16.85 15.3 16.75 15.35 16.7 15.3 16.2 Q15.25 15.4 15.35 14.7 L15.5 13.85 15.55 13.65 15.5 13.5 Q15.45 13.3 15.55 13.1 L15.6 12.95 15.7 12.9 15.6 12.9 15.6 12.75 M25.85 14.1 Q28.35 14.35 30.9 14.05 L30.95 14.35 25.85 14.1 M31.15 13.9 L31.4 13.75 31.5 13.7 Q31.45 13.6 31.55 13.55 L31.55 13.5 31.9 13.55 32.0 13.55 32.0 13.75 31.85 13.65 31.85 13.7 31.6 13.75 31.55 13.85 31.55 13.9 Q31.3 13.9 31.25 14.05 L31.25 14.0 31.15 13.9 M32.0 14.25 Q31.9 15.2 32.15 16.15 L32.15 16.35 32.1 16.35 32.1 16.5 32.15 16.5 32.15 16.7 32.05 17.25 Q31.9 17.15 31.85 17.4 L31.65 17.5 31.65 17.35 31.75 17.35 31.75 17.2 31.7 15.95 31.8 15.85 31.85 15.8 31.9 14.4 31.9 14.35 32.0 14.25 M16.55 20.0 L16.35 20.0 16.55 20.0 M2.4 20.4 L2.15 20.2 2.35 20.3 2.4 20.4 M1.85 19.9 L1.7 19.75 1.8 19.8 1.85 19.9 M0.8 17.45 L0.75 16.95 0.8 17.3 0.8 17.45 M0.75 15.8 Q0.8 14.75 1.3 13.75 1.55 13.1 2.15 12.65 3.95 11.1 6.15 11.6 L6.2 11.55 6.3 11.55 6.3 11.45 6.35 11.4 6.35 11.35 8.85 11.8 8.8 11.9 8.75 11.9 5.6 11.6 5.4 11.65 Q3.85 11.95 2.5 12.8 1.8 13.15 1.45 13.9 L1.45 14.05 1.45 14.2 1.45 14.25 1.45 14.6 1.45 14.7 1.5 14.75 1.5 14.8 1.7 15.85 Q1.8 16.45 2.35 16.75 4.25 17.85 6.45 17.45 L8.8 17.1 8.8 17.25 8.75 17.35 8.75 17.7 Q8.4 18.55 8.7 19.55 L8.75 19.6 8.75 19.75 Q6.05 20.15 3.45 19.8 3.2 19.35 2.7 19.2 L2.1 18.45 2.1 18.4 2.1 18.25 Q1.5 17.6 1.25 16.75 L1.3 16.5 1.25 16.5 1.15 16.35 1.05 16.4 1.05 16.35 1.0 15.85 0.95 15.8 0.9 15.7 0.8 15.8 0.75 15.8 M9.35 11.9 L10.85 12.15 14.0 12.6 15.15 12.7 15.1 12.8 15.05 12.8 14.95 12.95 14.85 12.95 12.9 12.7 9.45 12.0 9.55 12.1 9.55 12.25 9.6 12.3 9.65 12.3 9.65 12.6 9.6 13.1 9.6 13.65 9.55 14.75 9.45 14.8 9.4 14.9 9.4 15.0 9.35 15.6 9.4 15.65 9.45 16.3 9.4 16.35 9.35 17.0 9.3 17.35 9.2 17.4 Q9.0 17.6 9.2 17.9 L9.15 18.05 Q8.9 18.75 9.25 19.45 L9.25 19.65 9.25 19.75 9.2 19.7 9.15 19.8 9.05 19.8 9.05 19.7 9.05 19.35 9.0 17.4 9.05 17.05 9.05 16.85 9.05 16.7 9.05 16.65 9.05 15.05 9.2 13.65 9.25 13.1 9.25 13.05 9.3 12.9 9.25 12.45 9.3 12.25 9.35 12.0 9.35 11.95 9.35 11.9 M15.05 16.2 L15.05 16.4 15.05 17.2 15.05 17.25 15.0 17.6 Q14.75 18.1 14.9 18.7 L9.6 19.6 9.65 16.95 10.15 16.85 13.4 16.4 15.05 16.2 M9.35 12.0 L9.4 12.0 9.35 12.0 M1.7 18.6 L1.65 18.6 1.6 18.5 1.55 18.45 1.55 18.4 1.5 18.25 1.35 17.9 1.7 18.45 1.7 18.6" fill="#343f50" fill-rule="evenodd" stroke="none"/>
      <path d="M15.6 12.75 L15.55 12.6 15.5 12.6 15.35 12.5 15.3 12.55 15.15 12.7 14.0 12.6 10.85 12.15 9.35 11.9 9.3 11.6 9.2 11.6 9.1 11.45 9.05 11.55 8.85 11.8 6.35 11.35 6.3 11.35 6.35 11.4 6.3 11.45 6.3 11.55 6.2 11.55 6.15 11.6 Q3.95 11.1 2.15 12.65 1.55 13.1 1.3 13.75 0.8 14.75 0.75 15.8 L0.7 15.85 0.7 16.0 0.7 16.5 0.65 16.55 0.65 16.7 0.75 16.95 0.8 17.45 0.8 18.65 1.05 18.85 Q1.2 19.4 1.7 19.75 L1.85 19.9 1.95 20.15 2.1 20.15 2.15 20.2 2.4 20.4 2.7 20.75 2.85 20.8 2.95 20.8 3.0 20.95 3.9 21.25 4.3 21.3 5.6 21.35 6.2 21.3 6.3 21.3 5.7 21.45 7.65 21.45 7.8 21.5 7.85 21.45 7.9 21.45 7.9 21.4 8.95 21.2 8.95 21.25 9.15 21.3 9.3 21.3 9.6 21.1 9.6 20.95 9.65 20.95 9.7 20.95 10.35 20.8 11.55 20.6 14.25 20.35 14.3 20.3 15.15 20.25 15.25 20.45 13.25 20.75 5.9 21.85 5.85 21.8 4.95 21.95 3.75 21.6 Q2.05 20.95 0.95 19.45 L0.95 19.15 0.7 18.85 Q0.35 17.9 0.3 16.9 L0.3 16.5 0.3 16.35 0.3 15.95 Q0.35 14.95 0.7 14.0 L0.95 13.7 0.95 13.4 Q2.05 11.85 3.75 11.25 L4.95 10.9 5.85 11.05 5.9 10.95 13.25 12.1 17.05 12.6 24.35 13.4 30.9 13.85 30.85 13.75 30.85 13.7 31.25 13.35 31.55 13.05 32.0 13.15 32.05 13.15 32.1 13.2 32.35 13.4 32.4 16.35 32.4 16.5 32.35 19.45 32.1 19.65 32.05 19.7 32.0 19.7 31.55 19.8 31.25 19.5 30.85 19.15 30.85 19.1 30.9 19.0 24.35 19.45 17.05 20.25 15.8 20.4 15.85 20.3 15.85 20.2 16.25 20.15 16.3 20.05 16.35 20.0 16.55 20.0 16.65 20.0 17.2 20.1 17.25 20.15 17.35 20.05 17.7 19.9 17.95 19.85 18.05 19.8 19.2 19.7 20.4 19.8 20.45 19.7 20.45 19.65 20.5 19.55 20.65 19.55 21.25 19.55 21.5 19.5 21.55 19.55 21.7 19.65 22.0 19.45 22.1 19.35 22.25 19.35 22.45 19.3 23.6 19.1 24.0 19.1 24.15 19.05 24.65 19.0 24.7 18.95 26.7 18.85 27.3 18.95 28.8 18.7 30.65 18.8 30.75 18.85 31.35 19.1 31.4 19.15 31.5 19.2 31.5 19.3 31.55 19.45 32.0 19.35 32.0 19.3 32.1 19.15 32.1 19.0 Q32.05 18.45 32.3 17.9 L32.3 17.8 32.15 17.45 32.25 17.4 32.1 17.25 32.05 17.25 32.15 16.7 32.15 16.5 32.1 16.5 32.1 16.35 32.15 16.35 32.15 16.15 Q31.9 15.2 32.0 14.25 L32.0 14.2 32.0 14.1 32.0 14.05 32.0 13.9 32.05 13.85 32.0 13.75 32.0 13.55 31.9 13.55 31.55 13.5 31.55 13.55 Q31.45 13.6 31.5 13.7 L31.4 13.75 31.15 13.9 31.1 13.85 31.05 13.9 31.0 13.9 30.9 14.0 30.9 14.05 Q28.35 14.35 25.85 14.1 L25.45 14.05 18.45 13.0 16.6 12.85 15.6 12.75" fill="#000000" fill-rule="evenodd" stroke="none"/>
      <path d="M32.05 17.25 L32.1 17.25 32.25 17.4 32.15 17.45 32.3 17.8 32.3 17.9 Q32.05 18.45 32.1 19.0 L32.1 19.15 32.0 19.3 32.0 19.35 31.55 19.45 31.5 19.3 31.5 19.2 31.4 19.15 31.35 19.1 30.75 18.85 30.65 18.8 28.8 18.7 27.3 18.95 26.7 18.85 24.7 18.95 24.65 19.0 24.15 19.05 24.0 19.1 23.6 19.1 22.45 19.3 22.25 19.35 22.1 19.35 22.0 19.45 21.7 19.65 21.55 19.55 21.5 19.5 21.25 19.55 20.65 19.55 20.5 19.55 20.45 19.65 20.45 19.7 20.4 19.8 19.2 19.7 18.05 19.8 17.95 19.85 17.7 19.9 17.35 20.05 17.25 20.15 17.2 20.1 16.65 20.0 16.55 20.0 16.35 20.0 16.3 20.05 16.25 20.15 15.85 20.2 15.85 20.3 15.8 20.4 15.55 20.5 15.45 20.5 15.25 20.45 15.15 20.25 14.3 20.3 14.25 20.35 11.55 20.6 10.35 20.8 9.7 20.95 9.65 20.95 9.6 20.95 9.6 21.1 9.3 21.3 9.15 21.3 8.95 21.25 8.95 21.2 7.9 21.4 7.9 21.45 7.85 21.45 7.8 21.5 7.65 21.45 5.7 21.45 6.3 21.3 6.2 21.3 5.6 21.35 4.3 21.3 3.9 21.25 3.0 20.95 2.95 20.8 2.85 20.8 2.7 20.75 2.4 20.4 2.35 20.3 2.15 20.2 2.1 20.15 1.95 20.15 1.85 19.9 1.8 19.8 1.7 19.75 Q1.2 19.4 1.05 18.85 L0.8 18.65 0.8 17.45 0.8 17.3 0.75 16.95 0.65 16.7 0.65 16.55 0.7 16.5 0.7 16.0 0.7 15.85 0.75 15.8 0.8 15.8 0.9 15.7 0.95 15.8 1.0 15.85 1.05 16.35 1.05 16.4 1.15 16.35 1.25 16.5 1.3 16.5 1.25 16.75 Q1.5 17.6 2.1 18.25 L2.1 18.4 2.1 18.45 2.7 19.2 Q3.2 19.35 3.45 19.8 6.05 20.15 8.75 19.75 L8.8 20.6 8.85 20.35 8.95 20.35 9.05 19.9 9.05 19.85 9.05 19.8 9.15 19.8 9.2 19.7 9.25 19.75 9.25 19.65 9.25 19.45 Q8.9 18.75 9.15 18.05 L9.2 17.9 Q9.0 17.6 9.2 17.4 L9.3 17.35 9.35 17.0 9.4 16.35 9.45 16.3 9.6 16.4 9.65 16.4 9.65 16.95 9.6 19.6 14.9 18.7 15.0 19.1 15.05 19.9 15.1 19.95 15.1 19.9 15.1 19.7 15.25 19.7 15.3 19.35 15.3 19.3 15.35 19.25 15.45 19.25 15.5 19.2 15.5 18.95 15.35 18.65 Q15.25 18.2 15.45 17.8 L15.5 17.7 Q15.3 17.45 15.5 17.3 L15.55 17.25 15.6 17.25 15.7 16.45 15.7 16.4 15.75 16.4 15.85 16.55 15.95 16.55 15.9 18.55 16.6 18.45 17.3 18.3 21.9 17.7 31.05 17.2 31.15 17.1 31.25 17.05 31.25 17.25 31.25 17.3 31.35 18.25 31.65 18.3 31.65 18.15 31.65 17.5 31.85 17.4 Q31.9 17.15 32.05 17.25 M8.8 20.6 L8.8 20.65 8.8 20.6 M1.7 18.6 L1.7 18.45 1.35 17.9 1.5 18.25 1.55 18.4 1.55 18.45 1.6 18.5 1.65 18.6 1.7 18.6" fill="#232b36" fill-rule="evenodd" stroke="none"/>
      <path d="M16.6 12.85 L18.45 13.0 25.45 14.05 25.85 14.1 30.95 14.35 30.95 14.45 30.8 14.55 30.75 14.6 29.6 14.6 25.3 14.35 22.45 14.0 21.65 13.85 15.9 13.55 15.95 13.15 15.85 13.15 15.8 13.0 15.75 12.95 15.7 12.9 16.6 12.85 M14.95 13.2 L14.9 13.5 14.75 13.5 Q12.1 13.35 9.65 12.6 L9.65 12.3 9.6 12.3 9.55 12.25 9.55 12.1 9.45 12.0 12.9 12.7 14.85 12.95 14.95 12.95 14.85 13.1 14.95 13.2 M14.85 14.7 L14.95 15.45 15.0 15.5 15.0 16.0 15.05 16.2 13.4 16.4 10.15 16.85 9.65 16.95 9.65 16.4 9.6 16.4 9.45 16.3 9.4 15.65 9.35 15.6 9.4 15.0 14.3 14.7 14.85 14.7 M15.6 12.95 L15.6 12.9 15.7 12.9 15.6 12.95 M15.85 14.7 Q23.4 14.65 31.0 15.05 L31.1 15.95 Q30.2 16.6 28.95 16.4 L26.45 16.0 25.2 16.0 25.0 16.0 Q20.3 15.7 15.7 16.15 L15.7 15.9 Q15.65 15.8 15.6 15.85 L15.65 15.25 15.75 15.2 15.8 15.15 15.85 14.7 M15.05 17.25 L15.25 17.3 15.3 18.65 15.35 18.9 15.35 19.25 15.3 19.3 15.3 19.35 15.25 19.7 15.1 19.7 15.1 19.9 15.05 19.9 15.0 19.1 14.9 18.7 Q14.75 18.1 15.0 17.6 L15.05 17.25 M8.8 17.1 L6.45 17.45 Q4.25 17.85 2.35 16.75 1.8 16.45 1.7 15.85 L1.5 14.8 1.5 14.75 1.45 14.7 1.45 14.6 1.45 14.25 1.45 14.2 1.45 14.05 1.45 13.9 Q1.8 13.15 2.5 12.8 3.85 11.95 5.4 11.65 L5.6 11.6 8.75 11.9 8.65 12.0 8.65 12.05 8.6 12.25 8.6 12.3 7.3 12.15 5.6 12.0 5.25 12.1 Q4.05 12.35 3.0 12.85 2.45 13.15 2.0 13.65 L2.0 13.9 2.0 14.0 2.1 14.75 Q4.0 15.75 6.3 15.45 L8.65 15.1 8.7 15.15 8.7 15.2 8.75 15.8 8.8 16.1 8.8 16.3 8.8 17.1 M8.75 19.75 L8.75 19.6 8.7 19.55 Q8.4 18.55 8.75 17.7 L8.75 17.35 8.8 17.35 Q8.85 17.55 8.95 17.4 L9.0 17.4 9.05 19.35 9.05 19.7 9.05 19.8 9.05 19.85 9.05 19.9 8.95 20.35 8.85 20.35 8.8 20.6 8.75 19.75 M9.35 12.0 L9.4 12.0 9.35 12.0" fill="#546581" fill-rule="evenodd" stroke="none"/>
      <path d="M14.9 13.5 L14.95 13.8 15.0 13.85 15.0 14.05 15.0 14.15 14.85 14.2 14.85 14.3 14.85 14.7 14.3 14.7 9.4 15.0 9.4 14.9 9.45 14.8 9.55 14.75 9.6 13.65 12.8 13.85 12.8 13.75 12.85 13.7 12.85 13.65 12.8 13.65 12.65 13.55 9.6 13.1 9.65 12.6 Q12.1 13.35 14.75 13.5 L14.9 13.5 M15.1 15.5 L15.1 15.15 15.1 14.7 15.1 14.5 15.05 14.45 15.2 13.5 15.25 13.35 15.3 13.3 15.35 13.25 15.4 13.25 15.5 13.1 15.5 13.05 15.55 13.1 Q15.45 13.3 15.5 13.5 L15.55 13.65 15.5 13.85 15.35 14.7 Q15.25 15.4 15.3 16.2 L15.35 16.7 15.3 16.75 15.3 16.85 15.25 17.3 15.05 17.25 15.05 17.2 15.05 16.4 15.05 16.2 15.05 16.1 15.1 15.5 M15.9 13.55 L21.65 13.85 22.45 14.0 25.3 14.35 29.6 14.6 30.75 14.6 30.8 14.55 30.95 14.45 31.0 15.05 Q23.4 14.65 15.85 14.7 L15.9 13.55 M31.9 14.35 L31.9 14.4 31.85 15.8 31.8 15.85 31.7 15.95 31.75 17.2 31.75 17.35 31.65 17.35 31.65 17.5 31.65 18.15 31.65 18.3 31.35 18.25 31.25 17.3 31.25 17.05 31.25 16.55 31.25 16.15 31.25 16.05 31.35 16.0 31.35 15.75 31.4 15.05 31.4 14.75 31.4 14.7 Q31.45 14.6 31.55 14.6 L31.55 14.55 31.6 14.55 31.65 14.6 31.7 14.55 31.8 14.35 31.8 14.25 31.85 14.35 31.9 14.35 M8.8 17.1 L8.8 16.3 8.8 16.1 8.8 15.9 8.8 15.2 8.8 14.7 8.85 13.95 8.8 13.85 8.8 13.6 8.9 13.0 9.0 12.5 9.05 12.45 9.1 12.4 9.1 12.35 9.15 12.4 9.2 12.25 9.2 12.15 9.3 12.25 9.25 12.45 9.3 12.9 9.25 13.05 9.25 13.1 9.2 13.65 9.05 15.05 9.05 16.65 9.05 16.7 9.05 16.85 9.05 17.05 9.0 17.4 8.95 17.4 Q8.85 17.55 8.8 17.35 L8.8 17.25 8.8 17.1 M8.65 15.1 L6.3 15.45 Q4.0 15.75 2.1 14.75 L2.0 14.0 2.0 13.9 2.0 13.65 Q2.45 13.15 3.0 12.85 4.05 12.35 5.25 12.1 L5.6 12.0 7.3 12.15 8.6 12.3 8.7 12.35 8.65 12.95 5.25 12.35 5.2 12.45 5.1 12.5 5.1 12.6 4.35 12.6 4.3 12.6 Q3.5 12.65 3.0 13.3 L3.1 13.4 3.45 13.65 3.65 13.55 3.75 13.65 3.75 13.7 5.55 13.6 6.55 13.7 7.9 13.6 8.6 13.6 8.6 13.7 8.65 15.1" fill="#ced6df" fill-rule="evenodd" stroke="none"/>
      <path d="M15.15 12.7 L15.3 12.55 15.35 12.5 15.5 12.6 15.55 12.6 15.6 12.75 15.6 12.9 15.6 12.95 15.55 13.1 15.5 13.05 15.5 13.1 15.4 13.25 15.35 13.25 15.3 13.3 15.25 13.25 15.25 13.35 15.2 13.5 15.05 14.45 15.1 14.5 15.1 14.7 15.1 15.15 15.1 15.5 15.0 15.5 14.95 15.45 14.85 14.7 14.85 14.3 14.85 14.2 15.0 14.15 15.0 14.1 15.0 14.05 15.0 13.85 14.95 13.8 14.9 13.5 14.95 13.2 15.05 12.95 15.1 12.8 15.15 12.7 M30.9 14.05 L30.9 14.0 31.0 13.9 31.05 13.9 31.1 13.85 31.15 13.9 31.25 14.0 31.25 14.05 Q31.3 13.9 31.55 13.9 L31.55 13.85 31.6 13.75 31.85 13.7 31.85 13.65 32.0 13.75 32.05 13.85 32.0 13.9 32.0 14.05 32.0 14.1 32.0 14.2 32.0 14.25 31.9 14.35 31.85 14.35 31.8 14.25 31.8 14.35 31.7 14.55 31.65 14.6 31.6 14.55 31.55 14.55 31.55 14.6 Q31.45 14.6 31.4 14.7 L31.4 14.75 31.4 15.05 31.35 15.75 31.35 16.0 31.25 16.05 31.25 16.15 31.25 16.55 31.1 15.95 31.0 15.05 30.95 14.45 30.95 14.35 30.9 14.05 M8.85 11.8 L9.05 11.55 9.1 11.45 9.2 11.6 9.3 11.6 9.35 11.9 9.35 11.95 9.35 12.0 9.3 12.25 9.2 12.15 9.2 12.25 9.15 12.4 9.1 12.35 9.1 12.4 9.05 12.45 9.0 12.4 9.0 12.5 8.9 13.0 8.8 13.6 8.8 13.85 8.85 13.95 8.8 14.7 8.8 15.2 8.7 15.15 8.65 15.1 8.6 13.7 8.6 13.6 7.9 13.6 6.55 13.7 5.55 13.6 3.75 13.7 3.75 13.65 3.65 13.55 3.45 13.65 3.1 13.4 3.0 13.3 Q3.5 12.65 4.3 12.6 L4.35 12.6 5.1 12.6 5.1 12.5 5.2 12.45 5.25 12.35 8.65 12.95 8.7 12.35 8.7 12.3 8.8 12.0 8.8 11.9 8.85 11.8 M9.6 13.1 L12.65 13.55 12.8 13.65 12.85 13.65 12.85 13.7 12.8 13.75 12.8 13.85 9.6 13.65 9.6 13.1 M31.25 17.05 L31.25 16.55 31.25 17.05 31.25 17.3 31.25 17.25 31.25 17.05 M8.75 13.45 L8.7 13.4 8.7 13.5 8.75 13.45" fill="#ffffff" fill-rule="evenodd" stroke="none"/>
      <path d="M15.1 12.8 L15.05 12.95 14.95 13.2 14.85 13.1 14.95 12.95 15.05 12.8 15.1 12.8 M15.0 14.05 L15.0 14.1 15.0 14.15 15.0 14.05 M15.0 15.5 L15.1 15.5 15.05 16.1 15.05 16.2 15.0 16.0 15.0 15.5 M15.25 13.35 L15.25 13.25 15.3 13.3 15.25 13.35 M15.05 17.2 L15.05 17.25 15.05 17.2 M15.05 19.9 L15.1 19.9 15.1 19.95 15.05 19.9 M8.8 16.1 L8.75 15.8 8.7 15.2 8.7 15.15 8.8 15.2 8.8 15.9 8.8 16.1 M8.6 12.3 L8.6 12.25 8.65 12.05 8.65 12.0 8.75 11.9 8.8 11.9 8.85 11.8 8.8 11.9 8.8 12.0 8.7 12.3 8.7 12.35 8.6 12.3 M8.75 17.35 L8.8 17.25 8.8 17.35 8.75 17.35 M9.05 12.45 L9.0 12.5 9.0 12.4 9.05 12.45 M8.75 13.45 L8.7 13.5 8.7 13.4 8.75 13.45 M8.8 20.6 L8.8 20.65 8.8 20.6" fill="#c6c664" fill-rule="evenodd" stroke="none"/>
    </g>
    <g id="button3" transform="matrix(1.0, 0.0, 0.0, 1.0, 0.5, 0.5)">
      <use height="34.0" transform="matrix(1.0, 0.0, 0.0, 1.0, -0.5, -0.5)" width="34.0" xlink:href="#shape0"/>
      <use height="32.3" transform="matrix(1.0, 0.0, 0.0, 1.0, 0.55, 0.3)" width="32.15" xlink:href="#shape4"/>
    </g>
    <g id="shape4" transform="matrix(1.0, 0.0, 0.0, 1.0, -0.55, -0.3)">
      <path d="M29.85 0.7 L29.7 1.1 29.6 1.25 29.05 2.1 28.6 1.8 28.6 1.45 28.85 0.8 Q28.9 0.35 29.3 0.35 L29.4 0.4 Q29.85 0.1 29.85 0.7 M1.25 2.6 Q0.8 2.6 0.7 2.2 L0.7 1.7 Q0.7 1.15 1.45 0.65 2.2 0.2 2.2 0.95 L1.25 2.6 M1.85 29.35 L1.55 29.85 1.0 30.25 Q0.6 30.25 0.6 29.8 0.6 29.5 0.9 29.25 1.3 28.9 1.8 29.1 L1.85 29.35 M29.95 29.35 L29.8 29.95 29.4 30.25 Q28.95 30.25 28.95 29.8 28.95 29.4 29.45 29.0 29.95 28.55 29.95 29.35" fill="#ff6666" fill-rule="evenodd" stroke="none"/>
      <path d="M32.7 3.95 L32.7 4.35 31.45 4.6 Q30.2 4.6 30.2 4.2 30.2 3.9 30.7 3.65 L31.35 2.95 Q31.15 2.6 31.45 2.15 31.8 1.75 32.3 1.95 L32.7 3.95 M4.2 2.5 Q4.2 4.6 2.45 4.6 L2.05 4.55 Q1.95 4.05 2.1 3.9 L1.7 3.5 Q1.7 3.05 3.35 3.05 L3.9 2.1 Q4.2 1.65 4.2 2.5 M3.6 30.35 Q3.7 30.0 4.3 30.1 L4.35 32.05 Q4.25 32.6 3.75 32.6 L1.6 32.45 Q1.45 32.4 1.45 32.15 2.65 30.7 3.6 30.85 L3.6 30.35 M32.25 32.5 L31.25 32.5 30.25 32.5 29.85 32.05 30.05 31.8 31.3 31.25 31.2 30.65 Q31.2 30.25 31.55 29.8 31.95 29.25 32.25 29.95 L32.45 31.75 32.25 32.5" fill="#660000" fill-rule="evenodd" stroke="none"/>
      <path d="M31.15 14.05 Q28.6 14.35 26.1 14.1 L25.7 14.05 18.7 13.0 17.4 12.9 17.0 12.85 16.85 12.85 15.85 12.75 15.8 12.6 15.75 12.6 15.6 12.5 15.55 12.55 15.4 12.7 15.35 12.7 14.25 12.6 11.1 12.15 10.6 12.05 10.3 12.0 9.75 11.9 9.6 11.9 9.55 11.6 9.45 11.6 9.4 11.55 9.35 11.45 9.3 11.55 9.2 11.65 9.1 11.8 9.0 11.8 7.95 11.6 7.5 11.5 6.6 11.35 6.55 11.35 6.6 11.4 6.55 11.45 6.55 11.55 6.45 11.55 6.4 11.6 5.8 11.5 5.6 11.5 Q3.85 11.4 2.4 12.65 1.8 13.1 1.55 13.75 1.05 14.75 1.0 15.8 L0.95 15.85 0.95 16.0 0.95 16.5 0.9 16.55 0.9 16.7 1.0 16.95 1.05 17.45 1.05 18.65 1.3 18.85 Q1.45 19.4 1.95 19.75 L2.1 19.9 2.2 20.15 2.35 20.15 2.4 20.2 2.65 20.4 2.95 20.75 3.1 20.8 3.2 20.8 3.25 20.95 Q3.6 21.25 4.15 21.25 L4.55 21.3 5.85 21.35 6.45 21.3 6.55 21.3 5.95 21.45 7.65 21.5 7.9 21.45 8.05 21.5 8.1 21.45 8.15 21.45 8.15 21.4 9.05 21.25 9.2 21.2 9.2 21.25 9.4 21.3 9.55 21.3 9.85 21.1 9.85 20.95 9.95 20.95 10.6 20.8 11.8 20.6 14.1 20.45 14.5 20.35 14.55 20.35 14.55 20.3 15.4 20.25 15.5 20.45 14.9 20.55 14.9 20.6 15.25 20.85 15.75 20.5 15.8 20.5 16.05 20.4 16.1 20.3 16.1 20.2 16.5 20.15 16.55 20.05 16.6 20.0 16.7 20.0 16.8 20.0 16.9 20.0 17.45 20.1 17.5 20.15 17.6 20.05 17.95 19.9 18.2 19.85 18.3 19.8 19.45 19.7 20.65 19.8 Q20.6 19.7 20.7 19.7 L20.7 19.65 20.75 19.55 20.9 19.55 21.5 19.55 21.75 19.5 21.8 19.55 21.95 19.65 22.25 19.45 22.35 19.35 22.5 19.35 22.7 19.3 23.85 19.1 24.25 19.1 24.4 19.05 24.9 19.0 24.95 18.95 26.95 18.85 27.55 18.95 29.05 18.7 30.9 18.8 31.0 18.85 31.6 19.1 31.65 19.15 31.75 19.2 31.75 19.3 31.8 19.45 32.25 19.35 32.25 19.3 32.35 19.15 32.35 19.0 Q32.3 18.45 32.55 17.9 L32.55 17.8 32.4 17.45 32.5 17.4 32.35 17.25 32.3 17.25 32.4 16.7 32.4 16.5 32.35 16.5 32.35 16.35 32.4 16.35 32.4 16.15 Q32.2 15.25 32.25 14.35 L32.25 14.25 32.25 14.2 32.25 14.1 32.25 14.05 32.25 13.9 32.3 13.85 32.25 13.75 32.25 13.55 32.15 13.55 31.8 13.5 31.8 13.55 31.75 13.7 31.65 13.75 31.4 13.9 31.35 13.85 31.3 13.9 31.25 13.9 31.15 14.0 31.15 14.05 M32.35 13.2 L32.6 13.4 32.65 16.35 32.65 16.5 32.6 19.45 32.35 19.65 32.3 19.7 32.25 19.7 31.8 19.8 31.5 19.5 31.1 19.15 31.1 19.1 31.15 19.0 24.6 19.45 17.3 20.25 16.5 20.35 16.05 20.85 15.95 20.95 15.85 21.1 15.75 21.15 15.65 21.1 15.45 21.15 15.5 21.25 15.4 21.3 15.25 21.3 15.15 21.2 15.0 21.2 14.9 21.0 14.9 20.95 14.6 20.75 14.45 20.75 14.3 20.65 13.95 21.05 14.0 21.1 13.5 21.4 13.45 22.0 13.4 22.1 13.45 22.2 Q13.1 22.55 12.7 22.5 L12.0 22.4 11.4 22.4 11.4 22.45 Q11.0 22.7 10.7 22.45 L10.65 22.45 10.5 22.35 10.4 21.65 10.35 21.6 10.35 21.55 10.25 21.5 10.15 21.45 10.2 21.5 9.55 21.45 6.15 21.85 6.1 21.8 5.2 21.95 4.0 21.6 Q2.3 20.95 1.2 19.45 L1.2 19.15 0.95 18.85 Q0.6 17.9 0.55 16.9 L0.55 16.5 0.55 16.35 0.55 15.95 Q0.6 14.95 0.95 14.0 1.0 13.75 1.2 13.7 L1.2 13.4 Q2.3 11.85 4.0 11.25 L5.2 10.9 6.1 11.05 6.15 10.95 9.7 11.4 9.9 11.35 10.05 11.35 10.1 11.4 10.2 11.45 10.25 11.45 10.35 10.35 10.45 10.25 10.55 10.3 10.65 10.25 10.75 10.2 13.2 10.3 13.25 10.35 13.3 10.3 13.4 10.35 13.4 10.4 13.4 11.45 13.4 11.55 13.3 11.6 13.25 11.65 13.25 11.75 13.3 11.8 14.25 12.2 14.95 11.2 15.05 11.1 15.1 11.05 Q15.75 11.15 16.2 11.55 L17.35 12.6 24.6 13.4 31.15 13.85 31.1 13.75 31.1 13.7 31.5 13.35 31.8 13.05 32.25 13.15 32.3 13.15 32.35 13.2 M10.65 10.6 L10.6 11.55 12.85 12.0 12.95 11.85 13.0 10.55 13.0 10.45 10.85 10.6 10.65 10.6 M15.25 11.4 L15.2 11.4 14.55 12.3 16.5 12.55 Q16.1 11.65 15.25 11.4 M16.75 12.55 L16.8 12.55 16.7 12.4 16.75 12.55 M13.9 20.7 L13.5 20.75 10.65 21.25 10.85 22.1 10.95 22.1 11.0 22.05 12.7 22.2 13.1 22.05 Q12.95 21.6 13.15 21.35 L13.15 21.3 13.2 21.35 13.2 21.25 13.2 21.15 13.3 21.1 13.35 21.05 13.4 21.1 13.45 21.1 13.5 21.05 13.55 21.05 13.9 20.7" fill="#000000" fill-rule="evenodd" stroke="none"/>
      <path d="M15.75 20.5 L15.25 20.85 14.9 20.6 14.9 20.55 15.5 20.45 15.7 20.5 15.75 20.5 M10.65 10.6 L10.85 10.6 13.0 10.45 13.0 10.55 12.95 11.85 12.85 12.0 10.6 11.55 10.65 10.6 M15.25 11.4 Q16.1 11.65 16.5 12.55 L14.55 12.3 15.2 11.4 15.25 11.4 M13.9 20.7 L13.55 21.05 13.5 21.05 13.45 21.1 13.4 21.1 13.35 21.05 13.3 21.1 13.2 21.15 13.2 21.25 13.2 21.35 13.15 21.3 13.15 21.35 Q12.95 21.6 13.1 22.05 L12.7 22.2 11.0 22.05 10.95 22.1 10.85 22.1 10.65 21.25 13.5 20.75 13.9 20.7" fill="#754e39" fill-rule="evenodd" stroke="none"/>
      <path d="M31.2 14.45 L31.05 14.55 31.0 14.6 29.85 14.6 25.55 14.35 22.7 14.0 21.9 13.85 16.9 13.6 16.35 13.55 16.15 13.55 16.2 13.15 16.1 13.15 16.05 13.0 16.0 12.95 15.95 12.9 16.85 12.85 17.0 12.85 17.4 12.9 18.7 13.0 25.7 14.05 26.1 14.1 Q28.6 14.35 31.15 14.05 L31.2 14.35 31.2 14.45 M16.1 14.7 L17.05 14.7 17.4 14.7 Q24.3 14.7 31.25 15.05 L31.35 15.95 Q30.45 16.6 29.2 16.4 L26.7 16.0 25.45 16.0 25.25 16.0 Q21.3 15.75 17.4 16.05 L16.95 16.1 15.95 16.15 15.95 15.9 15.85 15.85 15.9 15.25 16.0 15.2 16.05 15.15 16.1 14.7 M15.6 19.25 L15.55 19.3 15.55 19.35 15.5 19.7 15.35 19.7 15.3 19.7 15.25 19.1 15.15 18.7 Q15.0 18.1 15.25 17.6 L15.3 17.25 15.5 17.3 15.55 18.65 15.6 18.9 15.6 19.25 M9.9 16.95 L9.9 16.4 9.85 16.4 9.75 16.3 9.7 16.3 9.65 15.65 9.6 15.6 9.65 15.0 14.55 14.7 15.1 14.7 15.2 15.45 15.25 15.5 15.25 16.0 15.3 16.2 13.65 16.4 10.4 16.85 9.9 16.95 M9.3 19.8 L9.3 19.9 9.2 20.35 9.1 20.35 9.0 20.35 9.0 19.75 9.0 19.6 8.95 19.55 Q8.65 18.55 9.0 17.7 L9.0 17.35 9.05 17.35 9.2 17.4 9.25 17.4 9.3 19.35 9.3 19.7 9.3 19.8 M5.65 11.65 L5.85 11.6 6.4 11.65 7.2 11.7 8.1 11.8 8.85 11.9 9.0 11.9 8.9 12.0 8.9 12.05 8.85 12.25 8.85 12.3 8.45 12.25 8.4 12.25 8.0 12.2 7.55 12.15 7.25 12.05 6.7 12.0 5.85 12.0 5.5 12.1 Q4.3 12.35 3.25 12.85 2.7 13.15 2.25 13.65 L2.25 13.9 2.25 14.0 2.35 14.75 Q4.25 15.75 6.55 15.45 L6.7 15.45 7.05 15.35 8.9 15.1 8.95 15.15 8.95 15.2 9.0 15.8 9.05 16.1 9.05 16.3 9.05 17.1 7.45 17.35 7.15 17.4 6.7 17.45 Q4.5 17.85 2.6 16.75 2.05 16.45 1.95 15.85 L1.75 14.8 1.75 14.75 1.7 14.7 1.7 14.6 1.7 14.25 1.7 14.2 1.7 14.05 1.7 13.9 Q2.05 13.15 2.75 12.8 4.1 11.95 5.65 11.65 M9.75 12.0 L13.15 12.7 15.1 12.95 15.2 12.95 15.1 13.1 15.2 13.2 15.15 13.5 15.0 13.5 9.9 12.6 9.9 12.3 9.85 12.3 9.8 12.25 9.8 12.1 9.75 12.0" fill="#982c2c" fill-rule="evenodd" stroke="none"/>
      <path d="M15.95 12.9 L16.0 12.95 16.05 13.0 16.1 13.15 16.2 13.15 16.15 13.55 16.1 14.7 16.05 15.15 16.0 15.2 15.9 15.25 15.85 15.85 15.95 15.9 15.95 16.15 16.95 16.1 17.4 16.05 Q21.3 15.75 25.25 16.0 L25.45 16.0 26.7 16.0 29.2 16.4 Q30.45 16.6 31.35 15.95 L31.5 16.55 31.5 17.05 31.4 17.1 31.3 17.2 22.15 17.7 17.55 18.3 16.85 18.45 16.45 18.5 16.4 18.5 16.15 18.55 16.15 18.35 16.2 16.55 16.1 16.55 16.0 16.4 15.95 16.4 15.95 16.45 15.85 17.25 15.8 17.25 15.75 17.3 Q15.55 17.45 15.75 17.7 L15.7 17.8 Q15.5 18.2 15.6 18.65 L15.55 18.65 15.5 17.3 15.55 16.85 15.55 16.75 15.6 16.7 15.55 16.2 Q15.5 15.4 15.6 14.7 L15.75 13.85 15.8 13.65 15.75 13.5 15.8 13.1 15.85 12.95 15.95 12.9 M1.0 15.8 Q1.05 14.75 1.55 13.75 1.8 13.1 2.4 12.65 3.85 11.4 5.6 11.5 L5.65 11.65 Q4.1 11.95 2.75 12.8 2.05 13.15 1.7 13.9 L1.7 14.05 1.7 14.2 1.7 14.25 1.7 14.6 1.7 14.7 1.75 14.75 1.75 14.8 1.95 15.85 Q2.05 16.45 2.6 16.75 4.5 17.85 6.7 17.45 L7.15 17.4 7.45 17.35 9.05 17.1 9.05 17.25 9.0 17.35 9.0 17.7 Q8.65 18.55 8.95 19.55 L9.0 19.6 9.0 19.75 7.0 19.95 6.75 19.95 3.7 19.8 Q3.45 19.35 2.95 19.2 L2.35 18.45 2.35 18.4 2.35 18.25 Q1.75 17.6 1.5 16.75 L1.55 16.5 1.5 16.5 1.4 16.35 1.3 16.4 1.3 16.35 1.25 15.85 1.2 15.8 1.15 15.7 1.05 15.8 1.0 15.8 M32.25 14.35 Q32.2 15.25 32.4 16.15 L32.4 16.35 32.35 16.35 32.35 16.5 32.4 16.5 32.4 16.7 32.3 17.25 Q32.15 17.15 32.1 17.4 L31.9 17.5 31.9 17.35 32.0 17.35 32.0 17.2 31.95 15.95 32.05 15.85 32.1 15.8 32.15 14.4 32.15 14.35 32.25 14.35 M15.15 18.7 L9.85 19.6 9.9 16.95 10.4 16.85 13.65 16.4 15.3 16.2 15.3 16.4 15.3 17.2 15.3 17.25 15.25 17.6 Q15.0 18.1 15.15 18.7 M9.65 16.35 L9.6 17.0 9.55 17.35 9.45 17.4 Q9.25 17.6 9.45 17.9 L9.4 18.05 Q9.15 18.75 9.5 19.45 L9.5 19.65 9.5 19.75 9.45 19.7 9.4 19.8 9.3 19.8 9.3 19.7 9.3 19.35 9.25 17.4 9.3 17.05 9.3 16.85 9.3 16.7 9.3 16.65 9.3 15.05 9.45 13.65 9.5 13.1 9.5 13.05 9.55 12.9 9.5 12.45 9.55 12.25 9.6 12.0 9.65 12.0 9.75 12.0 9.8 12.1 9.8 12.25 9.85 12.3 9.9 12.3 9.9 12.6 9.85 13.1 9.85 13.65 9.8 14.75 9.7 14.8 9.65 14.9 9.65 15.0 9.6 15.6 9.65 15.65 9.7 16.3 9.65 16.35" fill="#6d0101" fill-rule="evenodd" stroke="none"/>
      <path d="M16.15 13.55 L16.35 13.55 16.9 13.6 21.9 13.85 22.7 14.0 25.55 14.35 29.85 14.6 31.0 14.6 31.05 14.55 31.2 14.45 31.25 15.05 Q24.3 14.7 17.4 14.7 L17.05 14.7 16.1 14.7 16.15 13.55 M31.9 17.5 L31.9 18.15 31.9 18.3 31.6 18.25 31.5 17.3 31.5 17.05 31.5 16.55 31.5 16.15 31.5 16.05 31.6 16.0 31.6 15.75 31.65 15.05 31.65 14.75 31.65 14.7 Q31.7 14.6 31.8 14.6 L31.8 14.55 31.85 14.55 31.9 14.6 31.95 14.55 32.05 14.35 32.05 14.25 32.1 14.35 32.15 14.35 32.15 14.4 32.1 15.8 32.05 15.85 31.95 15.95 32.0 17.2 32.0 17.35 31.9 17.35 31.9 17.5 M9.05 17.1 L9.05 16.3 9.05 16.1 9.05 15.9 9.05 15.2 9.05 14.7 9.1 13.95 9.05 13.85 9.05 13.6 9.15 13.0 9.25 12.5 9.3 12.45 9.35 12.4 9.35 12.35 9.4 12.4 9.45 12.25 9.45 12.15 9.55 12.25 9.5 12.45 9.55 12.9 9.5 13.05 9.5 13.1 9.45 13.65 9.3 15.05 9.3 16.65 9.3 16.7 9.3 16.85 9.3 17.05 9.25 17.4 9.2 17.4 9.05 17.35 9.05 17.25 9.05 17.1 M8.9 15.1 L7.05 15.35 6.7 15.45 6.55 15.45 Q4.25 15.75 2.35 14.75 L2.25 14.0 2.25 13.9 2.25 13.65 Q2.7 13.15 3.25 12.85 4.3 12.35 5.5 12.1 L5.85 12.0 6.7 12.0 7.25 12.05 7.55 12.15 8.0 12.2 8.4 12.25 8.45 12.25 8.85 12.3 8.95 12.35 Q8.85 12.65 8.9 12.95 L6.7 12.55 6.25 12.5 5.5 12.35 5.45 12.45 5.35 12.5 5.35 12.6 4.6 12.6 4.55 12.6 Q3.75 12.65 3.25 13.3 L3.35 13.4 3.7 13.65 3.9 13.55 4.0 13.65 4.0 13.7 5.8 13.6 6.35 13.65 6.8 13.7 8.15 13.6 8.85 13.6 8.85 13.7 8.9 15.1 M9.9 12.6 L15.0 13.5 15.15 13.5 15.2 13.8 15.25 13.85 15.25 14.05 15.25 14.15 15.1 14.2 15.1 14.3 15.1 14.7 14.55 14.7 9.65 15.0 9.65 14.9 9.7 14.8 9.8 14.75 9.85 13.65 13.05 13.85 13.05 13.75 13.1 13.7 13.1 13.65 13.05 13.65 12.9 13.55 9.85 13.1 9.9 12.6 M15.8 13.1 L15.75 13.5 15.8 13.65 15.75 13.85 15.6 14.7 Q15.5 15.4 15.55 16.2 L15.6 16.7 15.55 16.75 15.55 16.85 15.5 17.3 15.3 17.25 15.3 17.2 15.3 16.4 15.3 16.2 15.3 16.1 15.35 15.5 15.35 15.15 15.35 14.7 15.35 14.5 15.3 14.45 15.45 13.5 15.5 13.35 15.55 13.3 15.6 13.25 15.65 13.25 15.75 13.1 15.75 13.05 15.8 13.1" fill="#c69f9f" fill-rule="evenodd" stroke="none"/>
      <path d="M32.3 17.25 L32.35 17.25 32.5 17.4 32.4 17.45 32.55 17.8 32.55 17.9 Q32.3 18.45 32.35 19.0 L32.35 19.15 32.25 19.3 32.25 19.35 31.8 19.45 31.75 19.3 31.75 19.2 31.65 19.15 31.6 19.1 31.0 18.85 30.9 18.8 29.05 18.7 27.55 18.95 26.95 18.85 24.95 18.95 24.9 19.0 24.4 19.05 24.25 19.1 23.85 19.1 22.7 19.3 22.5 19.35 22.35 19.35 22.25 19.45 21.95 19.65 21.8 19.55 21.75 19.5 21.5 19.55 20.9 19.55 20.75 19.55 20.7 19.65 20.7 19.7 Q20.6 19.7 20.65 19.8 L19.45 19.7 18.3 19.8 18.2 19.85 17.95 19.9 17.6 20.05 17.5 20.15 17.45 20.1 16.9 20.0 16.8 20.0 16.7 20.0 16.6 20.0 16.55 20.05 16.5 20.15 16.1 20.2 16.1 20.3 16.05 20.4 15.8 20.5 15.75 20.5 15.7 20.5 15.5 20.45 15.4 20.25 14.55 20.3 14.55 20.35 14.5 20.35 14.1 20.45 11.8 20.6 10.6 20.8 9.95 20.95 9.85 20.95 9.85 21.1 9.55 21.3 9.4 21.3 9.2 21.25 9.2 21.2 9.05 21.25 8.15 21.4 8.15 21.45 8.1 21.45 8.05 21.5 7.9 21.45 7.65 21.5 5.95 21.45 6.55 21.3 6.45 21.3 5.85 21.35 4.55 21.3 4.15 21.25 Q3.6 21.25 3.25 20.95 L3.2 20.8 3.1 20.8 2.95 20.75 2.65 20.4 2.6 20.3 2.4 20.2 2.35 20.15 2.2 20.15 2.1 19.9 2.05 19.8 1.95 19.75 Q1.45 19.4 1.3 18.85 L1.05 18.65 1.05 17.45 1.05 17.3 1.0 16.95 0.9 16.7 0.9 16.55 0.95 16.5 0.95 16.0 0.95 15.85 1.0 15.8 1.05 15.8 1.15 15.7 1.2 15.8 1.25 15.85 1.3 16.35 1.3 16.4 1.4 16.35 1.5 16.5 1.55 16.5 1.5 16.75 Q1.75 17.6 2.35 18.25 L2.35 18.4 2.35 18.45 2.95 19.2 Q3.45 19.35 3.7 19.8 L6.75 19.95 7.0 19.95 9.0 19.75 9.0 20.35 9.05 20.6 9.1 20.35 9.2 20.35 9.3 19.9 9.3 19.8 9.4 19.8 9.45 19.7 9.5 19.75 9.5 19.65 9.5 19.45 Q9.15 18.75 9.4 18.05 L9.45 17.9 Q9.25 17.6 9.45 17.4 L9.55 17.35 9.6 17.0 9.65 16.35 9.75 16.3 9.85 16.4 9.9 16.4 9.9 16.95 9.85 19.6 15.15 18.7 15.25 19.1 15.3 19.7 15.3 19.9 15.35 19.95 15.35 19.9 15.35 19.7 15.5 19.7 15.55 19.35 15.55 19.3 15.6 19.25 15.7 19.25 15.75 19.2 15.75 18.95 15.6 18.65 Q15.5 18.2 15.7 17.8 L15.75 17.7 Q15.55 17.45 15.75 17.3 L15.8 17.25 15.85 17.25 15.95 16.45 16.0 16.4 16.1 16.55 16.2 16.55 16.15 18.35 16.15 18.55 16.4 18.5 16.45 18.5 16.85 18.45 17.55 18.3 22.15 17.7 31.3 17.2 31.4 17.1 31.5 17.05 31.5 17.3 31.6 18.25 31.9 18.3 31.9 18.15 31.9 17.5 32.1 17.4 Q32.15 17.15 32.3 17.25 M1.75 18.25 L1.8 18.4 1.8 18.45 1.85 18.5 1.9 18.6 1.95 18.6 1.95 18.45 1.6 17.9 1.75 18.25" fill="#2b0000" fill-rule="evenodd" stroke="none"/>
      <path d="M16.85 12.85 L15.95 12.9 15.85 12.9 15.85 12.75 16.85 12.85 M2.65 20.4 L2.4 20.2 2.6 20.3 2.65 20.4 M2.1 19.9 L1.95 19.75 2.05 19.8 2.1 19.9 M1.05 17.45 L1.0 16.95 1.05 17.3 1.05 17.45 M5.6 11.5 L5.8 11.5 6.4 11.6 6.45 11.55 6.55 11.55 6.55 11.45 6.6 11.4 6.6 11.35 7.5 11.5 7.95 11.6 9.0 11.8 9.1 11.8 Q9.0 11.8 9.05 11.9 L9.0 11.9 8.85 11.9 8.1 11.8 7.2 11.7 6.4 11.65 5.85 11.6 5.65 11.65 5.6 11.5 M9.6 11.9 L9.75 11.9 10.3 12.0 10.6 12.05 11.1 12.15 14.25 12.6 15.35 12.7 15.4 12.7 15.35 12.8 15.3 12.8 Q15.2 12.8 15.2 12.95 L15.1 12.95 13.15 12.7 9.75 12.0 9.65 12.0 9.6 12.0 9.6 11.9 M32.25 13.75 L32.1 13.65 32.1 13.7 31.85 13.75 31.8 13.85 31.8 13.9 Q31.55 13.9 31.5 14.05 L31.5 14.0 31.4 13.9 31.65 13.75 31.75 13.7 31.8 13.55 31.8 13.5 32.15 13.55 32.25 13.55 32.25 13.75 M32.25 14.25 L32.25 14.35 32.15 14.35 32.25 14.25 M15.6 18.65 L15.75 18.95 15.75 19.2 15.7 19.25 15.6 19.25 15.6 18.9 15.55 18.65 15.6 18.65 M1.75 18.25 L1.6 17.9 1.95 18.45 1.95 18.6 1.9 18.6 1.85 18.5 1.8 18.45 1.8 18.4 1.75 18.25" fill="#343f50" fill-rule="evenodd" stroke="none"/>
      <path d="M31.2 14.45 L31.2 14.35 31.15 14.05 31.15 14.0 31.25 13.9 31.3 13.9 31.35 13.85 31.4 13.9 31.5 14.0 31.5 14.05 Q31.55 13.9 31.8 13.9 L31.8 13.85 31.85 13.75 32.1 13.7 32.1 13.65 32.25 13.75 32.3 13.85 32.25 13.9 32.25 14.05 32.25 14.1 32.25 14.2 32.25 14.25 32.15 14.35 32.1 14.35 32.05 14.25 32.05 14.35 31.95 14.55 31.9 14.6 31.85 14.55 31.8 14.55 31.8 14.6 Q31.7 14.6 31.65 14.7 L31.65 14.75 31.65 15.05 31.6 15.75 31.6 16.0 31.5 16.05 31.5 16.15 31.5 16.55 31.35 15.95 31.25 15.05 31.2 14.45 M9.1 11.8 L9.2 11.65 9.3 11.55 9.35 11.45 9.4 11.55 9.45 11.6 9.55 11.6 9.6 11.9 9.6 12.0 9.55 12.25 9.45 12.15 9.45 12.25 9.4 12.4 9.35 12.35 9.35 12.4 9.3 12.45 9.25 12.4 9.25 12.5 9.15 13.0 9.05 13.6 9.05 13.85 9.1 13.95 9.05 14.7 9.05 15.2 8.95 15.15 8.9 15.1 8.85 13.7 8.85 13.6 8.15 13.6 6.8 13.7 6.35 13.65 5.8 13.6 4.0 13.7 4.0 13.65 3.9 13.55 3.7 13.65 3.35 13.4 3.25 13.3 Q3.75 12.65 4.55 12.6 L4.6 12.6 5.35 12.6 5.35 12.5 5.45 12.45 5.5 12.35 6.25 12.5 6.7 12.55 8.9 12.95 Q8.85 12.65 8.95 12.35 L8.95 12.3 8.95 12.2 9.05 12.0 9.05 11.9 Q9.0 11.8 9.1 11.8 M15.4 12.7 L15.55 12.55 15.6 12.5 15.75 12.6 15.8 12.6 15.85 12.75 15.85 12.9 15.85 12.95 15.8 13.1 15.75 13.05 15.75 13.1 15.65 13.25 15.6 13.25 15.55 13.3 15.5 13.25 15.5 13.35 15.45 13.5 15.3 14.45 15.35 14.5 15.35 14.7 15.35 15.15 15.35 15.5 15.25 15.5 15.2 15.45 15.1 14.7 15.1 14.3 15.1 14.2 15.25 14.15 15.25 14.05 15.25 13.85 15.2 13.8 15.15 13.5 15.2 13.2 15.3 12.95 15.35 12.8 15.4 12.7 M9.85 13.1 L12.9 13.55 13.05 13.65 13.1 13.65 13.1 13.7 13.05 13.75 13.05 13.85 9.85 13.65 9.85 13.1 M9.0 13.45 L8.95 13.4 8.95 13.5 9.0 13.45" fill="#ffffff" fill-rule="evenodd" stroke="none"/>
      <path d="M15.35 19.9 L15.35 19.95 15.3 19.9 15.35 19.9 M9.05 16.1 L9.0 15.8 8.95 15.2 8.95 15.15 9.05 15.2 9.05 15.9 9.05 16.1 M8.85 12.3 L8.85 12.25 8.9 12.05 8.9 12.0 9.0 11.9 9.05 11.9 9.05 12.0 8.95 12.2 8.95 12.3 8.95 12.35 8.85 12.3 M9.3 12.45 L9.25 12.5 9.25 12.4 9.3 12.45 M15.2 12.95 Q15.2 12.8 15.3 12.8 L15.35 12.8 15.3 12.95 15.2 13.2 15.1 13.1 15.2 12.95 M9.0 13.45 L8.95 13.5 8.95 13.4 9.0 13.45 M9.05 17.25 L9.05 17.35 9.0 17.35 9.05 17.25 M15.5 13.35 L15.5 13.25 15.55 13.3 15.5 13.35 M15.35 15.5 L15.3 16.1 15.3 16.2 15.25 16.0 15.25 15.5 15.35 15.5" fill="#c6c664" fill-rule="evenodd" stroke="none"/>
      <path d="M16.0 16.4 L15.95 16.45 15.95 16.4 16.0 16.4 M9.75 16.3 L9.65 16.35 9.7 16.3 9.75 16.3" fill="#232b36" fill-rule="evenodd" stroke="none"/>
      <path d="M15.35 19.7 L15.35 19.9 15.3 19.9 15.3 19.7 15.35 19.7 M9.1 20.35 L9.05 20.6 9.0 20.35 9.1 20.35 M15.95 12.9 L15.85 12.95 15.85 12.9 15.95 12.9" fill="#546581" fill-rule="evenodd" stroke="none"/>
    </g>
  </defs>
</svg>
