<?xml version="1.0" encoding="UTF-8" standalone="no"?>
<svg xmlns:xlink="http://www.w3.org/1999/xlink" height="204.0px" width="1233.3px" xmlns="http://www.w3.org/2000/svg">
  <g transform="matrix(6.0, 0.0, 0.0, 6.0, 6.3, 102.0)">
    <use height="34.0" id="btr" transform="matrix(1.0, 0.0, 0.0, 1.0, 170.5, -17.0)" width="34.0" xlink:href="#button0"/>
    <use height="34.0" id="bt1" transform="matrix(1.0, 0.0, 0.0, 1.0, -0.5, -17.0)" width="34.0" xlink:href="#button1"/>
    <use height="34.0" id="bt2" transform="matrix(1.0, 0.0, 0.0, 1.0, 39.5, -17.0)" width="34.0" xlink:href="#button2"/>
    <use height="34.0" id="bt3" transform="matrix(1.0, 0.0, 0.0, 1.0, 79.5, -17.0)" width="34.0" xlink:href="#button3"/>
  </g>
  <defs>
    <g id="button0" transform="matrix(1.0, 0.0, 0.0, 1.0, 0.5, 0.5)">
      <use height="34.0" transform="matrix(1.0, 0.0, 0.0, 1.0, -0.5, -0.5)" width="34.0" xlink:href="#shape0"/>
      <use height="32.3" transform="matrix(1.0, 0.0, 0.0, 1.0, 0.6, 0.3)" width="32.1" xlink:href="#shape1"/>
    </g>
    <g id="shape0" transform="matrix(1.0, 0.0, 0.0, 1.0, 0.5, 0.5)">
      <path d="M33.0 0.0 L33.0 33.0 0.0 33.0 0.0 0.0 33.0 0.0" fill="#c4c4c4" fill-rule="evenodd" stroke="none"/>
      <path d="M33.0 0.0 L33.0 33.0 0.0 33.0 0.0 0.0 33.0 0.0 Z" fill="none" stroke="#000000" stroke-linecap="round" stroke-linejoin="round" stroke-width="1.0"/>
      <path d="M30.0 3.0 L3.0 3.0 3.0 30.0 30.0 30.0 30.0 3.0 M33.0 0.0 L33.0 33.0 0.0 33.0 0.0 0.0 33.0 0.0" fill="url(#gradient0)" fill-rule="evenodd" stroke="none"/>
      <path d="M30.0 3.0 L30.0 30.0 3.0 30.0 3.0 3.0 30.0 3.0" fill="#7b7b7b" fill-rule="evenodd" stroke="none"/>
      <path d="M30.0 3.0 L30.0 30.0 3.0 30.0 3.0 3.0 30.0 3.0 M33.0 0.0 L33.0 33.0 0.0 33.0 0.0 0.0 33.0 0.0" fill="none" stroke="#000000" stroke-linecap="round" stroke-linejoin="round" stroke-width="1.0"/>
      <path d="M28.0 0.0 L33.0 0.0 33.0 5.0 28.0 5.0 28.0 0.0 M0.0 0.0 L5.0 0.0 5.0 5.0 0.0 5.0 0.0 0.0 M5.0 28.0 L5.0 33.0 0.0 33.0 0.0 28.0 5.0 28.0 M28.0 28.0 L33.0 28.0 33.0 33.0 28.0 33.0 28.0 28.0" fill="#990000" fill-rule="evenodd" stroke="none"/>
      <path d="M28.0 0.0 L33.0 0.0 33.0 5.0 28.0 5.0 28.0 0.0 M0.0 0.0 L5.0 0.0 5.0 5.0 0.0 5.0 0.0 0.0 M5.0 28.0 L5.0 33.0 0.0 33.0 0.0 28.0 5.0 28.0 M28.0 28.0 L33.0 28.0 33.0 33.0 28.0 33.0 28.0 28.0" fill="none" stroke="#000000" stroke-linecap="round" stroke-linejoin="round" stroke-width="1.0"/>
    </g>
    <linearGradient gradientTransform="matrix(0.0152, 0.0234, -0.0234, 0.0152, 16.5, 16.45)" gradientUnits="userSpaceOnUse" id="gradient0" spreadMethod="pad" x1="-819.2" x2="819.2">
      <stop offset="0.0" stop-color="#eed600"/>
      <stop offset="0.19607843137254902" stop-color="#fef292"/>
      <stop offset="0.36470588235294116" stop-color="#ecd502"/>
      <stop offset="0.6352941176470588" stop-color="#9a8b00"/>
      <stop offset="0.8627450980392157" stop-color="#fff9c4"/>
      <stop offset="1.0" stop-color="#c4c400"/>
    </linearGradient>
    <g id="shape1" transform="matrix(1.0, 0.0, 0.0, 1.0, -0.6, -0.3)">
      <path d="M29.6 1.25 L29.05 2.1 28.6 1.8 28.6 1.45 28.85 0.8 Q28.9 0.35 29.3 0.35 L29.4 0.4 Q29.85 0.1 29.85 0.7 L29.7 1.1 29.6 1.25 M1.25 2.6 Q0.8 2.6 0.7 2.2 L0.7 1.7 Q0.7 1.15 1.45 0.65 2.2 0.2 2.2 0.95 L1.25 2.6 M1.85 29.35 L1.55 29.85 1.0 30.25 Q0.6 30.25 0.6 29.8 0.6 29.5 0.9 29.25 1.3 28.9 1.8 29.1 L1.85 29.35 M29.95 29.35 L29.8 29.95 29.4 30.25 Q28.95 30.25 28.95 29.8 28.95 29.4 29.45 29.0 29.95 28.55 29.95 29.35" fill="#ff6666" fill-rule="evenodd" stroke="none"/>
      <path d="M32.7 3.95 L32.7 4.35 31.45 4.6 Q30.2 4.6 30.2 4.2 30.2 3.9 30.7 3.65 L31.35 2.95 Q31.15 2.6 31.45 2.15 31.8 1.75 32.3 1.95 L32.7 3.95 M4.2 2.5 Q4.2 4.6 2.45 4.6 L2.05 4.55 Q1.95 4.05 2.1 3.9 L1.7 3.5 Q1.7 3.05 3.35 3.05 L3.9 2.1 Q4.2 1.65 4.2 2.5 M3.6 30.35 Q3.7 30.0 4.3 30.1 L4.35 32.05 Q4.25 32.6 3.75 32.6 L1.6 32.45 Q1.45 32.4 1.45 32.15 2.65 30.7 3.6 30.85 L3.6 30.35 M32.25 32.5 L31.25 32.5 30.25 32.5 29.85 32.05 30.05 31.8 31.3 31.25 31.2 30.65 Q31.2 30.25 31.55 29.8 31.95 29.25 32.25 29.95 L32.45 31.75 32.25 32.5" fill="#660000" fill-rule="evenodd" stroke="none"/>
      <path d="M28.0 20.5 L14.5 20.5 14.5 26.0 5.0 16.5 14.5 7.0 14.5 12.5 28.0 12.5 28.0 20.5" fill="#b10101" fill-rule="evenodd" stroke="none"/>
    </g>
    <g id="button1" transform="matrix(1.0, 0.0, 0.0, 1.0, 0.5, 0.5)">
      <use height="34.0" transform="matrix(1.0, 0.0, 0.0, 1.0, -0.5, -0.5)" width="34.0" xlink:href="#shape0"/>
      <use height="32.3" transform="matrix(1.0, 0.0, 0.0, 1.0, 0.6, 0.3)" width="32.1" xlink:href="#shape2"/>
    </g>
    <g id="shape2" transform="matrix(1.0, 0.0, 0.0, 1.0, -0.6, -0.3)">
      <path d="M29.85 0.7 L29.7 1.1 29.6 1.25 29.05 2.1 28.6 1.8 28.6 1.45 28.85 0.8 Q28.9 0.35 29.3 0.35 L29.4 0.4 Q29.85 0.1 29.85 0.7 M1.25 2.6 Q0.8 2.6 0.7 2.2 L0.7 1.7 Q0.7 1.15 1.45 0.65 2.2 0.2 2.2 0.95 L1.25 2.6 M1.85 29.35 L1.55 29.85 1.0 30.25 Q0.6 30.25 0.6 29.8 0.6 29.5 0.9 29.25 1.3 28.9 1.8 29.1 L1.85 29.35 M29.95 29.35 L29.8 29.95 29.4 30.25 Q28.95 30.25 28.95 29.8 28.95 29.4 29.45 29.0 29.95 28.55 29.95 29.35" fill="#ff6666" fill-rule="evenodd" stroke="none"/>
      <path d="M32.7 3.95 L32.7 4.35 31.45 4.6 Q30.2 4.6 30.2 4.2 30.2 3.9 30.7 3.65 L31.35 2.95 Q31.15 2.6 31.45 2.15 31.8 1.75 32.3 1.95 L32.7 3.95 M4.2 2.5 Q4.2 4.6 2.45 4.6 L2.05 4.55 Q1.95 4.05 2.1 3.9 L1.7 3.5 Q1.7 3.05 3.35 3.05 L3.9 2.1 Q4.2 1.65 4.2 2.5 M3.6 30.35 Q3.7 30.0 4.3 30.1 L4.35 32.05 Q4.25 32.6 3.75 32.6 L1.6 32.45 Q1.45 32.4 1.45 32.15 2.65 30.7 3.6 30.85 L3.6 30.35 M32.25 32.5 L31.25 32.5 30.25 32.5 29.85 32.05 30.05 31.8 31.3 31.25 31.2 30.65 Q31.2 30.25 31.55 29.8 31.95 29.25 32.25 29.95 L32.45 31.75 32.25 32.5" fill="#660000" fill-rule="evenodd" stroke="none"/>
      <path d="M7.85 16.55 L7.85 16.5 11.6 16.55 12.3 16.55 Q12.15 17.2 12.25 17.9 L7.75 17.9 7.75 17.45 7.75 17.4 7.8 17.4 7.85 16.7 7.85 16.55 M6.9 16.7 L6.9 17.1 4.65 17.0 4.65 17.05 4.6 17.05 4.6 16.8 4.6 16.65 6.9 16.7 M8.2 16.85 L8.15 16.9 8.15 16.95 Q10.05 17.35 12.05 16.95 L12.05 16.9 12.0 16.85 11.95 16.85 11.95 16.8 11.85 16.75 8.85 16.7 8.5 16.7 8.45 16.75 8.4 16.75 8.3 16.75 8.2 16.85 M4.55 19.95 L4.55 19.55 6.9 19.6 6.9 20.0 4.6 19.95 4.55 19.95" fill="#afafaf" fill-rule="evenodd" stroke="none"/>
      <path d="M27.55 16.05 L27.95 16.1 28.05 16.1 28.05 16.15 28.1 16.2 28.15 16.2 28.2 16.4 28.15 16.4 28.15 16.45 28.25 16.45 28.45 16.65 28.4 16.65 28.35 16.7 28.4 16.7 28.55 16.7 29.2 16.7 29.65 16.7 30.45 16.7 30.55 16.7 30.6 16.7 31.0 16.5 31.1 16.4 31.3 16.1 31.65 16.15 31.7 16.15 31.75 16.2 31.8 16.35 31.8 16.4 31.8 19.85 31.9 19.9 31.8 19.95 31.8 20.0 31.7 20.05 Q31.4 20.05 31.15 19.85 L31.2 19.8 31.2 19.7 28.3 19.65 Q28.2 19.75 28.25 19.8 L28.25 19.85 28.25 19.95 27.65 20.05 27.65 20.0 27.55 19.9 27.5 19.85 27.45 19.85 27.45 19.75 27.15 19.55 26.95 19.55 26.85 19.4 26.85 19.35 26.8 19.35 26.7 19.3 Q26.5 19.15 26.2 19.15 L26.15 19.15 26.0 19.15 25.95 19.2 25.75 19.1 25.25 19.15 25.25 19.1 25.05 19.1 18.15 19.15 15.95 19.15 15.9 19.25 15.85 19.3 15.85 19.4 15.8 19.75 15.8 19.8 15.8 20.3 15.9 20.4 15.9 20.55 15.7 20.55 15.65 20.55 15.0 20.6 14.85 21.35 14.8 21.45 14.7 21.45 14.65 21.4 14.1 21.4 14.0 21.7 14.1 21.7 14.05 21.8 13.9 21.8 8.9 21.85 8.75 21.75 8.35 21.1 8.2 20.8 7.9 20.6 7.9 20.55 7.2 20.55 7.15 20.55 7.15 20.6 7.1 20.85 6.9 20.85 6.9 20.15 4.5 20.1 4.5 20.15 4.5 20.25 4.5 20.35 4.55 20.4 4.6 20.45 4.55 20.55 4.45 20.55 3.15 20.55 2.95 20.5 2.9 20.5 2.8 20.5 2.8 20.45 2.95 20.3 2.95 20.25 2.95 16.7 2.95 16.6 2.8 16.45 2.95 16.1 2.9 16.1 2.9 16.05 3.0 15.95 3.05 15.95 4.5 15.95 4.55 16.0 4.6 16.0 4.55 16.15 4.6 16.45 6.9 16.45 6.9 15.95 6.9 15.75 7.0 15.75 7.05 15.65 7.7 15.65 7.7 14.55 7.7 14.5 7.75 14.5 7.75 14.45 7.85 14.3 8.45 14.35 8.45 13.85 8.0 13.85 7.95 13.85 7.9 13.9 7.75 13.85 Q7.6 13.1 7.9 12.5 L7.75 12.35 7.75 12.25 7.85 12.2 7.95 12.2 8.0 12.15 8.4 12.2 8.4 11.9 8.0 11.85 8.0 11.9 7.8 11.85 7.8 10.55 7.8 10.5 7.9 10.45 8.05 10.45 8.4 10.45 8.45 10.2 8.45 10.05 8.55 9.9 8.6 9.95 8.65 9.95 10.95 10.05 11.0 10.1 11.0 10.2 11.0 10.5 11.05 10.45 11.1 10.4 Q11.85 10.55 12.35 11.05 L12.45 11.15 12.5 11.15 12.35 11.4 Q11.9 11.9 11.35 12.0 L11.2 11.9 11.05 11.9 11.05 12.25 11.35 12.25 11.35 12.3 11.4 12.3 11.4 12.35 11.5 12.35 11.75 12.45 11.8 12.45 12.45 12.8 12.5 12.8 12.55 13.0 12.55 13.15 12.3 13.35 12.05 13.6 12.0 13.7 11.35 13.85 11.05 14.0 11.05 14.35 11.15 14.35 12.35 14.85 12.4 14.9 12.55 15.0 12.55 15.2 12.0 15.65 15.6 15.7 15.6 15.65 15.65 15.6 15.7 15.55 15.75 15.6 15.8 15.65 15.8 15.7 15.85 15.7 15.9 15.85 15.8 15.85 15.8 16.15 15.8 16.7 15.9 16.75 16.1 16.8 16.15 16.85 16.15 16.9 26.85 16.95 26.85 16.8 26.75 16.8 26.8 16.7 26.9 16.55 27.45 16.15 27.55 16.05 M27.2 16.8 L27.2 16.9 27.1 17.05 27.1 17.1 26.9 17.1 15.85 17.15 15.85 18.35 15.9 18.35 15.95 18.45 16.05 18.6 16.0 18.7 16.0 18.9 18.25 18.95 18.25 18.9 26.25 18.95 26.6 18.95 26.85 18.95 26.9 18.95 26.95 18.9 27.0 19.0 27.05 18.95 27.1 18.9 27.25 19.35 27.2 19.4 27.65 19.7 27.8 19.8 28.0 19.75 28.0 19.7 28.05 19.55 28.1 19.55 28.15 19.4 28.15 19.35 28.25 19.35 28.4 19.4 31.25 19.4 31.4 19.55 31.45 19.55 31.45 19.7 31.5 19.75 31.6 19.8 31.7 16.45 31.6 16.35 31.55 16.4 31.5 16.4 31.4 16.4 31.3 16.5 31.15 16.7 31.15 16.75 31.05 16.9 30.9 16.95 28.35 16.9 28.25 16.9 28.15 16.9 27.85 16.65 27.85 16.6 27.9 16.55 27.85 16.35 27.65 16.35 27.2 16.7 27.2 16.8 M28.75 17.7 L28.45 17.7 28.35 17.8 28.1 17.9 28.05 17.95 28.05 18.05 28.1 18.15 30.9 18.1 30.95 18.0 31.0 18.0 Q30.8 17.8 30.3 17.75 L28.85 17.65 28.75 17.7 M30.55 18.5 L27.9 18.25 27.85 18.15 27.8 18.15 27.9 17.85 28.15 17.65 28.15 17.6 28.2 17.55 28.25 17.55 28.85 17.4 31.25 17.8 31.3 17.85 31.35 17.9 31.3 17.9 31.3 17.95 31.25 18.1 30.9 18.35 30.7 18.35 30.7 18.45 30.55 18.5 M10.75 10.5 L10.85 10.25 8.65 10.3 8.65 10.45 8.65 10.7 8.65 10.8 8.65 11.0 8.7 11.65 8.7 11.9 8.7 12.2 8.7 12.55 8.7 12.65 8.7 12.85 8.7 13.6 8.7 13.85 8.7 14.35 8.65 14.55 8.65 14.65 8.65 14.85 8.65 14.9 8.7 15.5 8.7 15.65 10.8 15.65 10.8 14.95 10.8 14.75 10.8 14.55 10.8 14.35 10.8 13.85 10.8 13.6 10.8 12.9 10.75 12.5 10.75 12.25 10.75 11.9 10.75 11.7 10.7 11.15 10.7 10.85 10.7 10.8 10.7 10.7 10.75 10.5 M11.0 11.15 L11.05 11.7 11.35 11.7 11.4 11.7 11.75 11.65 12.2 11.2 12.2 11.15 Q11.95 11.15 11.85 10.95 L11.3 10.7 11.2 10.7 11.0 10.7 11.0 10.85 11.0 11.15 M8.35 10.85 L8.35 10.8 8.35 10.7 8.0 10.7 8.0 11.65 8.4 11.65 8.35 11.0 8.35 10.85 M8.45 12.8 L8.45 12.7 8.45 12.55 8.05 12.5 7.95 13.6 7.95 13.65 8.0 13.65 8.0 13.6 8.45 13.6 8.45 12.8 M8.45 14.6 L8.45 14.55 7.9 14.5 7.95 15.6 7.95 15.65 8.45 15.65 8.45 14.9 8.45 14.6 M7.55 16.7 L7.65 16.7 7.7 16.5 7.6 16.5 7.6 16.4 7.75 16.35 7.75 16.25 7.8 16.3 7.85 16.35 11.55 16.4 11.45 15.95 11.45 15.9 11.4 15.9 7.75 15.9 7.1 15.9 7.15 16.45 7.15 16.7 7.15 17.1 7.15 17.35 7.15 19.4 7.15 19.6 7.15 20.0 7.15 20.15 7.15 20.4 10.8 20.4 10.8 20.35 Q10.7 19.25 10.85 18.15 L7.55 18.15 7.45 18.0 7.55 17.9 7.55 17.3 7.55 16.75 7.55 16.7 M6.9 16.7 L4.6 16.65 4.6 16.8 4.6 17.05 4.65 17.05 4.65 17.0 6.9 17.1 6.9 16.7 M7.85 16.55 L7.85 16.7 7.8 17.4 7.75 17.4 7.75 17.45 7.75 17.9 12.25 17.9 Q12.15 17.2 12.3 16.55 L11.6 16.55 7.85 16.5 7.85 16.55 M4.35 16.15 L4.05 16.15 Q4.15 17.05 3.2 16.95 L3.2 20.15 3.2 20.3 3.2 20.35 4.2 20.35 4.3 19.95 4.3 19.55 4.3 19.5 4.3 16.75 4.25 16.65 4.3 16.55 4.35 16.5 4.35 16.2 4.35 16.15 M3.15 16.4 L3.2 16.45 3.2 16.7 3.65 16.7 3.9 16.15 3.2 16.15 3.15 16.2 3.1 16.3 3.15 16.4 M4.65 17.35 L4.6 17.35 4.55 17.4 4.55 17.45 4.55 19.35 6.9 19.4 6.9 17.35 4.65 17.35 M4.55 19.95 L4.6 19.95 6.9 20.0 6.9 19.6 4.55 19.55 4.55 19.95 M8.7 21.15 L8.75 21.25 8.85 21.4 8.95 21.5 8.95 21.6 13.8 21.65 13.85 21.35 13.85 21.25 14.25 20.75 14.3 20.6 8.35 20.55 8.7 21.15 M15.6 15.85 L11.85 15.9 11.85 16.0 11.85 16.1 11.8 16.2 11.75 16.2 11.8 16.3 11.85 16.35 11.85 16.4 12.35 16.4 12.35 16.35 12.4 16.3 12.5 16.4 12.55 16.45 12.55 16.5 12.45 17.9 12.65 17.9 12.75 17.95 12.8 17.95 12.75 18.1 12.7 18.1 10.95 18.15 11.0 19.55 11.1 19.5 13.1 19.55 Q13.1 19.4 13.25 19.45 L13.25 19.4 13.5 19.45 13.55 19.2 13.6 19.15 13.65 19.1 13.7 19.1 Q13.85 18.65 14.25 18.45 L14.25 18.4 14.3 18.35 14.45 18.5 14.6 18.5 14.65 18.5 14.85 18.45 15.45 18.4 15.55 18.45 15.6 18.5 15.6 18.4 15.6 17.1 15.6 16.05 15.6 15.85 M15.6 18.55 L15.6 18.6 15.55 18.6 15.35 18.6 15.3 18.7 15.3 18.85 14.95 18.85 14.9 18.85 14.65 18.8 14.25 18.75 13.7 19.5 13.7 19.55 13.65 19.6 13.6 19.65 13.55 19.7 13.5 19.7 11.0 19.65 10.95 20.35 10.95 20.4 15.5 20.35 15.55 20.3 15.6 20.3 15.6 19.65 15.65 19.6 15.65 19.55 15.65 19.35 15.75 18.7 15.75 18.6 15.7 18.6 15.65 18.55 15.6 18.55 M11.05 12.9 L11.05 13.7 11.1 13.7 11.2 13.65 11.25 13.65 12.35 13.1 12.3 13.1 12.3 12.95 11.85 12.7 11.75 12.65 11.65 12.6 11.4 12.5 11.35 12.45 11.2 12.55 11.1 12.55 11.05 12.55 11.05 12.9 M11.05 14.95 L11.05 15.05 11.0 15.65 11.4 15.65 11.85 15.5 12.3 15.1 11.1 14.55 11.05 14.55 11.05 14.75 11.05 14.95 M14.4 21.1 L14.4 21.05 14.5 21.05 14.65 21.15 14.7 20.75 14.5 20.75 14.3 21.1 14.4 21.1" fill="#000000" fill-rule="evenodd" stroke="none"/>
      <path d="M3.15 16.4 L3.1 16.3 3.15 16.2 3.2 16.15 3.9 16.15 3.65 16.7 3.2 16.7 3.2 16.45 3.15 16.4 M4.35 16.15 L4.35 16.2 4.35 16.5 4.3 16.55 4.25 16.65 4.3 16.75 4.3 19.5 4.3 19.55 4.3 19.95 4.2 20.35 3.2 20.35 3.2 20.3 3.2 20.15 3.2 16.95 Q4.15 17.05 4.05 16.15 L4.35 16.15 M15.6 15.85 L15.6 16.05 15.6 17.1 15.6 18.4 15.6 18.5 15.55 18.45 15.45 18.4 14.85 18.45 14.65 18.5 14.6 18.5 14.45 18.5 14.3 18.35 14.25 18.4 14.25 18.45 Q13.85 18.65 13.7 19.1 L13.65 19.1 13.6 19.15 13.55 19.2 13.5 19.45 13.25 19.4 13.25 19.45 Q13.1 19.4 13.1 19.55 L11.1 19.5 11.0 19.55 10.95 18.15 12.7 18.1 12.75 18.1 12.8 17.95 12.75 17.95 12.65 17.9 12.45 17.9 12.55 16.5 12.55 16.45 12.5 16.4 12.4 16.3 12.35 16.35 12.35 16.4 11.85 16.4 11.85 16.35 11.8 16.3 11.75 16.2 11.8 16.2 11.85 16.1 11.85 16.0 11.85 15.9 15.6 15.85" fill="#3c5430" fill-rule="evenodd" stroke="none"/>
      <path d="M27.2 16.8 L27.2 16.7 27.65 16.35 27.85 16.35 27.9 16.55 27.85 16.6 27.85 16.65 28.15 16.9 28.25 16.9 28.35 16.9 30.9 16.95 31.05 16.9 31.15 16.75 31.15 16.7 31.3 16.5 31.4 16.4 31.5 16.4 31.55 16.4 31.6 16.35 31.7 16.45 31.6 19.8 31.5 19.75 31.45 19.7 31.45 19.55 31.4 19.55 31.25 19.4 28.4 19.4 28.25 19.35 28.15 19.35 28.15 19.4 28.1 19.55 28.05 19.55 28.0 19.7 28.0 19.75 27.8 19.8 27.65 19.7 27.2 19.4 27.25 19.35 27.1 18.9 27.05 18.95 27.0 19.0 26.95 18.9 26.9 18.95 26.85 18.95 26.6 18.95 26.25 18.95 18.25 18.9 18.25 18.95 16.0 18.9 16.0 18.7 16.05 18.6 15.95 18.45 15.9 18.35 15.85 18.35 15.85 17.15 26.9 17.1 27.1 17.1 27.1 17.05 27.2 16.9 27.2 16.8 M27.45 17.2 L27.65 17.2 27.75 17.15 27.85 16.95 27.85 16.8 27.8 16.8 27.55 16.7 27.5 16.7 27.25 16.85 27.2 16.95 27.25 17.1 27.15 17.25 27.15 17.35 27.1 17.35 27.05 17.4 26.8 17.4 26.7 17.35 26.7 17.4 26.65 17.4 26.55 17.35 26.5 17.4 26.5 17.35 24.95 17.2 24.8 17.35 24.8 17.4 24.3 17.4 24.05 17.35 24.05 17.4 24.0 17.4 16.05 17.35 16.05 17.4 Q15.95 17.35 15.9 17.45 L15.9 17.5 16.05 17.6 23.95 17.55 24.25 17.65 24.45 17.6 24.45 17.55 25.05 17.55 25.05 17.6 25.25 17.65 25.3 17.6 25.3 17.55 25.5 17.55 25.5 17.65 Q25.6 17.85 25.75 17.65 L25.85 17.75 25.9 17.7 26.05 17.65 26.25 17.65 26.35 17.65 26.4 17.65 26.5 17.65 26.65 17.7 26.85 17.65 27.2 17.65 27.25 17.6 27.4 17.5 27.4 17.4 27.45 17.4 27.45 17.2 M30.9 18.35 L31.25 18.1 31.3 17.95 31.3 17.9 31.35 17.9 31.3 17.85 31.25 17.8 28.85 17.4 28.25 17.55 28.2 17.55 28.15 17.6 28.15 17.65 27.9 17.85 27.8 18.15 27.85 18.15 27.9 18.25 30.55 18.5 29.8 18.7 Q30.55 18.9 31.25 18.35 L31.15 18.25 30.9 18.35 30.7 18.45 30.7 18.35 30.9 18.35 M29.95 17.3 L29.95 17.35 30.05 17.4 31.25 17.35 31.35 17.35 31.4 17.25 31.5 16.85 31.5 16.8 31.4 16.75 31.35 16.8 31.15 17.15 30.6 17.15 30.5 17.0 29.8 17.2 29.95 17.3" fill="#333333" fill-rule="evenodd" stroke="none"/>
      <path d="M27.25 17.1 L27.2 16.95 27.25 16.85 27.5 16.7 27.55 16.7 27.8 16.8 27.85 16.8 27.85 16.95 27.75 17.15 27.65 17.2 27.45 17.2 27.25 17.1 M24.8 17.4 L24.8 17.35 24.95 17.2 26.5 17.35 26.5 17.4 26.55 17.4 26.5 17.5 24.8 17.4 M30.9 18.35 L31.15 18.25 31.25 18.35 Q30.55 18.9 29.8 18.7 L30.55 18.5 30.7 18.45 30.9 18.35 M29.95 17.3 L29.8 17.2 30.5 17.0 30.6 17.15 30.55 17.15 29.95 17.3" fill="#fcfcfc" fill-rule="evenodd" stroke="none"/>
      <path d="M27.45 17.2 L27.45 17.4 27.4 17.4 27.4 17.5 27.25 17.6 27.2 17.65 26.85 17.65 26.65 17.7 26.5 17.65 26.4 17.65 26.35 17.65 26.25 17.65 26.05 17.65 25.9 17.7 25.85 17.75 25.75 17.65 Q25.6 17.85 25.5 17.65 L25.5 17.55 25.3 17.55 25.3 17.6 25.25 17.65 25.05 17.6 25.05 17.55 24.45 17.55 24.45 17.6 24.25 17.65 23.95 17.55 16.05 17.6 15.9 17.5 15.9 17.45 Q15.95 17.35 16.05 17.4 L16.05 17.35 24.0 17.4 24.05 17.4 24.05 17.35 24.3 17.4 24.8 17.4 26.5 17.5 26.55 17.4 26.5 17.4 26.55 17.35 26.65 17.4 26.7 17.4 26.7 17.35 26.8 17.4 27.05 17.4 27.1 17.35 27.15 17.35 27.15 17.25 27.25 17.1 27.45 17.2 M30.6 17.15 L31.15 17.15 31.35 16.8 31.4 16.75 31.5 16.8 31.5 16.85 31.4 17.25 31.35 17.35 31.25 17.35 30.05 17.4 29.95 17.35 29.95 17.3 30.55 17.15 30.6 17.15" fill="#c1c1c1" fill-rule="evenodd" stroke="none"/>
      <path d="M11.0 10.85 L11.0 10.7 11.2 10.7 11.3 10.7 11.85 10.95 Q11.95 11.15 12.2 11.15 L12.2 11.2 11.75 11.65 11.4 11.7 11.35 11.7 11.05 11.7 11.0 11.15 11.2 11.15 11.35 11.1 11.6 11.2 11.7 11.15 11.75 11.1 11.7 11.05 11.3 10.8 11.25 10.85 11.2 10.85 11.0 10.85 M8.35 11.0 L8.4 11.65 8.0 11.65 8.0 10.7 8.35 10.7 8.35 10.8 8.35 10.85 8.2 10.85 8.15 10.85 8.05 10.9 8.05 10.95 8.1 10.95 8.35 11.0 M8.45 12.7 L8.25 12.75 8.45 12.8 8.45 13.6 8.0 13.6 7.95 13.6 8.05 12.5 8.45 12.55 8.45 12.7 M8.45 14.9 L8.45 15.65 7.95 15.65 7.95 15.6 7.9 14.5 8.45 14.55 8.45 14.6 8.35 14.6 8.25 14.65 8.1 14.7 8.05 14.75 8.1 14.85 8.45 14.9 M11.85 12.7 L12.3 12.95 12.3 13.1 12.35 13.1 11.25 13.65 11.2 13.65 11.1 13.7 11.05 13.7 11.05 12.9 11.55 12.8 11.95 12.85 11.85 12.7 M11.1 12.55 L11.2 12.55 11.35 12.45 11.4 12.5 11.65 12.6 11.6 12.6 11.6 12.65 11.55 12.65 11.55 12.7 11.1 12.55 M11.05 14.75 L11.05 14.55 11.1 14.55 12.3 15.1 11.85 15.5 11.4 15.65 11.0 15.65 11.05 15.05 11.05 14.95 11.1 14.95 11.15 14.9 11.25 14.8 11.15 14.75 11.05 14.75 M11.35 14.85 L11.35 14.9 11.8 15.15 11.95 15.15 11.95 15.1 Q11.85 14.75 11.45 14.75 L11.35 14.85" fill="#666666" fill-rule="evenodd" stroke="none"/>
      <path d="M11.0 10.85 L11.2 10.85 11.25 10.85 11.3 10.8 11.7 11.05 11.75 11.1 11.7 11.15 11.6 11.2 11.35 11.1 11.2 11.15 11.0 11.15 11.0 10.85 M8.35 11.0 L8.1 10.95 8.05 10.95 8.05 10.9 8.15 10.85 8.2 10.85 8.35 10.85 8.35 11.0 M8.45 12.7 L8.45 12.8 8.25 12.75 8.45 12.7 M8.45 14.9 L8.1 14.85 8.05 14.75 8.1 14.7 8.25 14.65 8.35 14.6 8.45 14.6 8.45 14.9 M11.85 12.7 L11.95 12.85 11.55 12.8 11.05 12.9 11.05 12.55 11.1 12.55 11.55 12.7 11.55 12.65 11.6 12.65 11.6 12.6 11.65 12.6 11.75 12.65 11.85 12.7 M11.05 14.75 L11.15 14.75 11.25 14.8 11.15 14.9 11.1 14.95 11.05 14.95 11.05 14.75 M11.35 14.85 L11.45 14.75 Q11.85 14.75 11.95 15.1 L11.95 15.15 11.8 15.15 11.35 14.9 11.35 14.85" fill="#e3e3e3" fill-rule="evenodd" stroke="none"/>
      <path d="M10.75 10.5 L10.7 10.7 10.7 10.8 10.7 10.85 10.7 11.15 10.75 11.7 10.75 11.9 10.75 12.25 10.75 12.5 10.8 12.9 10.8 13.6 10.8 13.85 10.8 14.35 10.8 14.55 10.8 14.75 10.8 14.95 10.8 15.65 8.7 15.65 8.7 15.5 8.65 14.9 8.65 14.85 8.65 14.65 8.65 14.55 8.7 14.35 8.7 13.85 8.7 13.6 8.7 12.85 8.7 12.65 8.7 12.55 8.7 12.2 8.7 11.9 8.7 11.65 8.65 11.0 8.65 10.8 8.65 10.7 8.65 10.45 8.65 10.3 10.85 10.25 10.75 10.5 M8.7 21.15 L8.35 20.55 14.3 20.6 14.25 20.75 13.85 21.25 13.85 21.35 13.8 21.65 8.95 21.6 8.95 21.5 8.85 21.4 8.75 21.25 8.7 21.15 M15.6 18.55 L15.65 18.55 15.7 18.6 15.75 18.6 15.75 18.7 15.65 19.35 15.65 19.55 15.65 19.6 15.6 19.65 15.6 20.3 15.55 20.3 15.5 20.35 10.95 20.4 10.95 20.35 11.0 19.65 13.5 19.7 13.55 19.7 13.6 19.65 13.65 19.6 13.7 19.55 13.7 19.5 14.25 18.75 14.65 18.8 14.9 18.85 14.95 18.85 15.3 18.85 15.3 18.7 15.35 18.6 15.55 18.6 15.6 18.6 15.6 18.55" fill="#517212" fill-rule="evenodd" stroke="none"/>
      <path d="M7.55 16.7 L7.55 16.75 7.55 17.3 7.55 17.9 7.45 18.0 7.55 18.15 10.85 18.15 Q10.7 19.25 10.8 20.35 L10.8 20.4 7.15 20.4 7.15 20.15 7.15 20.0 7.15 19.6 7.15 19.4 7.15 17.35 7.15 17.1 7.15 16.7 7.15 16.45 7.1 15.9 7.75 15.9 11.4 15.9 11.45 15.9 11.45 15.95 11.55 16.4 7.85 16.35 7.8 16.3 7.75 16.25 7.75 16.35 7.6 16.4 7.6 16.5 7.7 16.5 7.65 16.7 7.55 16.7" fill="#516123" fill-rule="evenodd" stroke="none"/>
      <path d="M8.2 16.85 L8.3 16.75 8.4 16.75 8.45 16.75 8.5 16.7 8.85 16.7 11.85 16.75 11.95 16.8 11.95 16.85 12.0 16.85 12.05 16.9 12.05 16.95 Q10.05 17.35 8.15 16.95 L8.15 16.9 8.2 16.85" fill="#e7e7e7" fill-rule="evenodd" stroke="none"/>
      <path d="M14.4 21.1 L14.3 21.1 14.5 20.75 14.7 20.75 14.65 21.15 14.5 21.05 14.4 21.05 14.4 21.1" fill="#f9f900" fill-rule="evenodd" stroke="none"/>
    </g>
    <g id="button2" transform="matrix(1.0, 0.0, 0.0, 1.0, 0.5, 0.5)">
      <use height="34.0" transform="matrix(1.0, 0.0, 0.0, 1.0, -0.5, -0.5)" width="34.0" xlink:href="#shape0"/>
      <use height="32.3" transform="matrix(1.0, 0.0, 0.0, 1.0, 0.6, 0.3)" width="32.1" xlink:href="#shape3"/>
    </g>
    <g id="shape3" transform="matrix(1.0, 0.0, 0.0, 1.0, -0.6, -0.3)">
      <path d="M29.85 0.7 L29.7 1.1 29.6 1.25 29.05 2.1 28.6 1.8 28.6 1.45 28.85 0.8 Q28.9 0.35 29.3 0.35 L29.4 0.4 Q29.85 0.1 29.85 0.7 M1.25 2.6 Q0.8 2.6 0.7 2.2 L0.7 1.7 Q0.7 1.15 1.45 0.65 2.2 0.2 2.2 0.95 L1.25 2.6 M1.85 29.35 L1.55 29.85 1.0 30.25 Q0.6 30.25 0.6 29.8 0.6 29.5 0.9 29.25 1.3 28.9 1.8 29.1 L1.85 29.35 M29.95 29.35 L29.8 29.95 29.4 30.25 Q28.95 30.25 28.95 29.8 28.95 29.4 29.45 29.0 29.95 28.55 29.95 29.35" fill="#ff6666" fill-rule="evenodd" stroke="none"/>
      <path d="M32.7 3.95 L32.7 4.35 31.45 4.6 Q30.2 4.6 30.2 4.2 30.2 3.9 30.7 3.65 L31.35 2.95 Q31.15 2.6 31.45 2.15 31.8 1.75 32.3 1.95 L32.7 3.95 M4.2 2.5 Q4.2 4.6 2.45 4.6 L2.05 4.55 Q1.95 4.05 2.1 3.9 L1.7 3.5 Q1.7 3.05 3.35 3.05 L3.9 2.1 Q4.2 1.65 4.2 2.5 M3.6 30.35 Q3.7 30.0 4.3 30.1 L4.35 32.05 Q4.25 32.6 3.75 32.6 L1.6 32.45 Q1.45 32.4 1.45 32.15 2.65 30.7 3.6 30.85 L3.6 30.35 M32.25 32.5 L31.25 32.5 30.25 32.5 29.85 32.05 30.05 31.8 31.3 31.25 31.2 30.65 Q31.2 30.25 31.55 29.8 31.95 29.25 32.25 29.95 L32.45 31.75 32.25 32.5" fill="#660000" fill-rule="evenodd" stroke="none"/>
      <path d="M26.25 12.35 L28.15 12.35 28.15 12.25 28.45 12.25 28.5 12.3 28.5 13.05 29.1 13.0 29.7 13.05 29.7 13.1 29.8 13.1 29.85 13.2 29.85 22.75 29.9 22.9 29.85 23.05 29.6 23.1 28.75 23.1 28.5 23.05 28.5 23.9 28.4 23.95 28.35 24.0 9.35 24.0 9.35 24.05 9.1 24.1 9.1 24.0 6.1 24.0 6.1 23.9 6.0 23.9 6.0 22.8 5.4 22.35 4.9 22.05 4.5 21.75 3.75 21.15 3.4 20.85 3.35 20.85 3.25 20.55 3.35 20.55 3.3 15.5 3.15 15.35 3.15 15.2 Q3.15 14.7 3.4 14.65 L3.35 14.6 Q3.35 14.55 3.9 14.15 L4.55 13.75 5.5 13.3 6.05 13.05 6.05 12.85 Q5.9 12.85 5.9 12.6 5.9 12.15 6.3 12.25 L8.65 12.3 8.65 12.2 8.7 12.05 8.65 12.05 8.6 11.9 Q8.6 11.6 8.9 11.65 L26.35 11.65 26.4 11.85 26.35 12.0 26.25 12.0 26.25 12.35 M25.15 14.3 L25.35 14.3 25.35 14.05 25.3 14.0 25.75 13.1 26.0 12.6 25.95 12.35 25.9 12.25 25.95 12.0 25.7 12.0 25.5 11.95 25.2 12.0 9.85 12.0 9.6 11.9 9.2 12.0 9.0 12.0 9.0 12.15 9.0 12.2 8.95 12.45 9.15 12.9 9.35 13.5 9.45 13.9 9.45 14.2 9.5 14.25 9.55 14.25 9.7 14.75 10.05 15.9 10.3 17.0 23.9 17.0 23.9 16.9 25.15 14.3 M29.45 13.35 L28.5 13.35 28.5 22.75 29.55 22.75 29.55 13.65 29.45 13.4 29.45 13.35 M25.2 17.95 L25.25 16.85 25.3 16.85 25.35 16.7 28.15 16.65 28.2 16.75 28.2 12.75 28.15 12.75 28.15 12.65 26.25 12.65 26.25 12.75 25.1 15.0 24.15 17.35 23.9 17.35 23.9 17.3 10.3 17.35 10.25 17.4 10.0 17.4 9.95 17.3 9.9 17.2 9.95 17.15 9.9 16.75 9.75 16.15 9.0 13.65 8.65 12.65 6.3 12.65 6.3 13.0 6.35 13.15 6.3 13.3 6.3 16.5 7.05 16.5 6.95 16.55 8.05 16.55 9.0 16.65 9.05 16.85 9.1 16.9 9.1 17.95 9.05 18.1 9.1 18.25 9.1 19.3 9.45 19.35 9.85 19.55 9.85 18.85 9.7 18.8 9.7 18.55 9.85 18.5 10.05 18.5 24.35 18.5 24.4 18.65 24.35 18.8 24.35 19.15 24.8 19.15 25.15 19.2 25.2 18.25 25.25 18.25 25.25 17.95 25.2 17.95 M26.1 17.6 L25.85 17.6 25.85 17.25 26.1 17.25 26.15 17.45 26.1 17.6 M25.55 17.8 L25.45 17.8 25.45 18.05 25.5 18.15 25.45 19.4 25.4 19.45 25.0 19.55 24.35 19.5 24.35 20.2 24.3 20.25 24.35 20.25 24.4 20.45 24.35 20.6 10.65 20.65 10.5 20.75 10.25 20.65 9.95 20.6 9.95 20.4 9.9 20.4 9.85 20.35 9.85 19.8 9.75 19.8 9.45 19.7 9.0 19.65 8.85 19.65 8.85 19.6 8.8 19.6 8.8 19.35 8.75 18.45 8.75 18.3 8.85 18.3 8.85 18.05 8.8 18.0 8.8 17.1 8.8 17.0 8.2 17.0 7.25 16.9 6.3 16.8 6.3 17.95 6.2 17.95 6.2 18.2 6.3 18.3 6.3 21.25 6.2 21.4 6.25 21.55 6.3 21.55 6.3 22.35 6.25 22.35 6.25 22.6 6.5 22.75 6.45 22.95 6.25 22.95 6.25 23.7 7.1 23.7 7.15 22.0 9.15 22.1 9.2 22.0 9.35 22.1 9.35 23.7 24.4 23.65 24.35 21.95 24.3 21.8 24.45 21.65 27.1 21.65 27.15 21.75 27.2 21.85 27.2 23.65 28.1 23.65 28.2 23.7 28.2 21.5 28.35 21.5 28.35 21.25 28.2 21.15 28.2 18.15 28.35 18.15 28.35 17.9 28.3 17.85 28.2 17.85 28.2 17.0 25.55 17.0 25.55 17.8 M27.75 17.5 L27.6 17.55 Q27.35 17.55 27.4 17.35 27.4 17.05 27.75 17.2 L27.75 17.5 M27.0 17.55 L26.75 17.6 26.7 17.45 Q26.7 17.2 26.95 17.25 L27.0 17.3 27.0 17.55 M24.0 18.8 L10.15 18.85 10.15 20.25 23.95 20.25 23.95 19.8 24.05 19.8 23.95 19.0 24.0 18.8 M24.65 23.65 L26.9 23.65 26.9 22.05 26.7 22.05 24.65 22.0 24.65 23.65 M7.55 17.15 L7.6 17.2 7.6 17.45 7.45 17.5 7.25 17.2 7.55 17.15 M6.85 17.15 L6.9 17.35 6.85 17.5 6.6 17.5 6.6 17.15 6.85 17.15 M8.35 17.55 L8.15 17.55 8.1 17.5 8.1 17.25 8.35 17.25 8.4 17.4 8.35 17.55 M3.6 15.2 L3.6 20.6 6.0 22.4 6.0 22.1 6.05 22.1 6.05 13.5 4.75 14.05 4.15 14.5 3.6 14.75 3.6 14.8 3.5 15.05 3.6 15.2 M7.45 23.7 L9.1 23.7 9.05 23.05 9.1 22.35 7.45 22.4 7.45 23.7" fill="#000000" fill-rule="evenodd" stroke="none"/>
      <path d="M9.55 14.25 L9.5 14.25 9.45 14.2 9.45 13.9 9.35 13.5 9.15 12.9 8.95 12.45 9.0 12.2 9.0 12.15 9.0 12.0 9.2 12.0 9.6 11.9 9.85 12.0 25.2 12.0 25.5 11.95 25.7 12.0 25.95 12.0 25.9 12.25 25.95 12.35 26.0 12.6 25.75 13.1 25.3 14.0 25.35 14.05 25.35 14.3 25.15 14.3 9.9 14.3 9.75 14.15 9.75 14.2 9.55 14.25 M25.1 12.8 L25.2 12.7 25.25 12.55 25.25 12.25 9.85 12.25 9.85 12.3 9.55 12.6 9.6 12.75 9.65 12.8 9.85 12.85 9.85 12.8 25.1 12.8" fill="#778e60" fill-rule="evenodd" stroke="none"/>
      <path d="M29.45 13.35 L29.45 13.4 29.55 13.65 29.55 22.75 28.5 22.75 28.5 13.35 29.45 13.35 M29.25 14.5 L29.25 13.55 29.2 13.5 29.15 13.5 29.1 13.55 29.0 13.6 28.8 13.6 28.8 13.85 28.7 14.5 28.85 16.9 Q29.2 16.9 29.2 16.65 L29.25 14.7 29.25 14.5 M5.85 14.2 L5.8 14.0 5.2 14.25 5.15 14.3 4.95 14.4 Q4.45 14.6 4.2 14.8 L3.95 15.0 3.9 15.15 3.95 15.3 3.9 15.8 Q3.9 16.75 4.15 16.75 L4.35 16.65 5.6 16.65 5.85 14.6 5.9 14.4 5.85 14.2 M3.6 15.2 L3.5 15.05 3.6 14.8 3.6 14.75 4.15 14.5 4.75 14.05 6.05 13.5 6.05 22.1 6.0 22.1 6.0 22.4 3.6 20.6 3.6 15.2" fill="#333333" fill-rule="evenodd" stroke="none"/>
      <path d="M28.8 13.85 L28.8 13.6 29.0 13.6 29.1 13.55 29.15 13.5 29.2 13.5 29.25 13.55 29.25 14.5 29.1 14.55 28.9 14.25 28.8 13.9 28.8 13.85 M5.15 14.3 L5.7 14.15 5.85 14.2 5.9 14.4 5.85 14.6 5.5 14.85 4.95 15.0 4.5 15.25 4.2 15.2 3.95 15.3 3.9 15.15 3.95 15.0 4.2 14.8 Q4.45 14.6 4.95 14.4 L5.15 14.3" fill="#cccccc" fill-rule="evenodd" stroke="none"/>
      <path d="M9.1 17.95 L9.1 16.9 9.05 16.85 9.0 16.65 8.05 16.55 6.95 16.55 7.05 16.5 6.3 16.5 6.3 13.3 6.35 13.15 6.3 13.0 6.3 12.65 8.65 12.65 9.0 13.65 9.75 16.15 9.9 16.75 9.95 17.15 9.9 17.2 9.95 17.3 10.0 17.4 10.25 17.4 10.3 17.35 23.9 17.3 23.9 17.35 24.15 17.35 25.1 15.0 26.25 12.75 26.25 12.65 28.15 12.65 28.15 12.75 28.2 12.75 28.2 16.75 28.15 16.65 25.35 16.7 25.3 16.85 25.25 16.85 25.2 17.95 25.15 17.9 9.1 17.95 M26.1 17.6 L26.15 17.45 26.1 17.25 25.85 17.25 25.85 17.6 26.1 17.6 M25.55 17.8 L25.55 17.0 28.2 17.0 28.2 17.85 25.55 17.8 M6.3 17.95 L6.3 16.8 7.25 16.9 8.2 17.0 8.8 17.0 8.8 17.1 8.8 18.0 6.5 18.0 6.3 17.95 M27.0 17.55 L27.0 17.3 26.95 17.25 Q26.7 17.2 26.7 17.45 L26.75 17.6 27.0 17.55 M27.75 17.5 L27.75 17.2 Q27.4 17.05 27.4 17.35 27.35 17.55 27.6 17.55 L27.75 17.5 M8.35 17.55 L8.4 17.4 8.35 17.25 8.1 17.25 8.1 17.5 8.15 17.55 8.35 17.55 M6.85 17.15 L6.6 17.15 6.6 17.5 6.85 17.5 6.9 17.35 6.85 17.15 M7.55 17.15 L7.25 17.2 7.45 17.5 7.6 17.45 7.6 17.2 7.55 17.15" fill="#5b6938" fill-rule="evenodd" stroke="none"/>
      <path d="M29.25 14.5 L29.25 14.7 29.2 16.65 Q29.2 16.9 28.85 16.9 L28.7 14.5 28.8 13.85 28.8 13.9 28.9 14.25 29.1 14.55 29.25 14.5 M5.85 14.2 L5.7 14.15 5.15 14.3 5.2 14.25 5.8 14.0 5.85 14.2 M3.95 15.3 L4.2 15.2 4.5 15.25 4.95 15.0 5.5 14.85 5.85 14.6 5.6 16.65 4.35 16.65 4.15 16.75 Q3.9 16.75 3.9 15.8 L3.95 15.3" fill="#7b7b7b" fill-rule="evenodd" stroke="none"/>
      <path d="M9.1 17.95 L25.15 17.9 25.2 17.95 25.25 17.95 25.25 18.25 25.2 18.25 25.15 19.2 24.8 19.15 24.35 19.15 24.35 18.8 24.4 18.65 24.35 18.5 10.05 18.5 9.85 18.5 9.7 18.55 9.7 18.8 9.85 18.85 9.85 19.55 9.45 19.35 9.1 19.3 9.1 18.25 9.05 18.1 9.1 17.95 M8.8 18.0 L8.85 18.05 8.85 18.3 8.75 18.3 8.75 18.45 8.8 19.35 8.8 19.6 8.85 19.6 8.85 19.65 9.0 19.65 9.45 19.7 9.75 19.8 9.85 19.8 9.85 20.35 9.9 20.4 9.95 20.4 9.95 20.6 10.25 20.65 10.5 20.75 10.65 20.65 24.35 20.6 24.4 20.45 24.35 20.25 24.3 20.25 24.35 20.2 24.35 19.5 25.0 19.55 25.4 19.45 25.45 19.4 25.5 18.15 25.45 18.05 25.45 17.8 25.55 17.8 28.2 17.85 28.3 17.85 28.35 17.9 28.35 18.15 28.2 18.15 28.2 21.15 17.35 21.15 6.4 21.2 6.3 21.25 6.3 18.3 6.2 18.2 6.2 17.95 6.3 17.95 6.5 18.0 8.8 18.0" fill="#434e29" fill-rule="evenodd" stroke="none"/>
      <path d="M25.1 12.8 L9.85 12.8 9.85 12.85 9.65 12.8 9.6 12.75 9.55 12.6 9.85 12.3 9.85 12.25 25.25 12.25 25.25 12.55 25.2 12.7 25.1 12.8" fill="#c9d2bd" fill-rule="evenodd" stroke="none"/>
      <path d="M25.15 14.3 L23.9 16.9 23.9 17.0 10.3 17.0 10.05 15.9 9.7 14.75 9.55 14.25 9.75 14.2 9.75 14.15 9.9 14.3 25.15 14.3" fill="#3e4d33" fill-rule="evenodd" stroke="none"/>
      <path d="M24.0 18.8 L23.95 19.0 24.05 19.8 23.95 19.8 23.95 20.25 10.15 20.25 10.15 18.85 24.0 18.8" fill="#a9a801" fill-rule="evenodd" stroke="none"/>
      <path d="M28.2 21.15 L28.35 21.25 28.35 21.5 28.2 21.5 28.2 23.7 28.1 23.65 27.2 23.65 27.2 21.85 27.15 21.75 27.1 21.65 24.45 21.65 24.3 21.8 24.35 21.95 24.4 23.65 9.35 23.7 9.35 22.1 9.2 22.0 9.15 22.1 7.15 22.0 7.1 23.7 6.25 23.7 6.25 22.95 6.45 22.95 6.5 22.75 6.25 22.6 6.25 22.35 6.3 22.35 6.3 21.55 6.25 21.55 6.2 21.4 6.3 21.25 6.4 21.2 17.35 21.15 28.2 21.15" fill="#272d17" fill-rule="evenodd" stroke="none"/>
      <path d="M24.65 23.65 L24.65 22.0 26.7 22.05 26.9 22.05 26.9 23.65 24.65 23.65 M7.45 23.7 L7.45 22.4 9.1 22.35 9.05 23.05 9.1 23.7 7.45 23.7" fill="#1a1a1a" fill-rule="evenodd" stroke="none"/>
    </g>
    <g id="button3" transform="matrix(1.0, 0.0, 0.0, 1.0, 0.5, 0.5)">
      <use height="34.0" transform="matrix(1.0, 0.0, 0.0, 1.0, -0.5, -0.5)" width="34.0" xlink:href="#shape0"/>
      <use height="32.3" transform="matrix(1.0, 0.0, 0.0, 1.0, 0.6, 0.3)" width="32.1" xlink:href="#shape4"/>
    </g>
    <g id="shape4" transform="matrix(1.0, 0.0, 0.0, 1.0, -0.6, -0.3)">
      <path d="M29.85 0.7 L29.7 1.1 29.6 1.25 29.05 2.1 28.6 1.8 28.6 1.45 28.85 0.8 Q28.9 0.35 29.3 0.35 L29.4 0.4 Q29.85 0.1 29.85 0.7 M1.25 2.6 Q0.8 2.6 0.7 2.2 L0.7 1.7 Q0.7 1.15 1.45 0.65 2.2 0.2 2.2 0.95 L1.25 2.6 M1.85 29.35 L1.55 29.85 1.0 30.25 Q0.6 30.25 0.6 29.8 0.6 29.5 0.9 29.25 1.3 28.9 1.8 29.1 L1.85 29.35 M29.95 29.35 L29.8 29.95 29.4 30.25 Q28.95 30.25 28.95 29.8 28.95 29.4 29.45 29.0 29.95 28.55 29.95 29.35" fill="#ff6666" fill-rule="evenodd" stroke="none"/>
      <path d="M32.7 3.95 L32.7 4.35 31.45 4.6 Q30.2 4.6 30.2 4.2 30.2 3.9 30.7 3.65 L31.35 2.95 Q31.15 2.6 31.45 2.15 31.8 1.75 32.3 1.95 L32.7 3.95 M4.2 2.5 Q4.2 4.6 2.45 4.6 L2.05 4.55 Q1.95 4.05 2.1 3.9 L1.7 3.5 Q1.7 3.05 3.35 3.05 L3.9 2.1 Q4.2 1.65 4.2 2.5 M3.6 30.35 Q3.7 30.0 4.3 30.1 L4.35 32.05 Q4.25 32.6 3.75 32.6 L1.6 32.45 Q1.45 32.4 1.45 32.15 2.65 30.7 3.6 30.85 L3.6 30.35 M32.25 32.5 L31.25 32.5 30.25 32.5 29.85 32.05 30.05 31.8 31.3 31.25 31.2 30.65 Q31.2 30.25 31.55 29.8 31.95 29.25 32.25 29.95 L32.45 31.75 32.25 32.5" fill="#660000" fill-rule="evenodd" stroke="none"/>
      <path d="M28.85 14.3 L28.9 14.35 28.95 14.45 28.95 14.5 28.95 17.4 29.0 17.45 28.95 17.45 28.95 17.5 28.85 17.55 28.4 17.4 28.45 17.3 28.45 17.25 26.05 17.2 Q25.95 17.3 26.0 17.35 L26.0 17.45 25.5 17.55 25.5 17.5 25.4 17.45 25.35 17.4 25.3 17.35 25.3 17.3 25.05 17.15 25.0 17.15 24.9 17.15 24.8 17.0 24.7 16.9 24.25 16.8 24.15 16.8 24.05 16.85 23.95 16.75 23.5 16.8 23.5 16.75 23.3 16.75 17.6 16.8 16.2 16.85 16.2 18.4 24.8 18.45 24.8 18.35 24.75 18.35 24.8 18.3 24.85 18.15 25.3 17.8 25.35 17.8 25.4 17.75 25.75 17.75 25.8 17.75 25.8 17.8 25.85 17.85 25.9 17.85 25.95 18.0 25.9 18.0 25.9 18.05 26.0 18.05 26.15 18.2 26.1 18.2 26.05 18.25 26.1 18.25 26.25 18.25 26.8 18.3 27.15 18.3 27.8 18.3 27.9 18.3 27.9 18.25 28.25 18.1 28.35 18.05 28.35 18.0 28.55 17.75 28.8 17.8 28.85 17.8 28.9 17.85 28.95 17.95 28.95 18.0 28.95 20.9 29.0 20.95 28.95 20.95 28.95 21.0 28.85 21.05 28.4 20.9 28.45 20.8 28.45 20.75 26.05 20.7 Q25.95 20.8 26.0 20.85 L26.0 20.95 25.5 21.05 25.5 21.0 25.4 20.95 25.35 20.9 25.3 20.85 25.3 20.8 25.05 20.65 25.0 20.65 24.9 20.65 24.8 20.5 24.7 20.4 24.25 20.3 24.15 20.3 24.05 20.35 23.95 20.25 23.5 20.3 23.5 20.25 23.3 20.25 17.6 20.3 16.2 20.35 16.2 21.0 14.9 21.0 14.9 21.1 14.25 22.2 8.6 22.2 8.3 22.15 7.75 22.2 7.45 21.9 5.6 21.9 5.45 21.9 Q5.15 21.9 5.05 21.7 L4.9 21.25 4.85 21.05 4.8 20.95 4.65 20.6 4.65 20.5 3.8 20.5 3.7 15.1 3.8 14.95 3.95 14.95 4.55 14.95 4.55 14.8 4.9 13.75 5.05 13.2 5.35 12.85 5.35 12.8 7.55 12.85 7.7 12.7 7.75 12.65 13.1 12.65 13.35 12.55 13.8 12.6 13.8 12.5 14.05 12.75 14.2 13.1 14.35 13.45 14.45 13.45 14.7 13.8 14.7 14.1 14.75 14.1 15.55 14.1 15.55 14.05 15.6 14.1 16.05 14.1 16.15 14.1 16.2 14.2 16.25 14.35 16.2 14.75 16.2 14.9 24.8 14.95 24.8 14.85 24.75 14.85 24.8 14.8 24.85 14.65 25.3 14.3 25.35 14.3 25.4 14.25 25.75 14.25 25.8 14.25 25.8 14.3 25.85 14.35 25.9 14.35 25.95 14.5 25.9 14.5 25.9 14.55 26.0 14.55 26.15 14.7 26.1 14.7 26.05 14.75 26.1 14.75 26.25 14.75 26.8 14.8 27.15 14.8 27.8 14.8 27.9 14.8 27.9 14.75 28.25 14.6 28.35 14.55 28.35 14.5 28.55 14.25 28.8 14.3 28.85 14.3 M28.55 14.55 L28.55 14.6 28.4 14.75 28.4 14.8 28.35 14.9 28.2 14.95 26.05 14.9 25.9 14.9 25.65 14.7 25.7 14.65 25.65 14.45 25.5 14.45 25.15 14.8 25.1 14.85 25.1 14.9 25.05 15.05 25.05 15.1 24.85 15.1 16.2 15.1 16.0 15.1 15.7 15.1 15.6 15.05 14.95 15.1 14.9 15.75 14.9 16.7 15.05 16.75 15.15 16.7 15.45 16.6 15.45 16.45 15.45 16.3 15.45 16.2 15.5 16.15 15.55 16.1 15.6 16.15 15.7 16.15 15.8 16.6 16.0 16.6 16.2 16.6 17.65 16.65 17.65 16.6 24.3 16.65 24.6 16.65 24.8 16.65 24.85 16.65 24.9 16.6 24.95 16.65 25.0 16.65 25.05 16.6 25.15 17.0 25.5 17.25 25.6 17.3 25.8 17.3 25.8 17.25 25.8 17.15 25.85 17.1 25.9 17.0 26.0 16.95 26.15 17.0 28.5 17.0 28.6 17.1 28.65 17.15 28.65 17.25 28.65 17.3 28.8 17.3 Q28.75 15.9 28.85 14.55 L28.8 14.5 28.8 14.45 28.75 14.5 28.65 14.5 28.6 14.5 28.55 14.55 M27.9 16.25 L25.7 16.05 25.65 16.0 25.6 16.0 25.7 15.7 25.9 15.55 25.9 15.5 25.95 15.45 26.0 15.45 26.5 15.35 28.5 15.65 28.55 15.7 28.55 15.8 28.5 15.9 28.2 16.1 28.0 16.15 28.0 16.2 27.9 16.25 M26.05 15.65 L25.85 15.8 25.8 15.8 25.8 15.9 25.85 15.95 25.85 16.0 28.2 15.9 28.25 15.85 Q28.1 15.65 27.7 15.65 L26.45 15.55 26.4 15.6 26.15 15.6 26.05 15.65 M25.65 17.95 L25.5 17.95 25.15 18.3 25.1 18.35 25.1 18.4 25.05 18.55 25.05 18.6 24.85 18.6 16.2 18.6 16.0 18.6 15.7 18.6 15.6 18.55 15.1 18.6 14.95 18.6 14.9 19.25 14.9 20.2 15.05 20.25 Q15.2 20.05 15.45 20.1 L15.45 19.8 15.45 19.7 15.5 19.65 15.55 19.6 15.6 19.65 15.7 19.65 15.8 20.1 16.0 20.1 16.2 20.1 17.65 20.15 17.65 20.1 24.3 20.15 24.6 20.15 24.8 20.15 24.85 20.15 24.9 20.1 24.95 20.15 25.0 20.15 25.05 20.1 25.15 20.5 25.5 20.75 25.6 20.8 25.8 20.8 25.8 20.75 25.8 20.65 25.85 20.6 25.9 20.5 26.0 20.45 26.15 20.5 28.5 20.5 28.6 20.6 28.65 20.65 28.65 20.75 28.65 20.8 28.8 20.8 Q28.75 19.4 28.85 18.05 L28.8 18.0 28.8 17.95 28.75 18.0 28.65 18.0 28.6 18.0 28.55 18.05 28.55 18.1 28.4 18.25 28.4 18.3 28.35 18.4 28.2 18.45 26.05 18.4 25.9 18.4 25.65 18.2 25.7 18.15 25.65 17.95 M25.1 17.0 L25.1 17.05 25.15 17.0 25.1 17.0 M25.15 20.5 L25.1 20.5 25.1 20.55 25.15 20.5 M27.9 19.75 L25.7 19.55 25.65 19.5 25.6 19.5 25.7 19.2 25.9 19.05 25.9 19.0 25.95 18.95 26.0 18.95 26.5 18.85 28.5 19.15 28.55 19.2 28.55 19.3 28.5 19.4 28.2 19.6 28.0 19.65 28.0 19.7 27.9 19.75 M28.25 19.35 Q28.1 19.15 27.7 19.15 L26.45 19.05 26.4 19.1 26.15 19.1 26.05 19.15 25.85 19.3 25.8 19.3 25.8 19.4 25.85 19.45 25.85 19.5 28.2 19.4 28.25 19.35 M7.95 12.9 L7.8 12.9 6.9 13.9 5.95 15.1 5.9 15.1 5.9 15.15 4.0 15.2 4.0 20.25 6.25 20.25 6.3 20.3 6.75 20.75 7.45 21.5 7.65 21.7 7.85 21.95 14.0 21.95 14.0 22.05 14.45 21.35 14.55 21.1 14.55 21.05 14.5 21.05 14.5 14.2 14.35 13.95 14.25 13.9 14.25 13.8 14.15 13.65 14.0 13.35 13.8 12.8 13.3 12.8 13.3 12.9 7.95 12.9 M7.4 13.05 L5.55 13.0 5.35 13.2 5.2 13.45 5.1 14.0 4.9 14.55 4.8 14.95 5.75 14.95 5.75 14.85 6.0 14.65 6.25 14.35 6.7 13.8 7.3 13.25 7.4 13.05 M6.4 16.9 L6.45 17.25 6.45 18.05 6.55 18.05 8.2 18.05 10.85 18.25 11.55 18.5 Q11.85 18.5 11.75 18.6 L11.8 18.7 12.35 18.85 12.7 19.05 12.8 17.4 12.65 16.0 11.1 16.4 10.55 16.55 8.4 16.75 7.3 16.8 6.4 16.75 6.4 16.9 M6.9 16.55 L7.3 16.55 8.4 16.55 9.85 16.35 11.15 16.15 11.55 16.0 12.15 15.9 12.3 15.85 5.4 15.85 6.2 16.6 6.2 16.5 6.45 16.5 6.9 16.55 M5.45 15.6 L12.7 15.65 12.8 15.65 13.0 16.65 12.9 19.15 12.9 19.3 12.9 19.4 5.5 19.45 5.3 19.4 5.25 19.4 5.05 19.5 5.05 15.65 5.15 15.75 Q5.2 15.6 5.45 15.6 M5.3 16.1 L5.25 16.55 5.25 18.6 5.3 19.1 5.4 18.95 6.1 18.35 6.2 18.2 6.2 16.85 5.6 16.3 5.3 16.1 M6.45 18.3 L5.85 18.85 5.55 19.15 12.55 19.15 12.15 19.0 11.7 18.85 11.3 18.7 10.15 18.4 9.6 18.3 6.45 18.3 M5.25 21.5 L5.9 21.6 5.95 21.7 7.25 21.7 7.15 21.6 6.9 21.25 6.65 21.0 6.1 20.5 4.9 20.5 5.1 21.05 5.25 21.5 M15.9 14.35 L15.65 14.35 15.65 14.75 15.7 14.8 15.75 14.8 15.9 14.85 15.9 14.9 16.0 14.9 15.9 14.4 15.9 14.35 M15.45 14.35 L14.7 14.35 14.7 15.8 14.75 15.1 14.8 14.9 15.35 14.8 14.9 14.8 14.9 14.6 15.15 14.55 15.45 14.6 15.45 14.35 M15.7 16.9 L15.65 17.3 15.65 17.35 15.5 17.35 15.5 17.15 15.45 17.1 15.45 16.95 14.8 16.9 14.7 16.65 14.7 19.3 14.75 18.6 14.8 18.4 15.35 18.3 15.35 18.25 15.4 18.2 15.45 18.2 15.55 17.6 15.55 17.55 15.6 17.6 15.6 17.65 15.65 18.25 15.7 18.3 15.75 18.3 15.9 18.35 15.9 18.4 16.0 18.4 16.0 16.85 15.8 16.8 15.75 16.9 15.7 16.9 M11.7 16.95 L11.8 17.3 11.8 17.7 11.7 17.75 Q11.55 17.75 11.55 17.4 L11.45 17.1 11.55 16.95 11.7 16.95 M14.7 20.15 L14.7 20.7 14.85 20.75 14.9 20.7 14.9 20.75 15.5 20.8 15.5 20.65 15.45 20.6 15.45 20.5 15.3 20.5 15.1 20.45 14.8 20.4 14.7 20.15 M16.0 20.35 L15.8 20.3 15.75 20.4 15.7 20.4 15.65 20.8 16.0 20.8 16.0 20.35" fill="#000000" fill-rule="evenodd" stroke="none"/>
      <path d="M7.95 12.9 L13.3 12.9 13.3 12.8 13.8 12.8 14.0 13.35 14.15 13.65 14.25 13.8 14.25 13.9 14.35 13.95 14.5 14.2 14.5 21.05 14.55 21.05 14.55 21.1 14.45 21.35 14.0 22.05 14.0 21.95 7.85 21.95 7.65 21.7 7.45 21.5 6.75 20.75 6.3 20.3 6.25 20.25 4.0 20.25 4.0 15.2 5.9 15.15 5.9 15.1 5.95 15.1 6.9 13.9 7.8 12.9 7.95 12.9 M5.45 15.6 Q5.2 15.6 5.15 15.75 L5.05 15.65 5.05 19.5 5.25 19.4 5.3 19.4 5.5 19.45 12.9 19.4 12.9 19.3 12.9 19.15 13.0 16.65 12.8 15.65 12.7 15.65 5.45 15.6" fill="#3e4d33" fill-rule="evenodd" stroke="none"/>
      <path d="M7.4 13.05 L7.3 13.25 6.7 13.8 6.25 14.35 6.0 14.65 5.75 14.85 5.75 14.95 4.8 14.95 4.9 14.55 5.1 14.0 5.2 13.45 5.35 13.2 5.55 13.0 7.4 13.05 M5.25 21.5 L5.1 21.05 4.9 20.5 6.1 20.5 6.65 21.0 6.9 21.25 7.15 21.6 7.25 21.7 5.95 21.7 5.9 21.6 5.25 21.5" fill="#6b623f" fill-rule="evenodd" stroke="none"/>
      <path d="M6.9 16.55 L6.45 16.5 6.2 16.5 6.2 16.6 5.4 15.85 12.3 15.85 12.15 15.9 11.55 16.0 11.15 16.15 9.85 16.35 8.4 16.55 7.3 16.55 6.9 16.55 M6.4 16.9 L6.4 16.75 7.3 16.8 8.4 16.75 10.55 16.55 11.1 16.4 12.65 16.0 12.8 17.4 12.7 19.05 12.35 18.85 11.8 18.7 11.75 18.6 Q11.85 18.5 11.55 18.5 L10.85 18.25 8.2 18.05 6.55 18.05 6.45 18.05 6.45 17.25 6.4 16.9 M11.7 16.95 L11.55 16.95 11.45 17.1 11.55 17.4 Q11.55 17.75 11.7 17.75 L11.8 17.7 11.8 17.3 11.7 16.95" fill="#8ca77a" fill-rule="evenodd" stroke="none"/>
      <path d="M6.45 18.3 L9.6 18.3 10.15 18.4 11.3 18.7 11.7 18.85 12.15 19.0 12.55 19.15 5.55 19.15 5.85 18.85 6.45 18.3 M5.3 16.1 L5.6 16.3 6.2 16.85 6.2 18.2 6.1 18.35 5.4 18.95 5.3 19.1 5.25 18.6 5.25 16.55 5.3 16.1" fill="#668055" fill-rule="evenodd" stroke="none"/>
      <path d="M15.7 16.9 L15.75 16.9 15.8 16.8 16.0 16.85 16.0 18.4 15.9 18.4 15.9 18.35 15.75 18.3 15.7 18.3 15.65 18.25 15.6 17.65 15.6 17.6 15.55 17.55 15.55 17.6 15.45 18.2 15.4 18.2 15.35 18.25 15.35 18.3 14.8 18.4 14.75 18.6 14.7 19.3 14.7 16.65 14.8 16.9 15.45 16.95 15.45 17.1 15.5 17.15 15.5 17.35 15.65 17.35 15.65 17.3 15.7 16.9 M15.45 14.35 L15.45 14.6 15.15 14.55 14.9 14.6 14.9 14.8 15.35 14.8 14.8 14.9 14.75 15.1 14.7 15.8 14.7 14.35 15.45 14.35 M15.9 14.35 L15.9 14.4 16.0 14.9 15.9 14.9 15.9 14.85 15.75 14.8 15.7 14.8 15.65 14.75 15.65 14.35 15.9 14.35 M16.0 20.35 L16.0 20.8 15.65 20.8 15.7 20.4 15.75 20.4 15.8 20.3 16.0 20.35 M14.7 20.15 L14.8 20.4 15.1 20.45 15.3 20.5 15.45 20.5 15.45 20.6 15.5 20.65 15.5 20.8 14.9 20.75 14.9 20.7 14.85 20.75 14.7 20.7 14.7 20.15" fill="#999999" fill-rule="evenodd" stroke="none"/>
      <path d="M28.55 14.55 L28.6 14.5 28.65 14.5 28.75 14.5 28.8 14.45 28.8 14.5 28.85 14.55 Q28.75 15.9 28.8 17.3 L28.65 17.3 28.65 17.25 28.65 17.15 28.6 17.1 28.5 17.0 26.15 17.0 26.0 16.95 25.9 17.0 25.85 17.1 25.8 17.15 25.8 17.25 25.8 17.3 25.6 17.3 25.5 17.25 25.15 17.0 25.05 16.6 25.0 16.65 24.95 16.65 24.9 16.6 24.85 16.65 24.8 16.65 24.6 16.65 24.3 16.65 17.65 16.6 17.65 16.65 16.2 16.6 16.0 16.6 15.8 16.6 15.7 16.15 15.6 16.15 15.55 16.1 15.5 16.15 15.45 16.2 15.45 16.3 15.45 16.45 15.45 16.6 15.15 16.7 15.05 16.75 14.9 16.7 14.9 15.75 14.95 15.1 15.6 15.05 15.7 15.1 16.0 15.1 16.2 15.1 24.85 15.1 25.05 15.1 25.05 15.05 25.1 14.9 25.1 14.85 25.15 14.8 25.5 14.45 25.65 14.45 25.7 14.65 25.65 14.7 25.9 14.9 26.05 14.9 28.2 14.95 28.35 14.9 28.4 14.8 28.4 14.75 28.55 14.6 28.55 14.55 M27.4 15.25 L27.4 15.3 27.5 15.35 28.5 15.3 28.55 15.3 28.6 15.25 28.65 14.9 28.65 14.85 28.6 14.8 28.55 14.85 28.4 15.1 28.4 15.15 27.9 15.15 27.95 15.1 27.85 15.0 Q27.5 15.05 27.25 15.2 L27.4 15.25 M25.35 15.2 L25.5 15.2 25.6 15.1 25.65 15.0 25.65 14.85 25.6 14.85 25.4 14.75 25.35 14.8 25.15 14.9 25.15 15.0 25.15 15.1 25.05 15.25 25.05 15.3 25.0 15.35 24.8 15.35 24.7 15.3 24.7 15.35 24.65 15.35 24.6 15.3 24.55 15.35 24.55 15.3 23.25 15.2 23.15 15.3 23.15 15.35 22.75 15.35 22.5 15.3 22.5 15.35 22.45 15.35 16.2 15.3 16.0 15.3 15.85 15.3 15.85 15.35 15.75 15.4 15.75 15.45 15.85 15.5 16.0 15.5 16.2 15.5 22.4 15.45 22.65 15.55 22.85 15.5 22.85 15.45 23.35 15.45 23.35 15.5 23.5 15.55 23.55 15.5 23.55 15.45 23.7 15.45 23.7 15.55 23.9 15.55 24.0 15.65 24.05 15.6 24.15 15.55 24.35 15.55 24.45 15.55 24.55 15.55 24.65 15.6 24.8 15.55 25.15 15.55 25.15 15.5 25.25 15.45 25.25 15.35 25.3 15.35 25.35 15.2 M28.0 16.2 L28.0 16.15 28.2 16.1 28.5 15.9 28.55 15.8 28.55 15.7 28.5 15.65 26.5 15.35 26.0 15.45 25.95 15.45 25.9 15.5 25.9 15.55 25.7 15.7 25.6 16.0 25.65 16.0 25.7 16.05 27.9 16.25 27.25 16.45 Q27.9 16.6 28.5 16.15 L28.4 16.05 28.0 16.2 M25.65 17.95 L25.7 18.15 25.65 18.2 25.9 18.4 26.05 18.4 28.2 18.45 28.35 18.4 28.4 18.3 28.4 18.25 28.55 18.1 28.55 18.05 28.6 18.0 28.65 18.0 28.75 18.0 28.8 17.95 28.8 18.0 28.85 18.05 Q28.75 19.4 28.8 20.8 L28.65 20.8 28.65 20.75 28.65 20.65 28.6 20.6 28.5 20.5 26.15 20.5 26.0 20.45 25.9 20.5 25.85 20.6 25.8 20.65 25.8 20.75 25.8 20.8 25.6 20.8 25.5 20.75 25.15 20.5 25.05 20.1 25.0 20.15 24.95 20.15 24.9 20.1 24.85 20.15 24.8 20.15 24.6 20.15 24.3 20.15 17.65 20.1 17.65 20.15 16.2 20.1 16.0 20.1 15.8 20.1 15.7 19.65 15.6 19.65 15.55 19.6 15.5 19.65 15.45 19.7 15.45 19.8 15.45 20.1 Q15.2 20.05 15.05 20.25 L14.9 20.2 14.9 19.25 14.95 18.6 15.1 18.6 15.6 18.55 15.7 18.6 16.0 18.6 16.2 18.6 24.85 18.6 25.05 18.6 25.05 18.55 25.1 18.4 25.1 18.35 25.15 18.3 25.5 17.95 25.65 17.95 M25.35 18.7 L25.5 18.7 25.6 18.6 25.65 18.5 25.65 18.35 25.6 18.35 25.4 18.25 25.35 18.3 25.15 18.4 25.15 18.5 25.15 18.6 25.05 18.75 25.05 18.8 25.0 18.85 24.8 18.85 24.7 18.8 24.7 18.85 24.65 18.85 24.6 18.8 24.55 18.85 24.55 18.8 23.25 18.7 23.15 18.8 23.15 18.85 22.75 18.85 22.5 18.8 22.5 18.85 22.45 18.85 16.2 18.8 16.0 18.8 15.85 18.8 15.85 18.85 15.75 18.9 15.75 18.95 15.85 19.0 16.0 19.0 16.2 19.0 22.4 18.95 22.65 19.05 22.85 19.0 22.85 18.95 23.35 18.95 23.35 19.0 23.5 19.05 23.55 19.0 23.55 18.95 23.7 18.95 23.7 19.05 23.9 19.05 24.0 19.15 24.05 19.1 24.15 19.05 24.35 19.05 24.45 19.05 24.55 19.05 24.65 19.1 24.8 19.05 25.15 19.05 25.15 19.0 25.25 18.95 25.25 18.85 25.3 18.85 25.35 18.7 M27.4 18.75 L27.4 18.8 27.5 18.85 28.5 18.8 28.55 18.8 28.6 18.75 28.65 18.4 28.65 18.35 28.6 18.3 28.55 18.35 28.4 18.6 28.4 18.65 27.9 18.65 27.95 18.6 27.85 18.5 Q27.5 18.55 27.25 18.7 L27.4 18.75 M23.9 15.45 L23.95 15.45 23.9 15.5 23.9 15.45 M25.1 17.0 L25.15 17.0 25.1 17.05 25.1 17.0 M23.9 18.95 L23.95 18.95 23.9 19.0 23.9 18.95 M28.0 19.7 L28.0 19.65 28.2 19.6 28.5 19.4 28.55 19.3 28.55 19.2 28.5 19.15 26.5 18.85 26.0 18.95 25.95 18.95 25.9 19.0 25.9 19.05 25.7 19.2 25.6 19.5 25.65 19.5 25.7 19.55 27.9 19.75 27.25 19.95 Q27.9 20.1 28.5 19.65 L28.4 19.55 28.0 19.7 M25.15 20.5 L25.1 20.55 25.1 20.5 25.15 20.5" fill="#333333" fill-rule="evenodd" stroke="none"/>
      <path d="M27.4 15.25 L27.25 15.2 Q27.5 15.05 27.85 15.0 L27.95 15.1 27.9 15.15 27.4 15.25 M25.15 15.1 L25.15 15.0 25.15 14.9 25.35 14.8 25.4 14.75 25.6 14.85 25.65 14.85 25.65 15.0 25.6 15.1 25.5 15.2 25.35 15.2 25.15 15.1 M23.15 15.35 L23.15 15.3 23.25 15.2 24.55 15.3 24.55 15.35 24.6 15.35 24.55 15.45 23.15 15.35 M28.0 16.2 L28.4 16.05 28.5 16.15 Q27.9 16.6 27.25 16.45 L27.9 16.25 28.0 16.2 M25.15 18.6 L25.15 18.5 25.15 18.4 25.35 18.3 25.4 18.25 25.6 18.35 25.65 18.35 25.65 18.5 25.6 18.6 25.5 18.7 25.35 18.7 25.15 18.6 M23.15 18.85 L23.15 18.8 23.25 18.7 24.55 18.8 24.55 18.85 24.6 18.85 24.55 18.95 23.15 18.85 M27.4 18.75 L27.25 18.7 Q27.5 18.55 27.85 18.5 L27.95 18.6 27.9 18.65 27.4 18.75 M28.0 19.7 L28.4 19.55 28.5 19.65 Q27.9 20.1 27.25 19.95 L27.9 19.75 28.0 19.7" fill="#fcfcfc" fill-rule="evenodd" stroke="none"/>
      <path d="M27.9 15.15 L28.4 15.15 28.4 15.1 28.55 14.85 28.6 14.8 28.65 14.85 28.65 14.9 28.6 15.25 28.55 15.3 28.5 15.3 27.5 15.35 27.4 15.3 27.4 15.25 27.9 15.15 M25.35 15.2 L25.3 15.35 25.25 15.35 25.25 15.45 25.15 15.5 25.15 15.55 24.8 15.55 24.65 15.6 24.55 15.55 24.45 15.55 24.35 15.55 24.15 15.55 24.05 15.6 24.0 15.65 23.9 15.55 23.7 15.55 23.7 15.45 23.55 15.45 23.55 15.5 23.5 15.55 23.35 15.5 23.35 15.45 22.85 15.45 22.85 15.5 22.65 15.55 22.4 15.45 16.2 15.5 16.0 15.5 15.85 15.5 15.75 15.45 15.75 15.4 15.85 15.35 15.85 15.3 16.0 15.3 16.2 15.3 22.45 15.35 22.5 15.35 22.5 15.3 22.75 15.35 23.15 15.35 24.55 15.45 24.6 15.35 24.55 15.35 24.6 15.3 24.65 15.35 24.7 15.35 24.7 15.3 24.8 15.35 25.0 15.35 25.05 15.3 25.05 15.25 25.15 15.1 25.35 15.2 M25.35 18.7 L25.3 18.85 25.25 18.85 25.25 18.95 25.15 19.0 25.15 19.05 24.8 19.05 24.65 19.1 24.55 19.05 24.45 19.05 24.35 19.05 24.15 19.05 24.05 19.1 24.0 19.15 23.9 19.05 23.7 19.05 23.7 18.95 23.55 18.95 23.55 19.0 23.5 19.05 23.35 19.0 23.35 18.95 22.85 18.95 22.85 19.0 22.65 19.05 22.4 18.95 16.2 19.0 16.0 19.0 15.85 19.0 15.75 18.95 15.75 18.9 15.85 18.85 15.85 18.8 16.0 18.8 16.2 18.8 22.45 18.85 22.5 18.85 22.5 18.8 22.75 18.85 23.15 18.85 24.55 18.95 24.6 18.85 24.55 18.85 24.6 18.8 24.65 18.85 24.7 18.85 24.7 18.8 24.8 18.85 25.0 18.85 25.05 18.8 25.05 18.75 25.15 18.6 25.35 18.7 M27.9 18.65 L28.4 18.65 28.4 18.6 28.55 18.35 28.6 18.3 28.65 18.35 28.65 18.4 28.6 18.75 28.55 18.8 28.5 18.8 27.5 18.85 27.4 18.8 27.4 18.75 27.9 18.65 M23.9 15.45 L23.9 15.5 23.95 15.45 23.9 15.45 M23.9 18.95 L23.9 19.0 23.95 18.95 23.9 18.95" fill="#c1c1c1" fill-rule="evenodd" stroke="none"/>
    </g>
  </defs>
</svg>
