<?xml version="1.0" encoding="UTF-8" standalone="no"?>
<svg xmlns:xlink="http://www.w3.org/1999/xlink" height="204.0px" width="1233.3px" xmlns="http://www.w3.org/2000/svg">
  <g transform="matrix(6.0, 0.0, 0.0, 6.0, 6.3, 102.0)">
    <use height="34.0" id="btr" transform="matrix(1.0, 0.0, 0.0, 1.0, 170.5, -17.0)" width="34.0" xlink:href="#button0"/>
    <use height="34.0" id="bt1" transform="matrix(1.0, 0.0, 0.0, 1.0, -0.5, -17.0)" width="34.0" xlink:href="#button1"/>
    <use height="34.0" id="bt2" transform="matrix(1.0, 0.0, 0.0, 1.0, 39.5, -17.0)" width="34.0" xlink:href="#button2"/>
    <use height="34.0" id="bt3" transform="matrix(1.0, 0.0, 0.0, 1.0, 79.5, -17.0)" width="34.0" xlink:href="#button3"/>
  </g>
  <defs>
    <g id="button0" transform="matrix(1.0, 0.0, 0.0, 1.0, 0.5, 0.5)">
      <use height="34.0" transform="matrix(1.0, 0.0, 0.0, 1.0, -0.5, -0.5)" width="34.0" xlink:href="#shape0"/>
      <use height="32.3" transform="matrix(1.0, 0.0, 0.0, 1.0, 0.6, 0.3)" width="32.1" xlink:href="#shape1"/>
    </g>
    <g id="shape0" transform="matrix(1.0, 0.0, 0.0, 1.0, 0.5, 0.5)">
      <path d="M33.0 0.0 L33.0 33.0 0.0 33.0 0.0 0.0 33.0 0.0" fill="#c4c4c4" fill-rule="evenodd" stroke="none"/>
      <path d="M33.0 0.0 L33.0 33.0 0.0 33.0 0.0 0.0 33.0 0.0 Z" fill="none" stroke="#000000" stroke-linecap="round" stroke-linejoin="round" stroke-width="1.0"/>
      <path d="M30.0 3.0 L3.0 3.0 3.0 30.0 30.0 30.0 30.0 3.0 M33.0 0.0 L33.0 33.0 0.0 33.0 0.0 0.0 33.0 0.0" fill="url(#gradient0)" fill-rule="evenodd" stroke="none"/>
      <path d="M30.0 3.0 L30.0 30.0 3.0 30.0 3.0 3.0 30.0 3.0" fill="#7b7b7b" fill-rule="evenodd" stroke="none"/>
      <path d="M30.0 3.0 L30.0 30.0 3.0 30.0 3.0 3.0 30.0 3.0 M33.0 0.0 L33.0 33.0 0.0 33.0 0.0 0.0 33.0 0.0" fill="none" stroke="#000000" stroke-linecap="round" stroke-linejoin="round" stroke-width="1.0"/>
      <path d="M28.0 0.0 L33.0 0.0 33.0 5.0 28.0 5.0 28.0 0.0 M0.0 0.0 L5.0 0.0 5.0 5.0 0.0 5.0 0.0 0.0 M5.0 28.0 L5.0 33.0 0.0 33.0 0.0 28.0 5.0 28.0 M28.0 28.0 L33.0 28.0 33.0 33.0 28.0 33.0 28.0 28.0" fill="#990000" fill-rule="evenodd" stroke="none"/>
      <path d="M28.0 0.0 L33.0 0.0 33.0 5.0 28.0 5.0 28.0 0.0 M0.0 0.0 L5.0 0.0 5.0 5.0 0.0 5.0 0.0 0.0 M5.0 28.0 L5.0 33.0 0.0 33.0 0.0 28.0 5.0 28.0 M28.0 28.0 L33.0 28.0 33.0 33.0 28.0 33.0 28.0 28.0" fill="none" stroke="#000000" stroke-linecap="round" stroke-linejoin="round" stroke-width="1.0"/>
    </g>
    <linearGradient gradientTransform="matrix(0.0152, 0.0234, -0.0234, 0.0152, 16.5, 16.45)" gradientUnits="userSpaceOnUse" id="gradient0" spreadMethod="pad" x1="-819.2" x2="819.2">
      <stop offset="0.0" stop-color="#eed600"/>
      <stop offset="0.19607843137254902" stop-color="#fef292"/>
      <stop offset="0.36470588235294116" stop-color="#ecd502"/>
      <stop offset="0.6352941176470588" stop-color="#9a8b00"/>
      <stop offset="0.8627450980392157" stop-color="#fff9c4"/>
      <stop offset="1.0" stop-color="#c4c400"/>
    </linearGradient>
    <g id="shape1" transform="matrix(1.0, 0.0, 0.0, 1.0, -0.6, -0.3)">
      <path d="M29.6 1.25 L29.05 2.1 28.6 1.8 28.6 1.45 28.85 0.8 Q28.9 0.35 29.3 0.35 L29.4 0.4 Q29.85 0.1 29.85 0.7 L29.7 1.1 29.6 1.25 M1.25 2.6 Q0.8 2.6 0.7 2.2 L0.7 1.7 Q0.7 1.15 1.45 0.65 2.2 0.2 2.2 0.95 L1.25 2.6 M1.85 29.35 L1.55 29.85 1.0 30.25 Q0.6 30.25 0.6 29.8 0.6 29.5 0.9 29.25 1.3 28.9 1.8 29.1 L1.85 29.35 M29.95 29.35 L29.8 29.95 29.4 30.25 Q28.95 30.25 28.95 29.8 28.95 29.4 29.45 29.0 29.95 28.55 29.95 29.35" fill="#ff6666" fill-rule="evenodd" stroke="none"/>
      <path d="M32.7 3.95 L32.7 4.35 31.45 4.6 Q30.2 4.6 30.2 4.2 30.2 3.9 30.7 3.65 L31.35 2.95 Q31.15 2.6 31.45 2.15 31.8 1.75 32.3 1.95 L32.7 3.95 M4.2 2.5 Q4.2 4.6 2.45 4.6 L2.05 4.55 Q1.95 4.05 2.1 3.9 L1.7 3.5 Q1.7 3.05 3.35 3.05 L3.9 2.1 Q4.2 1.65 4.2 2.5 M3.6 30.35 Q3.7 30.0 4.3 30.1 L4.35 32.05 Q4.25 32.6 3.75 32.6 L1.6 32.45 Q1.45 32.4 1.45 32.15 2.65 30.7 3.6 30.85 L3.6 30.35 M32.25 32.5 L31.25 32.5 30.25 32.5 29.85 32.05 30.05 31.8 31.3 31.25 31.2 30.65 Q31.2 30.25 31.55 29.8 31.95 29.25 32.25 29.95 L32.45 31.75 32.25 32.5" fill="#660000" fill-rule="evenodd" stroke="none"/>
      <path d="M28.0 20.5 L14.5 20.5 14.5 26.0 5.0 16.5 14.5 7.0 14.5 12.5 28.0 12.5 28.0 20.5" fill="#b10101" fill-rule="evenodd" stroke="none"/>
    </g>
    <g id="button1" transform="matrix(1.0, 0.0, 0.0, 1.0, 0.5, 0.5)">
      <use height="34.0" transform="matrix(1.0, 0.0, 0.0, 1.0, -0.5, -0.5)" width="34.0" xlink:href="#shape0"/>
      <use height="32.3" transform="matrix(1.0, 0.0, 0.0, 1.0, 0.6, 0.3)" width="32.1" xlink:href="#shape2"/>
    </g>
    <g id="shape2" transform="matrix(1.0, 0.0, 0.0, 1.0, -0.6, -0.3)">
      <path d="M29.85 0.7 L29.7 1.1 29.6 1.25 29.05 2.1 28.6 1.8 28.6 1.45 28.85 0.8 Q28.9 0.35 29.3 0.35 L29.4 0.4 Q29.85 0.1 29.85 0.7 M1.25 2.6 Q0.8 2.6 0.7 2.2 L0.7 1.7 Q0.7 1.15 1.45 0.65 2.2 0.2 2.2 0.95 L1.25 2.6 M1.85 29.35 L1.55 29.85 1.0 30.25 Q0.6 30.25 0.6 29.8 0.6 29.5 0.9 29.25 1.3 28.9 1.8 29.1 L1.85 29.35 M29.95 29.35 L29.8 29.95 29.4 30.25 Q28.95 30.25 28.95 29.8 28.95 29.4 29.45 29.0 29.95 28.55 29.95 29.35" fill="#ff6666" fill-rule="evenodd" stroke="none"/>
      <path d="M32.7 3.95 L32.7 4.35 31.45 4.6 Q30.2 4.6 30.2 4.2 30.2 3.9 30.7 3.65 L31.35 2.95 Q31.15 2.6 31.45 2.15 31.8 1.75 32.3 1.95 L32.7 3.95 M4.2 2.5 Q4.2 4.6 2.45 4.6 L2.05 4.55 Q1.95 4.05 2.1 3.9 L1.7 3.5 Q1.7 3.05 3.35 3.05 L3.9 2.1 Q4.2 1.65 4.2 2.5 M3.6 30.35 Q3.7 30.0 4.3 30.1 L4.35 32.05 Q4.25 32.6 3.75 32.6 L1.6 32.45 Q1.45 32.4 1.45 32.15 2.65 30.7 3.6 30.85 L3.6 30.35 M32.25 32.5 L31.25 32.5 30.25 32.5 29.85 32.05 30.05 31.8 31.3 31.25 31.2 30.65 Q31.2 30.25 31.55 29.8 31.95 29.25 32.25 29.95 L32.45 31.75 32.25 32.5" fill="#660000" fill-rule="evenodd" stroke="none"/>
      <path d="M16.95 14.65 L18.0 14.65 18.0 14.55 18.2 14.55 18.2 14.6 18.2 15.0 18.55 15.0 18.9 15.0 18.9 15.05 18.95 15.05 18.95 15.1 18.95 15.4 19.1 15.55 19.9 16.2 20.4 16.5 21.55 16.95 21.85 17.05 21.85 15.55 21.9 15.55 21.9 15.35 22.0 15.2 22.2 15.15 22.55 15.4 22.6 15.7 22.6 17.2 25.3 17.2 25.5 17.05 Q25.8 16.75 26.15 16.75 26.85 16.75 27.3 17.2 L27.6 17.9 27.4 18.45 27.3 18.6 27.1 18.75 27.05 18.9 26.6 18.95 25.75 18.8 25.5 18.65 25.45 18.55 25.25 18.55 25.2 18.55 22.6 18.65 22.55 19.6 22.6 19.95 Q22.6 20.65 22.2 20.65 L21.95 20.5 21.85 20.2 21.85 20.1 21.85 20.0 21.85 19.65 21.85 18.8 21.7 18.85 21.0 19.05 Q20.85 19.05 20.75 19.2 L20.55 19.25 19.6 19.8 19.5 19.85 19.45 19.95 19.3 20.05 19.1 20.15 18.95 20.3 18.95 20.45 19.0 20.55 18.95 20.65 18.85 20.65 18.35 20.65 18.2 20.65 18.2 21.1 18.15 21.15 7.45 21.15 7.45 21.2 7.3 21.25 7.3 21.15 5.65 21.15 5.65 21.1 5.55 21.1 5.55 20.5 5.25 20.25 4.95 20.05 4.75 19.9 4.3 19.55 4.1 19.4 4.05 19.25 4.1 19.25 4.05 16.4 3.95 16.3 3.95 16.25 Q3.95 15.95 4.1 15.9 L4.4 15.65 4.75 15.4 5.3 15.15 5.6 15.0 5.6 14.9 5.5 14.75 Q5.5 14.5 5.75 14.55 L7.05 14.6 7.05 14.55 7.1 14.45 7.05 14.45 7.05 14.35 Q7.05 14.2 7.2 14.25 L17.0 14.25 17.05 14.35 17.0 14.45 16.95 14.45 16.95 14.65 M16.35 15.7 L16.45 15.7 16.45 15.6 16.4 15.55 16.65 15.05 16.8 14.75 16.8 14.65 16.75 14.55 16.8 14.45 16.65 14.45 16.55 14.4 16.35 14.45 7.75 14.45 7.6 14.35 7.35 14.45 7.25 14.45 7.25 14.5 7.25 14.55 7.25 14.7 7.35 14.95 7.45 15.25 7.5 15.5 7.5 15.65 7.55 15.7 7.65 15.95 7.85 16.6 8.0 17.25 15.65 17.25 15.65 17.2 16.35 15.7 M18.05 17.05 L18.05 14.85 18.0 14.85 18.0 14.8 16.95 14.8 16.95 14.85 16.3 16.1 15.75 17.45 15.65 17.45 15.65 17.4 8.0 17.45 7.95 17.45 7.8 17.45 7.8 17.4 7.75 17.35 7.8 17.3 7.75 17.1 7.7 16.75 7.25 15.35 7.05 14.8 5.75 14.8 5.75 15.0 5.75 15.1 5.75 15.15 5.75 16.95 6.15 16.95 6.1 17.0 6.75 17.0 7.25 17.05 7.3 17.15 7.3 17.2 7.3 17.75 7.3 17.85 7.3 17.95 7.3 18.55 7.5 18.55 7.75 18.65 7.75 18.3 7.65 18.25 7.65 18.1 7.75 18.1 7.85 18.1 15.9 18.1 15.9 18.15 15.9 18.25 15.9 18.45 16.15 18.45 16.35 18.45 16.35 17.95 16.4 17.95 16.4 17.75 16.35 17.75 16.4 17.15 16.45 17.05 18.0 17.05 18.05 17.1 18.05 17.05 M16.55 17.7 L16.5 17.7 16.5 17.85 16.55 17.9 16.5 18.6 16.45 18.6 16.25 18.65 15.9 18.65 15.9 19.05 15.9 19.2 15.9 19.25 8.2 19.3 8.1 19.35 7.95 19.3 7.8 19.25 7.8 19.15 7.75 19.15 7.75 19.1 7.75 18.8 7.7 18.8 7.5 18.75 7.25 18.75 7.2 18.75 7.2 18.7 7.15 18.7 7.15 18.55 7.1 18.05 7.1 17.95 7.2 17.95 7.2 17.85 7.15 17.8 7.15 17.3 7.15 17.25 6.8 17.25 6.3 17.2 5.75 17.15 5.75 17.75 5.7 17.75 5.7 17.9 5.75 17.95 5.75 19.65 5.7 19.7 5.7 19.8 5.75 19.8 5.75 20.25 5.7 20.25 5.7 20.4 5.85 20.45 5.85 20.6 5.7 20.6 5.7 21.0 6.2 21.0 6.2 20.05 7.35 20.1 7.35 20.05 7.45 20.1 7.45 21.0 15.9 20.95 15.9 20.0 15.85 19.95 15.95 19.85 17.45 19.85 17.45 19.9 17.5 19.95 17.5 20.95 18.0 20.95 18.05 21.0 18.05 19.75 18.15 19.75 18.15 19.65 18.05 19.55 18.05 17.9 18.15 17.9 18.15 17.75 18.1 17.7 18.05 17.7 18.05 17.25 16.55 17.25 16.55 17.7 M15.9 19.05 L15.85 19.05 15.9 19.05 M16.7 17.6 L16.7 17.4 16.85 17.4 16.9 17.5 16.85 17.6 16.7 17.6 M17.2 17.5 Q17.2 17.35 17.35 17.4 L17.35 17.55 17.25 17.6 17.2 17.5 M21.85 18.05 L21.9 18.05 21.9 17.9 21.85 17.9 21.85 17.25 21.25 17.05 20.75 16.85 20.2 16.6 19.4 16.05 19.1 15.8 18.95 15.7 18.95 17.4 18.9 17.4 18.95 17.6 18.95 20.0 Q19.1 19.9 19.4 19.7 L20.4 19.1 21.6 18.7 21.85 18.6 21.85 18.05 M18.75 15.2 L18.2 15.2 18.2 20.45 18.8 20.45 18.8 15.35 18.75 15.2 M17.7 17.55 L17.6 17.45 Q17.6 17.25 17.8 17.35 L17.8 17.5 17.7 17.55 M22.3 15.4 L22.25 15.25 22.1 15.4 22.05 15.6 22.0 15.6 22.0 16.85 22.0 17.25 22.0 18.1 22.0 18.35 22.0 18.7 21.95 19.05 22.0 19.25 22.0 19.65 22.05 19.7 22.05 20.3 Q22.1 20.45 22.25 20.45 L22.45 19.85 22.45 19.35 22.45 19.2 22.45 18.8 22.45 17.4 22.45 17.05 22.45 16.9 22.4 15.9 22.3 15.4 M25.15 18.0 L25.2 17.9 25.15 17.85 25.1 17.85 25.1 17.75 25.2 17.4 22.9 17.4 22.6 17.4 22.6 17.85 22.55 17.9 22.55 18.0 22.6 18.0 22.6 18.45 23.1 18.4 25.2 18.4 25.2 18.35 25.25 18.35 25.15 18.1 25.15 18.0 M25.4 17.5 L25.3 17.75 25.5 18.35 25.8 18.6 26.6 18.75 26.85 18.75 27.05 18.55 27.25 18.35 27.45 17.85 27.2 17.4 Q26.85 17.05 26.45 17.0 L26.15 16.95 25.9 17.05 25.55 17.25 25.4 17.5 M17.3 20.05 L17.2 20.05 16.05 20.05 16.05 20.95 17.3 20.95 17.3 20.05 M15.7 18.25 L7.9 18.3 7.9 19.05 15.65 19.05 15.65 18.8 15.7 18.8 15.65 18.35 15.7 18.25 M4.55 15.85 L4.25 15.95 4.25 16.0 4.15 16.15 4.25 16.25 4.25 19.25 5.55 20.25 5.55 20.1 5.6 20.1 5.6 15.25 4.85 15.6 4.55 15.85 M5.9 17.3 L6.05 17.3 6.1 17.45 6.05 17.5 5.9 17.5 5.9 17.3 M6.3 17.35 L6.45 17.3 6.45 17.35 6.45 17.5 6.4 17.5 6.3 17.35 M6.75 17.5 L6.75 17.4 6.9 17.4 6.9 17.45 6.9 17.55 6.8 17.55 6.75 17.5 M6.4 21.0 L7.3 21.0 7.3 20.65 7.3 20.25 6.4 20.25 6.4 21.0" fill="#000000" fill-rule="evenodd" stroke="none"/>
      <path d="M18.0 17.05 L18.05 17.05 18.05 17.1 18.0 17.05" fill="#5b6938" fill-rule="evenodd" stroke="none"/>
      <path d="M18.05 19.55 L18.15 19.65 18.15 19.75 18.05 19.75 18.05 21.0 18.0 20.95 17.5 20.95 17.5 19.95 17.45 19.9 17.45 19.85 15.95 19.85 15.85 19.95 15.9 20.0 15.9 20.95 7.45 21.0 7.45 20.1 7.35 20.05 7.35 20.1 6.2 20.05 6.2 21.0 5.7 21.0 5.7 20.6 5.85 20.6 5.85 20.45 5.7 20.4 5.7 20.25 5.75 20.25 5.75 19.8 5.7 19.8 5.7 19.7 5.75 19.65 5.8 19.6 11.95 19.55 18.05 19.55 M18.95 17.6 L19.1 17.7 19.65 17.8 20.45 17.95 21.4 18.05 21.85 18.05 21.85 18.6 21.6 18.7 20.4 19.1 19.4 19.7 Q19.1 19.9 18.95 20.0 L18.95 17.6 M18.75 15.2 L18.8 15.35 18.8 20.45 18.2 20.45 18.2 15.2 18.75 15.2 M18.4 15.45 L18.35 15.85 18.4 17.2 18.6 17.05 18.65 15.95 18.65 15.85 18.65 15.3 18.6 15.25 18.55 15.3 18.5 15.35 18.4 15.35 18.4 15.45 M22.6 18.0 L23.2 18.0 23.5 18.05 25.15 18.0 25.15 18.1 25.25 18.35 25.2 18.35 25.2 18.4 23.1 18.4 22.6 18.45 22.6 18.0 M25.55 17.3 L25.35 17.65 25.55 18.0 26.0 18.15 Q27.0 18.15 27.0 17.65 L26.75 17.35 26.5 17.2 Q26.3 17.05 26.15 17.05 25.8 17.05 25.55 17.3 M25.4 17.5 L25.55 17.25 25.9 17.05 26.15 16.95 26.45 17.0 Q26.85 17.05 27.2 17.4 L27.45 17.85 27.25 18.35 27.05 18.55 26.85 18.75 26.6 18.75 25.8 18.6 25.5 18.35 25.3 17.75 25.4 17.5 M4.55 15.85 L4.85 15.6 5.6 15.25 5.6 20.1 5.55 20.1 5.55 20.25 4.25 19.25 4.25 16.25 4.15 16.15 4.25 16.0 4.25 15.95 4.55 15.85 M5.1 15.7 L5.0 15.8 4.55 16.0 Q4.4 16.05 4.4 16.1 L4.4 16.2 4.4 16.3 4.4 16.55 Q4.4 17.1 4.55 17.1 L4.65 17.05 5.35 17.05 5.5 15.9 5.5 15.8 5.5 15.65 5.45 15.55 5.15 15.7 5.1 15.7" fill="#333333" fill-rule="evenodd" stroke="none"/>
      <path d="M18.65 15.85 L18.55 15.85 18.45 15.7 18.4 15.5 18.4 15.45 18.4 15.35 18.5 15.35 18.55 15.3 18.6 15.25 18.65 15.3 18.65 15.85 M4.4 16.3 L4.4 16.2 4.4 16.1 Q4.4 16.05 4.55 16.0 L5.0 15.8 5.1 15.7 5.4 15.65 5.5 15.65 5.5 15.8 5.5 15.9 5.3 16.05 5.0 16.1 4.75 16.25 4.55 16.25 4.4 16.3" fill="#cccccc" fill-rule="evenodd" stroke="none"/>
      <path d="M18.4 15.45 L18.4 15.5 18.45 15.7 18.55 15.85 18.65 15.85 18.65 15.95 18.6 17.05 18.4 17.2 18.35 15.85 18.4 15.45 M5.1 15.7 L5.15 15.7 5.45 15.55 5.5 15.65 5.4 15.65 5.1 15.7 M5.5 15.9 L5.35 17.05 4.65 17.05 4.55 17.1 Q4.4 17.1 4.4 16.55 L4.4 16.3 4.55 16.25 4.75 16.25 5.0 16.1 5.3 16.05 5.5 15.9" fill="#7b7b7b" fill-rule="evenodd" stroke="none"/>
      <path d="M15.9 19.05 L15.85 19.05 15.9 19.05" fill="#434e29" fill-rule="evenodd" stroke="none"/>
      <path d="M15.7 18.25 L15.65 18.35 15.7 18.8 15.65 18.8 15.65 19.05 7.9 19.05 7.9 18.3 15.7 18.25" fill="#a9a801" fill-rule="evenodd" stroke="none"/>
      <path d="M17.3 20.05 L17.3 20.95 16.05 20.95 16.05 20.05 17.2 20.05 17.3 20.05 M6.4 21.0 L6.4 20.25 7.3 20.25 7.3 20.65 7.3 21.0 6.4 21.0" fill="#1a1a1a" fill-rule="evenodd" stroke="none"/>
      <path d="M7.3 17.75 L16.35 17.75 16.4 17.75 16.4 17.95 16.35 17.95 16.35 18.45 16.15 18.45 15.9 18.45 15.9 18.25 15.9 18.15 15.9 18.1 7.85 18.1 7.75 18.1 7.65 18.1 7.65 18.25 7.75 18.3 7.75 18.65 7.5 18.55 7.3 18.55 7.3 17.95 7.3 17.85 7.3 17.75 M15.9 19.05 L15.9 18.65 16.25 18.65 16.45 18.6 16.5 18.6 16.55 17.9 16.5 17.85 16.5 17.7 16.55 17.7 18.05 17.7 18.1 17.7 18.15 17.75 18.15 17.9 18.05 17.9 18.05 19.55 11.95 19.55 5.8 19.6 5.75 19.65 5.75 17.95 5.7 17.9 5.7 17.75 5.75 17.75 5.85 17.8 7.15 17.8 7.2 17.85 7.2 17.95 7.1 17.95 7.1 18.05 7.15 18.55 7.15 18.7 7.2 18.7 7.2 18.75 7.25 18.75 7.5 18.75 7.7 18.8 7.75 18.8 7.75 19.1 7.75 19.15 7.8 19.15 7.8 19.25 7.95 19.3 8.1 19.35 8.2 19.3 15.9 19.25 15.9 19.2 15.9 19.05 M18.95 17.6 L18.9 17.4 18.95 17.4 18.95 15.7 19.1 15.8 19.4 16.05 20.2 16.6 20.75 16.85 21.25 17.05 21.85 17.25 21.85 17.9 21.9 17.9 21.9 18.05 21.85 18.05 21.4 18.05 20.45 17.95 19.65 17.8 19.1 17.7 18.95 17.6 M19.55 16.7 L19.85 16.85 20.1 17.0 20.75 17.25 21.45 17.6 21.65 17.6 21.65 17.5 21.65 17.4 21.25 17.3 21.1 17.15 20.45 16.8 19.4 16.15 19.25 16.15 19.25 16.35 19.35 16.5 19.55 16.7 M22.6 18.0 L22.55 18.0 22.55 17.9 22.6 17.85 22.6 17.4 22.9 17.4 25.2 17.4 25.1 17.75 25.1 17.85 25.15 17.85 25.2 17.9 25.15 18.0 23.5 18.05 23.2 18.0 22.6 18.0 M25.55 17.3 Q25.8 17.05 26.15 17.05 26.3 17.05 26.5 17.2 L26.75 17.35 27.0 17.65 Q27.0 18.15 26.0 18.15 L25.55 18.0 25.35 17.65 25.55 17.3 M26.05 17.7 L26.4 17.45 26.3 17.35 26.2 17.25 25.8 17.55 26.05 17.7 M23.75 17.65 L23.05 17.5 22.95 17.65 23.5 17.8 24.15 17.85 24.85 17.7 24.8 17.65 23.75 17.65" fill="#6a6a6a" fill-rule="evenodd" stroke="none"/>
      <path d="M7.3 17.75 L7.3 17.2 7.3 17.15 7.25 17.05 6.75 17.0 6.1 17.0 6.15 16.95 5.75 16.95 5.75 15.15 5.75 15.1 5.75 15.0 5.75 14.8 7.05 14.8 7.25 15.35 7.7 16.75 7.75 17.1 7.8 17.3 7.75 17.35 7.8 17.4 7.8 17.45 7.95 17.45 8.0 17.45 15.65 17.4 15.65 17.45 15.75 17.45 16.3 16.1 16.95 14.85 16.95 14.8 18.0 14.8 18.0 14.85 18.05 14.85 18.05 17.05 18.0 17.05 16.45 17.05 16.4 17.15 16.35 17.75 7.3 17.75 M16.55 17.7 L16.55 17.25 18.05 17.25 18.05 17.7 16.55 17.7 M5.75 17.75 L5.75 17.15 6.3 17.2 6.8 17.25 7.15 17.25 7.15 17.3 7.15 17.8 5.85 17.8 5.75 17.75 M17.2 17.5 L17.25 17.6 17.35 17.55 17.35 17.4 Q17.2 17.35 17.2 17.5 M16.7 17.6 L16.85 17.6 16.9 17.5 16.85 17.4 16.7 17.4 16.7 17.6 M17.7 17.55 L17.8 17.5 17.8 17.35 Q17.6 17.25 17.6 17.45 L17.7 17.55 M19.55 16.7 L19.35 16.5 19.25 16.35 19.25 16.15 19.4 16.15 20.45 16.8 21.1 17.15 21.25 17.3 21.65 17.4 21.65 17.5 21.65 17.6 21.45 17.6 20.75 17.25 20.1 17.0 19.85 16.85 19.55 16.7 M23.75 17.65 L24.8 17.65 24.85 17.7 24.15 17.85 23.5 17.8 22.95 17.65 23.05 17.5 23.75 17.65 M26.05 17.7 L25.8 17.55 26.2 17.25 26.3 17.35 26.4 17.45 26.05 17.7 M6.75 17.5 L6.8 17.55 6.9 17.55 6.9 17.45 6.9 17.4 6.75 17.4 6.75 17.5 M6.3 17.35 L6.4 17.5 6.45 17.5 6.45 17.35 6.45 17.3 6.3 17.35 M5.9 17.3 L5.9 17.5 6.05 17.5 6.1 17.45 6.05 17.3 5.9 17.3" fill="#b7b7b7" fill-rule="evenodd" stroke="none"/>
      <path d="M16.35 15.7 L15.65 17.2 15.65 17.25 8.0 17.25 7.85 16.6 7.65 15.95 7.55 15.7 7.7 15.65 7.75 15.7 16.35 15.7 M22.3 15.4 L22.4 15.9 22.45 16.9 22.45 17.05 22.45 17.4 22.45 18.8 22.45 19.2 22.45 19.35 22.45 19.85 22.25 20.45 Q22.1 20.45 22.05 20.3 L22.05 19.7 22.0 19.65 22.0 19.25 21.95 19.05 22.0 18.7 22.0 18.35 22.2 18.35 22.3 18.35 22.35 15.85 22.35 15.75 22.35 15.7 22.35 15.6 22.3 15.55 22.3 15.45 22.3 15.4 M22.0 18.1 L22.0 17.25 22.0 16.85 22.0 15.6 22.05 15.6 22.1 15.4 22.1 15.5 22.05 15.75 22.1 15.95 22.05 17.0 22.0 18.1" fill="#910000" fill-rule="evenodd" stroke="none"/>
      <path d="M7.55 15.7 L7.5 15.65 7.5 15.5 7.45 15.25 7.35 14.95 7.25 14.7 7.25 14.55 7.25 14.5 7.25 14.45 7.35 14.45 7.6 14.35 7.75 14.45 16.35 14.45 16.55 14.4 16.65 14.45 16.8 14.45 16.75 14.55 16.8 14.65 16.8 14.75 16.65 15.05 16.4 15.55 16.45 15.6 16.45 15.7 16.35 15.7 7.75 15.7 7.7 15.65 7.55 15.7 M16.4 14.75 L16.4 14.55 7.75 14.55 7.75 14.6 7.55 14.75 7.6 14.85 7.65 14.9 7.75 14.9 16.3 14.9 16.35 14.8 16.4 14.75" fill="#dd0000" fill-rule="evenodd" stroke="none"/>
      <path d="M16.4 14.75 L16.35 14.8 16.3 14.9 7.75 14.9 7.65 14.9 7.6 14.85 7.55 14.75 7.75 14.6 7.75 14.55 16.4 14.55 16.4 14.75" fill="#ff9191" fill-rule="evenodd" stroke="none"/>
      <path d="M22.0 18.35 L22.0 18.1 22.05 17.0 22.1 15.95 22.05 15.75 22.1 15.5 22.05 15.65 22.15 15.95 22.35 15.75 22.35 15.85 22.3 18.35 22.2 18.35 22.0 18.35 M22.3 15.55 L22.3 15.5 22.3 15.45 22.3 15.55" fill="#ec0202" fill-rule="evenodd" stroke="none"/>
      <path d="M22.1 15.4 L22.25 15.25 22.3 15.4 22.3 15.45 22.3 15.5 22.3 15.55 22.35 15.6 22.35 15.7 22.35 15.75 22.15 15.95 22.05 15.65 22.1 15.5 22.1 15.4" fill="#fe7878" fill-rule="evenodd" stroke="none"/>
    </g>
    <g id="button2" transform="matrix(1.0, 0.0, 0.0, 1.0, 0.5, 0.5)">
      <use height="34.0" transform="matrix(1.0, 0.0, 0.0, 1.0, -0.5, -0.5)" width="34.0" xlink:href="#shape0"/>
      <use height="32.3" transform="matrix(1.0, 0.0, 0.0, 1.0, 0.6, 0.3)" width="32.1" xlink:href="#shape3"/>
    </g>
    <g id="shape3" transform="matrix(1.0, 0.0, 0.0, 1.0, -0.6, -0.3)">
      <path d="M29.7 1.1 L29.6 1.25 29.05 2.1 28.6 1.8 28.6 1.45 28.85 0.8 Q28.9 0.35 29.3 0.35 L29.4 0.4 Q29.85 0.1 29.85 0.7 L29.7 1.1 M1.25 2.6 Q0.8 2.6 0.7 2.2 L0.7 1.7 Q0.7 1.15 1.45 0.65 2.2 0.2 2.2 0.95 L1.25 2.6 M1.85 29.35 L1.55 29.85 1.0 30.25 Q0.6 30.25 0.6 29.8 0.6 29.5 0.9 29.25 1.3 28.9 1.8 29.1 L1.85 29.35 M29.95 29.35 L29.8 29.95 29.4 30.25 Q28.95 30.25 28.95 29.8 28.95 29.4 29.45 29.0 29.95 28.55 29.95 29.35" fill="#ff6666" fill-rule="evenodd" stroke="none"/>
      <path d="M32.7 3.95 L32.7 4.35 31.45 4.6 Q30.2 4.6 30.2 4.2 30.2 3.9 30.7 3.65 L31.35 2.95 Q31.15 2.6 31.45 2.15 31.8 1.75 32.3 1.95 L32.7 3.95 M3.9 2.1 Q4.2 1.65 4.2 2.5 4.2 4.6 2.45 4.6 L2.05 4.55 Q1.95 4.05 2.1 3.9 L1.7 3.5 Q1.7 3.05 3.35 3.05 L3.9 2.1 M3.6 30.35 Q3.7 30.0 4.3 30.1 L4.35 32.05 Q4.25 32.6 3.75 32.6 L1.6 32.45 Q1.45 32.4 1.45 32.15 2.65 30.7 3.6 30.85 L3.6 30.35 M32.25 32.5 L31.25 32.5 30.25 32.5 29.85 32.05 30.05 31.8 31.3 31.25 31.2 30.65 Q31.2 30.25 31.55 29.8 31.95 29.25 32.25 29.95 L32.45 31.75 32.25 32.5" fill="#660000" fill-rule="evenodd" stroke="none"/>
      <path d="M21.2 9.05 L22.2 9.3 23.55 9.65 24.7 10.15 24.8 10.4 24.65 10.45 24.55 10.45 24.5 10.45 23.75 10.1 23.6 10.1 23.15 10.0 21.5 9.9 20.5 10.05 19.8 10.15 17.8 10.5 16.65 11.1 15.95 11.65 15.65 10.75 Q15.35 10.15 14.35 10.15 L13.9 10.15 13.85 10.3 13.6 10.45 Q13.45 10.55 13.45 10.9 L13.75 11.35 14.1 11.65 14.3 11.95 14.8 12.15 15.05 12.35 16.05 13.3 Q16.45 13.75 16.65 14.5 L16.8 14.8 16.8 15.05 16.75 15.05 16.8 15.9 Q16.8 17.45 15.8 18.75 L15.35 19.45 14.85 19.9 15.05 19.9 14.8 20.1 14.3 20.3 14.1 20.6 13.75 20.9 13.45 21.35 Q13.45 21.7 13.6 21.8 L13.85 21.95 13.9 22.1 14.35 22.1 Q15.35 22.1 15.65 21.5 15.75 20.9 15.95 20.6 L16.65 21.15 17.8 21.75 19.8 22.1 20.5 22.2 21.5 22.35 23.15 22.25 23.6 22.15 23.75 22.15 Q24.2 21.9 24.5 21.8 L24.55 21.8 24.65 21.8 24.8 21.85 24.7 22.1 23.55 22.6 22.2 22.95 21.2 23.2 20.35 23.45 18.7 23.65 16.9 24.05 15.7 23.95 14.4 23.9 13.2 23.85 11.35 23.5 10.2 23.1 9.8 23.0 9.1 22.9 8.95 22.7 8.7 22.7 8.7 22.4 8.85 22.35 Q9.6 22.15 9.75 21.9 L10.1 21.15 9.8 20.5 9.65 20.25 9.15 19.95 8.75 19.65 7.85 18.8 Q7.15 17.6 7.15 16.05 L7.45 14.65 Q7.7 13.75 8.1 13.3 L8.3 13.0 9.4 12.2 9.55 12.15 9.8 11.75 10.1 11.1 9.75 10.35 Q9.6 10.1 8.85 9.9 L8.7 9.85 8.7 9.55 8.95 9.55 9.1 9.35 9.8 9.25 10.2 9.15 11.35 8.75 13.2 8.4 14.4 8.35 15.7 8.3 16.9 8.2 18.7 8.6 20.35 8.8 21.2 9.05 M12.75 8.9 L11.4 9.05 10.2 9.45 9.55 9.65 9.45 9.7 9.8 9.85 10.05 10.2 10.35 10.65 10.4 11.1 10.25 11.75 10.35 11.7 11.9 11.3 13.1 11.5 13.6 11.7 Q13.15 11.25 13.15 10.9 L13.35 10.2 13.75 9.85 14.35 9.8 Q15.4 9.8 15.8 10.4 L16.05 11.05 16.1 11.1 Q17.25 10.2 18.1 10.05 L20.15 9.75 21.7 9.55 22.1 9.55 20.95 9.25 20.05 9.1 19.15 9.05 18.6 8.9 18.0 8.75 16.7 8.55 15.55 8.65 14.95 8.65 14.45 8.65 14.25 8.7 13.3 8.7 12.95 8.85 12.85 8.85 12.75 8.9 M17.15 21.85 L16.1 21.15 16.05 21.2 15.8 21.85 Q15.4 22.45 14.35 22.45 L13.75 22.4 13.35 22.05 13.15 21.35 Q13.15 21.0 13.6 20.55 13.3 20.6 13.1 20.75 L11.9 20.95 11.15 20.85 11.1 20.85 11.0 20.8 10.5 20.6 10.3 20.6 10.4 21.15 10.35 21.6 10.05 22.05 9.8 22.4 9.45 22.55 9.55 22.6 10.2 22.8 11.4 23.2 12.9 23.4 13.3 23.55 15.55 23.6 16.7 23.7 18.0 23.5 18.6 23.35 19.15 23.2 20.05 23.15 20.95 23.0 22.1 22.7 21.7 22.7 20.15 22.5 18.1 22.2 17.4 22.0 17.35 21.85 17.15 21.85 M15.3 13.1 L14.85 12.65 14.8 12.7 14.7 12.6 14.65 12.6 14.25 12.35 14.15 12.25 13.4 11.95 11.7 11.65 11.7 11.7 11.5 11.75 11.15 11.85 11.0 11.75 9.9 12.35 9.65 12.5 Q8.55 13.2 8.15 13.7 L7.75 14.95 7.65 15.4 7.5 15.4 7.5 15.95 7.45 16.1 Q7.45 17.05 8.05 18.4 L9.25 19.6 9.75 19.9 9.9 19.9 10.45 20.3 11.05 20.45 11.15 20.4 11.5 20.5 Q12.95 20.45 14.6 19.7 L15.6 18.5 16.0 17.85 15.85 17.85 Q15.5 17.85 15.4 17.4 L15.4 16.9 15.45 15.4 15.55 14.7 Q15.6 14.2 16.15 14.15 L15.6 13.35 15.3 13.1 M9.0 16.95 L9.05 16.95 9.05 16.7 9.0 16.65 8.95 16.65 8.8 15.95 8.95 15.35 9.15 14.5 9.2 14.5 9.25 14.35 9.2 14.2 9.2 14.15 9.4 13.6 9.6 13.2 9.8 13.05 11.55 12.95 12.2 13.0 12.15 13.1 12.2 13.3 12.55 13.2 13.05 13.95 12.8 14.6 12.5 15.15 12.4 16.05 Q12.25 16.1 12.25 16.25 L12.35 16.4 12.35 16.55 Q12.35 17.15 12.6 17.5 L12.85 18.25 Q12.85 19.1 12.2 19.1 L10.95 19.05 10.3 19.1 9.6 18.7 9.25 18.25 9.15 17.8 9.0 16.95 M9.75 13.7 L9.7 13.95 9.55 14.1 9.15 16.0 9.45 17.65 9.85 18.45 Q10.15 18.9 11.95 18.75 L12.45 18.75 12.55 18.25 12.15 17.45 12.05 16.55 12.15 15.2 12.35 14.6 12.7 13.95 12.5 13.55 11.45 13.35 10.25 13.45 9.75 13.55 9.75 13.7 M9.75 17.7 L9.55 16.15 9.7 14.3 Q9.7 14.1 10.15 13.9 L10.75 13.8 Q11.25 13.8 11.3 14.25 L11.25 14.75 11.2 15.8 Q11.2 16.8 11.35 17.25 L11.35 17.95 10.85 18.0 9.95 17.9 9.75 17.7 M10.05 17.55 L10.65 17.65 11.05 17.65 11.05 17.4 10.95 16.8 10.55 16.8 10.5 16.65 Q10.6 16.4 10.9 16.45 L10.9 16.05 10.9 15.85 10.45 15.85 10.4 15.75 Q10.4 15.45 10.8 15.45 L10.9 15.5 10.95 15.0 10.65 15.0 10.4 14.95 10.4 14.7 10.65 14.65 10.95 14.7 11.0 14.4 Q10.95 14.15 10.4 14.2 10.0 14.4 10.0 14.8 L9.85 16.1 10.05 17.55 M16.3 14.55 L16.3 14.45 Q15.9 14.5 15.85 14.65 L15.85 14.95 15.7 17.35 15.75 17.4 Q16.0 17.15 16.2 17.15 L16.25 17.3 16.25 17.35 16.35 17.15 16.5 15.9 16.45 15.05 16.3 14.55" fill="#000000" fill-rule="evenodd" stroke="none"/>
      <path d="M14.95 8.65 L15.55 8.65 16.7 8.55 18.0 8.75 18.6 8.9 19.15 9.05 20.05 9.1 20.95 9.25 22.1 9.55 21.7 9.55 20.15 9.75 18.1 10.05 Q17.25 10.2 16.1 11.1 L16.05 11.05 15.8 10.4 Q15.4 9.8 14.35 9.8 L13.75 9.85 13.35 10.2 13.15 10.9 Q13.15 11.25 13.6 11.7 L13.1 11.5 11.9 11.3 10.35 11.7 10.25 11.75 10.4 11.1 10.35 10.65 10.05 10.2 9.8 9.85 9.45 9.7 9.55 9.65 10.2 9.45 11.4 9.05 12.75 8.9 11.7 9.1 Q10.05 9.65 10.05 9.8 L10.1 9.95 10.65 9.95 11.1 9.6 11.7 9.45 12.85 9.2 13.85 9.1 14.95 8.95 15.0 8.8 14.95 8.65 M12.95 8.85 L13.3 8.7 14.25 8.7 12.95 8.85 M17.4 22.0 L18.1 22.2 20.15 22.5 21.7 22.7 22.1 22.7 20.95 23.0 20.05 23.15 19.15 23.2 18.6 23.35 18.0 23.5 16.7 23.7 15.55 23.6 13.3 23.55 12.9 23.4 11.4 23.2 10.2 22.8 9.55 22.6 9.45 22.55 9.8 22.4 10.05 22.05 10.35 21.6 10.4 21.15 10.3 20.6 10.5 20.6 11.0 20.8 11.1 20.85 11.15 20.85 11.9 20.95 13.1 20.75 Q13.3 20.6 13.6 20.55 13.15 21.0 13.15 21.35 L13.35 22.05 13.75 22.4 14.35 22.45 Q15.4 22.45 15.8 21.85 L16.05 21.2 16.1 21.15 17.15 21.85 16.35 21.75 Q16.0 21.65 15.85 21.9 L15.5 22.25 15.1 22.4 Q14.95 22.4 14.95 22.55 L15.0 22.7 15.25 22.7 16.2 22.1 16.95 22.2 Q17.4 22.2 17.4 22.0" fill="#333333" fill-rule="evenodd" stroke="none"/>
      <path d="M7.5 15.95 L7.5 15.4 7.65 15.4 7.75 14.95 8.15 13.7 Q8.55 13.2 9.65 12.5 L9.9 12.35 11.0 11.75 11.15 11.85 11.5 11.75 11.7 11.7 11.7 11.65 13.4 11.95 14.15 12.25 14.25 12.35 14.65 12.6 14.7 12.6 14.8 12.7 14.85 12.65 15.3 13.1 15.45 13.9 Q15.45 14.75 14.7 15.35 L13.7 16.0 13.55 16.1 13.15 16.25 12.6 16.45 12.35 16.4 12.25 16.25 Q12.25 16.1 12.4 16.05 L12.5 15.15 12.8 14.6 13.05 13.95 12.55 13.2 12.8 12.65 Q12.6 11.8 11.1 11.95 10.35 12.1 10.15 12.4 9.65 12.55 9.1 13.1 8.55 13.8 8.55 14.1 L8.8 14.5 9.15 14.5 8.95 15.35 8.8 15.95 8.95 16.65 9.0 16.65 9.05 16.7 9.05 16.95 9.0 16.95 8.35 16.95 8.2 16.9 8.05 16.9 Q7.8 16.9 7.65 16.4 L7.5 15.95 M9.6 13.2 L9.4 13.6 9.2 14.15 9.2 14.2 8.85 14.15 Q8.9 13.75 9.6 13.2" fill="#c8c8c8" fill-rule="evenodd" stroke="none"/>
      <path d="M9.75 13.7 L9.75 13.55 10.25 13.45 11.45 13.35 12.5 13.55 12.7 13.95 12.35 14.6 12.15 15.2 12.05 16.55 12.15 17.45 12.55 18.25 12.45 18.75 11.95 18.75 Q10.15 18.9 9.85 18.45 L9.45 17.65 9.15 16.0 9.55 14.1 9.7 13.95 9.75 13.7 M9.75 17.7 L9.95 17.9 10.85 18.0 11.35 17.95 11.35 17.25 Q11.2 16.8 11.2 15.8 L11.25 14.75 11.3 14.25 Q11.25 13.8 10.75 13.8 L10.15 13.9 Q9.7 14.1 9.7 14.3 L9.55 16.15 9.75 17.7" fill="#b17a56" fill-rule="evenodd" stroke="none"/>
      <path d="M9.15 14.5 L8.8 14.5 8.55 14.1 Q8.55 13.8 9.1 13.1 9.65 12.55 10.15 12.4 10.35 12.1 11.1 11.95 12.6 11.8 12.8 12.65 L12.55 13.2 12.2 13.3 12.15 13.1 12.2 13.0 11.55 12.95 9.8 13.05 9.6 13.2 Q8.9 13.75 8.85 14.15 L9.2 14.2 9.25 14.35 9.2 14.5 9.15 14.5" fill="#dddddd" fill-rule="evenodd" stroke="none"/>
      <path d="M15.3 13.1 L15.6 13.35 16.15 14.15 Q15.6 14.2 15.55 14.7 L15.45 15.4 15.4 16.9 15.4 17.4 Q15.5 17.85 15.85 17.85 L16.0 17.85 15.6 18.5 14.6 19.7 Q12.95 20.45 11.5 20.5 L11.15 20.4 11.05 20.45 10.45 20.3 9.9 19.9 9.75 19.9 9.25 19.6 8.05 18.4 Q7.45 17.05 7.45 16.1 L7.5 15.95 7.65 16.4 Q7.8 16.9 8.05 16.9 L8.2 16.9 8.35 16.95 9.0 16.95 9.15 17.8 9.25 18.25 9.6 18.7 10.3 19.1 10.95 19.05 12.2 19.1 Q12.85 19.1 12.85 18.25 L12.6 17.5 Q12.35 17.15 12.35 16.55 L12.35 16.4 12.6 16.45 13.15 16.25 13.55 16.1 13.7 16.0 14.7 15.35 Q15.45 14.75 15.45 13.9 L15.3 13.1" fill="#848484" fill-rule="evenodd" stroke="none"/>
      <path d="M10.05 17.55 L9.85 16.1 10.0 14.8 Q10.0 14.4 10.4 14.2 10.95 14.15 11.0 14.4 L10.95 14.7 10.65 14.65 10.4 14.7 10.4 14.95 10.65 15.0 10.95 15.0 10.9 15.5 10.8 15.45 Q10.4 15.45 10.4 15.75 L10.45 15.85 10.9 15.85 10.9 16.05 10.9 16.45 Q10.6 16.4 10.5 16.65 L10.55 16.8 10.95 16.8 11.05 17.4 11.05 17.65 10.65 17.65 10.05 17.55" fill="#5c3f2c" fill-rule="evenodd" stroke="none"/>
      <path d="M16.3 14.55 L16.45 15.05 16.5 15.9 16.35 17.15 16.25 17.35 16.25 17.3 16.2 17.15 Q16.0 17.15 15.75 17.4 L15.7 17.35 15.85 14.95 15.85 14.65 Q15.9 14.5 16.3 14.45 L16.3 14.55" fill="#f70000" fill-rule="evenodd" stroke="none"/>
      <path d="M14.95 8.65 L15.0 8.8 14.95 8.95 13.85 9.1 12.85 9.2 11.7 9.45 11.1 9.6 10.65 9.95 10.1 9.95 10.05 9.8 Q10.05 9.65 11.7 9.1 L12.75 8.9 12.85 8.85 12.95 8.85 14.25 8.7 14.45 8.65 14.95 8.65 M17.15 21.85 L17.35 21.85 17.4 22.0 Q17.4 22.2 16.95 22.2 L16.2 22.1 15.25 22.7 15.0 22.7 14.95 22.55 Q14.95 22.4 15.1 22.4 L15.5 22.25 15.85 21.9 Q16.0 21.65 16.35 21.75 L17.15 21.85" fill="#ffffff" fill-rule="evenodd" stroke="none"/>
      <path d="M16.7 21.1 Q14.6 19.0 14.6 16.0 14.6 13.0 16.7 10.85 18.85 8.75 21.85 8.75 24.85 8.75 26.95 10.85 29.1 13.0 29.1 16.0 29.1 19.0 26.95 21.1 24.85 23.25 21.85 23.25 18.85 23.25 16.7 21.1" fill="url(#gradient1)" fill-rule="evenodd" stroke="none"/>
    </g>
    <radialGradient cx="0" cy="0" gradientTransform="matrix(0.0096, 0.0, 0.0, 0.0096, 21.85, 16.0)" gradientUnits="userSpaceOnUse" id="gradient1" r="819.2" spreadMethod="pad">
      <stop offset="0.1607843137254902" stop-color="#ffffff" stop-opacity="0.92156863"/>
      <stop offset="0.30196078431372547" stop-color="#fd1313" stop-opacity="0.87058824"/>
      <stop offset="0.8705882352941177" stop-color="#e60000" stop-opacity="0.0"/>
    </radialGradient>
    <g id="button3" transform="matrix(1.0, 0.0, 0.0, 1.0, 0.5, 0.5)">
      <use height="34.0" transform="matrix(1.0, 0.0, 0.0, 1.0, -0.5, -0.5)" width="34.0" xlink:href="#shape0"/>
      <use height="32.3" transform="matrix(1.0, 0.0, 0.0, 1.0, 0.6, 0.3)" width="32.1" xlink:href="#shape4"/>
      <use height="14.5" transform="matrix(1.0, 0.0, 0.0, 1.0, 16.05, 9.6)" width="14.5" xlink:href="#sprite0"/>
      <use height="14.5" transform="matrix(0.4138, 0.0, 0.0, 0.4138, 12.2, 2.35)" width="14.5" xlink:href="#sprite0"/>
      <use height="14.5" transform="matrix(0.4138, 0.0, 0.0, 0.4138, 11.9, 25.0)" width="14.5" xlink:href="#sprite0"/>
    </g>
    <g id="shape4" transform="matrix(1.0, 0.0, 0.0, 1.0, -0.6, -0.3)">
      <path d="M29.85 0.7 L29.7 1.1 29.6 1.25 29.05 2.1 28.6 1.8 28.6 1.45 28.85 0.8 Q28.9 0.35 29.3 0.35 L29.4 0.4 Q29.85 0.1 29.85 0.7 M1.25 2.6 Q0.8 2.6 0.7 2.2 L0.7 1.7 Q0.7 1.15 1.45 0.65 2.2 0.2 2.2 0.95 L1.25 2.6 M1.85 29.35 L1.55 29.85 1.0 30.25 Q0.6 30.25 0.6 29.8 0.6 29.5 0.9 29.25 1.3 28.9 1.8 29.1 L1.85 29.35 M29.95 29.35 L29.8 29.95 29.4 30.25 Q28.95 30.25 28.95 29.8 28.95 29.4 29.45 29.0 29.95 28.55 29.95 29.35" fill="#ff6666" fill-rule="evenodd" stroke="none"/>
      <path d="M32.7 3.95 L32.7 4.35 31.45 4.6 Q30.2 4.6 30.2 4.2 30.2 3.9 30.7 3.65 L31.35 2.95 Q31.15 2.6 31.45 2.15 31.8 1.75 32.3 1.95 L32.7 3.95 M4.2 2.5 Q4.2 4.6 2.45 4.6 L2.05 4.55 Q1.95 4.05 2.1 3.9 L1.7 3.5 Q1.7 3.05 3.35 3.05 L3.9 2.1 Q4.2 1.65 4.2 2.5 M3.6 30.35 Q3.7 30.0 4.3 30.1 L4.35 32.05 Q4.25 32.6 3.75 32.6 L1.6 32.45 Q1.45 32.4 1.45 32.15 2.65 30.7 3.6 30.85 L3.6 30.35 M32.25 32.5 L31.25 32.5 30.25 32.5 29.85 32.05 30.05 31.8 31.3 31.25 31.2 30.65 Q31.2 30.25 31.55 29.8 31.95 29.25 32.25 29.95 L32.45 31.75 32.25 32.5" fill="#660000" fill-rule="evenodd" stroke="none"/>
      <path d="M22.65 9.9 L23.65 10.15 25.0 10.5 Q25.9 10.75 26.15 11.0 L26.25 11.25 26.1 11.3 26.0 11.3 25.95 11.3 25.2 10.95 25.05 10.95 24.6 10.85 22.95 10.75 21.95 10.9 21.25 11.0 19.25 11.35 18.1 11.95 17.4 12.5 17.1 11.6 Q16.8 11.0 15.8 11.0 L15.35 11.0 15.3 11.15 Q15.2 11.25 15.05 11.3 14.9 11.4 14.9 11.75 L15.2 12.2 15.55 12.5 15.75 12.8 16.25 13.0 16.5 13.2 17.5 14.15 18.1 15.35 18.25 15.65 18.25 15.9 18.2 15.9 18.25 16.75 Q18.25 18.3 17.25 19.6 L16.8 20.3 16.3 20.75 16.5 20.75 16.25 20.95 15.75 21.15 15.55 21.45 15.2 21.75 14.9 22.2 15.05 22.65 15.3 22.8 15.35 22.95 15.8 22.95 Q16.8 22.95 17.1 22.35 17.2 21.75 17.4 21.45 L18.1 22.0 19.25 22.6 21.25 22.95 21.95 23.05 22.95 23.2 24.6 23.1 25.05 23.0 25.2 23.0 25.95 22.65 26.0 22.65 26.1 22.65 26.25 22.7 26.15 22.95 Q25.9 23.2 25.0 23.45 L23.65 23.8 22.65 24.05 21.8 24.3 20.15 24.5 18.35 24.9 17.15 24.8 15.85 24.75 14.65 24.7 12.8 24.35 12.25 24.15 12.15 24.5 Q12.0 24.55 11.95 24.4 L11.9 24.45 11.6 25.3 11.25 27.2 11.6 29.45 12.1 30.4 12.4 30.9 12.6 31.15 12.7 31.4 12.65 31.65 12.55 31.6 12.55 31.65 11.95 31.3 11.7 31.05 11.3 30.75 10.35 29.65 Q9.25 28.3 9.0 27.55 L8.6 26.45 8.45 25.3 Q8.15 23.85 8.15 22.95 L8.15 22.9 8.05 22.75 8.1 22.65 8.35 22.65 8.9 22.85 9.4 22.55 9.65 22.25 9.95 21.35 9.75 20.95 9.5 20.75 8.65 20.45 8.3 20.2 Q8.3 20.1 8.8 19.9 L9.35 19.7 9.3 19.65 8.8 18.45 7.2 17.95 6.5 17.85 6.15 17.7 5.05 17.45 2.75 16.6 2.1 16.4 2.05 16.4 2.05 16.35 1.95 16.25 2.0 16.05 2.2 16.15 2.75 16.15 3.45 15.95 4.65 15.75 5.75 15.6 6.6 15.45 8.05 15.35 8.8 15.2 9.0 15.2 Q9.2 14.5 9.55 14.15 L9.65 14.05 9.35 13.9 8.75 13.65 8.25 13.35 Q8.25 13.25 8.6 13.1 L9.45 12.8 9.7 12.6 9.9 12.2 9.6 11.3 9.35 11.0 8.85 10.7 8.3 10.9 8.05 10.9 8.0 10.8 8.1 10.65 8.1 10.6 Q8.1 9.7 8.4 8.25 L8.55 7.1 8.95 6.0 Q9.2 5.25 10.3 3.9 L11.25 2.8 11.65 2.5 11.9 2.25 12.5 1.9 12.5 1.95 12.6 1.9 12.65 2.15 12.55 2.4 12.35 2.65 12.05 3.15 11.55 4.1 Q11.2 5.85 11.2 6.35 L11.55 8.25 11.85 9.1 11.9 9.15 Q11.95 9.0 12.1 9.05 L12.4 9.75 12.8 9.6 14.65 9.25 15.85 9.2 17.15 9.15 18.35 9.05 20.15 9.45 21.8 9.65 22.65 9.9 M14.2 9.75 L12.85 9.9 11.65 10.3 11.55 10.4 11.0 10.5 10.9 10.55 11.25 10.7 11.4 10.9 11.5 11.05 11.65 11.25 11.8 11.5 11.85 11.95 11.85 12.2 11.7 12.6 11.8 12.55 12.6 12.25 12.75 12.25 13.3 12.15 13.4 12.15 14.05 12.25 14.55 12.35 15.05 12.55 14.6 11.75 Q14.6 11.25 14.8 11.05 L15.2 10.7 15.8 10.65 Q16.85 10.65 17.25 11.25 L17.5 11.9 17.55 11.95 Q18.7 11.05 19.55 10.9 L21.6 10.6 23.15 10.4 23.55 10.4 22.4 10.1 21.5 9.95 20.6 9.9 20.05 9.75 19.45 9.6 18.15 9.4 17.0 9.5 16.4 9.55 16.4 9.5 15.9 9.5 15.65 9.55 14.75 9.55 14.4 9.7 14.3 9.7 14.2 9.75 M18.6 22.7 L17.55 22.0 17.5 22.05 17.25 22.7 Q16.85 23.3 15.8 23.3 L15.2 23.25 14.8 22.9 14.6 22.2 Q14.6 21.85 15.05 21.4 L14.55 21.6 13.85 21.75 13.35 21.8 12.95 21.8 12.7 21.75 12.6 21.7 12.55 21.7 12.45 21.65 11.95 21.45 11.75 21.45 11.85 21.65 11.85 22.0 11.8 22.45 11.75 22.6 11.5 22.9 11.5 22.95 11.25 23.25 10.9 23.4 11.0 23.45 11.65 23.65 12.85 24.05 14.35 24.25 14.75 24.4 17.0 24.45 18.15 24.55 19.45 24.35 20.05 24.2 20.6 24.05 21.5 24.0 22.4 23.85 23.55 23.55 23.15 23.55 21.6 23.35 19.55 23.05 18.85 22.85 18.8 22.7 18.6 22.7 M11.8 2.85 L11.9 2.75 11.75 2.85 11.45 3.15 10.5 4.15 9.2 6.3 8.95 6.9 8.8 7.45 8.7 8.55 8.5 10.45 8.9 10.35 Q9.3 10.35 9.7 10.75 L9.95 11.2 10.2 12.15 9.95 12.85 9.1 13.3 9.0 13.35 9.4 13.55 9.8 13.7 9.9 13.75 10.85 13.05 11.0 13.0 11.25 12.6 11.5 12.25 11.45 12.15 11.4 11.6 11.2 11.2 Q11.05 10.95 10.3 10.75 L10.15 10.7 10.15 10.4 10.4 10.4 10.55 10.2 11.25 10.1 11.65 10.0 11.8 9.95 11.6 9.55 11.65 9.4 Q10.9 8.05 10.9 6.35 10.9 5.65 11.25 4.0 L11.8 2.85 M16.75 13.95 L16.3 13.5 16.25 13.55 16.15 13.45 16.1 13.45 15.7 13.2 15.6 13.1 14.85 12.8 13.4 12.55 13.15 12.5 13.15 12.55 12.95 12.6 12.6 12.7 12.55 12.7 12.45 12.6 Q12.35 12.6 12.2 12.7 L11.85 12.9 11.35 13.2 11.1 13.35 Q10.65 13.65 10.35 13.9 L9.95 14.2 9.6 14.55 9.4 15.3 9.2 15.8 9.1 16.25 8.95 16.25 8.95 16.8 8.9 16.95 9.1 18.15 9.15 18.35 9.5 19.25 9.7 19.5 9.95 19.8 10.7 20.45 11.2 20.75 11.35 20.75 11.7 21.0 11.9 21.15 12.5 21.3 12.6 21.25 12.75 21.3 12.8 21.3 12.95 21.35 13.8 21.3 13.85 21.3 14.1 21.25 16.05 20.55 17.05 19.35 17.45 18.7 17.3 18.7 Q16.95 18.7 16.85 18.25 L16.85 17.75 16.9 16.25 17.0 15.55 Q17.05 15.05 17.6 15.0 L17.05 14.2 16.75 13.95 M10.45 17.8 L10.5 17.8 10.5 17.55 10.45 17.5 10.4 17.5 10.25 16.8 10.4 16.2 10.6 15.35 10.65 15.35 10.7 15.2 10.65 15.05 10.65 15.0 10.85 14.45 10.9 14.3 11.05 14.05 11.2 13.95 11.25 13.9 11.3 13.9 11.8 13.9 13.0 13.8 13.65 13.85 13.6 13.95 13.65 14.15 14.0 14.05 Q14.5 14.4 14.5 14.8 L14.25 15.45 13.95 16.0 13.85 16.9 13.7 17.1 13.8 17.25 13.8 17.4 Q13.8 18.0 14.05 18.35 L14.3 19.1 Q14.3 19.95 13.65 19.95 L12.4 19.9 12.1 19.95 11.75 19.95 11.6 19.95 11.1 19.6 11.05 19.55 10.95 19.3 10.7 19.1 10.6 18.65 10.45 17.8 M8.65 15.25 L8.65 15.55 8.7 15.6 8.15 15.65 7.4 15.65 6.7 15.8 5.85 15.9 4.7 16.1 4.0 16.2 Q3.9 16.2 3.55 16.35 L3.15 16.45 5.1 17.1 8.7 18.0 8.6 16.9 8.9 15.5 9.0 15.25 8.65 15.25 M10.2 23.25 L10.3 23.2 11.2 22.75 11.4 22.35 11.4 22.3 11.5 21.7 11.25 21.35 11.1 21.1 10.6 20.8 10.2 20.5 9.6 19.95 9.45 20.0 9.05 20.2 9.15 20.25 10.0 20.7 10.25 21.4 10.0 22.35 9.75 22.8 Q9.35 23.2 8.95 23.2 L8.55 23.1 8.75 25.0 8.85 26.1 9.0 26.65 9.25 27.25 10.55 29.4 11.5 30.4 11.8 30.7 11.95 30.8 11.85 30.7 11.3 29.55 Q10.95 27.9 10.95 27.2 10.95 25.5 11.7 24.15 L11.65 24.0 11.65 23.95 11.25 23.85 10.55 23.75 10.4 23.55 10.15 23.55 10.15 23.3 10.15 23.25 10.2 23.25 M17.75 15.4 L17.75 15.3 17.7 15.3 Q17.35 15.35 17.3 15.5 L17.3 15.8 17.15 18.2 17.2 18.25 Q17.45 18.0 17.65 18.0 L17.7 18.15 17.7 18.2 17.8 18.0 17.95 16.75 17.9 15.9 17.75 15.4 M13.95 14.4 L12.9 14.2 11.7 14.3 11.3 14.4 11.2 14.4 11.2 14.55 11.15 14.8 11.0 14.95 10.6 16.85 10.9 18.5 11.3 19.3 11.7 19.55 13.4 19.6 13.9 19.6 14.0 19.1 13.6 18.3 13.5 17.4 13.6 16.05 13.8 15.45 14.15 14.8 13.95 14.4 M11.85 15.05 Q11.45 15.25 11.45 15.65 L11.3 16.95 11.5 18.4 12.1 18.5 12.5 18.5 12.5 18.25 12.4 17.65 12.0 17.65 11.95 17.5 Q12.05 17.25 12.35 17.3 L12.35 16.9 12.35 16.7 11.9 16.7 11.85 16.6 Q11.85 16.3 12.25 16.3 L12.35 16.35 12.4 15.85 12.1 15.85 11.85 15.8 11.85 15.55 12.1 15.5 12.4 15.55 12.45 15.25 Q12.4 15.0 11.85 15.05 M12.2 14.65 Q12.7 14.65 12.75 15.1 L12.7 15.6 12.65 16.65 Q12.65 17.65 12.8 18.1 L12.8 18.8 12.3 18.85 11.4 18.75 11.2 18.55 11.0 17.0 11.15 15.15 11.6 14.75 12.2 14.65" fill="#000000" fill-rule="evenodd" stroke="none"/>
      <path d="M16.4 9.55 L17.0 9.5 18.15 9.4 19.45 9.6 20.05 9.75 20.6 9.9 21.5 9.95 22.4 10.1 23.55 10.4 23.15 10.4 21.6 10.6 19.55 10.9 Q18.7 11.05 17.55 11.95 L17.5 11.9 17.25 11.25 Q16.85 10.65 15.8 10.65 L15.2 10.7 14.8 11.05 Q14.6 11.25 14.6 11.75 L15.05 12.55 14.55 12.35 14.05 12.25 13.4 12.15 13.3 12.15 12.75 12.25 12.6 12.25 11.8 12.55 11.7 12.6 11.85 12.2 11.85 11.95 11.8 11.5 11.65 11.25 11.5 11.05 11.4 10.9 11.25 10.7 10.9 10.55 11.0 10.5 11.55 10.4 11.65 10.3 12.85 9.9 14.2 9.75 13.15 9.95 Q11.5 10.5 11.5 10.65 L11.55 10.8 12.1 10.8 12.55 10.45 13.15 10.3 14.3 10.05 15.3 9.95 16.4 9.8 16.45 9.65 16.4 9.55 M14.4 9.7 L14.75 9.55 15.65 9.55 14.4 9.7 M18.85 22.85 L19.55 23.05 21.6 23.35 23.15 23.55 23.55 23.55 22.4 23.85 21.5 24.0 20.6 24.05 20.05 24.2 19.45 24.35 18.15 24.55 17.0 24.45 14.75 24.4 14.35 24.25 12.85 24.05 11.65 23.65 11.0 23.45 10.9 23.4 11.25 23.25 11.5 22.95 11.5 22.9 11.75 22.6 11.8 22.45 11.85 22.0 11.85 21.65 11.75 21.45 11.95 21.45 12.45 21.65 12.55 21.7 12.6 21.7 12.7 21.75 12.95 21.8 13.35 21.8 13.85 21.75 14.55 21.6 15.05 21.4 Q14.6 21.85 14.6 22.2 L14.8 22.9 15.2 23.25 15.8 23.3 Q16.85 23.3 17.25 22.7 L17.5 22.05 17.55 22.0 18.6 22.7 17.8 22.6 Q17.45 22.5 17.3 22.75 L16.95 23.1 16.55 23.25 Q16.4 23.25 16.4 23.4 L16.45 23.55 16.7 23.55 17.65 22.95 18.4 23.05 Q18.85 23.05 18.85 22.85 M11.75 2.85 L11.8 2.85 11.25 4.0 Q10.9 5.65 10.9 6.35 10.9 8.05 11.65 9.4 L11.6 9.55 11.8 9.95 11.65 10.0 11.25 10.1 10.55 10.2 10.4 10.4 10.15 10.4 10.15 10.7 10.3 10.75 Q11.05 10.95 11.2 11.2 L11.4 11.6 11.45 12.15 11.5 12.25 11.25 12.6 11.0 13.0 10.85 13.05 9.9 13.75 9.8 13.7 9.4 13.55 9.0 13.35 9.1 13.3 9.95 12.85 10.2 12.15 9.95 11.2 9.7 10.75 Q9.3 10.35 8.9 10.35 L8.5 10.45 8.7 8.55 8.8 7.45 8.95 6.9 9.2 6.3 10.5 4.15 11.45 3.15 11.75 2.85 M10.5 5.1 L10.8 4.7 11.05 4.3 11.0 4.15 Q10.5 4.25 10.3 4.8 L9.9 5.55 9.5 6.4 9.25 7.2 9.3 7.55 9.55 7.5 10.05 5.9 10.5 5.1 M8.65 15.25 L9.0 15.25 8.9 15.5 8.6 16.9 8.7 18.0 5.1 17.1 3.15 16.45 3.55 16.35 Q3.9 16.2 4.0 16.2 L4.7 16.1 5.85 15.9 6.7 15.8 7.4 15.65 8.15 15.65 8.7 15.6 8.65 15.55 8.65 15.25 M6.5 16.0 L5.45 16.1 4.9 16.15 Q4.55 16.15 4.35 16.35 L4.35 16.65 4.65 16.65 4.75 16.6 4.7 16.55 5.3 16.45 6.3 16.4 6.5 16.35 7.7 16.0 7.65 15.85 6.5 16.0 M11.8 30.7 L11.5 30.4 10.55 29.4 9.25 27.25 9.0 26.65 8.85 26.1 8.75 25.0 8.55 23.1 8.95 23.2 Q9.35 23.2 9.75 22.8 L10.0 22.35 10.25 21.4 10.0 20.7 9.15 20.25 9.05 20.2 9.45 20.0 9.6 19.95 10.2 20.5 10.6 20.8 11.1 21.1 11.25 21.35 11.5 21.7 11.4 22.3 11.4 22.35 11.2 22.75 10.3 23.2 10.2 23.25 Q10.7 22.8 10.7 22.2 L10.65 22.0 10.35 22.1 10.35 22.35 10.15 22.7 Q10.05 23.35 9.2 23.35 L8.65 23.3 8.65 23.65 9.15 23.7 Q9.7 23.7 10.15 23.3 L10.15 23.55 10.4 23.55 10.55 23.75 11.25 23.85 11.65 23.95 11.65 24.0 11.7 24.15 Q10.95 25.5 10.95 27.2 10.95 27.9 11.3 29.55 L11.85 30.7 11.8 30.7 M11.35 24.1 Q10.95 24.0 10.95 24.55 L11.1 24.9 11.2 24.85 11.25 24.6 11.4 24.25 11.35 24.1" fill="#333333" fill-rule="evenodd" stroke="none"/>
      <path d="M16.4 9.55 L16.45 9.65 16.4 9.8 15.3 9.95 14.3 10.05 13.15 10.3 12.55 10.45 12.1 10.8 11.55 10.8 11.5 10.65 Q11.5 10.5 13.15 9.95 L14.2 9.75 14.3 9.7 14.4 9.7 15.65 9.55 15.9 9.5 16.4 9.5 16.4 9.55 M18.6 22.7 L18.8 22.7 18.85 22.85 Q18.85 23.05 18.4 23.05 L17.65 22.95 16.7 23.55 16.45 23.55 16.4 23.4 Q16.4 23.25 16.55 23.25 L16.95 23.1 17.3 22.75 Q17.45 22.5 17.8 22.6 L18.6 22.7 M10.5 5.1 L10.05 5.9 9.55 7.5 9.3 7.55 9.25 7.2 9.5 6.4 9.9 5.55 10.3 4.8 Q10.5 4.25 11.0 4.15 L11.05 4.3 10.8 4.7 10.5 5.1 M6.5 16.0 L7.65 15.85 7.7 16.0 6.5 16.35 6.3 16.4 5.3 16.45 4.7 16.55 4.75 16.6 4.65 16.65 4.35 16.65 4.35 16.35 Q4.55 16.15 4.9 16.15 L5.45 16.1 6.5 16.0 M10.2 23.25 L10.15 23.25 10.15 23.3 Q9.7 23.7 9.15 23.7 L8.65 23.65 8.65 23.3 9.2 23.35 Q10.05 23.35 10.15 22.7 L10.35 22.35 10.35 22.1 10.65 22.0 10.7 22.2 Q10.7 22.8 10.2 23.25 M11.35 24.1 L11.4 24.25 11.25 24.6 11.2 24.85 11.1 24.9 10.95 24.55 Q10.95 24.0 11.35 24.1" fill="#ffffff" fill-rule="evenodd" stroke="none"/>
      <path d="M8.95 16.8 L8.95 16.25 9.1 16.25 9.2 15.8 9.4 15.3 9.6 14.55 9.95 14.2 10.35 13.9 Q10.65 13.65 11.1 13.35 L11.35 13.2 11.85 12.9 12.2 12.7 Q12.35 12.6 12.45 12.6 L12.55 12.7 12.6 12.7 12.95 12.6 13.15 12.55 13.15 12.5 13.4 12.55 14.85 12.8 15.6 13.1 15.7 13.2 16.1 13.45 16.15 13.45 16.25 13.55 16.3 13.5 16.75 13.95 16.9 14.75 Q16.9 15.6 16.15 16.2 L15.15 16.85 15.0 16.95 14.6 17.1 14.05 17.3 13.8 17.25 13.7 17.1 13.85 16.9 13.95 16.0 14.25 15.45 14.5 14.8 Q14.5 14.4 14.0 14.05 L14.25 13.5 Q14.05 12.75 12.9 12.8 L12.55 12.8 12.35 12.85 12.3 12.9 11.95 13.0 11.6 13.25 10.6 13.9 10.55 13.95 10.35 14.2 Q10.0 14.7 10.0 14.95 L10.25 15.35 10.6 15.35 10.4 16.2 10.25 16.8 10.4 17.5 10.45 17.5 10.5 17.55 10.5 17.8 10.45 17.8 9.8 17.8 9.65 17.75 9.5 17.75 Q9.25 17.75 9.1 17.25 L8.95 16.8 M11.05 14.05 L10.9 14.3 10.85 14.45 10.65 15.0 10.65 15.05 10.3 15.0 10.8 14.25 11.05 14.05" fill="#c8c8c8" fill-rule="evenodd" stroke="none"/>
      <path d="M16.75 13.95 L17.05 14.2 17.6 15.0 Q17.05 15.05 17.0 15.55 L16.9 16.25 16.85 17.75 16.85 18.25 Q16.95 18.7 17.3 18.7 L17.45 18.7 17.05 19.35 16.05 20.55 14.1 21.25 13.85 21.3 13.8 21.3 12.95 21.35 12.8 21.3 12.75 21.3 12.6 21.25 12.5 21.3 11.9 21.15 11.7 21.0 11.35 20.75 11.2 20.75 10.7 20.45 9.95 19.8 9.7 19.5 9.5 19.25 9.15 18.35 9.1 18.15 8.9 16.95 8.95 16.8 9.1 17.25 Q9.25 17.75 9.5 17.75 L9.65 17.75 9.8 17.8 10.45 17.8 10.6 18.65 10.7 19.1 10.95 19.3 11.05 19.55 11.1 19.6 11.6 19.95 11.75 19.95 12.1 19.95 12.4 19.9 13.65 19.95 Q14.3 19.95 14.3 19.1 L14.05 18.35 Q13.8 18.0 13.8 17.4 L13.8 17.25 14.05 17.3 14.6 17.1 15.0 16.95 15.15 16.85 16.15 16.2 Q16.9 15.6 16.9 14.75 L16.75 13.95" fill="#848484" fill-rule="evenodd" stroke="none"/>
      <path d="M17.7 15.3 L17.75 15.3 17.75 15.4 17.7 15.3" fill="#f70000" fill-rule="evenodd" stroke="none"/>
      <path d="M17.7 15.3 L17.75 15.4 17.9 15.9 17.95 16.75 17.8 18.0 17.7 18.2 17.7 18.15 17.65 18.0 Q17.45 18.0 17.2 18.25 L17.15 18.2 17.3 15.8 17.3 15.5 Q17.35 15.35 17.7 15.3" fill="#0099ff" fill-rule="evenodd" stroke="none"/>
      <path d="M10.6 15.35 L10.25 15.35 10.0 14.95 Q10.0 14.7 10.35 14.2 L10.55 13.95 10.6 13.9 11.6 13.25 11.95 13.0 12.3 12.9 12.35 12.85 12.55 12.8 12.9 12.8 Q14.05 12.75 14.25 13.5 L14.0 14.05 13.65 14.15 13.6 13.95 13.65 13.85 13.0 13.8 11.8 13.9 11.3 13.9 11.25 13.9 11.2 13.95 11.05 14.05 10.8 14.25 10.3 15.0 10.65 15.05 10.7 15.2 10.65 15.35 10.6 15.35" fill="#dddddd" fill-rule="evenodd" stroke="none"/>
      <path d="M13.95 14.4 L14.15 14.8 13.8 15.45 13.6 16.05 13.5 17.4 13.6 18.3 14.0 19.1 13.9 19.6 13.4 19.6 11.7 19.55 11.3 19.3 10.9 18.5 10.6 16.85 11.0 14.95 11.15 14.8 11.2 14.55 11.2 14.4 11.3 14.4 11.7 14.3 12.9 14.2 13.95 14.4 M12.2 14.65 L11.6 14.75 11.15 15.15 11.0 17.0 11.2 18.55 11.4 18.75 12.3 18.85 12.8 18.8 12.8 18.1 Q12.65 17.65 12.65 16.65 L12.7 15.6 12.75 15.1 Q12.7 14.65 12.2 14.65" fill="#b17a56" fill-rule="evenodd" stroke="none"/>
      <path d="M11.85 15.05 Q12.4 15.0 12.45 15.25 L12.4 15.55 12.1 15.5 11.85 15.55 11.85 15.8 12.1 15.85 12.4 15.85 12.35 16.35 12.25 16.3 Q11.85 16.3 11.85 16.6 L11.9 16.7 12.35 16.7 12.35 16.9 12.35 17.3 Q12.05 17.25 11.95 17.5 L12.0 17.65 12.4 17.65 12.5 18.25 12.5 18.5 12.1 18.5 11.5 18.4 11.3 16.95 11.45 15.65 Q11.45 15.25 11.85 15.05" fill="#5c3f2c" fill-rule="evenodd" stroke="none"/>
    </g>
    <g id="sprite0" transform="matrix(1.0, 0.0, 0.0, 1.0, 7.25, 7.25)">
      <use height="14.5" transform="matrix(1.0, 0.0, 0.0, 1.0, -7.25, -7.25)" width="14.5" xlink:href="#shape5"/>
    </g>
    <g id="shape5" transform="matrix(1.0, 0.0, 0.0, 1.0, 7.25, 7.25)">
      <path d="M5.1 -5.15 Q7.25 -3.0 7.25 0.0 7.25 3.0 5.1 5.1 3.0 7.25 0.0 7.25 -3.0 7.25 -5.15 5.1 -7.25 3.0 -7.25 0.0 -7.25 -3.0 -5.15 -5.15 -3.0 -7.25 0.0 -7.25 3.0 -7.25 5.1 -5.15" fill="url(#gradient2)" fill-rule="evenodd" stroke="none"/>
    </g>
    <radialGradient cx="0" cy="0" gradientTransform="matrix(0.0096, 0.0, 0.0, 0.0096, 0.0, 0.0)" gradientUnits="userSpaceOnUse" id="gradient2" r="819.2" spreadMethod="pad">
      <stop offset="0.1607843137254902" stop-color="#ffffff" stop-opacity="0.92156863"/>
      <stop offset="0.30196078431372547" stop-color="#11a0ff" stop-opacity="0.87058824"/>
      <stop offset="0.8705882352941177" stop-color="#0017e6" stop-opacity="0.0"/>
    </radialGradient>
  </defs>
</svg>
