<?xml version="1.0" encoding="UTF-8" standalone="no"?>
<svg xmlns:xlink="http://www.w3.org/1999/xlink" height="234.0px" width="255.6px" xmlns="http://www.w3.org/2000/svg">
  <g transform="matrix(6.0, 0.0, 0.0, 6.0, 190.8, 187.5)">
    <use height="16.85" transform="matrix(1.0, 0.0, 0.0, 1.0, -1.1, -10.25)" width="10.8" xlink:href="#shape0"/>
    <use height="10.7" transform="matrix(0.9916, -0.1334, 0.1334, 0.9916, -5.6384, -4.2968)" width="10.55" xlink:href="#shape1"/>
    <use height="33.3" transform="matrix(0.9971, -0.0736, 0.0736, 0.9971, -4.4956, -30.2998)" width="8.6" xlink:href="#shape2"/>
    <use height="5.1" transform="matrix(1.0, 0.0, 0.0, 1.0, 5.4, -2.55)" width="5.4" xlink:href="#shape3"/>
  </g>
  <defs>
    <g id="shape0" transform="matrix(1.0, 0.0, 0.0, 1.0, 1.1, 10.25)">
      <path d="M9.3 -0.05 L9.4 2.15 9.4 2.45 9.7 3.25 9.6 3.85 9.65 3.9 9.7 3.95 9.7 4.05 8.75 4.2 8.7 4.15 8.55 4.1 9.0 4.55 9.05 4.5 9.15 4.5 9.1 4.55 9.15 4.6 9.1 4.65 9.15 4.7 9.1 4.75 9.0 4.85 7.15 6.6 7.05 6.6 7.0 6.45 7.2 6.25 0.8 -0.05 0.6 -0.05 0.6 -0.15 0.55 -0.2 0.45 -0.3 -0.9 -1.75 -1.0 -1.85 -1.1 -1.95 -1.05 -2.0 -0.95 -2.0 -0.85 -2.2 -0.75 -2.3 -0.55 -2.5 -0.65 -2.6 -0.65 -2.7 -0.6 -2.75 -0.45 -2.7 -0.4 -2.65 3.45 -6.5 4.5 -7.55 3.65 -7.8 Q3.25 -8.0 3.1 -8.45 2.8 -9.45 3.8 -9.95 L3.95 -10.1 4.5 -10.15 5.2 -9.95 5.8 -9.15 5.85 -9.1 5.8 -9.05 5.7 -8.75 6.3 -9.35 6.35 -9.3 6.45 -9.3 6.4 -9.25 6.45 -9.2 6.4 -9.15 6.55 -9.1 7.85 -7.7 7.95 -7.7 7.95 -7.6 8.05 -7.5 8.0 -7.45 7.9 -7.35 7.8 -7.45 6.95 -6.5 8.4 -6.25 8.45 -6.2 8.55 -6.2 Q8.5 -3.65 9.15 -1.1 L9.3 -0.05 M9.35 3.9 L9.35 3.3 9.4 3.25 Q9.0 2.25 9.05 1.1 L8.6 -1.95 Q8.35 -3.2 8.35 -4.4 L8.35 -5.4 8.35 -6.0 6.75 -6.3 6.5 -6.05 6.55 -6.1 6.6 -6.05 6.55 -5.7 6.6 -5.65 Q6.55 -2.6 6.9 0.45 7.1 1.45 6.95 2.5 L8.2 3.75 8.25 3.8 8.25 3.7 8.6 3.85 9.05 3.8 9.0 3.85 9.35 3.9 9.4 3.95 9.35 3.9 M6.3 -5.45 L6.35 -5.9 3.8 -3.35 2.5 -2.05 2.55 -2.0 6.7 2.25 6.3 -3.65 6.3 -5.45 M2.3 -1.85 L0.75 -0.4 0.85 -0.3 7.3 6.15 Q8.0 5.35 8.85 4.7 L2.35 -1.8 2.3 -1.85 M6.4 -8.95 L6.35 -8.9 6.3 -8.85 5.7 -8.25 5.65 -8.1 5.55 -7.9 5.05 -7.7 2.05 -4.7 -0.25 -2.5 1.1 -1.05 4.7 -4.65 7.7 -7.55 6.4 -8.95 M4.75 -9.7 L4.65 -9.9 4.3 -9.85 4.1 -9.85 3.5 -9.45 3.25 -9.1 Q3.2 -8.25 4.05 -7.8 L4.9 -7.95 5.4 -8.45 5.4 -8.55 5.45 -8.9 5.5 -9.15 5.1 -9.55 4.95 -9.7 4.8 -9.75 4.75 -9.7 M-0.4 -2.25 L-0.7 -1.85 0.6 -0.55 0.95 -0.9 -0.45 -2.3 -0.4 -2.25" fill="#000000" fill-rule="evenodd" stroke="none"/>
      <path d="M8.2 3.75 L6.95 2.5 Q7.1 1.45 6.9 0.45 6.55 -2.6 6.6 -5.65 L6.55 -5.7 6.6 -6.05 6.55 -6.1 6.5 -6.05 6.75 -6.3 8.35 -6.0 8.35 -5.4 8.35 -4.4 Q8.35 -3.2 8.6 -1.95 L9.05 1.1 Q9.0 2.25 9.4 3.25 L9.35 3.3 9.35 3.9 9.0 3.85 9.05 3.8 8.6 3.85 8.25 3.7 8.2 3.75 M2.3 -1.85 L2.35 -1.8 8.85 4.7 Q8.0 5.35 7.3 6.15 L0.85 -0.3 0.75 -0.4 2.3 -1.85 M6.35 -8.9 L6.4 -8.95 7.7 -7.55 4.7 -4.65 1.1 -1.05 -0.25 -2.5 2.05 -4.7 5.05 -7.7 5.55 -7.9 5.65 -8.1 5.7 -8.25 6.3 -8.85 6.35 -8.9 M4.75 -9.7 L4.15 -9.8 3.85 -9.6 Q3.3 -9.45 3.35 -8.9 3.6 -8.35 4.05 -8.1 L4.1 -8.15 4.15 -8.2 4.7 -8.25 Q5.6 -8.85 5.1 -9.55 L5.5 -9.15 5.45 -8.9 5.4 -8.55 5.4 -8.45 4.9 -7.95 4.05 -7.8 Q3.2 -8.25 3.25 -9.1 L3.5 -9.45 4.1 -9.85 4.3 -9.85 4.65 -9.9 4.75 -9.7" fill="#ab813a" fill-rule="evenodd" stroke="none"/>
      <path d="M6.35 -8.9 L6.4 -8.95 6.35 -8.9" fill="#715426" fill-rule="evenodd" stroke="none"/>
      <path d="M5.1 -9.55 Q5.6 -8.85 4.7 -8.25 L4.15 -8.2 4.1 -8.15 4.05 -8.1 Q3.6 -8.35 3.35 -8.9 3.3 -9.45 3.85 -9.6 L4.15 -9.8 4.75 -9.7 4.8 -9.75 4.95 -9.7 5.1 -9.55" fill="#d8b68d" fill-rule="evenodd" stroke="none"/>
      <path d="M7.85 -7.2 L7.9 -7.15 7.85 -7.1 7.75 -7.1 7.7 -7.15 7.6 -7.05 7.55 -6.8 7.4 -6.85 5.4 -8.75 5.4 -8.95 5.3 -9.15 5.2 -9.45 4.6 -9.85 4.4 -9.95 4.05 -10.0 4.0 -9.95 3.95 -9.9 3.7 -9.85 3.6 -9.95 3.65 -10.0 3.65 -10.1 4.0 -10.25 4.1 -10.25 4.45 -10.2 4.95 -10.2 5.05 -10.1 5.1 -10.05 5.6 -9.65 7.75 -7.4 7.8 -7.35 7.85 -7.3 7.85 -7.2 M8.5 -5.55 L8.75 -4.8 8.7 -4.75 8.8 -4.65 8.85 -4.6 8.9 -4.45 8.85 -4.4 8.75 -4.4 8.65 -4.4 8.5 -4.35 8.45 -4.4 Q8.35 -4.3 8.25 -4.3 7.45 -3.7 6.5 -3.55 L6.55 -3.3 6.45 -3.3 6.3 -3.35 6.25 -3.6 6.05 -3.9 6.1 -3.95 6.05 -4.0 6.15 -4.0 7.35 -4.9 5.4 -5.55 5.45 -5.1 5.5 -5.05 4.85 -4.5 4.8 -4.45 Q4.35 -4.5 4.5 -4.85 L4.55 -4.9 4.65 -4.9 4.45 -5.8 3.1 -6.15 3.3 -6.55 3.55 -6.8 3.5 -7.05 3.55 -7.1 3.65 -7.2 3.15 -8.0 3.15 -8.5 4.15 -7.9 4.8 -7.95 4.9 -7.95 4.95 -7.9 4.95 -7.8 5.45 -6.6 8.2 -5.55 8.3 -5.55 8.35 -5.6 8.45 -5.6 8.5 -5.55 M8.4 -4.85 L8.45 -4.9 8.25 -5.2 8.2 -5.25 5.2 -6.35 4.3 -6.75 4.05 -6.8 3.9 -6.75 3.75 -6.6 3.6 -6.45 7.65 -5.1 7.85 -5.1 8.0 -4.95 8.15 -4.8 8.45 -4.8 8.4 -4.85 M7.6 -4.65 L6.5 -3.95 6.45 -3.9 6.4 -3.85 6.5 -3.75 6.6 -3.75 7.85 -4.4 7.95 -4.5 8.05 -4.5 7.75 -4.7 7.6 -4.65 M9.35 3.1 L9.35 2.6 Q7.25 3.2 5.45 4.1 L5.4 4.15 5.85 4.5 6.0 4.45 6.2 4.35 7.85 3.6 8.15 3.6 9.3 3.15 9.35 3.1 M9.3 2.35 L9.4 2.25 9.55 2.3 9.55 2.6 9.6 2.65 9.7 3.25 Q9.1 3.65 8.3 3.85 L7.9 3.85 7.6 4.05 Q7.35 4.8 6.75 5.4 L6.7 5.45 6.7 5.55 6.8 5.65 6.85 5.8 6.8 5.85 6.55 5.8 5.95 5.1 5.8 5.15 5.75 5.1 5.75 4.8 Q5.25 4.6 4.9 4.15 6.6 2.95 8.85 2.4 L9.3 2.35 M6.1 4.85 L6.5 5.25 7.25 4.2 6.3 4.65 6.25 4.7 6.15 4.8 6.1 4.85 M7.4 -7.25 L7.5 -7.35 5.7 -8.95 5.8 -8.75 7.4 -7.25 M3.9 -7.35 L4.15 -7.4 4.35 -7.6 4.05 -7.6 4.0 -7.55 Q3.85 -7.6 3.65 -7.8 L3.9 -7.35 3.95 -7.3 3.9 -7.35 M4.75 -7.4 L4.4 -7.15 4.45 -6.9 5.1 -6.65 4.75 -7.4 M4.6 -5.75 L4.9 -4.95 5.25 -5.2 5.05 -5.7 4.6 -5.75" fill="#000000" fill-rule="evenodd" stroke="none"/>
      <path d="M9.35 3.1 L9.3 3.15 8.15 3.6 7.85 3.6 6.2 4.35 6.0 4.45 5.85 4.5 5.4 4.15 5.45 4.1 Q7.25 3.2 9.35 2.6 L9.35 3.1 M7.6 -4.65 L7.75 -4.7 8.05 -4.5 7.95 -4.5 7.85 -4.4 6.6 -3.75 6.5 -3.75 6.4 -3.85 6.45 -3.9 6.5 -3.95 7.6 -4.65 M8.4 -4.85 L8.45 -4.8 8.15 -4.8 8.0 -4.95 7.85 -5.1 7.65 -5.1 3.6 -6.45 3.75 -6.6 3.9 -6.75 4.05 -6.8 4.3 -6.75 5.2 -6.35 8.2 -5.25 8.25 -5.2 8.45 -4.9 8.4 -4.85 M3.9 -7.35 L3.65 -7.8 Q3.85 -7.6 4.0 -7.55 L4.05 -7.6 4.35 -7.6 4.15 -7.4 3.9 -7.35 M7.4 -7.25 L5.8 -8.75 5.7 -8.95 7.5 -7.35 7.4 -7.25 M6.1 4.85 L6.15 4.8 6.25 4.7 6.3 4.65 7.25 4.2 6.5 5.25 6.1 4.85 M4.6 -5.75 L5.05 -5.7 5.25 -5.2 4.9 -4.95 4.6 -5.75 M4.75 -7.4 L5.1 -6.65 4.45 -6.9 4.4 -7.15 4.75 -7.4" fill="#e3cdb3" fill-rule="evenodd" stroke="none"/>
    </g>
    <g id="shape1" transform="matrix(1.0, 0.0, 0.0, 1.0, 4.95, 5.1)">
      <path d="M3.45 4.55 L3.4 4.65 2.1 5.25 2.0 5.35 1.95 5.3 1.85 5.2 1.8 5.1 1.45 4.5 1.45 4.45 0.85 4.45 0.45 4.4 Q0.2 4.85 0.25 5.35 L0.25 5.45 0.2 5.55 0.1 5.6 -1.5 5.05 -1.55 5.0 -1.45 4.85 -1.45 4.75 -1.4 4.0 -1.9 3.85 -1.95 3.8 -2.05 3.75 -2.2 3.95 -2.3 4.0 -2.35 4.0 -2.5 4.15 -2.75 4.3 -2.9 4.4 -2.95 4.45 -3.0 4.4 -3.05 4.3 -3.1 4.25 -3.75 3.35 -4.1 3.0 -4.05 2.95 -4.1 2.8 -4.1 2.7 -4.05 2.75 -4.05 2.6 -3.95 2.65 -3.45 2.35 -3.45 2.3 -3.7 1.7 -3.9 1.8 -3.9 1.85 -4.1 1.8 -4.15 1.85 -4.15 1.9 -4.7 1.75 -4.75 1.7 -4.7 1.55 -4.95 0.2 -4.85 0.0 -4.75 -0.2 -4.55 -0.2 -4.3 -0.15 -4.1 -0.15 -3.85 -0.7 -3.85 -1.05 -4.0 -1.1 -4.1 -1.2 -4.3 -1.25 -4.35 -1.3 -4.5 -1.45 -4.6 -1.6 -4.6 -1.7 -4.25 -2.8 -4.15 -2.85 -3.95 -2.95 -3.7 -3.25 -3.65 -3.3 -3.5 -3.35 -2.9 -2.8 -2.85 -2.75 -2.4 -3.0 -2.4 -3.05 -2.45 -3.2 -2.5 -3.35 -2.85 -3.85 -3.0 -3.9 -3.0 -4.1 -2.85 -4.2 -2.8 -4.2 -2.6 -4.3 -2.55 -4.35 -2.4 -4.35 -2.1 -4.45 -2.05 -4.5 -1.95 -4.6 -1.85 -4.55 -1.6 -4.85 -1.5 -4.7 -1.45 -4.65 -1.45 -4.6 -1.35 -4.6 -1.25 -4.55 -0.85 -4.05 -0.7 -4.0 -0.6 -4.05 -0.55 -4.05 -0.5 -4.1 -0.45 -4.1 -0.35 -4.1 -0.15 -4.75 -0.2 -4.85 -0.25 -4.95 -0.05 -5.1 0.95 -5.05 1.1 -5.0 1.2 -4.95 1.2 -4.9 1.45 -4.8 1.6 -4.8 1.65 -4.7 1.65 -4.65 Q1.4 -4.4 1.55 -4.1 L2.0 -3.85 2.25 -3.7 2.65 -4.4 2.75 -4.45 2.85 -4.45 2.95 -4.45 3.05 -4.45 3.35 -4.25 3.55 -3.9 4.05 -3.4 4.1 -3.35 4.2 -3.35 4.15 -3.15 4.05 -3.1 3.95 -3.1 3.7 -2.8 Q3.7 -2.6 3.85 -2.35 L4.05 -2.45 4.45 -2.55 4.5 -2.6 4.65 -2.55 4.7 -2.55 4.8 -2.45 4.75 -2.4 4.85 -2.35 4.85 -2.3 5.0 -1.95 5.3 -1.55 5.4 -1.0 5.25 -0.9 5.2 -0.9 5.15 -0.9 4.7 -0.7 4.5 0.3 5.1 0.8 5.35 0.9 5.45 0.85 5.55 0.9 5.55 0.95 5.6 1.0 Q5.6 2.15 4.75 2.8 L4.85 2.9 4.9 2.95 4.8 3.05 4.8 3.1 4.3 2.8 4.2 2.75 4.15 2.6 4.05 2.65 3.95 2.75 Q3.3 2.85 3.15 3.55 3.5 3.85 3.45 4.25 L3.55 4.25 3.6 4.35 3.45 4.55 M4.25 0.45 L4.35 -0.95 5.05 -1.05 5.0 -1.4 4.9 -1.6 4.85 -1.7 4.8 -1.7 4.45 -2.25 4.2 -2.15 4.2 -2.1 4.05 -1.95 3.8 -1.95 3.75 -2.0 3.45 -2.6 3.3 -2.65 3.25 -2.7 3.4 -3.0 3.5 -2.95 3.85 -3.35 3.5 -3.6 3.4 -3.7 3.15 -3.95 2.85 -4.1 2.85 -4.0 2.8 -3.95 2.75 -3.9 2.75 -3.85 2.7 -3.85 2.3 -3.35 2.05 -3.5 1.9 -3.65 1.65 -3.75 1.4 -3.8 Q1.1 -4.3 1.3 -4.6 L1.15 -4.6 1.05 -4.6 0.95 -4.7 0.9 -4.75 0.3 -4.8 0.15 -4.85 -0.05 -4.75 0.0 -4.75 0.05 -4.1 -0.15 -3.8 -0.2 -3.8 -0.75 -3.7 -0.85 -3.65 -1.4 -4.3 -1.55 -4.4 Q-1.7 -4.3 -1.8 -4.25 L-1.85 -4.25 -2.05 -4.2 -2.05 -4.15 -2.2 -4.05 -2.35 -4.0 -2.45 -4.05 -2.6 -3.95 -2.3 -3.5 -2.05 -3.25 -2.05 -3.1 -2.0 -3.05 -2.75 -2.45 -2.8 -2.4 -3.1 -2.6 -3.15 -2.65 -3.55 -3.05 -4.45 -1.8 -4.15 -1.6 -3.5 -1.1 -3.75 -0.05 -3.8 0.0 -4.1 0.15 -4.6 0.1 -4.45 1.5 -4.3 1.55 -4.25 1.5 -4.1 1.5 -4.0 1.5 -3.7 1.4 -3.6 1.35 Q-3.35 1.55 -3.4 1.9 L-3.15 2.1 -3.1 2.15 -3.0 2.25 -3.05 2.35 -3.1 2.4 -3.8 2.8 -3.75 2.95 -3.65 3.15 -3.55 3.15 -3.5 3.2 -3.4 3.3 -3.4 3.35 -3.45 3.4 -3.35 3.6 -3.1 3.75 -3.1 3.8 -3.05 3.8 -2.95 3.85 -2.9 4.0 -2.5 3.75 -2.45 3.75 -2.15 3.2 -1.65 3.55 -1.2 3.8 -1.1 3.8 -1.15 4.9 -1.1 4.9 -1.0 4.9 Q-0.6 5.25 -0.05 5.25 -0.1 4.75 0.2 4.15 L0.85 4.15 1.3 4.2 1.55 4.05 2.05 4.95 2.35 4.7 2.4 4.65 2.5 4.7 2.55 4.7 3.1 4.4 3.2 4.35 3.2 4.3 3.1 3.95 2.9 3.55 3.2 2.85 3.7 2.45 3.8 2.45 3.85 2.4 3.9 2.25 4.0 2.2 4.1 2.25 4.2 2.25 4.4 2.55 4.7 2.7 4.8 2.4 4.95 2.35 5.3 1.1 Q4.7 1.05 4.25 0.5 L4.25 0.45 M1.0 0.7 L1.2 0.45 1.3 0.1 1.2 -0.45 1.15 -0.55 1.1 -0.65 1.0 -0.8 0.9 -0.95 0.65 -1.05 0.15 -1.15 -0.15 -0.9 -0.5 -0.7 -0.7 0.55 -0.3 1.05 0.1 1.2 0.65 0.95 1.0 0.7 M1.25 0.95 Q0.45 1.55 -0.3 1.3 L-0.7 1.0 Q-1.45 -0.25 -0.3 -1.2 L0.8 -1.35 1.15 -1.15 1.2 -1.1 1.25 -1.05 1.2 -1.0 1.2 -0.9 1.4 -0.7 1.7 -0.2 1.25 0.9 1.25 0.95" fill="#000000" fill-rule="evenodd" stroke="none"/>
      <path d="M4.25 0.45 L4.25 0.5 Q4.7 1.05 5.3 1.1 L4.95 2.35 4.8 2.4 4.7 2.7 4.4 2.55 4.2 2.25 4.1 2.25 4.0 2.2 3.9 2.25 3.85 2.4 3.8 2.45 3.7 2.45 3.2 2.85 2.9 3.55 3.1 3.95 3.2 4.3 3.2 4.35 3.1 4.4 2.55 4.7 2.5 4.7 2.4 4.65 2.35 4.7 2.05 4.95 1.55 4.05 1.3 4.2 0.85 4.15 0.2 4.15 Q-0.1 4.75 -0.05 5.25 -0.6 5.25 -1.0 4.9 L-1.1 4.9 -1.15 4.9 -1.1 3.8 -1.2 3.8 -1.65 3.55 -2.15 3.2 -2.45 3.75 -2.5 3.75 -2.9 4.0 -2.95 3.85 -3.05 3.8 -3.1 3.8 -3.1 3.75 -3.35 3.6 -3.45 3.4 -3.4 3.35 -3.4 3.3 -3.5 3.2 -3.55 3.15 -3.65 3.15 -3.75 2.95 -3.8 2.8 -3.1 2.4 -3.05 2.35 -3.0 2.25 -3.1 2.15 -3.15 2.1 -3.4 1.9 Q-3.35 1.55 -3.6 1.35 L-3.7 1.4 -4.0 1.5 -4.1 1.5 -4.25 1.5 -4.3 1.55 -4.45 1.5 -4.6 0.1 -4.1 0.15 -3.8 0.0 -3.75 -0.05 -3.5 -1.1 -4.15 -1.6 -4.45 -1.8 -3.55 -3.05 -3.15 -2.65 -3.1 -2.6 -2.8 -2.4 -2.75 -2.45 -2.0 -3.05 -2.05 -3.1 -2.05 -3.25 -2.3 -3.5 -2.6 -3.95 -2.45 -4.05 -2.35 -4.0 -2.2 -4.05 -2.05 -4.15 -2.05 -4.2 -1.85 -4.25 -1.8 -4.25 Q-1.7 -4.3 -1.55 -4.4 L-1.4 -4.3 -0.85 -3.65 -0.75 -3.7 -0.2 -3.8 -0.15 -3.8 0.05 -4.1 0.0 -4.75 -0.05 -4.75 0.15 -4.85 0.3 -4.8 0.9 -4.75 0.95 -4.7 1.05 -4.6 1.15 -4.6 1.3 -4.6 Q1.1 -4.3 1.4 -3.8 L1.65 -3.75 1.9 -3.65 2.05 -3.5 2.3 -3.35 2.7 -3.85 2.75 -3.85 2.75 -3.9 2.8 -3.95 2.85 -4.0 2.85 -4.1 3.15 -3.95 3.4 -3.7 3.5 -3.6 3.85 -3.35 3.5 -2.95 3.4 -3.0 3.25 -2.7 3.3 -2.65 3.45 -2.6 3.75 -2.0 3.8 -1.95 4.05 -1.95 4.2 -2.1 4.2 -2.15 4.45 -2.25 4.8 -1.7 4.85 -1.7 4.9 -1.6 5.0 -1.4 5.05 -1.05 4.35 -0.95 4.25 0.45 M1.25 0.95 L1.25 0.9 1.7 -0.2 1.4 -0.7 1.2 -0.9 1.2 -1.0 1.25 -1.05 1.2 -1.1 1.15 -1.15 0.8 -1.35 -0.3 -1.2 Q-1.45 -0.25 -0.7 1.0 L-0.3 1.3 Q0.45 1.55 1.25 0.95" fill="#ceab73" fill-rule="evenodd" stroke="none"/>
    </g>
    <g id="shape2" transform="matrix(1.0, 0.0, 0.0, 1.0, 2.2, 30.6)">
      <path d="M2.75 2.65 L-0.85 2.25 -0.9 2.25 -1.0 2.35 -1.05 2.35 -2.2 2.15 -2.2 1.7 -1.75 -1.85 -1.7 -1.85 -1.65 -1.9 -0.55 -1.6 -0.05 -7.75 -0.05 -7.8 -0.15 -7.9 0.0 -8.1 0.35 -11.75 0.35 -11.85 0.4 -12.75 0.4 -12.9 0.45 -12.95 0.65 -15.6 0.6 -15.65 0.55 -15.7 0.7 -15.9 0.8 -17.1 Q0.7 -17.2 0.75 -17.35 L0.8 -17.45 1.25 -22.25 1.15 -22.3 1.15 -22.5 0.95 -22.6 0.9 -22.65 Q0.75 -22.95 0.95 -23.15 L0.85 -23.6 0.75 -23.85 0.75 -23.8 0.7 -23.75 Q0.5 -24.8 0.7 -26.05 1.1 -28.75 3.7 -29.85 L3.85 -29.95 5.4 -29.9 5.4 -29.95 5.45 -30.05 5.55 -30.45 5.7 -30.55 5.7 -30.6 6.2 -30.55 6.25 -30.55 6.3 -30.45 6.4 -30.4 6.35 -30.25 5.65 -21.85 5.5 -21.4 5.45 -21.4 5.4 -21.4 5.35 -21.4 4.95 -21.4 4.8 -21.5 4.75 -21.5 4.7 -21.55 4.55 -21.2 4.5 -21.15 4.2 -21.15 4.15 -21.15 4.0 -21.1 3.9 -20.7 3.5 -15.6 3.55 -15.6 3.55 -15.55 3.55 -15.5 3.45 -15.4 3.45 -15.35 3.35 -14.0 3.4 -14.0 3.45 -13.95 3.45 -13.9 3.5 -13.85 3.4 -13.75 3.35 -13.7 3.3 -13.7 2.3 -1.4 3.3 -1.25 3.35 -1.25 3.4 -1.2 3.45 -1.1 3.15 2.55 3.1 2.6 2.75 2.65 M2.05 1.5 L2.1 1.55 2.1 1.6 2.05 1.65 2.0 1.85 1.95 1.85 1.85 1.85 1.8 1.85 Q1.65 1.85 1.45 2.0 L1.4 2.05 0.6 2.0 0.4 1.95 0.3 1.9 0.25 1.85 -0.55 1.75 -0.6 1.75 -0.7 1.8 -0.75 1.75 -0.8 1.7 -0.8 1.6 -0.7 1.45 -0.75 1.35 -0.8 1.3 -0.6 -1.35 -1.45 -1.55 -1.8 1.85 -1.85 1.9 -1.85 2.05 -1.15 2.05 -1.1 2.05 -1.0 1.95 -0.85 1.95 2.8 2.35 3.05 -1.0 3.0 -1.0 2.3 -1.15 2.05 1.45 2.05 1.5 M1.8 1.25 L2.55 -7.5 2.5 -7.5 2.5 -7.45 1.1 -8.1 1.05 -8.15 0.9 -8.1 0.8 -8.15 0.75 -8.15 0.65 -8.1 0.6 -8.05 0.55 -7.95 0.3 -7.85 -0.4 1.35 -0.4 1.45 -0.35 1.45 -0.25 1.45 -0.2 1.5 -0.15 1.5 0.3 1.55 0.45 1.55 0.5 1.6 0.55 1.7 1.15 1.7 1.35 1.75 1.65 1.55 1.6 1.4 1.65 1.35 1.8 1.25 M1.0 0.95 L0.95 1.0 0.35 1.0 0.25 0.95 Q-0.2 0.65 0.05 0.15 L0.3 -0.05 0.5 -0.05 0.55 -0.2 0.6 -0.2 0.7 -0.2 0.8 -0.2 1.2 0.2 1.35 0.4 1.15 0.75 1.2 0.8 1.15 0.85 1.15 0.9 1.0 0.95 M1.0 0.3 L0.8 0.2 0.45 0.2 0.35 0.2 Q0.2 0.45 0.35 0.7 L0.7 0.75 0.75 0.7 0.9 0.65 1.0 0.35 1.0 0.3 M5.9 -30.25 L5.8 -30.25 5.75 -30.25 5.7 -29.85 5.7 -29.8 5.65 -29.75 4.95 -21.75 5.05 -21.7 5.25 -21.7 5.25 -21.95 6.15 -30.2 5.9 -30.25 M4.05 -29.7 Q3.9 -29.55 3.65 -29.5 2.4 -28.95 1.75 -27.85 L1.35 -27.2 1.3 -27.0 1.25 -26.95 Q0.95 -25.4 1.6 -24.05 L1.65 -24.05 Q2.3 -23.2 3.15 -22.7 L3.5 -22.45 3.6 -22.4 4.75 -21.85 5.4 -29.7 4.1 -29.7 4.05 -29.7 M2.9 -22.45 L2.8 -22.6 2.45 -22.85 1.9 -23.35 1.75 -23.5 1.7 -23.45 1.05 -24.65 1.0 -24.4 1.3 -23.45 1.25 -23.35 1.35 -23.05 1.15 -22.9 1.25 -22.8 1.4 -22.65 1.4 -22.6 1.3 -22.55 1.85 -22.35 1.9 -22.4 2.0 -22.4 3.3 -21.8 3.85 -21.55 3.85 -21.5 4.15 -21.45 4.2 -21.45 4.2 -21.4 4.3 -21.4 4.45 -21.65 3.0 -22.45 2.95 -22.45 2.9 -22.45 M3.3 -21.4 L1.5 -22.15 1.45 -22.15 1.05 -17.25 1.15 -17.25 1.35 -17.05 2.0 -16.7 2.1 -16.65 2.35 -16.8 3.05 -17.05 3.15 -17.15 3.3 -17.15 3.35 -17.1 3.65 -20.5 3.65 -20.6 3.7 -21.15 3.3 -21.4 M2.45 -16.55 L2.35 -16.55 2.25 -16.45 3.25 -15.75 3.35 -16.8 3.3 -16.85 Q2.9 -16.55 2.45 -16.55 M2.95 -12.0 L3.05 -13.7 3.05 -13.8 2.1 -13.1 2.95 -12.0 2.95 -11.95 2.95 -12.0 M3.1 -14.25 L3.1 -14.2 3.1 -14.25 3.2 -15.45 1.9 -16.35 1.85 -16.35 1.85 -16.4 1.75 -16.4 1.3 -16.75 1.2 -16.75 1.0 -16.95 0.95 -15.8 1.1 -15.6 1.15 -15.55 1.85 -15.1 1.95 -14.95 2.0 -14.95 2.1 -14.9 2.85 -14.3 2.95 -14.35 3.05 -14.25 3.05 -14.3 3.1 -14.25 M2.7 -14.1 L1.75 -13.45 1.7 -13.4 1.65 -13.35 1.7 -13.35 1.5 -13.2 1.45 -13.2 1.4 -13.2 0.95 -13.05 0.85 -13.0 0.8 -12.8 0.75 -12.75 0.65 -12.05 0.75 -12.1 0.8 -12.15 0.8 -12.3 Q1.65 -13.25 2.8 -13.9 L2.9 -14.0 2.7 -14.1 M2.7 -12.0 L1.9 -12.9 1.0 -12.15 1.0 -12.1 0.7 -11.75 0.7 -11.7 0.65 -11.65 0.55 -10.85 1.85 -10.95 1.9 -11.0 1.55 -11.55 1.45 -11.55 1.25 -11.75 1.1 -11.8 1.05 -11.8 Q0.95 -12.1 1.15 -12.15 L1.4 -12.05 1.6 -11.85 2.8 -10.4 2.9 -11.85 Q2.9 -11.75 2.8 -11.8 L2.75 -11.8 2.7 -12.0 M2.05 -10.75 L2.0 -10.75 1.2 -10.55 1.2 -9.55 1.2 -9.5 2.7 -8.95 2.75 -10.0 2.2 -10.7 2.05 -10.75 M2.65 -8.7 L1.8 -8.9 1.1 -8.45 2.55 -7.6 2.65 -8.7 M0.4 -8.3 Q1.0 -8.85 1.7 -8.95 1.45 -9.1 1.15 -9.3 L1.15 -9.25 1.1 -9.2 1.05 -9.15 0.95 -9.2 0.9 -9.35 0.5 -9.5 0.45 -9.5 0.35 -8.25 0.4 -8.3 M0.85 -9.65 Q0.85 -10.2 1.0 -10.55 L0.8 -10.65 0.75 -10.65 0.55 -10.55 0.5 -9.9 0.55 -9.9 0.65 -9.8 0.85 -9.65 M1.25 -13.45 L0.8 -13.85 0.75 -13.85 0.75 -13.2 1.25 -13.45 M0.9 -14.2 L1.45 -13.6 Q2.05 -13.85 2.5 -14.25 L1.9 -14.65 1.85 -14.7 0.9 -15.4 0.8 -14.15 0.9 -14.2 M0.95 -24.8 L1.0 -24.75 0.95 -24.85 0.95 -24.8" fill="#000000" fill-rule="evenodd" stroke="none"/>
      <path d="M2.05 1.5 L2.05 1.45 2.3 -1.15 3.0 -1.0 3.05 -1.0 2.8 2.35 -0.85 1.95 -1.0 1.95 -1.1 2.05 -1.15 2.05 -1.85 2.05 -1.85 1.9 -1.8 1.85 -1.45 -1.55 -0.6 -1.35 -0.8 1.3 -0.75 1.35 -0.7 1.45 -0.8 1.6 -0.8 1.7 -0.75 1.75 -0.7 1.8 -0.6 1.75 -0.55 1.75 0.25 1.85 0.3 1.9 0.4 1.95 0.6 2.0 1.4 2.05 1.45 2.0 Q1.65 1.85 1.8 1.85 L1.85 1.85 1.95 1.85 2.0 1.85 2.05 1.65 2.1 1.6 2.1 1.55 2.05 1.5 M1.0 0.3 L1.0 0.35 0.9 0.65 0.75 0.7 0.7 0.75 0.35 0.7 Q0.2 0.45 0.35 0.2 L0.45 0.2 0.8 0.2 1.0 0.3" fill="#a69b9b" fill-rule="evenodd" stroke="none"/>
      <path d="M1.0 0.95 L1.15 0.9 1.15 0.85 1.2 0.8 1.15 0.75 1.35 0.4 1.2 0.2 0.8 -0.2 0.7 -0.2 0.6 -0.2 0.55 -0.2 0.5 -0.05 0.3 -0.05 0.05 0.15 Q-0.2 0.65 0.25 0.95 L0.35 1.0 0.95 1.0 1.0 0.95 M1.8 1.25 L1.65 1.35 1.6 1.4 1.65 1.55 1.35 1.75 1.15 1.7 0.55 1.7 0.5 1.6 0.45 1.55 0.3 1.55 -0.15 1.5 -0.2 1.5 -0.25 1.45 -0.35 1.45 -0.4 1.45 -0.4 1.35 0.3 -7.85 0.55 -7.95 0.6 -8.05 0.65 -8.1 0.75 -8.15 0.8 -8.15 0.9 -8.1 1.05 -8.15 1.1 -8.1 2.5 -7.45 2.5 -7.5 2.55 -7.5 1.8 1.25 M4.05 -29.7 L4.1 -29.7 5.4 -29.7 4.75 -21.85 3.6 -22.4 3.5 -22.45 3.15 -22.7 Q2.3 -23.2 1.65 -24.05 L1.6 -24.05 Q0.95 -25.4 1.25 -26.95 L1.3 -27.0 1.35 -27.2 1.75 -27.85 Q2.4 -28.95 3.65 -29.5 3.9 -29.55 4.05 -29.7 M3.3 -21.4 L3.7 -21.15 3.65 -20.6 3.65 -20.5 3.35 -17.1 3.3 -17.15 3.15 -17.15 3.05 -17.05 2.35 -16.8 2.1 -16.65 2.0 -16.7 1.35 -17.05 1.15 -17.25 1.05 -17.25 1.45 -22.15 1.5 -22.15 3.3 -21.4" fill="#715426" fill-rule="evenodd" stroke="none"/>
      <path d="M5.9 -30.25 L6.15 -30.2 5.25 -21.95 5.25 -21.7 5.05 -21.7 4.95 -21.75 5.65 -29.75 5.7 -29.8 5.7 -29.85 5.75 -30.25 5.8 -30.25 5.9 -30.25 M2.9 -22.45 L2.95 -22.45 3.0 -22.45 4.45 -21.65 4.3 -21.4 4.2 -21.4 4.2 -21.45 4.15 -21.45 3.85 -21.5 3.85 -21.55 3.3 -21.8 2.0 -22.4 1.9 -22.4 1.85 -22.35 1.3 -22.55 1.4 -22.6 1.4 -22.65 1.25 -22.8 1.15 -22.9 1.35 -23.05 1.25 -23.35 1.3 -23.45 1.0 -24.4 1.05 -24.65 1.7 -23.45 1.75 -23.5 1.9 -23.35 2.45 -22.85 2.8 -22.6 2.9 -22.45" fill="#9d6f37" fill-rule="evenodd" stroke="none"/>
      <path d="M2.95 -12.0 L2.1 -13.1 3.05 -13.8 3.05 -13.7 2.95 -12.0 M2.45 -16.55 Q2.9 -16.55 3.3 -16.85 L3.35 -16.8 3.25 -15.75 2.25 -16.45 2.35 -16.55 2.45 -16.55 M3.1 -14.25 L3.05 -14.3 3.05 -14.25 2.95 -14.35 2.85 -14.3 2.1 -14.9 2.0 -14.95 1.95 -14.95 1.85 -15.1 1.15 -15.55 1.1 -15.6 0.95 -15.8 1.0 -16.95 1.2 -16.75 1.3 -16.75 1.75 -16.4 1.85 -16.4 1.85 -16.35 1.9 -16.35 3.2 -15.45 3.1 -14.25 M0.9 -14.2 L0.8 -14.15 0.9 -15.4 1.85 -14.7 1.9 -14.65 2.5 -14.25 Q2.05 -13.85 1.45 -13.6 L0.9 -14.2 M1.25 -13.45 L0.75 -13.2 0.75 -13.85 0.8 -13.85 1.25 -13.45 M0.85 -9.65 L0.65 -9.8 0.55 -9.9 0.5 -9.9 0.55 -10.55 0.75 -10.65 0.8 -10.65 1.0 -10.55 Q0.85 -10.2 0.85 -9.65 M0.4 -8.3 L0.35 -8.25 0.45 -9.5 0.5 -9.5 0.9 -9.35 0.95 -9.2 1.05 -9.15 1.1 -9.2 1.15 -9.25 1.15 -9.3 Q1.45 -9.1 1.7 -8.95 1.0 -8.85 0.4 -8.3 M2.65 -8.7 L2.55 -7.6 1.1 -8.45 1.8 -8.9 2.65 -8.7 M2.05 -10.75 L2.2 -10.7 2.75 -10.0 2.7 -8.95 1.2 -9.5 1.2 -9.55 1.2 -10.55 2.0 -10.75 2.05 -10.75 M2.7 -12.0 L2.75 -11.8 2.8 -11.8 Q2.9 -11.75 2.9 -11.85 L2.8 -10.4 1.6 -11.85 1.4 -12.05 1.15 -12.15 Q0.95 -12.1 1.05 -11.8 L1.1 -11.8 1.25 -11.75 1.45 -11.55 1.55 -11.55 1.9 -11.0 1.85 -10.95 0.55 -10.85 0.65 -11.65 0.7 -11.7 0.7 -11.75 1.0 -12.1 1.0 -12.15 1.9 -12.9 2.7 -12.0 M2.7 -14.1 L2.9 -14.0 2.8 -13.9 Q1.65 -13.25 0.8 -12.3 L0.8 -12.15 0.75 -12.1 0.65 -12.05 0.75 -12.75 0.8 -12.8 0.85 -13.0 0.95 -13.05 1.4 -13.2 1.45 -13.2 1.5 -13.2 1.7 -13.35 1.65 -13.35 1.7 -13.4 1.75 -13.45 2.7 -14.1" fill="#e3cdb3" fill-rule="evenodd" stroke="none"/>
    </g>
    <g id="shape3" transform="matrix(1.0, 0.0, 0.0, 1.0, -5.4, 2.55)">
      <path d="M9.6 -0.15 L8.65 -1.1 Q8.25 -1.4 8.35 -2.0 L8.35 -2.2 8.15 -2.2 8.05 -2.2 8.05 -1.7 8.05 -1.6 8.05 -1.5 8.1 -1.45 7.9 -1.25 7.15 -1.0 6.8 -0.55 6.75 -0.4 6.8 -0.35 6.35 -0.3 6.3 -0.25 5.9 -0.35 5.8 -0.15 5.75 -0.1 5.85 0.0 6.25 0.1 6.3 0.05 6.65 0.1 6.8 0.05 7.05 0.7 7.0 0.75 7.65 1.2 7.7 1.25 7.8 1.25 7.95 1.6 8.0 2.05 8.0 2.15 8.3 2.25 8.4 1.45 8.35 1.4 8.35 1.3 8.4 1.25 8.65 1.2 8.7 1.25 9.2 0.75 9.3 0.65 9.4 0.35 9.4 0.25 9.55 0.2 9.6 0.25 9.6 0.35 10.5 0.25 9.6 -0.15 M10.1 0.45 L9.9 0.55 9.85 0.6 9.6 0.65 9.55 0.7 9.6 0.75 8.95 1.3 8.9 1.45 8.7 1.55 8.6 1.55 8.7 2.35 8.65 2.4 8.6 2.55 8.5 2.55 7.95 2.5 7.75 2.4 7.65 1.7 7.6 1.45 7.25 1.3 6.75 0.8 6.65 0.4 Q5.85 0.5 5.4 -0.05 L5.5 -0.15 5.55 -0.2 Q5.45 -0.3 5.5 -0.45 5.75 -0.7 6.1 -0.65 6.2 -0.55 6.25 -0.6 L6.55 -0.6 6.55 -0.7 6.8 -0.95 6.8 -1.05 Q7.15 -1.4 7.6 -1.45 L7.65 -1.5 7.75 -1.6 7.7 -1.95 7.8 -2.05 7.65 -2.3 7.6 -2.45 7.65 -2.5 8.4 -2.55 8.6 -2.45 8.7 -1.35 8.75 -1.4 8.9 -1.35 Q9.5 -0.95 9.6 -0.35 L10.8 -0.05 10.6 0.55 10.5 0.55 10.1 0.45 M8.0 -0.65 L8.3 -0.55 8.3 -0.45 8.4 -0.45 8.45 -0.4 8.6 -0.25 8.65 -0.2 8.65 0.0 8.65 0.2 8.6 0.25 8.5 0.25 8.5 0.35 8.4 0.45 8.3 0.45 Q7.85 0.4 7.6 -0.15 L7.65 -0.3 7.8 -0.45 7.85 -0.5 7.95 -0.6 8.0 -0.65 M8.4 0.15 L8.35 0.0 8.25 -0.2 8.15 -0.3 8.0 -0.25 7.95 -0.2 8.0 -0.15 8.3 0.15 8.4 0.15" fill="#000000" fill-rule="evenodd" stroke="none"/>
      <path d="M9.6 -0.15 L10.5 0.25 9.6 0.35 9.6 0.25 9.55 0.2 9.4 0.25 9.4 0.35 9.3 0.65 9.2 0.75 8.7 1.25 8.65 1.2 8.4 1.25 8.35 1.3 8.35 1.4 8.4 1.45 8.3 2.25 8.0 2.15 8.0 2.05 7.95 1.6 7.8 1.25 7.7 1.25 7.65 1.2 7.0 0.75 7.05 0.7 6.8 0.05 6.65 0.1 6.3 0.05 6.25 0.1 5.85 0.0 5.75 -0.1 5.8 -0.15 5.9 -0.35 6.3 -0.25 6.35 -0.3 6.8 -0.35 6.75 -0.4 6.8 -0.55 7.15 -1.0 7.9 -1.25 8.1 -1.45 8.05 -1.5 8.05 -1.6 8.05 -1.7 8.05 -2.2 8.15 -2.2 8.35 -2.2 8.35 -2.0 Q8.25 -1.4 8.65 -1.1 L9.6 -0.15 M8.0 -0.65 L7.95 -0.6 7.85 -0.5 7.8 -0.45 7.65 -0.3 7.6 -0.15 Q7.85 0.4 8.3 0.45 L8.4 0.45 8.5 0.35 8.5 0.25 8.6 0.25 8.65 0.2 8.65 0.0 8.65 -0.2 8.6 -0.25 8.45 -0.4 8.4 -0.45 8.3 -0.45 8.3 -0.55 8.0 -0.65" fill="#ceab73" fill-rule="evenodd" stroke="none"/>
      <path d="M8.4 0.15 L8.3 0.15 8.0 -0.15 7.95 -0.2 8.0 -0.25 8.15 -0.3 8.25 -0.2 8.35 0.0 8.4 0.15" fill="#a69b9b" fill-rule="evenodd" stroke="none"/>
    </g>
  </defs>
</svg>
