<?xml version="1.0" encoding="UTF-8" standalone="no"?>
<svg xmlns:xlink="http://www.w3.org/1999/xlink" height="234.0px" width="255.6px" xmlns="http://www.w3.org/2000/svg">
  <g transform="matrix(6.0, 0.0, 0.0, 6.0, 190.8, 187.5)">
    <use height="16.85" transform="matrix(1.0, 0.0, 0.0, 1.0, -1.1, -10.25)" width="10.8" xlink:href="#shape0"/>
    <use height="10.7" transform="matrix(0.9994, -0.0026, 0.0026, 0.9994, -5.0103, -5.0839)" width="10.5" xlink:href="#shape1"/>
    <use height="33.25" transform="matrix(0.9983, -0.0022, 0.0022, 0.9983, -2.3641, -30.4441)" width="9.6" xlink:href="#shape2"/>
    <use height="5.1" transform="matrix(1.0, 0.0, 0.0, 1.0, 5.4, -2.55)" width="5.4" xlink:href="#shape3"/>
  </g>
  <defs>
    <g id="shape0" transform="matrix(1.0, 0.0, 0.0, 1.0, 1.1, 10.25)">
      <path d="M9.3 -0.05 L9.4 2.15 9.4 2.45 9.7 3.25 9.6 3.85 9.65 3.9 9.7 3.95 9.7 4.05 8.75 4.2 8.7 4.15 8.55 4.1 9.0 4.55 9.05 4.5 9.15 4.5 9.1 4.55 9.15 4.6 9.1 4.65 9.15 4.7 9.1 4.75 9.0 4.85 7.15 6.6 7.05 6.6 7.0 6.45 7.2 6.25 0.8 -0.05 0.6 -0.05 0.6 -0.15 0.55 -0.2 0.45 -0.3 -0.9 -1.75 -1.0 -1.85 -1.1 -1.95 -1.05 -2.0 -0.95 -2.0 -0.85 -2.2 -0.75 -2.3 -0.55 -2.5 -0.65 -2.6 -0.65 -2.7 -0.6 -2.75 -0.45 -2.7 -0.4 -2.65 3.45 -6.5 4.5 -7.55 3.65 -7.8 Q3.25 -8.0 3.1 -8.45 2.8 -9.45 3.8 -9.95 L3.95 -10.1 4.5 -10.15 5.2 -9.95 5.8 -9.15 5.85 -9.1 5.8 -9.05 5.7 -8.75 6.3 -9.35 6.35 -9.3 6.45 -9.3 6.4 -9.25 6.45 -9.2 6.4 -9.15 6.55 -9.1 7.85 -7.7 7.95 -7.7 7.95 -7.6 8.05 -7.5 8.0 -7.45 7.9 -7.35 7.8 -7.45 6.95 -6.5 8.4 -6.25 8.45 -6.2 8.55 -6.2 Q8.5 -3.65 9.15 -1.1 L9.3 -0.05 M9.35 3.9 L9.35 3.3 9.4 3.25 Q9.0 2.25 9.05 1.1 L8.6 -1.95 Q8.35 -3.2 8.35 -4.4 L8.35 -5.4 8.35 -6.0 6.75 -6.3 6.5 -6.05 6.55 -6.1 6.6 -6.05 6.55 -5.7 6.6 -5.65 Q6.55 -2.6 6.9 0.45 7.1 1.45 6.95 2.5 L8.2 3.75 8.25 3.8 8.25 3.7 8.6 3.85 9.05 3.8 9.0 3.85 9.35 3.9 9.4 3.95 9.35 3.9 M6.3 -5.45 L6.35 -5.9 3.8 -3.35 2.5 -2.05 2.55 -2.0 6.7 2.25 6.3 -3.65 6.3 -5.45 M2.3 -1.85 L0.75 -0.4 0.85 -0.3 7.3 6.15 Q8.0 5.35 8.85 4.7 L2.35 -1.8 2.3 -1.85 M6.4 -8.95 L6.35 -8.9 6.3 -8.85 5.7 -8.25 5.65 -8.1 5.55 -7.9 5.05 -7.7 2.05 -4.7 -0.25 -2.5 1.1 -1.05 4.7 -4.65 7.7 -7.55 6.4 -8.95 M4.75 -9.7 L4.65 -9.9 4.3 -9.85 4.1 -9.85 3.5 -9.45 3.25 -9.1 Q3.2 -8.25 4.05 -7.8 L4.9 -7.95 5.4 -8.45 5.4 -8.55 5.45 -8.9 5.5 -9.15 5.1 -9.55 4.95 -9.7 4.8 -9.75 4.75 -9.7 M-0.4 -2.25 L-0.7 -1.85 0.6 -0.55 0.95 -0.9 -0.45 -2.3 -0.4 -2.25" fill="#000000" fill-rule="evenodd" stroke="none"/>
      <path d="M8.2 3.75 L6.95 2.5 Q7.1 1.45 6.9 0.45 6.55 -2.6 6.6 -5.65 L6.55 -5.7 6.6 -6.05 6.55 -6.1 6.5 -6.05 6.75 -6.3 8.35 -6.0 8.35 -5.4 8.35 -4.4 Q8.35 -3.2 8.6 -1.95 L9.05 1.1 Q9.0 2.25 9.4 3.25 L9.35 3.3 9.35 3.9 9.0 3.85 9.05 3.8 8.6 3.85 8.25 3.7 8.2 3.75 M2.3 -1.85 L2.35 -1.8 8.85 4.7 Q8.0 5.35 7.3 6.15 L0.85 -0.3 0.75 -0.4 2.3 -1.85 M6.35 -8.9 L6.4 -8.95 7.7 -7.55 4.7 -4.65 1.1 -1.05 -0.25 -2.5 2.05 -4.7 5.05 -7.7 5.55 -7.9 5.65 -8.1 5.7 -8.25 6.3 -8.85 6.35 -8.9 M4.75 -9.7 L4.15 -9.8 3.85 -9.6 Q3.3 -9.45 3.35 -8.9 3.6 -8.35 4.05 -8.1 L4.1 -8.15 4.15 -8.2 4.7 -8.25 Q5.6 -8.85 5.1 -9.55 L5.5 -9.15 5.45 -8.9 5.4 -8.55 5.4 -8.45 4.9 -7.95 4.05 -7.8 Q3.2 -8.25 3.25 -9.1 L3.5 -9.45 4.1 -9.85 4.3 -9.85 4.65 -9.9 4.75 -9.7" fill="#ab813a" fill-rule="evenodd" stroke="none"/>
      <path d="M6.35 -8.9 L6.4 -8.95 6.35 -8.9" fill="#715426" fill-rule="evenodd" stroke="none"/>
      <path d="M5.1 -9.55 Q5.6 -8.85 4.7 -8.25 L4.15 -8.2 4.1 -8.15 4.05 -8.1 Q3.6 -8.35 3.35 -8.9 3.3 -9.45 3.85 -9.6 L4.15 -9.8 4.75 -9.7 4.8 -9.75 4.95 -9.7 5.1 -9.55" fill="#d8b68d" fill-rule="evenodd" stroke="none"/>
      <path d="M7.85 -7.2 L7.9 -7.15 7.85 -7.1 7.75 -7.1 7.7 -7.15 7.6 -7.05 7.55 -6.8 7.4 -6.85 5.4 -8.75 5.4 -8.95 5.3 -9.15 5.2 -9.45 4.6 -9.85 4.4 -9.95 4.05 -10.0 4.0 -9.95 3.95 -9.9 3.7 -9.85 3.6 -9.95 3.65 -10.0 3.65 -10.1 4.0 -10.25 4.1 -10.25 4.45 -10.2 4.95 -10.2 5.05 -10.1 5.1 -10.05 5.6 -9.65 7.75 -7.4 7.8 -7.35 7.85 -7.3 7.85 -7.2 M8.5 -5.55 L8.75 -4.8 8.7 -4.75 8.8 -4.65 8.85 -4.6 8.9 -4.45 8.85 -4.4 8.75 -4.4 8.65 -4.4 8.5 -4.35 8.45 -4.4 Q8.35 -4.3 8.25 -4.3 7.45 -3.7 6.5 -3.55 L6.55 -3.3 6.45 -3.3 6.3 -3.35 6.25 -3.6 6.05 -3.9 6.1 -3.95 6.05 -4.0 6.15 -4.0 7.35 -4.9 5.4 -5.55 5.45 -5.1 5.5 -5.05 4.85 -4.5 4.8 -4.45 Q4.35 -4.5 4.5 -4.85 L4.55 -4.9 4.65 -4.9 4.45 -5.8 3.1 -6.15 3.3 -6.55 3.55 -6.8 3.5 -7.05 3.55 -7.1 3.65 -7.2 3.15 -8.0 3.15 -8.5 4.15 -7.9 4.8 -7.95 4.9 -7.95 4.95 -7.9 4.95 -7.8 5.45 -6.6 8.2 -5.55 8.3 -5.55 8.35 -5.6 8.45 -5.6 8.5 -5.55 M8.4 -4.85 L8.45 -4.9 8.25 -5.2 8.2 -5.25 5.2 -6.35 4.3 -6.75 4.05 -6.8 3.9 -6.75 3.75 -6.6 3.6 -6.45 7.65 -5.1 7.85 -5.1 8.0 -4.95 8.15 -4.8 8.45 -4.8 8.4 -4.85 M7.6 -4.65 L6.5 -3.95 6.45 -3.9 6.4 -3.85 6.5 -3.75 6.6 -3.75 7.85 -4.4 7.95 -4.5 8.05 -4.5 7.75 -4.7 7.6 -4.65 M9.35 3.1 L9.35 2.6 Q7.25 3.2 5.45 4.1 L5.4 4.15 5.85 4.5 6.0 4.45 6.2 4.35 7.85 3.6 8.15 3.6 9.3 3.15 9.35 3.1 M9.3 2.35 L9.4 2.25 9.55 2.3 9.55 2.6 9.6 2.65 9.7 3.25 Q9.1 3.65 8.3 3.85 L7.9 3.85 7.6 4.05 Q7.35 4.8 6.75 5.4 L6.7 5.45 6.7 5.55 6.8 5.65 6.85 5.8 6.8 5.85 6.55 5.8 5.95 5.1 5.8 5.15 5.75 5.1 5.75 4.8 Q5.25 4.6 4.9 4.15 6.6 2.95 8.85 2.4 L9.3 2.35 M6.1 4.85 L6.5 5.25 7.25 4.2 6.3 4.65 6.25 4.7 6.15 4.8 6.1 4.85 M7.4 -7.25 L7.5 -7.35 5.7 -8.95 5.8 -8.75 7.4 -7.25 M3.9 -7.35 L4.15 -7.4 4.35 -7.6 4.05 -7.6 4.0 -7.55 Q3.85 -7.6 3.65 -7.8 L3.9 -7.35 3.95 -7.3 3.9 -7.35 M4.75 -7.4 L4.4 -7.15 4.45 -6.9 5.1 -6.65 4.75 -7.4 M4.6 -5.75 L4.9 -4.95 5.25 -5.2 5.05 -5.7 4.6 -5.75" fill="#000000" fill-rule="evenodd" stroke="none"/>
      <path d="M9.35 3.1 L9.3 3.15 8.15 3.6 7.85 3.6 6.2 4.35 6.0 4.45 5.85 4.5 5.4 4.15 5.45 4.1 Q7.25 3.2 9.35 2.6 L9.35 3.1 M7.6 -4.65 L7.75 -4.7 8.05 -4.5 7.95 -4.5 7.85 -4.4 6.6 -3.75 6.5 -3.75 6.4 -3.85 6.45 -3.9 6.5 -3.95 7.6 -4.65 M8.4 -4.85 L8.45 -4.8 8.15 -4.8 8.0 -4.95 7.85 -5.1 7.65 -5.1 3.6 -6.45 3.75 -6.6 3.9 -6.75 4.05 -6.8 4.3 -6.75 5.2 -6.35 8.2 -5.25 8.25 -5.2 8.45 -4.9 8.4 -4.85 M3.9 -7.35 L3.65 -7.8 Q3.85 -7.6 4.0 -7.55 L4.05 -7.6 4.35 -7.6 4.15 -7.4 3.9 -7.35 M7.4 -7.25 L5.8 -8.75 5.7 -8.95 7.5 -7.35 7.4 -7.25 M6.1 4.85 L6.15 4.8 6.25 4.7 6.3 4.65 7.25 4.2 6.5 5.25 6.1 4.85 M4.6 -5.75 L5.05 -5.7 5.25 -5.2 4.9 -4.95 4.6 -5.75 M4.75 -7.4 L5.1 -6.65 4.45 -6.9 4.4 -7.15 4.75 -7.4" fill="#e3cdb3" fill-rule="evenodd" stroke="none"/>
    </g>
    <g id="shape1" transform="matrix(1.0, 0.0, 0.0, 1.0, 5.0, 5.1)">
      <path d="M3.15 4.8 L3.1 4.85 1.7 5.35 1.6 5.45 1.55 5.45 1.45 5.35 1.4 5.2 1.15 4.6 1.15 4.55 0.55 4.5 0.15 4.4 -0.1 5.4 -0.15 5.5 -0.2 5.6 -0.25 5.6 -1.8 4.95 -1.85 4.9 -1.75 4.75 -1.75 4.65 -1.65 3.9 -2.15 3.75 -2.15 3.7 -2.25 3.65 -2.45 3.8 -2.55 3.85 -2.6 3.85 -2.75 3.95 -3.1 4.1 -3.2 4.2 -3.25 4.2 -3.3 4.2 -3.4 4.1 -3.45 4.05 -4.05 3.15 -4.25 2.75 -4.25 2.7 -4.3 2.55 -4.25 2.45 -4.2 2.5 -4.2 2.35 -4.1 2.4 -3.65 2.1 -3.6 2.05 -3.85 1.4 -4.0 1.5 -4.0 1.55 -4.2 1.5 -4.25 1.55 -4.25 1.6 -4.8 1.4 -4.85 1.35 -4.8 1.2 -4.95 -0.15 -4.85 -0.3 -4.75 -0.5 -4.55 -0.5 -4.3 -0.45 -4.1 -0.45 -3.8 -0.95 Q-3.7 -1.15 -3.75 -1.3 L-3.9 -1.4 -4.0 -1.45 -4.2 -1.55 -4.3 -1.6 -4.4 -1.75 -4.5 -1.9 -4.45 -2.0 Q-4.5 -2.55 -4.05 -3.05 L-3.95 -3.1 -3.7 -3.15 -3.45 -3.5 -3.4 -3.5 -3.3 -3.55 -2.7 -2.95 -2.7 -2.9 -2.25 -3.15 -2.2 -3.2 -2.3 -3.35 -2.3 -3.45 -2.65 -4.05 -2.75 -4.1 -2.8 -4.35 -2.6 -4.4 -2.55 -4.4 -2.35 -4.5 -2.3 -4.55 -2.15 -4.5 -1.85 -4.6 -1.8 -4.65 -1.65 -4.75 -1.55 -4.75 -1.25 -4.95 -1.15 -4.8 -1.1 -4.75 -1.1 -4.7 -1.0 -4.65 -0.9 -4.65 -0.55 -4.1 -0.4 -4.1 -0.3 -4.15 -0.25 -4.1 -0.2 -4.15 -0.15 -4.15 -0.05 -4.15 0.15 -4.75 0.15 -4.85 0.15 -4.95 0.25 -5.1 1.3 -4.95 1.45 -4.95 1.5 -4.85 1.5 -4.8 1.8 -4.65 1.9 -4.7 2.0 -4.6 1.95 -4.55 Q1.7 -4.25 1.8 -4.05 L2.3 -3.75 2.5 -3.6 2.95 -4.2 3.0 -4.25 3.1 -4.25 3.2 -4.25 3.3 -4.2 3.6 -4.0 3.8 -3.7 4.3 -3.15 4.35 -3.1 4.45 -3.05 4.4 -2.85 4.3 -2.85 4.2 -2.85 3.9 -2.55 4.05 -2.05 4.2 -2.15 4.65 -2.25 4.7 -2.3 4.85 -2.25 4.9 -2.25 5.0 -2.15 5.0 -2.1 4.9 -2.05 5.0 -2.0 5.05 -1.95 5.15 -1.6 5.35 -1.15 5.45 -0.6 5.3 -0.55 5.25 -0.55 5.2 -0.55 4.75 -0.4 4.5 0.6 5.05 1.15 5.3 1.3 5.4 1.2 5.5 1.25 5.5 1.3 5.5 1.4 Q5.45 2.5 4.55 3.1 L4.65 3.2 4.7 3.25 4.6 3.35 4.55 3.4 4.15 3.1 4.05 3.0 4.0 2.85 3.9 2.9 3.8 2.95 Q3.15 3.05 2.95 3.8 3.25 4.1 3.15 4.5 L3.25 4.5 3.35 4.65 3.15 4.8 M4.25 0.7 L4.45 -0.65 5.15 -0.65 5.15 -1.05 5.05 -1.25 5.0 -1.3 4.95 -1.35 4.65 -1.9 4.35 -1.85 4.35 -1.8 4.25 -1.65 3.95 -1.65 3.9 -1.75 3.6 -2.35 3.45 -2.45 3.4 -2.5 3.55 -2.75 3.65 -2.75 4.05 -3.1 3.7 -3.4 3.65 -3.5 3.4 -3.8 3.1 -3.9 3.1 -3.85 3.0 -3.8 2.95 -3.75 2.95 -3.7 2.9 -3.7 2.55 -3.25 2.25 -3.4 2.15 -3.55 1.9 -3.65 1.65 -3.75 Q1.4 -4.2 1.6 -4.5 L1.45 -4.5 1.35 -4.55 1.25 -4.6 1.2 -4.65 0.6 -4.8 0.45 -4.8 0.25 -4.75 0.3 -4.75 0.35 -4.1 0.1 -3.85 0.05 -3.85 -0.45 -3.8 -0.55 -3.7 -1.1 -4.45 -1.25 -4.5 -1.55 -4.4 -1.6 -4.4 -1.8 -4.35 -1.8 -4.3 -1.95 -4.25 -2.15 -4.2 -2.25 -4.25 -2.35 -4.15 -2.05 -3.7 -1.9 -3.35 -1.85 -3.25 -1.8 -3.15 Q-2.15 -2.75 -2.65 -2.6 L-2.7 -2.55 -2.95 -2.75 -3.0 -2.8 -3.35 -3.25 -4.35 -2.1 -4.0 -1.9 -3.4 -1.35 -3.75 -0.3 -3.8 -0.25 -4.1 -0.15 -4.6 -0.2 -4.55 1.2 -4.4 1.2 -4.35 1.15 -4.2 1.2 -4.1 1.2 -3.8 1.1 -3.7 1.1 Q-3.5 1.3 -3.55 1.65 L-3.35 1.9 -3.3 1.9 -3.2 2.0 -3.2 2.1 -3.3 2.15 -4.05 2.6 -4.0 2.75 -3.9 2.9 -3.8 2.95 -3.75 3.0 -3.65 3.1 -3.65 3.15 -3.75 3.2 -3.6 3.45 -3.4 3.6 -3.35 3.6 -3.25 3.65 -3.2 3.75 -2.7 3.6 -2.65 3.6 -2.3 3.1 -1.85 3.5 -1.45 3.75 -1.35 3.75 -1.5 4.8 -1.45 4.85 -1.35 4.85 Q-0.95 5.25 -0.4 5.25 L-0.1 4.2 0.6 4.2 1.05 4.3 1.3 4.2 1.65 5.05 2.0 4.85 2.05 4.8 2.15 4.85 2.2 4.85 2.85 4.65 2.95 4.6 2.95 4.55 2.85 4.2 2.65 3.8 3.0 3.0 3.55 2.65 3.65 2.7 3.7 2.65 3.8 2.5 3.85 2.45 3.95 2.5 4.05 2.5 4.25 2.8 4.5 3.0 4.65 2.7 4.75 2.65 5.2 1.45 Q4.65 1.35 4.25 0.75 L4.25 0.7 M0.95 0.75 L1.15 0.55 1.3 0.2 Q1.15 0.0 1.25 -0.35 L1.2 -0.5 1.1 -0.6 1.05 -0.7 0.95 -0.9 0.75 -1.05 0.25 -1.1 -0.1 -0.95 -0.45 -0.75 -0.75 0.5 -0.35 1.05 0.0 1.2 0.55 1.0 0.95 0.75 M1.2 1.0 L-0.4 1.25 -0.75 0.95 Q-1.4 -0.35 -0.2 -1.2 L0.9 -1.3 1.2 -1.1 1.25 -1.05 1.3 -1.0 1.3 -0.95 1.25 -0.85 1.45 -0.6 1.7 -0.05 Q1.65 0.55 1.2 0.95 L1.2 1.0" fill="#000000" fill-rule="evenodd" stroke="none"/>
      <path d="M4.25 0.7 L4.25 0.75 Q4.65 1.35 5.2 1.45 L4.75 2.65 4.65 2.7 4.5 3.0 4.25 2.8 4.05 2.5 3.95 2.5 3.85 2.45 3.8 2.5 3.7 2.65 3.65 2.7 3.55 2.65 3.0 3.0 2.65 3.8 2.85 4.2 2.95 4.55 2.95 4.6 2.85 4.65 2.2 4.85 2.15 4.85 2.05 4.8 2.0 4.85 1.65 5.05 1.3 4.2 1.05 4.3 0.6 4.2 -0.1 4.2 -0.4 5.25 Q-0.95 5.25 -1.35 4.85 L-1.45 4.85 -1.5 4.8 -1.35 3.75 -1.45 3.75 -1.85 3.5 -2.3 3.1 -2.65 3.6 -2.7 3.6 -3.2 3.75 -3.25 3.65 -3.35 3.6 -3.4 3.6 -3.6 3.45 -3.75 3.2 -3.65 3.15 -3.65 3.1 -3.75 3.0 -3.8 2.95 -3.9 2.9 -4.0 2.75 -4.05 2.6 -3.3 2.15 -3.2 2.1 -3.2 2.0 -3.3 1.9 -3.35 1.9 -3.55 1.65 Q-3.5 1.3 -3.7 1.1 L-3.8 1.1 -4.1 1.2 -4.2 1.2 -4.35 1.15 -4.4 1.2 -4.55 1.2 -4.6 -0.2 -4.1 -0.15 -3.8 -0.25 -3.75 -0.3 -3.4 -1.35 -4.0 -1.9 -4.35 -2.1 -3.35 -3.25 -3.0 -2.8 -2.95 -2.75 -2.7 -2.55 -2.65 -2.6 Q-2.15 -2.75 -1.8 -3.15 L-1.85 -3.25 -1.9 -3.35 -2.05 -3.7 -2.35 -4.15 -2.25 -4.25 -2.15 -4.2 -1.95 -4.25 -1.8 -4.3 -1.8 -4.35 -1.6 -4.4 -1.55 -4.4 -1.25 -4.5 -1.1 -4.45 -0.55 -3.7 -0.45 -3.8 0.05 -3.85 0.1 -3.85 0.35 -4.1 0.3 -4.75 0.25 -4.75 0.45 -4.8 0.6 -4.8 1.2 -4.65 1.25 -4.6 1.35 -4.55 1.45 -4.5 1.6 -4.5 Q1.4 -4.2 1.65 -3.75 L1.9 -3.65 2.15 -3.55 2.25 -3.4 2.55 -3.25 2.9 -3.7 2.95 -3.7 2.95 -3.75 3.0 -3.8 3.1 -3.85 3.1 -3.9 3.4 -3.8 3.65 -3.5 3.7 -3.4 4.05 -3.1 3.65 -2.75 3.55 -2.75 3.4 -2.5 3.45 -2.45 3.6 -2.35 3.9 -1.75 3.95 -1.65 4.25 -1.65 4.35 -1.8 4.35 -1.85 4.65 -1.9 4.95 -1.35 5.0 -1.3 5.05 -1.25 5.15 -1.05 5.15 -0.65 4.45 -0.65 4.25 0.7 M1.2 1.0 L1.2 0.95 Q1.65 0.55 1.7 -0.05 L1.45 -0.6 1.25 -0.85 1.3 -0.95 1.3 -1.0 1.25 -1.05 1.2 -1.1 0.9 -1.3 -0.2 -1.2 Q-1.4 -0.35 -0.75 0.95 L-0.4 1.25 1.2 1.0" fill="#ceab73" fill-rule="evenodd" stroke="none"/>
    </g>
    <g id="shape2" transform="matrix(1.0, 0.0, 0.0, 1.0, 2.3, 30.5)">
      <path d="M2.7 2.7 L-0.95 2.2 -1.0 2.2 -1.05 2.3 -1.1 2.3 -2.3 2.05 -2.25 1.6 -1.7 -1.9 -1.65 -1.9 -1.6 -1.95 -0.5 -1.65 0.2 -7.8 0.2 -7.85 0.1 -7.95 0.2 -8.15 0.7 -11.8 0.7 -11.9 0.8 -12.8 0.75 -12.95 0.8 -13.0 1.1 -15.65 1.05 -15.7 1.0 -15.75 1.15 -15.9 1.3 -17.1 Q1.2 -17.2 1.25 -17.35 L1.3 -17.45 1.9 -22.2 1.8 -22.3 1.8 -22.5 1.6 -22.6 1.55 -22.65 Q1.45 -23.0 1.6 -23.15 L1.55 -23.65 1.45 -23.85 1.4 -23.8 1.35 -23.75 Q1.25 -24.85 1.45 -26.05 1.95 -28.75 4.55 -29.75 L4.75 -29.9 6.3 -29.8 6.3 -29.85 6.3 -29.95 6.45 -30.3 6.55 -30.45 6.6 -30.5 7.05 -30.4 7.1 -30.4 7.2 -30.35 7.3 -30.3 7.25 -30.15 6.3 -21.75 6.15 -21.35 6.1 -21.3 6.05 -21.3 6.0 -21.3 5.6 -21.35 5.45 -21.4 5.4 -21.45 5.3 -21.5 5.15 -21.15 5.1 -21.1 4.8 -21.1 4.75 -21.1 4.6 -21.05 4.5 -20.65 3.95 -15.5 4.0 -15.5 4.05 -15.45 3.9 -15.35 3.9 -15.3 3.75 -13.95 3.8 -13.95 3.85 -13.9 3.85 -13.85 3.9 -13.8 3.8 -13.7 3.8 -13.65 3.75 -13.65 2.35 -1.35 3.35 -1.2 3.4 -1.2 3.45 -1.15 3.5 -1.05 3.05 2.6 3.0 2.65 2.7 2.7 M2.05 1.55 L2.05 1.6 2.05 1.65 2.0 1.7 1.95 1.9 1.9 1.85 1.8 1.85 1.75 1.85 1.4 2.0 1.35 2.05 0.55 2.0 0.35 1.95 0.25 1.9 0.2 1.85 -0.55 1.7 -0.6 1.7 -0.75 1.75 -0.8 1.75 -0.8 1.65 -0.85 1.55 -0.75 1.45 -0.8 1.3 -0.85 1.25 -0.55 -1.4 -1.4 -1.65 -1.85 1.75 -1.9 1.8 -1.9 1.95 -1.2 2.0 -1.15 2.0 -1.05 1.9 -0.9 1.9 2.75 2.4 3.1 -0.95 3.05 -0.95 2.3 -1.1 2.05 1.5 2.05 1.55 M1.75 1.3 L2.8 -7.5 2.75 -7.45 2.7 -7.4 1.35 -8.1 1.3 -8.15 1.15 -8.15 1.05 -8.2 1.0 -8.2 0.9 -8.1 0.8 -8.05 0.75 -7.95 0.55 -7.9 -0.45 1.3 -0.45 1.4 -0.4 1.4 -0.3 1.45 -0.25 1.5 -0.2 1.5 0.25 1.55 0.4 1.55 0.45 1.6 0.5 1.65 1.1 1.75 1.3 1.75 1.6 1.6 1.6 1.45 1.65 1.4 1.75 1.3 M1.0 0.95 L0.9 1.0 0.3 1.0 0.2 0.95 Q-0.2 0.65 0.05 0.1 L0.35 -0.05 0.55 -0.05 0.55 -0.2 0.6 -0.2 0.7 -0.25 0.8 -0.2 1.2 0.25 1.35 0.4 1.15 0.8 1.2 0.85 1.15 0.9 1.15 0.95 1.0 0.95 M1.0 0.35 L1.0 0.3 0.8 0.2 0.45 0.2 0.35 0.2 Q0.2 0.4 0.35 0.7 L0.7 0.75 0.75 0.7 0.9 0.65 1.0 0.35 M6.8 -30.15 L6.7 -30.15 6.65 -30.15 6.6 -29.75 6.6 -29.7 6.55 -29.65 5.6 -21.7 5.7 -21.65 5.9 -21.65 5.9 -21.85 7.05 -30.05 6.8 -30.15 M4.9 -29.65 L4.55 -29.4 Q3.25 -28.9 2.55 -27.85 L2.15 -27.25 2.1 -27.05 2.05 -27.0 Q1.7 -25.45 2.3 -24.05 L2.35 -24.05 Q2.95 -23.15 3.8 -22.6 L4.15 -22.4 4.25 -22.3 5.4 -21.75 6.25 -29.6 4.95 -29.65 4.9 -29.65 M3.55 -22.4 L3.45 -22.55 3.15 -22.8 2.6 -23.3 2.45 -23.5 2.4 -23.45 1.75 -24.65 1.7 -24.4 2.0 -23.45 1.95 -23.35 2.0 -23.0 1.85 -22.9 1.9 -22.8 2.05 -22.65 2.05 -22.6 1.95 -22.5 2.5 -22.3 2.55 -22.35 2.65 -22.4 3.95 -21.8 4.5 -21.55 4.5 -21.5 4.8 -21.4 4.85 -21.4 4.85 -21.35 4.95 -21.4 5.05 -21.6 3.65 -22.4 3.6 -22.4 3.55 -22.4 M3.95 -21.4 L2.15 -22.15 2.1 -22.15 1.55 -17.25 1.65 -17.25 1.85 -17.0 2.5 -16.65 2.6 -16.65 2.85 -16.75 Q3.2 -16.8 3.55 -17.0 L3.65 -17.05 3.8 -17.05 3.85 -17.05 4.25 -20.5 4.25 -20.6 4.3 -21.15 3.95 -21.4 M2.95 -16.5 L2.85 -16.5 2.7 -16.4 3.7 -15.7 3.8 -16.75 3.75 -16.75 Q3.4 -16.5 2.95 -16.5 M3.3 -12.0 L3.5 -13.7 3.45 -13.75 2.5 -13.1 3.3 -12.0 3.3 -11.95 3.3 -12.0 M3.55 -14.25 L3.55 -14.2 3.55 -14.25 3.65 -15.45 2.35 -16.3 2.3 -16.3 2.3 -16.35 2.2 -16.35 1.8 -16.7 1.7 -16.75 1.5 -16.95 1.4 -15.8 1.55 -15.65 1.6 -15.55 2.3 -15.1 2.4 -15.0 2.45 -14.95 2.55 -14.9 3.3 -14.25 3.4 -14.3 3.5 -14.2 3.5 -14.25 3.55 -14.25 M3.1 -14.1 L2.15 -13.45 2.1 -13.4 2.0 -13.35 2.05 -13.35 1.9 -13.2 1.85 -13.2 1.8 -13.2 1.35 -13.05 1.25 -13.05 1.15 -12.85 1.1 -12.8 1.0 -12.1 1.15 -12.15 1.15 -12.2 1.15 -12.35 3.2 -13.9 3.3 -13.95 3.1 -14.1 M3.1 -11.75 L3.05 -11.95 2.3 -12.9 1.35 -12.15 1.4 -12.1 1.05 -11.8 1.05 -11.75 1.0 -11.7 0.9 -10.85 2.15 -10.95 2.2 -11.0 1.85 -11.55 1.75 -11.55 1.6 -11.8 1.45 -11.85 1.4 -11.85 1.5 -12.2 1.8 -12.05 1.95 -11.85 3.1 -10.35 3.25 -11.85 3.15 -11.75 3.1 -11.75 M2.4 -10.7 L2.35 -10.7 1.5 -10.5 1.5 -9.5 1.5 -9.45 2.95 -8.95 3.05 -9.95 2.55 -10.65 2.4 -10.7 M2.9 -8.7 L2.1 -8.9 1.35 -8.45 2.8 -7.6 2.9 -8.7 M0.65 -8.35 Q1.25 -8.9 2.0 -8.95 L1.4 -9.3 1.4 -9.25 1.35 -9.2 1.3 -9.2 1.2 -9.25 1.15 -9.35 0.8 -9.5 0.75 -9.5 0.6 -8.3 0.65 -8.35 M1.15 -9.65 L1.3 -10.55 1.1 -10.6 1.05 -10.6 0.85 -10.55 0.8 -9.9 0.85 -9.9 0.9 -9.8 1.15 -9.65 M1.65 -13.5 L1.2 -13.9 1.15 -13.9 1.15 -13.25 1.65 -13.5 M1.3 -14.25 L1.85 -13.6 2.95 -14.25 2.3 -14.7 2.25 -14.7 1.35 -15.45 1.2 -14.2 1.3 -14.25 M1.7 -24.85 L1.75 -24.75 1.7 -24.9 1.7 -24.85" fill="#000000" fill-rule="evenodd" stroke="none"/>
      <path d="M2.05 1.55 L2.05 1.5 2.3 -1.1 3.05 -0.95 3.1 -0.95 2.75 2.4 -0.9 1.9 -1.05 1.9 -1.15 2.0 -1.2 2.0 -1.9 1.95 -1.9 1.8 -1.85 1.75 -1.4 -1.65 -0.55 -1.4 -0.85 1.25 -0.8 1.3 -0.75 1.45 -0.85 1.55 -0.8 1.65 -0.8 1.75 -0.75 1.75 -0.6 1.7 -0.55 1.7 0.2 1.85 0.25 1.9 0.35 1.95 0.55 2.0 1.35 2.05 1.4 2.0 1.75 1.85 1.8 1.85 1.9 1.85 1.95 1.9 2.0 1.7 2.05 1.65 2.05 1.6 2.05 1.55 M1.0 0.35 L0.9 0.65 0.75 0.7 0.7 0.75 0.35 0.7 Q0.2 0.4 0.35 0.2 L0.45 0.2 0.8 0.2 1.0 0.3 1.0 0.35" fill="#a69b9b" fill-rule="evenodd" stroke="none"/>
      <path d="M1.0 0.95 L1.15 0.95 1.15 0.9 1.2 0.85 1.15 0.8 1.35 0.4 1.2 0.25 0.8 -0.2 0.7 -0.25 0.6 -0.2 0.55 -0.2 0.55 -0.05 0.35 -0.05 0.05 0.1 Q-0.2 0.65 0.2 0.95 L0.3 1.0 0.9 1.0 1.0 0.95 M1.75 1.3 L1.65 1.4 1.6 1.45 1.6 1.6 1.3 1.75 1.1 1.75 0.5 1.65 0.45 1.6 0.4 1.55 0.25 1.55 -0.2 1.5 -0.25 1.5 -0.3 1.45 -0.4 1.4 -0.45 1.4 -0.45 1.3 0.55 -7.9 0.75 -7.95 0.8 -8.05 0.9 -8.1 1.0 -8.2 1.05 -8.2 1.15 -8.15 1.3 -8.15 1.35 -8.1 2.7 -7.4 2.75 -7.45 2.8 -7.5 1.75 1.3 M4.9 -29.65 L4.95 -29.65 6.25 -29.6 5.4 -21.75 4.25 -22.3 4.15 -22.4 3.8 -22.6 Q2.95 -23.15 2.35 -24.05 L2.3 -24.05 Q1.7 -25.45 2.05 -27.0 L2.1 -27.05 2.15 -27.25 2.55 -27.85 Q3.25 -28.9 4.55 -29.4 L4.9 -29.65 M3.95 -21.4 L4.3 -21.15 4.25 -20.6 4.25 -20.5 3.85 -17.05 3.8 -17.05 3.65 -17.05 3.55 -17.0 Q3.2 -16.8 2.85 -16.75 L2.6 -16.65 2.5 -16.65 1.85 -17.0 1.65 -17.25 1.55 -17.25 2.1 -22.15 2.15 -22.15 3.95 -21.4" fill="#715426" fill-rule="evenodd" stroke="none"/>
      <path d="M6.8 -30.15 L7.05 -30.05 5.9 -21.85 5.9 -21.65 5.7 -21.65 5.6 -21.7 6.55 -29.65 6.6 -29.7 6.6 -29.75 6.65 -30.15 6.7 -30.15 6.8 -30.15 M3.55 -22.4 L3.6 -22.4 3.65 -22.4 5.05 -21.6 4.95 -21.4 4.85 -21.35 4.85 -21.4 4.8 -21.4 4.5 -21.5 4.5 -21.55 3.95 -21.8 2.65 -22.4 2.55 -22.35 2.5 -22.3 1.95 -22.5 2.05 -22.6 2.05 -22.65 1.9 -22.8 1.85 -22.9 2.0 -23.0 1.95 -23.35 2.0 -23.45 1.7 -24.4 1.75 -24.65 2.4 -23.45 2.45 -23.5 2.6 -23.3 3.15 -22.8 3.45 -22.55 3.55 -22.4" fill="#9d6f37" fill-rule="evenodd" stroke="none"/>
      <path d="M3.3 -12.0 L2.5 -13.1 3.45 -13.75 3.5 -13.7 3.3 -12.0 M2.95 -16.5 Q3.4 -16.5 3.75 -16.75 L3.8 -16.75 3.7 -15.7 2.7 -16.4 2.85 -16.5 2.95 -16.5 M3.55 -14.25 L3.5 -14.25 3.5 -14.2 3.4 -14.3 3.3 -14.25 2.55 -14.9 2.45 -14.95 2.4 -15.0 2.3 -15.1 1.6 -15.55 1.55 -15.65 1.4 -15.8 1.5 -16.95 1.7 -16.75 1.8 -16.7 2.2 -16.35 2.3 -16.35 2.3 -16.3 2.35 -16.3 3.65 -15.45 3.55 -14.25 M1.3 -14.25 L1.2 -14.2 1.35 -15.45 2.25 -14.7 2.3 -14.7 2.95 -14.25 1.85 -13.6 1.3 -14.25 M1.65 -13.5 L1.15 -13.25 1.15 -13.9 1.2 -13.9 1.65 -13.5 M1.15 -9.65 L0.9 -9.8 0.85 -9.9 0.8 -9.9 0.85 -10.55 1.05 -10.6 1.1 -10.6 1.3 -10.55 1.15 -9.65 M0.65 -8.35 L0.6 -8.3 0.75 -9.5 0.8 -9.5 1.15 -9.35 1.2 -9.25 1.3 -9.2 1.35 -9.2 1.4 -9.25 1.4 -9.3 2.0 -8.95 Q1.25 -8.9 0.65 -8.35 M2.9 -8.7 L2.8 -7.6 1.35 -8.45 2.1 -8.9 2.9 -8.7 M2.4 -10.7 L2.55 -10.65 3.05 -9.95 2.95 -8.95 1.5 -9.45 1.5 -9.5 1.5 -10.5 2.35 -10.7 2.4 -10.7 M3.1 -11.75 L3.15 -11.75 3.25 -11.85 3.1 -10.35 1.95 -11.85 1.8 -12.05 1.5 -12.2 1.4 -11.85 1.45 -11.85 1.6 -11.8 1.75 -11.55 1.85 -11.55 2.2 -11.0 2.15 -10.95 0.9 -10.85 1.0 -11.7 1.05 -11.75 1.05 -11.8 1.4 -12.1 1.35 -12.15 2.3 -12.9 3.05 -11.95 3.1 -11.75 M3.1 -14.1 L3.3 -13.95 3.2 -13.9 1.15 -12.35 1.15 -12.2 1.15 -12.15 1.0 -12.1 1.1 -12.8 1.15 -12.85 1.25 -13.05 1.35 -13.05 1.8 -13.2 1.85 -13.2 1.9 -13.2 2.05 -13.35 2.0 -13.35 2.1 -13.4 2.15 -13.45 3.1 -14.1" fill="#e3cdb3" fill-rule="evenodd" stroke="none"/>
    </g>
    <g id="shape3" transform="matrix(1.0, 0.0, 0.0, 1.0, -5.4, 2.55)">
      <path d="M9.6 -0.15 L8.65 -1.1 Q8.25 -1.4 8.35 -2.0 L8.35 -2.2 8.15 -2.2 8.05 -2.2 8.05 -1.7 8.05 -1.6 8.05 -1.5 8.1 -1.45 7.9 -1.25 7.15 -1.0 6.8 -0.55 6.75 -0.4 6.8 -0.35 6.35 -0.3 6.3 -0.25 5.9 -0.35 5.8 -0.15 5.75 -0.1 5.85 0.0 6.25 0.1 6.3 0.05 6.65 0.1 6.8 0.05 7.05 0.7 7.0 0.75 7.65 1.2 7.7 1.25 7.8 1.25 7.95 1.6 8.0 2.05 8.0 2.15 8.3 2.25 8.4 1.45 8.35 1.4 8.35 1.3 8.4 1.25 8.65 1.2 8.7 1.25 9.2 0.75 9.3 0.65 9.4 0.35 9.4 0.25 9.55 0.2 9.6 0.25 9.6 0.35 10.5 0.25 9.6 -0.15 M10.1 0.45 L9.9 0.55 9.85 0.6 9.6 0.65 9.55 0.7 9.6 0.75 8.95 1.3 8.9 1.45 8.7 1.55 8.6 1.55 8.7 2.35 8.65 2.4 8.6 2.55 8.5 2.55 7.95 2.5 7.75 2.4 7.65 1.7 7.6 1.45 7.25 1.3 6.75 0.8 6.65 0.4 Q5.85 0.5 5.4 -0.05 L5.5 -0.15 5.55 -0.2 Q5.45 -0.3 5.5 -0.45 5.75 -0.7 6.1 -0.65 6.2 -0.55 6.25 -0.6 L6.55 -0.6 6.55 -0.7 6.8 -0.95 6.8 -1.05 Q7.15 -1.4 7.6 -1.45 L7.65 -1.5 7.75 -1.6 7.7 -1.95 7.8 -2.05 7.65 -2.3 7.6 -2.45 7.65 -2.5 8.4 -2.55 8.6 -2.45 8.7 -1.35 8.75 -1.4 8.9 -1.35 Q9.5 -0.95 9.6 -0.35 L10.8 -0.05 10.6 0.55 10.5 0.55 10.1 0.45 M8.0 -0.65 L8.3 -0.55 8.3 -0.45 8.4 -0.45 8.45 -0.4 8.6 -0.25 8.65 -0.2 8.65 0.0 8.65 0.2 8.6 0.25 8.5 0.25 8.5 0.35 8.4 0.45 8.3 0.45 Q7.85 0.4 7.6 -0.15 L7.65 -0.3 7.8 -0.45 7.85 -0.5 7.95 -0.6 8.0 -0.65 M8.4 0.15 L8.35 0.0 8.25 -0.2 8.15 -0.3 8.0 -0.25 7.95 -0.2 8.0 -0.15 8.3 0.15 8.4 0.15" fill="#000000" fill-rule="evenodd" stroke="none"/>
      <path d="M9.6 -0.15 L10.5 0.25 9.6 0.35 9.6 0.25 9.55 0.2 9.4 0.25 9.4 0.35 9.3 0.65 9.2 0.75 8.7 1.25 8.65 1.2 8.4 1.25 8.35 1.3 8.35 1.4 8.4 1.45 8.3 2.25 8.0 2.15 8.0 2.05 7.95 1.6 7.8 1.25 7.7 1.25 7.65 1.2 7.0 0.75 7.05 0.7 6.8 0.05 6.65 0.1 6.3 0.05 6.25 0.1 5.85 0.0 5.75 -0.1 5.8 -0.15 5.9 -0.35 6.3 -0.25 6.35 -0.3 6.8 -0.35 6.75 -0.4 6.8 -0.55 7.15 -1.0 7.9 -1.25 8.1 -1.45 8.05 -1.5 8.05 -1.6 8.05 -1.7 8.05 -2.2 8.15 -2.2 8.35 -2.2 8.35 -2.0 Q8.25 -1.4 8.65 -1.1 L9.6 -0.15 M8.0 -0.65 L7.95 -0.6 7.85 -0.5 7.8 -0.45 7.65 -0.3 7.6 -0.15 Q7.85 0.4 8.3 0.45 L8.4 0.45 8.5 0.35 8.5 0.25 8.6 0.25 8.65 0.2 8.65 0.0 8.65 -0.2 8.6 -0.25 8.45 -0.4 8.4 -0.45 8.3 -0.45 8.3 -0.55 8.0 -0.65" fill="#ceab73" fill-rule="evenodd" stroke="none"/>
      <path d="M8.4 0.15 L8.3 0.15 8.0 -0.15 7.95 -0.2 8.0 -0.25 8.15 -0.3 8.25 -0.2 8.35 0.0 8.4 0.15" fill="#a69b9b" fill-rule="evenodd" stroke="none"/>
    </g>
  </defs>
</svg>
