<?xml version="1.0" encoding="UTF-8" standalone="no"?>
<svg xmlns:xlink="http://www.w3.org/1999/xlink" height="234.0px" width="255.6px" xmlns="http://www.w3.org/2000/svg">
  <g transform="matrix(6.0, 0.0, 0.0, 6.0, 190.8, 187.5)">
    <use height="8.15" transform="matrix(0.9983, -0.0485, 0.0485, 0.9983, -29.9429, -5.1259)" width="6.9" xlink:href="#sprite0"/>
    <use height="16.85" transform="matrix(1.0, 0.0, 0.0, 1.0, -1.1, -10.25)" width="10.8" xlink:href="#shape1"/>
    <use height="10.85" transform="matrix(0.9868, 0.1596, -0.1596, 0.9868, -4.0284, -5.8813)" width="10.55" xlink:href="#shape2"/>
    <use height="9.0" transform="matrix(0.9959, 0.0919, -0.0919, 0.9959, -30.936, -5.4702)" width="33.8" xlink:href="#shape3"/>
    <use height="5.1" transform="matrix(1.0, 0.0, 0.0, 1.0, 5.4, -2.55)" width="5.4" xlink:href="#shape4"/>
  </g>
  <defs>
    <g id="sprite0" transform="matrix(1.0, 0.0, 0.0, 1.0, 3.45, 4.1)">
      <use height="8.15" transform="matrix(1.0, 0.0, 0.0, 1.0, -3.45, -4.1)" width="6.9" xlink:href="#shape0"/>
    </g>
    <g id="shape0" transform="matrix(1.0, 0.0, 0.0, 1.0, 3.45, 4.1)">
      <path d="M0.45 -3.7 L-1.5 -3.6 -1.5 -3.55 -1.65 -3.55 -1.65 -3.1 -1.4 -3.15 -1.45 -3.35 -1.25 -3.35 -1.0 -3.35 0.6 -3.55 0.55 -3.7 0.95 -3.8 1.3 -3.8 1.5 -3.6 0.6 -3.35 -0.4 -3.25 -0.5 -3.2 -0.5 -3.05 1.3 -3.1 1.3 -3.05 1.4 -2.5 1.75 -2.0 2.25 -1.5 2.9 -1.15 2.95 -0.15 2.85 -0.15 2.85 1.05 2.75 2.2 2.5 2.4 2.1 2.65 1.25 3.05 0.15 3.45 -1.1 3.7 -1.05 3.85 -2.0 3.65 -2.6 3.4 -3.05 3.1 -3.2 2.75 -3.25 -0.7 -3.1 -1.1 -3.0 -1.15 -2.25 -1.85 Q-1.75 -2.5 -1.75 -2.9 L-1.7 -2.95 -1.7 -3.05 -1.9 -3.15 -1.95 -3.25 -1.9 -3.45 -1.55 -3.65 0.45 -3.7 M-2.9 -1.0 L-2.9 -0.85 -2.55 -0.65 -0.4 -0.5 1.45 -0.55 1.4 -0.75 -1.95 -0.8 Q-2.7 -0.8 -2.7 -1.0 L-2.9 -1.0 M-2.4 -1.35 L-2.4 -1.1 -2.15 -1.1 -2.15 -1.0 -1.2 -0.9 -1.15 -0.9 -1.0 -0.9 -0.9 -0.9 -0.5 -0.9 1.6 -1.2 1.55 -1.3 0.6 -1.2 0.55 -1.35 -0.1 -1.45 -0.25 -1.5 -0.35 -1.55 -0.6 -1.55 -1.05 -1.7 -1.3 -1.7 Q-1.05 -2.05 -1.05 -2.65 L-1.1 -2.75 -1.8 -2.15 -2.4 -1.35 M-2.65 -0.35 L-2.8 -0.5 -3.05 -0.55 -3.1 0.45 -3.05 0.55 -3.05 3.0 -2.55 3.1 -2.4 3.2 -2.25 3.15 -2.25 3.05 -2.2 3.0 -1.8 1.7 Q-1.35 0.7 -0.9 0.5 L-0.9 0.45 -0.85 0.15 -0.75 -0.1 -0.65 -0.2 -0.55 -0.35 -0.6 -0.45 -0.8 -0.45 -0.85 -0.45 -0.85 -0.4 -0.95 -0.3 -1.25 -0.3 -2.65 -0.35 M1.6 -3.5 L1.65 -3.45 1.5 -3.3 1.45 -3.35 1.6 -3.5 M3.1 1.3 L3.2 1.75 3.1 1.65 3.1 1.3" fill="#ca984f" fill-rule="evenodd" stroke="none"/>
      <path d="M-1.05 3.85 L-1.1 3.7 0.15 3.45 1.25 3.05 2.1 2.65 2.5 2.4 2.75 2.2 2.85 1.05 2.85 -0.15 2.95 -0.15 3.05 -0.15 3.1 1.3 3.1 1.65 3.2 1.75 3.25 2.7 3.15 2.65 3.1 2.75 3.0 2.85 2.9 2.95 2.6 3.0 1.9 3.4 0.95 3.65 -0.3 3.85 -0.55 3.9 -1.05 3.9 -1.05 3.85 M1.3 -3.1 L-0.5 -3.05 -0.5 -3.2 -0.4 -3.25 0.6 -3.35 1.5 -3.6 1.55 -3.6 1.6 -3.5 1.45 -3.35 1.4 -3.3 1.55 -3.25 1.55 -3.15 1.55 -3.1 1.3 -3.1" fill="#412f14" fill-rule="evenodd" stroke="none"/>
      <path d="M0.55 -3.7 L0.6 -3.55 -1.0 -3.35 -1.25 -3.35 -1.45 -3.35 -1.4 -3.15 -1.65 -3.1 -1.65 -3.55 -1.5 -3.55 -1.5 -3.6 0.45 -3.7 0.55 -3.7 M-2.65 -0.35 L-1.25 -0.3 -0.95 -0.3 -0.85 -0.4 -0.85 -0.45 -0.8 -0.45 -0.6 -0.45 -0.55 -0.35 -0.65 -0.2 -0.75 -0.1 -0.85 0.15 -0.9 0.45 -0.9 0.5 Q-1.35 0.7 -1.8 1.7 L-2.2 3.0 -2.25 3.05 -2.25 3.15 -2.4 3.2 -2.55 3.1 -3.05 3.0 -3.05 0.55 -3.1 0.45 -3.05 -0.55 -2.8 -0.5 -2.65 -0.35 M-2.4 -1.35 L-1.8 -2.15 -1.1 -2.75 -1.05 -2.65 Q-1.05 -2.05 -1.3 -1.7 L-1.05 -1.7 -0.6 -1.55 -0.35 -1.55 -0.25 -1.5 -0.1 -1.45 0.55 -1.35 0.6 -1.2 1.55 -1.3 1.6 -1.2 -0.5 -0.9 -0.9 -0.9 -1.0 -0.9 -1.15 -0.9 -1.2 -0.9 -2.15 -1.0 -2.15 -1.1 -2.4 -1.1 -2.4 -1.35" fill="#e8d1b0" fill-rule="evenodd" stroke="none"/>
      <path d="M0.45 -3.7 L-1.55 -3.65 -1.9 -3.45 -1.95 -3.25 -1.9 -3.15 -1.7 -3.05 -1.7 -2.95 -1.75 -2.9 Q-1.75 -2.5 -2.25 -1.85 L-3.0 -1.15 -3.1 -1.1 -3.25 -0.7 -3.2 2.75 -3.05 3.1 -2.6 3.4 -2.0 3.65 -1.05 3.85 -1.05 3.9 -0.55 3.9 -0.3 3.85 0.95 3.65 1.9 3.4 2.6 3.0 2.9 2.95 3.0 2.85 3.1 2.75 3.15 2.65 3.25 2.7 3.2 1.75 3.1 1.3 3.05 -0.15 2.95 -0.15 2.9 -1.15 2.25 -1.5 1.75 -2.0 1.4 -2.5 1.3 -3.05 1.3 -3.1 1.55 -3.1 Q1.55 -1.95 3.05 -1.35 L3.05 -1.3 3.1 -1.3 3.2 -0.9 3.1 -0.65 3.45 2.5 3.4 3.05 3.25 3.05 3.25 2.9 2.8 3.2 2.45 3.45 1.9 3.6 1.4 3.8 0.55 3.9 -0.6 4.05 -1.8 3.95 Q-2.05 3.85 -2.9 3.5 -3.55 3.25 -3.4 2.75 L-3.4 -1.3 -3.1 -1.3 -2.4 -2.15 -2.05 -2.55 -1.95 -2.9 Q-2.15 -3.0 -2.15 -3.25 -2.15 -3.75 -1.7 -3.75 L0.45 -3.95 0.85 -3.95 1.0 -4.1 1.65 -4.1 1.7 -4.0 1.6 -3.85 1.65 -3.75 1.9 -3.45 1.6 -3.15 1.55 -3.15 1.55 -3.25 1.4 -3.3 1.45 -3.35 1.5 -3.3 1.65 -3.45 1.6 -3.5 1.55 -3.6 1.5 -3.6 1.3 -3.8 0.95 -3.8 0.55 -3.7 0.45 -3.7 M-2.9 -1.0 L-2.7 -1.0 Q-2.7 -0.8 -1.95 -0.8 L1.4 -0.75 1.45 -0.55 -0.4 -0.5 -2.55 -0.65 -2.9 -0.85 -2.9 -1.0" fill="#000000" fill-rule="evenodd" stroke="none"/>
    </g>
    <g id="shape1" transform="matrix(1.0, 0.0, 0.0, 1.0, 1.1, 10.25)">
      <path d="M9.3 -0.05 L9.4 2.15 9.4 2.45 9.7 3.25 9.6 3.85 9.65 3.9 9.7 3.95 9.7 4.05 8.75 4.2 8.7 4.15 8.55 4.1 9.0 4.55 9.05 4.5 9.15 4.5 9.1 4.55 9.15 4.6 9.1 4.65 9.15 4.7 9.1 4.75 9.0 4.85 7.15 6.6 7.05 6.6 7.0 6.45 7.2 6.25 0.8 -0.05 0.6 -0.05 0.6 -0.15 0.55 -0.2 0.45 -0.3 -0.9 -1.75 -1.0 -1.85 -1.1 -1.95 -1.05 -2.0 -0.95 -2.0 -0.85 -2.2 -0.75 -2.3 -0.55 -2.5 -0.65 -2.6 -0.65 -2.7 -0.6 -2.75 -0.45 -2.7 -0.4 -2.65 3.45 -6.5 4.5 -7.55 3.65 -7.8 Q3.25 -8.0 3.1 -8.45 2.8 -9.45 3.8 -9.95 L3.95 -10.1 4.5 -10.15 5.2 -9.95 5.8 -9.15 5.85 -9.1 5.8 -9.05 5.7 -8.75 6.3 -9.35 6.35 -9.3 6.45 -9.3 6.4 -9.25 6.45 -9.2 6.4 -9.15 6.55 -9.1 7.85 -7.7 7.95 -7.7 7.95 -7.6 8.05 -7.5 8.0 -7.45 7.9 -7.35 7.8 -7.45 6.95 -6.5 8.4 -6.25 8.45 -6.2 8.55 -6.2 Q8.5 -3.65 9.15 -1.1 L9.3 -0.05 M9.35 3.9 L9.35 3.3 9.4 3.25 Q9.0 2.25 9.05 1.1 L8.6 -1.95 Q8.35 -3.2 8.35 -4.4 L8.35 -5.4 8.35 -6.0 6.75 -6.3 6.5 -6.05 6.55 -6.1 6.6 -6.05 6.55 -5.7 6.6 -5.65 Q6.55 -2.6 6.9 0.45 7.1 1.45 6.95 2.5 L8.2 3.75 8.25 3.8 8.25 3.7 8.6 3.85 9.05 3.8 9.0 3.85 9.35 3.9 9.4 3.95 9.35 3.9 M6.3 -5.45 L6.35 -5.9 3.8 -3.35 2.5 -2.05 2.55 -2.0 6.7 2.25 6.3 -3.65 6.3 -5.45 M2.3 -1.85 L0.75 -0.4 0.85 -0.3 7.3 6.15 Q8.0 5.35 8.85 4.7 L2.35 -1.8 2.3 -1.85 M6.4 -8.95 L6.35 -8.9 6.3 -8.85 5.7 -8.25 5.65 -8.1 5.55 -7.9 5.05 -7.7 2.05 -4.7 -0.25 -2.5 1.1 -1.05 4.7 -4.65 7.7 -7.55 6.4 -8.95 M4.75 -9.7 L4.65 -9.9 4.3 -9.85 4.1 -9.85 3.5 -9.45 3.25 -9.1 Q3.2 -8.25 4.05 -7.8 L4.9 -7.95 5.4 -8.45 5.4 -8.55 5.45 -8.9 5.5 -9.15 5.1 -9.55 4.95 -9.7 4.8 -9.75 4.75 -9.7 M-0.4 -2.25 L-0.7 -1.85 0.6 -0.55 0.95 -0.9 -0.45 -2.3 -0.4 -2.25" fill="#000000" fill-rule="evenodd" stroke="none"/>
      <path d="M8.2 3.75 L6.95 2.5 Q7.1 1.45 6.9 0.45 6.55 -2.6 6.6 -5.65 L6.55 -5.7 6.6 -6.05 6.55 -6.1 6.5 -6.05 6.75 -6.3 8.35 -6.0 8.35 -5.4 8.35 -4.4 Q8.35 -3.2 8.6 -1.95 L9.05 1.1 Q9.0 2.25 9.4 3.25 L9.35 3.3 9.35 3.9 9.0 3.85 9.05 3.8 8.6 3.85 8.25 3.7 8.2 3.75 M2.3 -1.85 L2.35 -1.8 8.85 4.7 Q8.0 5.35 7.3 6.15 L0.85 -0.3 0.75 -0.4 2.3 -1.85 M6.35 -8.9 L6.4 -8.95 7.7 -7.55 4.7 -4.65 1.1 -1.05 -0.25 -2.5 2.05 -4.7 5.05 -7.7 5.55 -7.9 5.65 -8.1 5.7 -8.25 6.3 -8.85 6.35 -8.9 M4.75 -9.7 L4.15 -9.8 3.85 -9.6 Q3.3 -9.45 3.35 -8.9 3.6 -8.35 4.05 -8.1 L4.1 -8.15 4.15 -8.2 4.7 -8.25 Q5.6 -8.85 5.1 -9.55 L5.5 -9.15 5.45 -8.9 5.4 -8.55 5.4 -8.45 4.9 -7.95 4.05 -7.8 Q3.2 -8.25 3.25 -9.1 L3.5 -9.45 4.1 -9.85 4.3 -9.85 4.65 -9.9 4.75 -9.7" fill="#ab813a" fill-rule="evenodd" stroke="none"/>
      <path d="M6.35 -8.9 L6.4 -8.95 6.35 -8.9" fill="#715426" fill-rule="evenodd" stroke="none"/>
      <path d="M5.1 -9.55 Q5.6 -8.85 4.7 -8.25 L4.15 -8.2 4.1 -8.15 4.05 -8.1 Q3.6 -8.35 3.35 -8.9 3.3 -9.45 3.85 -9.6 L4.15 -9.8 4.75 -9.7 4.8 -9.75 4.95 -9.7 5.1 -9.55" fill="#d8b68d" fill-rule="evenodd" stroke="none"/>
      <path d="M7.85 -7.2 L7.9 -7.15 7.85 -7.1 7.75 -7.1 7.7 -7.15 7.6 -7.05 7.55 -6.8 7.4 -6.85 5.4 -8.75 5.4 -8.95 5.3 -9.15 5.2 -9.45 4.6 -9.85 4.4 -9.95 4.05 -10.0 4.0 -9.95 3.95 -9.9 3.7 -9.85 3.6 -9.95 3.65 -10.0 3.65 -10.1 4.0 -10.25 4.1 -10.25 4.45 -10.2 4.95 -10.2 5.05 -10.1 5.1 -10.05 5.6 -9.65 7.75 -7.4 7.8 -7.35 7.85 -7.3 7.85 -7.2 M8.5 -5.55 L8.75 -4.8 8.7 -4.75 8.8 -4.65 8.85 -4.6 8.9 -4.45 8.85 -4.4 8.75 -4.4 8.65 -4.4 8.5 -4.35 8.45 -4.4 Q8.35 -4.3 8.25 -4.3 7.45 -3.7 6.5 -3.55 L6.55 -3.3 6.45 -3.3 6.3 -3.35 6.25 -3.6 6.05 -3.9 6.1 -3.95 6.05 -4.0 6.15 -4.0 7.35 -4.9 5.4 -5.55 5.45 -5.1 5.5 -5.05 4.85 -4.5 4.8 -4.45 Q4.35 -4.5 4.5 -4.85 L4.55 -4.9 4.65 -4.9 4.45 -5.8 3.1 -6.15 3.3 -6.55 3.55 -6.8 3.5 -7.05 3.55 -7.1 3.65 -7.2 3.15 -8.0 3.15 -8.5 4.15 -7.9 4.8 -7.95 4.9 -7.95 4.95 -7.9 4.95 -7.8 5.45 -6.6 8.2 -5.55 8.3 -5.55 8.35 -5.6 8.45 -5.6 8.5 -5.55 M8.4 -4.85 L8.45 -4.9 8.25 -5.2 8.2 -5.25 5.2 -6.35 4.3 -6.75 4.05 -6.8 3.9 -6.75 3.75 -6.6 3.6 -6.45 7.65 -5.1 7.85 -5.1 8.0 -4.95 8.15 -4.8 8.45 -4.8 8.4 -4.85 M7.6 -4.65 L6.5 -3.95 6.45 -3.9 6.4 -3.85 6.5 -3.75 6.6 -3.75 7.85 -4.4 7.95 -4.5 8.05 -4.5 7.75 -4.7 7.6 -4.65 M9.35 3.1 L9.35 2.6 Q7.25 3.2 5.45 4.1 L5.4 4.15 5.85 4.5 6.0 4.45 6.2 4.35 7.85 3.6 8.15 3.6 9.3 3.15 9.35 3.1 M9.3 2.35 L9.4 2.25 9.55 2.3 9.55 2.6 9.6 2.65 9.7 3.25 Q9.1 3.65 8.3 3.85 L7.9 3.85 7.6 4.05 Q7.35 4.8 6.75 5.4 L6.7 5.45 6.7 5.55 6.8 5.65 6.85 5.8 6.8 5.85 6.55 5.8 5.95 5.1 5.8 5.15 5.75 5.1 5.75 4.8 Q5.25 4.6 4.9 4.15 6.6 2.95 8.85 2.4 L9.3 2.35 M6.1 4.85 L6.5 5.25 7.25 4.2 6.3 4.65 6.25 4.7 6.15 4.8 6.1 4.85 M7.4 -7.25 L7.5 -7.35 5.7 -8.95 5.8 -8.75 7.4 -7.25 M3.9 -7.35 L4.15 -7.4 4.35 -7.6 4.05 -7.6 4.0 -7.55 Q3.85 -7.6 3.65 -7.8 L3.9 -7.35 3.95 -7.3 3.9 -7.35 M4.75 -7.4 L4.4 -7.15 4.45 -6.9 5.1 -6.65 4.75 -7.4 M4.6 -5.75 L4.9 -4.95 5.25 -5.2 5.05 -5.7 4.6 -5.75" fill="#000000" fill-rule="evenodd" stroke="none"/>
      <path d="M9.35 3.1 L9.3 3.15 8.15 3.6 7.85 3.6 6.2 4.35 6.0 4.45 5.85 4.5 5.4 4.15 5.45 4.1 Q7.25 3.2 9.35 2.6 L9.35 3.1 M7.6 -4.65 L7.75 -4.7 8.05 -4.5 7.95 -4.5 7.85 -4.4 6.6 -3.75 6.5 -3.75 6.4 -3.85 6.45 -3.9 6.5 -3.95 7.6 -4.65 M8.4 -4.85 L8.45 -4.8 8.15 -4.8 8.0 -4.95 7.85 -5.1 7.65 -5.1 3.6 -6.45 3.75 -6.6 3.9 -6.75 4.05 -6.8 4.3 -6.75 5.2 -6.35 8.2 -5.25 8.25 -5.2 8.45 -4.9 8.4 -4.85 M3.9 -7.35 L3.65 -7.8 Q3.85 -7.6 4.0 -7.55 L4.05 -7.6 4.35 -7.6 4.15 -7.4 3.9 -7.35 M7.4 -7.25 L5.8 -8.75 5.7 -8.95 7.5 -7.35 7.4 -7.25 M6.1 4.85 L6.15 4.8 6.25 4.7 6.3 4.65 7.25 4.2 6.5 5.25 6.1 4.85 M4.6 -5.75 L5.05 -5.7 5.25 -5.2 4.9 -4.95 4.6 -5.75 M4.75 -7.4 L5.1 -6.65 4.45 -6.9 4.4 -7.15 4.75 -7.4" fill="#e3cdb3" fill-rule="evenodd" stroke="none"/>
    </g>
    <g id="shape2" transform="matrix(1.0, 0.0, 0.0, 1.0, 5.0, 5.05)">
      <path d="M3.2 -4.2 L3.3 -4.2 4.4 -3.15 4.45 -3.1 4.45 -3.05 4.45 -2.9 4.35 -2.85 3.9 -2.3 3.9 -2.25 4.05 -1.75 4.15 -1.35 5.15 -1.5 5.25 -1.55 5.35 -1.5 5.4 -1.5 5.5 0.2 5.45 0.3 5.3 0.25 5.25 0.3 4.5 0.55 4.55 1.05 4.5 1.15 4.5 1.2 4.75 1.25 4.85 1.35 4.85 1.4 5.05 1.45 5.3 1.7 5.45 1.8 5.5 1.85 5.5 1.9 5.45 2.0 5.4 2.05 4.8 3.0 4.6 3.4 4.55 3.45 4.45 3.5 4.35 3.55 4.35 3.5 4.2 3.5 4.2 3.4 3.7 3.05 3.65 3.1 3.2 3.55 3.35 3.7 3.4 3.7 3.45 3.9 3.5 3.9 3.55 3.9 3.6 4.45 3.55 4.5 3.45 4.55 2.25 5.25 2.05 5.2 1.85 5.2 1.8 5.0 1.75 4.8 1.65 4.65 1.05 4.6 0.7 4.7 0.7 4.9 0.65 5.0 0.65 5.2 0.65 5.25 0.65 5.45 0.5 5.6 0.4 5.6 -0.75 5.7 -0.85 5.6 -0.95 5.5 -1.35 5.4 -1.45 5.35 -1.5 5.25 -1.25 4.45 -1.2 4.4 -1.6 4.1 -1.65 4.1 -1.8 4.25 -1.85 4.35 -2.25 4.8 -2.3 5.0 -2.45 5.1 -2.55 4.95 -2.55 4.9 -2.75 4.75 -2.85 4.7 -2.85 4.6 -3.1 4.4 -3.15 4.35 -3.25 4.3 -3.3 4.2 -3.65 4.0 -3.6 3.85 -3.55 3.8 -3.5 3.75 -3.55 3.65 -3.5 3.55 -3.2 3.05 -3.2 2.9 -3.3 2.8 -3.3 2.75 -3.35 2.7 -3.4 2.65 -3.4 2.55 -4.15 2.65 -4.2 2.7 -4.25 2.8 -4.5 2.7 -4.8 1.75 -4.85 1.6 -4.8 1.5 -4.75 1.45 -4.75 1.15 -4.85 1.05 -4.75 0.95 -4.7 0.9 -4.15 0.8 -4.05 0.3 -4.05 0.05 -4.8 -0.05 -4.95 -0.15 -4.95 -0.25 -5.0 -0.35 -5.0 -0.45 -4.95 -0.8 -4.7 -1.05 -4.4 -1.8 -4.4 -1.85 -4.4 -1.95 -4.25 -2.0 -4.2 -1.9 -4.15 -1.8 -3.75 -1.65 -3.35 -2.0 -3.5 -2.15 -3.8 -2.5 -3.85 -2.5 -3.9 -2.65 -3.85 -2.8 -3.8 -2.8 -3.7 -2.8 -3.7 -2.9 -3.65 -2.95 -3.4 -3.2 -3.15 -3.65 -2.7 -3.9 -2.55 -3.85 -2.5 -3.8 -2.5 -3.75 -2.1 -3.35 -1.15 -3.55 -0.9 -4.35 -0.9 -4.6 -1.0 -4.7 -1.0 -4.8 -0.95 -4.8 -0.9 -4.85 1.05 -4.75 1.1 -4.85 1.1 -4.95 1.25 -4.85 1.3 -4.85 1.25 -4.3 1.2 -4.2 1.15 -4.05 1.25 -4.0 Q1.65 -3.4 2.4 -3.55 L2.9 -4.05 2.9 -4.15 2.95 -4.3 3.2 -4.2 M-0.95 -3.4 L-2.2 -3.0 -2.6 -3.55 -2.9 -3.4 -3.1 -3.2 -3.1 -3.15 -3.1 -3.1 -3.45 -2.65 -3.3 -2.4 -3.25 -2.4 -3.05 -2.35 -2.95 -2.1 -2.95 -2.0 -3.4 -1.45 -3.45 -1.3 -3.8 -1.25 -3.8 -1.35 Q-4.15 -1.4 -4.3 -1.55 L-4.4 -1.15 -4.45 -1.05 -4.6 -0.7 -4.65 -0.4 -4.55 -0.4 -4.45 -0.4 -4.4 -0.35 -4.35 -0.35 -4.35 -0.3 -3.75 -0.15 -3.8 0.2 -3.85 0.35 -3.85 0.6 -3.8 0.85 Q-4.15 1.3 -4.5 1.25 L-4.45 1.4 -4.45 1.5 -4.45 1.6 -4.5 1.65 -4.35 2.2 -4.3 2.35 -4.15 2.55 -4.2 2.5 Q-3.9 2.25 -3.55 2.15 -3.35 2.1 -3.25 2.3 L-3.25 2.35 -2.95 2.8 -2.85 2.9 -3.25 3.65 -3.25 3.8 -3.0 4.0 -3.0 4.05 -2.85 4.25 -2.8 4.2 -2.7 4.35 -2.65 4.5 -2.6 4.6 -2.5 4.6 -2.15 4.2 -1.95 3.85 -1.85 3.8 -1.8 3.75 Q-1.35 3.85 -1.0 4.2 L-0.9 4.25 -1.0 4.6 -1.05 4.65 -1.2 5.2 0.3 5.55 0.35 5.2 0.5 4.4 1.65 4.25 1.7 4.3 1.9 4.5 2.05 4.95 3.35 4.35 3.3 4.2 3.25 4.15 3.2 4.0 3.15 3.9 2.95 3.65 2.85 3.55 3.25 3.2 3.4 2.95 3.35 2.9 3.45 2.75 3.55 2.75 3.6 2.75 4.3 3.2 4.45 3.15 4.5 2.95 4.5 2.85 4.55 2.8 4.6 2.65 4.65 2.65 4.7 2.7 4.9 2.55 4.9 2.25 4.95 2.25 4.95 2.2 5.0 2.05 5.05 1.95 4.65 1.65 4.65 1.6 4.05 1.45 4.2 0.95 4.2 0.4 4.2 0.3 5.2 -0.05 5.2 -0.1 5.2 -0.2 5.15 -1.2 4.05 -1.0 3.8 -1.6 3.65 -2.0 3.45 -2.25 4.1 -3.0 3.8 -3.25 3.7 -3.2 3.7 -3.3 3.7 -3.35 3.2 -3.8 3.1 -3.9 3.05 -3.9 2.75 -3.65 2.55 -3.25 1.7 -3.25 1.15 -3.65 1.1 -3.75 1.05 -3.8 0.9 -3.8 0.85 -3.85 0.8 -3.95 0.8 -4.0 0.95 -4.3 1.0 -4.65 0.7 -4.65 0.6 -4.75 -0.65 -4.6 Q-0.5 -4.0 -0.9 -3.45 L-0.95 -3.4 M0.55 -0.5 L0.25 -0.55 -0.1 -0.55 Q-0.25 -0.3 -0.6 -0.25 L-0.7 -0.15 -0.8 -0.05 -0.8 0.1 -0.95 0.25 -0.95 0.5 -0.85 1.0 -0.5 1.2 -0.25 1.45 1.0 1.15 1.3 0.6 1.3 0.2 0.9 -0.2 0.55 -0.5 M0.65 -0.8 Q1.5 -0.25 1.55 0.5 L1.4 1.0 Q0.55 2.2 -0.7 1.4 -1.3 1.15 -1.3 0.5 L-1.25 0.1 -1.2 0.05 -1.15 -0.05 -1.1 -0.05 -1.0 -0.05 -0.9 -0.3 -0.55 -0.75 Q0.05 -0.95 0.6 -0.75 L0.65 -0.8" fill="#000000" fill-rule="evenodd" stroke="none"/>
      <path d="M-0.95 -3.4 L-0.9 -3.45 Q-0.5 -4.0 -0.65 -4.6 L0.6 -4.75 0.7 -4.65 1.0 -4.65 0.95 -4.3 0.8 -4.0 0.8 -3.95 0.85 -3.85 0.9 -3.8 1.05 -3.8 1.1 -3.75 1.15 -3.65 1.7 -3.25 2.55 -3.25 2.75 -3.65 3.05 -3.9 3.1 -3.9 3.2 -3.8 3.7 -3.35 3.7 -3.3 3.7 -3.2 3.8 -3.25 4.1 -3.0 3.45 -2.25 3.65 -2.0 3.8 -1.6 4.05 -1.0 5.15 -1.2 5.2 -0.2 5.2 -0.1 5.2 -0.05 4.2 0.3 4.2 0.4 4.2 0.95 4.05 1.45 4.65 1.6 4.65 1.65 5.05 1.95 5.0 2.05 4.95 2.2 4.95 2.25 4.9 2.25 4.9 2.55 4.7 2.7 4.65 2.65 4.6 2.65 4.55 2.8 4.5 2.85 4.5 2.95 4.45 3.15 4.3 3.2 3.6 2.75 3.55 2.75 3.45 2.75 3.35 2.9 3.4 2.95 3.25 3.2 2.85 3.55 2.95 3.65 3.15 3.9 3.2 4.0 3.25 4.15 3.3 4.2 3.35 4.35 2.05 4.95 1.9 4.5 1.7 4.3 1.65 4.25 0.5 4.4 0.35 5.2 0.3 5.55 -1.2 5.2 -1.05 4.65 -1.0 4.6 -0.9 4.25 -1.0 4.2 Q-1.35 3.85 -1.8 3.75 L-1.85 3.8 -1.95 3.85 -2.15 4.2 -2.5 4.6 -2.6 4.6 -2.65 4.5 -2.7 4.35 -2.8 4.2 -2.85 4.25 -3.0 4.05 -3.0 4.0 -3.25 3.8 -3.25 3.65 -2.85 2.9 -2.95 2.8 -3.25 2.35 -3.25 2.3 Q-3.35 2.1 -3.55 2.15 -3.9 2.25 -4.2 2.5 L-4.15 2.55 -4.3 2.35 -4.35 2.2 -4.5 1.65 -4.45 1.6 -4.45 1.5 -4.45 1.4 -4.5 1.25 Q-4.15 1.3 -3.8 0.85 L-3.85 0.6 -3.85 0.35 -3.8 0.2 -3.75 -0.15 -4.35 -0.3 -4.35 -0.35 -4.4 -0.35 -4.45 -0.4 -4.55 -0.4 -4.65 -0.4 -4.6 -0.7 -4.45 -1.05 -4.4 -1.15 -4.3 -1.55 Q-4.15 -1.4 -3.8 -1.35 L-3.8 -1.25 -3.45 -1.3 -3.4 -1.45 -2.95 -2.0 -2.95 -2.1 -3.05 -2.35 -3.25 -2.4 -3.3 -2.4 -3.45 -2.65 -3.1 -3.1 -3.1 -3.15 -3.1 -3.2 -2.9 -3.4 -2.6 -3.55 -2.2 -3.0 -0.95 -3.4 M0.65 -0.8 L0.6 -0.75 Q0.05 -0.95 -0.55 -0.75 L-0.9 -0.3 -1.0 -0.05 -1.1 -0.05 -1.15 -0.05 -1.2 0.05 -1.25 0.1 -1.3 0.5 Q-1.3 1.15 -0.7 1.4 0.55 2.2 1.4 1.0 L1.55 0.5 Q1.5 -0.25 0.65 -0.8" fill="#ceab73" fill-rule="evenodd" stroke="none"/>
    </g>
    <g id="shape3" transform="matrix(1.0, 0.0, 0.0, 1.0, 31.35, 2.55)">
      <path d="M1.75 -2.3 L2.2 1.4 2.2 1.45 2.3 1.45 2.3 1.5 2.4 2.7 2.0 2.75 -1.55 3.15 -1.55 3.1 -1.65 3.05 -1.6 1.95 -7.7 2.9 -7.75 2.9 -7.85 3.05 -8.05 2.95 -11.7 3.5 -11.8 3.5 -12.7 3.65 -12.85 3.7 -12.9 3.65 -15.5 4.05 -15.55 4.1 -15.6 4.2 -15.8 4.1 -17.0 4.3 -17.25 4.4 -17.35 4.35 -22.1 5.05 -22.15 5.15 -22.35 5.25 -22.4 5.45 -22.45 5.5 -22.95 5.6 -23.4 5.7 -23.55 5.85 -23.5 5.85 -23.45 5.9 -25.75 6.4 Q-28.45 6.7 -30.15 4.45 L-30.3 4.3 -30.6 2.75 -30.65 2.75 -30.75 2.8 -31.1 2.8 -31.3 2.7 -31.35 2.7 -31.35 2.2 -31.35 2.15 -31.35 2.05 -31.3 1.95 -31.15 2.0 -22.8 0.7 -22.35 0.7 -22.3 0.75 -22.3 0.8 -22.3 0.85 Q-22.2 1.0 -22.25 1.25 L-22.25 1.4 -22.3 1.55 -21.9 1.55 -21.85 1.6 -21.75 1.9 -21.75 1.95 -21.7 2.1 -21.3 2.1 -16.2 1.3 -16.2 1.25 -16.15 1.2 -16.1 1.2 -16.0 1.25 -15.95 1.25 -14.6 1.05 -14.6 1.0 -14.55 0.95 -14.5 0.95 -14.45 0.9 -14.4 0.95 -14.35 0.95 -14.35 1.0 -2.1 -0.9 -2.2 -1.85 -2.2 -1.9 -2.15 -1.95 -2.05 -2.0 1.55 -2.55 1.6 -2.5 1.75 -2.3 M0.8 -1.3 L0.85 -1.4 0.9 -1.4 0.95 -1.35 1.15 -1.3 1.2 -1.25 1.2 -1.15 1.2 -1.1 1.45 -0.85 1.5 -0.8 1.65 0.0 1.65 0.2 1.65 0.3 1.6 0.35 1.65 1.15 1.65 1.2 1.75 1.3 1.75 1.35 1.7 1.4 1.6 1.5 1.45 1.4 1.35 1.45 1.3 1.5 -1.35 1.95 -1.35 2.8 2.05 2.35 2.1 2.4 2.25 2.35 2.1 1.7 2.1 1.65 1.95 1.6 1.95 1.45 1.5 -2.25 -1.85 -1.75 -1.85 -1.7 -1.85 -0.9 0.75 -1.3 0.8 -1.3 M0.65 -1.0 L-8.1 0.3 -8.05 0.35 -8.0 0.35 -8.3 1.9 -8.35 1.95 -8.3 2.1 -8.3 2.2 -8.3 2.25 -8.2 2.3 -8.15 2.35 -8.05 2.4 -7.9 2.6 1.25 1.1 1.35 1.1 1.35 1.05 1.3 0.95 1.35 0.9 1.35 0.85 1.3 0.4 1.25 0.25 1.3 0.2 1.35 0.15 1.25 -0.45 1.2 -0.65 1.0 -0.95 0.85 -0.85 0.8 -0.9 0.65 -1.0 M0.55 -0.15 L0.6 -0.1 0.75 0.5 0.7 0.6 Q0.5 1.1 -0.05 0.95 L-0.3 0.75 -0.35 0.55 -0.5 0.55 -0.5 0.5 -0.55 0.45 -0.55 0.35 -0.25 -0.2 -0.1 -0.35 0.3 -0.25 0.35 -0.35 0.4 -0.3 0.45 -0.3 0.55 -0.15 M-0.1 0.0 L-0.2 0.2 -0.05 0.55 -0.05 0.65 0.45 0.55 0.4 0.2 0.3 0.15 0.25 0.0 -0.05 0.0 -0.1 0.0 M-31.0 2.4 L-31.0 2.5 -31.0 2.55 -30.65 2.5 -30.6 2.5 -30.55 2.55 -22.6 1.35 -22.55 1.25 -22.55 1.05 -22.75 1.1 -31.0 2.15 -31.0 2.4 M-30.1 4.05 L-29.8 4.35 Q-28.95 5.5 -27.7 5.9 L-27.0 6.1 -26.8 6.1 -26.75 6.15 Q-25.2 6.0 -24.0 5.1 L-24.0 5.05 Q-23.3 4.25 -23.0 3.3 L-22.85 2.9 -22.8 2.8 -22.6 1.5 -30.4 2.75 -30.1 4.0 -30.1 4.05 M-22.7 3.5 L-22.85 3.6 -23.0 4.0 -23.35 4.65 -23.45 4.85 -23.4 4.9 -24.45 5.8 -24.2 5.8 -23.3 5.25 -23.2 5.3 -22.9 5.15 -22.75 5.3 -22.65 5.15 -22.6 5.0 -22.55 5.0 -22.4 5.1 -22.35 4.45 -22.4 4.45 -22.45 4.4 -22.25 2.95 -22.1 2.3 -22.05 2.3 -22.05 2.0 -22.05 1.95 -22.0 1.95 -22.1 1.85 -22.35 1.8 -22.7 3.4 -22.7 3.45 -22.7 3.5 M-21.85 2.85 L-22.15 4.8 -22.15 4.85 -17.25 4.1 -17.25 4.0 -17.1 3.75 -16.9 3.0 -16.9 2.9 -17.1 2.65 -17.5 2.05 -17.6 2.0 -17.65 1.85 -17.65 1.8 -21.05 2.3 -21.15 2.3 -21.7 2.4 -21.85 2.85 M-16.85 2.55 L-16.85 2.65 -16.75 2.7 -16.3 1.6 -17.35 1.75 -17.35 1.8 -16.85 2.55 M-12.6 1.0 L-14.3 1.25 -14.35 1.3 -13.45 2.05 -12.6 1.0 -12.55 1.0 -12.6 1.0 M-14.8 1.35 L-14.75 1.35 -14.8 1.35 -16.0 1.55 -16.55 3.05 -16.5 3.1 -16.55 3.1 -16.55 3.2 -16.8 3.7 -16.75 3.8 -16.95 4.05 -15.8 3.85 -15.6 3.6 -15.6 3.55 -15.3 2.75 -15.2 2.65 -15.2 2.6 -15.2 2.5 -14.75 1.6 -14.8 1.5 -14.75 1.4 -14.8 1.4 -14.8 1.35 M-14.55 1.7 L-13.7 2.5 -13.65 2.55 -13.6 2.6 -13.6 2.55 -13.4 2.65 -13.4 2.7 -13.4 2.75 -13.15 3.2 -13.05 3.3 -12.85 3.3 -12.8 3.35 -12.1 3.25 -12.15 3.15 -12.2 3.15 -12.35 3.15 -14.35 1.6 -14.45 1.5 -14.55 1.7 M-12.5 1.25 L-13.25 2.25 -12.25 2.95 -12.2 2.9 -11.8 3.15 -11.75 3.15 -11.7 3.15 -10.85 3.05 Q-10.95 2.4 -11.3 1.85 L-11.35 1.8 -11.8 2.25 -11.75 2.35 -11.95 2.6 -11.95 2.75 -11.95 2.8 -12.3 2.8 -12.25 2.5 -12.1 2.25 -10.95 0.75 -12.45 1.0 Q-12.35 0.95 -12.35 1.05 L-12.3 1.1 -12.5 1.25 M-11.1 1.55 L-11.05 1.6 Q-10.8 1.9 -10.7 2.35 L-9.75 2.1 -9.7 2.1 -9.55 0.55 -10.55 0.7 -11.1 1.4 -11.1 1.55 M-9.3 0.5 L-9.25 1.35 -8.65 1.95 -8.2 0.35 -9.3 0.5 M-8.35 2.6 L-9.3 1.45 -9.5 2.1 -9.45 2.1 -9.4 2.15 -9.35 2.2 -9.4 2.3 -9.5 2.35 -9.55 2.8 -9.55 2.85 -8.3 2.65 -8.35 2.6 M-9.8 2.45 L-10.65 2.55 -10.7 2.75 -10.7 2.8 -10.55 3.0 -9.95 2.9 -9.95 2.85 -9.85 2.75 -9.8 2.45 M-13.6 3.0 L-13.9 3.5 -13.9 3.55 -13.25 3.4 -13.6 3.0 M-14.2 3.5 L-13.8 2.85 -14.65 1.95 -14.9 2.65 -14.9 2.7 -15.4 3.8 -14.15 3.6 -14.2 3.5 M-24.6 5.9 L-24.55 5.85 -24.65 5.9 -24.6 5.9" fill="#000000" fill-rule="evenodd" stroke="none"/>
      <path d="M0.8 -1.3 L0.75 -1.3 -1.85 -0.9 -1.85 -1.7 -1.85 -1.75 1.5 -2.25 1.95 1.45 1.95 1.6 2.1 1.65 2.1 1.7 2.25 2.35 2.1 2.4 2.05 2.35 -1.35 2.8 -1.35 1.95 1.3 1.5 1.35 1.45 1.45 1.4 1.6 1.5 1.7 1.4 1.75 1.35 1.75 1.3 1.65 1.2 1.65 1.15 1.6 0.35 1.65 0.3 1.65 0.2 1.65 0.0 1.5 -0.8 1.45 -0.85 1.2 -1.1 1.2 -1.15 1.2 -1.25 1.15 -1.3 0.95 -1.35 0.9 -1.4 0.85 -1.4 0.8 -1.3 M-0.1 0.0 L-0.05 0.0 0.25 0.0 0.3 0.15 0.4 0.2 0.45 0.55 -0.05 0.65 -0.05 0.55 -0.2 0.2 -0.1 0.0" fill="#a69b9b" fill-rule="evenodd" stroke="none"/>
      <path d="M0.55 -0.15 L0.45 -0.3 0.4 -0.3 0.35 -0.35 0.3 -0.25 -0.1 -0.35 -0.25 -0.2 -0.55 0.35 -0.55 0.45 -0.5 0.5 -0.5 0.55 -0.35 0.55 -0.3 0.75 -0.05 0.95 Q0.5 1.1 0.7 0.6 L0.75 0.5 0.6 -0.1 0.55 -0.15 M0.65 -1.0 L0.8 -0.9 0.85 -0.85 1.0 -0.95 1.2 -0.65 1.25 -0.45 1.35 0.15 1.3 0.2 1.25 0.25 1.3 0.4 1.35 0.85 1.35 0.9 1.3 0.95 1.35 1.05 1.35 1.1 1.25 1.1 -7.9 2.6 -8.05 2.4 -8.15 2.35 -8.2 2.3 -8.3 2.25 -8.3 2.2 -8.3 2.1 -8.35 1.95 -8.3 1.9 -8.0 0.35 -8.05 0.35 -8.1 0.3 0.65 -1.0 M-30.1 4.05 L-30.1 4.0 -30.4 2.75 -22.6 1.5 -22.8 2.8 -22.85 2.9 -23.0 3.3 Q-23.3 4.25 -24.0 5.05 L-24.0 5.1 Q-25.2 6.0 -26.75 6.15 L-26.8 6.1 -27.0 6.1 -27.7 5.9 Q-28.95 5.5 -29.8 4.35 L-30.1 4.05 M-21.85 2.85 L-21.7 2.4 -21.15 2.3 -21.05 2.3 -17.65 1.8 -17.65 1.85 -17.6 2.0 -17.5 2.05 -17.1 2.65 -16.9 2.9 -16.9 3.0 -17.1 3.75 -17.25 4.0 -17.25 4.1 -22.15 4.85 -22.15 4.8 -21.85 2.85" fill="#715426" fill-rule="evenodd" stroke="none"/>
      <path d="M-31.0 2.4 L-31.0 2.15 -22.75 1.1 -22.55 1.05 -22.55 1.25 -22.6 1.35 -30.55 2.55 -30.6 2.5 -30.65 2.5 -31.0 2.55 -31.0 2.5 -31.0 2.4 M-22.7 3.5 L-22.7 3.45 -22.7 3.4 -22.35 1.8 -22.1 1.85 -22.0 1.95 -22.05 1.95 -22.05 2.0 -22.05 2.3 -22.1 2.3 -22.25 2.95 -22.45 4.4 -22.4 4.45 -22.35 4.45 -22.4 5.1 -22.55 5.0 -22.6 5.0 -22.65 5.15 -22.75 5.3 -22.9 5.15 -23.2 5.3 -23.3 5.25 -24.2 5.8 -24.45 5.8 -23.4 4.9 -23.45 4.85 -23.35 4.65 -23.0 4.0 -22.85 3.6 -22.7 3.5" fill="#9d6f37" fill-rule="evenodd" stroke="none"/>
      <path d="M-12.6 1.0 L-13.45 2.05 -14.35 1.3 -14.3 1.25 -12.6 1.0 M-16.85 2.55 L-17.35 1.8 -17.35 1.75 -16.3 1.6 -16.75 2.7 -16.85 2.65 -16.85 2.55 M-14.8 1.35 L-14.8 1.4 -14.75 1.4 -14.8 1.5 -14.75 1.6 -15.2 2.5 -15.2 2.6 -15.2 2.65 -15.3 2.75 -15.6 3.55 -15.6 3.6 -15.8 3.85 -16.95 4.05 -16.75 3.8 -16.8 3.7 -16.55 3.2 -16.55 3.1 -16.5 3.1 -16.55 3.05 -16.0 1.55 -14.8 1.35 M-14.2 3.5 L-14.15 3.6 -15.4 3.8 -14.9 2.7 -14.9 2.65 -14.65 1.95 -13.8 2.85 -14.2 3.5 M-13.6 3.0 L-13.25 3.4 -13.9 3.55 -13.9 3.5 -13.6 3.0 M-9.8 2.45 L-9.85 2.75 -9.95 2.85 -9.95 2.9 -10.55 3.0 -10.7 2.8 -10.7 2.75 -10.65 2.55 -9.8 2.45 M-8.35 2.6 L-8.3 2.65 -9.55 2.85 -9.55 2.8 -9.5 2.35 -9.4 2.3 -9.35 2.2 -9.4 2.15 -9.45 2.1 -9.5 2.1 -9.3 1.45 -8.35 2.6 M-9.3 0.5 L-8.2 0.35 -8.65 1.95 -9.25 1.35 -9.3 0.5 M-11.1 1.55 L-11.1 1.4 -10.55 0.7 -9.55 0.55 -9.7 2.1 -9.75 2.1 -10.7 2.35 Q-10.8 1.9 -11.05 1.6 L-11.1 1.55 M-12.5 1.25 L-12.3 1.1 -12.35 1.05 Q-12.35 0.95 -12.45 1.0 L-10.95 0.75 -12.1 2.25 -12.25 2.5 -12.3 2.8 -11.95 2.8 -11.95 2.75 -11.95 2.6 -11.75 2.35 -11.8 2.25 -11.35 1.8 -11.3 1.85 Q-10.95 2.4 -10.85 3.05 L-11.7 3.15 -11.75 3.15 -11.8 3.15 -12.2 2.9 -12.25 2.95 -13.25 2.25 -12.5 1.25 M-14.55 1.7 L-14.45 1.5 -14.35 1.6 -12.35 3.15 -12.2 3.15 -12.15 3.15 -12.1 3.25 -12.8 3.35 -12.85 3.3 -13.05 3.3 -13.15 3.2 -13.4 2.75 -13.4 2.7 -13.4 2.65 -13.6 2.55 -13.6 2.6 -13.65 2.55 -13.7 2.5 -14.55 1.7" fill="#e3cdb3" fill-rule="evenodd" stroke="none"/>
    </g>
    <g id="shape4" transform="matrix(1.0, 0.0, 0.0, 1.0, -5.4, 2.55)">
      <path d="M9.6 -0.15 L8.65 -1.1 Q8.25 -1.4 8.35 -2.0 L8.35 -2.2 8.15 -2.2 8.05 -2.2 8.05 -1.7 8.05 -1.6 8.05 -1.5 8.1 -1.45 7.9 -1.25 7.15 -1.0 6.8 -0.55 6.75 -0.4 6.8 -0.35 6.35 -0.3 6.3 -0.25 5.9 -0.35 5.8 -0.15 5.75 -0.1 5.85 0.0 6.25 0.1 6.3 0.05 6.65 0.1 6.8 0.05 7.05 0.7 7.0 0.75 7.65 1.2 7.7 1.25 7.8 1.25 7.95 1.6 8.0 2.05 8.0 2.15 8.3 2.25 8.4 1.45 8.35 1.4 8.35 1.3 8.4 1.25 8.65 1.2 8.7 1.25 9.2 0.75 9.3 0.65 9.4 0.35 9.4 0.25 9.55 0.2 9.6 0.25 9.6 0.35 10.5 0.25 9.6 -0.15 M10.1 0.45 L9.9 0.55 9.85 0.6 9.6 0.65 9.55 0.7 9.6 0.75 8.95 1.3 8.9 1.45 8.7 1.55 8.6 1.55 8.7 2.35 8.65 2.4 8.6 2.55 8.5 2.55 7.95 2.5 7.75 2.4 7.65 1.7 7.6 1.45 7.25 1.3 6.75 0.8 6.65 0.4 Q5.85 0.5 5.4 -0.05 L5.5 -0.15 5.55 -0.2 Q5.45 -0.3 5.5 -0.45 5.75 -0.7 6.1 -0.65 6.2 -0.55 6.25 -0.6 L6.55 -0.6 6.55 -0.7 6.8 -0.95 6.8 -1.05 Q7.15 -1.4 7.6 -1.45 L7.65 -1.5 7.75 -1.6 7.7 -1.95 7.8 -2.05 7.65 -2.3 7.6 -2.45 7.65 -2.5 8.4 -2.55 8.6 -2.45 8.7 -1.35 8.75 -1.4 8.9 -1.35 Q9.5 -0.95 9.6 -0.35 L10.8 -0.05 10.6 0.55 10.5 0.55 10.1 0.45 M8.0 -0.65 L8.3 -0.55 8.3 -0.45 8.4 -0.45 8.45 -0.4 8.6 -0.25 8.65 -0.2 8.65 0.0 8.65 0.2 8.6 0.25 8.5 0.25 8.5 0.35 8.4 0.45 8.3 0.45 Q7.85 0.4 7.6 -0.15 L7.65 -0.3 7.8 -0.45 7.85 -0.5 7.95 -0.6 8.0 -0.65 M8.4 0.15 L8.35 0.0 8.25 -0.2 8.15 -0.3 8.0 -0.25 7.95 -0.2 8.0 -0.15 8.3 0.15 8.4 0.15" fill="#000000" fill-rule="evenodd" stroke="none"/>
      <path d="M9.6 -0.15 L10.5 0.25 9.6 0.35 9.6 0.25 9.55 0.2 9.4 0.25 9.4 0.35 9.3 0.65 9.2 0.75 8.7 1.25 8.65 1.2 8.4 1.25 8.35 1.3 8.35 1.4 8.4 1.45 8.3 2.25 8.0 2.15 8.0 2.05 7.95 1.6 7.8 1.25 7.7 1.25 7.65 1.2 7.0 0.75 7.05 0.7 6.8 0.05 6.65 0.1 6.3 0.05 6.25 0.1 5.85 0.0 5.75 -0.1 5.8 -0.15 5.9 -0.35 6.3 -0.25 6.35 -0.3 6.8 -0.35 6.75 -0.4 6.8 -0.55 7.15 -1.0 7.9 -1.25 8.1 -1.45 8.05 -1.5 8.05 -1.6 8.05 -1.7 8.05 -2.2 8.15 -2.2 8.35 -2.2 8.35 -2.0 Q8.25 -1.4 8.65 -1.1 L9.6 -0.15 M8.0 -0.65 L7.95 -0.6 7.85 -0.5 7.8 -0.45 7.65 -0.3 7.6 -0.15 Q7.85 0.4 8.3 0.45 L8.4 0.45 8.5 0.35 8.5 0.25 8.6 0.25 8.65 0.2 8.65 0.0 8.65 -0.2 8.6 -0.25 8.45 -0.4 8.4 -0.45 8.3 -0.45 8.3 -0.55 8.0 -0.65" fill="#ceab73" fill-rule="evenodd" stroke="none"/>
      <path d="M8.4 0.15 L8.3 0.15 8.0 -0.15 7.95 -0.2 8.0 -0.25 8.15 -0.3 8.25 -0.2 8.35 0.0 8.4 0.15" fill="#a69b9b" fill-rule="evenodd" stroke="none"/>
    </g>
  </defs>
</svg>
