<?xml version="1.0" encoding="UTF-8" standalone="no"?>
<svg xmlns:xlink="http://www.w3.org/1999/xlink" height="204.0px" width="1164.0px" xmlns="http://www.w3.org/2000/svg">
  <g transform="matrix(6.0, 0.0, 0.0, 6.0, 222.0, 102.0)">
    <use height="34.0" id="m1" transform="matrix(1.0, 0.0, 0.0, 1.0, -37.0, -17.0)" width="34.0" xlink:href="#button0"/>
    <use height="34.0" id="m2" transform="matrix(1.0, 0.0, 0.0, 1.0, 3.0, -17.0)" width="34.0" xlink:href="#button1"/>
    <use height="34.0" id="m2" transform="matrix(1.0, 0.0, 0.0, 1.0, 43.0, -17.0)" width="34.0" xlink:href="#button2"/>
    <use height="34.0" id="m2" transform="matrix(1.0, 0.0, 0.0, 1.0, 83.0, -17.0)" width="34.0" xlink:href="#button3"/>
    <use height="34.0" id="m2" transform="matrix(1.0, 0.0, 0.0, 1.0, 123.0, -17.0)" width="34.0" xlink:href="#button4"/>
  </g>
  <defs>
    <g id="button0" transform="matrix(1.0, 0.0, 0.0, 1.0, 0.5, 0.5)">
      <use height="34.0" transform="matrix(1.0, 0.0, 0.0, 1.0, -0.5, -0.5)" width="34.0" xlink:href="#shape0"/>
      <use height="32.3" transform="matrix(1.0, 0.0, 0.0, 1.0, 0.6, 0.3)" width="32.1" xlink:href="#shape1"/>
    </g>
    <g id="shape0" transform="matrix(1.0, 0.0, 0.0, 1.0, 0.5, 0.5)">
      <path d="M33.0 0.0 L33.0 33.0 0.0 33.0 0.0 0.0 33.0 0.0" fill="#c4c4c4" fill-rule="evenodd" stroke="none"/>
      <path d="M33.0 0.0 L33.0 33.0 0.0 33.0 0.0 0.0 33.0 0.0 Z" fill="none" stroke="#000000" stroke-linecap="round" stroke-linejoin="round" stroke-width="1.0"/>
      <path d="M30.0 3.0 L3.0 3.0 3.0 30.0 30.0 30.0 30.0 3.0 M33.0 0.0 L33.0 33.0 0.0 33.0 0.0 0.0 33.0 0.0" fill="url(#gradient0)" fill-rule="evenodd" stroke="none"/>
      <path d="M30.0 3.0 L30.0 30.0 3.0 30.0 3.0 3.0 30.0 3.0" fill="#7b7b7b" fill-rule="evenodd" stroke="none"/>
      <path d="M30.0 3.0 L30.0 30.0 3.0 30.0 3.0 3.0 30.0 3.0 M33.0 0.0 L33.0 33.0 0.0 33.0 0.0 0.0 33.0 0.0" fill="none" stroke="#000000" stroke-linecap="round" stroke-linejoin="round" stroke-width="1.0"/>
      <path d="M28.0 0.0 L33.0 0.0 33.0 5.0 28.0 5.0 28.0 0.0 M0.0 0.0 L5.0 0.0 5.0 5.0 0.0 5.0 0.0 0.0 M5.0 28.0 L5.0 33.0 0.0 33.0 0.0 28.0 5.0 28.0 M28.0 28.0 L33.0 28.0 33.0 33.0 28.0 33.0 28.0 28.0" fill="#990000" fill-rule="evenodd" stroke="none"/>
      <path d="M28.0 0.0 L33.0 0.0 33.0 5.0 28.0 5.0 28.0 0.0 M0.0 0.0 L5.0 0.0 5.0 5.0 0.0 5.0 0.0 0.0 M5.0 28.0 L5.0 33.0 0.0 33.0 0.0 28.0 5.0 28.0 M28.0 28.0 L33.0 28.0 33.0 33.0 28.0 33.0 28.0 28.0" fill="none" stroke="#000000" stroke-linecap="round" stroke-linejoin="round" stroke-width="1.0"/>
    </g>
    <linearGradient gradientTransform="matrix(0.0152, 0.0234, -0.0234, 0.0152, 16.5, 16.45)" gradientUnits="userSpaceOnUse" id="gradient0" spreadMethod="pad" x1="-819.2" x2="819.2">
      <stop offset="0.0" stop-color="#eed600"/>
      <stop offset="0.19607843137254902" stop-color="#fef292"/>
      <stop offset="0.36470588235294116" stop-color="#ecd502"/>
      <stop offset="0.6352941176470588" stop-color="#9a8b00"/>
      <stop offset="0.8627450980392157" stop-color="#fff9c4"/>
      <stop offset="1.0" stop-color="#c4c400"/>
    </linearGradient>
    <g id="shape1" transform="matrix(1.0, 0.0, 0.0, 1.0, -0.6, -0.3)">
      <path d="M29.7 1.1 L29.6 1.25 29.05 2.1 28.6 1.8 28.6 1.45 28.85 0.8 Q28.9 0.35 29.3 0.35 L29.4 0.4 Q29.85 0.1 29.85 0.7 L29.7 1.1 M1.25 2.6 Q0.8 2.6 0.7 2.2 L0.7 1.7 Q0.7 1.15 1.45 0.65 2.2 0.2 2.2 0.95 L1.25 2.6 M1.85 29.35 L1.55 29.85 1.0 30.25 Q0.6 30.25 0.6 29.8 0.6 29.5 0.9 29.25 1.3 28.9 1.8 29.1 L1.85 29.35 M29.95 29.35 L29.8 29.95 29.4 30.25 Q28.95 30.25 28.95 29.8 28.95 29.4 29.45 29.0 29.95 28.55 29.95 29.35" fill="#ff6666" fill-rule="evenodd" stroke="none"/>
      <path d="M32.7 3.95 L32.7 4.35 31.45 4.6 Q30.2 4.6 30.2 4.2 30.2 3.9 30.7 3.65 L31.35 2.95 Q31.15 2.6 31.45 2.15 31.8 1.75 32.3 1.95 L32.7 3.95 M3.9 2.1 Q4.2 1.65 4.2 2.5 4.2 4.6 2.45 4.6 L2.05 4.55 Q1.95 4.05 2.1 3.9 L1.7 3.5 Q1.7 3.05 3.35 3.05 L3.9 2.1 M3.6 30.35 Q3.7 30.0 4.3 30.1 L4.35 32.05 Q4.25 32.6 3.75 32.6 L1.6 32.45 Q1.45 32.4 1.45 32.15 2.65 30.7 3.6 30.85 L3.6 30.35 M32.25 32.5 L31.25 32.5 30.25 32.5 29.85 32.05 30.05 31.8 31.3 31.25 31.2 30.65 Q31.2 30.25 31.55 29.8 31.95 29.25 32.25 29.95 L32.45 31.75 32.25 32.5" fill="#660000" fill-rule="evenodd" stroke="none"/>
      <path d="M22.5 9.45 Q23.15 12.75 22.45 15.4 21.95 17.3 20.25 18.2 L20.25 19.8 Q23.5 19.7 26.0 22.4 L26.0 30.0 7.4 30.0 7.4 22.4 Q9.95 19.7 13.35 19.8 L13.35 18.2 Q11.55 17.3 11.05 15.4 10.35 12.75 11.0 9.45 11.35 7.45 12.95 6.35 14.55 5.2 16.7 5.4 19.05 5.2 20.6 6.35 22.15 7.45 22.5 9.45" fill="#2f2f2f" fill-rule="evenodd" stroke="none"/>
    </g>
    <g id="button1" transform="matrix(1.0, 0.0, 0.0, 1.0, 0.5, 0.5)">
      <use height="34.0" transform="matrix(1.0, 0.0, 0.0, 1.0, -0.5, -0.5)" width="34.0" xlink:href="#shape0"/>
      <use height="32.3" transform="matrix(1.0, 0.0, 0.0, 1.0, 0.6, 0.3)" width="32.1" xlink:href="#shape2"/>
    </g>
    <g id="shape2" transform="matrix(1.0, 0.0, 0.0, 1.0, -0.6, -0.3)">
      <path d="M29.4 0.4 Q29.85 0.1 29.85 0.7 L29.7 1.1 29.6 1.25 29.05 2.1 28.6 1.8 28.6 1.45 28.85 0.8 Q28.9 0.35 29.3 0.35 L29.4 0.4 M1.25 2.6 Q0.8 2.6 0.7 2.2 L0.7 1.7 Q0.7 1.15 1.45 0.65 2.2 0.2 2.2 0.95 L1.25 2.6 M1.85 29.35 L1.55 29.85 1.0 30.25 Q0.6 30.25 0.6 29.8 0.6 29.5 0.9 29.25 1.3 28.9 1.8 29.1 L1.85 29.35 M29.95 29.35 L29.8 29.95 29.4 30.25 Q28.95 30.25 28.95 29.8 28.95 29.4 29.45 29.0 29.95 28.55 29.95 29.35" fill="#ff6666" fill-rule="evenodd" stroke="none"/>
      <path d="M32.7 3.95 L32.7 4.35 31.45 4.6 Q30.2 4.6 30.2 4.2 30.2 3.9 30.7 3.65 L31.35 2.95 Q31.15 2.6 31.45 2.15 31.8 1.75 32.3 1.95 L32.7 3.95 M3.9 2.1 Q4.2 1.65 4.2 2.5 4.2 4.6 2.45 4.6 L2.05 4.55 Q1.95 4.05 2.1 3.9 L1.7 3.5 Q1.7 3.05 3.35 3.05 L3.9 2.1 M3.6 30.35 Q3.7 30.0 4.3 30.1 L4.35 32.05 Q4.25 32.6 3.75 32.6 L1.6 32.45 Q1.45 32.4 1.45 32.15 2.65 30.7 3.6 30.85 L3.6 30.35 M32.25 32.5 L31.25 32.5 30.25 32.5 29.85 32.05 30.05 31.8 31.3 31.25 31.2 30.65 Q31.2 30.25 31.55 29.8 31.95 29.25 32.25 29.95 L32.45 31.75 32.25 32.5" fill="#660000" fill-rule="evenodd" stroke="none"/>
      <path d="M20.5 18.8 L18.15 18.8 20.65 25.75 12.1 25.75 13.7 19.0 7.7 19.0 7.7 16.85 6.15 16.85 6.15 15.0 7.7 15.0 9.35 12.4 20.6 12.4 20.6 14.4 28.6 14.4 28.6 16.75 20.5 16.75 20.5 18.8" fill="#333333" fill-rule="evenodd" stroke="none"/>
    </g>
    <g id="button2" transform="matrix(1.0, 0.0, 0.0, 1.0, 0.5, 0.5)">
      <use height="34.0" transform="matrix(1.0, 0.0, 0.0, 1.0, -0.5, -0.5)" width="34.0" xlink:href="#shape0"/>
      <use height="32.3" transform="matrix(1.0, 0.0, 0.0, 1.0, 0.6, 0.3)" width="32.1" xlink:href="#shape3"/>
      <use height="19.6" transform="matrix(1.0, 0.0, 0.0, 1.0, 3.45, 3.15)" width="21.8" xlink:href="#text0"/>
    </g>
    <g id="shape3" transform="matrix(1.0, 0.0, 0.0, 1.0, -0.6, -0.3)">
      <path d="M29.6 1.25 L29.05 2.1 28.6 1.8 28.6 1.45 28.85 0.8 Q28.9 0.35 29.3 0.35 L29.4 0.4 Q29.85 0.1 29.85 0.7 L29.7 1.1 29.6 1.25 M1.25 2.6 Q0.8 2.6 0.7 2.2 L0.7 1.7 Q0.7 1.15 1.45 0.65 2.2 0.2 2.2 0.95 L1.25 2.6 M1.85 29.35 L1.55 29.85 1.0 30.25 Q0.6 30.25 0.6 29.8 0.6 29.5 0.9 29.25 1.3 28.9 1.8 29.1 L1.85 29.35 M29.95 29.35 L29.8 29.95 29.4 30.25 Q28.95 30.25 28.95 29.8 28.95 29.4 29.45 29.0 29.95 28.55 29.95 29.35" fill="#ff6666" fill-rule="evenodd" stroke="none"/>
      <path d="M32.7 3.95 L32.7 4.35 31.45 4.6 Q30.2 4.6 30.2 4.2 30.2 3.9 30.7 3.65 L31.35 2.95 Q31.15 2.6 31.45 2.15 31.8 1.75 32.3 1.95 L32.7 3.95 M4.2 2.5 Q4.2 4.6 2.45 4.6 L2.05 4.55 Q1.95 4.05 2.1 3.9 L1.7 3.5 Q1.7 3.05 3.35 3.05 L3.9 2.1 Q4.2 1.65 4.2 2.5 M3.6 30.35 Q3.7 30.0 4.3 30.1 L4.35 32.05 Q4.25 32.6 3.75 32.6 L1.6 32.45 Q1.45 32.4 1.45 32.15 2.65 30.7 3.6 30.85 L3.6 30.35 M32.25 32.5 L31.25 32.5 30.25 32.5 29.85 32.05 30.05 31.8 31.3 31.25 31.2 30.65 Q31.2 30.25 31.55 29.8 31.95 29.25 32.25 29.95 L32.45 31.75 32.25 32.5" fill="#660000" fill-rule="evenodd" stroke="none"/>
      <path d="M28.0 17.1 L20.1 17.1 20.1 19.1 17.85 19.1 20.3 25.9 11.9 25.9 13.5 19.3 7.65 19.3 7.65 17.2 6.15 17.2 6.15 15.4 7.65 15.4 9.3 12.9 20.2 12.9 20.2 14.85 28.0 14.85 28.0 17.1" fill="#333333" fill-rule="evenodd" stroke="none"/>
    </g>
    <g id="text0" transform="matrix(1.0, 0.0, 0.0, 1.0, -67.35, -0.5)">
      <g transform="matrix(1.0, 0.0, 0.0, 1.0, 66.65, 0.0)">
        <use fill="#00ff00" height="19.6" transform="matrix(0.0186, 0.0, 0.0, 0.0186, 0.0, 17.0)" width="21.8" xlink:href="#font_Arial__0"/>
      </g>
    </g>
    <g id="font_Arial__0">
      <path d="M317.0 -101.5 L317.0 -296.5 Q362.0 -283.5 382.0 -259.0 401.5 -235.0 401.5 -201.5 401.5 -164.0 378.0 -136.0 354.5 -108.5 317.0 -101.5 M244.5 -633.5 L244.5 -460.5 Q212.0 -474.5 196.0 -497.0 180.0 -520.0 180.0 -546.5 180.0 -575.5 197.5 -599.5 215.0 -623.5 244.5 -633.5 M244.5 -108.5 L244.5 -108.5 Q217.5 -121.5 195.5 -150.5 173.5 -179.5 165.5 -219.5 L35.0 -205.5 Q50.0 -107.0 104.0 -53.0 158.0 1.0 244.5 11.5 L244.5 102.5 317.0 102.5 317.0 9.0 Q414.5 -5.0 469.5 -67.0 524.0 -129.0 524.0 -219.5 524.0 -300.5 480.5 -352.0 437.0 -404.0 317.0 -436.5 L317.0 -632.0 Q365.5 -611.0 377.0 -552.0 L503.5 -568.5 Q490.5 -643.5 443.5 -688.0 396.5 -733.0 317.0 -742.5 L317.0 -792.0 244.5 -792.0 244.5 -742.5 Q158.5 -734.0 107.0 -678.0 55.0 -622.5 55.0 -540.5 55.0 -459.5 101.0 -402.5 146.5 -346.0 244.5 -318.0 L244.5 -108.5" fill-rule="evenodd" stroke="none"/>
    </g>
    <g id="button3" transform="matrix(1.0, 0.0, 0.0, 1.0, 0.5, 0.5)">
      <use height="34.0" transform="matrix(1.0, 0.0, 0.0, 1.0, -0.5, -0.5)" width="34.0" xlink:href="#shape0"/>
      <use height="32.3" transform="matrix(1.0, 0.0, 0.0, 1.0, 0.6, 0.3)" width="32.1" xlink:href="#shape3"/>
      <use height="14.85" transform="matrix(1.0, 0.0, 0.0, 1.0, 3.35, 6.0)" width="22.2" xlink:href="#text1"/>
    </g>
    <g id="text1" transform="matrix(1.0, 0.0, 0.0, 1.0, -67.25, -3.35)">
      <g transform="matrix(1.0, 0.0, 0.0, 1.0, 66.35, 0.0)">
        <use fill="#00ff00" height="14.85" transform="matrix(0.0186, 0.0, 0.0, 0.0186, 0.0, 17.0)" width="22.2" xlink:href="#font_Arial__1"/>
      </g>
    </g>
    <g id="font_Arial__1">
      <path d="M234.5 -105.5 L362.5 -105.5 362.5 -296.0 555.0 -296.0 555.0 -427.5 362.5 -427.5 362.5 -618.0 234.5 -618.0 234.5 -427.5 42.5 -427.5 42.5 -296.0 234.5 -296.0 234.5 -105.5" fill-rule="evenodd" stroke="none"/>
    </g>
    <g id="button4" transform="matrix(1.0, 0.0, 0.0, 1.0, 0.5, 0.5)">
      <use height="34.0" transform="matrix(1.0, 0.0, 0.0, 1.0, -0.5, -0.5)" width="34.0" xlink:href="#shape0"/>
      <use height="32.3" transform="matrix(1.0, 0.0, 0.0, 1.0, 0.6, 0.3)" width="32.1" xlink:href="#shape4"/>
    </g>
    <g id="shape4" transform="matrix(1.0, 0.0, 0.0, 1.0, -0.6, -0.3)">
      <path d="M29.6 1.25 L29.05 2.1 28.6 1.8 28.6 1.45 28.85 0.8 Q28.9 0.35 29.3 0.35 L29.4 0.4 Q29.85 0.1 29.85 0.7 L29.7 1.1 29.6 1.25 M1.25 2.6 Q0.8 2.6 0.7 2.2 L0.7 1.7 Q0.7 1.15 1.45 0.65 2.2 0.2 2.2 0.95 L1.25 2.6 M1.85 29.35 L1.55 29.85 1.0 30.25 Q0.6 30.25 0.6 29.8 0.6 29.5 0.9 29.25 1.3 28.9 1.8 29.1 L1.85 29.35 M29.95 29.35 L29.8 29.95 29.4 30.25 Q28.95 30.25 28.95 29.8 28.95 29.4 29.45 29.0 29.95 28.55 29.95 29.35" fill="#ff6666" fill-rule="evenodd" stroke="none"/>
      <path d="M32.7 3.95 L32.7 4.35 31.45 4.6 Q30.2 4.6 30.2 4.2 30.2 3.9 30.7 3.65 L31.35 2.95 Q31.15 2.6 31.45 2.15 31.8 1.75 32.3 1.95 L32.7 3.95 M4.2 2.5 Q4.2 4.6 2.45 4.6 L2.05 4.55 Q1.95 4.05 2.1 3.9 L1.7 3.5 Q1.7 3.05 3.35 3.05 L3.9 2.1 Q4.2 1.65 4.2 2.5 M3.6 30.35 Q3.7 30.0 4.3 30.1 L4.35 32.05 Q4.25 32.6 3.75 32.6 L1.6 32.45 Q1.45 32.4 1.45 32.15 2.65 30.7 3.6 30.85 L3.6 30.35 M32.25 32.5 L31.25 32.5 30.25 32.5 29.85 32.05 30.05 31.8 31.3 31.25 31.2 30.65 Q31.2 30.25 31.55 29.8 31.95 29.25 32.25 29.95 L32.45 31.75 32.25 32.5" fill="#660000" fill-rule="evenodd" stroke="none"/>
      <path d="M22.05 19.8 L24.9 29.35 16.7 23.7 8.45 29.35 11.3 19.8 3.35 13.7 13.35 13.45 16.7 4.0 20.0 13.45 30.0 13.7 22.05 19.8" fill="#ffff00" fill-rule="evenodd" stroke="none"/>
      <path d="M22.05 19.8 L24.9 29.35 16.7 23.7 8.45 29.35 11.3 19.8 3.35 13.7 13.35 13.45 16.7 4.0 20.0 13.45 30.0 13.7 22.05 19.8 Z" fill="none" stroke="#000000" stroke-linecap="round" stroke-linejoin="round" stroke-width="1.0"/>
    </g>
  </defs>
</svg>
