<?xml version="1.0" encoding="UTF-8" standalone="no"?>
<svg xmlns:xlink="http://www.w3.org/1999/xlink" height="380.4px" width="1253.7px" xmlns="http://www.w3.org/2000/svg">
  <g transform="matrix(6.0, 0.0, 0.0, 6.0, 850.5, 354.0)">
    <use height="27.55" transform="matrix(1.0, 0.0, 0.0, 1.0, -60.6, -27.65)" width="122.75" xlink:href="#shape0"/>
    <use height="34.9" transform="matrix(1.0, 0.0, 0.0, 1.0, -62.1, -45.2)" width="129.3" xlink:href="#sprite0"/>
    <use height="22.3" transform="matrix(1.0, 0.0, 0.0, 1.0, -55.8, -27.45)" width="113.75" xlink:href="#sprite1"/>
    <use height="7.7" transform="matrix(1.0, 0.0, 0.0, 1.0, -61.3, -28.15)" width="7.55" xlink:href="#sprite2"/>
    <use height="7.7" transform="matrix(0.6624, 0.7489, -0.7489, 0.6624, -49.1006, -32.0586)" width="7.55" xlink:href="#sprite2"/>
    <use height="7.7" transform="matrix(0.0926, 0.9939, -0.9939, 0.0926, 63.0792, -25.9838)" width="7.55" xlink:href="#sprite2"/>
    <use height="7.7" transform="matrix(-0.9973, -0.0291, 0.0291, -0.9973, 62.7778, -10.551)" width="7.55" xlink:href="#sprite2"/>
    <use height="7.7" transform="matrix(-0.9878, -0.1382, 0.1382, -0.9878, 55.6222, -4.0289)" width="7.55" xlink:href="#sprite2"/>
    <use height="7.7" transform="matrix(-0.9878, -0.1382, 0.1382, -0.9878, 48.4722, 1.5711)" width="7.55" xlink:href="#sprite2"/>
    <use height="7.7" transform="matrix(-0.7276, -0.68, 0.68, -0.7276, 36.7105, 4.4011)" width="7.55" xlink:href="#sprite2"/>
    <use height="7.7" transform="matrix(0.2588, -0.9659, 0.9659, 0.2588, -63.0394, -13.6742)" width="7.55" xlink:href="#sprite2"/>
    <use height="7.7" transform="matrix(-0.1058, -0.9933, 0.9933, -0.1058, -55.9774, -5.8179)" width="7.55" xlink:href="#sprite2"/>
    <use height="7.7" transform="matrix(-0.5883, -0.8073, 0.8073, -0.5883, -37.8522, 2.9422)" width="7.55" xlink:href="#sprite2"/>
    <use height="7.7" transform="matrix(-0.6947, -0.7171, 0.7171, -0.6947, -28.1055, 3.5136)" width="7.55" xlink:href="#sprite2"/>
    <use height="7.7" transform="matrix(-0.6947, -0.7171, 0.7171, -0.6947, -18.9055, 3.6136)" width="7.55" xlink:href="#sprite2"/>
    <use height="7.7" transform="matrix(-0.6947, -0.7171, 0.7171, -0.6947, -9.7055, 3.8136)" width="7.55" xlink:href="#sprite2"/>
    <use height="7.7" transform="matrix(-0.6947, -0.7171, 0.7171, -0.6947, -0.5055, 3.9136)" width="7.55" xlink:href="#sprite2"/>
    <use height="7.7" transform="matrix(-0.6947, -0.7171, 0.7171, -0.6947, 8.6945, 4.0636)" width="7.55" xlink:href="#sprite2"/>
    <use height="7.7" transform="matrix(-0.6947, -0.7171, 0.7171, -0.6947, 17.8945, 4.2136)" width="7.55" xlink:href="#sprite2"/>
    <use height="7.7" transform="matrix(-0.6947, -0.7171, 0.7171, -0.6947, 27.0945, 4.3636)" width="7.55" xlink:href="#sprite2"/>
    <use height="7.7" transform="matrix(0.6851, 0.7261, -0.7261, 0.6851, 14.6762, -30.1104)" width="7.55" xlink:href="#sprite2"/>
    <use height="7.7" transform="matrix(0.6851, 0.7261, -0.7261, 0.6851, 5.4762, -30.3604)" width="7.55" xlink:href="#sprite2"/>
    <use height="7.7" transform="matrix(0.6851, 0.7261, -0.7261, 0.6851, -3.7238, -30.6604)" width="7.55" xlink:href="#sprite2"/>
    <use height="7.7" transform="matrix(0.6851, 0.7261, -0.7261, 0.6851, -12.9238, -30.9104)" width="7.55" xlink:href="#sprite2"/>
    <use height="7.7" transform="matrix(0.6851, 0.7261, -0.7261, 0.6851, -22.1238, -31.1604)" width="7.55" xlink:href="#sprite2"/>
    <use height="7.7" transform="matrix(0.6851, 0.7261, -0.7261, 0.6851, -31.3238, -31.4604)" width="7.55" xlink:href="#sprite2"/>
    <use height="7.7" transform="matrix(0.6851, 0.7261, -0.7261, 0.6851, -40.5238, -31.7104)" width="7.55" xlink:href="#sprite2"/>
    <use height="7.7" transform="matrix(0.6851, 0.7261, -0.7261, 0.6851, 33.0762, -29.5604)" width="7.55" xlink:href="#sprite2"/>
    <use height="7.7" transform="matrix(0.6851, 0.7261, -0.7261, 0.6851, 23.8762, -29.8104)" width="7.55" xlink:href="#sprite2"/>
    <use height="7.7" transform="matrix(0.6851, 0.7261, -0.7261, 0.6851, 42.2762, -29.3104)" width="7.55" xlink:href="#sprite2"/>
    <use height="7.7" transform="matrix(0.6851, 0.7261, -0.7261, 0.6851, 51.4762, -29.0604)" width="7.55" xlink:href="#sprite2"/>
    <use height="7.7" transform="matrix(-0.1924, -0.9799, 0.9799, -0.1924, -48.351, -0.5846)" width="7.55" xlink:href="#sprite2"/>
    <use height="12.2" transform="matrix(1.0, 0.0, 0.0, 1.0, -58.95, -25.75)" width="12.15" xlink:href="#sprite3"/>
    <use height="12.2" transform="matrix(1.0, 0.0, 0.0, 1.0, -41.95, -15.3)" width="12.15" xlink:href="#sprite3"/>
    <use height="12.2" transform="matrix(1.0, 0.0, 0.0, 1.0, -27.15, -15.1)" width="12.15" xlink:href="#sprite3"/>
    <use height="12.2" transform="matrix(1.0, 0.0, 0.0, 1.0, -12.85, -14.75)" width="12.15" xlink:href="#sprite3"/>
    <use height="12.2" transform="matrix(1.0, 0.0, 0.0, 1.0, 3.25, -14.25)" width="12.15" xlink:href="#sprite3"/>
    <use height="12.2" transform="matrix(1.0, 0.0, 0.0, 1.0, 16.9, -14.25)" width="12.15" xlink:href="#sprite3"/>
    <use height="12.2" transform="matrix(1.0, 0.0, 0.0, 1.0, 33.05, -14.25)" width="12.15" xlink:href="#sprite3"/>
    <use height="17.35" transform="matrix(0.6095, 0.0, 0.0, 0.6095, 51.2453, -24.1)" width="17.4" xlink:href="#sprite4"/>
    <use height="15.4" transform="matrix(1.0387, 0.0, 0.0, 1.0731, -136.1153, -47.963)" width="37.0" xlink:href="#sprite5"/>
    <use height="5.7" transform="matrix(0.9989, 0.0399, -0.0399, 0.9989, -97.3467, -44.6857)" width="72.25" xlink:href="#sprite6"/>
    <use height="19.1" transform="matrix(1.0, 0.0, 0.0, 1.0, -34.65, -51.25)" width="63.05" xlink:href="#sprite7"/>
  </g>
  <defs>
    <g id="shape0" transform="matrix(1.0, 0.0, 0.0, 1.0, 60.6, 27.65)">
      <path d="M56.95 -24.4 L57.3 -24.25 61.8 -21.45 62.05 -21.2 62.15 -20.85 62.15 -16.85 61.95 -16.3 55.9 -10.1 55.85 -10.05 44.25 -0.25 43.75 -0.1 -40.1 -1.85 -40.45 -1.95 -49.05 -6.9 -56.6 -13.2 -56.65 -13.2 -56.8 -13.35 -58.8 -15.0 -59.1 -15.5 -58.9 -16.05 -58.8 -16.15 -60.45 -18.4 -60.6 -18.75 -60.55 -19.15 -58.25 -24.6 -57.9 -24.95 -53.5 -27.55 -53.1 -27.65 56.95 -24.4 M60.65 -20.45 L56.7 -22.9 -52.95 -26.15 -56.95 -23.8 -58.95 -18.9 -55.65 -14.3 -55.6 -14.25 -48.2 -8.15 -39.9 -3.35 43.5 -1.6 54.85 -11.15 60.65 -17.15 60.65 -20.45" fill="#170e0b" fill-rule="evenodd" stroke="none"/>
    </g>
    <g id="sprite0" transform="matrix(1.0, 0.0, 0.0, 1.0, 64.65, 17.45)">
      <use height="34.9" transform="matrix(1.0, 0.0, 0.0, 1.0, -64.65, -17.45)" width="129.3" xlink:href="#shape1"/>
    </g>
    <g id="shape1" transform="matrix(1.0, 0.0, 0.0, 1.0, 64.65, 17.45)">
      <path d="M35.7 -8.15 L35.75 -8.15 36.15 -8.2 39.95 -7.85 40.05 -7.35 40.1 -7.15 Q42.5 -9.3 45.95 -10.3 L46.3 -10.3 47.2 -12.7 Q48.45 -15.75 49.15 -16.85 L49.15 -17.05 49.3 -17.15 49.3 -17.2 49.55 -17.4 49.6 -17.4 49.85 -17.3 49.65 -17.05 49.55 -17.05 49.3 -16.8 49.25 -16.8 47.7 -13.45 46.5 -10.3 46.75 -10.3 46.8 -10.15 46.9 -10.15 Q48.95 -10.15 49.4 -9.5 L49.55 -9.55 50.05 -9.35 50.05 -9.3 Q50.7 -9.85 51.25 -9.85 52.05 -9.85 53.85 -8.1 L56.0 -5.8 58.2 -3.5 59.75 -1.7 58.55 -0.4 60.0 -0.3 61.0 -0.2 61.0 0.0 Q61.6 0.2 62.0 0.7 L62.85 2.15 63.85 3.5 64.65 5.0 64.55 5.05 64.55 5.0 64.25 5.15 63.8 5.3 63.45 5.5 63.25 5.6 63.2 5.6 63.0 5.6 60.75 5.4 58.95 5.25 58.15 5.25 Q57.1 5.25 53.85 7.25 L49.85 9.65 46.05 11.7 40.8 14.2 36.25 16.3 Q33.3 17.45 30.4 17.45 L27.25 17.4 27.1 17.4 27.1 17.45 21.0 17.45 14.55 16.55 8.5 15.7 1.45 14.8 -11.55 14.05 -15.45 14.1 -16.5 14.25 -17.0 14.4 -17.25 14.4 -17.2 14.35 Q-20.55 13.6 -21.75 13.6 L-34.7 13.2 -43.85 13.15 -46.5 12.95 -48.5 13.15 -49.65 13.35 -52.8 11.6 -54.9 10.0 -54.95 10.05 -55.0 9.95 -55.15 9.8 -55.1 9.7 Q-56.7 6.3 -57.65 4.75 -59.4 1.9 -61.95 1.9 L-62.6 1.85 -63.0 1.9 -63.25 2.1 -64.65 1.0 -62.8 -0.95 -59.95 -3.35 -59.9 -3.25 -59.95 -3.15 -59.15 -3.25 -56.55 -3.05 -56.5 -3.05 -55.0 -2.9 -52.85 -2.8 -48.05 -2.85 -45.0 -2.5 -44.7 -3.1 -44.15 -4.0 -44.2 -4.15 -44.05 -4.2 -41.4 -3.95 -39.65 -3.9 -38.9 -3.8 -38.45 -3.85 -38.5 -4.25 -38.3 -4.45 -38.35 -4.5 -38.25 -4.5 -38.25 -4.55 -38.15 -4.5 -36.35 -4.7 -36.15 -4.9 -36.05 -5.2 -35.85 -5.3 -34.5 -5.1 -33.85 -5.55 -32.5 -6.05 -30.2 -7.2 -30.3 -7.25 -30.3 -7.4 -15.0 -6.9 Q-7.55 -6.6 2.85 -6.6 L11.25 -6.8 18.35 -7.05 24.75 -7.0 26.2 -7.1 27.15 -7.2 31.6 -7.05 Q31.6 -7.3 33.45 -7.75 L35.7 -8.15 M37.25 -7.85 L37.25 -7.95 35.9 -8.0 35.9 -7.95 32.1 -7.0 39.8 -6.8 39.8 -6.9 39.85 -6.9 39.75 -7.65 37.25 -7.85 M46.85 -9.35 L46.55 -9.3 46.25 -9.3 45.95 -7.6 45.75 -7.55 46.2 -7.55 Q47.6 -7.55 47.6 -7.0 L47.55 -6.45 49.35 -6.4 49.0 -6.85 48.65 -7.55 Q48.65 -7.85 49.2 -8.45 L49.05 -8.45 48.8 -8.8 48.75 -8.8 47.1 -9.45 46.85 -9.35 M46.4 -9.95 L46.3 -9.5 47.05 -9.65 48.8 -9.05 49.0 -9.3 49.1 -9.35 46.4 -9.95 M46.2 -9.95 Q43.9 -9.45 42.5 -8.65 L40.25 -6.85 40.3 -6.8 40.3 -6.75 41.0 -6.75 Q42.35 -8.6 45.8 -9.5 L46.05 -9.5 46.2 -9.95 M45.7 -7.65 L46.0 -9.3 Q43.4 -8.75 41.2 -6.75 L43.95 -6.6 43.95 -6.7 Q43.95 -7.2 44.25 -7.35 L45.75 -7.55 45.7 -7.65 M49.05 -8.8 L49.0 -8.8 49.05 -8.75 49.35 -8.65 49.55 -8.85 49.9 -9.2 49.55 -9.3 Q49.25 -9.3 49.1 -9.05 L49.05 -8.95 49.05 -8.8 M48.85 -7.5 L49.15 -7.0 49.8 -6.4 49.8 -6.35 50.35 -6.35 50.45 -6.4 Q51.55 -6.4 55.4 -2.35 L54.95 -0.5 57.0 -0.45 57.8 -1.55 58.7 -2.65 55.2 -6.4 Q52.15 -9.6 51.25 -9.6 50.55 -9.6 49.65 -8.6 L48.85 -7.5 M-27.35 -1.75 L-27.45 -1.7 -27.6 -1.75 -29.15 -1.8 -30.3 -1.9 -35.95 -1.85 -38.5 -2.0 -39.7 -2.2 -39.7 -2.25 -41.15 -2.35 -44.3 -2.25 -44.9 -2.3 -45.0 -2.3 -45.0 -2.35 -46.55 -2.5 -55.0 -2.75 -56.55 -2.8 -59.0 -2.8 -60.0 -2.9 -60.1 -2.8 -60.1 -2.95 -61.6 -1.55 -64.4 0.95 -63.95 1.35 -63.4 1.75 -63.15 1.7 -59.5 -1.6 -59.4 -1.6 -59.35 -1.5 -59.3 -1.75 -59.1 -1.75 -58.25 -1.85 -55.7 -1.65 -55.65 -1.65 -54.2 -1.5 -52.1 -1.4 -47.4 -1.45 -44.25 -1.05 -38.9 -1.1 -38.9 -1.05 -38.25 -0.95 -37.05 -0.95 -35.9 -0.7 -23.0 -0.5 -22.95 -0.4 -22.0 -0.45 Q-9.7 -0.45 -6.1 -0.15 L-6.15 -0.4 -6.0 -0.4 0.1 -0.1 1.6 0.0 6.15 0.05 6.2 0.1 7.0 0.1 12.55 0.25 15.65 0.35 21.4 0.65 21.4 0.5 35.65 0.9 39.1 1.1 39.55 1.15 39.55 0.95 40.05 0.95 40.55 1.1 40.9 1.2 41.4 1.2 46.7 1.0 48.05 0.9 49.4 0.85 50.5 0.85 58.3 1.1 59.3 1.2 60.8 1.4 60.85 1.6 60.7 1.65 62.1 3.7 Q63.15 5.3 63.3 5.3 64.05 5.2 64.3 4.7 L64.35 4.7 62.75 2.4 61.6 0.7 Q61.25 0.25 60.7 0.15 L60.05 0.05 59.75 0.05 59.8 0.0 59.45 -0.05 51.9 -0.35 48.15 -0.15 43.45 0.0 42.5 0.0 42.55 0.1 42.45 0.15 42.35 0.05 23.55 -0.6 23.55 -0.55 22.95 -0.5 13.2 -0.75 12.95 -0.8 7.45 -1.1 6.25 -1.05 7.35 -0.95 6.45 -1.0 3.75 -1.05 3.5 -0.95 2.9 -0.95 1.4 -1.05 -0.35 -1.35 -4.5 -1.55 -5.4 -1.5 -5.4 -1.35 -5.5 -1.35 -5.5 -1.25 -5.65 -1.35 -6.25 -1.35 -23.85 -1.6 -23.9 -1.65 -23.85 -1.7 -27.35 -1.75 M60.5 1.65 L59.3 1.55 57.8 1.35 50.4 1.05 46.75 1.25 42.15 1.4 41.2 1.4 41.25 1.5 41.15 1.55 41.05 1.45 22.65 0.8 22.65 0.85 22.05 0.9 12.55 0.65 12.3 0.6 6.9 0.3 5.75 0.35 6.8 0.45 5.95 0.4 3.3 0.35 3.05 0.45 2.45 0.45 1.0 0.35 -0.75 0.05 -4.8 -0.15 -5.65 -0.1 -5.65 0.05 -5.75 0.05 -5.75 0.15 -5.9 0.05 -6.5 0.05 -23.7 -0.2 -23.75 -0.25 -23.7 -0.3 -28.9 -0.4 -30.05 -0.5 -35.55 -0.45 -38.05 -0.6 -39.25 -0.8 -39.25 -0.85 -40.65 -0.95 -43.75 -0.85 -45.95 -1.1 -54.2 -1.35 -55.7 -1.4 -58.1 -1.4 -59.1 -1.5 -59.2 -1.4 -59.5 -1.2 -59.55 -1.25 -62.75 1.7 -61.95 1.65 Q-59.7 1.65 -58.15 3.5 -57.35 4.45 -56.9 5.6 -55.5 8.25 -55.0 9.65 -50.15 13.1 -49.55 13.1 L-48.45 12.95 -46.5 12.75 -43.9 12.95 -31.65 13.15 -22.45 13.25 -21.35 13.45 -19.05 13.75 -17.05 14.15 Q-16.7 13.85 -15.65 13.85 L-14.45 13.95 -11.45 13.8 1.15 14.55 9.05 15.55 15.05 16.45 17.7 16.9 26.55 17.25 26.55 17.1 30.45 17.2 Q34.15 17.2 41.55 13.65 L49.4 9.75 53.3 7.35 Q57.3 5.0 58.05 5.0 L63.0 5.35 62.0 3.9 60.5 1.65 M58.9 -2.4 L57.0 -0.45 58.3 -0.4 59.55 -1.7 58.9 -2.4 M50.2 -1.35 L49.45 -1.35 49.45 -1.2 49.15 -0.45 49.5 -0.5 50.9 -0.55 52.0 -0.55 54.65 -0.5 54.65 -0.65 54.9 -1.2 54.75 -1.2 53.9 -1.35 50.2 -1.35 M49.15 -1.85 L49.25 -1.85 49.45 -1.5 51.8 -1.6 55.0 -1.45 55.15 -2.25 53.1 -4.25 50.55 -6.1 50.25 -6.1 44.45 -6.15 45.75 -4.0 45.9 -4.0 45.9 -3.95 46.8 -3.75 48.25 -3.2 48.9 -2.2 49.1 -1.8 49.15 -1.8 49.15 -1.85 M47.4 -7.0 L46.15 -7.3 44.6 -7.15 44.25 -6.6 47.3 -6.45 47.4 -7.0 M45.8 -3.7 L45.65 -3.65 45.6 -3.75 41.05 -3.55 35.5 -3.35 34.3 -3.4 34.2 -2.8 Q33.95 -1.65 33.65 -1.65 L30.95 -1.8 31.0 -0.75 31.0 -0.65 36.85 -0.5 40.35 -0.3 40.8 -0.25 40.8 -0.45 41.3 -0.45 41.85 -0.3 42.2 -0.2 42.7 -0.2 48.1 -0.4 48.95 -0.45 48.95 -0.65 49.25 -1.15 49.15 -1.45 49.0 -1.55 48.3 -2.65 Q47.85 -3.15 46.95 -3.4 L45.8 -3.7 M45.45 -4.0 Q44.5 -5.4 44.25 -6.15 L41.5 -6.3 39.05 -6.55 29.3 -7.0 26.55 -6.9 25.1 -6.75 24.75 -6.75 28.75 -4.2 Q29.25 -4.95 30.0 -4.95 L34.4 -4.15 34.35 -3.7 34.95 -3.6 35.5 -3.55 45.25 -4.0 45.45 -4.0 M31.2 -4.3 L32.55 -4.25 32.55 -4.1 29.9 -4.0 29.85 -4.15 30.0 -4.3 31.2 -4.3 M30.15 -4.7 L29.35 -4.45 28.9 -4.1 29.0 -4.05 30.15 -3.3 30.9 -2.55 30.95 -2.05 31.5 -2.05 33.5 -1.9 33.85 -1.9 33.9 -3.05 34.1 -3.65 34.2 -4.1 30.1 -4.7 30.15 -4.7 M31.45 -2.85 L33.4 -2.95 33.45 -2.75 31.9 -2.65 31.5 -2.65 31.45 -2.85 M31.1 -3.4 L30.85 -3.4 30.8 -3.5 Q30.8 -3.75 31.4 -3.75 L33.15 -3.75 33.2 -3.55 32.25 -3.6 31.1 -3.4 M30.0 -3.15 L28.85 -3.85 24.45 -6.7 24.45 -6.8 20.1 -6.95 13.7 -6.7 7.7 -6.4 -2.05 -6.4 -19.15 -6.85 -20.85 -6.95 -24.15 -7.05 -28.25 -6.9 -30.1 -7.1 -32.25 -5.95 -34.5 -4.8 -34.65 -4.8 -34.6 -4.9 -35.05 -4.9 -35.85 -5.05 -35.9 -4.65 -36.65 -4.35 -38.15 -4.35 -38.25 -3.85 -37.85 -3.9 -33.35 -3.65 -28.8 -3.4 -28.75 -3.5 -28.6 -3.4 -28.0 -2.75 -27.5 -1.95 -23.1 -1.9 -23.05 -1.8 -22.1 -1.85 -18.4 -1.85 -18.5 -3.7 -18.05 -3.95 -17.15 -4.1 -16.25 -3.95 -15.1 -3.85 -13.8 -3.95 -10.45 -3.9 -9.5 -3.65 -9.5 -3.35 -9.6 -1.7 -5.85 -1.55 -5.9 -1.8 -5.75 -1.8 0.5 -1.5 2.05 -1.4 6.7 -1.35 6.75 -1.3 7.55 -1.3 13.2 -1.15 16.4 -1.05 22.25 -0.75 22.25 -0.9 30.75 -0.65 30.7 -2.3 Q30.75 -2.65 30.0 -3.15 M-10.1 -2.65 L-10.1 -2.5 -10.25 -2.5 -10.3 -2.6 -10.2 -2.65 -10.2 -2.7 -10.1 -2.65 M-10.2 -3.05 L-10.25 -3.2 -10.15 -3.3 -10.05 -3.25 -10.1 -3.05 -10.2 -3.05 M-17.5 -3.95 Q-18.15 -4.1 -18.25 -3.25 L-18.2 -2.0 -18.2 -1.85 -9.85 -1.7 -9.7 -3.1 -9.7 -3.65 -14.05 -3.6 -17.5 -3.85 -17.25 -3.85 -17.5 -3.95 M-15.2 -3.35 L-14.9 -3.35 -14.9 -3.1 -15.2 -3.35 M-13.6 -3.15 L-13.8 -3.2 -13.8 -3.35 -13.6 -3.35 -13.6 -3.15 M-11.15 -3.45 L-11.05 -3.4 -11.1 -3.2 -11.2 -3.2 -11.25 -3.35 -11.15 -3.45 M-12.35 -3.1 L-12.4 -3.35 -12.25 -3.35 -12.2 -3.1 -12.35 -3.1 M-16.4 -3.4 L-16.25 -3.4 -16.2 -3.35 -16.25 -3.2 -16.35 -3.2 -16.4 -3.4 M-17.7 -3.6 L-17.6 -3.6 -17.55 -3.35 -17.75 -3.3 -17.8 -3.45 -17.7 -3.6 M-17.9 -2.7 L-17.75 -2.65 -17.75 -2.5 -17.95 -2.5 -18.0 -2.6 -17.9 -2.65 -17.9 -2.7 M-29.45 -3.15 L-37.85 -3.7 -38.9 -3.6 -39.7 -3.7 -44.05 -3.85 -44.45 -3.15 -44.85 -2.45 -39.35 -2.5 -39.35 -2.45 -38.7 -2.35 -37.45 -2.35 -36.3 -2.1 -27.75 -1.95 -28.1 -2.4 -28.65 -3.2 -29.45 -3.15" fill="#000000" fill-rule="evenodd" stroke="none"/>
      <path d="M37.25 -7.85 L39.75 -7.65 39.85 -6.9 39.8 -6.9 39.8 -6.8 32.1 -7.0 35.9 -7.95 35.9 -8.0 37.25 -7.95 37.25 -7.85 M49.1 -1.8 L48.9 -2.2 48.25 -3.2 46.8 -3.75 45.9 -3.95 45.9 -4.0 45.75 -4.0 44.45 -6.15 50.25 -6.1 50.55 -6.1 53.1 -4.25 55.15 -2.25 55.0 -1.45 51.8 -1.6 49.45 -1.5 49.25 -1.85 49.15 -1.85 49.1 -1.8 M31.1 -3.4 L32.25 -3.6 33.2 -3.55 33.15 -3.75 31.4 -3.75 Q30.8 -3.75 30.8 -3.5 L30.85 -3.4 31.1 -3.4 M31.45 -2.85 L31.5 -2.65 31.9 -2.65 33.45 -2.75 33.4 -2.95 31.45 -2.85 M30.15 -4.7 L30.1 -4.7 34.2 -4.1 34.1 -3.65 33.9 -3.05 33.85 -1.9 33.5 -1.9 31.5 -2.05 30.95 -2.05 30.9 -2.55 30.15 -3.3 29.0 -4.05 28.9 -4.1 29.35 -4.45 30.15 -4.7 M31.2 -4.3 L30.0 -4.3 29.85 -4.15 29.9 -4.0 32.55 -4.1 32.55 -4.25 31.2 -4.3" fill="#ba9f7e" fill-rule="evenodd" stroke="none"/>
      <path d="M46.2 -9.95 L46.05 -9.5 45.8 -9.5 Q42.35 -8.6 41.0 -6.75 L40.3 -6.75 40.3 -6.8 40.25 -6.85 42.5 -8.65 Q43.9 -9.45 46.2 -9.95 M46.4 -9.95 L49.1 -9.35 49.0 -9.3 48.8 -9.05 47.05 -9.65 46.3 -9.5 46.4 -9.95 M49.05 -8.75 L49.05 -8.8 49.05 -8.95 49.1 -9.05 Q49.25 -9.3 49.55 -9.3 L49.9 -9.2 49.55 -8.85 49.35 -8.65 49.05 -8.75 M58.9 -2.4 L59.55 -1.7 58.3 -0.4 57.0 -0.45 58.9 -2.4 M47.4 -7.0 L47.3 -6.45 44.25 -6.6 44.6 -7.15 46.15 -7.3 47.4 -7.0" fill="#757371" fill-rule="evenodd" stroke="none"/>
      <path d="M48.85 -7.5 L49.65 -8.6 Q50.55 -9.6 51.25 -9.6 52.15 -9.6 55.2 -6.4 L58.7 -2.65 57.8 -1.55 57.0 -0.45 54.95 -0.5 55.4 -2.35 Q51.55 -6.4 50.45 -6.4 L50.35 -6.35 49.8 -6.35 49.8 -6.4 49.15 -7.0 48.85 -7.5" fill="#453a2e" fill-rule="evenodd" stroke="none"/>
      <path d="M-27.35 -1.75 L-23.85 -1.7 -23.9 -1.65 -23.85 -1.6 -6.25 -1.35 -5.65 -1.35 -5.5 -1.25 -5.5 -1.35 -5.4 -1.35 -5.4 -1.5 -4.5 -1.55 -0.35 -1.35 1.4 -1.05 2.9 -0.95 3.5 -0.95 3.75 -1.05 6.45 -1.0 7.35 -0.95 6.25 -1.05 7.45 -1.1 12.95 -0.8 13.2 -0.75 22.95 -0.5 23.55 -0.55 23.55 -0.6 42.35 0.05 42.45 0.15 42.55 0.1 42.5 0.0 43.45 0.0 48.15 -0.15 51.9 -0.35 59.45 -0.05 59.8 0.0 59.75 0.05 60.05 0.05 60.7 0.15 Q61.25 0.25 61.6 0.7 L62.75 2.4 64.35 4.7 64.3 4.7 Q64.05 5.2 63.3 5.3 63.15 5.3 62.1 3.7 L60.7 1.65 60.85 1.6 60.8 1.4 59.3 1.2 58.3 1.1 50.5 0.85 49.4 0.85 48.05 0.9 46.7 1.0 41.4 1.2 40.9 1.2 40.55 1.1 40.05 0.95 39.55 0.95 39.55 1.15 39.1 1.1 35.65 0.9 21.4 0.5 21.4 0.65 15.65 0.35 12.55 0.25 7.0 0.1 6.2 0.1 6.15 0.05 1.6 0.0 0.1 -0.1 -6.0 -0.4 -6.15 -0.4 -6.1 -0.15 Q-9.7 -0.45 -22.0 -0.45 L-22.95 -0.4 -23.0 -0.5 -35.9 -0.7 -37.05 -0.95 -38.25 -0.95 -38.9 -1.05 -38.9 -1.1 -44.25 -1.05 -47.4 -1.45 -52.1 -1.4 -54.2 -1.5 -55.65 -1.65 -55.7 -1.65 -58.25 -1.85 -59.1 -1.75 -59.3 -1.75 -59.35 -1.5 -59.4 -1.6 -59.5 -1.6 -63.15 1.7 -63.4 1.75 -63.95 1.35 -64.4 0.95 -61.6 -1.55 -60.1 -2.95 -60.1 -2.8 -60.0 -2.9 -59.0 -2.8 -56.55 -2.8 -55.0 -2.75 -46.55 -2.5 -45.0 -2.35 -45.0 -2.3 -44.9 -2.3 -44.3 -2.25 -41.15 -2.35 -39.7 -2.25 -39.7 -2.2 -38.5 -2.0 -35.95 -1.85 -30.3 -1.9 -29.15 -1.8 -27.6 -1.75 -27.45 -1.7 -27.35 -1.75" fill="#929265" fill-rule="evenodd" stroke="none"/>
      <path d="M60.5 1.65 L62.0 3.9 63.0 5.35 58.05 5.0 Q57.3 5.0 53.3 7.35 L49.4 9.75 41.55 13.65 Q34.15 17.2 30.45 17.2 L26.55 17.1 26.55 17.25 17.7 16.9 15.05 16.45 9.05 15.55 1.15 14.55 -11.45 13.8 -14.45 13.95 -15.65 13.85 Q-16.7 13.85 -17.05 14.15 L-19.05 13.75 -21.35 13.45 -22.45 13.25 -31.65 13.15 -43.9 12.95 -46.5 12.75 -48.45 12.95 -49.55 13.1 Q-50.15 13.1 -55.0 9.65 -55.5 8.25 -56.9 5.6 -57.35 4.45 -58.15 3.5 -59.7 1.65 -61.95 1.65 L-62.75 1.7 -59.55 -1.25 -59.5 -1.2 -59.2 -1.4 -59.1 -1.5 -58.1 -1.4 -55.7 -1.4 -54.2 -1.35 -45.95 -1.1 -43.75 -0.85 -40.65 -0.95 -39.25 -0.85 -39.25 -0.8 -38.05 -0.6 -35.55 -0.45 -30.05 -0.5 -28.9 -0.4 -23.7 -0.3 -23.75 -0.25 -23.7 -0.2 -6.5 0.05 -5.9 0.05 -5.75 0.15 -5.75 0.05 -5.65 0.05 -5.65 -0.1 -4.8 -0.15 -0.75 0.05 1.0 0.35 2.45 0.45 3.05 0.45 3.3 0.35 5.95 0.4 6.8 0.45 5.75 0.35 6.9 0.3 12.3 0.6 12.55 0.65 22.05 0.9 22.65 0.85 22.65 0.8 41.05 1.45 41.15 1.55 41.25 1.5 41.2 1.4 42.15 1.4 46.75 1.25 50.4 1.05 57.8 1.35 59.3 1.55 60.5 1.65" fill="#2e2d1f" fill-rule="evenodd" stroke="none"/>
      <path d="M50.2 -1.35 L53.9 -1.35 54.75 -1.2 54.9 -1.2 54.65 -0.65 54.65 -0.5 52.0 -0.55 50.9 -0.55 49.5 -0.5 49.15 -0.45 49.45 -1.2 49.45 -1.35 50.2 -1.35 M45.45 -4.0 L45.25 -4.0 35.5 -3.55 34.95 -3.6 34.35 -3.7 34.4 -4.15 30.0 -4.95 Q29.25 -4.95 28.75 -4.2 L24.75 -6.75 25.1 -6.75 26.55 -6.9 29.3 -7.0 39.05 -6.55 41.5 -6.3 44.25 -6.15 Q44.5 -5.4 45.45 -4.0" fill="#606042" fill-rule="evenodd" stroke="none"/>
      <path d="M45.8 -3.7 L46.95 -3.4 Q47.85 -3.15 48.3 -2.65 L49.0 -1.55 49.15 -1.45 49.25 -1.15 48.95 -0.65 48.95 -0.45 48.1 -0.4 42.7 -0.2 42.2 -0.2 41.85 -0.3 41.3 -0.45 40.8 -0.45 40.8 -0.25 40.35 -0.3 36.85 -0.5 31.0 -0.65 31.0 -0.75 30.95 -1.8 33.65 -1.65 Q33.95 -1.65 34.2 -2.8 L34.3 -3.4 35.5 -3.35 41.05 -3.55 45.6 -3.75 45.65 -3.65 45.8 -3.7" fill="#797953" fill-rule="evenodd" stroke="none"/>
      <path d="M30.0 -3.15 Q30.75 -2.65 30.7 -2.3 L30.75 -0.65 22.25 -0.9 22.25 -0.75 16.4 -1.05 13.2 -1.15 7.55 -1.3 6.75 -1.3 6.7 -1.35 2.05 -1.4 0.5 -1.5 -5.75 -1.8 -5.9 -1.8 -5.85 -1.55 -9.6 -1.7 -9.5 -3.35 -9.5 -3.65 -10.45 -3.9 -13.8 -3.95 -15.1 -3.85 -16.25 -3.95 -17.15 -4.1 -18.05 -3.95 -18.5 -3.7 -18.4 -1.85 -22.1 -1.85 -23.05 -1.8 -23.1 -1.9 -27.5 -1.95 -28.0 -2.75 -28.6 -3.4 -28.75 -3.5 -28.8 -3.4 -33.35 -3.65 -37.85 -3.9 -38.25 -3.85 -38.15 -4.35 -36.65 -4.35 -35.9 -4.65 -35.85 -5.05 -35.05 -4.9 -34.6 -4.9 -34.65 -4.8 -34.5 -4.8 -32.25 -5.95 -30.1 -7.1 -28.25 -6.9 -24.15 -7.05 -20.85 -6.95 -19.15 -6.85 -2.05 -6.4 7.7 -6.4 13.7 -6.7 20.1 -6.95 24.45 -6.8 24.45 -6.7 28.85 -3.85 30.0 -3.15" fill="#aaab83" fill-rule="evenodd" stroke="none"/>
      <path d="M-17.5 -3.85 L-14.05 -3.6 -9.7 -3.65 -9.7 -3.1 -9.85 -1.7 -18.2 -1.85 -18.2 -2.0 -18.25 -3.25 Q-18.15 -4.1 -17.5 -3.95 L-17.5 -3.85 M-10.2 -3.05 L-10.1 -3.05 -10.05 -3.25 -10.15 -3.3 -10.25 -3.2 -10.2 -3.05 M-10.1 -2.65 L-10.2 -2.7 -10.2 -2.65 -10.3 -2.6 -10.25 -2.5 -10.1 -2.5 -10.1 -2.65 M-29.45 -3.15 L-28.65 -3.2 -28.1 -2.4 -27.75 -1.95 -36.3 -2.1 -37.45 -2.35 -38.7 -2.35 -39.35 -2.45 -39.35 -2.5 -44.85 -2.45 -44.45 -3.15 -44.05 -3.85 -39.7 -3.7 -38.9 -3.6 -37.85 -3.7 -29.45 -3.15 M-17.9 -2.7 L-17.9 -2.65 -18.0 -2.6 -17.95 -2.5 -17.75 -2.5 -17.75 -2.65 -17.9 -2.7 M-17.7 -3.6 L-17.8 -3.45 -17.75 -3.3 -17.55 -3.35 -17.6 -3.6 -17.7 -3.6 M-16.4 -3.4 L-16.35 -3.2 -16.25 -3.2 -16.2 -3.35 -16.25 -3.4 -16.4 -3.4 M-12.35 -3.1 L-12.2 -3.1 -12.25 -3.35 -12.4 -3.35 -12.35 -3.1 M-11.15 -3.45 L-11.25 -3.35 -11.2 -3.2 -11.1 -3.2 -11.05 -3.4 -11.15 -3.45 M-13.6 -3.15 L-13.6 -3.35 -13.8 -3.35 -13.8 -3.2 -13.6 -3.15 M-15.2 -3.35 L-14.9 -3.1 -14.9 -3.35 -15.2 -3.35" fill="#83825a" fill-rule="evenodd" stroke="none"/>
    </g>
    <g id="sprite1" transform="matrix(1.0, 0.0, 0.0, 1.0, 56.85, 11.15)">
      <use height="22.3" transform="matrix(1.0, 0.0, 0.0, 1.0, -56.85, -11.15)" width="113.75" xlink:href="#shape2"/>
    </g>
    <g id="shape2" transform="matrix(1.0, 0.0, 0.0, 1.0, 56.85, 11.15)">
      <path d="M-28.1 10.95 L-38.85 10.3 -39.55 10.3 -39.85 10.25 -39.85 10.2 -39.95 10.2 -39.95 10.25 -40.25 10.25 -41.55 9.55 -42.9 8.85 -43.4 8.5 -44.65 7.8 -46.9 6.5 -50.25 4.4 -52.85 2.4 -54.15 1.15 -54.2 1.15 -54.25 1.05 -54.7 0.35 -55.85 -1.5 -56.45 -2.7 -56.7 -3.4 -56.85 -4.35 -56.6 -6.9 -56.5 -7.55 Q-56.15 -9.1 -55.25 -9.95 -54.2 -10.9 -52.15 -11.1 L-51.7 -11.15 -51.35 -11.15 -51.0 -11.15 -50.95 -11.1 -45.5 -10.75 -44.7 -10.8 -39.4 -10.9 -30.6 -10.55 -29.25 -10.45 -22.2 -9.95 -21.95 -9.95 -21.9 -10.1 -19.5 -10.1 -8.5 -9.9 1.35 -9.5 2.7 -9.45 4.35 -9.55 4.2 -9.75 4.35 -9.8 5.2 -9.5 5.85 -9.45 7.3 -9.45 7.35 -9.3 8.35 -9.25 14.6 -9.0 15.35 -8.95 21.25 -9.0 21.25 -8.95 21.7 -9.0 25.0 -9.2 29.15 -9.05 31.0 -9.2 32.55 -9.05 47.85 -8.95 47.9 -8.95 47.85 -9.05 Q47.85 -9.3 48.75 -9.3 L51.8 -8.7 54.85 -7.85 Q55.85 -7.45 56.4 -6.65 56.9 -5.95 56.9 -5.25 L56.9 -5.15 Q56.85 -4.2 55.7 -2.1 L54.65 -0.35 54.7 -0.4 54.75 -0.35 54.5 -0.15 54.55 -0.05 52.95 0.8 50.15 2.1 Q46.45 3.5 44.9 4.35 42.6 5.55 40.5 7.35 L37.15 10.45 37.05 10.45 37.0 10.35 37.05 10.2 36.65 10.3 36.0 10.45 33.7 10.6 32.7 10.75 30.5 10.65 30.4 10.65 30.3 10.65 28.6 10.75 27.65 10.85 24.3 11.05 22.65 10.95 21.75 11.1 21.65 11.1 21.6 10.95 17.35 11.0 16.0 11.0 15.9 10.9 -10.15 10.95 -10.15 11.05 -10.4 11.05 -10.65 10.95 -10.75 10.95 -12.8 10.95 -19.25 10.9 -19.25 11.0 -20.85 11.05 -23.15 10.95 -23.75 11.0 -27.65 10.95 -27.65 10.9 -27.8 10.7 -23.75 10.8 -22.65 10.7 -19.6 10.75 -19.4 10.6 -12.8 10.7 -10.7 10.7 15.5 10.7 16.25 10.7 17.45 10.75 27.15 10.7 27.75 10.55 30.65 10.4 32.7 10.5 33.3 10.5 34.75 10.3 36.8 10.05 36.85 10.1 37.1 10.05 37.15 10.1 37.15 10.05 37.1 9.9 39.0 8.15 40.1 7.15 41.15 6.35 41.95 5.9 Q43.05 5.0 43.7 4.65 45.45 3.55 48.85 2.15 L50.2 1.65 50.65 1.65 50.95 1.45 50.95 1.4 50.85 1.35 52.4 0.75 54.1 -0.1 Q56.7 -3.55 56.7 -5.15 L56.7 -5.2 Q56.7 -5.95 56.15 -6.65 55.55 -7.4 54.55 -7.75 L51.5 -8.55 49.1 -9.05 49.05 -9.05 49.1 -8.95 48.1 -8.65 47.85 -8.95 47.5 -8.65 45.05 -8.65 44.05 -8.65 43.85 -8.85 43.65 -8.7 39.15 -8.8 37.0 -8.75 36.65 -8.75 34.75 -8.7 34.5 -8.75 34.35 -8.75 34.35 -8.7 33.15 -8.75 33.15 -8.7 33.0 -8.65 32.7 -8.65 32.4 -8.7 32.25 -8.7 31.8 -8.8 31.6 -8.8 31.6 -8.65 31.15 -8.65 31.15 -8.7 31.1 -8.8 30.5 -8.65 28.7 -8.8 25.05 -9.0 21.75 -8.8 21.25 -8.75 19.85 -8.6 18.55 -8.6 18.35 -8.6 18.85 -8.55 Q20.65 -8.05 21.05 -5.9 L21.1 -5.25 Q21.15 -4.4 20.5 -3.45 19.6 -2.3 17.8 -2.15 15.85 -2.0 14.75 -3.6 14.1 -4.55 14.05 -5.35 L14.05 -6.0 14.4 -7.15 Q14.8 -7.95 15.6 -8.35 L16.65 -8.65 16.0 -8.65 14.15 -8.7 12.95 -8.7 12.95 -8.85 8.2 -9.05 5.85 -9.15 3.85 -9.1 4.55 -9.0 Q6.55 -8.5 7.05 -6.2 L7.15 -5.2 Q7.25 -4.2 6.45 -3.1 5.4 -1.7 3.25 -1.55 1.0 -1.4 -0.3 -3.2 -1.05 -4.35 -1.15 -5.3 L-1.05 -6.35 -0.65 -7.4 Q-0.2 -8.3 0.75 -8.7 L2.2 -9.1 -0.95 -9.15 -2.4 -9.15 -2.4 -9.3 -3.8 -9.25 -7.05 -9.5 -7.4 -9.55 -10.9 -9.45 -10.2 -9.35 Q-8.2 -8.85 -7.7 -6.5 L-7.6 -5.55 Q-7.5 -4.55 -8.3 -3.45 -9.35 -2.05 -11.5 -1.9 -13.75 -1.75 -15.05 -3.55 -15.8 -4.7 -15.9 -5.65 L-15.8 -6.65 -15.4 -7.75 Q-14.95 -8.65 -14.0 -9.05 L-12.55 -9.45 -15.7 -9.5 -17.15 -9.5 -17.2 -9.75 -16.3 -9.8 -17.15 -9.85 -20.15 -9.9 -22.2 -9.7 -25.7 -9.8 -25.0 -9.65 Q-23.1 -9.0 -22.75 -6.8 L-22.65 -5.65 Q-22.65 -4.65 -23.5 -3.6 -24.65 -2.3 -26.8 -2.3 -29.05 -2.3 -30.2 -4.2 -30.9 -5.4 -30.9 -6.35 L-30.85 -7.0 -30.3 -8.4 Q-29.75 -9.25 -28.8 -9.65 L-27.3 -9.95 -30.45 -10.2 -31.9 -10.3 -39.45 -10.7 -44.75 -10.6 -45.65 -10.5 -47.6 -10.7 -47.65 -10.7 -48.4 -10.75 -51.75 -10.95 Q-53.75 -10.95 -54.95 -9.8 L-55.55 -9.05 -56.2 -7.55 -56.5 -5.6 -56.45 -3.4 -56.4 -3.1 -55.75 -1.75 -54.0 0.8 -52.85 1.95 -50.05 4.3 Q-46.2 6.5 -44.65 7.45 L-44.55 7.4 -44.2 7.7 -44.15 7.65 -43.75 8.0 -42.85 8.5 -42.35 8.85 -41.95 9.1 -41.5 9.3 -40.05 9.8 -39.55 9.85 -39.45 9.85 -39.15 9.9 -38.5 10.1 -38.2 10.1 -38.15 10.2 -37.75 10.3 -36.4 10.35 -35.4 10.45 -28.35 10.65 -28.1 10.95 M-56.6 -3.95 L-56.6 -4.25 -56.65 -4.8 -56.65 -4.35 -56.6 -3.95 M-30.5 -7.0 L-30.55 -6.35 Q-30.55 -4.5 -29.4 -3.5 -28.4 -2.6 -26.8 -2.6 -24.75 -2.6 -23.7 -3.8 -22.9 -4.7 -22.9 -5.65 L-23.05 -6.8 Q-23.3 -7.65 -23.85 -8.3 -25.2 -9.95 -27.7 -9.45 L-28.15 -9.55 Q-28.7 -9.55 -29.35 -9.0 L-30.2 -8.05 -30.5 -7.0 M-23.65 -6.85 L-23.55 -5.75 Q-23.55 -4.95 -24.2 -4.15 -25.1 -3.1 -26.8 -3.1 -28.55 -3.1 -29.45 -4.6 -30.0 -5.55 -30.0 -6.3 L-29.9 -6.95 -29.55 -7.9 Q-28.8 -9.1 -26.95 -9.1 -24.15 -9.1 -23.65 -6.85 M-23.95 -6.85 L-24.5 -7.8 Q-25.55 -9.1 -27.5 -8.7 L-27.85 -8.8 -28.8 -8.35 -29.45 -7.6 -29.7 -6.95 -29.75 -6.3 Q-29.75 -4.85 -28.85 -4.05 -28.05 -3.35 -26.8 -3.35 -25.2 -3.35 -24.35 -4.3 -23.75 -5.0 -23.75 -5.75 L-23.95 -6.85 M-27.9 -6.9 Q-27.55 -7.3 -26.75 -7.3 -26.05 -7.3 -25.7 -6.9 -25.45 -6.55 -25.45 -5.85 L-25.7 -5.2 Q-26.05 -4.8 -26.65 -4.8 -27.45 -4.8 -27.9 -5.4 L-28.2 -6.05 -27.9 -6.9 M-27.25 -7.05 L-27.6 -6.9 -27.8 -6.65 -28.0 -6.05 -27.65 -5.45 Q-27.25 -5.05 -26.65 -5.05 -25.65 -5.05 -25.65 -5.85 L-25.85 -6.65 -26.2 -6.9 -27.25 -7.05 M-14.9 -6.65 L-14.65 -7.3 Q-13.95 -8.55 -12.1 -8.7 -9.2 -8.9 -8.6 -6.5 L-8.5 -5.6 Q-8.45 -4.8 -9.05 -3.95 -9.85 -2.8 -11.55 -2.7 -13.3 -2.6 -14.3 -4.0 -14.9 -4.9 -15.0 -5.65 L-14.9 -6.65 M-8.0 -6.5 Q-8.3 -7.4 -8.95 -8.1 -10.45 -9.6 -12.9 -9.0 L-13.35 -9.0 Q-13.9 -8.95 -14.5 -8.4 L-15.3 -7.4 -15.5 -6.65 -15.55 -5.7 Q-15.4 -3.85 -14.2 -2.9 -13.1 -2.1 -11.5 -2.2 -9.45 -2.35 -8.5 -3.6 -7.75 -4.55 -7.85 -5.5 L-8.0 -6.5 M-8.9 -6.5 L-9.6 -7.55 Q-10.7 -8.8 -12.65 -8.25 L-13.0 -8.35 -13.9 -7.8 -14.5 -7.0 -14.65 -6.65 -14.75 -5.7 Q-14.6 -4.25 -13.65 -3.5 -12.8 -2.85 -11.55 -2.95 -9.95 -3.05 -9.2 -4.05 -8.65 -4.8 -8.7 -5.55 L-8.9 -6.5 M-12.75 -6.6 L-11.8 -6.9 Q-11.1 -6.95 -10.75 -6.55 -10.45 -6.2 -10.4 -5.55 -10.35 -5.25 -10.6 -4.9 -10.9 -4.45 -11.5 -4.4 -12.3 -4.35 -12.8 -4.9 L-13.15 -5.55 Q-13.2 -6.25 -12.75 -6.6 M-12.3 -6.6 L-12.8 -6.2 -12.95 -5.55 Q-12.95 -5.3 -12.55 -5.0 -12.15 -4.6 -11.55 -4.65 -10.55 -4.75 -10.6 -5.55 -10.65 -6.1 -10.85 -6.3 L-11.45 -6.55 -12.3 -6.6 M6.7 -6.2 Q6.45 -7.05 5.8 -7.75 4.3 -9.25 1.85 -8.65 L1.4 -8.65 Q0.85 -8.6 0.25 -8.05 L-0.55 -7.05 -0.75 -6.35 -0.8 -5.35 Q-0.65 -3.5 0.55 -2.55 1.65 -1.75 3.25 -1.85 5.3 -2.0 6.25 -3.25 7.0 -4.2 6.9 -5.15 L6.7 -6.2 M-0.15 -6.3 L0.1 -6.95 Q0.8 -8.2 2.65 -8.35 5.5 -8.55 6.1 -6.2 L6.25 -5.25 Q6.3 -4.45 5.7 -3.6 4.9 -2.45 3.2 -2.35 1.45 -2.25 0.45 -3.65 L-0.25 -5.3 -0.15 -6.3 M36.6 -5.6 L36.75 -4.55 Q36.8 -3.7 36.15 -2.75 35.25 -1.6 33.45 -1.45 31.5 -1.3 30.4 -2.9 29.75 -3.85 29.7 -4.65 L29.8 -5.7 30.05 -6.45 Q30.45 -7.25 31.25 -7.65 L32.55 -8.0 30.9 -7.95 31.1 -8.0 31.35 -8.0 32.35 -8.1 32.65 -8.1 32.7 -8.15 34.65 -7.8 Q36.15 -7.35 36.6 -5.6 M5.85 -6.2 L5.15 -7.2 Q4.05 -8.45 2.1 -7.9 L1.75 -8.0 0.85 -7.45 Q0.35 -7.05 0.25 -6.65 L0.1 -6.3 0.0 -5.35 Q0.15 -3.9 1.1 -3.15 1.95 -2.5 3.2 -2.6 4.8 -2.7 5.55 -3.7 6.1 -4.45 6.05 -5.2 L5.85 -6.2 M2.1 -6.3 L2.95 -6.55 Q3.6 -6.6 3.95 -6.25 L4.35 -5.2 4.15 -4.55 Q3.85 -4.1 3.25 -4.05 2.45 -4.0 1.95 -4.55 L1.6 -5.2 Q1.55 -5.95 2.1 -6.3 M4.15 -5.2 L3.9 -5.95 Q3.5 -6.35 2.45 -6.25 L1.95 -5.85 1.8 -5.2 Q1.8 -4.95 2.2 -4.65 2.6 -4.25 3.2 -4.3 4.2 -4.4 4.15 -5.2 M20.8 -5.9 Q20.6 -6.8 19.95 -7.5 18.7 -8.8 16.55 -8.2 L16.2 -8.3 Q15.7 -8.25 15.2 -7.7 14.65 -7.3 14.55 -6.85 L14.35 -6.0 14.35 -5.4 Q14.45 -3.85 15.45 -3.05 16.35 -2.3 17.75 -2.4 19.5 -2.55 20.3 -3.65 20.95 -4.45 20.9 -5.25 L20.8 -5.9 M14.85 -6.0 L15.1 -6.8 Q15.65 -7.85 17.25 -7.95 19.8 -8.15 20.3 -5.9 L20.35 -5.3 Q20.4 -4.6 19.9 -3.9 19.2 -2.95 17.75 -2.85 16.25 -2.75 15.35 -3.95 14.85 -4.75 14.8 -5.35 L14.85 -6.0 M20.1 -5.9 L19.4 -7.0 Q18.45 -8.05 16.8 -7.55 L16.5 -7.65 Q16.1 -7.6 15.65 -7.2 L15.15 -6.55 15.0 -6.0 15.0 -5.4 Q15.1 -4.2 15.95 -3.55 16.6 -3.0 17.7 -3.05 19.05 -3.15 19.7 -4.0 20.25 -4.65 20.2 -5.3 L20.1 -5.9 M16.55 -6.0 Q16.85 -6.35 17.5 -6.4 18.25 -6.45 18.55 -5.95 L18.7 -5.3 18.5 -4.7 Q18.25 -4.35 17.75 -4.3 17.05 -4.25 16.65 -4.75 L16.35 -5.25 16.55 -6.0 M18.35 -5.9 L18.3 -5.95 17.1 -6.2 16.75 -6.0 16.65 -5.8 16.5 -5.3 16.85 -4.8 Q17.2 -4.5 17.7 -4.5 18.55 -4.6 18.5 -5.3 L18.35 -5.9 M28.6 -8.0 L28.6 -8.2 29.15 -8.25 28.65 -8.0 28.6 -8.0 M36.35 -5.6 L35.6 -6.8 Q34.35 -8.1 32.2 -7.5 L31.85 -7.6 Q31.35 -7.55 30.85 -7.0 L30.2 -6.15 30.05 -5.7 Q29.95 -5.3 30.0 -4.7 30.1 -3.15 31.1 -2.35 32.0 -1.6 33.4 -1.7 35.15 -1.85 35.95 -2.95 36.6 -3.75 36.55 -4.55 L36.35 -5.6 M30.6 -5.7 L30.75 -6.1 Q31.3 -7.15 32.9 -7.25 35.25 -7.4 35.85 -5.6 L36.0 -4.6 Q36.05 -3.9 35.55 -3.2 34.85 -2.25 33.4 -2.15 31.9 -2.05 31.0 -3.25 30.5 -4.05 30.45 -4.65 L30.6 -5.7 M35.55 -5.6 L35.05 -6.3 Q34.1 -7.35 32.45 -6.85 L32.15 -6.95 31.3 -6.5 30.8 -5.85 30.75 -5.7 30.65 -4.7 Q30.75 -3.5 31.6 -2.85 32.25 -2.3 33.35 -2.35 34.7 -2.45 35.35 -3.3 35.9 -3.95 35.85 -4.6 L35.55 -5.6 M32.95 -5.65 L33.15 -5.7 33.75 -5.65 Q34.3 -5.45 34.35 -4.6 L34.15 -4.0 33.4 -3.6 Q32.7 -3.55 32.3 -4.05 L32.0 -4.55 Q31.95 -5.5 32.95 -5.65 M34.0 -5.2 Q33.65 -5.55 32.75 -5.5 L32.3 -5.1 32.15 -4.6 32.5 -4.1 Q32.85 -3.8 33.35 -3.8 34.2 -3.9 34.15 -4.6 L34.0 -5.2 M6.4 10.6 L7.2 10.65 6.1 10.6 6.4 10.6" fill="#000000" fill-rule="evenodd" stroke="none"/>
      <path d="M-47.65 -10.7 L-47.6 -10.7 -47.65 -10.65 -47.65 -10.7 M-17.15 -9.85 L-16.3 -9.8 -17.2 -9.75 -17.15 -9.85 M49.1 -8.95 L49.05 -9.05 49.1 -9.05 49.1 -8.95" fill="#1c211b" fill-rule="evenodd" stroke="none"/>
      <path d="M-29.7 -6.95 L-27.9 -6.9 -28.2 -6.05 -27.9 -5.4 Q-27.45 -4.8 -26.65 -4.8 -26.05 -4.8 -25.7 -5.2 L-25.45 -5.85 Q-25.45 -6.55 -25.7 -6.9 L-23.95 -6.85 -23.75 -5.75 Q-23.75 -5.0 -24.35 -4.3 -25.2 -3.35 -26.8 -3.35 -28.05 -3.35 -28.85 -4.05 -29.75 -4.85 -29.75 -6.3 L-29.7 -6.95 M-14.65 -6.65 L-12.75 -6.6 Q-13.2 -6.25 -13.15 -5.55 L-12.8 -4.9 Q-12.3 -4.35 -11.5 -4.4 -10.9 -4.45 -10.6 -4.9 -10.35 -5.25 -10.4 -5.55 -10.45 -6.2 -10.75 -6.55 L-8.9 -6.5 -8.7 -5.55 Q-8.65 -4.8 -9.2 -4.05 -9.95 -3.05 -11.55 -2.95 -12.8 -2.85 -13.65 -3.5 -14.6 -4.25 -14.75 -5.7 L-14.65 -6.65 M0.1 -6.3 L2.1 -6.3 Q1.55 -5.95 1.6 -5.2 L1.95 -4.55 Q2.45 -4.0 3.25 -4.05 3.85 -4.1 4.15 -4.55 L4.35 -5.2 3.95 -6.25 5.85 -6.2 6.05 -5.2 Q6.1 -4.45 5.55 -3.7 4.8 -2.7 3.2 -2.6 1.95 -2.5 1.1 -3.15 0.15 -3.9 0.0 -5.35 L0.1 -6.3 M15.0 -6.0 L16.55 -6.0 16.35 -5.25 16.65 -4.75 Q17.05 -4.25 17.75 -4.3 18.25 -4.35 18.5 -4.7 L18.7 -5.3 18.55 -5.95 20.1 -5.9 20.2 -5.3 Q20.25 -4.65 19.7 -4.0 19.05 -3.15 17.7 -3.05 16.6 -3.0 15.95 -3.55 15.1 -4.2 15.0 -5.4 L15.0 -6.0 M30.75 -5.7 L32.95 -5.65 Q31.95 -5.5 32.0 -4.55 L32.3 -4.05 Q32.7 -3.55 33.4 -3.6 L34.15 -4.0 34.35 -4.6 Q34.3 -5.45 33.75 -5.65 L35.55 -5.6 35.85 -4.6 Q35.9 -3.95 35.35 -3.3 34.7 -2.45 33.35 -2.35 32.25 -2.3 31.6 -2.85 30.75 -3.5 30.65 -4.7 L30.75 -5.7" fill="#5a4f3f" fill-rule="evenodd" stroke="none"/>
      <path d="M-23.05 -6.8 L-22.9 -5.65 Q-22.9 -4.7 -23.7 -3.8 -24.75 -2.6 -26.8 -2.6 -28.4 -2.6 -29.4 -3.5 -30.55 -4.5 -30.55 -6.35 L-30.5 -7.0 -29.9 -6.95 -30.0 -6.3 Q-30.0 -5.55 -29.45 -4.6 -28.55 -3.1 -26.8 -3.1 -25.1 -3.1 -24.2 -4.15 -23.55 -4.95 -23.55 -5.75 L-23.65 -6.85 -23.05 -6.8 M-8.6 -6.5 L-8.0 -6.5 -7.85 -5.5 Q-7.75 -4.55 -8.5 -3.6 -9.45 -2.35 -11.5 -2.2 -13.1 -2.1 -14.2 -2.9 -15.4 -3.85 -15.55 -5.7 L-15.5 -6.65 -14.9 -6.65 -15.0 -5.65 Q-14.9 -4.9 -14.3 -4.0 -13.3 -2.6 -11.55 -2.7 -9.85 -2.8 -9.05 -3.95 -8.45 -4.8 -8.5 -5.6 L-8.6 -6.5 M-0.75 -6.35 L-0.15 -6.3 -0.25 -5.3 0.45 -3.65 Q1.45 -2.25 3.2 -2.35 4.9 -2.45 5.7 -3.6 6.3 -4.45 6.25 -5.25 L6.1 -6.2 6.7 -6.2 6.9 -5.15 Q7.0 -4.2 6.25 -3.25 5.3 -2.0 3.25 -1.85 1.65 -1.75 0.55 -2.55 -0.65 -3.5 -0.8 -5.35 L-0.75 -6.35 M14.35 -6.0 L14.85 -6.0 14.8 -5.35 Q14.85 -4.75 15.35 -3.95 16.25 -2.75 17.75 -2.85 19.2 -2.95 19.9 -3.9 20.4 -4.6 20.35 -5.3 L20.3 -5.9 20.8 -5.9 20.9 -5.25 Q20.95 -4.45 20.3 -3.65 19.5 -2.55 17.75 -2.4 16.35 -2.3 15.45 -3.05 14.45 -3.85 14.35 -5.4 L14.35 -6.0 M30.05 -5.7 L30.6 -5.7 30.45 -4.65 Q30.5 -4.05 31.0 -3.25 31.9 -2.05 33.4 -2.15 34.85 -2.25 35.55 -3.2 36.05 -3.9 36.0 -4.6 L35.85 -5.6 36.35 -5.6 36.55 -4.55 Q36.6 -3.75 35.95 -2.95 35.15 -1.85 33.4 -1.7 32.0 -1.6 31.1 -2.35 30.1 -3.15 30.0 -4.7 29.95 -5.3 30.05 -5.7" fill="#978668" fill-rule="evenodd" stroke="none"/>
      <path d="M-27.25 -7.05 L-26.2 -6.9 -25.85 -6.65 -25.65 -5.85 Q-25.65 -5.05 -26.65 -5.05 -27.25 -5.05 -27.65 -5.45 L-28.0 -6.05 -27.8 -6.65 -27.6 -6.9 -27.25 -7.05 M-12.3 -6.6 L-11.45 -6.55 -10.85 -6.3 Q-10.65 -6.1 -10.6 -5.55 -10.55 -4.75 -11.55 -4.65 -12.15 -4.6 -12.55 -5.0 -12.95 -5.3 -12.95 -5.55 L-12.8 -6.2 -12.3 -6.6 M4.15 -5.2 Q4.2 -4.4 3.2 -4.3 2.6 -4.25 2.2 -4.65 1.8 -4.95 1.8 -5.2 L1.95 -5.85 2.45 -6.25 Q3.5 -6.35 3.9 -5.95 L4.15 -5.2 M18.35 -5.9 L18.5 -5.3 Q18.55 -4.6 17.7 -4.5 17.2 -4.5 16.85 -4.8 L16.5 -5.3 16.65 -5.8 16.75 -6.0 17.1 -6.2 18.3 -5.95 18.35 -5.9 M34.0 -5.2 L34.15 -4.6 Q34.2 -3.9 33.35 -3.8 32.85 -3.8 32.5 -4.1 L32.15 -4.6 32.3 -5.1 32.75 -5.5 Q33.65 -5.55 34.0 -5.2" fill="#373026" fill-rule="evenodd" stroke="none"/>
      <path d="M50.85 1.35 L50.95 1.4 50.95 1.45 50.85 1.35 M37.1 9.9 L37.15 10.05 37.15 10.1 37.1 10.05 37.1 9.9" fill="#465544" fill-rule="evenodd" stroke="none"/>
      <path d="M-56.2 -7.55 L-55.55 -9.05 -54.95 -9.8 Q-53.75 -10.95 -51.75 -10.95 L-48.4 -10.75 -47.65 -10.7 -47.65 -10.65 -47.6 -10.7 -45.65 -10.5 -44.75 -10.6 -39.45 -10.7 -31.9 -10.3 -30.45 -10.2 -27.3 -9.95 -28.8 -9.65 Q-29.75 -9.25 -30.3 -8.4 L-30.85 -7.0 -43.45 -7.25 -46.4 -9.7 -46.5 -9.9 -46.65 -9.9 -46.8 -10.0 -47.65 -10.65 -46.95 -9.85 -48.55 -9.1 Q-49.9 -8.3 -50.55 -8.3 L-50.9 -8.6 -51.2 -8.35 -51.3 -8.2 -51.4 -8.25 -51.3 -8.15 -51.4 -7.95 -51.3 -7.7 -50.9 -7.7 -50.6 -7.4 -56.2 -7.55 M-22.75 -6.8 Q-23.1 -9.0 -25.0 -9.65 L-25.7 -9.8 -22.2 -9.7 -20.15 -9.9 -17.15 -9.85 -17.2 -9.75 -17.15 -9.5 -15.7 -9.5 -12.55 -9.45 -14.0 -9.05 Q-14.95 -8.65 -15.4 -7.75 L-15.8 -6.65 -22.75 -6.8 M-7.7 -6.5 Q-8.2 -8.85 -10.2 -9.35 L-10.9 -9.45 -7.4 -9.55 -7.05 -9.5 -3.8 -9.25 -2.4 -9.3 -2.4 -9.15 -0.95 -9.15 2.2 -9.1 0.75 -8.7 Q-0.2 -8.3 -0.65 -7.4 L-1.05 -6.35 -7.7 -6.5 M7.05 -6.2 Q6.55 -8.5 4.55 -9.0 L3.85 -9.1 5.85 -9.15 8.2 -9.05 12.95 -8.85 12.95 -8.7 14.15 -8.7 16.0 -8.65 16.65 -8.65 15.6 -8.35 Q14.8 -7.95 14.4 -7.15 L14.05 -6.0 7.05 -6.2 M21.05 -5.9 Q20.65 -8.05 18.85 -8.55 L18.35 -8.6 18.55 -8.6 19.85 -8.6 21.25 -8.75 21.75 -8.8 25.05 -9.0 28.7 -8.8 30.5 -8.65 31.1 -8.8 31.15 -8.7 31.15 -8.65 31.6 -8.65 31.6 -8.8 31.8 -8.8 32.25 -8.7 32.4 -8.7 32.7 -8.65 33.0 -8.65 33.15 -8.7 33.15 -8.75 34.35 -8.7 34.35 -8.75 34.5 -8.75 34.75 -8.7 36.65 -8.75 37.0 -8.75 39.15 -8.8 43.65 -8.7 43.2 -8.15 Q42.7 -7.5 42.7 -7.2 L42.7 -7.15 41.85 -5.95 41.6 -5.5 36.6 -5.6 Q36.15 -7.35 34.65 -7.8 L32.7 -8.15 32.65 -8.1 32.35 -8.1 31.35 -8.0 31.1 -8.0 30.9 -7.95 32.55 -8.0 31.25 -7.65 Q30.45 -7.25 30.05 -6.45 L29.8 -5.7 21.05 -5.9 M48.1 -8.65 L49.1 -8.95 49.1 -9.05 51.5 -8.55 54.55 -7.75 Q55.55 -7.4 56.15 -6.65 56.7 -5.95 56.7 -5.2 L56.7 -5.15 46.15 -5.4 47.2 -7.2 47.5 -7.65 48.1 -8.65 M28.6 -8.0 L28.65 -8.0 29.15 -8.25 28.6 -8.2 28.6 -8.0" fill="#10130f" fill-rule="evenodd" stroke="none"/>
      <path d="M-46.95 -9.85 L-47.65 -10.65 -46.8 -10.0 -46.95 -9.85" fill="#3d4639" fill-rule="evenodd" stroke="none"/>
      <path d="M-23.05 -6.8 L-23.65 -6.85 Q-24.15 -9.1 -26.95 -9.1 -28.8 -9.1 -29.55 -7.9 L-29.9 -6.95 -30.5 -7.0 -30.2 -8.05 -29.35 -9.0 Q-28.7 -9.55 -28.15 -9.55 L-27.7 -9.45 Q-25.2 -9.95 -23.85 -8.3 -23.3 -7.65 -23.05 -6.8 M-8.6 -6.5 Q-9.2 -8.9 -12.1 -8.7 -13.95 -8.55 -14.65 -7.3 L-14.9 -6.65 -15.5 -6.65 -15.3 -7.4 -14.5 -8.4 Q-13.9 -8.95 -13.35 -9.0 L-12.9 -9.0 Q-10.45 -9.6 -8.95 -8.1 -8.3 -7.4 -8.0 -6.5 L-8.6 -6.5 M-0.75 -6.35 L-0.55 -7.05 0.25 -8.05 Q0.85 -8.6 1.4 -8.65 L1.85 -8.65 Q4.3 -9.25 5.8 -7.75 6.45 -7.05 6.7 -6.2 L6.1 -6.2 Q5.5 -8.55 2.65 -8.35 0.8 -8.2 0.1 -6.95 L-0.15 -6.3 -0.75 -6.35 M14.35 -6.0 L14.55 -6.85 Q14.65 -7.3 15.2 -7.7 15.7 -8.25 16.2 -8.3 L16.55 -8.2 Q18.7 -8.8 19.95 -7.5 20.6 -6.8 20.8 -5.9 L20.3 -5.9 Q19.8 -8.15 17.25 -7.95 15.65 -7.85 15.1 -6.8 L14.85 -6.0 14.35 -6.0 M30.05 -5.7 L30.2 -6.15 30.85 -7.0 Q31.35 -7.55 31.85 -7.6 L32.2 -7.5 Q34.35 -8.1 35.6 -6.8 L36.35 -5.6 35.85 -5.6 Q35.25 -7.4 32.9 -7.25 31.3 -7.15 30.75 -6.1 L30.6 -5.7 30.05 -5.7" fill="#796953" fill-rule="evenodd" stroke="none"/>
      <path d="M-29.7 -6.95 L-29.45 -7.6 -28.8 -8.35 -27.85 -8.8 -27.5 -8.7 Q-25.55 -9.1 -24.5 -7.8 L-23.95 -6.85 -25.7 -6.9 Q-26.05 -7.3 -26.75 -7.3 -27.55 -7.3 -27.9 -6.9 L-29.7 -6.95 M-14.65 -6.65 L-14.5 -7.0 -13.9 -7.8 -13.0 -8.35 -12.65 -8.25 Q-10.7 -8.8 -9.6 -7.55 L-8.9 -6.5 -10.75 -6.55 Q-11.1 -6.95 -11.8 -6.9 L-12.75 -6.6 -14.65 -6.65 M0.1 -6.3 L0.25 -6.65 Q0.35 -7.05 0.85 -7.45 L1.75 -8.0 2.1 -7.9 Q4.05 -8.45 5.15 -7.2 L5.85 -6.2 3.95 -6.25 Q3.6 -6.6 2.95 -6.55 L2.1 -6.3 0.1 -6.3 M15.0 -6.0 L15.15 -6.55 15.65 -7.2 Q16.1 -7.6 16.5 -7.65 L16.8 -7.55 Q18.45 -8.05 19.4 -7.0 L20.1 -5.9 18.55 -5.95 Q18.25 -6.45 17.5 -6.4 16.85 -6.35 16.55 -6.0 L15.0 -6.0 M30.75 -5.7 L30.8 -5.85 31.3 -6.5 32.15 -6.95 32.45 -6.85 Q34.1 -7.35 35.05 -6.3 L35.55 -5.6 33.75 -5.65 33.15 -5.7 32.95 -5.65 30.75 -5.7" fill="#4b4234" fill-rule="evenodd" stroke="none"/>
      <path d="M-28.35 10.65 L-35.4 10.45 -36.4 10.35 -37.75 10.3 -38.15 10.2 -38.2 10.1 -38.5 10.1 -39.15 9.9 -39.45 9.85 -39.55 9.85 -40.05 9.8 -41.5 9.3 -41.95 9.1 -42.35 8.85 -42.85 8.5 -43.75 8.0 -44.15 7.65 -44.2 7.7 -44.55 7.4 -44.65 7.45 Q-46.2 6.5 -50.05 4.3 L-52.85 1.95 -54.0 0.8 -55.75 -1.75 -56.4 -3.1 -56.45 -3.4 -56.5 -5.6 -56.2 -7.55 -50.6 -7.4 Q-49.65 -6.55 -47.65 -5.4 L-42.5 -2.65 -37.1 0.6 -33.6 2.65 Q-37.3 3.75 -41.55 4.25 L-45.15 4.7 -42.95 6.7 -40.7 8.4 -40.8 8.6 -40.7 8.9 -39.65 8.9 Q-35.2 6.3 -33.0 5.75 L-32.65 5.65 Q-30.55 8.9 -30.15 8.9 -29.9 8.9 -28.9 10.05 L-28.35 10.65 M-30.85 -7.0 L-30.9 -6.35 Q-30.9 -5.4 -30.2 -4.2 -29.05 -2.3 -26.8 -2.3 -24.65 -2.3 -23.5 -3.6 -22.65 -4.65 -22.65 -5.65 L-22.75 -6.8 -15.8 -6.65 -15.9 -5.65 Q-15.8 -4.7 -15.05 -3.55 -13.75 -1.75 -11.5 -1.9 -9.35 -2.05 -8.3 -3.45 -7.5 -4.55 -7.6 -5.55 L-7.7 -6.5 -1.05 -6.35 -1.15 -5.3 Q-1.05 -4.35 -0.3 -3.2 1.0 -1.4 3.25 -1.55 5.4 -1.7 6.45 -3.1 7.25 -4.2 7.15 -5.2 L7.05 -6.2 14.05 -6.0 14.05 -5.35 Q14.1 -4.55 14.75 -3.6 15.85 -2.0 17.8 -2.15 19.6 -2.3 20.5 -3.45 21.15 -4.4 21.1 -5.25 L21.05 -5.9 29.8 -5.7 29.7 -4.65 Q29.75 -3.85 30.4 -2.9 31.5 -1.3 33.45 -1.45 35.25 -1.6 36.15 -2.75 36.8 -3.7 36.75 -4.55 L36.6 -5.6 41.6 -5.5 40.6 -3.4 39.05 -0.95 Q37.8 1.0 37.7 1.45 L30.5 2.65 22.6 4.25 9.05 6.5 8.15 6.6 Q6.85 5.55 2.5 3.6 L-3.95 0.75 -4.0 0.65 -4.2 0.65 -4.3 0.6 -4.25 0.65 -18.25 1.45 -30.05 2.2 Q-35.3 -0.35 -40.2 -4.4 L-43.45 -7.25 -30.85 -7.0 M56.7 -5.15 Q56.7 -3.55 54.1 -0.1 L52.4 0.75 50.85 1.35 47.05 0.4 Q43.6 -0.4 43.6 -0.75 L44.4 -2.55 45.35 -4.25 46.15 -5.4 56.7 -5.15" fill="#464631" fill-rule="evenodd" stroke="none"/>
      <path d="M-27.65 10.95 L-27.9 11.15 -28.1 10.95 -28.35 10.65 -28.9 10.05 Q-29.9 8.9 -30.15 8.9 -30.55 8.9 -32.65 5.65 L-33.0 5.75 Q-35.2 6.3 -39.65 8.9 L-40.7 8.9 -40.8 8.6 -40.7 8.4 -42.95 6.7 -45.15 4.7 -41.55 4.25 Q-37.3 3.75 -33.6 2.65 L-37.1 0.6 -42.5 -2.65 -47.65 -5.4 Q-49.65 -6.55 -50.6 -7.4 L-50.9 -7.7 -51.3 -7.7 -51.4 -7.95 -51.3 -8.15 -51.4 -8.25 -51.3 -8.2 -51.2 -8.35 -50.9 -8.6 -50.55 -8.3 Q-49.9 -8.3 -48.55 -9.1 L-46.95 -9.85 -46.8 -10.0 -46.65 -9.9 -46.5 -9.9 -46.4 -9.7 -43.45 -7.25 -40.2 -4.4 Q-35.3 -0.35 -30.05 2.2 L-18.25 1.45 -4.25 0.65 -4.3 0.6 -4.2 0.65 -4.0 0.65 -3.95 0.75 2.5 3.6 Q6.85 5.55 8.15 6.6 L9.05 6.5 22.6 4.25 30.5 2.65 37.7 1.45 Q37.8 1.0 39.05 -0.95 L40.6 -3.4 41.6 -5.5 41.85 -5.95 42.7 -7.15 42.7 -7.2 Q42.7 -7.5 43.2 -8.15 L43.65 -8.7 43.85 -8.85 44.05 -8.65 45.05 -8.65 47.5 -8.65 47.85 -8.95 48.1 -8.65 47.5 -7.65 47.2 -7.2 46.15 -5.4 45.35 -4.25 44.4 -2.55 43.6 -0.75 Q43.6 -0.4 47.05 0.4 L50.85 1.35 50.95 1.45 50.65 1.65 50.2 1.65 48.85 2.15 Q45.45 3.55 43.7 4.65 43.05 5.0 41.95 5.9 L41.15 6.35 40.1 7.15 39.0 8.15 37.1 9.9 37.1 10.05 36.85 10.1 36.8 10.05 34.75 10.3 33.3 10.5 32.7 10.5 30.65 10.4 27.75 10.55 27.15 10.7 17.45 10.75 16.25 10.7 15.5 10.7 -10.7 10.7 -12.8 10.7 -19.4 10.6 -19.6 10.75 -22.65 10.7 -23.75 10.8 -27.8 10.7 -27.65 10.9 -27.65 10.95 M6.4 10.6 L6.1 10.6 7.2 10.65 6.4 10.6" fill="#28281c" fill-rule="evenodd" stroke="none"/>
    </g>
    <g id="sprite2" transform="matrix(1.0, 0.0, 0.0, 1.0, 3.75, 3.85)">
      <use height="7.7" transform="matrix(1.0, 0.0, 0.0, 1.0, -3.75, -3.85)" width="7.55" xlink:href="#shape3"/>
    </g>
    <g id="shape3" transform="matrix(1.0, 0.0, 0.0, 1.0, 3.75, 3.85)">
      <path d="M2.4 -3.6 L2.4 -3.5 3.15 -2.65 3.4 -2.15 3.8 -1.4 3.8 -1.35 3.65 -1.3 2.7 -0.75 3.7 0.5 Q3.7 0.9 2.85 0.9 L2.2 0.45 1.85 -0.05 0.55 1.15 0.35 1.5 0.95 1.8 1.45 2.45 0.8 3.25 0.0 2.9 -0.5 2.6 -1.2 3.6 -1.05 3.65 -1.05 3.85 -1.3 3.75 -1.4 3.85 -1.65 3.65 -1.65 3.6 -2.75 3.2 Q-3.75 2.8 -3.75 2.4 -3.75 1.85 -3.05 0.9 L-3.15 0.65 -3.25 0.2 Q-3.25 -0.85 -2.2 -0.85 L-1.7 -0.8 -1.25 -1.3 -0.7 -1.85 -0.95 -2.75 -0.75 -3.1 Q-0.5 -3.4 -0.05 -3.4 L0.5 -3.3 0.65 -3.1 1.95 -3.85 2.4 -3.6 M2.25 -3.4 L1.85 -3.6 Q1.45 -3.6 0.7 -3.0 L0.75 -2.95 0.6 -2.9 0.55 -2.9 -0.15 -2.25 -0.5 -1.85 -0.55 -1.8 -1.55 -0.75 -1.6 -0.7 -1.6 -0.5 -1.75 -0.5 -2.7 0.65 -2.85 0.9 -2.8 1.05 -2.95 1.0 Q-3.55 1.9 -3.55 2.4 -3.55 2.65 -1.5 3.45 L-0.65 2.55 -0.6 2.5 -0.6 2.4 -0.5 2.35 0.05 1.5 0.05 1.45 0.1 1.45 0.3 1.1 Q1.0 0.0 2.4 -0.8 L2.35 -0.85 2.35 -1.0 2.5 -1.0 2.6 -0.9 3.55 -1.4 3.4 -1.65 2.3 -3.4 2.25 -3.4 M-0.45 -2.1 L0.45 -2.95 0.4 -3.0 -0.05 -3.15 -0.5 -3.0 -0.75 -2.7 -0.5 -2.1 -0.5 -2.05 -0.45 -2.1 M2.3 0.15 L2.95 0.65 3.45 0.5 2.95 -0.2 2.6 -0.65 2.0 -0.2 2.3 0.15 M0.65 2.1 L0.15 1.75 -0.35 2.4 0.75 3.05 1.15 2.45 0.65 2.1 M-2.25 -0.6 Q-2.75 -0.6 -2.95 -0.2 L-3.05 0.2 -2.95 0.7 -1.9 -0.55 -2.25 -0.6" fill="#000000" fill-rule="evenodd" stroke="none"/>
      <path d="M2.25 -3.4 L2.3 -3.4 3.4 -1.65 3.55 -1.4 2.6 -0.9 2.5 -1.0 2.35 -1.0 2.35 -0.85 2.4 -0.8 Q1.0 0.0 0.3 1.1 L0.1 1.45 0.05 1.45 0.05 1.5 -0.5 2.35 -0.6 2.4 -0.6 2.5 -0.65 2.55 -1.5 3.45 Q-3.55 2.65 -3.55 2.4 -3.55 1.9 -2.95 1.0 L-2.8 1.05 -2.85 0.9 -2.7 0.65 -1.75 -0.5 -1.6 -0.5 -1.6 -0.7 -1.55 -0.75 -0.55 -1.8 -0.5 -1.85 -0.15 -2.25 0.55 -2.9 0.6 -2.9 0.75 -2.95 0.7 -3.0 Q1.45 -3.6 1.85 -3.6 L2.25 -3.4 M2.55 -2.4 L2.35 -2.8 2.0 -3.05 0.9 -2.4 0.95 -2.5 -1.25 -0.65 -2.4 0.7 -2.35 0.8 -2.05 0.55 -2.4 1.1 -2.9 2.2 -2.7 2.45 -2.3 2.7 -2.05 2.65 -2.2 2.15 -2.5 2.1 -2.45 2.05 -2.1 1.05 -1.6 0.15 -0.5 -0.75 0.1 -1.3 1.0 -2.1 1.85 -2.65 2.55 -2.4 M2.5 -1.5 L2.65 -1.4 2.75 -1.45 2.75 -1.8 2.7 -1.95 2.3 -1.8 2.3 -2.05 Q1.65 -2.15 1.05 -1.55 L0.6 -0.85 0.25 -0.25 -0.15 0.5 -0.6 1.2 -0.55 1.35 -0.45 1.35 Q-0.05 0.35 1.15 -0.65 L1.5 -0.95 Q1.75 -0.95 2.5 -1.5" fill="#655546" fill-rule="evenodd" stroke="none"/>
      <path d="M2.5 -1.5 Q1.75 -0.95 1.5 -0.95 L1.15 -0.65 Q-0.05 0.35 -0.45 1.35 L-0.55 1.35 -0.6 1.2 -0.15 0.5 0.25 -0.25 0.6 -0.85 1.05 -1.55 Q1.65 -2.15 2.3 -2.05 L2.3 -1.8 2.7 -1.95 2.75 -1.8 2.75 -1.45 2.65 -1.4 2.5 -1.5 M2.55 -2.4 L1.85 -2.65 1.0 -2.1 0.1 -1.3 -0.5 -0.75 -1.6 0.15 -2.1 1.05 -2.45 2.05 -2.5 2.1 -2.2 2.15 -2.05 2.65 -2.3 2.7 -2.7 2.45 -2.9 2.2 -2.4 1.1 -2.05 0.55 -2.35 0.8 -2.4 0.7 -1.25 -0.65 0.95 -2.5 0.9 -2.4 2.0 -3.05 2.35 -2.8 2.55 -2.4" fill="#332117" fill-rule="evenodd" stroke="none"/>
      <path d="M-0.5 -2.1 L-0.75 -2.7 -0.5 -3.0 -0.05 -3.15 0.4 -3.0 0.45 -2.95 -0.45 -2.1 -0.5 -2.1 M-2.25 -0.6 L-1.9 -0.55 -2.95 0.7 -3.05 0.2 -2.95 -0.2 Q-2.75 -0.6 -2.25 -0.6 M0.65 2.1 L1.15 2.45 0.75 3.05 -0.35 2.4 0.15 1.75 0.65 2.1 M2.3 0.15 L2.0 -0.2 2.6 -0.65 2.95 -0.2 3.45 0.5 2.95 0.65 2.3 0.15" fill="#42322d" fill-rule="evenodd" stroke="none"/>
    </g>
    <g id="sprite3" transform="matrix(1.0, 0.0, 0.0, 1.0, 6.05, 6.1)">
      <use height="12.2" transform="matrix(1.0, 0.0, 0.0, 1.0, -6.05, -6.1)" width="12.15" xlink:href="#shape4"/>
    </g>
    <g id="shape4" transform="matrix(1.0, 0.0, 0.0, 1.0, 6.05, 6.1)">
      <path d="M-0.6 -5.15 Q-2.05 -5.15 -3.7 -3.3 -5.1 -1.75 -5.1 -1.3 -5.1 0.4 -4.35 2.15 -3.1 5.05 -0.4 5.05 2.0 5.05 3.65 3.3 4.95 1.9 4.95 0.65 L4.6 -1.1 3.85 -2.55 1.75 -4.1 Q0.1 -5.15 -0.6 -5.15 M-5.85 -0.05 Q-5.85 -1.95 -4.45 -3.75 -2.75 -6.1 0.05 -5.75 2.75 -5.45 4.45 -3.6 5.9 -1.95 5.9 -0.1 5.9 1.45 4.7 3.3 3.0 5.9 0.0 5.9 -1.95 5.9 -3.3 4.9 -4.2 4.2 -4.5 3.5 L-5.45 1.6 Q-5.85 0.8 -5.85 -0.05" fill="#969d84" fill-rule="evenodd" stroke="none"/>
      <path d="M4.1 2.35 L4.25 2.45 4.3 2.1 4.75 0.65 Q4.75 -0.75 3.85 -1.9 L3.4 -2.45 3.45 -2.5 3.45 -2.65 2.75 -3.05 1.1 -4.25 Q-0.85 -5.55 -2.95 -3.85 -4.8 -2.3 -4.8 -0.9 L-4.75 -0.3 -4.8 -0.2 -4.8 0.6 -4.65 0.6 -4.65 0.45 -4.0 2.3 Q-2.8 4.8 -0.35 4.8 1.9 4.8 3.5 3.1 L4.1 2.35 M-0.6 -5.15 Q0.1 -5.15 1.75 -4.1 L3.85 -2.55 4.6 -1.1 4.95 0.65 Q4.95 1.9 3.65 3.3 2.0 5.05 -0.4 5.05 -3.1 5.05 -4.35 2.15 -5.1 0.4 -5.1 -1.3 -5.1 -1.75 -3.7 -3.3 -2.05 -5.15 -0.6 -5.15 M-0.8 -6.1 Q2.7 -6.1 4.7 -3.5 6.1 -1.7 6.1 -0.1 6.1 1.6 4.85 3.5 3.1 6.1 0.0 6.1 -2.65 6.1 -4.45 4.0 -6.05 2.15 -6.05 -0.05 -6.05 -2.2 -4.45 -4.1 -2.8 -6.1 -0.8 -6.1 M-2.2 0.25 L-1.85 -0.95 Q-1.35 -1.9 -0.35 -1.9 1.1 -1.9 1.75 0.5 L1.6 1.1 1.35 1.1 1.1 1.6 1.05 1.7 0.45 2.0 0.2 2.0 Q-1.05 2.0 -1.55 1.35 L-2.1 0.75 -2.1 0.7 -2.1 0.25 -2.15 0.2 -2.2 0.25 M-5.85 -0.05 Q-5.85 0.8 -5.45 1.6 L-4.5 3.5 Q-4.2 4.2 -3.3 4.9 -1.95 5.9 0.0 5.9 3.0 5.9 4.7 3.3 5.9 1.45 5.9 -0.1 5.9 -1.95 4.45 -3.6 2.75 -5.45 0.05 -5.75 -2.75 -6.1 -4.45 -3.75 -5.85 -1.95 -5.85 -0.05 M1.5 0.5 Q1.5 -1.2 -0.25 -1.5 -2.0 -1.75 -2.0 0.25 L-1.55 1.2 Q-0.9 1.85 0.35 1.85 L1.2 1.25 1.5 0.5" fill="#000000" fill-rule="evenodd" stroke="none"/>
      <path d="M4.1 2.35 L3.5 3.1 Q1.9 4.8 -0.35 4.8 -2.8 4.8 -4.0 2.3 L-4.65 0.45 Q-4.65 -0.6 -4.15 -1.55 -3.1 -3.5 0.15 -3.5 L2.35 -2.85 3.6 -1.1 4.15 1.25 4.05 2.25 4.1 2.35 M1.6 1.1 L1.75 0.5 Q1.1 -1.9 -0.35 -1.9 -1.35 -1.9 -1.85 -0.95 L-2.2 0.25 -2.35 0.45 -2.35 0.65 Q-2.35 1.5 -1.7 1.9 L-1.4 2.1 -0.1 2.3 0.5 2.25 1.2 1.9 1.65 1.2 1.6 1.1 M-2.1 0.7 L-2.1 0.75 -2.1 0.7" fill="#5c644f" fill-rule="evenodd" stroke="none"/>
      <path d="M1.5 0.5 L1.2 1.25 0.35 1.85 Q-0.9 1.85 -1.55 1.2 L-2.0 0.25 Q-2.0 -1.75 -0.25 -1.5 1.5 -1.2 1.5 0.5" fill="url(#gradient0)" fill-rule="evenodd" stroke="none"/>
      <path d="M-4.65 0.45 L-4.65 0.6 -4.8 0.6 -4.8 -0.2 -4.75 -0.3 -4.8 -0.9 Q-4.8 -2.3 -2.95 -3.85 -0.85 -5.55 1.1 -4.25 L2.75 -3.05 3.45 -2.65 3.45 -2.5 3.4 -2.45 3.85 -1.9 Q4.75 -0.75 4.75 0.65 L4.3 2.1 4.25 2.45 4.1 2.35 4.05 2.25 4.15 1.25 3.6 -1.1 2.35 -2.85 0.15 -3.5 Q-3.1 -3.5 -4.15 -1.55 -4.65 -0.6 -4.65 0.45 M-2.2 0.25 L-2.15 0.2 -2.1 0.25 -2.1 0.7 -2.1 0.75 -1.55 1.35 Q-1.05 2.0 0.2 2.0 L0.45 2.0 1.05 1.7 1.1 1.6 1.35 1.1 1.6 1.1 1.65 1.2 1.2 1.9 0.5 2.25 -0.1 2.3 -1.4 2.1 -1.7 1.9 Q-2.35 1.5 -2.35 0.65 L-2.35 0.45 -2.2 0.25" fill="#434738" fill-rule="evenodd" stroke="none"/>
    </g>
    <radialGradient cx="0" cy="0" gradientTransform="matrix(0.0037, 0.0, 0.0, 0.0037, -0.7, -0.45)" gradientUnits="userSpaceOnUse" id="gradient0" r="819.2" spreadMethod="pad">
      <stop offset="0.0" stop-color="#d6d9d0"/>
      <stop offset="0.6" stop-color="#575f4b"/>
      <stop offset="0.9725490196078431" stop-color="#1c1d16"/>
    </radialGradient>
    <g id="sprite4" transform="matrix(1.0, 0.0, 0.0, 1.0, 8.95, 8.45)">
      <use height="17.35" transform="matrix(1.0, 0.0, 0.0, 1.0, -8.95, -8.45)" width="17.4" xlink:href="#shape5"/>
    </g>
    <g id="shape5" transform="matrix(1.0, 0.0, 0.0, 1.0, 8.95, 8.45)">
      <path d="M3.75 -4.25 L4.45 -3.6 4.9 -3.05 4.85 -2.85 5.0 -2.85 5.05 -2.85 Q5.9 -1.55 5.9 -0.1 5.9 1.45 4.7 3.3 3.0 5.9 0.0 5.9 -1.95 5.9 -3.3 4.9 -4.2 4.2 -4.5 3.5 L-5.45 1.6 -5.7 1.0 -5.7 0.95 -5.85 -0.05 Q-5.85 -1.75 -4.75 -3.35 L-4.45 -3.75 Q-2.75 -6.1 0.05 -5.75 2.2 -5.5 3.75 -4.25 M3.95 -4.3 L4.8 -5.15 5.55 -5.8 6.2 -5.35 Q5.2 -3.85 4.95 -3.15 L4.7 -3.5 3.95 -4.3 M4.6 -1.1 L3.85 -2.55 1.75 -4.1 Q0.1 -5.15 -0.6 -5.15 -2.05 -5.15 -3.7 -3.3 -5.1 -1.75 -5.1 -1.3 -5.1 0.4 -4.35 2.15 -3.1 5.05 -0.4 5.05 2.0 5.05 3.65 3.3 4.95 1.9 4.95 0.65 L4.6 -1.1 M6.85 4.95 L6.4 5.5 5.5 4.95 Q4.95 4.55 4.1 4.45 L4.85 3.5 5.05 3.25 5.75 4.0 6.85 4.95 M0.55 -8.1 Q0.55 -6.9 0.8 -5.95 L-0.7 -6.1 -0.4 -8.15 0.55 -8.1 M6.1 -0.55 Q6.3 -0.4 6.8 -0.35 L8.2 -0.3 Q8.05 0.0 8.05 0.5 L6.6 0.55 6.05 0.75 6.1 -0.1 6.1 -0.55 M-6.6 -5.7 L-6.25 -6.05 -5.9 -6.4 Q-5.65 -6.0 -4.95 -5.6 L-3.6 -4.95 -4.45 -4.1 -4.85 -3.55 Q-5.95 -5.2 -6.6 -5.7 M-5.9 -1.3 L-6.05 -0.05 -6.0 0.85 Q-7.5 0.15 -8.7 0.2 L-8.75 -0.35 -7.35 -0.75 Q-6.25 -1.0 -5.9 -1.3 M0.0 6.1 L1.05 6.05 0.65 7.15 0.25 8.6 -0.4 8.65 -0.85 6.05 0.0 6.1 M-3.05 5.25 L-4.8 6.1 -5.55 6.7 -6.45 6.1 -5.45 4.7 -4.8 3.6 -4.45 4.0 -3.05 5.25" fill="#969d84" fill-rule="evenodd" stroke="none"/>
      <path d="M0.75 -7.95 L1.05 -5.9 Q2.6 -5.55 3.75 -4.5 L5.55 -6.1 5.95 -5.85 6.55 -5.45 5.1 -2.95 6.0 -0.95 8.45 -0.35 Q8.3 0.1 8.3 0.5 L8.3 0.65 8.1 0.7 8.1 0.65 6.0 0.95 5.15 3.1 5.9 3.65 7.15 5.05 6.6 5.55 6.5 5.7 6.5 5.8 6.35 5.85 6.1 6.0 6.05 5.85 6.15 5.75 5.5 5.3 Q4.7 4.75 3.9 4.65 2.75 5.7 1.25 6.0 L0.9 7.25 0.55 8.5 0.6 8.65 0.5 8.8 0.5 8.85 0.4 8.9 0.3 8.85 -0.6 8.85 Q-0.6 7.1 -1.1 6.2 L-1.1 6.0 -2.9 5.35 -5.35 6.9 -5.35 6.95 -5.45 7.0 -5.5 7.0 -5.55 7.0 -5.65 7.0 -5.7 6.85 -6.6 6.15 -6.65 6.15 -6.6 6.15 -6.75 5.95 -6.55 6.05 -4.85 3.5 Q-5.7 2.35 -5.95 1.1 L-6.9 0.75 -8.4 0.4 -8.9 0.5 -8.95 -0.05 Q-8.95 -0.7 -8.3 -0.85 L-5.85 -1.55 -4.95 -3.4 -6.8 -5.7 -6.8 -5.75 -6.0 -6.55 -6.0 -6.6 -5.85 -6.7 -5.8 -6.75 -5.75 -6.65 -5.75 -6.6 Q-4.25 -5.5 -3.4 -5.15 -2.25 -6.05 -1.0 -6.1 L-1.0 -6.2 Q-0.7 -6.85 -0.55 -8.45 L-0.35 -8.45 0.75 -8.35 0.75 -7.95 M3.95 -4.3 L4.7 -3.5 4.95 -3.15 Q5.2 -3.85 6.2 -5.35 L5.55 -5.8 4.8 -5.15 3.95 -4.3 M3.75 -4.25 Q2.2 -5.5 0.05 -5.75 -2.75 -6.1 -4.45 -3.75 L-4.75 -3.35 Q-5.85 -1.75 -5.85 -0.05 L-5.7 0.95 -5.7 1.0 -5.45 1.6 -4.5 3.5 Q-4.2 4.2 -3.3 4.9 -1.95 5.9 0.0 5.9 3.0 5.9 4.7 3.3 5.9 1.45 5.9 -0.1 5.9 -1.55 5.05 -2.85 L5.0 -2.85 4.85 -2.85 4.9 -3.05 4.45 -3.6 3.75 -4.25 M4.6 -1.1 L4.95 0.65 Q4.95 1.9 3.65 3.3 2.0 5.05 -0.4 5.05 -3.1 5.05 -4.35 2.15 -5.1 0.4 -5.1 -1.3 -5.1 -1.75 -3.7 -3.3 -2.05 -5.15 -0.6 -5.15 0.1 -5.15 1.75 -4.1 L3.85 -2.55 4.6 -1.1 M3.85 -1.9 L3.4 -2.45 3.45 -2.5 3.45 -2.65 2.75 -3.05 1.1 -4.25 Q-0.85 -5.55 -2.95 -3.85 -4.8 -2.3 -4.8 -0.9 L-4.75 -0.3 -4.8 -0.2 -4.8 0.6 -4.65 0.6 -4.65 0.45 -4.0 2.3 Q-2.8 4.8 -0.35 4.8 1.9 4.8 3.5 3.1 L4.1 2.35 4.25 2.45 4.3 2.1 4.75 0.65 Q4.75 -0.75 3.85 -1.9 M6.1 -0.55 L6.1 -0.1 6.05 0.75 6.6 0.55 8.05 0.5 Q8.05 0.0 8.2 -0.3 L6.8 -0.35 Q6.3 -0.4 6.1 -0.55 M0.55 -8.1 L-0.4 -8.15 -0.7 -6.1 0.8 -5.95 Q0.55 -6.9 0.55 -8.1 M6.85 4.95 L5.75 4.0 5.05 3.25 4.85 3.5 4.1 4.45 Q4.95 4.55 5.5 4.95 L6.4 5.5 6.85 4.95 M-2.2 0.25 L-1.85 -0.95 Q-1.35 -1.9 -0.35 -1.9 1.1 -1.9 1.75 0.5 L1.6 1.1 1.35 1.1 1.1 1.6 1.05 1.7 0.45 2.0 0.2 2.0 Q-1.05 2.0 -1.55 1.35 L-2.1 0.75 -2.1 0.7 -2.1 0.25 -2.15 0.2 -2.2 0.25 M1.5 0.5 Q1.5 -1.2 -0.25 -1.5 -2.0 -1.75 -2.0 0.25 L-1.55 1.2 Q-0.9 1.85 0.35 1.85 L1.2 1.25 1.5 0.5 M0.0 6.1 L-0.85 6.05 -0.4 8.65 0.25 8.6 0.65 7.15 1.05 6.05 0.0 6.1 M-5.9 -1.3 Q-6.25 -1.0 -7.35 -0.75 L-8.75 -0.35 -8.7 0.2 Q-7.5 0.15 -6.0 0.85 L-6.05 -0.05 -5.9 -1.3 M-6.6 -5.7 Q-5.95 -5.2 -4.85 -3.55 L-4.45 -4.1 -3.6 -4.95 -4.95 -5.6 Q-5.65 -6.0 -5.9 -6.4 L-6.25 -6.05 -6.6 -5.7 M-3.05 5.25 L-4.45 4.0 -4.8 3.6 -5.45 4.7 -6.45 6.1 -5.55 6.7 -4.8 6.1 -3.05 5.25" fill="#000000" fill-rule="evenodd" stroke="none"/>
      <path d="M0.15 -3.5 L1.15 -3.25 2.65 -1.55 3.9 0.45 Q3.9 1.25 2.85 2.25 1.35 3.6 -1.15 3.6 -2.25 3.6 -3.15 1.65 L-3.8 -0.6 -3.45 -2.4 Q-2.25 -3.5 0.15 -3.5 M1.6 1.1 L1.75 0.5 Q1.1 -1.9 -0.35 -1.9 -1.35 -1.9 -1.85 -0.95 L-2.2 0.25 -2.35 0.45 -2.35 0.65 Q-2.35 1.5 -1.7 1.9 L-1.4 2.1 -0.1 2.3 0.5 2.25 1.2 1.9 1.65 1.2 1.6 1.1 M-2.1 0.7 L-2.1 0.75 -2.1 0.7" fill="#5c644f" fill-rule="evenodd" stroke="none"/>
      <path d="M1.5 0.5 L1.2 1.25 0.35 1.85 Q-0.9 1.85 -1.55 1.2 L-2.0 0.25 Q-2.0 -1.75 -0.25 -1.5 1.5 -1.2 1.5 0.5" fill="url(#gradient1)" fill-rule="evenodd" stroke="none"/>
      <path d="M0.15 -3.5 Q-2.25 -3.5 -3.45 -2.4 L-3.8 -0.6 -3.15 1.65 Q-2.25 3.6 -1.15 3.6 1.35 3.6 2.85 2.25 3.9 1.25 3.9 0.45 L2.65 -1.55 1.15 -3.25 0.15 -3.5 M3.85 -1.9 Q4.75 -0.75 4.75 0.65 L4.3 2.1 4.25 2.45 4.1 2.35 3.5 3.1 Q1.9 4.8 -0.35 4.8 -2.8 4.8 -4.0 2.3 L-4.65 0.45 -4.65 0.6 -4.8 0.6 -4.8 -0.2 -4.75 -0.3 -4.8 -0.9 Q-4.8 -2.3 -2.95 -3.85 -0.85 -5.55 1.1 -4.25 L2.75 -3.05 3.45 -2.65 3.45 -2.5 3.4 -2.45 3.85 -1.9 M-2.2 0.25 L-2.15 0.2 -2.1 0.25 -2.1 0.7 -2.1 0.75 -1.55 1.35 Q-1.05 2.0 0.2 2.0 L0.45 2.0 1.05 1.7 1.1 1.6 1.35 1.1 1.6 1.1 1.65 1.2 1.2 1.9 0.5 2.25 -0.1 2.3 -1.4 2.1 -1.7 1.9 Q-2.35 1.5 -2.35 0.65 L-2.35 0.45 -2.2 0.25" fill="#434738" fill-rule="evenodd" stroke="none"/>
    </g>
    <radialGradient cx="0" cy="0" gradientTransform="matrix(0.0037, 0.0, 0.0, 0.0037, -0.7, -0.45)" gradientUnits="userSpaceOnUse" id="gradient1" r="819.2" spreadMethod="pad">
      <stop offset="0.0" stop-color="#d6d9d0"/>
      <stop offset="0.6" stop-color="#575f4b"/>
      <stop offset="0.9725490196078431" stop-color="#1c1d16"/>
    </radialGradient>
    <g id="sprite5" transform="matrix(1.0, 0.0, 0.0, 1.0, 18.5, 7.7)">
      <use height="15.4" transform="matrix(1.0, 0.0, 0.0, 1.0, -18.5, -7.7)" width="37.0" xlink:href="#shape6"/>
    </g>
    <g id="shape6" transform="matrix(1.0, 0.0, 0.0, 1.0, 18.5, 7.7)">
      <path d="M-16.55 4.05 L-15.3 5.55 -15.35 5.15 -15.5 4.15 Q-15.5 3.05 -14.0 1.7 L-13.85 1.45 -13.85 1.55 -13.75 1.45 -13.5 1.7 -13.8 2.1 -13.5 3.6 Q-13.0 5.25 -11.05 5.25 -8.5 5.25 -7.05 3.9 -6.0 2.95 -6.0 2.0 L-6.15 1.0 -6.35 -0.1 -6.3 -0.85 Q-5.05 -0.45 -4.65 0.5 -4.35 1.1 -4.35 2.25 L-4.35 2.9 -3.9 2.9 Q-2.3 2.9 -1.8 1.5 -1.55 0.8 -1.6 -0.1 -1.15 -1.0 -0.4 0.2 0.25 1.3 0.25 2.05 L0.1 2.7 0.15 3.0 0.0 3.95 0.8 4.15 Q2.7 4.15 3.25 2.35 3.8 0.55 8.1 0.55 L8.8 0.6 9.35 0.55 9.65 0.45 Q6.9 0.05 2.75 -1.85 L2.75 -2.15 3.15 -2.05 3.15 -2.3 2.7 -3.25 Q2.15 -4.2 1.7 -4.2 L0.05 -4.0 -0.4 -3.8 -0.5 -3.8 -1.9 -2.85 -3.1 -0.75 -3.3 -0.7 -3.6 -0.75 Q-3.65 -1.55 -2.7 -3.1 -2.4 -3.5 -2.35 -4.35 L-2.25 -4.85 Q-2.5 -5.45 -3.75 -5.45 -4.2 -5.45 -4.5 -4.75 -4.75 -4.1 -4.6 -3.75 L-4.6 -3.35 -4.35 -3.2 -4.6 -2.95 -4.8 -2.95 -4.85 -2.95 -4.9 -3.0 -5.1 -3.1 -6.15 -3.25 Q-9.15 -3.25 -9.4 -1.4 L-9.6 -1.3 Q-9.85 -1.3 -9.9 -1.45 L-9.95 -1.35 -10.1 -1.3 -10.2 -1.45 -10.25 -1.45 -10.5 -1.7 -10.45 -1.85 -10.9 -2.75 -11.6 -4.0 -11.75 -4.0 -11.8 -3.75 -12.05 -3.7 -14.15 -4.05 -14.25 -4.3 -14.15 -4.65 -16.15 -3.5 Q-17.25 -2.45 -17.25 -1.2 L-17.2 -1.15 -17.15 -1.15 -17.1 -1.2 -16.85 -0.85 -16.9 -0.45 -16.6 0.3 -16.9 0.55 -17.1 0.55 -16.8 2.15 -16.1 3.8 -16.2 4.0 -16.35 4.05 -16.5 4.05 -16.55 4.05 M-0.1 -4.75 L0.25 -4.7 0.65 -4.95 0.9 -4.7 0.8 -4.6 1.45 -4.4 Q3.65 -3.6 3.65 -2.25 L3.6 -1.95 6.5 -1.1 11.15 0.0 11.9 -0.2 14.25 -0.1 16.7 -0.15 16.75 0.15 16.75 0.3 18.4 0.2 18.5 0.45 18.4 0.7 15.4 0.95 13.0 0.95 12.9 0.7 12.5 0.8 12.8 0.8 12.9 1.05 12.8 1.3 11.65 1.3 10.05 1.05 9.95 1.05 9.3 1.2 9.1 1.2 8.8 1.25 3.75 2.7 3.7 2.65 3.55 2.9 Q2.8 4.7 0.85 4.7 L-0.25 4.5 -0.75 5.25 Q-2.0 7.05 -4.3 7.05 -5.35 7.05 -5.9 6.55 L-6.3 6.05 Q-8.35 7.7 -10.55 7.7 -12.6 7.7 -14.15 6.95 L-15.0 6.4 Q-16.25 5.5 -17.1 4.0 -17.75 3.7 -18.25 1.75 L-18.1 1.25 Q-18.5 -0.3 -18.5 -2.0 -18.5 -3.75 -17.7 -5.2 -16.25 -7.7 -12.9 -7.7 L-8.05 -7.4 -7.5 -6.9 -6.25 -7.25 Q-3.1 -7.2 -1.4 -6.35 -0.1 -5.65 -0.1 -4.8 L-0.1 -4.75 M-12.05 -5.1 L-12.1 -5.15 -12.2 -5.1 -12.05 -5.1 M7.55 1.05 Q5.05 1.15 4.05 2.15 5.05 1.65 7.55 1.05" fill="#cccccc" fill-opacity="0.38039216" fill-rule="evenodd" stroke="none"/>
      <path d="M-16.5 4.05 L-16.35 4.05 -16.2 4.0 -16.1 3.8 -16.8 2.15 -17.1 0.55 -16.9 0.55 -16.6 0.3 -16.9 -0.45 -16.85 -0.85 -17.1 -1.2 -17.15 -1.15 -17.2 -1.15 -17.25 -1.2 Q-17.25 -2.45 -16.15 -3.5 L-14.15 -4.65 -14.25 -4.3 -14.15 -4.05 -12.05 -3.7 -11.8 -3.75 -11.75 -4.0 -11.6 -4.0 -10.9 -2.75 -10.45 -1.85 -10.5 -1.7 -10.25 -1.45 -10.2 -1.45 -10.1 -1.3 -9.95 -1.35 -9.9 -1.45 Q-9.85 -1.3 -9.6 -1.3 L-9.4 -1.4 Q-9.15 -3.25 -6.15 -3.25 L-5.1 -3.1 -4.9 -3.0 -4.85 -2.95 -4.8 -2.95 -4.6 -2.95 -4.35 -3.2 -4.6 -3.35 -4.6 -3.75 Q-4.75 -4.1 -4.5 -4.75 -4.2 -5.45 -3.75 -5.45 -2.5 -5.45 -2.25 -4.85 L-2.35 -4.35 Q-2.4 -3.5 -2.7 -3.1 -3.65 -1.55 -3.6 -0.75 L-3.3 -0.7 -3.1 -0.75 -1.9 -2.85 -0.5 -3.8 -0.4 -3.8 0.05 -4.0 1.7 -4.2 Q2.15 -4.2 2.7 -3.25 L3.15 -2.3 3.15 -2.05 2.75 -2.15 2.75 -1.85 Q6.9 0.05 9.65 0.45 L9.35 0.55 8.8 0.6 8.1 0.55 Q3.8 0.55 3.25 2.35 2.7 4.15 0.8 4.15 L0.0 3.95 0.15 3.0 0.1 2.7 0.25 2.05 Q0.25 1.3 -0.4 0.2 -1.15 -1.0 -1.6 -0.1 -1.55 0.8 -1.8 1.5 -2.3 2.9 -3.9 2.9 L-4.35 2.9 -4.35 2.25 Q-4.35 1.1 -4.65 0.5 -5.05 -0.45 -6.3 -0.85 L-6.35 -0.1 -6.15 1.0 -6.0 2.0 Q-6.0 2.95 -7.05 3.9 -8.5 5.25 -11.05 5.25 -13.0 5.25 -13.5 3.6 L-13.8 2.1 -13.5 1.7 -13.75 1.45 -13.85 1.55 -13.85 1.45 -14.0 1.7 Q-15.5 3.05 -15.5 4.15 L-15.35 5.15 -15.3 5.55 -16.55 4.05 -16.5 4.05" fill="#e6e6e6" fill-opacity="0.38039216" fill-rule="evenodd" stroke="none"/>
    </g>
    <g id="sprite6" transform="matrix(1.0, 0.0, 0.0, 1.0, 36.1, 2.85)">
      <use height="5.7" transform="matrix(1.0, 0.0, 0.0, 1.0, -36.1, -2.85)" width="72.25" xlink:href="#shape7"/>
    </g>
    <g id="shape7" transform="matrix(1.0, 0.0, 0.0, 1.0, 36.1, 2.85)">
      <path d="M1.3 -2.5 L1.35 -2.5 5.1 -2.5 8.8 -2.5 8.95 -2.4 9.0 -2.2 9.05 -2.2 9.05 -2.15 9.1 -2.2 9.1 -2.1 9.05 -2.05 9.05 -1.9 22.25 -1.95 22.75 -2.2 23.25 -2.7 23.45 -2.8 23.45 -2.7 29.25 -2.8 29.45 -2.85 29.7 -2.7 29.7 -2.6 29.65 -2.55 29.9 -2.1 29.9 -2.05 33.1 -2.05 33.15 -2.0 35.55 -1.95 35.55 -2.15 35.75 -2.15 35.8 -1.95 36.1 -1.95 36.15 -1.75 35.85 -1.75 35.85 -1.7 Q35.85 -0.25 35.55 0.65 35.2 1.65 34.35 2.35 L34.35 2.45 34.25 2.45 33.85 2.7 33.8 2.55 33.9 2.45 31.4 2.5 31.4 2.55 30.35 2.65 29.75 2.6 29.65 2.65 29.6 2.7 29.6 2.75 29.55 2.75 29.4 2.85 29.35 2.8 23.15 2.7 23.1 2.6 23.1 2.55 22.85 2.25 22.9 2.15 22.85 2.15 22.85 2.2 22.65 2.2 22.65 2.1 22.45 2.0 22.3 1.85 22.1 1.7 21.85 1.7 21.85 1.6 9.05 1.55 9.05 1.7 9.0 1.75 8.85 1.75 8.85 1.65 8.25 2.0 8.15 1.95 8.15 1.85 1.6 1.85 1.45 1.9 1.25 1.85 1.05 1.85 1.05 1.75 0.85 1.4 0.75 1.0 -35.95 0.95 -36.0 0.85 -35.9 0.8 -35.9 0.75 -35.8 0.75 Q-36.15 0.55 -36.1 -0.6 L-35.95 -2.0 0.75 -2.0 0.9 -1.9 0.95 -1.9 0.95 -2.0 1.3 -2.45 1.3 -2.5 M0.65 -1.65 L0.65 -1.75 -35.7 -1.8 -35.9 -0.55 -35.65 0.75 0.7 0.75 0.75 -0.85 0.85 -1.65 0.65 -1.65 M0.95 -1.65 L0.9 0.7 0.9 0.8 1.0 1.3 Q1.2 1.75 1.55 1.6 L1.6 1.65 8.4 1.7 8.65 1.55 8.85 1.35 8.85 -2.05 8.8 -2.15 8.7 -2.25 1.4 -2.3 1.2 -2.1 1.1 -1.95 0.95 -1.65 M22.3 -1.7 L9.05 -1.7 9.05 1.35 22.0 1.35 22.2 1.4 22.2 1.35 22.3 1.35 22.35 1.5 22.35 1.55 22.5 1.65 22.65 1.7 22.65 -1.85 22.3 -1.7 M22.85 -1.95 L22.85 1.75 22.95 2.1 23.4 2.4 23.4 2.55 27.3 2.55 26.75 2.5 29.35 2.55 29.45 2.4 29.5 2.35 29.5 -1.8 29.45 -1.9 29.5 -1.95 29.5 -2.05 29.35 -2.35 29.35 -2.55 23.4 -2.55 23.2 -2.25 22.85 -1.95 M32.8 -1.8 L29.75 -1.8 29.65 2.25 29.85 2.2 29.9 2.25 31.0 2.35 31.0 2.3 34.0 2.3 Q35.3 0.3 35.55 -1.75 L32.8 -1.75 32.8 -1.8 M35.05 0.95 L34.75 1.55 34.75 1.6 Q35.2 1.15 35.05 0.95 M-34.4 -0.65 L-34.65 -0.65 -35.15 -0.55 Q-34.85 -0.3 -33.95 -0.3 L-32.0 -0.4 -31.9 -0.6 -34.4 -0.75 -34.4 -0.65 M-34.45 -1.0 L-33.95 -0.95 Q-31.65 -0.95 -31.65 -0.55 -31.65 -0.25 -31.8 -0.2 L-33.95 -0.05 Q-35.4 -0.05 -35.4 -0.55 L-35.2 -0.8 -34.95 -0.9 -34.8 -0.95 -34.45 -1.0" fill="#000000" fill-rule="evenodd" stroke="none"/>
      <path d="M0.95 -1.65 L1.1 -1.95 1.2 -2.1 1.4 -2.3 8.7 -2.25 8.8 -2.15 8.85 -2.05 8.85 1.35 8.65 1.55 8.4 1.7 1.6 1.65 1.55 1.6 Q1.2 1.75 1.0 1.3 L0.9 0.8 0.9 0.7 0.95 -1.65 M22.85 -1.95 L23.2 -2.25 23.4 -2.55 29.35 -2.55 29.35 -2.35 29.5 -2.05 29.5 -1.95 29.45 -1.9 29.5 -1.8 29.5 2.35 29.45 2.4 29.35 2.55 26.75 2.5 27.3 2.55 23.4 2.55 23.4 2.4 22.95 2.1 22.85 1.75 22.85 -1.95" fill="#797953" fill-rule="evenodd" stroke="none"/>
      <path d="M0.65 -1.65 L0.85 -1.65 0.75 -0.85 0.7 0.75 -35.65 0.75 -35.9 -0.55 -35.7 -1.8 0.65 -1.75 0.65 -1.65 M22.3 -1.7 L22.65 -1.85 22.65 1.7 22.5 1.65 22.35 1.55 22.35 1.5 22.3 1.35 22.2 1.35 22.2 1.4 22.0 1.35 9.05 1.35 9.05 -1.7 22.3 -1.7 M-34.45 -1.0 L-34.8 -0.95 -34.95 -0.9 -35.2 -0.8 -35.4 -0.55 Q-35.4 -0.05 -33.95 -0.05 L-31.8 -0.2 Q-31.65 -0.25 -31.65 -0.55 -31.65 -0.95 -33.95 -0.95 L-34.45 -1.0" fill="#aba085" fill-rule="evenodd" stroke="none"/>
      <path d="M32.8 -1.8 L32.8 -1.75 35.55 -1.75 Q35.3 0.3 34.0 2.3 L31.0 2.3 31.0 2.35 29.9 2.25 29.85 2.2 29.65 2.25 29.75 -1.8 32.8 -1.8" fill="#453a2e" fill-rule="evenodd" stroke="none"/>
      <path d="M9.35 -1.1 Q9.35 -1.3 22.0 -1.35 L22.1 -1.1 22.0 -0.85 9.45 -0.85 9.35 -1.1 M-0.65 -1.25 L-0.75 -1.0 -31.55 -1.0 -31.65 -1.25 -28.8 -1.5 -0.75 -1.5 -0.65 -1.25" fill="#dcd7cd" fill-rule="evenodd" stroke="none"/>
      <path d="M5.9 -1.6 L2.35 -1.5 Q2.15 -1.5 1.75 -1.75 L1.75 -2.05 2.0 -2.1 5.9 -2.1 6.0 -1.85 5.9 -1.6 M27.25 -2.25 L27.15 -2.0 24.1 -2.0 24.0 -2.25 27.15 -2.5 27.25 -2.25" fill="#d9d9c8" fill-rule="evenodd" stroke="none"/>
    </g>
    <g id="sprite7" transform="matrix(1.0, 0.0, 0.0, 1.0, 31.5, 9.55)">
      <use height="19.1" transform="matrix(1.0, 0.0, 0.0, 1.0, -31.5, -9.55)" width="63.05" xlink:href="#shape8"/>
    </g>
    <g id="shape8" transform="matrix(1.0, 0.0, 0.0, 1.0, 31.5, 9.55)">
      <path d="M10.75 -7.25 L10.95 -4.35 Q10.95 -3.15 10.05 -3.15 9.35 -3.15 9.15 -3.4 L9.05 -3.85 9.35 -6.15 9.65 -7.55 9.1 -7.55 7.85 -7.6 4.65 -8.25 4.55 -8.45 7.65 -7.75 7.65 -7.9 7.8 -7.9 7.95 -7.85 8.55 -7.8 9.75 -7.8 Q10.05 -9.0 10.5 -9.55 L10.8 -8.15 10.75 -7.45 11.2 -7.1 13.85 -6.65 16.7 -6.0 16.7 -6.15 16.95 -6.15 16.95 -6.1 17.45 -6.15 18.2 -5.95 19.0 -5.95 19.75 -6.15 20.3 -6.1 21.3 -6.2 22.8 -6.35 Q25.45 -6.35 26.3 -5.8 26.8 -5.45 26.8 -4.55 26.8 -3.65 25.85 -3.65 L25.85 -3.5 Q25.85 -3.1 26.25 -2.75 L26.95 -2.3 28.5 -2.8 30.2 -3.3 30.75 -2.15 31.2 -0.65 31.55 2.15 Q31.55 3.0 28.45 3.45 L28.2 4.65 27.8 5.9 27.8 5.95 27.85 5.9 27.9 5.95 27.7 6.1 27.6 6.2 27.5 6.2 24.55 7.4 20.4 9.0 20.3 9.0 20.3 9.05 20.35 9.2 20.05 9.3 19.9 9.45 19.9 9.5 -28.15 9.55 -28.7 8.65 -28.75 8.65 Q-29.4 8.65 -29.5 8.25 -29.65 7.85 -29.9 7.85 L-30.5 8.0 -31.1 8.1 Q-31.5 8.1 -31.5 7.2 L-31.3 5.0 -31.1 5.0 -31.05 5.1 -30.1 3.85 Q-28.95 2.4 -28.95 1.3 L-29.1 1.0 -29.05 0.7 -29.05 0.65 -29.0 0.45 -26.95 -1.85 Q-24.7 -4.0 -23.55 -4.0 -22.45 -4.0 -21.6 -2.85 L-21.6 -3.0 -21.4 -3.0 -21.45 -2.8 Q-21.35 -2.7 -21.25 -2.7 L-20.8 -2.9 -20.45 -3.2 -20.45 -3.15 -20.1 -3.35 -19.45 -3.55 -19.45 -3.6 -19.4 -3.55 -18.95 -3.65 -18.75 -3.6 -17.65 -5.05 -17.65 -5.1 -17.45 -5.25 -17.15 -5.65 -17.15 -5.6 -16.55 -6.55 -15.65 -7.55 Q-15.4 -7.65 -15.15 -7.25 L-14.8 -6.65 -14.35 -6.1 -14.1 -5.7 -14.05 -5.65 -14.1 -5.75 -12.55 -5.75 -12.5 -5.65 -10.0 -6.25 -6.35 -7.5 -6.45 -7.2 -9.75 -6.05 -9.8 -6.05 -15.1 -4.6 -16.5 -0.3 -14.2 -0.15 -13.4 0.0 -13.65 0.1 -13.6 0.15 -16.5 -0.15 -16.55 -0.05 -16.7 -0.05 -16.7 -0.55 -16.25 -2.35 -16.05 -2.55 -16.15 -2.8 -16.2 -2.75 -16.2 -2.8 -15.35 -4.55 -15.4 -4.55 -15.45 -4.65 -15.4 -4.7 -15.5 -4.7 -16.75 -5.0 -16.95 -5.1 -17.45 -5.0 -18.55 -3.45 -18.55 -3.25 Q-18.55 -2.35 -20.4 -0.1 L-20.4 -0.05 -20.55 -0.1 -20.55 0.1 -22.9 2.7 -27.95 7.9 -28.0 7.9 -27.9 7.95 -28.2 8.35 -28.45 8.6 -28.25 8.9 -27.95 9.3 -19.2 9.3 -18.95 9.35 -18.75 9.3 0.1 9.3 0.35 9.45 0.5 9.4 0.6 9.45 0.85 9.3 0.9 9.3 12.7 9.3 12.7 9.4 12.9 9.45 13.1 9.4 13.15 9.3 19.2 9.3 19.2 9.2 19.75 9.05 19.95 9.0 20.05 8.95 20.0 8.85 Q22.8 7.75 26.1 6.55 L27.5 6.05 27.5 5.95 26.1 6.35 24.6 6.55 24.7 6.4 24.6 6.15 27.5 5.8 27.55 5.85 28.2 3.55 28.2 3.5 28.1 3.5 28.05 3.4 28.25 3.35 28.25 2.9 27.65 0.15 27.0 -2.05 26.95 -2.1 Q25.9 -2.55 25.6 -3.6 L25.55 -3.6 23.65 -3.55 21.7 -3.65 19.95 -4.0 19.6 -4.0 16.95 -5.7 16.8 -5.7 11.45 -6.9 13.75 -4.6 15.1 -3.05 15.7 -2.25 15.6 -2.2 15.8 -2.0 15.95 -1.35 Q15.95 -0.4 14.25 0.8 L14.25 0.85 14.15 0.85 13.85 1.05 13.8 0.95 13.9 0.85 13.5 0.85 13.4 0.8 12.45 0.75 10.0 0.85 9.35 0.9 9.2 0.9 8.55 0.7 8.2 0.75 8.2 0.9 4.4 1.0 4.55 1.85 4.55 1.9 4.35 1.8 4.15 1.0 4.0 1.0 4.0 0.75 3.85 0.55 Q3.2 -0.1 1.9 -0.1 L-0.95 0.1 -1.0 0.15 -1.0 0.3 Q-1.0 0.85 -0.6 1.45 L-0.65 1.6 -0.55 1.85 -0.35 1.85 -0.25 2.1 2.3 2.2 4.0 2.55 4.05 2.35 4.25 2.35 4.3 2.35 4.15 2.6 4.25 2.65 Q4.75 2.9 4.75 3.55 L4.75 3.7 4.6 3.6 4.55 3.65 4.55 3.6 Q4.55 2.95 3.85 2.75 L-0.25 2.3 Q-0.3 2.75 -0.95 2.85 L-1.1 3.55 -1.3 3.5 -1.3 4.05 -1.25 4.2 -1.25 4.35 -1.2 4.7 -1.1 4.7 -1.1 5.2 -0.75 5.65 Q0.1 6.2 3.15 6.2 3.95 6.2 4.3 5.1 L4.45 4.55 4.75 4.3 Q4.55 6.4 3.15 6.4 -0.15 6.4 -1.0 5.75 L-1.2 5.55 -1.25 5.6 Q-1.25 5.9 -1.4 6.0 L-1.5 6.0 -1.55 5.9 -1.5 5.75 -1.55 5.75 -3.05 5.95 -3.3 5.7 -3.4 5.8 -3.4 5.95 -4.5 5.95 Q-6.65 5.95 -7.15 5.2 L-7.3 4.15 -7.25 3.85 Q-7.2 3.85 -7.1 3.95 L-7.1 4.15 -6.95 5.1 Q-6.45 5.75 -4.35 5.75 L-1.5 5.4 -1.5 4.1 -1.55 4.1 -1.55 3.75 -1.3 3.45 -1.55 3.2 -1.6 3.2 -1.65 2.8 -1.9 2.6 -1.95 2.25 -1.9 2.15 -4.45 2.0 -6.2 2.1 -6.25 2.3 -6.5 2.65 -6.9 3.1 -6.95 3.25 -7.15 3.2 -6.95 2.8 -7.0 2.5 -6.8 0.6 -6.85 0.6 -7.75 0.75 -8.45 0.8 -9.45 0.7 Q-9.7 0.55 -9.9 0.55 L-9.9 0.65 -11.8 0.4 -13.15 0.2 -13.35 0.0 -13.2 0.0 -11.85 0.15 -10.15 0.35 -10.05 0.4 -9.75 0.45 -8.4 0.6 -7.0 0.45 -7.0 0.35 -6.7 0.35 Q-6.15 -0.7 -4.25 -0.7 L-2.8 -0.45 -1.6 -0.2 -1.4 -1.75 -1.15 -1.75 -1.05 -0.1 2.0 -0.35 Q3.45 -0.35 4.1 0.5 L4.25 0.7 12.5 0.5 14.1 0.65 14.8 0.0 Q15.75 -0.95 15.75 -1.35 L13.1 -4.7 13.2 -4.9 12.65 -5.25 10.8 -7.25 10.75 -7.3 10.75 -7.25 M4.2 -8.55 L4.1 -8.35 2.9 -8.65 1.2 -8.85 0.8 -9.05 0.75 -8.85 -0.55 -8.9 -3.2 -8.7 -3.75 -8.45 Q-3.75 -8.25 -5.9 -7.45 L-6.2 -7.55 -4.0 -8.45 -4.05 -8.55 Q-4.05 -9.05 -0.4 -9.15 L3.8 -8.65 4.2 -8.55 M10.0 -7.6 L9.45 -4.55 9.55 -4.45 9.25 -3.65 9.3 -3.55 10.05 -3.4 Q10.75 -3.4 10.75 -4.35 L10.65 -7.45 10.55 -7.55 10.6 -7.6 10.65 -7.55 10.6 -8.1 10.35 -9.25 10.0 -7.7 10.0 -7.6 M1.75 -5.45 Q1.05 -6.35 0.0 -6.35 -0.95 -6.35 -1.4 -5.7 L-1.75 -4.8 Q-1.75 -4.05 -1.25 -3.4 -0.55 -2.45 0.85 -2.45 2.25 -2.45 2.25 -4.25 L1.75 -5.45 M2.2 -3.1 Q1.8 -2.2 0.85 -2.2 -0.65 -2.2 -1.4 -3.3 -1.95 -4.05 -1.95 -4.8 -1.95 -6.55 0.25 -6.45 2.45 -6.35 2.45 -4.3 L2.2 -3.1 M19.7 -4.3 L19.75 -4.3 21.1 -4.0 23.3 -3.75 25.5 -3.85 25.5 -3.95 25.6 -4.0 25.8 -3.85 Q26.6 -3.85 26.6 -4.55 26.6 -5.4 25.95 -5.7 L22.75 -6.1 20.25 -5.9 18.6 -5.7 17.3 -5.75 18.25 -5.1 19.7 -4.3 M27.15 -2.05 L28.0 0.15 28.45 2.9 28.45 3.3 29.7 2.95 Q31.35 2.55 31.35 2.1 30.7 -3.05 30.1 -3.05 L27.15 -2.05 M23.7 4.3 L23.85 4.4 23.9 4.75 23.65 5.3 23.6 5.3 23.6 5.35 23.25 5.6 21.95 6.05 Q17.95 6.05 17.95 5.0 17.95 3.85 19.25 3.95 L21.2 3.8 23.35 4.05 23.7 4.3 M24.1 6.25 L24.4 6.55 24.15 6.55 20.8 7.15 Q17.35 8.05 15.4 8.8 L15.0 8.8 14.95 8.65 21.15 6.9 24.1 6.25 M23.7 4.75 Q23.7 4.4 22.9 4.3 L19.25 4.15 Q18.15 4.2 18.15 4.95 18.15 5.8 21.95 5.8 22.55 5.8 23.15 5.4 L23.7 4.75 M-21.3 -2.45 L-21.4 -2.45 Q-21.5 -1.65 -23.25 0.5 L-25.4 2.9 -27.7 5.55 -29.95 7.6 Q-29.6 7.6 -29.35 7.9 L-27.35 5.75 -23.95 2.25 -21.4 -0.7 -19.65 -3.2 -20.7 -2.8 Q-20.95 -2.45 -21.3 -2.45 M-21.65 -2.7 L-22.3 -3.25 Q-23.05 -3.75 -23.6 -3.75 -24.95 -3.75 -26.8 -1.9 -28.3 -0.4 -28.75 0.7 L-28.75 1.25 Q-28.75 2.3 -29.4 3.35 L-31.05 5.5 -31.1 5.5 -31.3 7.1 -31.2 7.9 -30.55 7.75 -30.25 7.65 -28.65 6.05 -25.55 2.75 Q-21.6 -1.4 -21.6 -2.55 L-21.65 -2.7 M-16.25 -6.5 L-16.9 -5.45 -16.85 -5.25 -16.4 -5.05 -15.5 -4.95 -14.6 -5.15 Q-14.2 -5.3 -14.2 -5.45 L-15.5 -7.35 -16.25 -6.5 M-19.4 -3.3 Q-20.3 -1.3 -23.75 2.35 L-26.25 5.25 -27.9 6.75 -29.25 8.15 -28.85 8.45 -28.7 8.45 -28.7 8.4 -28.65 8.45 -28.4 8.3 -28.45 8.3 -28.5 8.15 -24.65 4.2 Q-20.4 -0.3 -18.75 -3.35 L-18.75 -3.4 -19.3 -3.4 -19.4 -3.3 M-14.05 -5.2 L-13.2 -5.45 -14.0 -5.55 -14.0 -5.45 -14.05 -5.2 M-1.8 1.3 L-1.6 0.15 -1.6 0.0 -1.75 0.0 -4.3 -0.45 Q-5.95 -0.45 -6.5 0.35 L-6.6 0.55 -6.75 1.5 -6.8 1.6 -6.75 1.65 -6.75 1.8 -6.75 2.5 -6.5 2.25 -6.0 1.9 -5.7 1.8 -4.35 1.75 -3.0 1.75 -1.9 1.9 -1.9 1.85 -1.7 1.75 -1.65 1.65 -1.8 1.3 M-1.55 2.0 L-1.7 2.15 -1.75 2.25 -1.75 2.45 -1.6 2.55 -1.6 2.5 -1.45 2.6 -1.3 2.6 -1.2 2.6 Q-0.45 2.6 -0.5 2.2 L-0.85 1.6 -1.2 0.65 Q-1.2 -0.55 -1.35 -0.9 L-1.4 1.75 -1.55 2.0 M-1.2 2.85 L-1.25 2.85 -1.25 2.95 -1.2 2.85" fill="#000000" fill-rule="evenodd" stroke="none"/>
      <path d="M10.0 -7.6 L10.0 -7.7 10.35 -9.25 10.6 -8.1 10.65 -7.55 10.6 -7.6 10.55 -7.55 10.65 -7.45 10.75 -4.35 Q10.75 -3.4 10.05 -3.4 L9.3 -3.55 9.25 -3.65 9.55 -4.45 9.45 -4.55 10.0 -7.6 M1.2 -5.0 L0.95 -5.45 0.9 -5.65 Q0.75 -5.9 0.2 -5.9 -0.9 -5.85 -0.9 -5.2 L-0.85 -4.8 Q-0.7 -4.4 -0.05 -4.4 L0.65 -4.55 Q1.2 -4.65 1.2 -5.0 M1.75 -5.45 L2.25 -4.25 Q2.25 -2.45 0.85 -2.45 -0.55 -2.45 -1.25 -3.4 -1.75 -4.05 -1.75 -4.8 L-1.4 -5.7 Q-0.95 -6.35 0.0 -6.35 1.05 -6.35 1.75 -5.45" fill="#bcb4a0" fill-rule="evenodd" stroke="none"/>
      <path d="M4.55 -8.45 L4.65 -8.25 7.85 -7.6 9.1 -7.55 9.65 -7.55 9.35 -6.15 9.05 -3.85 9.15 -3.4 Q9.35 -3.15 10.05 -3.15 10.95 -3.15 10.95 -4.35 L10.75 -7.25 10.8 -7.25 12.65 -5.25 13.2 -4.9 13.1 -4.7 13.05 -4.7 12.4 -4.65 12.35 -4.45 12.6 -3.3 Q12.6 -2.7 12.25 -2.2 11.8 -1.55 11.0 -1.55 10.65 -1.55 10.35 -1.8 L8.15 -2.05 6.95 -2.05 6.2 -2.05 6.05 -2.05 6.05 -2.1 5.7 -2.25 5.2 -2.5 4.8 -3.05 4.6 -3.75 4.8 -4.5 4.95 -5.2 4.1 -8.35 4.2 -8.55 4.45 -8.65 4.55 -8.45 M-9.75 0.45 L-10.05 0.4 -10.15 0.3 -10.15 0.35 -11.85 0.15 -13.2 0.0 -13.35 0.0 -13.4 -0.05 -13.4 0.0 -14.2 -0.15 -16.5 -0.3 -15.1 -4.6 -9.8 -6.05 -9.75 -6.05 -9.7 -6.0 -9.65 -6.05 -9.35 -5.4 -9.15 -4.95 -9.25 -4.7 Q-9.15 -4.65 -9.4 -4.65 L-9.55 -4.7 -10.7 -3.9 Q-12.15 -3.15 -12.15 -2.65 -12.15 -1.7 -10.6 -1.5 -9.05 -1.3 -9.05 -0.6 -9.05 -0.25 -9.2 0.05 -9.4 0.45 -9.75 0.45" fill="#928465" fill-rule="evenodd" stroke="none"/>
      <path d="M-6.45 -7.2 L-6.35 -7.5 -6.3 -7.6 -6.2 -7.55 -5.9 -7.45 Q-3.75 -8.25 -3.75 -8.45 L-3.2 -8.7 -0.55 -8.9 0.75 -8.85 0.8 -9.05 1.2 -8.85 1.45 -8.45 Q1.45 -7.55 0.55 -7.4 L-2.75 -6.45 -3.9 -5.05 Q-5.0 -3.8 -6.0 -3.8 -6.7 -3.8 -6.85 -4.3 L-6.9 -4.85 -6.85 -5.15 -7.05 -5.4 -6.85 -6.4 -6.45 -7.2" fill="#696049" fill-rule="evenodd" stroke="none"/>
      <path d="M13.1 -4.7 L15.75 -1.35 Q15.75 -0.95 14.8 0.0 L14.1 0.65 12.5 0.5 4.25 0.7 4.1 0.5 Q3.45 -0.35 2.0 -0.35 L-1.05 -0.1 -1.15 -1.75 -1.4 -1.75 -1.6 -0.2 -2.8 -0.45 -4.25 -0.7 Q-6.15 -0.7 -6.7 0.35 L-7.0 0.35 -7.0 0.45 -8.4 0.6 -9.75 0.45 Q-9.4 0.45 -9.2 0.05 -9.05 -0.25 -9.05 -0.6 -9.05 -1.3 -10.6 -1.5 -12.15 -1.7 -12.15 -2.65 -12.15 -3.15 -10.7 -3.9 L-9.55 -4.7 -9.4 -4.65 Q-9.15 -4.65 -9.25 -4.7 L-9.15 -4.95 -9.35 -5.4 -9.65 -6.05 -9.7 -6.0 -9.75 -6.05 -6.45 -7.2 -6.85 -6.4 -7.05 -5.4 -6.85 -5.15 -6.9 -4.85 -6.85 -4.3 Q-6.7 -3.8 -6.0 -3.8 -5.0 -3.8 -3.9 -5.05 L-2.75 -6.45 0.55 -7.4 Q1.45 -7.55 1.45 -8.45 L1.2 -8.85 2.9 -8.65 4.1 -8.35 4.95 -5.2 4.8 -4.5 4.6 -3.75 4.8 -3.05 5.2 -2.5 5.7 -2.25 6.05 -2.1 6.05 -2.05 6.2 -2.05 6.95 -2.05 8.15 -2.05 10.35 -1.8 Q10.65 -1.55 11.0 -1.55 11.8 -1.55 12.25 -2.2 12.6 -2.7 12.6 -3.3 L12.35 -4.45 12.4 -4.65 13.05 -4.7 13.1 -4.7 M-10.05 0.4 L-10.15 0.35 -10.15 0.3 -10.05 0.4 M2.2 -3.1 L2.45 -4.3 Q2.45 -6.35 0.25 -6.45 -1.95 -6.55 -1.95 -4.8 -1.95 -4.05 -1.4 -3.3 -0.65 -2.2 0.85 -2.2 1.8 -2.2 2.2 -3.1 M19.7 -4.3 L18.25 -5.1 17.3 -5.75 18.6 -5.7 20.25 -5.9 22.75 -6.1 25.95 -5.7 Q26.6 -5.4 26.6 -4.55 26.6 -3.85 25.8 -3.85 L25.6 -4.0 25.5 -3.95 25.5 -3.85 23.3 -3.75 21.1 -4.0 19.75 -4.3 19.7 -4.3 M-19.4 -3.3 L-19.3 -3.4 -18.75 -3.4 -18.75 -3.35 Q-20.4 -0.3 -24.65 4.2 L-28.5 8.15 -28.45 8.3 -28.4 8.3 -28.65 8.45 -28.7 8.4 -28.7 8.45 -28.85 8.45 -29.25 8.15 -27.9 6.75 -26.25 5.25 -23.75 2.35 Q-20.3 -1.3 -19.4 -3.3" fill="#aba085" fill-rule="evenodd" stroke="none"/>
      <path d="M1.2 -5.0 Q1.2 -4.65 0.65 -4.55 L-0.05 -4.4 Q-0.7 -4.4 -0.85 -4.8 L-0.9 -5.2 Q-0.9 -5.85 0.2 -5.9 0.75 -5.9 0.9 -5.65 L0.95 -5.45 1.2 -5.0" fill="#edeae7" fill-rule="evenodd" stroke="none"/>
      <path d="M-13.15 0.2 L-11.8 0.4 -9.9 0.65 -9.8 1.05 -9.55 2.0 -9.45 2.25 Q-10.4 4.35 -10.4 6.0 -10.4 6.75 -10.05 7.05 -9.4 7.6 -7.35 7.6 L-6.2 7.4 -5.35 7.2 -3.25 7.15 Q-2.9 7.05 -2.9 6.3 L-3.05 5.95 -1.55 5.75 -1.55 5.9 -1.5 6.0 -1.4 6.0 Q-1.25 5.9 -1.25 5.6 L-1.2 5.55 -1.0 5.75 Q-0.15 6.4 3.15 6.4 4.55 6.4 4.75 4.3 L4.85 3.9 4.75 3.7 4.75 3.55 Q4.75 2.9 4.25 2.65 L4.15 2.6 4.3 2.35 4.55 2.3 4.6 2.05 4.55 1.9 4.55 1.85 4.4 1.0 8.2 0.9 8.2 1.05 Q9.85 1.8 9.85 2.4 L9.6 3.45 Q9.6 3.9 10.05 4.4 10.8 5.2 12.4 5.2 13.4 5.2 14.5 3.85 15.7 2.35 16.15 2.2 18.0 1.6 18.7 0.9 19.35 0.3 19.35 -0.75 19.35 -1.9 18.7 -2.5 17.7 -3.4 15.7 -2.25 L15.1 -3.05 13.75 -4.6 11.45 -6.9 16.8 -5.7 16.95 -5.7 19.6 -4.0 19.95 -4.0 21.7 -3.65 21.7 -3.05 Q21.9 -2.85 22.15 -2.8 L22.35 -2.5 22.75 -2.05 22.85 -2.05 22.9 -2.0 23.35 -1.05 Q23.35 -0.7 22.55 0.05 21.7 0.8 21.7 1.4 21.7 2.3 22.65 2.7 23.6 3.15 23.6 3.55 L23.35 4.05 23.6 4.2 23.7 4.3 23.35 4.05 21.2 3.8 19.25 3.95 Q17.95 3.85 17.95 5.0 17.95 6.05 21.95 6.05 L23.25 5.6 23.6 5.35 Q23.6 5.7 24.1 6.25 L21.15 6.9 14.95 8.65 15.0 8.8 15.4 8.8 Q17.35 8.05 20.8 7.15 L24.15 6.55 24.4 6.55 24.45 6.6 24.6 6.55 26.1 6.35 26.1 6.55 Q22.8 7.75 20.0 8.85 L20.05 8.95 19.95 9.0 19.75 9.05 19.2 9.2 19.2 9.3 13.15 9.3 13.2 8.85 Q13.2 8.35 12.8 8.1 12.45 7.85 11.25 7.5 10.05 7.15 9.7 6.65 L9.0 5.85 Q7.45 5.0 6.95 6.45 6.35 8.3 4.75 8.3 L2.75 8.1 0.95 8.5 0.75 8.65 Q0.25 8.8 0.1 9.3 L-18.75 9.3 -18.55 8.75 Q-18.55 8.1 -19.55 7.65 -20.55 7.25 -20.55 6.85 L-20.5 6.5 Q-20.35 6.2 -19.8 6.2 L-18.0 6.65 -15.75 7.1 Q-13.8 7.1 -13.8 5.8 -13.8 4.3 -16.1 4.4 -18.65 4.5 -19.1 3.2 L-19.4 1.5 Q-19.55 0.5 -20.15 -0.15 L-20.3 -0.05 -20.4 -0.05 -20.4 -0.1 Q-18.55 -2.35 -18.55 -3.25 L-18.55 -3.45 -17.45 -5.0 -16.95 -5.1 -16.75 -5.0 -15.5 -4.7 -15.4 -4.7 -15.45 -4.65 -15.4 -4.55 -15.35 -4.55 -16.2 -2.8 -16.2 -2.75 Q-17.4 -2.45 -18.05 -1.6 -18.55 -0.95 -18.55 -0.25 -18.55 0.3 -17.95 1.1 -17.05 2.35 -15.45 2.35 -14.2 2.35 -13.5 1.8 -12.9 1.35 -12.9 0.6 L-13.15 0.2 M9.2 0.9 L9.35 0.9 9.3 0.95 9.2 0.9 M0.9 9.3 L0.85 9.3 0.9 9.25 0.9 9.3" fill="#797953" fill-rule="evenodd" stroke="none"/>
      <path d="M-9.9 0.65 L-9.9 0.55 Q-9.7 0.55 -9.45 0.7 L-8.45 0.8 -7.75 0.75 -6.85 0.6 -6.8 0.6 -7.0 2.5 -6.95 2.8 -7.15 3.2 -7.3 3.2 -7.3 3.8 -7.25 3.85 -7.3 4.15 -7.15 5.2 Q-6.65 5.95 -4.5 5.95 L-3.4 5.95 -3.4 5.8 -3.3 5.7 -3.05 5.95 -2.9 6.3 Q-2.9 7.05 -3.25 7.15 L-5.35 7.2 -6.2 7.4 -7.35 7.6 Q-9.4 7.6 -10.05 7.05 -10.4 6.75 -10.4 6.0 -10.4 4.35 -9.45 2.25 L-9.55 2.0 -9.8 1.05 -9.9 0.65 M8.2 0.9 L8.2 0.75 8.55 0.7 9.2 0.9 9.3 0.95 9.35 0.9 10.0 0.85 12.45 0.75 13.4 0.8 13.5 0.85 13.9 0.85 13.8 0.95 13.85 1.05 14.15 0.85 14.25 0.85 14.25 0.8 Q15.95 -0.4 15.95 -1.35 L15.8 -2.0 15.6 -2.2 15.7 -2.25 Q17.7 -3.4 18.7 -2.5 19.35 -1.9 19.35 -0.75 19.35 0.3 18.7 0.9 18.0 1.6 16.15 2.2 15.7 2.35 14.5 3.85 13.4 5.2 12.4 5.2 10.8 5.2 10.05 4.4 9.6 3.9 9.6 3.45 L9.85 2.4 Q9.85 1.8 8.2 1.05 L8.2 0.9 M-18.75 9.3 L-18.95 9.35 -19.2 9.3 -27.95 9.3 -28.25 8.9 -28.45 8.6 -28.2 8.35 -27.9 7.95 -27.95 7.9 -22.9 2.7 -20.55 0.1 -20.55 -0.1 -20.4 -0.05 -20.3 -0.05 -20.15 -0.15 Q-19.55 0.5 -19.4 1.5 L-19.1 3.2 Q-18.65 4.5 -16.1 4.4 -13.8 4.3 -13.8 5.8 -13.8 7.1 -15.75 7.1 L-18.0 6.65 -19.8 6.2 Q-20.35 6.2 -20.5 6.5 L-20.55 6.85 Q-20.55 7.25 -19.55 7.65 -18.55 8.1 -18.55 8.75 L-18.75 9.3 M23.7 4.75 L23.15 5.4 Q22.55 5.8 21.95 5.8 18.15 5.8 18.15 4.95 18.15 4.2 19.25 4.15 L22.9 4.3 Q23.7 4.4 23.7 4.75 M-16.25 -6.5 L-15.5 -7.35 -14.2 -5.45 Q-14.2 -5.3 -14.6 -5.15 L-15.5 -4.95 -16.4 -5.05 -16.85 -5.25 -16.9 -5.45 -16.25 -6.5" fill="#453a2e" fill-rule="evenodd" stroke="none"/>
      <path d="M-13.35 0.0 L-13.15 0.2 -12.9 0.6 Q-12.9 1.35 -13.5 1.8 -14.2 2.35 -15.45 2.35 -17.05 2.35 -17.95 1.1 -18.55 0.3 -18.55 -0.25 -18.55 -0.95 -18.05 -1.6 -17.4 -2.45 -16.2 -2.75 L-16.15 -2.8 -16.05 -2.55 -16.25 -2.35 -16.7 -0.55 -16.7 -0.05 -16.55 -0.05 -16.5 -0.15 -13.6 0.15 -13.65 0.1 -13.4 0.0 -13.4 -0.05 -13.35 0.0 M21.7 -3.65 L23.65 -3.55 25.55 -3.6 25.6 -3.6 Q25.9 -2.55 26.95 -2.1 L27.0 -2.05 27.65 0.15 28.25 2.9 28.25 3.35 28.05 3.4 28.1 3.5 28.2 3.55 27.55 5.85 27.5 5.8 24.6 6.15 24.7 6.4 24.6 6.55 24.45 6.6 24.4 6.55 24.1 6.25 Q23.6 5.7 23.6 5.35 L23.6 5.3 23.65 5.3 23.9 4.75 23.85 4.4 23.7 4.3 23.6 4.2 23.35 4.05 23.6 3.55 Q23.6 3.15 22.65 2.7 21.7 2.3 21.7 1.4 21.7 0.8 22.55 0.05 23.35 -0.7 23.35 -1.05 L22.9 -2.0 22.85 -2.05 22.75 -2.05 22.35 -2.5 22.15 -2.8 Q21.9 -2.85 21.7 -3.05 L21.7 -3.65 M13.15 9.3 L13.1 9.4 12.9 9.45 12.7 9.4 12.7 9.3 0.9 9.3 0.9 9.25 0.85 9.3 0.6 9.45 0.5 9.4 0.35 9.45 0.1 9.3 Q0.25 8.8 0.75 8.65 L0.95 8.5 2.75 8.1 4.75 8.3 Q6.35 8.3 6.95 6.45 7.45 5.0 9.0 5.85 L9.7 6.65 Q10.05 7.15 11.25 7.5 12.45 7.85 12.8 8.1 13.2 8.35 13.2 8.85 L13.15 9.3" fill="#aaab83" fill-rule="evenodd" stroke="none"/>
      <path d="M27.15 -2.05 L30.1 -3.05 Q30.7 -3.05 31.35 2.1 31.35 2.55 29.7 2.95 L28.45 3.3 28.45 2.9 28.0 0.15 27.15 -2.05" fill="#6a7a52" fill-rule="evenodd" stroke="none"/>
      <path d="M-1.55 5.75 L-1.5 5.75 -1.55 5.9 -1.55 5.75 M28.1 3.5 L28.2 3.5 28.2 3.55 28.1 3.5 M26.1 6.35 L27.5 5.95 27.5 6.05 26.1 6.55 26.1 6.35 M-27.9 7.95 L-28.0 7.9 -27.95 7.9 -27.9 7.95" fill="#8ba364" fill-rule="evenodd" stroke="none"/>
      <path d="M-6.95 3.25 L-6.9 3.1 -6.5 2.65 -6.25 2.3 -6.2 2.1 -4.45 2.0 -1.9 2.15 -1.95 2.25 -1.9 2.6 -1.65 2.8 -1.6 3.2 -2.05 3.45 -4.4 3.65 -6.7 3.35 Q-6.8 3.25 -6.95 3.25 M-1.1 3.55 L-0.95 2.85 Q-0.3 2.75 -0.25 2.3 L3.85 2.75 Q4.55 2.95 4.55 3.6 L4.55 3.65 3.85 4.3 Q3.15 4.8 1.8 4.8 0.25 4.8 -0.25 4.25 L-1.1 3.55 M4.05 2.35 L4.0 2.55 2.3 2.2 2.2 2.1 4.05 2.35 M-0.6 1.45 Q-1.0 0.85 -1.0 0.3 L-1.0 0.15 -0.95 0.1 1.9 -0.1 Q3.2 -0.1 3.85 0.55 L4.0 0.75 4.0 1.0 4.15 1.0 4.35 1.8 3.4 1.55 0.65 1.35 -0.4 1.35 -0.6 1.45 M-21.65 -2.7 L-21.6 -2.55 Q-21.6 -1.4 -25.55 2.75 L-28.65 6.05 -30.25 7.65 -30.55 7.75 -31.2 7.9 -31.3 7.1 -31.1 5.5 -31.05 5.5 -29.4 3.35 Q-28.75 2.3 -28.75 1.25 L-28.75 0.7 Q-28.3 -0.4 -26.8 -1.9 -24.95 -3.75 -23.6 -3.75 -23.05 -3.75 -22.3 -3.25 L-21.65 -2.7 M-21.3 -2.45 Q-20.95 -2.45 -20.7 -2.8 L-19.65 -3.2 -21.4 -0.7 -23.95 2.25 -27.35 5.75 -29.35 7.9 Q-29.6 7.6 -29.95 7.6 L-27.7 5.55 -25.4 2.9 -23.25 0.5 Q-21.5 -1.65 -21.4 -2.45 L-21.3 -2.45 M-6.75 1.5 L-6.6 0.55 -6.5 0.35 Q-5.95 -0.45 -4.3 -0.45 L-1.75 0.0 -1.6 0.0 -1.6 0.15 -1.8 1.3 Q-2.4 0.2 -4.45 0.6 -6.6 1.0 -6.75 1.5 M-6.75 1.8 L-6.75 1.65 -6.7 1.8 -6.75 1.8" fill="#4e5a5c" fill-rule="evenodd" stroke="none"/>
      <path d="M-7.15 3.2 L-6.95 3.25 Q-6.8 3.25 -6.7 3.35 L-4.4 3.65 -2.05 3.45 -1.6 3.2 -1.55 3.2 -1.3 3.45 -1.55 3.75 -1.55 4.1 -1.5 4.1 -1.5 5.4 -4.35 5.75 Q-6.45 5.75 -6.95 5.1 L-7.1 4.15 -7.1 3.95 Q-7.2 3.85 -7.25 3.85 L-7.3 3.8 -7.3 3.2 -7.15 3.2 M4.75 4.3 L4.45 4.55 4.3 5.1 Q3.95 6.2 3.15 6.2 0.1 6.2 -0.75 5.65 L-1.1 5.2 -1.1 4.7 -1.2 4.7 -1.25 4.35 -1.25 4.2 -1.3 4.05 -1.3 3.5 -1.1 3.55 -0.25 4.25 Q0.25 4.8 1.8 4.8 3.15 4.8 3.85 4.3 L4.55 3.65 4.6 3.6 4.75 3.7 4.85 3.9 4.75 4.3 M4.3 2.35 L4.25 2.35 4.05 2.35 2.2 2.1 2.3 2.2 -0.25 2.1 -0.35 1.85 -0.55 1.85 -0.65 1.6 -0.6 1.45 -0.4 1.35 0.65 1.35 3.4 1.55 4.35 1.8 4.55 1.9 4.6 2.05 4.55 2.3 4.3 2.35 M-6.75 1.5 Q-6.6 1.0 -4.45 0.6 -2.4 0.2 -1.8 1.3 L-1.65 1.65 -1.7 1.75 -1.9 1.85 -1.9 1.9 -3.0 1.75 -4.35 1.75 -5.7 1.8 -6.0 1.9 -6.5 2.25 -6.75 2.5 -6.75 1.8 -6.7 1.8 -6.75 1.65 -6.8 1.6 -6.75 1.5" fill="#2b3233" fill-rule="evenodd" stroke="none"/>
      <path d="M-1.55 2.0 L-1.4 1.75 -1.35 -0.9 Q-1.2 -0.55 -1.2 0.65 L-0.85 1.6 -0.5 2.2 Q-0.45 2.6 -1.2 2.6 L-1.3 2.6 -1.45 2.6 -1.6 2.5 -1.6 2.55 -1.75 2.45 -1.75 2.25 -1.7 2.15 -1.55 2.0" fill="#5f707a" fill-rule="evenodd" stroke="none"/>
    </g>
  </defs>
</svg>
