<?xml version="1.0" encoding="UTF-8" standalone="no"?>
<svg xmlns:xlink="http://www.w3.org/1999/xlink" height="140.4px" width="326.1px" xmlns="http://www.w3.org/2000/svg">
  <g transform="matrix(6.0, 0.0, 0.0, 6.0, 57.6, 79.2)">
    <use height="5.6" transform="matrix(1.0, 0.0, 0.0, 1.0, -6.6, -2.8)" width="6.5" xlink:href="#shape0"/>
    <use height="5.1" transform="matrix(1.0, 0.0, 0.0, 1.0, 4.65, -2.9)" width="20.9" xlink:href="#shape1"/>
    <use height="14.45" transform="matrix(1.0, 0.0, 0.0, 1.0, -4.65, -10.1)" width="11.05" xlink:href="#shape2"/>
    <use height="23.4" transform="matrix(1.0, 0.0, 0.0, 1.0, 19.4, -13.2)" width="25.35" xlink:href="#shape3"/>
  </g>
  <defs>
    <g id="shape0" transform="matrix(1.0, 0.0, 0.0, 1.0, 6.6, 2.8)">
      <path d="M-5.3 -2.55 L-5.6 -1.9 -6.15 -1.9 -6.15 -2.2 -6.2 -2.25 -6.25 -2.35 -6.2 -2.45 -6.15 -2.55 -5.3 -2.55 M-4.75 -2.1 L-4.8 -2.05 -4.85 -1.95 -4.8 -1.8 -4.8 1.5 -4.8 1.6 -4.8 2.05 -4.9 2.55 -6.15 2.55 -6.15 2.45 -6.15 2.3 -6.15 -1.6 Q-4.95 -1.45 -5.1 -2.55 L-4.75 -2.55 -4.75 -2.45 -4.75 -2.1" fill="#3c5430" fill-rule="evenodd" stroke="none"/>
      <path d="M-4.75 -2.1 L-4.75 -2.45 -4.75 -2.55 -5.1 -2.55 Q-4.95 -1.45 -6.15 -1.6 L-6.15 2.3 -6.15 2.45 -6.15 2.55 -4.9 2.55 -4.8 2.05 -4.8 1.6 -4.8 1.5 -4.8 -1.8 -4.85 -1.95 -4.8 -2.05 -4.75 -2.1 M-5.3 -2.55 L-6.15 -2.55 -6.2 -2.45 -6.25 -2.35 -6.2 -2.25 -6.15 -2.2 -6.15 -1.9 -5.6 -1.9 -5.3 -2.55 M-6.35 -2.8 L-6.3 -2.8 -4.55 -2.75 -4.5 -2.7 -4.45 -2.7 -4.5 -2.55 -4.45 -2.15 -1.15 -2.2 -1.05 -2.25 -0.95 -2.25 -0.85 -2.3 -0.75 -2.2 Q-0.55 -2.2 -0.45 -2.0 L-0.45 -1.95 -0.45 -1.9 -0.5 -1.9 -0.55 -1.85 -0.6 -1.85 -0.6 -1.75 -0.6 -1.7 -0.85 -1.4 -0.7 -1.4 -0.65 -1.35 -0.6 -1.3 -0.65 -1.25 -0.65 -1.2 -0.75 -1.2 -0.9 -1.15 -0.95 -1.15 -1.05 -1.15 Q-2.75 -0.95 -4.4 -1.1 L-4.45 -1.1 -4.5 -1.0 -4.5 -0.95 -4.5 1.3 -0.8 1.35 -0.75 1.3 -0.7 1.3 -0.6 1.35 -0.35 1.35 -0.35 1.4 -0.3 1.4 -0.3 1.5 -0.35 1.55 -0.45 1.55 -0.4 1.7 -0.35 1.75 -0.35 1.9 -0.35 1.95 -0.45 2.1 -0.2 2.1 -0.15 2.15 -0.1 2.15 -0.15 2.3 -0.25 2.3 -4.55 2.25 -4.55 2.3 -4.55 2.4 -4.55 2.55 -4.5 2.6 -4.45 2.65 -4.5 2.75 -4.6 2.75 -6.2 2.75 -6.45 2.7 -6.5 2.7 -6.6 2.7 -6.6 2.65 -6.45 2.5 -6.45 2.45 -6.45 2.4 -6.45 -1.85 -6.45 -2.0 -6.6 -2.15 -6.45 -2.6 -6.5 -2.6 -6.5 -2.65 -6.35 -2.8 M-4.45 -1.75 L-4.45 -1.45 -4.4 -1.45 -4.35 -1.5 -1.15 -1.4 -1.1 -1.6 -1.05 -1.7 -0.9 -1.85 -0.95 -1.95 -1.0 -1.9 -1.05 -1.85 -4.45 -1.95 -4.45 -1.85 -4.45 -1.8 -4.45 -1.75 M-0.85 2.0 L-0.75 1.9 -0.7 1.85 -0.75 1.6 -4.5 1.6 -4.5 2.05 -4.45 2.05 -0.85 2.1 -0.85 2.0" fill="#000000" fill-rule="evenodd" stroke="none"/>
      <path d="M-0.85 2.0 L-0.85 2.1 -4.45 2.05 -4.5 2.05 -4.5 1.6 -0.75 1.6 -0.7 1.85 -0.75 1.9 -0.85 2.0 M-4.45 -1.75 L-4.45 -1.8 -4.45 -1.85 -4.45 -1.95 -1.05 -1.85 -1.0 -1.9 -0.95 -1.95 -0.9 -1.85 -1.05 -1.7 -1.1 -1.6 -1.15 -1.4 -4.35 -1.5 -4.4 -1.45 -4.45 -1.45 -4.45 -1.75" fill="#afafaf" fill-rule="evenodd" stroke="none"/>
    </g>
    <g id="shape1" transform="matrix(1.0, 0.0, 0.0, 1.0, -4.65, 2.9)">
      <path d="M4.8 -1.35 L4.85 -1.7 5.7 -1.8 5.7 -1.9 5.75 -1.95 5.8 -1.95 Q5.75 -2.5 5.95 -2.85 L5.95 -2.9 6.0 -2.85 6.05 -2.8 6.1 -1.9 6.2 -1.8 6.25 -1.8 6.45 -1.75 6.5 -1.7 6.55 -1.7 6.55 -1.65 19.45 -1.6 19.45 -1.75 19.35 -1.75 19.4 -1.85 19.5 -2.05 20.15 -2.55 20.2 -2.55 20.3 -2.65 20.8 -2.6 20.9 -2.6 20.9 -2.55 20.95 -2.5 21.05 -2.5 21.1 -2.25 21.0 -2.25 21.05 -2.2 21.15 -2.2 21.4 -1.95 21.3 -1.95 21.25 -1.9 21.3 -1.9 21.5 -1.9 22.3 -1.85 22.85 -1.85 23.8 -1.85 23.9 -1.85 24.3 -1.85 23.9 -1.85 23.9 -1.9 24.45 -2.1 24.55 -2.2 24.6 -2.25 24.85 -2.6 25.25 -2.55 25.3 -2.55 25.4 -2.5 25.45 -2.3 25.45 -2.25 25.45 1.95 25.55 2.0 25.45 2.05 25.45 2.1 25.3 2.15 24.65 1.95 24.7 1.85 24.7 1.75 21.2 1.7 21.15 1.9 21.15 1.95 21.15 2.05 20.45 2.15 20.4 2.1 20.3 2.0 20.25 1.95 20.2 1.95 20.15 1.9 20.15 1.8 19.8 1.6 19.7 1.6 19.55 1.6 19.45 1.4 19.45 1.35 19.4 1.35 19.25 1.25 18.6 1.1 18.45 1.1 18.35 1.15 18.15 1.05 17.55 1.1 17.55 1.05 17.25 1.05 8.95 1.1 6.3 1.1 6.25 1.2 6.15 1.25 6.1 1.85 6.1 1.9 5.9 1.9 5.9 1.6 5.8 1.55 5.8 1.45 5.85 1.4 5.85 1.3 4.9 1.25 Q4.5 0.5 4.7 -0.4 L4.8 -1.35 M6.0 -1.45 L5.1 -1.4 5.0 -0.45 Q4.9 0.3 5.05 0.95 L5.2 1.0 Q5.45 0.75 5.8 0.8 L5.8 0.35 5.8 0.2 5.9 0.15 5.95 0.1 6.0 0.15 6.0 0.1 6.05 0.15 6.15 0.15 6.2 0.15 6.35 0.8 9.05 0.85 9.05 0.8 18.7 0.85 19.15 0.85 19.45 0.85 19.5 0.85 19.55 0.8 19.65 0.9 19.7 0.85 19.75 0.8 Q20.05 1.0 19.95 1.35 L19.85 1.4 19.85 1.45 19.9 1.4 Q20.25 1.45 20.45 1.75 L20.6 1.85 20.85 1.8 20.85 1.75 20.9 1.6 20.95 1.55 21.05 1.4 21.05 1.35 21.15 1.3 21.35 1.4 24.8 1.4 24.95 1.55 25.0 1.6 25.0 1.75 25.05 1.8 25.2 1.85 25.3 -2.2 25.25 -2.25 25.2 -2.3 25.15 -2.25 25.05 -2.25 24.95 -2.25 24.9 -2.15 24.85 -2.1 24.65 -1.9 24.65 -1.8 24.55 -1.65 24.35 -1.6 21.25 -1.65 21.15 -1.65 21.0 -1.65 Q20.8 -1.75 20.65 -1.95 L20.65 -2.0 20.7 -2.05 20.65 -2.3 20.4 -2.3 19.9 -1.85 19.85 -1.75 19.85 -1.65 19.75 -1.45 19.75 -1.4 19.5 -1.4 6.15 -1.35 6.0 -1.45 M23.95 0.3 L20.7 0.0 20.65 -0.1 20.6 -0.1 20.7 -0.5 Q20.8 -0.7 21.05 -0.75 L21.05 -0.8 21.1 -0.85 21.15 -0.85 21.9 -1.0 24.8 -0.55 24.85 -0.5 24.9 -0.45 24.85 -0.4 24.85 -0.35 24.8 -0.2 24.35 0.1 24.1 0.15 24.1 0.2 24.1 0.25 23.95 0.3 M20.95 -0.15 L20.95 -0.1 24.35 -0.2 24.4 -0.3 24.45 -0.3 Q24.25 -0.55 23.65 -0.6 L21.85 -0.7 21.75 -0.65 21.4 -0.65 21.25 -0.55 20.95 -0.4 20.9 -0.35 20.9 -0.25 20.95 -0.15 M18.65 1.1 L18.6 1.1 18.65 1.1" fill="#000000" fill-rule="evenodd" stroke="none"/>
      <path d="M6.0 -1.45 L6.15 -1.35 19.5 -1.4 19.75 -1.4 19.75 -1.45 19.85 -1.65 19.85 -1.75 19.9 -1.85 20.4 -2.3 20.65 -2.3 20.7 -2.05 20.65 -2.0 20.65 -1.95 Q20.8 -1.75 21.0 -1.65 L21.15 -1.65 21.25 -1.65 24.35 -1.6 24.55 -1.65 24.65 -1.8 24.65 -1.9 24.85 -2.1 24.9 -2.15 24.95 -2.25 25.05 -2.25 25.15 -2.25 25.2 -2.3 25.25 -2.25 25.3 -2.2 25.2 1.85 25.05 1.8 25.0 1.75 25.0 1.6 24.95 1.55 24.8 1.4 21.35 1.4 21.15 1.3 21.05 1.35 21.05 1.4 20.95 1.55 20.9 1.6 20.85 1.75 20.85 1.8 20.6 1.85 20.45 1.75 Q20.25 1.45 19.9 1.4 L19.85 1.45 19.85 1.4 19.95 1.35 Q20.05 1.0 19.75 0.8 L19.7 0.85 19.65 0.9 19.55 0.8 19.5 0.85 19.45 0.85 19.15 0.85 18.7 0.85 9.05 0.8 9.05 0.85 6.35 0.8 6.2 0.15 6.15 0.15 6.05 0.15 6.0 0.1 6.0 0.15 5.95 0.1 5.9 0.15 5.8 0.2 5.8 0.35 5.8 0.8 Q5.45 0.75 5.2 1.0 L5.05 0.95 Q4.9 0.3 5.0 -0.45 L5.1 -1.4 6.0 -1.45 M17.0 -1.05 L16.4 -1.05 16.05 -1.1 16.05 -1.05 16.0 -1.05 6.4 -1.1 6.4 -1.05 6.25 -0.95 6.25 -0.9 6.4 -0.8 15.95 -0.85 16.3 -0.75 16.55 -0.8 16.55 -0.85 17.3 -0.85 17.3 -0.8 17.55 -0.75 17.6 -0.8 17.6 -0.85 17.8 -0.85 17.8 -0.7 Q17.95 -0.5 18.1 -0.7 L18.1 -0.75 18.25 -0.6 18.3 -0.65 18.5 -0.7 18.75 -0.7 18.85 -0.7 18.9 -0.7 19.05 -0.7 19.2 -0.65 19.45 -0.7 19.9 -0.75 19.95 -0.8 20.1 -0.9 20.1 -1.0 20.15 -1.05 20.2 -1.25 20.4 -1.25 20.45 -1.25 20.55 -1.35 20.65 -1.55 20.65 -1.75 20.6 -1.75 20.3 -1.9 20.25 -1.85 19.95 -1.7 19.9 -1.55 19.95 -1.4 19.8 -1.2 19.8 -1.1 19.75 -1.1 19.7 -1.05 19.4 -1.05 19.3 -1.1 19.25 -1.05 19.2 -1.05 19.1 -1.1 19.05 -1.05 19.05 -1.1 17.15 -1.25 17.0 -1.1 17.0 -1.05 M18.1 -0.8 L18.1 -0.85 18.15 -0.85 18.1 -0.8 M24.1 0.25 L24.1 0.2 24.1 0.15 24.35 0.1 24.8 -0.2 24.85 -0.35 24.85 -0.4 24.9 -0.45 24.85 -0.5 24.8 -0.55 21.9 -1.0 21.15 -0.85 21.1 -0.85 21.05 -0.8 21.05 -0.75 Q20.8 -0.7 20.7 -0.5 L20.6 -0.1 20.65 -0.1 20.7 0.0 23.95 0.3 23.0 0.55 Q23.95 0.8 24.8 0.15 L24.65 0.0 24.1 0.25 M23.2 -1.15 L23.2 -1.1 23.35 -1.05 24.8 -1.1 24.9 -1.1 24.95 -1.2 25.05 -1.7 25.05 -1.75 24.95 -1.8 24.9 -1.75 24.65 -1.35 24.65 -1.3 23.95 -1.3 24.0 -1.35 23.85 -1.5 23.0 -1.25 23.2 -1.15" fill="#333333" fill-rule="evenodd" stroke="none"/>
      <path d="M20.2 -1.25 L20.15 -1.05 20.1 -1.0 20.1 -0.9 19.95 -0.8 19.9 -0.75 19.45 -0.7 19.2 -0.65 19.05 -0.7 18.9 -0.7 18.85 -0.7 18.75 -0.7 18.5 -0.7 18.3 -0.65 18.25 -0.6 18.1 -0.75 18.1 -0.7 Q17.95 -0.5 17.8 -0.7 L17.8 -0.85 17.6 -0.85 17.6 -0.8 17.55 -0.75 17.3 -0.8 17.3 -0.85 16.55 -0.85 16.55 -0.8 16.3 -0.75 15.95 -0.85 6.4 -0.8 6.25 -0.9 6.25 -0.95 6.4 -1.05 6.4 -1.1 16.0 -1.05 16.05 -1.05 16.05 -1.1 16.4 -1.05 17.0 -1.05 19.05 -0.9 19.1 -1.0 19.05 -1.05 19.1 -1.1 19.2 -1.05 19.25 -1.05 19.3 -1.1 19.4 -1.05 19.7 -1.05 19.75 -1.1 19.8 -1.1 19.8 -1.2 19.95 -1.4 20.2 -1.25 M18.1 -0.8 L18.15 -0.85 18.1 -0.85 18.1 -0.8 M23.95 -1.3 L24.65 -1.3 24.65 -1.35 24.9 -1.75 24.95 -1.8 25.05 -1.75 25.05 -1.7 24.95 -1.2 24.9 -1.1 24.8 -1.1 23.35 -1.05 23.2 -1.1 23.2 -1.15 23.95 -1.3" fill="#c1c1c1" fill-rule="evenodd" stroke="none"/>
      <path d="M17.0 -1.05 L17.0 -1.1 17.15 -1.25 19.05 -1.1 19.05 -1.05 19.1 -1.0 19.05 -0.9 17.0 -1.05 M19.95 -1.4 L19.9 -1.55 19.95 -1.7 20.25 -1.85 20.3 -1.9 20.6 -1.75 20.65 -1.75 20.65 -1.55 20.55 -1.35 20.45 -1.25 20.4 -1.25 20.2 -1.25 19.95 -1.4 M24.1 0.25 L24.65 0.0 24.8 0.15 Q23.95 0.8 23.0 0.55 L23.95 0.3 24.1 0.25 M23.2 -1.15 L23.0 -1.25 23.85 -1.5 24.0 -1.35 23.95 -1.3 23.2 -1.15" fill="#fcfcfc" fill-rule="evenodd" stroke="none"/>
    </g>
    <g id="shape2" transform="matrix(1.0, 0.0, 0.0, 1.0, 4.65, 10.1)">
      <path d="M0.35 -9.45 L0.45 -9.5 Q1.35 -9.3 1.95 -8.7 L2.05 -8.6 2.1 -8.6 1.95 -8.3 1.95 -8.25 Q1.4 -7.7 0.7 -7.55 L0.55 -7.65 -3.3 -7.75 -3.3 -7.7 -3.55 -7.75 -3.55 -9.3 -3.55 -9.35 -3.45 -9.4 -3.4 -9.45 -3.35 -9.4 -3.3 -9.45 -3.25 -9.45 0.3 -9.35 0.35 -9.45 M1.75 -8.55 L1.3 -8.85 0.65 -9.15 0.55 -9.15 -3.3 -9.15 -3.3 -7.95 0.75 -7.9 0.8 -7.9 1.2 -8.0 1.75 -8.5 1.75 -8.55 M0.8 -7.1 L0.85 -7.1 0.9 -7.15 1.2 -7.0 1.25 -7.0 2.05 -6.6 2.1 -6.6 2.2 -6.35 2.2 -6.15 1.9 -5.95 1.6 -5.6 1.5 -5.5 0.7 -5.3 0.25 -5.15 0.15 -5.2 0.1 -5.3 -3.35 -5.3 -3.4 -5.3 -3.45 -5.25 -3.65 -5.3 Q-3.8 -6.25 -3.45 -6.95 L-3.65 -7.1 -3.65 -7.2 -3.6 -7.25 -3.5 -7.3 -3.4 -7.3 -3.35 -7.35 0.7 -7.25 0.75 -7.2 0.8 -7.2 0.8 -7.1 M1.2 -6.75 L0.8 -6.95 0.75 -7.0 Q0.7 -6.9 0.55 -6.9 L0.4 -6.9 -0.45 -6.95 -1.6 -6.9 -3.25 -6.95 -3.4 -5.6 -3.4 -5.55 -3.35 -5.55 -3.35 -5.6 0.25 -5.6 0.3 -5.55 0.4 -5.5 0.45 -5.5 0.55 -5.55 0.6 -5.55 Q1.35 -5.75 1.95 -6.2 L1.9 -6.25 1.85 -6.4 1.35 -6.7 1.2 -6.75 M0.5 -4.7 L1.95 -4.1 2.0 -4.05 2.15 -3.95 2.2 -3.8 2.2 -3.75 2.2 -3.7 Q1.55 -3.05 0.85 -2.9 L0.8 -2.85 0.7 -2.8 -3.6 -2.85 -3.65 -2.9 -3.7 -2.95 -3.7 -4.45 -3.7 -4.55 -3.65 -4.55 -3.65 -4.6 -3.5 -4.75 0.45 -4.7 0.5 -4.7 M0.4 -4.5 L-3.45 -4.55 -3.4 -3.2 -3.4 -3.1 0.55 -3.05 1.35 -3.35 1.85 -3.8 0.45 -4.5 0.4 -4.5" fill="#000000" fill-rule="evenodd" stroke="none"/>
      <path d="M1.75 -8.55 L1.75 -8.5 1.2 -8.0 0.8 -7.9 0.75 -7.9 -3.3 -7.95 -3.3 -9.15 0.55 -9.15 0.65 -9.15 1.3 -8.85 1.75 -8.55 M1.15 -8.7 L0.65 -9.0 0.6 -8.95 0.55 -8.95 -2.35 -9.1 -3.1 -8.95 -3.15 -8.95 -3.25 -8.9 -3.25 -8.85 -3.2 -8.8 0.55 -8.6 0.75 -8.65 Q0.85 -8.55 1.05 -8.5 L1.15 -8.6 1.2 -8.65 1.15 -8.7 M0.4 -6.9 L0.55 -6.9 Q0.7 -6.9 0.75 -7.0 L0.8 -6.95 1.2 -6.75 1.05 -6.8 1.0 -6.75 0.95 -6.75 0.95 -6.7 0.4 -6.9 M1.35 -6.7 L1.85 -6.4 1.9 -6.25 1.95 -6.2 Q1.35 -5.75 0.6 -5.55 L0.55 -5.55 0.45 -5.5 0.4 -5.5 0.3 -5.55 0.25 -5.6 -3.35 -5.6 -3.4 -5.6 -3.25 -6.95 -1.6 -6.9 -3.05 -6.65 -1.5 -6.55 -0.5 -6.55 0.95 -6.6 1.45 -6.5 1.45 -6.55 1.35 -6.7 M0.6 -4.15 L0.5 -4.2 -2.9 -4.4 -3.0 -4.35 -3.05 -4.35 -3.2 -4.3 -3.25 -4.25 -3.2 -4.1 0.45 -4.0 0.5 -4.05 0.6 -4.15 M0.7 -4.05 L1.25 -3.75 1.45 -3.75 1.45 -3.8 Q1.35 -4.2 0.85 -4.2 L0.7 -4.1 0.7 -4.05 M0.4 -4.5 L0.45 -4.5 1.85 -3.8 1.35 -3.35 0.55 -3.05 -3.4 -3.1 -3.4 -3.2 -3.45 -4.55 0.4 -4.5" fill="#666666" fill-rule="evenodd" stroke="none"/>
      <path d="M1.15 -8.7 L1.2 -8.65 1.15 -8.6 1.05 -8.5 Q0.85 -8.55 0.75 -8.65 L0.55 -8.6 -3.2 -8.8 -3.25 -8.85 -3.25 -8.9 -3.15 -8.95 -3.1 -8.95 -2.35 -9.1 0.55 -8.95 0.6 -8.95 0.65 -9.0 1.15 -8.7 M0.4 -6.9 L0.95 -6.7 0.95 -6.75 1.0 -6.75 1.05 -6.8 1.2 -6.75 1.35 -6.7 1.45 -6.55 1.45 -6.5 0.95 -6.6 -0.5 -6.55 -1.5 -6.55 -3.05 -6.65 -1.6 -6.9 -0.45 -6.95 0.4 -6.9 M0.7 -4.05 L0.7 -4.1 0.85 -4.2 Q1.35 -4.2 1.45 -3.8 L1.45 -3.75 1.25 -3.75 0.7 -4.05 M0.6 -4.15 L0.5 -4.05 0.45 -4.0 -3.2 -4.1 -3.25 -4.25 -3.2 -4.3 -3.05 -4.35 -3.0 -4.35 -2.9 -4.4 0.5 -4.2 0.6 -4.15" fill="#e3e3e3" fill-rule="evenodd" stroke="none"/>
      <path d="M5.95 1.3 L6.15 1.4 6.1 1.9 6.1 2.45 6.25 2.6 6.25 2.8 6.2 2.8 6.0 2.8 5.95 2.8 5.15 2.85 4.95 3.75 4.9 3.85 4.75 3.85 4.7 3.8 4.05 3.8 3.95 4.15 4.0 4.15 4.05 4.15 4.0 4.3 3.95 4.3 3.8 4.3 -2.25 4.35 -2.4 4.2 -2.9 3.45 -3.1 3.1 -3.45 2.85 -3.45 2.8 -4.3 2.8 -4.35 2.8 -4.35 2.85 -4.4 3.15 -4.65 3.15 -4.65 -2.75 -4.65 -3.0 -4.55 -3.05 -4.45 -3.15 -2.8 -3.15 -2.9 -9.0 -2.8 -9.75 -2.8 -9.85 -2.75 -9.9 -2.65 -10.1 -2.6 -10.05 -2.55 -10.0 0.25 -9.9 0.3 -9.85 0.3 -9.75 0.3 -9.7 0.35 -3.85 0.3 -3.15 5.85 -3.1 5.85 -3.15 5.95 -3.2 6.0 -3.25 6.05 -3.2 6.1 -3.15 6.1 -3.1 6.15 -3.1 Q6.1 -3.0 6.2 -2.9 L6.1 -2.9 6.1 -2.55 6.0 -2.3 Q5.95 -2.0 6.15 -1.8 L6.15 0.3 6.1 0.3 6.0 0.35 5.95 0.35 5.85 0.3 5.85 0.35 5.9 0.35 5.85 0.35 5.85 0.4 5.55 0.45 5.5 0.55 5.5 0.7 5.05 0.7 4.7 0.65 4.25 0.6 3.55 1.5 3.55 1.55 3.5 1.65 3.45 1.7 3.4 1.75 3.3 1.75 0.3 1.7 0.25 2.55 0.25 2.6 5.75 2.55 5.8 2.5 5.85 2.45 5.85 1.7 5.95 1.65 5.95 1.6 5.95 1.3 M6.05 0.45 L6.05 0.4 6.1 0.45 6.2 0.3 6.25 0.25 6.4 0.4 6.4 0.45 Q6.25 0.65 6.1 0.45 L6.05 0.55 6.05 0.45 M-2.5 -3.15 L0.05 -3.15 -0.05 -8.95 0.1 -9.65 -2.55 -9.6 -2.55 -4.1 -2.45 -3.35 -2.5 -3.15 M-3.6 -2.4 L-3.55 -2.35 -3.5 -2.3 0.95 -2.25 0.85 -2.75 0.85 -2.85 -4.4 -2.85 -4.35 2.6 0.05 2.6 0.05 2.55 0.1 -0.15 -3.85 -0.15 -4.0 -0.3 -3.85 -0.45 -3.85 -1.8 -3.85 -1.85 -3.75 -1.9 -3.7 -2.1 -3.8 -2.1 -3.8 -2.15 -3.65 -2.3 -3.6 -2.3 -3.6 -2.35 -3.6 -2.4 M-3.65 -0.45 L1.8 -0.4 Q1.7 -1.25 1.9 -2.05 L1.05 -2.05 -3.5 -2.1 Q-3.45 -1.55 -3.55 -1.05 L-3.6 -1.0 -3.6 -0.95 -3.65 -0.45 M1.3 -2.7 L1.3 -2.6 1.25 -2.5 1.2 -2.45 1.25 -2.35 1.3 -2.3 1.3 -2.25 1.95 -2.25 1.95 -2.3 2.0 -2.35 2.1 -2.25 2.15 -2.2 2.15 -2.1 2.05 -0.4 2.3 -0.4 2.4 -0.35 2.45 -0.35 2.4 -0.2 2.35 -0.2 0.25 -0.15 0.3 1.55 0.4 1.5 2.85 1.55 Q2.85 1.4 3.0 1.45 L3.0 1.4 3.3 1.45 3.4 1.15 3.45 1.1 3.5 1.05 3.55 1.05 Q3.75 0.5 4.25 0.25 L4.25 0.2 4.3 0.15 4.45 0.3 4.7 0.3 5.7 0.2 5.8 0.25 5.85 0.3 5.85 -2.9 1.3 -2.85 1.3 -2.7 M4.3 2.85 L-2.9 2.8 -2.45 3.5 -2.4 3.65 -2.3 3.8 -2.2 3.9 -2.2 4.05 3.7 4.1 3.75 3.75 3.75 3.65 4.2 3.05 4.2 3.0 4.3 2.85 M4.55 3.05 L4.3 3.45 4.4 3.45 4.4 3.4 4.55 3.4 4.7 3.5 4.75 3.05 4.55 3.05" fill="#000000" fill-rule="evenodd" stroke="none"/>
      <path d="M1.3 -2.7 L1.3 -2.85 5.85 -2.9 5.85 0.3 5.8 0.25 5.7 0.2 4.7 0.3 4.45 0.3 4.3 0.15 4.25 0.2 4.25 0.25 Q3.75 0.5 3.55 1.05 L3.5 1.05 3.45 1.1 3.4 1.15 3.3 1.45 3.0 1.4 3.0 1.45 Q2.85 1.4 2.85 1.55 L0.4 1.5 0.3 1.55 0.25 -0.15 2.35 -0.2 2.4 -0.2 2.45 -0.35 2.4 -0.35 2.3 -0.4 2.05 -0.4 2.15 -2.1 2.15 -2.2 2.1 -2.25 2.0 -2.35 1.95 -2.3 1.95 -2.25 1.3 -2.25 1.3 -2.3 1.25 -2.35 1.2 -2.45 1.25 -2.5 1.3 -2.6 1.3 -2.7" fill="#3c5430" fill-rule="evenodd" stroke="none"/>
      <path d="M-2.75 -1.8 L-2.85 -1.8 -2.95 -1.8 -3.0 -1.75 -3.05 -1.75 -3.1 -1.7 -3.15 -1.65 -3.15 -1.55 Q-0.85 -1.1 1.55 -1.55 L1.55 -1.65 1.5 -1.7 1.45 -1.7 1.45 -1.75 1.35 -1.8 1.3 -1.8 -2.3 -1.9 -2.7 -1.85 -2.75 -1.8 M-3.65 -0.45 L-3.6 -0.95 -3.6 -1.0 -3.55 -1.05 Q-3.45 -1.55 -3.5 -2.1 L1.05 -2.05 1.9 -2.05 Q1.7 -1.25 1.8 -0.4 L-3.65 -0.45" fill="#afafaf" fill-rule="evenodd" stroke="none"/>
      <path d="M-2.75 -1.8 L-2.7 -1.85 -2.3 -1.9 1.3 -1.8 1.35 -1.8 1.45 -1.75 1.45 -1.7 1.5 -1.7 1.55 -1.65 1.55 -1.55 Q-0.85 -1.1 -3.15 -1.55 L-3.15 -1.65 -3.1 -1.7 -3.05 -1.75 -3.0 -1.75 -2.95 -1.8 -2.85 -1.8 -2.75 -1.8" fill="#e7e7e7" fill-rule="evenodd" stroke="none"/>
      <path d="M-3.6 -2.4 L-3.6 -2.35 -3.6 -2.3 -3.65 -2.3 -3.8 -2.15 -3.8 -2.1 -3.7 -2.1 -3.75 -1.9 -3.85 -1.85 -3.85 -1.8 -3.85 -0.45 -4.0 -0.3 -3.85 -0.15 0.1 -0.15 0.05 2.55 0.05 2.6 -4.35 2.6 -4.4 -2.85 0.85 -2.85 0.85 -2.75 0.95 -2.25 -3.5 -2.3 -3.55 -2.35 -3.6 -2.4" fill="#516123" fill-rule="evenodd" stroke="none"/>
      <path d="M5.85 0.4 L5.9 0.35 6.0 0.45 6.05 0.45 6.05 0.55 5.95 1.3 5.95 1.6 5.95 1.65 5.85 1.7 5.85 2.45 5.8 2.5 5.75 2.55 0.25 2.6 0.25 2.55 0.3 1.7 3.3 1.75 3.4 1.75 3.45 1.7 3.5 1.65 3.55 1.55 3.55 1.5 4.25 0.6 4.7 0.65 5.05 0.7 5.5 0.7 5.5 0.55 5.55 0.45 5.85 0.4 M-2.5 -3.15 L-2.45 -3.35 -2.55 -4.1 -2.55 -9.6 0.1 -9.65 -0.05 -8.95 0.05 -3.15 -2.5 -3.15 M4.3 2.85 L4.2 3.0 4.2 3.05 3.75 3.65 3.75 3.75 3.7 4.1 -2.2 4.05 -2.2 3.9 -2.3 3.8 -2.4 3.65 -2.45 3.5 -2.9 2.8 4.3 2.85" fill="#517212" fill-rule="evenodd" stroke="none"/>
      <path d="M4.55 3.05 L4.75 3.05 4.7 3.5 4.55 3.4 4.4 3.4 4.4 3.45 4.3 3.45 4.55 3.05" fill="#f9f900" fill-rule="evenodd" stroke="none"/>
    </g>
    <g id="shape3" transform="matrix(1.0, 0.0, 0.0, 1.0, -19.4, 13.2)">
      <path d="M19.45 -3.6 L19.55 -3.65 20.55 -3.15 20.6 -3.1 21.2 -2.7 21.25 -2.8 Q20.8 -4.15 20.7 -5.45 L20.65 -5.8 Q20.4 -6.25 20.4 -6.75 L20.45 -6.8 20.5 -6.75 20.6 -6.75 20.6 -6.7 20.65 -6.65 20.7 -6.65 20.95 -5.8 21.35 -5.3 21.4 -5.25 21.3 -5.15 21.3 -5.1 21.8 -4.15 21.85 -4.1 22.15 -4.0 22.25 -4.2 22.2 -4.2 22.05 -4.35 22.5 -6.0 22.8 -9.55 22.85 -9.6 22.85 -10.25 22.85 -11.3 22.85 -11.75 22.9 -12.25 22.9 -13.15 22.95 -13.2 23.0 -13.15 23.05 -13.15 23.1 -12.5 23.7 -6.7 23.7 -6.15 23.85 -6.0 23.9 -5.95 24.2 -4.55 24.8 -5.8 25.0 -5.6 25.0 -5.55 25.05 -5.5 24.9 -3.9 25.15 -2.9 25.2 -2.9 25.4 -2.75 25.0 -2.4 24.8 -2.35 23.9 -1.55 22.95 -1.45 23.25 -0.9 23.3 -0.9 24.2 -1.25 24.45 -0.95 24.8 -0.85 24.85 -0.6 24.95 -0.5 24.95 -0.45 25.0 -0.4 25.45 -0.6 25.6 -0.5 25.6 -0.45 Q25.15 -0.05 24.6 0.0 L24.45 0.0 23.7 0.0 23.65 -0.1 23.6 -0.15 23.4 -0.2 23.2 0.45 23.1 0.85 Q22.55 0.9 22.55 0.3 L22.55 0.1 22.3 0.5 22.1 0.55 22.1 0.5 22.05 0.45 22.05 0.4 22.1 0.25 22.1 0.1 21.1 0.0 20.65 0.0 20.45 -0.15 20.5 -0.2 19.45 -0.25 19.45 -0.3 19.5 -0.4 21.75 -0.7 21.6 -0.9 21.15 -1.35 21.15 -1.4 21.25 -1.45 21.3 -1.5 Q21.95 -1.15 22.6 -1.15 L22.6 -1.5 Q21.8 -1.6 21.1 -1.95 L21.2 -2.05 21.25 -2.1 21.2 -2.15 20.85 -2.35 20.9 -2.4 20.8 -2.5 20.35 -2.85 19.4 -3.5 19.45 -3.6 M21.3 -2.05 L21.3 -2.1 21.25 -2.1 21.3 -2.05 M28.95 -5.6 L29.0 -5.7 29.1 -5.65 29.15 -5.6 28.95 -4.55 28.95 -4.45 29.0 -4.4 29.05 -4.35 28.9 -3.9 29.05 -3.95 29.15 -3.9 29.2 -3.85 29.4 -3.8 30.2 -4.25 30.35 -4.15 30.35 -4.1 29.7 -3.45 29.65 -3.4 29.65 -3.35 29.8 -3.3 29.8 -3.25 29.85 -3.15 29.85 -3.1 30.5 -3.0 30.55 -2.95 30.65 -2.9 30.7 -2.85 30.15 -2.1 32.95 -1.75 33.0 -1.75 33.05 -1.8 38.95 -1.15 39.15 -1.1 39.2 -1.15 39.4 -1.1 39.45 -1.1 39.45 -1.05 40.2 -0.9 40.2 -0.95 40.25 -0.95 40.3 -1.0 40.35 -1.0 40.45 -0.95 40.85 -0.9 43.2 -0.7 43.8 -0.8 43.95 -0.7 43.95 -0.65 44.75 -0.55 43.7 -0.4 43.2 -0.3 42.1 -0.3 40.15 -0.3 34.7 0.75 32.85 1.1 32.15 1.25 29.55 1.7 29.95 2.35 30.0 2.45 29.3 2.45 29.4 2.55 29.2 2.75 28.9 2.9 28.85 2.85 28.75 2.75 28.75 2.7 28.55 2.5 28.5 2.45 28.05 2.1 27.9 2.25 28.05 3.05 28.1 3.25 28.35 3.6 Q28.1 3.75 27.9 3.45 L27.7 3.5 27.6 3.55 27.1 3.1 25.65 1.55 25.6 1.4 Q25.75 0.9 26.35 0.7 L26.4 0.7 26.55 0.8 26.6 0.8 26.55 0.75 26.55 0.7 25.7 0.1 25.7 0.05 25.75 0.0 25.8 0.0 25.8 -0.3 25.8 -0.35 26.6 -1.05 25.7 -1.75 25.65 -1.75 Q25.45 -1.7 25.45 -1.85 L25.4 -1.85 Q25.35 -2.25 25.7 -2.65 L25.85 -2.8 25.95 -2.75 25.95 -2.8 26.0 -2.75 26.05 -2.75 27.25 -3.8 27.2 -3.85 27.15 -3.95 27.2 -4.0 Q28.25 -4.6 28.9 -5.65 L28.95 -5.6 M37.4 -1.0 L37.55 -1.0 37.4 -1.0 M36.3 -0.05 L36.3 0.0 36.3 -0.05 M25.85 1.5 L25.8 1.55 25.75 1.55 26.1 1.85 25.9 1.45 25.85 1.5 M25.5 3.25 L25.85 3.95 25.85 4.0 25.75 4.05 25.65 4.0 24.5 2.3 24.0 4.1 23.65 7.05 23.6 7.75 23.6 8.4 23.6 9.1 23.55 9.15 23.35 9.1 23.35 8.85 23.2 8.75 23.25 8.5 23.15 8.45 23.1 8.3 23.15 8.45 23.15 8.75 23.35 10.1 23.3 10.15 23.1 10.1 22.8 8.05 22.7 7.95 22.3 3.7 21.35 5.75 21.2 5.7 21.4 4.75 21.35 4.75 Q21.2 4.8 21.15 4.65 L21.6 2.4 21.35 2.65 21.3 2.7 21.05 2.7 20.7 3.15 20.4 3.5 20.25 3.55 20.2 3.4 20.8 2.5 20.75 2.4 21.3 1.35 21.4 1.45 21.85 1.25 21.95 1.35 22.0 1.4 22.0 1.45 22.05 1.45 22.05 1.5 23.15 1.35 24.2 1.25 24.55 1.3 24.6 1.35 24.65 1.3 24.7 1.3 24.75 1.35 24.9 1.35 24.95 1.4 24.9 1.55 25.5 3.15 25.5 3.25" fill="#ffffff" fill-rule="evenodd" stroke="none"/>
    </g>
  </defs>
</svg>
