<?xml version="1.0" encoding="UTF-8" standalone="no"?>
<svg xmlns:xlink="http://www.w3.org/1999/xlink" height="140.4px" width="326.1px" xmlns="http://www.w3.org/2000/svg">
  <g transform="matrix(6.0, 0.0, 0.0, 6.0, 57.6, 79.2)">
    <use height="5.6" transform="matrix(1.0, 0.0, 0.0, 1.0, -6.6, -2.8)" width="6.5" xlink:href="#shape0"/>
    <use height="5.1" transform="matrix(1.0, 0.0, 0.0, 1.0, 1.55, -2.9)" width="20.9" xlink:href="#shape1"/>
    <use height="14.45" transform="matrix(1.0, 0.0, 0.0, 1.0, -4.65, -10.1)" width="11.05" xlink:href="#shape2"/>
    <use height="7.05" transform="matrix(1.0, 0.0, 0.0, 1.0, 24.1, -3.8)" width="13.35" xlink:href="#sprite0"/>
  </g>
  <defs>
    <g id="shape0" transform="matrix(1.0, 0.0, 0.0, 1.0, 6.6, 2.8)">
      <path d="M-5.3 -2.55 L-5.6 -1.9 -6.15 -1.9 -6.15 -2.2 -6.2 -2.25 -6.25 -2.35 -6.2 -2.45 -6.15 -2.55 -5.3 -2.55 M-4.75 -2.1 L-4.8 -2.05 -4.85 -1.95 -4.8 -1.8 -4.8 1.5 -4.8 1.6 -4.8 2.05 -4.9 2.55 -6.15 2.55 -6.15 2.45 -6.15 2.3 -6.15 -1.6 Q-4.95 -1.45 -5.1 -2.55 L-4.75 -2.55 -4.75 -2.45 -4.75 -2.1" fill="#3c5430" fill-rule="evenodd" stroke="none"/>
      <path d="M-4.75 -2.1 L-4.75 -2.45 -4.75 -2.55 -5.1 -2.55 Q-4.95 -1.45 -6.15 -1.6 L-6.15 2.3 -6.15 2.45 -6.15 2.55 -4.9 2.55 -4.8 2.05 -4.8 1.6 -4.8 1.5 -4.8 -1.8 -4.85 -1.95 -4.8 -2.05 -4.75 -2.1 M-5.3 -2.55 L-6.15 -2.55 -6.2 -2.45 -6.25 -2.35 -6.2 -2.25 -6.15 -2.2 -6.15 -1.9 -5.6 -1.9 -5.3 -2.55 M-6.35 -2.8 L-6.3 -2.8 -4.55 -2.75 -4.5 -2.7 -4.45 -2.7 -4.5 -2.55 -4.45 -2.15 -1.15 -2.2 -1.05 -2.25 -0.95 -2.25 -0.85 -2.3 -0.75 -2.2 Q-0.55 -2.2 -0.45 -2.0 L-0.45 -1.95 -0.45 -1.9 -0.5 -1.9 -0.55 -1.85 -0.6 -1.85 -0.6 -1.75 -0.6 -1.7 -0.85 -1.4 -0.7 -1.4 -0.65 -1.35 -0.6 -1.3 -0.65 -1.25 -0.65 -1.2 -0.75 -1.2 -0.9 -1.15 -0.95 -1.15 -1.05 -1.15 Q-2.75 -0.95 -4.4 -1.1 L-4.45 -1.1 -4.5 -1.0 -4.5 -0.95 -4.5 1.3 -0.8 1.35 -0.75 1.3 -0.7 1.3 -0.6 1.35 -0.35 1.35 -0.35 1.4 -0.3 1.4 -0.3 1.5 -0.35 1.55 -0.45 1.55 -0.4 1.7 -0.35 1.75 -0.35 1.9 -0.35 1.95 -0.45 2.1 -0.2 2.1 -0.15 2.15 -0.1 2.15 -0.15 2.3 -0.25 2.3 -4.55 2.25 -4.55 2.3 -4.55 2.4 -4.55 2.55 -4.5 2.6 -4.45 2.65 -4.5 2.75 -4.6 2.75 -6.2 2.75 -6.45 2.7 -6.5 2.7 -6.6 2.7 -6.6 2.65 -6.45 2.5 -6.45 2.45 -6.45 2.4 -6.45 -1.85 -6.45 -2.0 -6.6 -2.15 -6.45 -2.6 -6.5 -2.6 -6.5 -2.65 -6.35 -2.8 M-4.45 -1.75 L-4.45 -1.45 -4.4 -1.45 -4.35 -1.5 -1.15 -1.4 -1.1 -1.6 -1.05 -1.7 -0.9 -1.85 -0.95 -1.95 -1.0 -1.9 -1.05 -1.85 -4.45 -1.95 -4.45 -1.85 -4.45 -1.8 -4.45 -1.75 M-0.85 2.0 L-0.75 1.9 -0.7 1.85 -0.75 1.6 -4.5 1.6 -4.5 2.05 -4.45 2.05 -0.85 2.1 -0.85 2.0" fill="#000000" fill-rule="evenodd" stroke="none"/>
      <path d="M-0.85 2.0 L-0.85 2.1 -4.45 2.05 -4.5 2.05 -4.5 1.6 -0.75 1.6 -0.7 1.85 -0.75 1.9 -0.85 2.0 M-4.45 -1.75 L-4.45 -1.8 -4.45 -1.85 -4.45 -1.95 -1.05 -1.85 -1.0 -1.9 -0.95 -1.95 -0.9 -1.85 -1.05 -1.7 -1.1 -1.6 -1.15 -1.4 -4.35 -1.5 -4.4 -1.45 -4.45 -1.45 -4.45 -1.75" fill="#afafaf" fill-rule="evenodd" stroke="none"/>
    </g>
    <g id="shape1" transform="matrix(1.0, 0.0, 0.0, 1.0, -1.05, 2.9)">
      <path d="M1.2 -1.35 L1.25 -1.7 2.1 -1.8 2.1 -1.9 2.15 -1.95 2.2 -1.95 Q2.15 -2.5 2.35 -2.85 L2.35 -2.9 2.4 -2.85 2.45 -2.8 2.5 -1.9 2.6 -1.8 2.65 -1.8 2.85 -1.75 2.9 -1.7 2.95 -1.7 2.95 -1.65 15.85 -1.6 15.85 -1.75 15.75 -1.75 15.8 -1.85 15.9 -2.05 16.55 -2.55 16.6 -2.55 16.7 -2.65 17.2 -2.6 17.3 -2.6 17.3 -2.55 17.35 -2.5 17.45 -2.5 17.5 -2.25 17.4 -2.25 17.45 -2.2 17.55 -2.2 17.8 -1.95 17.7 -1.95 17.65 -1.9 17.7 -1.9 17.9 -1.9 18.7 -1.85 19.25 -1.85 20.2 -1.85 20.3 -1.85 20.7 -1.85 20.3 -1.85 20.3 -1.9 20.85 -2.1 20.95 -2.2 21.0 -2.25 21.25 -2.6 21.65 -2.55 21.7 -2.55 21.8 -2.5 21.85 -2.3 21.85 -2.25 21.85 1.95 21.95 2.0 21.85 2.05 21.85 2.1 21.7 2.15 Q21.35 2.2 21.05 1.95 L21.1 1.85 21.1 1.75 17.6 1.7 17.55 1.9 17.55 1.95 17.55 2.05 16.85 2.15 16.8 2.1 16.7 2.0 16.65 1.95 16.6 1.95 16.55 1.9 16.55 1.8 16.2 1.6 16.1 1.6 15.95 1.6 15.85 1.4 15.85 1.35 15.8 1.35 15.65 1.25 15.0 1.1 14.85 1.1 14.75 1.15 14.55 1.05 13.95 1.1 13.95 1.05 13.65 1.05 5.35 1.1 2.7 1.1 2.65 1.2 2.55 1.25 2.5 1.85 2.5 1.9 2.3 1.9 2.3 1.6 2.2 1.55 2.2 1.45 2.25 1.4 2.25 1.3 1.3 1.25 Q0.9 0.5 1.1 -0.4 L1.2 -1.35 M2.4 -1.45 L1.5 -1.4 1.4 -0.45 1.45 0.95 1.6 1.0 Q1.85 0.75 2.2 0.8 L2.2 0.35 2.2 0.2 2.3 0.15 2.35 0.1 2.4 0.15 2.4 0.1 2.45 0.15 2.55 0.15 2.6 0.15 2.75 0.8 5.45 0.85 5.45 0.8 15.1 0.85 15.55 0.85 15.85 0.85 15.9 0.85 15.95 0.8 16.05 0.9 16.1 0.85 16.15 0.8 Q16.45 1.0 16.35 1.35 L16.25 1.4 16.25 1.45 16.3 1.4 Q16.65 1.45 16.85 1.75 L17.0 1.85 17.25 1.8 17.25 1.75 17.3 1.6 17.35 1.55 17.45 1.4 17.45 1.35 17.55 1.3 17.75 1.4 21.2 1.4 21.35 1.55 21.4 1.6 21.4 1.75 21.45 1.8 21.6 1.85 21.7 -2.2 21.65 -2.25 21.6 -2.3 21.55 -2.25 21.45 -2.25 21.35 -2.25 21.3 -2.15 21.25 -2.1 21.05 -1.9 21.05 -1.8 20.95 -1.65 20.75 -1.6 17.65 -1.65 17.55 -1.65 17.4 -1.65 17.05 -1.95 17.05 -2.0 17.1 -2.05 17.05 -2.3 16.8 -2.3 16.3 -1.85 16.25 -1.75 16.25 -1.65 16.15 -1.45 16.15 -1.4 15.9 -1.4 2.55 -1.35 2.4 -1.45 M20.35 0.3 Q18.65 0.65 17.1 0.0 L17.05 -0.1 17.0 -0.1 17.1 -0.5 17.45 -0.75 17.45 -0.8 17.5 -0.85 17.55 -0.85 18.3 -1.0 21.2 -0.55 21.25 -0.5 21.3 -0.45 21.25 -0.4 21.25 -0.35 21.2 -0.2 20.75 0.1 20.5 0.15 20.5 0.2 20.5 0.25 20.35 0.3 M17.35 -0.15 L17.35 -0.1 20.75 -0.2 20.8 -0.3 20.85 -0.3 Q20.65 -0.55 20.05 -0.6 L18.25 -0.7 18.15 -0.65 17.8 -0.65 17.65 -0.55 17.35 -0.4 17.3 -0.35 17.3 -0.25 17.35 -0.15 M15.05 1.1 L15.0 1.1 15.05 1.1" fill="#000000" fill-rule="evenodd" stroke="none"/>
      <path d="M13.4 -1.05 L12.8 -1.05 12.45 -1.1 12.45 -1.05 12.4 -1.05 2.8 -1.1 2.8 -1.05 2.65 -0.95 2.65 -0.9 2.8 -0.8 12.35 -0.85 12.7 -0.75 12.95 -0.8 12.95 -0.85 13.7 -0.85 13.7 -0.8 Q13.8 -0.6 13.95 -0.75 L14.0 -0.8 14.0 -0.85 14.2 -0.85 14.2 -0.7 Q14.35 -0.5 14.5 -0.7 L14.5 -0.75 14.65 -0.6 14.7 -0.65 14.9 -0.7 15.15 -0.7 15.25 -0.7 15.3 -0.7 15.45 -0.7 15.6 -0.65 Q15.7 -0.5 15.85 -0.7 L16.3 -0.75 16.35 -0.8 16.5 -0.9 16.5 -1.0 16.55 -1.05 16.6 -1.25 16.8 -1.25 16.85 -1.25 16.95 -1.35 17.05 -1.55 17.05 -1.75 17.0 -1.75 16.7 -1.9 16.65 -1.85 16.35 -1.7 16.3 -1.55 16.35 -1.4 16.2 -1.2 16.2 -1.1 16.15 -1.1 16.1 -1.05 15.8 -1.05 15.7 -1.1 15.65 -1.05 15.6 -1.05 15.5 -1.1 15.45 -1.05 15.45 -1.1 13.55 -1.25 13.4 -1.1 13.4 -1.05 M2.4 -1.45 L2.55 -1.35 15.9 -1.4 16.15 -1.4 16.15 -1.45 16.25 -1.65 16.25 -1.75 16.3 -1.85 16.8 -2.3 17.05 -2.3 17.1 -2.05 17.05 -2.0 17.05 -1.95 17.4 -1.65 17.55 -1.65 17.65 -1.65 20.75 -1.6 20.95 -1.65 21.05 -1.8 21.05 -1.9 21.25 -2.1 21.3 -2.15 21.35 -2.25 21.45 -2.25 21.55 -2.25 21.6 -2.3 21.65 -2.25 21.7 -2.2 21.6 1.85 21.45 1.8 21.4 1.75 21.4 1.6 21.35 1.55 21.2 1.4 17.75 1.4 17.55 1.3 17.45 1.35 17.45 1.4 17.35 1.55 17.3 1.6 17.25 1.75 17.25 1.8 17.0 1.85 16.85 1.75 Q16.65 1.45 16.3 1.4 L16.25 1.45 16.25 1.4 16.35 1.35 Q16.45 1.0 16.15 0.8 L16.1 0.85 16.05 0.9 15.95 0.8 15.9 0.85 15.85 0.85 15.55 0.85 15.1 0.85 5.45 0.8 5.45 0.85 2.75 0.8 2.6 0.15 2.55 0.15 2.45 0.15 2.4 0.1 2.4 0.15 2.35 0.1 2.3 0.15 2.2 0.2 2.2 0.35 2.2 0.8 Q1.85 0.75 1.6 1.0 L1.45 0.95 1.4 -0.45 1.5 -1.4 2.4 -1.45 M14.5 -0.8 L14.5 -0.85 14.55 -0.85 14.5 -0.8 M20.5 0.25 L20.5 0.2 20.5 0.15 20.75 0.1 21.2 -0.2 21.25 -0.35 21.25 -0.4 21.3 -0.45 21.25 -0.5 21.2 -0.55 18.3 -1.0 17.55 -0.85 17.5 -0.85 17.45 -0.8 17.45 -0.75 17.1 -0.5 17.0 -0.1 17.05 -0.1 17.1 0.0 Q18.65 0.65 20.35 0.3 L19.4 0.55 Q20.35 0.8 21.2 0.15 L21.05 0.0 20.5 0.25 M19.6 -1.15 L19.6 -1.1 19.75 -1.05 21.2 -1.1 21.3 -1.1 21.35 -1.2 21.45 -1.7 21.45 -1.75 21.35 -1.8 21.3 -1.75 21.05 -1.35 21.05 -1.3 20.35 -1.3 20.4 -1.35 20.25 -1.5 19.4 -1.25 19.6 -1.15" fill="#333333" fill-rule="evenodd" stroke="none"/>
      <path d="M16.6 -1.25 L16.55 -1.05 16.5 -1.0 16.5 -0.9 16.35 -0.8 16.3 -0.75 15.85 -0.7 Q15.7 -0.5 15.6 -0.65 L15.45 -0.7 15.3 -0.7 15.25 -0.7 15.15 -0.7 14.9 -0.7 14.7 -0.65 14.65 -0.6 14.5 -0.75 14.5 -0.7 Q14.35 -0.5 14.2 -0.7 L14.2 -0.85 14.0 -0.85 14.0 -0.8 13.95 -0.75 Q13.8 -0.6 13.7 -0.8 L13.7 -0.85 12.95 -0.85 12.95 -0.8 12.7 -0.75 12.35 -0.85 2.8 -0.8 2.65 -0.9 2.65 -0.95 2.8 -1.05 2.8 -1.1 12.4 -1.05 12.45 -1.05 12.45 -1.1 12.8 -1.05 13.4 -1.05 15.45 -0.9 15.5 -1.0 15.45 -1.05 15.5 -1.1 15.6 -1.05 15.65 -1.05 15.7 -1.1 15.8 -1.05 16.1 -1.05 16.15 -1.1 16.2 -1.1 16.2 -1.2 16.35 -1.4 16.6 -1.25 M14.5 -0.8 L14.55 -0.85 14.5 -0.85 14.5 -0.8 M20.35 -1.3 L21.05 -1.3 21.05 -1.35 21.3 -1.75 21.35 -1.8 21.45 -1.75 21.45 -1.7 21.35 -1.2 21.3 -1.1 21.2 -1.1 19.75 -1.05 19.6 -1.1 19.6 -1.15 Q20.0 -1.05 20.35 -1.3" fill="#c1c1c1" fill-rule="evenodd" stroke="none"/>
      <path d="M13.4 -1.05 L13.4 -1.1 13.55 -1.25 15.45 -1.1 15.45 -1.05 15.5 -1.0 15.45 -0.9 13.4 -1.05 M16.35 -1.4 L16.3 -1.55 16.35 -1.7 16.65 -1.85 16.7 -1.9 17.0 -1.75 17.05 -1.75 17.05 -1.55 16.95 -1.35 16.85 -1.25 16.8 -1.25 16.6 -1.25 16.35 -1.4 M20.5 0.25 L21.05 0.0 21.2 0.15 Q20.35 0.8 19.4 0.55 L20.35 0.3 20.5 0.25 M19.6 -1.15 L19.4 -1.25 20.25 -1.5 20.4 -1.35 20.35 -1.3 Q20.0 -1.05 19.6 -1.15" fill="#fcfcfc" fill-rule="evenodd" stroke="none"/>
    </g>
    <g id="shape2" transform="matrix(1.0, 0.0, 0.0, 1.0, 4.65, 10.1)">
      <path d="M0.35 -9.45 L0.45 -9.5 Q1.35 -9.3 1.95 -8.7 L2.05 -8.6 2.1 -8.6 1.95 -8.3 1.95 -8.25 Q1.4 -7.7 0.7 -7.55 L0.55 -7.65 -3.3 -7.75 -3.3 -7.7 -3.55 -7.75 -3.55 -9.3 -3.55 -9.35 -3.45 -9.4 -3.4 -9.45 -3.35 -9.4 -3.3 -9.45 -3.25 -9.45 0.3 -9.35 0.35 -9.45 M1.75 -8.55 L1.3 -8.85 0.65 -9.15 0.55 -9.15 -3.3 -9.15 -3.3 -7.95 0.75 -7.9 0.8 -7.9 1.2 -8.0 1.75 -8.5 1.75 -8.55 M0.8 -7.1 L0.85 -7.1 0.9 -7.15 1.2 -7.0 1.25 -7.0 2.05 -6.6 2.1 -6.6 2.2 -6.35 2.2 -6.15 1.9 -5.95 1.6 -5.6 1.5 -5.5 0.7 -5.3 0.25 -5.15 0.15 -5.2 0.1 -5.3 -3.35 -5.3 -3.4 -5.3 -3.45 -5.25 -3.65 -5.3 Q-3.8 -6.25 -3.45 -6.95 L-3.65 -7.1 -3.65 -7.2 -3.6 -7.25 -3.5 -7.3 -3.4 -7.3 -3.35 -7.35 0.7 -7.25 0.75 -7.2 0.8 -7.2 0.8 -7.1 M1.2 -6.75 L0.8 -6.95 0.75 -7.0 Q0.7 -6.9 0.55 -6.9 L0.4 -6.9 -0.45 -6.95 -1.6 -6.9 -3.25 -6.95 -3.4 -5.6 -3.4 -5.55 -3.35 -5.55 -3.35 -5.6 0.25 -5.6 0.3 -5.55 0.4 -5.5 0.45 -5.5 0.55 -5.55 0.6 -5.55 Q1.35 -5.75 1.95 -6.2 L1.9 -6.25 1.85 -6.4 1.35 -6.7 1.2 -6.75 M0.5 -4.7 L1.95 -4.1 2.0 -4.05 2.15 -3.95 2.2 -3.8 2.2 -3.75 2.2 -3.7 Q1.55 -3.05 0.85 -2.9 L0.8 -2.85 0.7 -2.8 -3.6 -2.85 -3.65 -2.9 -3.7 -2.95 -3.7 -4.45 -3.7 -4.55 -3.65 -4.55 -3.65 -4.6 -3.5 -4.75 0.45 -4.7 0.5 -4.7 M0.4 -4.5 L-3.45 -4.55 -3.4 -3.2 -3.4 -3.1 0.55 -3.05 1.35 -3.35 1.85 -3.8 0.45 -4.5 0.4 -4.5" fill="#000000" fill-rule="evenodd" stroke="none"/>
      <path d="M1.75 -8.55 L1.75 -8.5 1.2 -8.0 0.8 -7.9 0.75 -7.9 -3.3 -7.95 -3.3 -9.15 0.55 -9.15 0.65 -9.15 1.3 -8.85 1.75 -8.55 M1.15 -8.7 L0.65 -9.0 0.6 -8.95 0.55 -8.95 -2.35 -9.1 -3.1 -8.95 -3.15 -8.95 -3.25 -8.9 -3.25 -8.85 -3.2 -8.8 0.55 -8.6 0.75 -8.65 Q0.85 -8.55 1.05 -8.5 L1.15 -8.6 1.2 -8.65 1.15 -8.7 M0.4 -6.9 L0.55 -6.9 Q0.7 -6.9 0.75 -7.0 L0.8 -6.95 1.2 -6.75 1.05 -6.8 1.0 -6.75 0.95 -6.75 0.95 -6.7 0.4 -6.9 M1.35 -6.7 L1.85 -6.4 1.9 -6.25 1.95 -6.2 Q1.35 -5.75 0.6 -5.55 L0.55 -5.55 0.45 -5.5 0.4 -5.5 0.3 -5.55 0.25 -5.6 -3.35 -5.6 -3.4 -5.6 -3.25 -6.95 -1.6 -6.9 -3.05 -6.65 -1.5 -6.55 -0.5 -6.55 0.95 -6.6 1.45 -6.5 1.45 -6.55 1.35 -6.7 M0.6 -4.15 L0.5 -4.2 -2.9 -4.4 -3.0 -4.35 -3.05 -4.35 -3.2 -4.3 -3.25 -4.25 -3.2 -4.1 0.45 -4.0 0.5 -4.05 0.6 -4.15 M0.7 -4.05 L1.25 -3.75 1.45 -3.75 1.45 -3.8 Q1.35 -4.2 0.85 -4.2 L0.7 -4.1 0.7 -4.05 M0.4 -4.5 L0.45 -4.5 1.85 -3.8 1.35 -3.35 0.55 -3.05 -3.4 -3.1 -3.4 -3.2 -3.45 -4.55 0.4 -4.5" fill="#666666" fill-rule="evenodd" stroke="none"/>
      <path d="M1.15 -8.7 L1.2 -8.65 1.15 -8.6 1.05 -8.5 Q0.85 -8.55 0.75 -8.65 L0.55 -8.6 -3.2 -8.8 -3.25 -8.85 -3.25 -8.9 -3.15 -8.95 -3.1 -8.95 -2.35 -9.1 0.55 -8.95 0.6 -8.95 0.65 -9.0 1.15 -8.7 M0.4 -6.9 L0.95 -6.7 0.95 -6.75 1.0 -6.75 1.05 -6.8 1.2 -6.75 1.35 -6.7 1.45 -6.55 1.45 -6.5 0.95 -6.6 -0.5 -6.55 -1.5 -6.55 -3.05 -6.65 -1.6 -6.9 -0.45 -6.95 0.4 -6.9 M0.7 -4.05 L0.7 -4.1 0.85 -4.2 Q1.35 -4.2 1.45 -3.8 L1.45 -3.75 1.25 -3.75 0.7 -4.05 M0.6 -4.15 L0.5 -4.05 0.45 -4.0 -3.2 -4.1 -3.25 -4.25 -3.2 -4.3 -3.05 -4.35 -3.0 -4.35 -2.9 -4.4 0.5 -4.2 0.6 -4.15" fill="#e3e3e3" fill-rule="evenodd" stroke="none"/>
      <path d="M5.95 1.3 L6.15 1.4 6.1 1.9 6.1 2.45 6.25 2.6 6.25 2.8 6.2 2.8 6.0 2.8 5.95 2.8 5.15 2.85 4.95 3.75 4.9 3.85 4.75 3.85 4.7 3.8 4.05 3.8 3.95 4.15 4.0 4.15 4.05 4.15 4.0 4.3 3.95 4.3 3.8 4.3 -2.25 4.35 -2.4 4.2 -2.9 3.45 -3.1 3.1 -3.45 2.85 -3.45 2.8 -4.3 2.8 -4.35 2.8 -4.35 2.85 -4.4 3.15 -4.65 3.15 -4.65 -2.75 -4.65 -3.0 -4.55 -3.05 -4.45 -3.15 -2.8 -3.15 -2.9 -9.0 -2.8 -9.75 -2.8 -9.85 -2.75 -9.9 -2.65 -10.1 -2.6 -10.05 -2.55 -10.0 0.25 -9.9 0.3 -9.85 0.3 -9.75 0.3 -9.7 0.35 -3.85 0.3 -3.15 5.85 -3.1 5.85 -3.15 5.95 -3.2 6.0 -3.25 6.05 -3.2 6.1 -3.15 6.1 -3.1 6.15 -3.1 Q6.1 -3.0 6.2 -2.9 L6.1 -2.9 6.1 -2.55 6.0 -2.3 Q5.95 -2.0 6.15 -1.8 L6.15 0.3 6.1 0.3 6.0 0.35 5.95 0.35 5.85 0.3 5.85 0.35 5.9 0.35 5.85 0.35 5.85 0.4 5.55 0.45 5.5 0.55 5.5 0.7 5.05 0.7 4.7 0.65 4.25 0.6 3.55 1.5 3.55 1.55 3.5 1.65 3.45 1.7 3.4 1.75 3.3 1.75 0.3 1.7 0.25 2.55 0.25 2.6 5.75 2.55 5.8 2.5 5.85 2.45 5.85 1.7 5.95 1.65 5.95 1.6 5.95 1.3 M6.05 0.45 L6.05 0.4 6.1 0.45 6.2 0.3 6.25 0.25 6.4 0.4 6.4 0.45 Q6.25 0.65 6.1 0.45 L6.05 0.55 6.05 0.45 M-2.5 -3.15 L0.05 -3.15 -0.05 -8.95 0.1 -9.65 -2.55 -9.6 -2.55 -4.1 -2.45 -3.35 -2.5 -3.15 M-3.6 -2.4 L-3.55 -2.35 -3.5 -2.3 0.95 -2.25 0.85 -2.75 0.85 -2.85 -4.4 -2.85 -4.35 2.6 0.05 2.6 0.05 2.55 0.1 -0.15 -3.85 -0.15 -4.0 -0.3 -3.85 -0.45 -3.85 -1.8 -3.85 -1.85 -3.75 -1.9 -3.7 -2.1 -3.8 -2.1 -3.8 -2.15 -3.65 -2.3 -3.6 -2.3 -3.6 -2.35 -3.6 -2.4 M-3.65 -0.45 L1.8 -0.4 Q1.7 -1.25 1.9 -2.05 L1.05 -2.05 -3.5 -2.1 Q-3.45 -1.55 -3.55 -1.05 L-3.6 -1.0 -3.6 -0.95 -3.65 -0.45 M1.3 -2.7 L1.3 -2.6 1.25 -2.5 1.2 -2.45 1.25 -2.35 1.3 -2.3 1.3 -2.25 1.95 -2.25 1.95 -2.3 2.0 -2.35 2.1 -2.25 2.15 -2.2 2.15 -2.1 2.05 -0.4 2.3 -0.4 2.4 -0.35 2.45 -0.35 2.4 -0.2 2.35 -0.2 0.25 -0.15 0.3 1.55 0.4 1.5 2.85 1.55 Q2.85 1.4 3.0 1.45 L3.0 1.4 3.3 1.45 3.4 1.15 3.45 1.1 3.5 1.05 3.55 1.05 Q3.75 0.5 4.25 0.25 L4.25 0.2 4.3 0.15 4.45 0.3 4.7 0.3 5.7 0.2 5.8 0.25 5.85 0.3 5.85 -2.9 1.3 -2.85 1.3 -2.7 M4.3 2.85 L-2.9 2.8 -2.45 3.5 -2.4 3.65 -2.3 3.8 -2.2 3.9 -2.2 4.05 3.7 4.1 3.75 3.75 3.75 3.65 4.2 3.05 4.2 3.0 4.3 2.85 M4.55 3.05 L4.3 3.45 4.4 3.45 4.4 3.4 4.55 3.4 4.7 3.5 4.75 3.05 4.55 3.05" fill="#000000" fill-rule="evenodd" stroke="none"/>
      <path d="M1.3 -2.7 L1.3 -2.85 5.85 -2.9 5.85 0.3 5.8 0.25 5.7 0.2 4.7 0.3 4.45 0.3 4.3 0.15 4.25 0.2 4.25 0.25 Q3.75 0.5 3.55 1.05 L3.5 1.05 3.45 1.1 3.4 1.15 3.3 1.45 3.0 1.4 3.0 1.45 Q2.85 1.4 2.85 1.55 L0.4 1.5 0.3 1.55 0.25 -0.15 2.35 -0.2 2.4 -0.2 2.45 -0.35 2.4 -0.35 2.3 -0.4 2.05 -0.4 2.15 -2.1 2.15 -2.2 2.1 -2.25 2.0 -2.35 1.95 -2.3 1.95 -2.25 1.3 -2.25 1.3 -2.3 1.25 -2.35 1.2 -2.45 1.25 -2.5 1.3 -2.6 1.3 -2.7" fill="#3c5430" fill-rule="evenodd" stroke="none"/>
      <path d="M-2.75 -1.8 L-2.85 -1.8 -2.95 -1.8 -3.0 -1.75 -3.05 -1.75 -3.1 -1.7 -3.15 -1.65 -3.15 -1.55 Q-0.85 -1.1 1.55 -1.55 L1.55 -1.65 1.5 -1.7 1.45 -1.7 1.45 -1.75 1.35 -1.8 1.3 -1.8 -2.3 -1.9 -2.7 -1.85 -2.75 -1.8 M-3.65 -0.45 L-3.6 -0.95 -3.6 -1.0 -3.55 -1.05 Q-3.45 -1.55 -3.5 -2.1 L1.05 -2.05 1.9 -2.05 Q1.7 -1.25 1.8 -0.4 L-3.65 -0.45" fill="#afafaf" fill-rule="evenodd" stroke="none"/>
      <path d="M-2.75 -1.8 L-2.7 -1.85 -2.3 -1.9 1.3 -1.8 1.35 -1.8 1.45 -1.75 1.45 -1.7 1.5 -1.7 1.55 -1.65 1.55 -1.55 Q-0.85 -1.1 -3.15 -1.55 L-3.15 -1.65 -3.1 -1.7 -3.05 -1.75 -3.0 -1.75 -2.95 -1.8 -2.85 -1.8 -2.75 -1.8" fill="#e7e7e7" fill-rule="evenodd" stroke="none"/>
      <path d="M-3.6 -2.4 L-3.6 -2.35 -3.6 -2.3 -3.65 -2.3 -3.8 -2.15 -3.8 -2.1 -3.7 -2.1 -3.75 -1.9 -3.85 -1.85 -3.85 -1.8 -3.85 -0.45 -4.0 -0.3 -3.85 -0.15 0.1 -0.15 0.05 2.55 0.05 2.6 -4.35 2.6 -4.4 -2.85 0.85 -2.85 0.85 -2.75 0.95 -2.25 -3.5 -2.3 -3.55 -2.35 -3.6 -2.4" fill="#516123" fill-rule="evenodd" stroke="none"/>
      <path d="M5.85 0.4 L5.9 0.35 6.0 0.45 6.05 0.45 6.05 0.55 5.95 1.3 5.95 1.6 5.95 1.65 5.85 1.7 5.85 2.45 5.8 2.5 5.75 2.55 0.25 2.6 0.25 2.55 0.3 1.7 3.3 1.75 3.4 1.75 3.45 1.7 3.5 1.65 3.55 1.55 3.55 1.5 4.25 0.6 4.7 0.65 5.05 0.7 5.5 0.7 5.5 0.55 5.55 0.45 5.85 0.4 M-2.5 -3.15 L-2.45 -3.35 -2.55 -4.1 -2.55 -9.6 0.1 -9.65 -0.05 -8.95 0.05 -3.15 -2.5 -3.15 M4.3 2.85 L4.2 3.0 4.2 3.05 3.75 3.65 3.75 3.75 3.7 4.1 -2.2 4.05 -2.2 3.9 -2.3 3.8 -2.4 3.65 -2.45 3.5 -2.9 2.8 4.3 2.85" fill="#517212" fill-rule="evenodd" stroke="none"/>
      <path d="M4.55 3.05 L4.75 3.05 4.7 3.5 4.55 3.4 4.4 3.4 4.4 3.45 4.3 3.45 4.55 3.05" fill="#f9f900" fill-rule="evenodd" stroke="none"/>
    </g>
    <g id="sprite0" transform="matrix(1.0, 0.0, 0.0, 1.0, 0.0, 0.0)">
      <use height="7.05" transform="matrix(1.0, 0.0, 0.0, 1.0, 0.0, 0.0)" width="13.35" xlink:href="#shape3"/>
    </g>
    <g id="shape3" transform="matrix(1.0, 0.0, 0.0, 1.0, 0.0, 0.0)">
      <path d="M0.7 3.15 Q0.95 2.95 1.25 2.9 L3.35 1.8 3.75 1.1 3.55 0.85 3.5 0.85 3.6 0.7 3.65 0.7 3.8 0.75 3.85 0.7 4.05 0.65 4.1 0.65 5.5 0.95 7.05 0.95 7.0 0.9 7.05 0.85 7.1 0.8 7.15 0.75 Q7.8 0.8 8.3 0.25 L8.7 0.0 Q9.4 0.0 9.9 0.4 L10.1 0.3 10.4 0.2 Q12.7 0.65 13.25 2.9 13.75 4.75 12.25 5.8 L11.35 6.2 10.85 6.3 Q9.65 7.3 7.85 7.0 L6.6 6.7 6.55 6.65 6.65 6.65 6.6 6.6 Q5.3 7.05 3.95 6.2 L3.65 5.85 3.65 5.7 3.45 5.5 3.45 5.65 3.2 5.65 Q2.95 5.9 2.65 5.85 L2.55 5.75 2.55 5.7 3.55 4.95 3.6 4.9 Q2.05 4.0 0.3 3.9 L0.25 3.95 0.2 3.95 Q0.05 4.0 0.0 3.85 L0.25 3.55 0.2 3.5 0.2 3.45 0.45 3.25 0.45 3.2 0.7 3.15 M3.7 5.3 L3.65 5.35 3.85 5.5 3.85 5.4 3.8 5.35 3.7 5.3" fill="#cccccc" fill-opacity="0.32941177" fill-rule="evenodd" stroke="none"/>
    </g>
  </defs>
</svg>
