<?xml version="1.0" encoding="UTF-8" standalone="no"?>
<svg xmlns:xlink="http://www.w3.org/1999/xlink" height="590.1px" width="575.7px" xmlns="http://www.w3.org/2000/svg">
  <g transform="matrix(6.0, 0.0, 0.0, 6.0, 249.6, 396.6)">
    <use height="17.65" transform="matrix(0.7627, -0.4372, 0.5788, 0.8164, -3.65, -4.1)" width="10.2" xlink:href="#sprite0"/>
    <use height="25.55" transform="matrix(1.1838, -0.0414, -0.0094, 1.0006, 3.45, -1.9)" width="13.45" xlink:href="#sprite1"/>
    <use height="17.85" transform="matrix(0.9346, -0.3415, 0.3415, 0.9346, 0.8696, -19.4975)" width="14.2" xlink:href="#sprite2"/>
    <use height="16.55" transform="matrix(-0.97, -0.1284, 0.0307, 0.9981, 11.55, -30.05)" width="13.0" xlink:href="#sprite3"/>
    <use height="13.1" transform="matrix(0.9359, -0.0088, 0.0272, 0.8838, -4.05, -32.15)" width="10.8" xlink:href="#sprite4"/>
    <use height="17.65" transform="matrix(0.8696, 0.1424, -0.0664, 1.0013, -6.1, -6.6)" width="10.2" xlink:href="#sprite0"/>
    <use height="25.55" transform="matrix(1.1817, 0.0622, -0.2646, 0.9853, -6.55, 1.85)" width="13.45" xlink:href="#sprite1"/>
    <use height="22.65" transform="matrix(0.9992, -0.0401, 0.0615, 0.9971, -12.35, -14.45)" width="21.5" xlink:href="#sprite5"/>
    <use height="18.45" transform="matrix(1.0008, -0.0094, 0.0307, 0.9981, -7.8, -25.85)" width="15.4" xlink:href="#sprite6"/>
    <use height="17.85" transform="matrix(0.147, -0.983, 0.9917, 0.1483, -7.5941, -15.8551)" width="14.2" xlink:href="#sprite2"/>
    <use height="16.55" transform="matrix(0.3089, -0.9474, 0.9474, 0.3089, -17.3, -17.15)" width="13.0" xlink:href="#sprite3"/>
    <use height="51.7" transform="matrix(0.8048, -0.5809, 0.5809, 0.8048, -38.971, -40.9598)" width="34.6" xlink:href="#sprite7"/>
  </g>
  <defs>
    <g id="sprite0" transform="matrix(1.0, 0.0, 0.0, 1.0, 0.0, 0.0)">
      <use height="17.65" transform="matrix(1.0, 0.0, 0.0, 1.0, 0.0, 0.0)" width="10.2" xlink:href="#shape0"/>
    </g>
    <g id="shape0" transform="matrix(1.0, 0.0, 0.0, 1.0, 0.0, 0.0)">
      <path d="M9.55 4.3 L9.6 4.45 9.65 6.6 9.8 6.55 10.1 6.5 10.2 6.55 10.2 6.6 9.65 6.85 9.7 7.45 Q9.9 11.15 8.55 14.2 7.85 15.7 6.5 17.0 2.95 18.5 1.0 16.55 L0.8 16.4 0.6 12.6 Q0.05 8.5 0.0 4.4 -0.05 2.3 0.45 0.25 L0.65 0.15 4.9 0.0 Q6.25 0.5 7.15 1.5 L9.55 4.3 M3.9 10.9 L3.95 10.85 4.65 10.75 4.8 10.8 Q6.1 10.45 6.25 11.25 L6.05 11.3 4.15 11.1 4.1 11.3 Q3.6 12.75 3.6 14.4 3.6 16.3 2.2 16.7 L2.4 16.4 Q3.6 15.3 3.55 13.45 3.55 12.15 3.9 10.9 M7.05 7.6 L7.0 9.5 6.0 12.95 5.55 13.8 5.7 13.85 Q5.95 13.9 5.95 14.0 L5.8 14.1 5.95 14.15 6.1 14.45 6.4 14.55 7.45 14.85 Q9.35 11.95 9.25 8.25 L9.2 7.25 7.05 7.55 7.05 7.6 M1.4 5.4 L1.45 5.35 2.3 5.25 2.3 5.3 3.0 5.4 3.1 5.4 3.15 5.45 4.0 5.65 4.05 5.55 Q4.25 5.5 4.15 5.6 L4.15 5.65 3.8 7.6 3.35 9.2 3.4 9.4 Q3.35 9.9 3.0 9.95 L3.0 9.85 3.0 9.8 Q1.9 9.95 0.9 9.5 L3.0 9.5 3.0 9.45 3.05 9.3 3.2 8.8 3.25 8.8 3.6 7.55 4.0 5.8 3.0 5.7 2.95 5.7 1.4 5.4 M1.0 0.8 Q0.85 0.8 0.75 1.0 L0.65 2.3 Q-0.1 5.95 0.4 9.85 0.8 13.2 1.5 16.4 L2.2 16.7 6.3 16.45 7.4 15.0 6.1 14.75 5.4 14.2 5.35 14.1 5.3 14.0 5.25 14.1 5.0 13.8 4.6 13.25 4.55 13.15 Q4.7 12.95 4.85 13.15 L5.25 13.65 5.3 13.7 6.15 11.65 6.25 11.25 6.65 8.25 6.9 7.25 6.95 7.2 9.2 7.1 9.5 7.1 9.15 7.05 9.15 6.8 9.1 6.75 9.15 6.75 Q8.6 2.85 4.9 0.65 L1.0 0.8" fill="#000000" fill-rule="evenodd" stroke="none"/>
      <path d="M1.0 0.8 L4.9 0.65 Q8.6 2.85 9.15 6.75 L9.1 6.75 9.15 6.8 9.15 7.05 9.5 7.1 9.2 7.1 6.95 7.2 6.9 7.25 6.65 8.25 6.25 11.25 6.15 11.65 5.3 13.7 5.25 13.65 4.85 13.15 Q4.7 12.95 4.55 13.15 L4.6 13.25 5.0 13.8 5.25 14.1 5.3 14.0 5.35 14.1 5.4 14.2 6.1 14.75 7.4 15.0 6.3 16.45 2.2 16.7 1.5 16.4 Q0.8 13.2 0.4 9.85 -0.1 5.95 0.65 2.3 L0.75 1.0 Q0.85 0.8 1.0 0.8 M1.4 5.4 L2.95 5.7 3.0 5.7 4.0 5.8 3.6 7.55 3.25 8.8 3.2 8.8 3.05 9.3 3.0 9.45 3.0 9.5 0.9 9.5 Q1.9 9.95 3.0 9.8 L3.0 9.85 3.0 9.95 Q3.35 9.9 3.4 9.4 L3.35 9.2 3.8 7.6 4.15 5.65 4.15 5.6 Q4.25 5.5 4.05 5.55 L4.0 5.65 3.15 5.45 3.1 5.4 3.0 5.4 2.3 5.3 2.3 5.25 1.45 5.35 1.4 5.4 M7.05 7.6 L7.05 7.55 9.2 7.25 9.25 8.25 Q9.35 11.95 7.45 14.85 L6.4 14.55 6.1 14.45 5.95 14.15 5.8 14.1 5.95 14.0 Q5.95 13.9 5.7 13.85 L5.55 13.8 6.0 12.95 7.0 9.5 7.05 7.6 M3.9 10.9 Q3.55 12.15 3.55 13.45 3.6 15.3 2.4 16.4 L2.2 16.7 Q3.6 16.3 3.6 14.4 3.6 12.75 4.1 11.3 L4.15 11.1 6.05 11.3 6.25 11.25 Q6.1 10.45 4.8 10.8 L4.65 10.75 3.95 10.85 3.9 10.9" fill="#292c32" fill-rule="evenodd" stroke="none"/>
    </g>
    <g id="sprite1" transform="matrix(1.0, 0.0, 0.0, 1.0, 0.0, 0.0)">
      <use height="25.55" transform="matrix(1.0, 0.0, 0.0, 1.0, 0.0, 0.0)" width="13.45" xlink:href="#shape1"/>
    </g>
    <g id="shape1" transform="matrix(1.0, 0.0, 0.0, 1.0, 0.0, 0.0)">
      <path d="M9.25 0.0 L9.7 1.1 Q11.25 10.4 10.65 19.85 L10.7 20.65 13.45 22.95 Q13.0 24.5 11.55 25.05 10.55 25.6 9.6 25.55 6.75 25.15 4.75 23.15 L4.25 23.1 3.65 22.55 3.2 23.2 1.4 22.95 Q0.4 20.75 0.2 18.15 L0.0 15.05 1.0 13.75 Q0.65 10.95 1.6 8.2 1.95 7.2 3.05 6.55 4.95 5.45 7.0 5.9 L9.25 0.0 M2.15 8.55 Q3.1 7.7 4.35 7.45 L6.0 7.3 6.85 6.15 Q4.8 6.25 3.25 7.35 2.55 7.8 2.15 8.55 M8.05 12.15 L8.25 12.45 9.05 9.2 Q10.1 5.35 9.25 1.65 8.45 4.05 8.15 6.55 7.75 9.55 7.85 12.65 L7.95 12.1 8.05 12.15 M7.2 6.65 Q4.9 10.6 1.65 13.85 L0.55 15.15 1.55 21.1 4.0 18.75 Q4.15 17.65 3.45 16.8 L3.0 16.25 1.3 16.15 1.5 15.5 3.9 16.15 4.45 19.3 2.2 21.2 1.55 21.1 1.75 22.3 Q4.7 21.85 6.25 18.5 L7.75 15.75 Q7.1 12.25 7.2 8.7 L7.2 6.65 M1.75 11.9 Q1.55 12.55 1.5 13.3 L5.65 7.75 Q2.55 8.9 1.75 11.9 M9.95 18.4 L10.0 8.35 Q9.3 12.05 9.2 15.95 L9.05 16.35 9.95 18.4 M8.5 16.3 L5.5 20.0 5.45 21.6 7.5 22.9 6.75 21.05 8.5 19.5 8.0 17.0 9.05 18.55 8.5 16.3 M4.75 22.4 L4.65 21.15 3.95 22.1 4.75 22.4 M5.4 22.75 Q8.4 26.15 12.95 23.75 L12.3 23.3 Q9.15 25.3 6.2 23.2 L5.4 22.75 M9.75 23.15 L11.9 22.65 8.8 20.2 7.35 21.5 7.5 22.9 8.05 23.25 9.75 23.15" fill="#000000" fill-rule="evenodd" stroke="none"/>
      <path d="M2.15 8.55 Q2.55 7.8 3.25 7.35 4.8 6.25 6.85 6.15 L6.0 7.3 4.35 7.45 Q3.1 7.7 2.15 8.55 M4.65 12.0 L4.7 11.95 4.75 11.9 5.4 12.2 5.85 11.65 5.8 11.75 Q5.85 12.3 6.3 12.5 L6.45 11.1 6.3 10.2 6.05 9.45 3.35 12.5 Q1.8 14.1 1.8 14.6 L1.9 14.9 2.1 15.0 4.65 12.0 M9.75 23.15 L8.05 23.25 7.5 22.9 7.35 21.5 8.8 20.2 11.9 22.65 9.75 23.15 M5.4 22.75 L6.2 23.2 Q9.15 25.3 12.3 23.3 L12.95 23.75 Q8.4 26.15 5.4 22.75 M4.75 22.4 L3.95 22.1 4.65 21.15 4.75 22.4 M8.5 16.3 L9.05 18.55 8.0 17.0 8.5 19.5 6.75 21.05 7.5 22.9 5.45 21.6 5.5 20.0 8.5 16.3 M9.95 18.4 L9.05 16.35 9.2 15.95 Q9.3 12.05 10.0 8.35 L9.95 18.4 M1.75 11.9 Q2.55 8.9 5.65 7.75 L1.5 13.3 Q1.55 12.55 1.75 11.9 M7.2 6.65 L7.2 8.7 Q7.1 12.25 7.75 15.75 L6.25 18.5 Q4.7 21.85 1.75 22.3 L1.55 21.1 2.2 21.2 4.45 19.3 3.9 16.15 1.5 15.5 1.3 16.15 3.0 16.25 3.45 16.8 Q4.15 17.65 4.0 18.75 L1.55 21.1 0.55 15.15 1.65 13.85 Q4.9 10.6 7.2 6.65 M8.05 12.15 L7.95 12.1 7.85 12.65 Q7.75 9.55 8.15 6.55 8.45 4.05 9.25 1.65 10.1 5.35 9.05 9.2 L8.25 12.45 8.05 12.15" fill="#454a53" fill-rule="evenodd" stroke="none"/>
      <path d="M4.65 12.0 L2.1 15.0 1.9 14.9 1.8 14.6 Q1.8 14.1 3.35 12.5 L6.05 9.45 6.3 10.2 6.45 11.1 6.3 12.5 Q5.85 12.3 5.8 11.75 L5.85 11.65 5.4 12.2 4.75 11.9 4.7 11.95 4.65 12.0" fill="#a4a7ab" fill-rule="evenodd" stroke="none"/>
      <path d="M8.7 9.2 L8.7 9.35 8.75 9.35 8.85 9.6 8.6 10.45 8.6 12.15 8.4 12.3 8.35 12.25 8.3 12.6 8.4 12.75 8.4 12.9 8.15 12.9 Q7.8 12.9 7.8 12.15 L7.85 12.05 7.8 11.7 7.8 11.45 7.7 11.05 7.95 8.75 8.05 8.4 8.15 8.3 8.45 8.75 8.7 9.2" fill="#cf0000" fill-rule="evenodd" stroke="none"/>
      <path d="M8.1 18.05 L8.6 18.7 8.7 19.35 8.55 19.55 7.95 19.4 Q7.8 19.3 7.8 18.95 L7.95 18.15 8.1 18.05 M8.7 20.25 L9.85 21.0 10.7 21.9 10.65 22.1 Q9.9 21.85 9.25 21.4 8.55 20.85 8.55 20.5 L8.65 20.25 8.7 20.25" fill="#a4a7ab" fill-rule="evenodd" stroke="none"/>
    </g>
    <g id="sprite2" transform="matrix(1.0, 0.0, 0.0, 1.0, 0.3, 0.0)">
      <use height="17.85" transform="matrix(1.0, 0.0, 0.0, 1.0, -0.3, 0.0)" width="14.2" xlink:href="#shape2"/>
    </g>
    <g id="shape2" transform="matrix(1.0, 0.0, 0.0, 1.0, 0.3, 0.0)">
      <path d="M10.4 10.75 L10.35 10.75 10.25 10.8 10.3 11.0 9.3 11.7 9.65 12.25 10.05 12.6 10.4 12.5 Q12.25 12.05 10.8 11.1 L10.85 11.0 11.45 11.1 12.0 11.3 12.1 12.45 12.45 12.7 12.55 12.35 12.75 12.3 13.55 13.95 Q14.05 14.8 13.85 15.85 L13.8 16.05 Q13.5 16.45 13.1 16.45 L13.1 16.55 Q12.35 17.45 11.2 16.7 L11.1 17.15 11.1 17.3 Q11.05 18.05 10.2 17.75 8.85 18.1 8.4 16.7 7.6 16.7 6.85 16.25 L6.2 15.05 6.0 14.65 5.8 14.8 4.35 14.75 4.1 14.55 Q2.55 13.15 1.75 11.1 1.35 10.05 1.65 9.2 L1.05 7.9 0.95 6.75 0.05 4.9 Q-0.55 3.5 -0.1 2.05 L0.1 1.6 0.35 1.25 Q0.95 0.45 2.2 0.25 L2.5 0.2 3.9 0.05 4.85 0.0 Q5.8 0.2 5.75 1.1 L5.65 1.9 Q6.15 2.95 6.25 4.2 6.35 5.4 6.05 6.35 L7.65 8.6 8.2 9.4 Q9.25 9.25 10.05 9.95 10.4 10.2 10.4 10.75 M4.85 2.05 Q4.7 1.55 4.85 1.0 L4.85 0.8 Q1.3 0.05 0.75 2.85 0.55 3.85 1.15 4.85 1.65 5.65 1.6 6.4 L2.0 7.65 2.15 8.35 2.25 8.3 2.2 8.55 2.25 8.75 Q2.4 8.15 3.0 7.65 4.05 6.65 5.5 6.4 L5.25 4.1 5.0 2.4 4.85 2.05 M2.75 9.05 L2.45 9.45 2.5 9.55 2.55 9.7 2.1 9.5 Q2.0 10.35 2.2 11.2 2.55 12.85 4.25 13.3 L4.45 13.85 4.85 14.4 4.9 14.45 Q5.65 13.0 7.25 11.85 8.05 11.2 9.3 11.05 L8.25 10.0 7.6 9.5 7.75 9.45 6.45 8.0 Q6.05 7.55 5.55 7.4 L5.5 7.45 5.5 7.4 Q4.5 7.1 3.1 8.15 L2.9 8.7 2.75 9.05 M9.3 11.05 L9.6 11.0 Q9.65 10.5 8.75 10.15 L9.3 10.95 9.3 11.05 M8.85 12.0 L7.35 12.75 Q6.8 12.95 6.3 13.3 6.05 13.65 6.1 14.05 L6.1 14.1 6.25 14.05 6.8 14.75 7.25 15.75 7.35 15.9 8.25 16.15 Q8.05 14.95 8.85 14.4 L8.9 14.35 Q8.75 13.5 9.3 13.0 L8.9 12.35 8.85 12.0 M9.35 14.25 L9.5 14.35 9.6 14.45 9.85 14.45 10.5 14.25 Q11.35 13.8 11.6 12.95 L11.35 12.5 10.55 12.85 Q9.9 13.1 9.45 13.7 L9.35 14.25 M9.75 16.05 L9.6 15.45 9.6 15.65 9.6 15.8 9.75 16.05 M9.1 16.5 L8.95 16.55 Q9.15 17.1 9.75 17.3 L9.9 16.85 9.5 16.55 9.1 16.3 9.1 15.55 9.15 15.05 Q8.65 15.45 8.85 16.25 L8.9 16.4 8.95 16.4 9.1 16.5 M12.8 13.95 L12.5 13.45 11.9 13.25 11.8 13.5 11.5 14.05 11.75 14.2 12.0 14.05 Q12.8 14.35 12.95 15.2 L13.05 15.7 13.35 15.45 Q13.3 14.6 12.8 13.95 M10.35 14.85 L10.05 14.9 10.2 15.6 10.25 16.35 10.4 16.9 10.35 17.2 Q10.75 17.0 10.55 16.4 L10.35 15.35 10.35 14.85 M10.9 14.6 L10.9 14.65 11.0 15.0 11.15 15.6 11.2 15.9 11.6 16.2 12.6 16.4 12.4 16.2 12.1 16.0 12.1 15.95 11.65 15.3 11.5 14.65 11.3 14.25 10.9 14.6" fill="#000000" fill-rule="evenodd" stroke="none"/>
      <path d="M10.85 11.0 L10.8 11.1 Q12.25 12.05 10.4 12.5 L10.05 12.6 9.65 12.25 9.3 11.7 10.3 11.0 10.25 10.8 10.35 10.75 10.4 10.75 Q11.25 10.6 10.9 10.95 L10.85 11.0 M9.35 14.25 L9.45 13.7 Q9.9 13.1 10.55 12.85 L11.35 12.5 11.6 12.95 Q11.35 13.8 10.5 14.25 L9.85 14.45 9.6 14.45 9.5 14.35 9.35 14.25 M8.85 12.0 L8.9 12.35 9.3 13.0 Q8.75 13.5 8.9 14.35 L8.85 14.4 Q8.05 14.95 8.25 16.15 L7.35 15.9 7.25 15.75 6.8 14.75 6.25 14.05 6.1 14.1 6.1 14.05 Q6.05 13.65 6.3 13.3 6.8 12.95 7.35 12.75 L8.85 12.0 M10.9 14.6 L11.3 14.25 11.5 14.65 11.65 15.3 12.1 15.95 12.1 16.0 12.4 16.2 12.6 16.4 11.6 16.2 11.2 15.9 11.15 15.6 11.0 15.0 10.9 14.65 10.9 14.6 M10.35 14.85 L10.35 15.35 10.55 16.4 Q10.75 17.0 10.35 17.2 L10.4 16.9 10.25 16.35 10.2 15.6 10.05 14.9 10.35 14.85 M12.8 13.95 Q13.3 14.6 13.35 15.45 L13.05 15.7 12.95 15.2 Q12.8 14.35 12.0 14.05 L11.75 14.2 11.5 14.05 11.8 13.5 11.9 13.25 12.5 13.45 12.8 13.95 M9.1 16.5 L8.95 16.4 8.9 16.4 8.85 16.25 Q8.65 15.45 9.15 15.05 L9.1 15.55 9.1 16.3 9.5 16.55 9.9 16.85 9.75 17.3 Q9.15 17.1 8.95 16.55 L9.1 16.5" fill="#32363d" fill-rule="evenodd" stroke="none"/>
      <path d="M3.9 0.05 L2.5 0.2 2.8 0.1 3.1 0.0 3.9 0.05 M0.35 1.25 L0.1 1.6 0.1 1.45 0.3 1.25 0.35 1.25 M4.85 2.05 L5.0 2.4 5.25 4.1 5.5 6.4 Q4.05 6.65 3.0 7.65 2.4 8.15 2.25 8.75 L2.2 8.55 2.25 8.3 2.15 8.35 2.0 7.65 1.6 6.4 Q1.65 5.65 1.15 4.85 0.55 3.85 0.75 2.85 1.3 0.05 4.85 0.8 L4.85 1.0 Q4.7 1.55 4.85 2.05 M9.3 11.05 L9.3 10.95 8.75 10.15 Q9.65 10.5 9.6 11.0 L9.3 11.05 Q8.05 11.2 7.25 11.85 5.65 13.0 4.9 14.45 L4.85 14.4 4.45 13.85 4.25 13.3 Q2.55 12.85 2.2 11.2 2.0 10.35 2.1 9.5 L2.55 9.7 2.5 9.55 2.45 9.45 2.75 9.05 2.9 8.7 3.1 8.15 Q4.5 7.1 5.5 7.4 L5.5 7.45 5.55 7.4 Q6.05 7.55 6.45 8.0 L7.75 9.45 7.6 9.5 8.25 10.0 9.3 11.05" fill="#535964" fill-rule="evenodd" stroke="none"/>
      <path d="M5.1 5.1 Q4.2 4.45 4.2 1.6 4.2 1.4 4.35 1.35 L4.5 1.35 Q4.85 1.85 5.0 3.05 L5.3 4.8 5.1 5.1 M3.9 8.7 L3.6 8.15 Q4.25 7.85 4.95 7.8 5.7 7.75 6.05 8.1 6.55 8.1 7.1 8.85 L8.45 10.85 8.45 11.1 8.1 11.25 6.95 9.95 5.95 8.6 5.75 8.45 5.45 8.3 4.6 8.45 3.9 8.7" fill="#c4c8cc" fill-rule="evenodd" stroke="none"/>
    </g>
    <g id="sprite3" transform="matrix(1.0, 0.0, 0.0, 1.0, 0.0, 0.0)">
      <use height="16.55" transform="matrix(1.0, 0.0, 0.0, 1.0, 0.0, 0.0)" width="13.0" xlink:href="#shape3"/>
    </g>
    <g id="shape3" transform="matrix(1.0, 0.0, 0.0, 1.0, 0.0, 0.0)">
      <path d="M10.45 11.85 L10.5 11.7 10.5 11.6 11.0 11.5 11.1 11.45 11.15 11.35 11.85 10.0 12.15 9.15 12.15 9.95 Q12.05 12.3 10.3 13.65 L8.25 15.1 Q7.7 15.5 7.25 15.5 L7.15 15.3 6.0 13.1 6.65 12.6 Q7.25 11.9 8.1 11.6 8.95 12.3 10.35 11.95 L10.45 11.85 M10.65 8.65 L11.85 8.75 12.05 8.8 Q11.75 9.2 11.55 9.75 L10.85 11.2 10.4 11.35 10.25 11.6 Q8.95 11.8 7.65 11.25 L6.75 11.9 Q6.0 12.25 5.95 13.0 L4.65 11.25 4.05 10.4 3.9 10.05 3.45 10.0 2.75 9.9 2.75 9.8 3.3 9.7 3.5 9.75 4.05 9.35 Q7.05 6.35 10.65 8.65 M4.2 3.0 Q5.15 3.65 5.35 4.7 L5.5 5.2 4.85 5.1 3.95 5.1 4.0 4.95 4.0 4.2 4.0 3.45 4.0 3.0 4.2 3.0 M6.1 7.05 L5.75 7.0 Q5.6 7.05 5.4 7.25 L4.9 7.65 2.1 7.6 2.1 7.55 2.15 6.8 2.1 6.3 2.4 5.9 Q2.7 5.55 3.15 5.4 L3.5 5.55 3.1 5.9 4.3 5.85 6.1 6.95 6.1 7.05 M6.55 5.75 Q6.9 4.95 6.9 3.3 6.9 1.75 7.55 0.75 L8.35 4.0 Q8.7 5.45 9.5 6.25 L9.0 6.15 6.55 5.75 M4.5 7.7 L4.6 7.8 3.95 8.2 Q3.25 8.65 3.15 9.2 L2.7 9.55 2.7 9.4 2.6 9.2 2.5 9.0 2.35 8.85 1.65 8.55 0.95 8.25 0.95 8.15 1.2 7.5 1.7 6.9 1.65 6.95 1.7 8.0 Q2.9 7.5 4.2 7.4 L4.5 7.7 M10.05 7.5 L9.95 7.65 7.5 7.15 6.05 5.95 Q8.2 6.25 10.05 7.5" fill="#535964" fill-rule="evenodd" stroke="none"/>
      <path d="M12.15 7.3 L12.2 7.5 12.25 7.75 Q13.0 7.95 13.0 8.95 13.0 10.95 11.9 12.5 10.5 14.4 8.45 15.65 7.85 16.0 7.5 16.5 6.65 16.65 6.4 16.0 L6.0 14.85 Q5.4 13.05 4.1 11.65 L3.5 10.65 2.4 10.35 2.3 10.25 2.25 10.05 2.25 9.7 2.2 9.5 2.1 9.4 1.25 9.05 0.8 8.95 0.5 8.9 0.3 8.85 0.0 8.65 0.0 8.45 Q0.05 7.95 0.4 7.6 L0.5 7.3 Q0.45 6.85 0.85 6.5 L1.25 6.2 1.0 6.25 1.1 6.15 1.3 6.2 2.35 5.1 2.5 5.0 3.6 5.05 Q3.35 4.85 3.4 4.25 L3.45 2.75 Q3.4 2.15 3.75 2.0 4.7 2.35 5.3 3.45 L6.2 5.1 6.1 3.1 Q6.3 1.3 7.3 0.15 L7.5 0.0 Q8.7 1.35 9.15 3.4 L10.25 6.5 12.15 7.3 M10.65 8.65 Q7.05 6.35 4.05 9.35 L3.5 9.75 3.3 9.7 2.75 9.8 2.75 9.9 3.45 10.0 3.9 10.05 4.05 10.4 4.65 11.25 5.95 13.0 Q6.0 12.25 6.75 11.9 L7.65 11.25 Q8.95 11.8 10.25 11.6 L10.4 11.35 10.85 11.2 11.55 9.75 Q11.75 9.2 12.05 8.8 L11.85 8.75 10.65 8.65 M10.45 11.85 L10.35 11.95 Q8.95 12.3 8.1 11.6 7.25 11.9 6.65 12.6 L6.0 13.1 7.15 15.3 7.25 15.5 Q7.7 15.5 8.25 15.1 L10.3 13.65 Q12.05 12.3 12.15 9.95 L12.15 9.15 11.85 10.0 11.15 11.35 11.1 11.45 11.0 11.5 10.5 11.6 10.5 11.7 10.45 11.85 M5.25 5.5 L5.5 5.6 6.35 5.7 6.35 5.65 5.85 5.55 5.25 5.5 M4.0 3.0 L4.0 3.45 4.0 4.2 4.0 4.95 3.95 5.1 4.85 5.1 5.5 5.2 5.35 4.7 Q5.15 3.65 4.2 3.0 L4.0 2.9 4.0 3.0 M6.55 5.75 L9.0 6.15 9.5 6.25 Q8.7 5.45 8.35 4.0 L7.55 0.75 Q6.9 1.75 6.9 3.3 6.9 4.95 6.55 5.75 M6.1 6.95 L4.3 5.85 3.1 5.9 3.5 5.55 3.15 5.4 Q2.7 5.55 2.4 5.9 L2.1 6.3 2.15 6.8 2.1 7.55 2.1 7.6 4.9 7.65 5.4 7.25 Q5.6 7.05 5.75 7.0 L6.1 7.05 6.2 7.05 6.1 6.95 M4.5 7.7 L4.2 7.4 Q2.9 7.5 1.7 8.0 L1.65 6.95 1.7 6.9 1.2 7.5 0.95 8.15 0.95 8.25 1.65 8.55 2.35 8.85 2.5 9.0 2.6 9.2 2.7 9.4 2.7 9.55 3.15 9.2 Q3.25 8.65 3.95 8.2 L4.6 7.8 4.5 7.7 M10.05 7.5 Q8.2 6.25 6.05 5.95 L7.5 7.15 9.95 7.65 10.6 7.9 10.05 7.5" fill="#000000" fill-rule="evenodd" stroke="none"/>
      <path d="M11.3 8.85 L11.4 8.9 Q11.0 9.6 10.35 9.6 L8.8 9.3 7.8 9.0 5.7 9.3 5.1 9.9 4.85 9.85 4.8 9.6 Q4.8 7.8 7.85 8.1 9.35 8.25 10.85 8.75 L11.3 8.85 M7.95 1.4 L7.85 2.55 7.7 3.3 7.65 4.25 7.5 4.35 7.5 4.4 7.05 4.55 Q6.9 4.5 6.9 4.1 L7.2 1.95 7.4 1.4 7.5 1.45 7.7 1.05 7.95 1.4 M4.65 2.55 L4.7 2.85 4.5 4.4 4.2 4.5 Q4.05 4.2 4.05 3.6 4.05 2.9 4.35 2.55 L4.65 2.55 M8.7 12.15 L8.1 12.7 7.45 13.05 7.2 13.05 7.05 12.8 8.4 11.9 8.7 12.15" fill="#c4c8cc" fill-rule="evenodd" stroke="none"/>
    </g>
    <g id="sprite4" transform="matrix(1.0, 0.0, 0.0, 1.0, 0.0, 0.0)">
      <use height="13.1" transform="matrix(1.0, 0.0, 0.0, 1.0, 0.0, 0.0)" width="10.8" xlink:href="#shape4"/>
    </g>
    <g id="shape4" transform="matrix(1.0, 0.0, 0.0, 1.0, 0.0, 0.0)">
      <path d="M8.2 12.1 L7.2 12.8 4.85 12.65 0.75 10.25 0.0 7.45 0.05 4.25 3.35 1.45 6.05 0.0 Q9.15 0.95 10.8 4.25 L10.8 5.75 10.05 6.4 Q10.4 10.1 8.25 12.05 6.3 8.75 2.55 7.3 L3.55 3.95 Q6.3 2.1 9.4 3.5 7.35 -0.3 3.6 1.65 1.95 3.45 0.8 5.5 L0.5 6.6 0.85 6.85 0.95 7.8 Q4.1 10.5 8.2 12.1 M7.1 3.65 L4.15 4.35 3.1 6.85 7.05 4.8 7.1 3.65 M10.1 5.6 L9.6 3.95 7.65 3.65 8.0 5.25 9.65 5.75 9.9 5.8 10.1 5.6 M3.8 7.25 L7.7 10.05 7.7 9.7 7.85 8.35 Q8.0 7.25 6.95 6.65 L7.1 7.15 5.0 6.6 3.8 7.25 M2.8 9.4 L1.1 8.85 1.05 9.7 2.75 10.25 2.8 9.4 M3.15 10.65 L7.05 12.3 3.35 9.8 3.15 10.65" fill="#000000" fill-rule="evenodd" stroke="none"/>
      <path d="M8.25 12.05 L8.3 12.15 8.2 12.1 Q4.1 10.5 0.95 7.8 L0.85 6.85 0.5 6.6 0.8 5.5 Q1.95 3.45 3.6 1.65 7.35 -0.3 9.4 3.5 6.3 2.1 3.55 3.95 L2.55 7.3 Q6.3 8.75 8.25 12.05 M3.8 7.25 L5.0 6.6 7.1 7.15 6.95 6.65 Q8.0 7.25 7.85 8.35 L7.7 9.7 7.7 10.05 3.8 7.25 M10.1 5.6 L9.9 5.8 9.65 5.75 8.0 5.25 7.65 3.65 9.6 3.95 10.1 5.6 M7.1 3.65 L7.05 4.8 3.1 6.85 4.15 4.35 7.1 3.65" fill="#535964" fill-rule="evenodd" stroke="none"/>
      <path d="M3.15 10.65 L3.35 9.8 7.05 12.3 3.15 10.65 M2.8 9.4 L2.75 10.25 1.05 9.7 1.1 8.85 2.8 9.4" fill="#8f7e7e" fill-rule="evenodd" stroke="none"/>
      <path d="M6.8 5.55 Q7.05 6.0 7.65 6.0 L8.35 5.85 8.55 5.75 8.55 5.8 9.0 5.55 9.3 5.95 9.5 6.0 9.6 6.3 Q9.6 6.85 9.05 6.9 L9.05 6.95 9.3 7.85 9.15 8.95 9.2 9.35 9.2 10.05 9.0 10.2 8.85 9.8 8.45 9.9 8.3 9.35 8.55 8.35 8.25 6.8 8.3 6.6 7.75 6.6 6.95 6.45 6.35 6.2 6.55 5.8 6.8 5.55" fill="#ff0000" fill-rule="evenodd" stroke="none"/>
    </g>
    <g id="sprite5" transform="matrix(1.0, 0.0, 0.0, 1.0, 0.0, 0.0)">
      <use height="22.65" transform="matrix(1.0, 0.0, 0.0, 1.0, 0.0, 0.0)" width="21.5" xlink:href="#shape5"/>
    </g>
    <g id="shape5" transform="matrix(1.0, 0.0, 0.0, 1.0, 0.0, 0.0)">
      <path d="M15.4 2.8 L13.25 1.65 7.05 1.4 6.7 1.95 6.0 1.95 6.0 1.85 5.75 4.95 Q7.5 3.85 9.35 3.75 L10.3 4.2 Q11.45 4.9 12.05 6.1 L12.95 5.7 Q14.45 6.7 15.0 8.4 L17.85 7.25 17.9 7.25 17.7 6.05 17.6 4.95 17.4 4.2 17.05 4.0 15.4 2.8 M18.35 4.85 L19.6 5.7 20.15 8.7 20.4 9.7 21.05 11.75 Q21.7 13.85 21.45 16.1 L21.2 17.8 20.95 18.0 20.65 17.95 20.55 17.9 20.5 17.85 19.75 16.6 18.05 13.75 17.05 12.45 16.6 12.4 17.05 11.9 15.55 12.45 12.95 22.15 11.95 22.5 11.2 21.9 11.1 22.65 Q9.85 17.95 10.3 13.15 L8.6 13.2 8.6 13.65 7.8 13.1 Q7.0 14.05 6.05 14.45 L3.7 15.9 2.3 17.1 0.2 17.0 Q-0.1 15.95 0.05 15.05 0.35 12.8 1.55 10.55 L1.45 7.1 4.9 4.2 5.85 0.0 5.85 1.7 7.2 0.45 8.45 0.2 11.2 0.5 17.45 2.1 18.8 2.6 18.2 4.85 18.15 6.2 18.0 7.25 18.95 7.3 19.8 8.45 19.2 6.25 18.45 5.45 Q18.15 5.25 18.35 4.85 M17.9 3.45 L17.95 3.1 16.35 2.5 Q17.1 3.15 17.9 3.45 M16.0 8.5 L15.1 8.75 Q15.45 10.6 14.6 12.25 L16.1 11.6 16.0 8.5 M12.5 7.15 L12.55 6.6 Q11.45 7.45 11.0 8.7 10.15 10.85 11.3 11.05 L12.5 7.15 M13.6 7.3 L13.3 7.95 13.6 10.7 14.3 11.3 14.3 9.95 13.75 6.65 13.6 7.3 M12.85 7.7 L13.25 6.4 12.9 6.45 12.85 7.7 M18.95 8.05 L17.95 7.75 17.95 11.15 19.5 9.6 19.8 9.0 18.95 8.05 M13.05 10.9 L13.2 10.2 Q13.3 9.15 12.7 8.1 L12.15 10.4 12.2 11.15 13.05 10.9 M17.45 8.2 L16.45 8.4 16.45 11.4 17.45 10.85 17.45 8.2 M20.2 10.4 L17.75 12.3 19.2 13.95 20.45 16.45 20.9 17.3 20.2 9.95 20.2 10.4 M13.75 13.0 L12.95 13.2 12.15 13.2 10.55 13.1 11.25 21.0 11.9 21.85 12.45 21.85 Q12.95 16.8 15.3 12.5 L14.45 12.5 13.75 13.0 M13.95 12.15 L13.9 11.45 13.35 10.95 13.8 12.15 Q13.0 12.35 13.1 11.3 L11.95 11.45 11.05 12.15 11.55 11.25 10.9 11.6 11.05 12.15 Q12.45 12.85 13.95 12.15 M11.05 6.8 L11.4 6.25 9.5 4.4 Q8.65 4.7 7.9 5.15 L5.75 5.0 6.2 7.65 10.2 8.8 10.6 7.2 9.95 6.35 6.3 7.25 8.45 5.7 10.45 5.95 11.05 6.8 M10.35 12.6 L10.55 12.95 11.25 12.95 10.7 12.7 10.15 9.15 8.75 9.45 8.6 12.65 10.35 12.6 M5.65 12.2 L1.95 10.85 0.9 16.75 1.95 16.85 6.7 12.85 5.65 12.2 M4.9 7.6 L2.0 9.0 1.95 10.0 5.05 11.45 Q4.25 9.6 4.9 7.6 M4.9 4.9 Q4.0 5.8 2.95 6.1 L2.05 8.65 4.95 6.95 4.9 4.9 M6.3 8.9 L5.6 8.4 4.95 10.4 5.95 11.65 Q6.85 12.65 7.9 12.25 L8.3 9.45 6.9 9.2 6.65 12.0 6.2 11.4 Q5.65 10.05 6.3 8.9" fill="#000000" fill-rule="evenodd" stroke="none"/>
      <path d="M15.4 2.8 L17.05 4.0 17.4 4.2 17.6 4.95 17.7 6.05 17.9 7.25 17.85 7.25 15.0 8.4 Q14.45 6.7 12.95 5.7 L12.05 6.1 Q11.45 4.9 10.3 4.2 L9.35 3.75 Q7.5 3.85 5.75 4.95 L6.0 1.85 6.0 1.95 6.7 1.95 7.05 1.4 13.25 1.65 15.4 2.8 M13.05 10.9 L12.2 11.15 12.15 10.4 12.7 8.1 Q13.3 9.15 13.2 10.2 L13.05 10.9 M11.05 6.8 L10.45 5.95 8.45 5.7 6.3 7.25 9.95 6.35 10.6 7.2 10.2 8.8 6.2 7.65 5.75 5.0 7.9 5.15 Q8.65 4.7 9.5 4.4 L11.4 6.25 11.05 6.8" fill="#32363d" fill-rule="evenodd" stroke="none"/>
      <path d="M18.35 4.85 Q18.15 5.25 18.45 5.45 L19.2 6.25 19.8 8.45 18.95 7.3 18.0 7.25 18.15 6.2 18.2 4.85 18.35 4.85 M18.95 8.05 L19.8 9.0 19.5 9.6 17.95 11.15 17.95 7.75 18.95 8.05 M12.85 7.7 L12.9 6.45 13.25 6.4 12.85 7.7 M13.6 7.3 L13.75 6.65 14.3 9.95 14.3 11.3 13.6 10.7 13.3 7.95 13.6 7.3 M12.5 7.15 L11.3 11.05 Q10.15 10.85 11.0 8.7 11.45 7.45 12.55 6.6 L12.5 7.15 M16.0 8.5 L16.1 11.6 14.6 12.25 Q15.45 10.6 15.1 8.75 L16.0 8.5 M13.95 12.15 Q12.45 12.85 11.05 12.15 L10.9 11.6 11.55 11.25 11.05 12.15 11.95 11.45 13.1 11.3 Q13.0 12.35 13.8 12.15 L13.35 10.95 13.9 11.45 13.95 12.15 M13.75 13.0 L14.45 12.5 15.3 12.5 Q12.95 16.8 12.45 21.85 L11.9 21.85 11.25 21.0 10.55 13.1 12.15 13.2 12.95 13.2 13.75 13.0 M20.2 10.4 L20.2 9.95 20.9 17.3 20.45 16.45 19.2 13.95 17.75 12.3 20.2 10.4 M17.45 8.2 L17.45 10.85 16.45 11.4 16.45 8.4 17.45 8.2 M6.3 8.9 Q5.65 10.05 6.2 11.4 L6.65 12.0 6.9 9.2 8.3 9.45 7.9 12.25 Q6.85 12.65 5.95 11.65 L4.95 10.4 5.6 8.4 6.3 8.9 M4.9 4.9 L4.95 6.95 2.05 8.65 2.95 6.1 Q4.0 5.8 4.9 4.9 M4.9 7.6 Q4.25 9.6 5.05 11.45 L1.95 10.0 2.0 9.0 4.9 7.6 M5.65 12.2 L6.7 12.85 1.95 16.85 0.9 16.75 1.95 10.85 5.65 12.2 M10.35 12.6 L8.6 12.65 8.75 9.45 10.15 9.15 10.7 12.7 11.25 12.95 10.55 12.95 10.35 12.6" fill="#535964" fill-rule="evenodd" stroke="none"/>
    </g>
    <g id="sprite6" transform="matrix(1.0, 0.0, 0.0, 1.0, 0.0, 0.0)">
      <use height="18.45" transform="matrix(1.0, 0.0, 0.0, 1.0, 0.0, 0.0)" width="15.4" xlink:href="#shape6"/>
    </g>
    <g id="shape6" transform="matrix(1.0, 0.0, 0.0, 1.0, 0.0, 0.0)">
      <path d="M15.3 1.8 Q15.5 2.25 15.2 2.75 L15.35 4.25 Q15.5 8.6 13.9 12.45 14.05 13.25 13.8 13.95 13.15 15.55 12.1 16.85 L11.4 18.45 Q6.75 18.25 3.45 15.0 L0.15 11.65 Q-0.45 7.85 1.15 4.25 L0.4 3.95 1.15 3.35 1.25 2.6 Q1.6 1.7 2.3 1.15 3.9 0.0 6.05 0.3 L10.35 5.3 11.15 4.65 11.55 4.0 11.7 0.85 12.9 0.0 14.35 0.25 14.5 0.65 14.8 0.3 15.0 0.9 14.95 1.0 14.55 0.8 14.7 1.15 15.0 1.85 15.15 1.8 15.3 1.8 M11.75 4.45 L10.8 6.1 11.3 8.8 Q13.2 6.75 12.8 4.0 L12.4 1.7 11.75 4.45 M13.85 1.1 L13.9 0.6 12.45 0.95 12.85 1.3 13.2 3.45 Q13.6 3.1 14.15 2.9 L14.35 2.65 14.4 2.5 14.4 2.3 14.4 2.15 14.45 2.15 13.65 1.5 13.85 1.1 M13.35 4.15 L13.3 4.3 13.35 4.8 Q13.75 9.45 12.8 14.0 L13.95 10.0 14.8 6.7 Q15.15 4.95 14.9 3.15 L14.6 3.45 Q13.6 3.45 13.35 4.15 M12.65 7.95 L11.4 9.5 10.5 9.5 Q9.4 9.55 8.95 8.8 L10.8 13.65 11.65 16.55 12.65 7.95 M5.15 2.85 L5.2 0.95 4.6 1.05 2.05 1.8 1.8 2.55 1.9 3.05 4.6 3.1 4.35 2.55 5.15 2.85 M11.05 9.05 L10.2 6.05 5.7 1.0 5.65 3.25 6.1 3.9 6.5 4.85 7.1 5.2 8.8 8.15 9.6 8.4 9.9 9.2 11.05 9.05 M6.65 5.55 L5.8 5.2 4.9 3.5 4.4 4.8 3.55 6.3 Q2.5 8.05 2.65 10.05 L2.55 9.1 Q2.55 8.15 2.85 7.35 L3.4 5.8 Q4.0 4.45 4.8 3.45 L2.4 3.85 2.15 4.1 1.95 4.45 1.9 4.45 1.55 4.4 1.45 4.35 1.0 5.35 Q0.2 8.4 1.55 11.1 L2.0 11.8 2.1 11.65 3.25 11.1 4.9 10.25 7.55 10.05 Q5.65 9.9 4.05 11.0 L2.8 11.65 1.85 12.0 2.85 13.35 4.65 11.9 6.95 12.2 5.9 12.4 Q4.25 12.45 3.0 13.5 6.4 17.25 11.15 18.15 L11.1 17.1 10.15 13.6 9.55 13.6 9.0 13.45 8.55 13.15 7.65 12.4 10.25 13.55 9.95 12.55 Q8.75 8.8 6.65 5.55" fill="#000000" fill-rule="evenodd" stroke="none"/>
      <path d="M13.85 1.1 L13.65 1.5 14.45 2.15 14.4 2.15 14.4 2.3 14.4 2.5 14.35 2.65 14.15 2.9 Q13.6 3.1 13.2 3.45 L12.85 1.3 12.45 0.95 13.9 0.6 13.85 1.1 M11.75 4.45 L12.4 1.7 12.8 4.0 Q13.2 6.75 11.3 8.8 L10.8 6.1 11.75 4.45 M11.05 9.05 L9.9 9.2 9.6 8.4 8.8 8.15 7.1 5.2 6.5 4.85 6.1 3.9 5.65 3.25 5.7 1.0 10.2 6.05 11.05 9.05 M5.15 2.85 L4.35 2.55 4.6 3.1 1.9 3.05 1.8 2.55 2.05 1.8 4.6 1.05 5.2 0.95 5.15 2.85" fill="#8f7e7e" fill-rule="evenodd" stroke="none"/>
      <path d="M13.35 4.15 Q13.6 3.45 14.6 3.45 L14.9 3.15 Q15.15 4.95 14.8 6.7 L13.95 10.0 12.8 14.0 Q13.75 9.45 13.35 4.8 L13.3 4.3 13.35 4.15 M12.65 7.95 L11.65 16.55 10.8 13.65 8.95 8.8 Q9.4 9.55 10.5 9.5 L11.4 9.5 12.65 7.95 M6.65 5.55 Q8.75 8.8 9.95 12.55 L10.25 13.55 7.65 12.4 8.55 13.15 9.0 13.45 9.55 13.6 10.15 13.6 11.1 17.1 11.15 18.15 Q6.4 17.25 3.0 13.5 4.25 12.45 5.9 12.4 L6.95 12.2 4.65 11.9 2.85 13.35 1.85 12.0 2.8 11.65 4.05 11.0 Q5.65 9.9 7.55 10.05 L4.9 10.25 3.25 11.1 2.1 11.65 2.0 11.8 1.55 11.1 Q0.2 8.4 1.0 5.35 L1.45 4.35 1.55 4.4 1.9 4.45 1.95 4.45 2.15 4.1 2.4 3.85 4.8 3.45 Q4.0 4.45 3.4 5.8 L2.85 7.35 Q2.55 8.15 2.55 9.1 L2.65 10.05 Q2.5 8.05 3.55 6.3 L4.4 4.8 4.9 3.5 5.8 5.2 6.65 5.55" fill="#535964" fill-rule="evenodd" stroke="none"/>
      <path d="M11.85 10.7 L11.7 11.85 11.7 12.15 11.7 12.6 11.75 12.9 11.55 13.2 11.45 13.25 11.4 13.25 Q11.05 12.95 10.95 11.95 L10.65 10.7 10.25 10.4 10.25 10.2 10.7 10.1 10.7 9.8 10.95 9.75 11.85 9.75 12.0 10.05 11.85 10.2 11.85 10.3 11.85 10.45 11.85 10.7" fill="#ff0000" fill-rule="evenodd" stroke="none"/>
      <path d="M14.4 4.65 L14.25 5.55 13.95 5.7 Q13.65 5.5 13.65 5.0 L13.8 4.5 14.1 3.95 14.4 4.65 M5.55 5.1 Q5.95 5.2 6.4 5.9 L7.2 7.5 7.2 7.55 7.5 8.3 7.5 8.55 Q7.6 8.7 7.2 8.7 L5.4 5.85 5.05 6.15 4.35 6.65 4.15 6.6 4.05 6.3 Q4.05 5.3 5.0 5.2 L4.85 4.95 5.15 4.7 5.55 5.1 M1.8 4.5 L2.25 4.1 2.5 3.8 3.15 3.75 3.9 3.75 4.05 4.1 3.2 4.35 1.85 4.65 1.8 4.5" fill="#c4c8cc" fill-rule="evenodd" stroke="none"/>
    </g>
    <g id="sprite7" transform="matrix(1.0, 0.0, 0.0, 1.0, 0.0, -0.05)">
      <use height="51.7" transform="matrix(1.0, 0.0, 0.0, 1.0, 0.0, 0.05)" width="34.6" xlink:href="#shape7"/>
      <use height="19.9" transform="matrix(1.0, 0.0, 0.0, 1.0, 19.95, 13.1)" width="11.5" xlink:href="#shape8"/>
    </g>
    <g id="shape7" transform="matrix(1.0, 0.0, 0.0, 1.0, 0.0, -0.05)">
      <path d="M22.3 21.45 L22.25 22.1 21.75 26.05 21.75 26.2 21.65 27.8 21.75 28.4 21.65 28.15 21.3 26.2 21.15 27.55 20.25 25.75 Q19.0 23.15 17.4 20.8 L17.4 20.75 17.3 20.5 16.9 19.95 16.6 19.55 16.5 19.45 15.7 18.1 Q15.0 16.85 14.65 15.5 L14.35 14.4 14.95 15.4 16.4 17.7 17.5 19.25 17.75 19.6 18.25 20.25 Q19.15 21.45 19.85 22.75 L20.8 24.95 21.2 26.15 21.55 20.0 22.3 21.45 M13.6 15.1 L13.45 14.5 13.2 13.65 Q12.55 10.65 11.4 7.75 L11.15 7.15 Q9.95 4.8 7.45 3.9 L7.7 3.8 7.35 3.85 7.1 3.75 11.25 4.0 11.85 4.2 12.95 4.65 13.45 4.9 13.8 4.9 14.95 6.0 14.9 6.0 16.35 8.4 16.45 8.6 17.05 9.4 19.4 12.3 18.0 11.7 18.0 11.75 17.75 11.85 16.0 8.9 15.9 8.7 Q14.25 6.25 11.55 4.85 L11.1 4.65 11.25 5.05 11.85 6.45 12.3 7.45 Q13.15 9.65 13.5 12.1 L13.6 12.75 13.95 14.45 13.95 14.5 14.05 14.95 14.4 16.15 13.4 15.3 13.6 15.1 M14.2 16.15 L14.45 16.25 14.5 16.45 14.2 16.15" fill="#727987" fill-rule="evenodd" stroke="none"/>
      <path d="M22.3 21.45 L21.55 20.0 21.2 26.15 20.8 24.95 19.85 22.75 Q19.15 21.45 18.25 20.25 L17.75 19.6 17.5 19.25 16.4 17.7 14.95 15.4 14.35 14.4 14.65 15.5 Q15.0 16.85 15.7 18.1 L16.5 19.45 16.6 19.55 16.9 19.95 17.3 20.5 17.4 20.75 17.4 20.8 Q19.0 23.15 20.25 25.75 L21.15 27.55 21.3 26.2 21.65 28.15 21.75 28.4 21.65 27.8 21.75 26.2 21.75 26.05 22.25 22.1 22.3 21.45 M23.45 21.85 L24.85 24.8 29.0 33.55 29.65 33.05 29.75 32.2 31.2 31.75 30.9 35.5 33.65 33.85 34.25 36.3 Q32.3 37.0 30.6 37.9 L30.55 38.15 30.45 38.0 30.2 38.1 Q29.0 38.75 27.8 39.35 25.0 40.7 22.0 41.6 L21.8 42.2 20.75 42.6 19.9 42.5 18.75 40.8 23.75 38.8 22.7 37.9 23.25 38.8 22.35 37.6 20.0 34.1 17.85 30.55 13.7 22.9 12.5 20.5 10.0 15.45 7.1 9.9 5.8 7.5 Q3.85 3.95 0.0 2.3 L1.2 1.7 1.05 1.6 1.15 1.6 1.65 1.5 1.7 1.5 Q4.15 0.4 6.85 0.05 L7.35 0.05 Q10.9 -0.05 13.65 1.95 L13.95 2.05 14.1 2.15 14.65 2.7 14.7 2.75 15.4 2.95 17.05 5.05 19.0 7.6 19.25 8.1 Q20.8 10.4 21.95 12.95 L22.5 14.25 18.45 12.35 18.9 13.2 20.0 15.1 22.4 19.7 23.1 21.15 23.45 21.85 M20.4 18.4 L18.3 13.55 Q17.1 11.25 15.7 9.1 L15.6 8.95 Q14.65 7.25 13.05 6.15 L11.45 4.95 12.4 6.5 12.75 7.2 Q14.0 9.75 14.5 12.6 14.75 13.95 15.3 15.15 15.85 16.35 16.75 17.4 18.8 19.85 20.15 22.6 L20.5 23.25 Q19.35 19.3 17.35 15.45 L14.55 10.2 12.05 5.45 17.4 14.9 Q19.85 19.1 20.7 23.75 L21.1 24.8 21.25 22.55 Q21.15 20.4 20.4 18.4 M15.4 3.6 L14.75 3.15 14.4 2.95 14.25 2.8 14.2 2.75 14.15 2.75 14.1 2.7 13.9 2.6 14.45 3.7 15.15 5.1 15.05 5.4 Q14.55 4.95 14.35 4.2 L13.7 2.75 13.6 2.5 13.05 2.15 Q10.45 0.9 7.3 0.95 L2.15 1.65 2.9 2.0 3.35 2.2 Q3.8 2.75 4.55 3.2 5.4 3.75 6.55 3.85 L6.2 3.65 7.1 3.5 Q10.05 3.0 12.95 4.15 L13.15 4.25 14.0 4.65 15.05 5.4 15.35 5.65 Q16.1 6.4 16.65 7.35 L17.0 7.95 17.35 7.75 17.4 7.7 17.5 7.65 18.4 7.75 17.75 6.75 16.3 4.65 15.85 4.2 15.45 3.65 15.4 3.6 15.2 3.15 15.0 3.15 15.4 3.6 M14.95 6.0 L13.8 4.9 13.45 4.9 12.95 4.65 11.85 4.2 11.25 4.0 7.1 3.75 7.35 3.85 7.7 3.8 7.45 3.9 Q9.95 4.8 11.15 7.15 L11.4 7.75 Q12.55 10.65 13.2 13.65 L13.45 14.5 13.6 15.1 13.25 14.55 12.85 13.9 Q11.8 11.95 11.5 9.5 L11.1 7.85 10.85 7.4 Q10.35 6.45 9.4 5.7 L6.95 4.05 6.85 4.0 Q5.45 4.15 4.4 3.35 L3.3 2.7 3.15 2.6 3.1 2.4 3.1 2.35 2.25 2.15 2.2 2.15 Q4.3 4.5 6.1 7.3 L7.5 9.65 8.0 10.55 8.3 10.8 8.65 11.1 10.9 12.95 12.7 14.65 12.75 14.7 13.1 15.05 13.4 15.3 14.4 16.15 14.05 14.95 13.95 14.5 13.95 14.45 13.6 12.75 13.5 12.1 Q13.15 9.65 12.3 7.45 L11.85 6.45 11.25 5.05 11.1 4.65 11.55 4.85 Q14.25 6.25 15.9 8.7 L16.0 8.9 17.75 11.85 18.6 13.35 18.7 13.55 18.65 13.35 18.0 11.75 18.0 11.7 19.4 12.3 17.05 9.4 16.45 8.6 16.35 8.4 14.9 6.0 15.35 6.35 14.95 6.0 M18.4 7.85 L17.45 8.05 17.35 8.1 17.1 8.2 17.95 9.65 19.55 12.25 19.7 12.45 21.5 13.2 18.45 7.85 18.4 7.85 M8.45 11.4 L10.5 15.1 11.1 16.15 11.25 16.25 11.65 16.45 11.7 16.55 11.85 16.8 Q13.15 16.75 14.0 17.3 14.9 17.8 15.4 18.5 L15.5 18.6 15.75 18.65 13.4 15.65 12.2 14.65 Q11.35 13.7 10.3 13.05 L8.95 11.75 8.45 11.4 M10.5 12.8 L10.7 12.9 8.95 11.35 10.45 12.75 10.5 12.8 M21.65 29.5 L21.6 29.05 21.4 28.7 21.1 28.05 17.2 20.9 17.1 20.75 16.7 20.2 16.4 19.7 Q15.95 19.15 15.4 18.9 L15.25 18.8 14.2 17.7 Q13.1 17.1 11.7 16.95 L11.45 16.7 11.4 16.7 13.3 20.05 14.2 21.55 14.7 22.35 14.85 22.55 19.85 28.05 21.35 29.75 21.6 30.05 21.65 30.1 21.9 30.35 21.75 30.05 21.65 29.65 21.65 29.5 M14.2 16.15 L14.5 16.45 14.45 16.25 14.2 16.15 M15.05 23.1 L14.75 22.65 14.5 22.45 14.85 23.2 18.4 30.2 Q20.35 33.8 22.95 37.15 L24.1 38.55 24.15 38.65 25.85 37.9 Q23.55 32.75 19.65 28.25 L15.05 23.1 M33.25 36.0 L33.25 34.8 30.6 36.1 30.65 36.9 30.6 37.65 33.25 36.0 M22.15 28.3 L22.0 29.1 22.1 29.55 22.45 31.05 Q24.7 34.1 25.9 37.85 L30.1 35.9 30.6 32.75 28.4 34.25 27.55 32.5 26.2 33.5 Q25.7 33.8 25.35 33.35 L23.45 29.6 Q22.7 28.25 22.4 26.8 L22.25 27.85 22.15 28.3 M23.85 29.5 L25.5 33.05 Q26.5 33.35 27.35 32.3 L27.45 32.25 22.65 22.15 22.5 26.1 Q22.95 27.9 23.85 29.5 M29.45 38.25 Q29.3 37.9 29.3 37.4 29.3 36.95 29.45 36.65 L25.1 38.8 25.3 38.9 25.7 39.4 25.7 39.5 26.05 39.7 26.1 39.75 27.65 39.1 29.45 38.25 M29.6 38.2 L30.1 37.9 30.4 37.75 30.3 36.9 30.4 36.2 29.65 36.55 29.65 37.4 29.6 38.2 M25.55 39.8 L25.15 39.25 24.8 38.95 24.5 39.1 24.75 39.35 25.3 40.05 25.8 39.85 25.55 39.8 M24.75 39.8 L24.25 39.2 19.8 41.35 20.5 41.95 21.5 41.7 21.65 41.15 25.05 40.15 24.75 39.8 M29.85 45.85 L31.6 45.1 32.0 45.0 31.45 44.15 29.4 45.1 29.85 45.85 M31.4 45.8 L29.9 45.9 30.5 47.05 31.9 46.45 Q32.25 46.2 32.65 46.25 L32.15 45.25 31.4 45.8 M31.9 43.7 L32.8 45.0 Q34.6 47.9 34.6 51.5 L32.45 51.75 28.85 44.85 31.9 43.7 M31.45 48.65 L32.1 49.85 33.35 49.55 33.35 49.35 33.4 49.3 33.45 49.2 33.75 49.1 33.45 48.0 Q33.25 48.35 32.65 48.5 L31.45 48.65 M32.1 49.85 L32.85 51.1 34.1 50.85 33.85 49.35 Q33.6 49.4 33.5 49.7 L33.45 49.85 32.1 49.85 M30.6 47.2 L31.4 48.55 Q32.5 48.25 33.3 47.65 L32.7 46.35 31.7 47.0 30.6 47.2" fill="#000000" fill-rule="evenodd" stroke="none"/>
      <path d="M20.4 18.4 Q21.15 20.4 21.25 22.55 L21.1 24.8 20.7 23.75 Q19.85 19.1 17.4 14.9 L12.05 5.45 14.55 10.2 17.35 15.45 Q19.35 19.3 20.5 23.25 L20.15 22.6 Q18.8 19.85 16.75 17.4 15.85 16.35 15.3 15.15 14.75 13.95 14.5 12.6 14.0 9.75 12.75 7.2 L12.4 6.5 11.45 4.95 13.05 6.15 Q14.65 7.25 15.6 8.95 L15.7 9.1 Q17.1 11.25 18.3 13.55 L20.4 18.4 M15.4 3.6 L15.45 3.65 15.85 4.2 16.3 4.65 17.75 6.75 18.4 7.75 17.5 7.65 17.4 7.7 17.35 7.75 17.0 7.95 16.65 7.35 Q16.1 6.4 15.35 5.65 L15.05 5.4 14.0 4.65 13.15 4.25 12.95 4.15 Q10.05 3.0 7.1 3.5 L6.2 3.65 6.55 3.85 Q5.4 3.75 4.55 3.2 3.8 2.75 3.35 2.2 L2.9 2.0 2.15 1.65 7.3 0.95 Q10.45 0.9 13.05 2.15 L13.6 2.5 13.7 2.75 14.35 4.2 Q14.55 4.95 15.05 5.4 L15.15 5.1 14.45 3.7 13.9 2.6 14.1 2.7 14.15 2.75 14.2 2.75 14.25 2.8 14.4 2.95 14.75 3.15 15.4 3.6 M13.6 15.1 L13.4 15.3 13.1 15.05 12.75 14.7 12.7 14.65 10.9 12.95 8.65 11.1 8.3 10.8 8.0 10.55 7.5 9.65 6.1 7.3 Q4.3 4.5 2.2 2.15 L2.25 2.15 3.1 2.35 3.1 2.4 3.15 2.6 3.3 2.7 4.4 3.35 Q5.45 4.15 6.85 4.0 L6.95 4.05 9.4 5.7 Q10.35 6.45 10.85 7.4 L11.1 7.85 11.5 9.5 Q11.8 11.95 12.85 13.9 L13.25 14.55 13.6 15.1 M17.75 11.85 L18.0 11.75 18.65 13.35 18.6 13.35 17.75 11.85 M8.45 11.4 L8.95 11.75 10.3 13.05 Q11.35 13.7 12.2 14.65 L13.4 15.65 15.75 18.65 15.5 18.6 15.4 18.5 Q14.9 17.8 14.0 17.3 13.15 16.75 11.85 16.8 L11.7 16.55 11.65 16.45 11.25 16.25 11.1 16.15 10.5 15.1 8.45 11.4 M18.4 7.85 L18.45 7.85 21.5 13.2 19.7 12.45 19.55 12.25 17.95 9.65 17.1 8.2 17.35 8.1 17.45 8.05 18.4 7.85 M21.35 29.75 L19.85 28.05 14.85 22.55 14.7 22.35 14.2 21.55 13.3 20.05 11.4 16.7 11.45 16.7 11.7 16.95 Q13.1 17.1 14.2 17.7 L15.25 18.8 15.4 18.9 Q15.95 19.15 16.4 19.7 L16.7 20.2 17.1 20.75 17.2 20.9 21.1 28.05 21.4 28.7 21.6 29.05 21.65 29.5 21.35 29.75 M10.5 12.8 L10.45 12.75 8.95 11.35 10.7 12.9 10.5 12.8 M21.75 30.05 L21.9 30.35 21.65 30.1 21.75 30.05 M14.85 23.2 L15.05 23.1 19.65 28.25 Q23.55 32.75 25.85 37.9 L24.15 38.65 24.1 38.55 22.95 37.15 Q20.35 33.8 18.4 30.2 L14.85 23.2 M33.25 36.0 L30.6 37.65 30.65 36.9 30.6 36.1 33.25 34.8 33.25 36.0 M22.15 28.3 L22.25 27.85 22.4 26.8 Q22.7 28.25 23.45 29.6 L25.35 33.35 Q25.7 33.8 26.2 33.5 L27.55 32.5 28.4 34.25 30.6 32.75 30.1 35.9 25.9 37.85 Q24.7 34.1 22.45 31.05 L22.1 29.55 22.0 29.1 22.15 28.3 M23.85 29.5 Q22.95 27.9 22.5 26.1 L22.65 22.15 27.45 32.25 27.35 32.3 Q26.5 33.35 25.5 33.05 L23.85 29.5 M29.6 38.2 L29.65 37.4 29.65 36.55 30.4 36.2 30.3 36.9 30.4 37.75 30.1 37.9 29.6 38.2 M29.45 38.25 L27.65 39.1 26.1 39.75 26.05 39.7 25.7 39.5 25.7 39.4 25.3 38.9 25.1 38.8 29.45 36.65 Q29.3 36.95 29.3 37.4 29.3 37.9 29.45 38.25 M25.55 39.8 L25.8 39.85 25.3 40.05 24.75 39.35 24.5 39.1 24.8 38.95 25.15 39.25 25.55 39.8 M24.75 39.8 L25.05 40.15 21.65 41.15 21.5 41.7 20.5 41.95 19.8 41.35 24.25 39.2 24.75 39.8" fill="#a2a7b0" fill-rule="evenodd" stroke="none"/>
      <path d="M31.4 45.8 L32.15 45.25 32.65 46.25 Q32.25 46.2 31.9 46.45 L30.5 47.05 29.9 45.9 31.4 45.8 M29.85 45.85 L29.4 45.1 31.45 44.15 32.0 45.0 31.6 45.1 29.85 45.85 M31.45 48.65 L32.65 48.5 Q33.25 48.35 33.45 48.0 L33.75 49.1 33.45 49.2 33.4 49.3 33.35 49.35 33.35 49.55 32.1 49.85 31.45 48.65 M30.6 47.2 L31.7 47.0 32.7 46.35 33.3 47.65 Q32.5 48.25 31.4 48.55 L30.6 47.2 M32.1 49.85 L33.45 49.85 33.5 49.7 Q33.6 49.4 33.85 49.35 L34.1 50.85 32.85 51.1 32.1 49.85" fill="#5a616b" fill-rule="evenodd" stroke="none"/>
    </g>
    <g id="shape8" transform="matrix(1.0, 0.0, 0.0, 1.0, -19.95, -13.1)">
      <path d="M20.95 13.2 L21.65 13.3 21.8 13.3 23.65 17.05 Q24.65 19.45 26.2 21.65 L26.8 22.25 28.55 26.15 Q29.65 28.75 31.15 31.2 31.55 31.75 31.4 32.35 L31.35 32.4 30.95 32.6 Q30.45 32.65 30.05 33.0 L30.0 33.0 Q28.9 31.6 28.3 29.85 27.55 27.65 25.95 25.9 L25.8 25.1 Q25.05 24.3 24.6 23.25 L23.35 20.25 23.15 19.3 21.65 17.2 Q20.6 15.55 20.0 13.8 19.8 13.3 20.25 13.1 L20.95 13.2 M20.7 13.7 L23.4 19.4 25.3 23.4 Q25.6 24.25 26.25 24.75 L28.05 28.45 Q28.75 30.35 29.9 31.95 L30.75 32.0 Q28.25 27.4 26.0 22.65 L23.8 18.15 21.45 13.85 20.8 13.65 20.7 13.65 20.7 13.7" fill="#ff2828" fill-rule="evenodd" stroke="none"/>
      <path d="M20.8 13.65 L21.45 13.85 23.8 18.15 26.0 22.65 Q28.25 27.4 30.75 32.0 L29.9 31.95 Q28.75 30.35 28.05 28.45 L26.25 24.75 Q25.6 24.25 25.3 23.4 L23.4 19.4 20.7 13.7 20.8 13.65" fill="#fff2f2" fill-rule="evenodd" stroke="none"/>
    </g>
  </defs>
</svg>
