<?xml version="1.0" encoding="UTF-8" standalone="no"?>
<svg xmlns:xlink="http://www.w3.org/1999/xlink" height="492.9px" width="385.8px" xmlns="http://www.w3.org/2000/svg">
  <g transform="matrix(6.0, 0.0, 0.0, 6.0, 93.0, 107.4)">
    <use height="24.3" transform="matrix(0.9615, -0.2631, 0.2631, 0.9615, -12.8378, 4.8553)" width="17.95" xlink:href="#sprite0"/>
    <use height="16.2" transform="matrix(0.1894, -0.7055, 0.7878, 0.2115, 1.672, 20.9864)" width="20.0" xlink:href="#sprite1"/>
    <use height="18.7" transform="matrix(0.9893, 0.1042, -0.1042, 0.9893, 4.7, 23.4)" width="10.15" xlink:href="#sprite2"/>
    <use height="25.2" transform="matrix(0.9858, 0.1345, -0.1345, 0.9858, 1.0852, 33.0929)" width="18.7" xlink:href="#sprite3"/>
    <use height="15.15" transform="matrix(0.0185, -0.8339, 0.9937, 0.0221, 4.75, 20.15)" width="28.55" xlink:href="#sprite4"/>
    <use height="5.0" transform="matrix(-0.0354, -0.9954, 0.9954, -0.0354, 9.15, 11.25)" width="6.7" xlink:href="#sprite5"/>
    <use height="14.3" transform="matrix(0.9289, -0.3577, 0.3577, 0.9289, -1.0378, 1.2868)" width="13.4" xlink:href="#sprite6"/>
    <use height="18.7" transform="matrix(0.5201, -0.8458, 0.8458, 0.5201, 3.95, 29.05)" width="10.15" xlink:href="#sprite2"/>
    <use height="25.2" transform="matrix(0.7625, -0.6365, 0.6365, 0.7625, 8.725, 33.9191)" width="18.7" xlink:href="#sprite3"/>
    <use height="26.85" transform="matrix(0.95, -0.3005, 0.3005, 0.95, -4.88, 8.4713)" width="16.6" xlink:href="#sprite7"/>
    <use height="16.2" transform="matrix(-0.2263, -0.6941, 0.7752, -0.2528, 3.5868, 23.9861)" width="20.0" xlink:href="#sprite1"/>
    <use height="6.8" transform="matrix(0.7838, -0.609, 0.609, 0.7838, 5.1, 16.6)" width="16.65" xlink:href="#sprite8"/>
  </g>
  <defs>
    <g id="sprite0" transform="matrix(1.0, 0.0, 0.0, 1.0, -5.9, -1.1)">
      <use height="24.3" transform="matrix(1.0, 0.0, 0.0, 1.0, 5.9, 1.1)" width="17.95" xlink:href="#shape0"/>
    </g>
    <g id="shape0" transform="matrix(1.0, 0.0, 0.0, 1.0, -5.9, -1.1)">
      <path d="M20.9 2.75 L20.95 3.05 21.0 3.55 19.95 4.3 Q19.2 5.15 19.0 6.05 L18.2 5.75 17.65 5.55 Q18.2 5.45 18.9 4.65 L19.55 3.85 20.85 2.75 20.9 2.75 M22.0 2.95 L22.65 2.7 22.75 2.75 22.85 2.8 23.15 3.4 23.1 3.45 22.85 3.65 22.35 3.2 22.0 2.95 M21.15 5.25 L20.9 5.3 20.3 5.9 20.3 5.75 20.9 4.95 21.15 5.25 M20.7 4.25 L20.75 4.25 20.55 4.65 19.9 5.5 19.9 5.8 19.9 6.3 19.9 6.4 19.05 6.05 19.15 6.0 19.7 5.55 20.7 4.25 M22.4 3.95 L22.5 4.05 22.55 4.45 22.05 4.05 21.35 3.55 21.35 3.1 21.3 2.9 22.4 3.95 M15.6 15.25 L15.5 15.45 15.45 15.9 13.25 17.25 12.6 17.8 12.85 17.35 Q13.25 16.55 13.25 15.65 L13.15 13.45 13.8 14.15 Q14.5 14.3 14.9 14.7 L15.6 15.25 M15.9 15.45 L15.95 15.4 16.2 15.55 16.3 15.85 17.05 19.35 Q17.25 20.9 18.15 21.4 L16.95 23.5 Q16.5 23.8 16.05 24.2 L15.55 24.75 14.55 24.6 13.95 24.65 13.55 24.2 12.6 23.8 12.4 23.75 11.95 23.05 Q11.7 22.35 11.25 21.95 10.75 21.4 10.65 20.65 L10.65 20.55 11.55 19.4 12.75 18.5 Q13.8 17.3 15.2 16.8 15.25 16.45 15.55 16.35 L15.8 16.05 15.85 15.95 Q15.75 15.65 15.9 15.45 M6.4 20.95 L7.65 18.45 Q9.1 15.9 11.45 14.4 L12.7 13.1 12.8 13.6 Q13.15 14.75 12.85 15.8 12.15 18.15 10.75 19.95 L10.55 20.05 10.35 20.1 10.35 20.15 Q8.4 20.35 6.65 21.35 L6.6 21.25 6.5 21.15 6.4 20.95 M14.6 8.95 L14.55 9.0 14.15 8.95 14.2 8.85 14.3 8.6 14.55 8.85 14.6 8.95 M13.45 4.5 L13.5 5.65 13.6 6.35 Q13.1 7.2 12.85 8.1 L12.9 6.65 Q12.95 5.55 13.45 4.5 M17.05 2.45 L17.0 2.6 16.7 2.95 16.65 2.95 16.55 3.45 16.2 4.85 16.2 5.25 15.15 5.2 16.0 3.65 Q16.55 2.85 17.05 2.45 M21.85 6.9 Q21.95 10.4 20.9 14.25 20.05 17.5 18.55 20.6 L18.35 20.95 18.0 20.35 17.2 17.7 16.55 15.2 15.85 14.8 16.4 13.0 16.7 11.6 17.2 10.45 Q18.05 9.85 18.95 9.75 20.55 9.4 20.05 8.65 L19.9 8.7 Q18.25 8.9 17.2 9.95 16.25 10.85 15.9 12.45 15.6 13.75 15.7 14.8 L14.55 14.05 13.05 12.75 12.9 11.75 12.9 10.0 Q13.0 8.5 13.7 7.1 L14.05 8.25 14.05 8.3 13.8 8.85 Q13.6 9.2 13.9 9.45 L14.4 9.55 14.75 9.15 14.75 9.1 15.3 9.45 15.2 9.7 Q15.2 10.2 15.6 10.0 L15.7 9.6 16.85 9.6 15.2 8.45 13.8 6.9 14.05 6.55 14.15 6.5 14.1 6.35 14.45 5.85 16.35 5.8 16.4 5.9 16.45 5.85 17.85 6.3 19.7 6.6 19.75 6.7 20.2 7.1 Q21.1 7.5 21.85 6.9 M21.4 6.3 L21.3 6.65 20.25 6.45 20.8 6.2 Q21.2 5.95 21.65 5.85 L21.4 6.3 M22.65 5.05 L22.05 4.95 Q21.6 4.6 21.15 4.7 L21.35 4.25 21.6 4.5 Q22.1 4.95 22.65 5.05" fill="#32363d" fill-rule="evenodd" stroke="none"/>
      <path d="M22.0 2.95 L22.35 3.2 22.85 3.65 23.1 3.45 23.15 3.4 22.85 2.8 22.75 2.75 22.65 2.7 22.0 2.95 M20.9 2.75 L20.85 2.75 19.55 3.85 18.9 4.65 Q18.2 5.45 17.65 5.55 L18.2 5.75 19.0 6.05 Q19.2 5.15 19.95 4.3 L21.0 3.55 20.95 3.05 20.9 2.75 M21.25 2.45 L21.35 2.3 22.8 2.45 Q23.55 2.65 23.85 3.3 L23.75 3.35 23.45 3.6 23.4 3.65 23.4 4.45 23.5 4.6 23.35 4.6 23.25 4.75 Q23.55 4.85 23.3 5.1 23.05 5.35 23.05 5.7 L23.0 5.8 22.1 5.75 22.05 5.8 21.65 6.4 21.65 6.65 21.7 6.75 21.85 6.75 21.85 6.55 21.9 6.75 21.95 6.8 Q22.55 9.05 22.0 11.85 21.05 16.8 18.85 21.15 L18.9 21.15 18.65 21.6 18.6 21.6 18.2 22.3 15.95 25.05 16.0 25.1 15.7 25.4 15.55 25.35 15.0 25.25 13.45 24.65 12.15 24.2 11.9 23.8 Q11.55 22.9 10.95 22.35 L10.3 21.1 10.25 20.45 Q8.3 21.25 6.35 21.5 L5.95 21.25 5.9 21.0 Q6.9 18.95 8.25 17.2 9.8 15.2 11.65 13.6 L12.6 12.8 Q12.2 10.75 12.65 8.8 L12.7 8.75 Q12.25 7.95 12.45 6.5 L13.05 4.25 13.5 3.65 13.8 3.2 Q14.15 3.85 14.0 4.85 L13.95 5.75 14.3 5.3 14.9 5.2 Q14.9 4.25 15.75 3.25 16.7 2.05 17.9 1.1 18.55 1.3 17.9 2.15 L17.05 3.2 16.8 4.15 16.6 5.3 17.2 5.45 18.7 3.9 Q19.65 3.05 20.7 2.3 L21.25 2.45 M22.4 3.95 L21.3 2.9 21.35 3.1 21.35 3.55 22.05 4.05 22.55 4.45 22.5 4.05 22.4 3.95 M20.7 4.25 L19.7 5.55 19.15 6.0 19.05 6.05 19.9 6.4 19.9 6.3 19.9 5.8 19.9 5.5 20.55 4.65 20.75 4.25 20.7 4.25 M21.15 5.25 L20.9 4.95 20.3 5.75 20.3 5.9 20.9 5.3 21.15 5.25 M22.65 5.5 L22.75 5.3 22.6 5.35 22.55 5.4 22.65 5.5 M22.65 5.05 Q22.1 4.95 21.6 4.5 L21.35 4.25 21.15 4.7 Q21.6 4.6 22.05 4.95 L22.65 5.05 M21.4 6.3 L21.65 5.85 Q21.2 5.95 20.8 6.2 L20.25 6.45 21.3 6.65 21.4 6.3 M21.85 6.9 Q21.1 7.5 20.2 7.1 L19.75 6.7 19.7 6.6 17.85 6.3 16.45 5.85 16.4 5.9 16.35 5.8 14.45 5.85 14.1 6.35 14.15 6.5 14.05 6.55 13.8 6.9 15.2 8.45 16.85 9.6 15.7 9.6 15.6 10.0 Q15.2 10.2 15.2 9.7 L15.3 9.45 14.75 9.1 14.75 9.15 14.4 9.55 13.9 9.45 Q13.6 9.2 13.8 8.85 L14.05 8.3 14.05 8.25 13.7 7.1 Q13.0 8.5 12.9 10.0 L12.9 11.75 13.05 12.75 14.55 14.05 15.7 14.8 Q15.6 13.75 15.9 12.45 16.25 10.85 17.2 9.95 18.25 8.9 19.9 8.7 L20.05 8.65 Q20.55 9.4 18.95 9.75 18.05 9.85 17.2 10.45 L16.7 11.6 16.4 13.0 15.85 14.8 16.55 15.2 17.2 17.7 18.0 20.35 18.35 20.95 18.55 20.6 Q20.05 17.5 20.9 14.25 21.95 10.4 21.85 6.9 M17.05 2.45 Q16.55 2.85 16.0 3.65 L15.15 5.2 16.2 5.25 16.2 4.85 16.55 3.45 16.65 2.95 16.7 2.95 17.0 2.6 17.05 2.45 M13.45 4.5 Q12.95 5.55 12.9 6.65 L12.85 8.1 Q13.1 7.2 13.6 6.35 L13.5 5.65 13.45 4.5 M14.6 8.95 L14.55 8.85 14.3 8.6 14.2 8.85 14.15 8.95 14.55 9.0 14.6 8.95 M6.4 20.95 L6.5 21.15 6.6 21.25 6.65 21.35 Q8.4 20.35 10.35 20.15 L10.35 20.1 10.55 20.05 10.75 19.95 Q12.15 18.15 12.85 15.8 13.15 14.75 12.8 13.6 L12.7 13.1 11.45 14.4 Q9.1 15.9 7.65 18.45 L6.4 20.95 M15.9 15.45 Q15.75 15.65 15.85 15.95 L15.8 16.05 15.55 16.35 Q15.25 16.45 15.2 16.8 13.8 17.3 12.75 18.5 L11.55 19.4 10.65 20.55 10.65 20.65 Q10.75 21.4 11.25 21.95 11.7 22.35 11.95 23.05 L12.4 23.75 12.6 23.8 13.55 24.2 13.95 24.65 14.55 24.6 15.55 24.75 16.05 24.2 Q16.5 23.8 16.95 23.5 L18.15 21.4 Q17.25 20.9 17.05 19.35 L16.3 15.85 16.2 15.55 15.95 15.4 15.9 15.45 M15.6 15.25 L14.9 14.7 Q14.5 14.3 13.8 14.15 L13.15 13.45 13.25 15.65 Q13.25 16.55 12.85 17.35 L12.6 17.8 13.25 17.25 15.45 15.9 15.5 15.45 15.6 15.25" fill="#000000" fill-rule="evenodd" stroke="none"/>
      <path d="M14.9 6.5 Q14.9 5.55 16.5 6.0 L18.45 6.75 18.45 7.05 18.05 7.2 17.0 6.9 16.75 7.15 Q16.45 7.55 16.65 8.0 L16.35 8.4 15.9 8.0 15.65 8.1 Q14.9 6.9 14.9 6.55 L14.9 6.5 M16.2 6.95 L16.25 6.9 16.45 6.75 16.1 6.65 16.2 6.95 M17.5 11.75 L17.45 11.5 17.65 11.05 17.9 10.65 17.85 10.4 Q17.85 9.9 19.7 9.8 L19.7 9.75 20.0 10.05 18.3 10.7 18.3 10.9 Q18.3 11.45 17.7 11.85 L17.5 11.75 M7.6 19.05 L7.5 18.75 Q7.5 18.35 9.5 16.6 L11.9 14.8 12.0 14.6 12.1 14.65 12.35 15.1 12.3 15.5 12.35 15.65 12.2 15.8 12.0 16.2 11.7 16.25 11.45 16.25 11.4 16.15 10.9 16.2 10.6 16.45 7.8 19.05 7.6 19.05" fill="#aeaeae" fill-rule="evenodd" stroke="none"/>
    </g>
    <g id="sprite1" transform="matrix(1.0, 0.0, 0.0, 1.0, 0.5, 0.55)">
      <use height="16.2" transform="matrix(1.0, 0.0, 0.0, 1.0, -0.5, -0.55)" width="20.0" xlink:href="#shape1"/>
    </g>
    <g id="shape1" transform="matrix(1.0, 0.0, 0.0, 1.0, 0.5, 0.55)">
      <path d="M12.45 9.1 Q12.85 8.85 13.2 8.7 L16.55 7.9 15.95 7.75 Q15.1 7.65 15.0 7.05 L17.0 7.75 17.65 7.6 18.4 6.15 Q18.75 4.9 18.65 3.5 L18.3 3.6 17.55 3.65 17.05 3.35 17.75 2.35 17.05 1.7 16.75 1.9 16.2 2.1 15.9 2.05 16.1 1.05 16.15 0.9 16.25 0.9 Q16.6 0.9 16.25 0.6 L16.25 0.55 Q13.1 0.2 10.4 1.2 10.2 2.15 10.75 3.1 11.55 4.45 12.95 5.35 10.8 4.25 10.25 2.4 L9.5 2.9 Q8.4 3.4 8.2 4.35 L7.55 4.95 8.9 6.4 Q10.3 8.05 12.35 9.05 L12.45 9.1 M16.9 1.5 L16.75 1.4 Q16.45 1.4 16.5 1.6 L16.9 1.5 M19.1 2.85 Q19.55 4.1 19.5 5.55 19.35 6.7 18.55 7.65 L18.5 7.95 17.15 8.5 15.55 8.8 Q14.0 9.0 12.75 9.8 L12.1 9.7 Q11.6 12.05 9.15 12.95 L8.6 15.0 4.6 14.75 4.15 15.5 3.75 15.65 Q1.8 15.6 0.1 14.0 L-0.4 13.2 Q-0.9 11.1 1.2 10.05 L2.05 9.95 3.15 7.85 3.55 7.7 5.45 5.65 5.95 5.5 6.3 5.3 6.95 4.9 6.95 4.2 7.95 2.55 Q8.8 1.05 10.7 0.4 L11.9 0.0 16.2 -0.2 Q18.3 0.85 19.1 2.85 M12.2 7.8 Q12.9 7.75 12.35 7.9 L12.2 7.8 M17.9 2.7 L17.55 3.15 18.6 3.4 17.9 2.7 M10.45 11.55 L10.65 10.9 11.2 10.65 11.5 9.75 11.65 9.4 11.65 9.35 11.45 9.3 10.05 8.4 Q8.15 7.05 7.05 5.25 L6.05 6.4 Q4.1 8.3 2.5 10.35 L3.8 12.45 4.6 11.35 6.25 9.75 Q6.4 10.55 5.95 11.1 L4.5 12.7 8.7 12.5 9.05 12.2 9.65 11.9 10.1 11.75 10.45 11.55 M15.85 6.5 L15.95 6.6 Q15.2 6.8 15.85 6.5 M2.35 10.8 L2.3 10.75 2.25 10.8 2.15 10.7 0.8 11.55 Q-0.15 12.2 0.15 13.2 L0.55 13.4 1.5 14.15 Q2.35 14.85 3.05 15.0 L3.95 14.95 3.75 13.85 2.35 10.8 M8.1 14.1 L8.45 13.3 4.1 13.05 4.25 13.3 4.6 14.7 6.2 14.45 8.1 14.1" fill="#000000" fill-rule="evenodd" stroke="none"/>
      <path d="M16.9 1.5 L16.5 1.6 Q16.45 1.4 16.75 1.4 L16.9 1.5 M12.35 9.05 Q10.3 8.05 8.9 6.4 L7.55 4.95 8.2 4.35 Q8.4 3.4 9.5 2.9 L10.25 2.4 Q10.8 4.25 12.95 5.35 11.55 4.45 10.75 3.1 10.2 2.15 10.4 1.2 13.1 0.2 16.25 0.55 L16.25 0.6 Q16.6 0.9 16.25 0.9 L16.15 0.9 16.1 1.05 15.9 2.05 16.2 2.1 16.75 1.9 17.05 1.7 17.75 2.35 17.05 3.35 17.55 3.65 18.3 3.6 18.65 3.5 Q18.75 4.9 18.4 6.15 L17.65 7.6 17.0 7.75 15.0 7.05 Q15.1 7.65 15.95 7.75 L16.55 7.9 13.2 8.7 Q12.85 8.85 12.45 9.1 L12.4 9.05 12.35 9.05 M17.9 2.7 L18.6 3.4 17.55 3.15 17.9 2.7 M12.2 7.8 L12.35 7.9 Q12.9 7.75 12.2 7.8 M15.85 6.5 Q15.2 6.8 15.95 6.6 L15.85 6.5 M2.35 10.8 L3.75 13.85 3.95 14.95 3.05 15.0 Q2.35 14.85 1.5 14.15 L0.55 13.4 0.15 13.2 Q-0.15 12.2 0.8 11.55 L2.15 10.7 2.25 10.8 2.35 10.8 M8.1 14.1 L6.2 14.45 4.6 14.7 4.25 13.3 4.1 13.05 8.45 13.3 8.1 14.1" fill="#32363d" fill-rule="evenodd" stroke="none"/>
      <path d="M10.45 11.55 L10.1 11.75 9.65 11.9 9.05 12.2 8.7 12.5 4.5 12.7 5.95 11.1 Q6.4 10.55 6.25 9.75 L4.6 11.35 3.8 12.45 2.5 10.35 Q4.1 8.3 6.05 6.4 L7.05 5.25 Q8.15 7.05 10.05 8.4 L11.45 9.3 11.65 9.35 11.65 9.4 11.5 9.75 11.2 10.65 10.65 10.9 10.45 11.55" fill="#535964" fill-rule="evenodd" stroke="none"/>
      <path d="M15.45 4.55 L14.8 5.0 Q14.05 5.0 13.7 4.45 L13.5 3.85 Q13.5 2.8 14.65 2.85 15.8 2.9 15.8 3.8 L15.45 4.55" fill="#ff0000" fill-rule="evenodd" stroke="none"/>
      <path d="M13.8 1.65 L12.95 1.75 Q12.8 2.25 13.15 3.1 L13.1 3.3 12.7 3.45 Q12.0 3.45 11.6 2.45 L11.3 1.4 Q11.3 0.75 13.4 0.8 15.45 0.85 15.45 1.3 15.45 1.9 14.85 1.85 L13.8 1.65 M9.0 3.95 L9.25 3.65 10.1 3.1 10.4 3.55 9.35 4.3 Q9.0 4.45 9.0 3.95 M1.35 11.15 Q2.3 10.7 2.75 11.8 L3.2 13.3 3.15 13.45 2.8 13.55 Q1.8 13.55 1.25 11.65 L1.35 11.15 M6.8 13.25 L5.85 13.8 Q5.5 14.0 5.5 13.5 L5.6 12.95 6.5 12.95 6.5 12.9 6.8 13.25" fill="#c8ccd0" fill-rule="evenodd" stroke="none"/>
    </g>
    <g id="sprite2" transform="matrix(1.0, 0.0, 0.0, 1.0, 0.0, 0.0)">
      <use height="18.7" transform="matrix(1.0, 0.0, 0.0, 1.0, 0.0, 0.0)" width="10.15" xlink:href="#shape2"/>
    </g>
    <g id="shape2" transform="matrix(1.0, 0.0, 0.0, 1.0, 0.0, 0.0)">
      <path d="M4.4 0.0 L6.6 0.4 7.4 0.5 Q8.3 4.7 9.5 8.85 10.25 11.4 10.05 13.85 10.3 14.8 10.0 15.95 9.6 17.55 8.65 18.55 L8.6 18.5 8.15 18.65 5.1 18.5 4.5 17.4 Q3.85 15.45 2.8 13.75 2.25 12.85 1.85 11.75 0.75 10.45 0.35 8.65 -0.35 5.65 0.3 2.75 0.55 1.6 1.35 0.6 1.85 0.25 2.55 0.35 L2.6 0.35 3.75 0.05 4.4 0.0 M7.65 2.45 Q7.45 1.35 6.5 1.05 L4.1 0.55 3.95 0.6 2.75 0.75 1.65 1.1 1.35 1.8 0.85 2.4 Q0.2 3.2 0.6 3.95 0.05 7.2 1.55 9.95 L5.1 17.1 5.4 17.9 8.45 17.8 9.15 17.15 9.25 17.0 Q9.65 16.1 9.5 15.1 L9.5 13.85 9.5 13.8 9.05 10.65 8.8 8.95 8.25 10.75 Q7.15 13.15 5.15 14.15 6.8 12.1 7.85 9.55 8.3 8.6 8.1 7.55 7.95 6.4 8.25 5.75 L8.25 5.7 7.65 2.45" fill="#000000" fill-rule="evenodd" stroke="none"/>
      <path d="M7.65 2.45 L8.25 5.7 8.25 5.75 Q7.95 6.4 8.1 7.55 8.3 8.6 7.85 9.55 6.8 12.1 5.15 14.15 7.15 13.15 8.25 10.75 L8.8 8.95 9.05 10.65 9.5 13.8 9.5 13.85 9.5 15.1 Q9.65 16.1 9.25 17.0 L9.15 17.15 8.45 17.8 5.4 17.9 5.1 17.1 1.55 9.95 Q0.05 7.2 0.6 3.95 0.2 3.2 0.85 2.4 L1.35 1.8 1.65 1.1 2.75 0.75 3.95 0.6 4.1 0.55 6.5 1.05 Q7.45 1.35 7.65 2.45" fill="#32363d" fill-rule="evenodd" stroke="none"/>
    </g>
    <g id="sprite3" transform="matrix(1.0, 0.0, 0.0, 1.0, 6.0, 0.0)">
      <use height="25.2" transform="matrix(1.0, 0.0, 0.0, 1.0, -6.0, 0.0)" width="18.7" xlink:href="#shape3"/>
    </g>
    <g id="shape3" transform="matrix(1.0, 0.0, 0.0, 1.0, 6.0, 0.0)">
      <path d="M1.15 7.0 L0.8 5.1 Q3.6 3.25 6.7 2.5 L8.1 2.15 9.45 0.0 Q10.65 2.8 10.5 6.0 L10.4 7.45 Q6.65 11.85 8.15 17.45 L8.5 18.5 7.3 19.95 Q7.75 20.65 8.6 20.95 L12.7 21.85 12.65 24.1 Q11.55 25.0 10.15 25.2 L7.0 24.75 Q9.45 25.05 11.6 23.85 L12.3 23.4 12.3 22.55 Q9.3 21.7 6.8 20.3 L6.9 20.15 7.8 18.65 7.55 16.55 7.8 12.2 8.0 10.0 4.05 13.05 4.35 15.2 5.15 14.5 6.05 14.4 4.6 15.8 5.15 17.45 6.35 16.6 5.15 17.9 5.35 19.0 6.25 18.45 6.05 19.2 5.1 19.65 4.9 20.85 4.3 20.3 4.5 17.5 4.3 16.3 3.8 15.0 2.8 15.7 1.45 15.9 2.7 19.1 2.9 20.55 2.55 22.9 2.75 23.4 4.1 23.8 4.95 23.7 6.8 20.35 5.75 23.95 6.6 24.6 3.35 24.6 1.95 23.05 1.45 24.15 2.75 24.6 1.05 24.65 1.15 22.6 0.3 21.75 0.9 21.1 0.0 19.95 0.1 19.5 Q-1.05 18.4 -2.5 17.9 L-5.6 16.75 -6.0 15.8 Q-4.15 14.05 -1.75 13.35 L0.05 13.05 -0.05 9.75 Q0.0 7.25 1.1 7.0 L0.45 10.35 1.4 8.3 1.15 7.0 M9.4 1.25 Q5.8 4.5 3.05 8.3 L1.7 10.25 3.7 12.0 9.4 7.6 Q8.75 6.15 8.8 4.4 L9.0 3.4 9.2 3.65 9.3 4.05 9.35 4.4 9.45 5.65 8.9 4.35 9.55 7.5 9.95 7.15 Q10.1 5.0 9.7 2.75 L9.4 1.25 M1.6 10.5 Q1.0 12.4 1.2 14.45 L1.4 15.75 2.05 15.65 2.6 15.4 3.1 15.05 3.65 14.7 3.6 12.25 2.4 11.65 1.6 10.5 M8.3 7.55 L8.6 7.95 8.6 8.1 7.95 7.75 7.85 8.75 7.7 7.35 8.3 7.55 M1.3 5.5 L1.9 8.05 6.9 3.05 1.3 5.5 M0.1 13.8 L-1.15 14.3 -1.55 14.05 -3.35 14.8 -5.35 16.1 Q-3.35 16.5 -1.75 17.5 L0.25 18.85 1.0 16.65 0.1 13.8 M1.3 21.4 L1.15 21.65 Q1.3 22.25 2.1 22.55 L2.4 19.15 1.75 21.4 1.3 21.4 M0.9 19.85 L1.3 20.4 1.5 17.55 0.6 19.25 0.9 19.85" fill="#000000" fill-rule="evenodd" stroke="none"/>
      <path d="M7.0 24.75 L6.9 24.7 6.6 24.6 5.75 23.95 6.8 20.35 4.95 23.7 4.1 23.8 2.75 23.4 2.55 22.9 2.9 20.55 2.7 19.1 1.45 15.9 2.8 15.7 3.8 15.0 4.3 16.3 4.5 17.5 4.3 20.3 4.9 20.85 5.1 19.65 6.05 19.2 6.25 18.45 5.35 19.0 5.15 17.9 6.35 16.6 5.15 17.45 4.6 15.8 6.05 14.4 5.15 14.5 4.35 15.2 4.05 13.05 8.0 10.0 7.8 12.2 7.55 16.55 7.8 18.65 6.9 20.15 6.8 20.3 Q9.3 21.7 12.3 22.55 L12.3 23.4 11.6 23.85 Q9.45 25.05 7.0 24.75 M3.35 24.6 L2.75 24.6 1.45 24.15 1.95 23.05 3.35 24.6 M1.1 7.0 L1.15 7.0 1.4 8.3 0.45 10.35 1.1 7.0 M0.9 19.85 L0.6 19.25 1.5 17.55 1.3 20.4 0.9 19.85 M1.3 21.4 L1.75 21.4 2.4 19.15 2.1 22.55 Q1.3 22.25 1.15 21.65 L1.3 21.4 M0.1 13.8 L1.0 16.65 0.25 18.85 -1.75 17.5 Q-3.35 16.5 -5.35 16.1 L-3.35 14.8 -1.55 14.05 -1.15 14.3 0.1 13.8 M1.3 5.5 L6.9 3.05 1.9 8.05 1.3 5.5 M8.3 7.55 L7.7 7.35 7.85 8.75 7.95 7.75 8.6 8.1 8.6 7.95 8.3 7.55 M1.6 10.5 L2.4 11.65 3.6 12.25 3.65 14.7 3.1 15.05 2.6 15.4 2.05 15.65 1.4 15.75 1.2 14.45 Q1.0 12.4 1.6 10.5 M9.4 1.25 L9.7 2.75 Q10.1 5.0 9.95 7.15 L9.55 7.5 8.9 4.35 9.45 5.65 9.35 4.4 9.3 4.05 9.2 3.65 9.0 3.4 8.8 4.4 Q8.75 6.15 9.4 7.6 L3.7 12.0 1.7 10.25 3.05 8.3 Q5.8 4.5 9.4 1.25" fill="#535964" fill-rule="evenodd" stroke="none"/>
      <path d="M7.5 12.3 L6.95 12.45 6.65 12.65 Q6.3 13.0 6.3 14.1 L6.0 14.25 5.85 14.1 5.75 14.15 5.6 14.45 5.2 14.15 5.1 14.1 Q4.95 13.65 4.95 13.0 L4.95 12.85 4.8 12.75 5.8 11.6 Q6.8 10.8 7.7 10.95 L7.75 10.9 7.8 11.1 7.4 11.85 7.5 12.3 M5.25 16.4 L5.1 15.8 Q5.1 15.35 5.4 15.3 6.05 15.95 6.05 16.45 L6.0 16.8 Q6.1 16.95 5.7 16.95 5.4 16.95 5.25 16.4 M5.95 17.85 L6.05 18.05 5.75 18.45 5.5 18.0 5.45 17.7 5.7 17.7 5.95 17.85" fill="#ff0000" fill-rule="evenodd" stroke="none"/>
      <path d="M9.65 2.7 Q9.5 3.2 8.55 3.45 L8.4 3.35 6.45 6.1 3.75 9.75 3.7 9.75 3.6 9.9 3.8 10.25 3.45 10.65 2.45 10.5 Q2.3 10.5 2.3 10.15 L2.4 9.2 Q2.55 9.05 2.85 9.05 L3.15 9.3 3.2 9.2 3.4 8.95 8.4 2.4 8.6 2.45 Q9.0 2.25 9.65 2.7 M2.2 12.2 Q2.35 11.95 2.7 12.0 L3.0 12.15 3.0 12.2 3.15 12.75 2.85 13.05 2.55 12.9 2.55 13.95 2.25 14.1 Q1.95 13.9 1.95 13.15 L1.95 12.7 1.95 12.6 2.0 12.55 2.0 12.35 2.2 12.2 M6.85 21.65 L7.2 21.0 7.35 21.05 Q8.0 20.65 9.7 21.65 L10.35 21.65 10.45 21.75 10.95 21.8 12.0 22.2 12.0 22.25 Q12.0 22.65 11.6 22.65 L11.05 22.95 8.3 22.4 8.25 22.25 7.35 22.15 7.2 22.35 6.8 21.8 6.8 21.7 6.8 21.65 6.85 21.65" fill="#aeaeae" fill-rule="evenodd" stroke="none"/>
    </g>
    <g id="sprite4" transform="matrix(1.0, 0.0, 0.0, 1.0, 0.0, 0.0)">
      <use height="15.15" transform="matrix(1.0, 0.0, 0.0, 1.0, 0.0, 0.0)" width="28.55" xlink:href="#shape4"/>
    </g>
    <g id="shape4" transform="matrix(1.0, 0.0, 0.0, 1.0, 0.0, 0.0)">
      <path d="M28.4 3.9 L27.05 4.8 26.35 5.2 26.0 6.2 22.65 6.95 23.0 11.4 23.0 12.7 22.3 12.6 20.1 9.35 19.45 8.25 Q18.25 8.95 16.65 8.9 L14.05 8.75 12.65 8.75 11.65 9.45 11.85 9.9 7.4 10.55 7.1 10.9 Q5.6 11.25 4.3 10.9 L3.2 10.45 Q3.05 12.5 2.35 14.5 L2.05 15.1 1.25 15.15 0.75 15.05 0.1 14.75 0.0 11.0 0.15 9.0 Q0.5 6.75 1.95 5.05 L3.6 3.25 21.9 2.6 22.85 0.0 23.5 1.6 23.75 2.75 25.1 3.15 25.35 3.35 28.45 3.45 28.4 3.9 M26.0 3.7 L25.55 3.75 24.8 4.45 27.95 3.7 26.0 3.7 M12.2 4.3 L13.45 3.45 3.85 3.8 2.85 4.65 2.4 6.4 Q1.25 7.0 0.85 8.25 L0.55 9.1 1.2 8.15 Q1.35 9.75 0.95 11.1 0.65 12.25 0.7 13.45 0.7 14.05 0.85 14.65 L1.7 14.7 2.45 13.95 2.85 10.0 4.2 10.2 4.45 10.15 4.7 10.25 4.7 10.4 5.7 9.8 6.7 8.95 5.9 7.8 6.1 7.25 6.9 8.45 7.05 9.05 6.3 10.15 5.95 10.5 Q8.45 9.65 11.0 9.55 L10.85 7.4 11.45 7.95 Q12.15 7.5 12.95 7.2 16.3 5.8 20.05 5.8 L22.45 5.85 24.0 4.3 24.8 3.4 Q22.7 3.05 20.55 3.45 L13.7 3.45 13.6 4.4 Q11.55 5.15 9.45 5.35 L8.15 5.4 7.4 6.75 Q7.35 6.25 7.45 5.8 L7.85 4.9 Q9.35 5.25 10.9 4.9 L12.2 4.3 M13.0 7.6 L11.95 7.95 11.7 8.7 14.5 8.05 19.0 8.1 20.5 6.25 13.1 7.55 Q13.0 7.45 13.0 7.6 M22.6 2.4 L23.0 2.6 22.65 1.85 22.5 2.25 22.6 2.4 M24.05 5.15 L23.3 5.9 23.0 6.2 22.6 6.35 23.9 5.9 25.6 5.15 24.05 5.15 M20.75 7.0 L19.7 8.05 22.5 11.8 21.95 7.05 20.75 7.0 M22.1 6.35 L21.7 6.1 22.15 5.95 21.0 6.2 22.1 6.35 M4.7 10.4 L4.85 10.55 5.4 10.6 4.7 10.4" fill="#000000" fill-rule="evenodd" stroke="none"/>
      <path d="M4.7 10.4 L5.4 10.6 4.85 10.55 4.7 10.4 4.7 10.25 4.45 10.15 4.2 10.2 2.85 10.0 2.45 13.95 1.7 14.7 0.85 14.65 Q0.7 14.05 0.7 13.45 0.65 12.25 0.95 11.1 1.35 9.75 1.2 8.15 L0.55 9.1 0.85 8.25 Q1.25 7.0 2.4 6.4 L2.85 4.65 3.85 3.8 13.45 3.45 12.2 4.3 10.9 4.9 Q9.35 5.25 7.85 4.9 L7.45 5.8 Q7.35 6.25 7.4 6.75 L8.15 5.4 9.45 5.35 Q11.55 5.15 13.6 4.4 L13.7 3.45 20.55 3.45 Q22.7 3.05 24.8 3.4 L24.0 4.3 22.45 5.85 20.05 5.8 Q16.3 5.8 12.95 7.2 12.15 7.5 11.45 7.95 L10.85 7.4 11.0 9.55 Q8.45 9.65 5.95 10.5 L6.3 10.15 7.05 9.05 6.9 8.45 6.1 7.25 5.9 7.8 6.7 8.95 5.7 9.8 4.7 10.4 M22.1 6.35 L21.0 6.2 22.15 5.95 21.7 6.1 22.1 6.35 M20.75 7.0 L21.95 7.05 22.5 11.8 19.7 8.05 20.75 7.0 M24.05 5.15 L25.6 5.15 23.9 5.9 22.6 6.35 23.0 6.2 23.3 5.9 24.05 5.15 M22.6 2.4 L22.5 2.25 22.65 1.85 23.0 2.6 22.6 2.4 M13.0 7.6 Q13.0 7.45 13.1 7.55 L20.5 6.25 19.0 8.1 14.5 8.05 11.7 8.7 11.95 7.95 13.0 7.6 M26.0 3.7 L27.95 3.7 24.8 4.45 25.55 3.75 26.0 3.7" fill="#333333" fill-rule="evenodd" stroke="none"/>
    </g>
    <g id="sprite5" transform="matrix(1.0, 0.0, 0.0, 1.0, 0.0, 0.0)">
      <use height="5.0" transform="matrix(1.0, 0.0, 0.0, 1.0, 0.0, 0.0)" width="6.7" xlink:href="#shape5"/>
    </g>
    <g id="shape5" transform="matrix(1.0, 0.0, 0.0, 1.0, 0.0, 0.0)">
      <path d="M3.8 2.2 Q3.7 2.8 3.3 2.55 L2.95 1.05 Q2.65 2.35 2.65 3.75 L2.55 4.3 4.0 3.85 4.4 3.85 Q4.65 2.2 4.25 0.55 L3.65 0.85 Q3.9 1.5 3.8 2.2 M3.4 0.25 L3.8 0.0 4.6 0.05 4.95 1.3 5.3 0.85 5.75 0.35 6.3 0.25 Q7.6 3.55 4.75 5.0 L4.3 4.85 4.7 4.55 2.9 4.85 2.45 4.55 2.0 4.85 1.3 4.85 1.2 4.25 Q-0.45 2.85 0.2 0.95 L0.5 0.8 0.85 0.8 1.2 0.95 Q1.35 1.75 1.8 2.25 L2.1 2.6 2.25 0.4 3.4 0.25 M1.9 4.2 Q1.8 2.55 0.55 1.45 0.45 2.95 1.5 3.8 L1.9 4.2 M6.2 0.8 L5.3 2.5 4.85 4.45 5.75 2.65 6.2 0.8" fill="#000000" fill-rule="evenodd" stroke="none"/>
      <path d="M3.8 2.2 Q3.9 1.5 3.65 0.85 L4.25 0.55 Q4.65 2.2 4.4 3.85 L4.0 3.85 2.55 4.3 2.65 3.75 Q2.65 2.35 2.95 1.05 L3.3 2.55 Q3.7 2.8 3.8 2.2 M6.2 0.8 L5.75 2.65 4.85 4.45 5.3 2.5 6.2 0.8 M1.9 4.2 L1.5 3.8 Q0.45 2.95 0.55 1.45 1.8 2.55 1.9 4.2" fill="#32363d" fill-rule="evenodd" stroke="none"/>
    </g>
    <g id="sprite6" transform="matrix(1.0, 0.0, 0.0, 1.0, 2.85, 1.65)">
      <use height="14.3" transform="matrix(1.0, 0.0, 0.0, 1.0, -2.85, -1.65)" width="13.4" xlink:href="#shape6"/>
    </g>
    <g id="shape6" transform="matrix(1.0, 0.0, 0.0, 1.0, 2.85, 1.65)">
      <path d="M2.55 3.15 Q1.25 2.0 0.75 0.25 L0.4 -1.0 2.8 -0.3 5.05 4.7 3.85 4.1 2.55 3.15 M0.9 6.55 L0.55 6.2 0.6 1.5 0.9 6.55 M9.05 11.9 L7.8 11.85 7.8 10.0 9.15 9.55 9.05 11.9 M9.1 2.85 L6.75 5.3 6.15 4.65 7.85 3.85 8.65 1.75 9.1 2.85 M5.5 7.6 L3.95 7.7 5.3 6.85 5.5 7.6 M-0.2 3.75 L0.65 6.7 -2.1 6.45 -0.2 3.75" fill="#32363d" fill-rule="evenodd" stroke="none"/>
      <path d="M3.85 4.1 L5.05 4.7 2.8 -0.3 0.4 -1.0 0.75 0.25 Q1.25 2.0 2.55 3.15 L1.3 2.55 1.4 3.65 Q1.55 5.25 0.9 6.55 L2.5 7.7 3.25 7.45 5.35 6.45 3.85 4.1 M0.9 6.55 L0.6 1.5 0.55 6.2 0.9 6.55 M9.05 11.9 L8.8 12.65 7.65 12.25 Q3.3 11.0 1.05 7.3 L-2.85 6.95 -2.0 6.0 Q0.8 2.65 0.15 -1.65 L1.15 -1.55 Q2.85 -1.25 4.15 -0.1 L5.35 -0.2 5.5 -1.6 6.75 0.2 7.65 0.55 8.95 0.65 10.55 6.25 9.65 7.7 9.25 8.0 9.4 9.0 Q9.6 10.45 9.05 11.9 L9.15 9.55 7.8 10.0 7.8 11.85 9.05 11.9 M9.1 2.85 L8.65 1.75 7.85 3.85 6.15 4.65 6.75 5.3 9.1 2.85 M9.3 3.75 L7.15 5.65 9.45 6.4 9.3 3.75 M8.05 2.4 L8.25 1.4 5.6 0.55 3.05 -0.25 4.2 1.9 4.05 1.5 4.55 1.9 4.8 1.75 5.6 0.55 5.4 1.35 5.45 2.7 5.95 4.4 8.05 2.4 M5.5 7.6 L5.3 6.85 3.95 7.7 5.5 7.6 M5.5 10.8 L5.5 7.9 2.5 8.05 5.5 10.8 M7.3 11.55 L7.3 10.0 6.65 9.65 6.35 8.9 6.0 11.05 7.3 11.55 M-0.2 3.75 L-2.1 6.45 0.65 6.7 -0.2 3.75" fill="#000000" fill-rule="evenodd" stroke="none"/>
      <path d="M3.85 4.1 L5.35 6.45 3.25 7.45 2.5 7.7 0.9 6.55 Q1.55 5.25 1.4 3.65 L1.3 2.55 2.55 3.15 3.85 4.1 M8.05 2.4 L5.95 4.4 5.45 2.7 5.4 1.35 5.6 0.55 4.8 1.75 4.55 1.9 4.05 1.5 4.2 1.9 3.05 -0.25 5.6 0.55 8.25 1.4 8.05 2.4 M9.3 3.75 L9.45 6.4 7.15 5.65 9.3 3.75 M7.3 11.55 L6.0 11.05 6.35 8.9 6.65 9.65 7.3 10.0 7.3 11.55 M5.5 10.8 L2.5 8.05 5.5 7.9 5.5 10.8" fill="#535964" fill-rule="evenodd" stroke="none"/>
      <path d="M8.0 1.65 Q7.8 1.85 7.5 1.85 L5.7 1.05 5.7 0.75 7.95 1.35 8.0 1.65 M9.45 5.25 L9.2 5.4 8.65 4.75 8.4 4.25 Q8.4 4.0 8.55 3.95 L8.7 3.9 9.45 5.25 M8.9 10.4 L8.45 10.55 8.25 10.55 8.15 10.25 8.25 9.9 Q8.5 9.7 9.0 10.2 L8.9 10.4" fill="#c8ccd0" fill-rule="evenodd" stroke="none"/>
      <path d="M6.7 5.75 L7.95 6.45 8.0 6.7 9.2 7.35 9.35 7.4 9.45 7.8 Q9.0 7.9 8.7 8.1 L8.45 8.35 8.45 8.4 Q8.45 8.75 7.7 9.05 7.35 9.05 7.05 8.35 L6.55 7.5 6.3 6.35 6.35 6.35 Q5.75 5.95 5.6 5.4 6.1 5.35 6.7 5.75" fill="#ff0000" fill-rule="evenodd" stroke="none"/>
    </g>
    <g id="sprite7" transform="matrix(1.0, 0.0, 0.0, 1.0, 2.4, 0.0)">
      <use height="26.85" transform="matrix(1.0, 0.0, 0.0, 1.0, -2.4, 0.0)" width="16.6" xlink:href="#shape7"/>
    </g>
    <g id="shape7" transform="matrix(1.0, 0.0, 0.0, 1.0, 2.4, 0.0)">
      <path d="M13.25 7.7 L13.8 6.7 13.1 5.1 12.3 3.7 11.9 4.05 11.6 4.4 11.35 4.6 11.05 4.7 11.2 3.85 11.9 3.45 12.1 2.75 11.65 2.35 Q9.45 0.85 6.65 1.15 L7.85 3.55 11.0 4.85 Q12.85 5.6 13.2 7.7 L13.2 7.75 13.25 7.7 M10.75 5.35 L10.8 6.15 10.55 7.7 9.3 10.85 12.0 12.2 13.05 10.3 Q13.65 9.2 13.25 9.0 L13.0 8.9 Q12.5 8.6 12.35 7.9 L11.8 6.55 10.75 5.35 M12.75 1.95 L13.7 4.7 14.2 7.5 13.95 8.9 13.65 10.35 12.75 12.1 12.1 12.9 11.2 15.2 10.35 17.2 10.75 18.75 10.65 19.75 10.65 19.8 Q12.2 20.75 12.55 22.7 13.0 25.15 10.7 25.1 L9.5 23.1 Q8.8 22.1 8.65 20.9 L7.45 23.75 5.7 26.8 5.65 26.85 Q1.2 26.95 -2.3 24.35 -2.7 22.65 -1.75 21.15 L0.1 18.15 0.2 18.05 0.0 17.4 0.9 15.25 1.6 15.2 Q1.7 14.55 1.45 14.0 1.1 13.15 1.05 12.3 0.95 10.75 1.2 9.25 1.4 7.75 1.95 6.35 L2.85 4.6 2.65 3.7 2.85 3.5 2.95 3.65 3.6 2.6 5.0 1.15 6.45 0.0 9.6 0.9 12.75 1.95 M7.55 3.9 L7.45 3.9 Q7.25 4.8 6.25 5.15 4.75 6.25 3.85 8.1 L3.85 9.3 Q5.0 9.6 5.3 10.6 L8.2 11.2 8.65 10.4 10.05 6.7 10.35 5.2 Q9.35 4.6 8.3 4.25 L7.55 3.9 M7.2 3.5 L6.15 1.25 4.3 2.95 3.35 4.1 3.5 4.4 3.75 4.8 Q5.45 3.7 7.2 3.5 M9.85 11.75 L9.0 11.8 11.6 12.8 11.85 12.45 11.35 12.55 10.75 12.3 9.95 12.1 9.9 12.0 9.85 11.9 9.85 11.75 M3.05 9.8 L2.85 9.75 1.55 10.8 Q1.55 12.4 1.95 13.85 L2.1 15.1 2.95 15.55 3.15 14.7 Q3.3 14.55 3.6 14.55 L3.5 15.75 6.4 16.45 7.95 16.9 7.85 15.9 7.75 13.5 Q7.65 12.3 8.15 11.3 5.8 11.8 3.8 10.45 L3.65 9.9 3.6 10.0 3.05 9.8 M3.9 5.05 L4.0 5.6 3.65 5.45 3.25 5.35 Q2.1 7.4 1.6 9.7 L3.05 9.05 Q3.65 6.2 5.95 4.45 4.95 5.05 3.9 5.05 M8.75 17.5 L8.9 18.25 8.85 19.8 8.75 20.3 10.05 19.8 9.9 17.45 8.75 17.5 M8.2 18.2 L8.05 17.35 5.85 17.1 6.0 18.6 5.7 19.4 5.35 20.05 8.0 20.25 Q8.35 19.3 8.2 18.2 M5.25 18.4 L5.55 17.05 3.65 16.5 3.45 17.75 2.9 19.4 5.15 20.0 5.25 18.4 M8.35 16.4 L9.1 17.0 10.0 16.55 8.35 16.4 M1.55 15.65 L1.4 16.3 1.05 17.75 1.0 18.4 2.4 19.2 2.45 18.75 3.1 16.25 1.55 15.65 M8.4 12.8 L8.45 15.9 10.2 16.05 11.0 13.8 11.05 13.45 11.45 13.0 Q9.85 13.4 8.6 12.25 L8.4 12.8 M0.7 19.0 Q-0.4 19.85 -1.05 21.2 L-1.6 22.5 -1.5 22.85 Q1.2 25.05 5.05 24.8 L5.15 24.75 5.85 22.5 Q6.1 21.5 6.65 20.65 L6.0 20.65 Q3.25 20.6 0.95 19.05 L0.75 18.9 0.7 19.0 M8.7 20.65 L8.65 20.85 Q9.45 21.2 10.0 22.25 L11.05 24.6 11.65 24.45 11.95 24.25 Q11.5 24.2 11.3 23.9 10.9 23.45 11.15 23.15 11.1 22.75 10.75 22.5 L10.75 22.4 10.75 22.1 10.75 22.0 10.2 21.5 10.05 21.1 10.05 21.0 9.6 20.65 Q9.4 20.6 9.6 20.5 L9.6 20.45 8.7 20.6 8.25 20.65 7.85 20.6 7.05 20.65 Q7.05 21.5 6.55 22.65 L6.05 24.0 5.45 25.25 Q1.45 25.85 -1.6 23.5 L-1.9 23.35 -2.0 23.65 Q0.5 26.0 4.0 26.25 L5.3 26.35 Q6.35 24.95 6.85 23.3 7.4 21.5 8.7 20.6 L8.7 20.65 M10.7 21.3 L10.75 21.4 10.9 21.45 11.2 21.65 Q11.2 22.25 11.6 22.7 L11.9 23.2 12.05 23.4 12.1 23.5 Q12.1 22.65 11.6 21.95 10.75 20.65 10.65 19.85 L10.2 20.5 10.2 20.4 10.05 20.45 10.3 20.65 10.7 21.3" fill="#000000" fill-rule="evenodd" stroke="none"/>
      <path d="M13.2 7.7 Q12.85 5.6 11.0 4.85 L7.85 3.55 6.65 1.15 Q9.45 0.85 11.65 2.35 L12.1 2.75 11.9 3.45 11.2 3.85 11.05 4.7 11.35 4.6 11.6 4.4 11.9 4.05 12.3 3.7 13.1 5.1 13.8 6.7 13.25 7.7 13.2 7.7 M10.75 5.35 L11.8 6.55 12.35 7.9 Q12.5 8.6 13.0 8.9 L13.25 9.0 Q13.65 9.2 13.05 10.3 L12.0 12.2 9.3 10.85 10.55 7.7 10.8 6.15 10.75 5.35 M7.2 3.5 Q5.45 3.7 3.75 4.8 L3.5 4.4 3.35 4.1 4.3 2.95 6.15 1.25 7.2 3.5 M5.25 18.4 L5.15 20.0 2.9 19.4 3.45 17.75 3.65 16.5 5.55 17.05 5.25 18.4 M8.2 18.2 Q8.35 19.3 8.0 20.25 L5.35 20.05 5.7 19.4 6.0 18.6 5.85 17.1 8.05 17.35 8.2 18.2 M8.75 17.5 L9.9 17.45 10.05 19.8 8.75 20.3 8.85 19.8 8.9 18.25 8.75 17.5 M8.4 12.8 L8.6 12.25 Q9.85 13.4 11.45 13.0 L11.05 13.45 11.0 13.8 10.2 16.05 8.45 15.9 8.4 12.8 M1.55 15.65 L3.1 16.25 2.45 18.75 2.4 19.2 1.0 18.4 1.05 17.75 1.4 16.3 1.55 15.65" fill="#32363d" fill-rule="evenodd" stroke="none"/>
      <path d="M7.55 3.9 L8.3 4.25 Q9.35 4.6 10.35 5.2 L10.05 6.7 8.65 10.4 8.2 11.2 5.3 10.6 Q5.0 9.6 3.85 9.3 L3.85 8.1 Q4.75 6.25 6.25 5.15 7.25 4.8 7.45 3.9 L7.55 3.9 M3.9 5.05 Q4.95 5.05 5.95 4.45 3.65 6.2 3.05 9.05 L1.6 9.7 Q2.1 7.4 3.25 5.35 L3.65 5.45 4.0 5.6 3.9 5.05 M3.05 9.8 L3.6 10.0 3.65 9.9 3.8 10.45 Q5.8 11.8 8.15 11.3 7.65 12.3 7.75 13.5 L7.85 15.9 7.95 16.9 6.4 16.45 3.5 15.75 3.6 14.55 Q3.3 14.55 3.15 14.7 L2.95 15.55 2.1 15.1 1.95 13.85 Q1.55 12.4 1.55 10.8 L2.85 9.75 3.05 9.8 M9.85 11.75 L9.85 11.9 9.9 12.0 9.95 12.1 10.75 12.3 11.35 12.55 11.85 12.45 11.6 12.8 9.0 11.8 9.85 11.75 M8.35 16.4 L10.0 16.55 9.1 17.0 8.35 16.4 M10.7 21.3 L10.3 20.65 10.05 20.45 10.2 20.4 10.2 20.5 10.65 19.85 Q10.75 20.65 11.6 21.95 12.1 22.65 12.1 23.5 L12.05 23.4 11.9 23.2 11.6 22.7 Q11.2 22.25 11.2 21.65 L10.9 21.45 10.75 21.4 10.7 21.3 M8.7 20.65 L8.7 20.6 Q7.4 21.5 6.85 23.3 6.35 24.95 5.3 26.35 L4.0 26.25 Q0.5 26.0 -2.0 23.65 L-1.9 23.35 -1.6 23.5 Q1.45 25.85 5.45 25.25 L6.05 24.0 6.55 22.65 Q7.05 21.5 7.05 20.65 L7.85 20.6 8.25 20.65 8.7 20.6 9.6 20.45 9.6 20.5 Q9.4 20.6 9.6 20.65 L10.05 21.0 10.05 21.1 10.2 21.5 10.75 22.0 10.75 22.1 10.75 22.4 10.75 22.5 Q11.1 22.75 11.15 23.15 10.9 23.45 11.3 23.9 11.5 24.2 11.95 24.25 L11.65 24.45 11.05 24.6 10.0 22.25 Q9.45 21.2 8.65 20.85 L8.7 20.65 M0.7 19.0 L0.75 18.9 0.95 19.05 Q3.25 20.6 6.0 20.65 L6.65 20.65 Q6.1 21.5 5.85 22.5 L5.15 24.75 5.05 24.8 Q1.2 25.05 -1.5 22.85 L-1.6 22.5 -1.05 21.2 Q-0.4 19.85 0.7 19.0" fill="#535964" fill-rule="evenodd" stroke="none"/>
      <path d="M12.0 3.0 L11.6 3.05 10.1 2.45 Q8.6 1.8 7.5 1.8 L7.1 1.7 7.05 1.4 Q7.05 0.15 9.25 1.0 11.25 1.75 12.05 2.7 L12.0 3.0 M12.3 3.15 Q12.9 3.2 13.3 4.35 L13.8 6.05 13.55 6.45 13.1 6.1 13.1 6.0 12.7 4.5 12.3 3.25 12.3 3.15 M11.4 5.7 L12.2 7.25 12.6 8.55 13.4 9.2 12.6 9.75 Q12.3 9.75 11.95 9.0 11.6 8.9 11.3 8.6 10.85 8.15 10.85 7.75 L11.1 7.4 11.25 7.3 11.2 7.2 10.7 5.95 10.8 5.7 11.1 5.7 11.2 5.75 11.4 5.7 M6.5 1.5 Q6.5 1.85 5.55 2.1 L5.25 2.0 Q5.15 2.15 5.15 1.75 5.15 1.45 5.65 1.35 6.15 1.2 6.45 1.35 6.5 1.15 6.5 1.5 M8.75 12.45 L10.35 12.8 11.25 13.25 11.1 13.85 10.8 14.55 10.35 14.55 Q10.2 14.6 10.2 14.25 L10.3 13.95 10.55 13.85 Q9.5 13.55 8.75 12.8 L8.75 12.45 M5.9 17.45 Q5.9 16.75 7.85 17.1 L7.95 17.5 7.95 17.7 6.6 17.6 Q6.4 17.6 6.35 17.75 L6.2 17.9 Q5.9 17.85 5.9 17.45 M8.45 17.7 L8.45 17.3 9.0 17.3 9.6 17.4 9.75 17.6 8.9 17.9 8.6 17.8 8.45 17.7 M1.75 16.25 L1.35 15.85 Q1.35 15.3 2.15 15.6 2.9 15.95 2.9 16.25 2.9 17.25 2.4 18.35 L2.25 18.45 Q1.9 17.9 2.0 17.3 L2.15 16.7 Q2.15 16.4 1.75 16.25 M4.65 17.3 L4.35 17.2 Q4.35 17.05 3.75 16.95 L3.65 16.5 4.4 16.4 Q4.85 16.6 5.0 17.15 L4.65 17.3 M11.35 21.0 L11.55 22.2 11.55 22.35 Q11.6 22.5 11.25 22.5 10.9 22.5 10.6 21.5 L10.35 20.5 Q10.35 20.05 10.65 19.95 11.25 20.35 11.35 21.0" fill="#c8ccd0" fill-rule="evenodd" stroke="none"/>
    </g>
    <g id="sprite8" transform="matrix(1.0, 0.0, 0.0, 1.0, 0.0, 0.0)">
      <use height="6.8" transform="matrix(1.0, 0.0, 0.0, 1.0, 0.0, 0.0)" width="16.65" xlink:href="#shape8"/>
    </g>
    <g id="shape8" transform="matrix(1.0, 0.0, 0.0, 1.0, 0.0, 0.0)">
      <path d="M15.95 2.15 L16.1 1.7 15.95 1.45 14.9 1.35 15.05 1.8 15.2 2.4 15.2 2.45 15.25 2.45 15.25 2.55 15.25 2.6 15.6 2.5 15.95 2.15 M16.65 2.45 L16.35 2.9 15.15 3.45 14.8 4.4 14.15 5.1 12.8 6.0 10.05 6.55 9.35 6.3 6.85 6.8 5.1 6.7 4.65 6.65 2.9 6.1 Q0.75 5.2 0.0 3.1 L0.2 2.25 0.5 1.75 Q1.35 0.95 2.45 0.65 L5.05 0.45 Q5.65 0.4 6.2 0.75 L6.95 0.95 7.55 1.7 7.85 1.75 Q8.7 2.3 9.45 2.2 L10.1 1.75 Q10.7 0.45 11.95 0.0 L12.25 0.4 12.3 0.85 14.55 1.0 14.55 0.95 14.65 0.85 14.75 1.05 16.55 1.15 16.65 2.45 M13.75 2.85 L14.1 2.8 14.25 2.8 14.35 2.9 14.75 2.8 14.75 2.7 14.85 2.45 14.75 2.3 14.7 2.25 14.5 2.15 14.4 2.1 14.25 2.05 14.0 2.15 Q13.6 2.3 13.55 2.6 L13.65 2.85 13.75 2.85 M13.45 3.05 L13.5 3.0 13.45 2.95 13.45 3.05 M13.45 2.2 Q13.8 1.9 14.25 1.9 L14.6 1.95 14.6 1.9 14.5 1.3 13.05 1.2 13.4 2.1 13.45 2.2 M12.8 1.2 L11.9 1.95 11.5 2.15 Q11.45 1.85 11.65 1.65 L11.8 1.45 11.5 1.2 10.85 1.55 10.85 1.85 10.75 2.05 10.45 2.35 Q10.9 4.2 10.55 5.85 L10.85 5.85 12.75 5.3 12.6 4.95 12.65 4.7 Q13.1 4.55 13.05 4.95 L13.05 5.1 13.3 4.9 Q12.85 4.65 12.85 4.1 L12.95 3.8 13.15 3.7 13.1 3.5 13.2 3.25 13.25 3.2 12.95 2.05 12.8 1.2 M12.5 1.15 L12.3 1.1 12.25 1.15 12.4 1.15 12.5 1.15 M14.3 3.35 L13.5 3.45 13.35 3.65 13.4 3.6 Q13.65 3.6 13.75 3.8 L13.8 3.9 13.95 3.8 14.25 3.7 14.5 3.35 14.3 3.35 M13.2 4.4 L13.55 4.6 13.9 4.15 13.55 4.1 13.25 4.1 13.05 4.2 13.2 4.4 M9.85 2.55 L8.75 2.9 7.95 2.75 7.9 2.85 7.9 2.8 7.7 2.6 7.6 2.55 7.4 2.55 7.4 2.35 7.35 2.3 6.9 1.65 5.1 0.9 3.95 0.7 3.75 1.45 3.7 1.6 3.55 1.85 3.4 2.3 3.6 2.35 3.8 2.75 4.35 3.4 5.2 3.6 5.4 3.65 5.6 3.8 Q6.4 4.35 6.45 4.9 L6.4 4.95 6.4 5.15 5.75 5.95 5.75 6.0 8.15 5.85 8.25 5.85 Q9.4 6.1 9.35 5.05 L9.3 5.0 9.1 5.0 9.35 4.8 9.35 5.5 10.05 5.3 9.95 2.55 9.9 2.5 9.85 2.55 M6.8 3.0 L6.6 2.9 5.95 2.65 6.85 2.95 6.8 3.0 M5.85 4.2 L4.65 3.85 3.55 3.3 3.05 3.15 2.95 3.0 2.75 3.05 2.6 2.45 2.7 2.45 2.75 2.45 2.9 1.65 Q3.1 1.05 3.5 0.7 2.05 0.75 0.8 1.95 L0.85 2.15 1.0 2.15 0.9 2.6 0.75 2.8 0.45 3.05 0.45 3.1 Q1.55 4.7 3.35 5.4 L5.25 5.95 5.45 5.9 5.65 5.3 5.9 4.4 5.85 4.2" fill="#000000" fill-rule="evenodd" stroke="none"/>
      <path d="M15.95 2.15 L15.6 2.5 15.25 2.6 15.25 2.55 15.25 2.45 15.2 2.45 15.2 2.4 15.05 1.8 14.9 1.35 15.95 1.45 16.1 1.7 15.95 2.15 M13.45 3.05 L13.45 2.95 13.5 3.0 13.45 3.05 M12.5 1.15 L12.4 1.15 12.25 1.15 12.3 1.1 12.5 1.15 M12.8 1.2 L12.95 2.05 13.25 3.2 13.2 3.25 13.1 3.5 13.15 3.7 12.95 3.8 12.85 4.1 Q12.85 4.65 13.3 4.9 L13.05 5.1 13.05 4.95 Q13.1 4.55 12.65 4.7 L12.6 4.95 12.75 5.3 10.85 5.85 10.55 5.85 Q10.9 4.2 10.45 2.35 L10.75 2.05 10.85 1.85 10.85 1.55 11.5 1.2 11.8 1.45 11.65 1.65 Q11.45 1.85 11.5 2.15 L11.9 1.95 12.8 1.2" fill="#32363d" fill-rule="evenodd" stroke="none"/>
      <path d="M13.75 2.85 L13.65 2.85 13.55 2.6 Q13.6 2.3 14.0 2.15 L14.25 2.05 14.4 2.1 14.5 2.15 14.7 2.25 14.75 2.3 14.85 2.45 14.75 2.7 14.75 2.8 14.35 2.9 14.25 2.8 14.1 2.8 13.75 2.85 M13.45 2.2 L13.4 2.1 13.05 1.2 14.5 1.3 14.6 1.9 14.6 1.95 14.25 1.9 Q13.8 1.9 13.45 2.2 M13.2 4.4 L13.05 4.2 13.25 4.1 13.55 4.1 13.9 4.15 13.55 4.6 13.2 4.4 M14.3 3.35 L14.5 3.35 14.25 3.7 13.95 3.8 13.8 3.9 13.75 3.8 Q13.65 3.6 13.4 3.6 L13.35 3.65 13.5 3.45 14.3 3.35 M9.95 2.55 L10.05 5.3 9.35 5.5 9.35 4.8 9.1 5.0 9.3 5.0 9.35 5.05 Q9.4 6.1 8.25 5.85 L8.15 5.85 5.75 6.0 5.75 5.95 6.4 5.15 6.4 4.95 6.45 4.9 Q6.4 4.35 5.6 3.8 L5.4 3.65 5.2 3.6 4.35 3.4 3.8 2.75 3.6 2.35 3.4 2.3 3.55 1.85 3.7 1.6 3.75 1.45 3.95 0.7 5.1 0.9 6.9 1.65 7.35 2.3 7.4 2.35 7.4 2.55 7.6 2.55 7.7 2.6 7.9 2.8 7.9 2.85 7.95 2.75 8.75 2.9 9.85 2.55 9.95 2.55 M6.8 3.0 L6.85 2.95 5.95 2.65 6.6 2.9 6.8 3.0 M5.85 4.2 L5.9 4.4 5.65 5.3 5.45 5.9 5.25 5.95 3.35 5.4 Q1.55 4.7 0.45 3.1 L0.45 3.05 0.75 2.8 0.9 2.6 1.0 2.15 0.85 2.15 0.8 1.95 Q2.05 0.75 3.5 0.7 3.1 1.05 2.9 1.65 L2.75 2.45 2.7 2.45 2.6 2.45 2.75 3.05 2.95 3.0 3.05 3.15 3.55 3.3 4.65 3.85 5.85 4.2" fill="#535964" fill-rule="evenodd" stroke="none"/>
      <path d="M10.8 2.5 L10.35 2.6 10.15 2.55 10.1 2.25 11.0 1.4 11.7 1.65 11.25 2.25 12.15 2.0 12.45 2.1 12.5 2.35 11.4 3.05 10.95 2.8 10.8 2.5 M8.55 2.7 L8.6 3.0 Q8.6 3.3 7.75 3.3 L6.75 3.0 6.3 2.55 6.4 2.3 6.15 2.3 5.0 1.95 4.2 1.4 4.3 1.3 4.1 1.2 4.2 0.8 Q6.35 1.05 6.8 2.25 L7.2 2.55 8.4 2.6 8.55 2.7" fill="#c8ccd0" fill-rule="evenodd" stroke="none"/>
    </g>
  </defs>
</svg>
