<?xml version="1.0" encoding="UTF-8" standalone="no"?>
<svg xmlns:xlink="http://www.w3.org/1999/xlink" height="1003.2px" width="551.1px" xmlns="http://www.w3.org/2000/svg">
  <g transform="matrix(6.0, 0.0, 0.0, 6.0, 189.6, 81.3)">
    <use height="12.7" transform="matrix(0.4948, 0.8639, -0.8639, 0.4948, 38.5, 7.3)" width="10.45" xlink:href="#sprite0"/>
    <use height="13.9" transform="matrix(0.8284, -0.55, 0.55, 0.8284, 16.4, 21.55)" width="11.5" xlink:href="#sprite1"/>
    <use height="12.25" transform="matrix(0.3736, 0.7002, -0.7545, 0.4026, 25.7, 23.45)" width="16.9" xlink:href="#sprite2"/>
    <use height="20.2" transform="matrix(0.8099, 0.5791, -0.4653, 0.8913, 13.0, 17.2)" width="8.7" xlink:href="#sprite3"/>
    <use height="20.2" transform="matrix(0.7564, 0.649, -0.649, 0.7564, 5.1, 27.35)" width="11.55" xlink:href="#sprite4"/>
    <use height="20.2" transform="matrix(0.9749, 0.1987, -0.062, 1.0029, 12.1, 19.85)" width="8.7" xlink:href="#sprite3"/>
    <use height="20.2" transform="matrix(0.6096, 0.7845, -0.7845, 0.6096, 14.55, 28.95)" width="11.55" xlink:href="#sprite4"/>
    <use height="30.95" transform="matrix(0.5506, 0.8296, -0.7466, 0.4956, 28.2, 7.45)" width="16.8" xlink:href="#sprite5"/>
    <use height="13.9" transform="matrix(0.8624, -0.4943, 0.4943, 0.8624, 17.15, 17.8)" width="11.5" xlink:href="#sprite1"/>
    <use height="22.6" transform="matrix(-0.9527, -0.2783, 0.2783, -0.9527, 53.6669, 59.8357)" width="27.2" xlink:href="#sprite6"/>
    <use height="12.25" transform="matrix(0.6894, 0.7172, -0.7172, 0.6894, 25.3, 19.6)" width="16.9" xlink:href="#sprite2"/>
    <use height="10.55" transform="matrix(0.6041, 0.7917, -0.7917, 0.6041, 37.2186, 5.1576)" width="15.7" xlink:href="#sprite7"/>
    <use height="27.9" transform="matrix(1.0, 0.0, 0.0, 1.0, -31.6, 125.75)" width="27.9" xlink:href="#sprite8"/>
  </g>
  <defs>
    <g id="sprite0" transform="matrix(1.0, 0.0, 0.0, 1.0, 0.0, 0.0)">
      <use height="12.7" transform="matrix(1.0, 0.0, 0.0, 1.0, 0.0, 0.0)" width="10.45" xlink:href="#shape0"/>
    </g>
    <g id="shape0" transform="matrix(1.0, 0.0, 0.0, 1.0, 0.0, 0.0)">
      <path d="M3.5 0.55 L3.55 0.5 Q3.9 0.85 4.1 0.4 L4.35 0.1 4.45 0.1 4.7 0.0 5.05 0.2 5.05 0.45 5.15 0.45 8.2 0.9 8.3 0.9 8.4 1.1 8.4 1.25 Q9.15 1.55 9.75 2.2 L9.95 2.65 Q10.55 3.5 10.4 4.8 10.2 5.95 9.5 6.45 L9.6 8.0 10.05 8.55 10.4 8.9 Q10.55 9.55 10.0 9.85 L9.2 10.05 8.9 11.2 Q8.65 12.05 8.1 12.35 L7.9 12.7 Q5.45 12.5 3.45 11.2 L3.4 11.25 3.4 11.15 3.35 11.1 3.25 11.0 3.0 11.1 2.6 11.05 2.55 11.05 2.45 11.4 2.15 11.65 2.05 11.6 1.8 11.55 1.75 11.55 1.65 11.75 1.3 12.0 1.2 11.8 1.2 11.75 0.55 12.4 Q0.25 12.25 0.35 12.0 L0.55 11.65 0.55 11.5 0.55 11.4 0.45 11.3 0.35 11.2 0.45 10.55 0.4 8.9 0.15 7.6 Q0.05 6.7 0.2 6.05 -0.05 5.45 0.05 4.6 L0.45 3.55 Q0.45 3.15 0.85 2.7 1.65 1.7 2.9 1.15 L2.95 1.25 2.95 1.2 3.25 0.9 3.25 0.85 3.5 0.55 M4.35 7.2 L4.1 9.1 3.55 10.75 3.95 10.9 4.45 11.4 7.65 12.25 Q7.65 12.0 7.8 11.85 L8.0 11.7 8.25 10.9 8.75 10.0 8.7 10.0 9.25 9.55 10.0 9.25 9.7 8.65 9.35 8.25 9.2 8.15 9.15 8.0 Q8.95 7.7 8.9 7.1 L8.9 6.7 8.85 6.7 Q8.65 6.35 8.75 6.0 L8.75 5.95 8.6 5.95 8.35 5.95 7.55 6.75 7.35 6.15 5.85 7.0 5.95 6.8 5.8 6.95 5.5 7.25 5.0 7.2 5.15 6.9 4.45 7.2 4.55 6.85 4.3 7.05 4.35 7.2 M8.7 5.2 L8.65 5.0 8.65 5.15 8.7 5.2 M8.15 5.05 L8.1 5.35 8.1 5.4 8.2 5.15 8.15 5.05 M8.55 5.45 L8.45 5.7 Q8.5 5.6 8.6 5.6 L8.55 5.5 8.55 5.45 M2.0 6.95 L1.85 6.7 1.85 7.0 Q1.85 8.1 2.3 9.1 L2.45 9.05 2.6 9.05 2.4 8.1 2.35 7.35 2.0 7.1 2.0 6.95 M4.0 6.8 L4.05 6.75 4.0 6.75 4.0 6.8 M3.4 7.95 L3.4 7.85 3.3 7.85 3.4 7.95 M2.2 9.2 L2.05 9.05 2.2 9.3 2.2 9.2 M1.0 8.4 L1.0 8.45 1.1 8.45 1.0 8.4 M1.1 10.85 L1.15 10.85 1.1 10.75 1.1 10.85" fill="#000000" fill-rule="evenodd" stroke="none"/>
      <path d="M5.85 7.0 L7.35 6.15 7.55 6.75 8.35 5.95 8.6 5.95 8.75 5.95 8.75 6.0 Q8.65 6.35 8.85 6.7 L8.9 6.7 8.9 7.1 Q8.95 7.7 9.15 8.0 L9.2 8.15 9.35 8.25 9.7 8.65 10.0 9.25 9.25 9.55 8.7 10.0 8.75 10.0 8.25 10.9 8.0 11.7 7.8 11.85 Q7.65 12.0 7.65 12.25 L4.45 11.4 3.95 10.9 3.55 10.75 4.1 9.1 4.35 7.2 4.45 7.2 5.15 6.9 5.0 7.2 5.5 7.25 5.8 6.95 5.85 7.0 M1.85 7.0 L2.0 6.95 2.0 7.1 2.35 7.35 2.4 8.1 2.6 9.05 2.45 9.05 2.3 9.1 Q1.85 8.1 1.85 7.0" fill="#eedc9d" fill-rule="evenodd" stroke="none"/>
    </g>
    <g id="sprite1" transform="matrix(1.0, 0.0, 0.0, 1.0, 0.0, 0.0)">
      <use height="13.9" transform="matrix(1.0, 0.0, 0.0, 1.0, 0.0, 0.0)" width="11.5" xlink:href="#shape1"/>
    </g>
    <g id="shape1" transform="matrix(1.0, 0.0, 0.0, 1.0, 0.0, 0.0)">
      <path d="M5.65 1.45 Q6.9 0.45 8.75 0.55 L10.35 2.5 11.45 4.6 11.5 4.95 10.4 6.65 Q9.6 7.9 8.3 8.75 L8.0 9.05 Q7.05 9.25 6.4 9.95 L3.8 12.95 3.6 13.35 Q2.45 12.85 1.55 11.95 0.85 11.25 0.65 10.4 L0.9 10.1 1.0 9.6 1.7 8.7 1.75 8.65 1.85 8.45 2.8 6.0 4.45 3.8 Q5.35 2.45 5.65 1.45" fill="#ffffff" fill-rule="evenodd" stroke="none"/>
      <path d="M6.5 0.0 L8.9 0.05 9.05 0.05 Q11.7 2.25 11.5 5.4 L11.35 5.75 Q9.7 8.95 6.7 11.0 6.25 11.25 5.85 11.6 4.8 12.45 4.1 13.55 L4.4 13.6 3.95 13.8 3.9 13.85 3.85 13.85 2.6 13.7 Q1.1 12.9 0.3 11.45 -0.25 10.5 0.25 9.4 L0.65 9.1 0.65 9.15 0.8 9.05 0.95 8.95 1.0 8.35 Q0.9 7.95 1.2 7.5 L3.05 4.4 3.6 3.55 4.45 2.4 Q4.4 1.95 4.8 1.75 L5.2 1.2 5.25 0.9 5.35 0.85 6.0 0.35 6.5 0.0 M5.65 1.45 Q5.35 2.45 4.45 3.8 L2.8 6.0 1.85 8.45 1.75 8.65 1.7 8.7 1.0 9.6 0.9 10.1 0.65 10.4 Q0.85 11.25 1.55 11.95 2.45 12.85 3.6 13.35 L3.8 12.95 6.4 9.95 Q7.05 9.25 8.0 9.05 L8.3 8.75 Q9.6 7.9 10.4 6.65 L11.5 4.95 11.45 4.6 10.35 2.5 8.75 0.55 Q6.9 0.45 5.65 1.45" fill="#000000" fill-rule="evenodd" stroke="none"/>
    </g>
    <g id="sprite2" transform="matrix(1.0, 0.0, 0.0, 1.0, 0.0, 0.0)">
      <use height="12.25" transform="matrix(1.0, 0.0, 0.0, 1.0, 0.0, 0.0)" width="16.9" xlink:href="#shape2"/>
    </g>
    <g id="shape2" transform="matrix(1.0, 0.0, 0.0, 1.0, 0.0, 0.0)">
      <path d="M5.95 0.4 L6.05 0.15 6.25 0.05 6.5 0.0 6.6 0.15 6.6 0.25 6.6 0.5 Q8.8 0.75 10.05 2.65 L9.25 3.9 12.15 5.95 14.1 5.35 Q15.25 6.3 15.95 7.65 L16.3 8.4 16.9 8.75 16.5 9.9 16.05 9.9 15.4 11.1 14.6 11.3 13.9 12.15 Q10.85 12.75 9.45 9.95 L6.9 8.8 5.95 9.95 0.0 7.65 1.55 5.95 1.75 5.35 Q4.3 3.35 5.95 0.6 L5.95 0.4 M6.1 1.3 Q4.3 4.0 1.95 6.25 L1.7 6.65 0.4 7.65 5.05 8.55 Q4.95 4.55 7.85 1.75 L6.2 1.35 Q6.15 1.2 6.1 1.3 M8.2 2.1 L7.1 3.4 Q5.55 4.7 5.35 6.9 L5.3 8.6 6.3 8.85 9.3 2.6 8.2 2.1 M8.95 4.3 L7.85 6.4 10.15 5.3 8.95 4.3 M12.45 6.55 L10.35 7.55 10.9 8.15 12.95 6.9 12.45 6.55 M11.35 6.15 L10.5 6.55 9.75 7.05 9.7 7.1 10.05 7.35 12.05 6.55 11.35 6.15 M8.15 7.15 L7.65 6.95 8.3 8.6 8.15 7.15 M10.2 7.85 L10.1 10.0 10.6 10.3 10.5 9.85 10.35 8.7 Q10.25 8.15 10.55 8.15 L10.4 8.05 10.2 7.85 M8.35 7.25 L8.95 8.85 9.75 9.3 9.75 7.55 8.35 7.25 M12.3 11.35 L12.65 11.05 13.25 11.0 13.5 10.35 14.1 10.25 14.35 9.6 14.75 9.3 15.0 7.6 14.8 7.2 13.1 7.15 Q12.35 8.4 10.75 8.55 L10.65 10.35 Q11.2 11.35 12.3 11.35 M12.85 11.4 L12.8 11.4 12.85 11.45 13.1 11.35 12.85 11.4 M11.0 5.8 L10.35 5.4 10.2 5.6 7.75 6.7 8.8 7.0 11.0 5.8 M7.8 8.5 L7.45 7.4 7.1 8.3 7.8 8.5 M14.05 5.9 L12.8 6.35 14.65 6.95 14.05 5.9 M14.7 9.6 Q14.55 9.6 14.45 9.75 L14.35 10.15 14.45 10.55 14.7 10.7 14.95 10.55 15.05 10.15 14.95 9.75 14.7 9.6 M13.65 11.5 Q14.15 11.65 14.3 10.65 L13.7 10.6 13.65 11.5 M16.25 8.9 L15.1 8.4 15.0 9.3 16.2 9.35 16.25 8.9" fill="#000000" fill-rule="evenodd" stroke="none"/>
      <path d="M12.85 11.45 L12.8 11.4 12.85 11.4 12.85 11.45 M12.3 11.35 Q11.2 11.35 10.65 10.35 L10.75 8.55 Q12.35 8.4 13.1 7.15 L14.8 7.2 15.0 7.6 14.75 9.3 14.35 9.6 14.1 10.25 13.5 10.35 13.25 11.0 12.65 11.05 12.3 11.35 M8.35 7.25 L9.75 7.55 9.75 9.3 8.95 8.85 8.35 7.25 M10.2 7.85 L10.4 8.05 10.55 8.15 Q10.25 8.15 10.35 8.7 L10.5 9.85 10.6 10.3 10.1 10.0 10.2 7.85 M8.15 7.15 L8.3 8.6 7.65 6.95 8.15 7.15 M11.35 6.15 L12.05 6.55 10.05 7.35 9.7 7.1 9.75 7.05 10.5 6.55 11.35 6.15 M12.45 6.55 L12.95 6.9 10.9 8.15 10.35 7.55 12.45 6.55 M8.95 4.3 L10.15 5.3 7.85 6.4 8.95 4.3 M8.2 2.1 L9.3 2.6 6.3 8.85 5.3 8.6 5.35 6.9 Q5.55 4.7 7.1 3.4 L8.2 2.1 M6.1 1.3 Q6.15 1.2 6.2 1.35 L7.85 1.75 Q4.95 4.55 5.05 8.55 L0.4 7.65 1.7 6.65 1.95 6.25 Q4.3 4.0 6.1 1.3 M7.8 8.5 L7.1 8.3 7.45 7.4 7.8 8.5 M11.0 5.8 L8.8 7.0 7.75 6.7 10.2 5.6 10.35 5.4 11.0 5.8" fill="#666666" fill-rule="evenodd" stroke="none"/>
      <path d="M12.85 11.45 L12.85 11.4 13.1 11.35 12.85 11.45 M16.25 8.9 L16.2 9.35 15.0 9.3 15.1 8.4 16.25 8.9 M13.65 11.5 L13.7 10.6 14.3 10.65 Q14.15 11.65 13.65 11.5 M14.7 9.6 L14.95 9.75 15.05 10.15 14.95 10.55 14.7 10.7 14.45 10.55 14.35 10.15 14.45 9.75 Q14.55 9.6 14.7 9.6 M14.05 5.9 L14.65 6.95 12.8 6.35 14.05 5.9" fill="#eedc9d" fill-rule="evenodd" stroke="none"/>
    </g>
    <g id="sprite3" transform="matrix(1.0, 0.0, 0.0, 1.0, 0.0, 0.0)">
      <use height="20.2" transform="matrix(1.0, 0.0, 0.0, 1.0, 0.0, 0.0)" width="8.7" xlink:href="#shape3"/>
    </g>
    <g id="shape3" transform="matrix(1.0, 0.0, 0.0, 1.0, 0.0, 0.0)">
      <path d="M6.9 1.6 L6.6 0.95 5.9 0.45 Q5.55 0.1 4.95 0.45 0.8 4.25 0.5 9.9 0.2 14.6 1.95 18.55 L2.8 19.75 Q4.2 19.9 5.35 19.25 6.0 16.2 7.1 13.45 8.45 10.0 8.3 6.15 L8.2 5.75 Q7.65 5.05 7.6 3.85 7.6 2.6 6.9 1.6 M4.75 0.0 Q8.25 0.65 8.6 4.55 9.1 10.45 6.85 15.8 6.05 17.6 5.55 19.5 L5.5 19.85 4.6 20.0 2.65 20.15 Q-0.15 17.25 0.0 12.9 0.15 10.05 0.6 7.35 1.4 2.9 4.75 0.0" fill="#000000" fill-rule="evenodd" stroke="none"/>
      <path d="M6.9 1.6 Q7.6 2.6 7.6 3.85 7.65 5.05 8.2 5.75 L8.3 6.15 Q8.45 10.0 7.1 13.45 6.0 16.2 5.35 19.25 4.2 19.9 2.8 19.75 L1.95 18.55 Q0.2 14.6 0.5 9.9 0.8 4.25 4.95 0.45 5.55 0.1 5.9 0.45 L6.6 0.95 6.9 1.6" fill="#3c3e7d" fill-rule="evenodd" stroke="none"/>
    </g>
    <g id="sprite4" transform="matrix(1.0, 0.0, 0.0, 1.0, 0.0, 0.0)">
      <use height="20.2" transform="matrix(1.0, 0.0, 0.0, 1.0, 0.0, 0.0)" width="11.55" xlink:href="#shape4"/>
    </g>
    <g id="shape4" transform="matrix(1.0, 0.0, 0.0, 1.0, 0.0, 0.0)">
      <path d="M1.9 0.1 L1.95 0.0 2.65 0.0 Q4.55 0.25 5.2 2.15 L6.1 2.15 6.9 2.15 Q7.9 2.2 8.4 1.65 L8.75 0.2 10.75 1.2 10.65 1.3 10.25 2.35 9.35 5.7 8.85 5.95 8.4 5.9 Q6.5 8.8 5.95 12.35 L5.65 14.1 5.95 14.55 5.9 15.15 5.85 15.15 Q7.2 16.35 8.85 17.2 10.1 17.8 11.5 17.85 L11.55 18.65 10.55 20.2 3.6 19.95 3.3 19.55 2.4 19.55 1.65 19.45 0.3 18.55 0.3 18.3 0.75 18.6 Q-1.05 12.2 1.35 5.95 L0.25 5.5 1.75 0.25 1.9 0.1 M1.8 0.85 L0.85 5.2 4.7 6.75 Q5.8 5.9 6.85 5.55 L8.95 5.3 9.8 2.0 Q6.35 3.5 3.25 1.85 L1.85 0.85 1.8 0.8 1.8 0.85 M11.15 18.3 Q8.7 18.25 6.9 16.65 L5.1 14.8 Q5.6 14.75 5.65 12.9 5.7 11.1 6.3 9.35 L7.6 6.25 7.65 6.25 8.0 5.65 6.35 6.15 6.1 6.55 4.95 7.2 1.35 5.95 Q0.4 10.7 0.6 15.5 L1.0 18.7 1.6 18.95 3.6 19.15 4.2 19.8 8.2 20.0 10.25 19.8 11.15 18.3" fill="#000000" fill-rule="evenodd" stroke="none"/>
      <path d="M1.85 0.85 L3.25 1.85 Q6.35 3.5 9.8 2.0 L8.95 5.3 6.85 5.55 Q5.8 5.9 4.7 6.75 L0.85 5.2 1.8 0.85 1.85 0.85 M11.15 18.3 L10.25 19.8 8.2 20.0 4.2 19.8 3.6 19.15 1.6 18.95 1.0 18.7 0.6 15.5 Q0.4 10.7 1.35 5.95 L4.95 7.2 6.1 6.55 6.35 6.15 8.0 5.65 7.65 6.25 7.6 6.25 6.3 9.35 Q5.7 11.1 5.65 12.9 5.6 14.75 5.1 14.8 L6.9 16.65 Q8.7 18.25 11.15 18.3" fill="#63492e" fill-rule="evenodd" stroke="none"/>
    </g>
    <g id="sprite5" transform="matrix(1.0, 0.0, 0.0, 1.0, 0.0, 0.0)">
      <use height="30.95" transform="matrix(1.0, 0.0, 0.0, 1.0, 0.0, 0.0)" width="16.8" xlink:href="#shape5"/>
    </g>
    <g id="shape5" transform="matrix(1.0, 0.0, 0.0, 1.0, 0.0, 0.0)">
      <path d="M5.2 2.6 L5.6 1.6 5.75 1.3 5.9 0.95 5.95 0.75 8.35 0.4 Q10.1 0.5 11.55 1.25 L12.2 1.6 13.05 3.1 Q14.0 4.65 12.85 5.85 L12.6 6.25 12.5 6.0 12.45 6.0 12.45 6.45 11.0 4.05 Q9.4 1.9 6.6 2.4 L5.45 2.6 5.2 2.65 5.2 2.6 M4.65 5.1 L4.9 4.6 Q5.15 4.15 5.55 4.0 7.0 6.6 7.85 9.55 L7.3 9.95 Q6.35 11.0 5.1 11.25 L4.9 11.1 4.55 11.0 4.35 10.95 4.3 10.9 4.15 10.65 3.55 9.95 3.15 9.35 3.0 9.3 3.0 8.45 4.15 6.35 4.65 5.1 M1.8 24.45 Q2.15 23.3 3.05 22.45 3.95 21.55 3.9 20.95 L9.9 21.45 10.3 21.5 10.3 21.45 10.9 21.4 Q9.8 23.45 9.15 26.0 8.4 28.6 8.9 30.65 4.85 29.45 0.6 28.6 L1.8 24.45 M15.1 26.85 L14.7 27.25 Q14.6 26.1 14.15 24.95 L15.1 26.85 M12.25 21.6 L12.3 21.5 12.35 21.0 12.5 20.85 Q12.45 21.7 12.85 22.65 L11.45 21.3 11.95 21.2 12.25 21.6" fill="#ffffff" fill-rule="evenodd" stroke="none"/>
      <path d="M5.2 2.65 L5.45 2.6 6.6 2.4 Q9.4 1.9 11.0 4.05 L12.45 6.45 12.45 6.0 12.5 6.0 12.6 6.25 12.85 5.85 Q14.0 4.65 13.05 3.1 L12.2 1.6 11.55 1.25 Q10.1 0.5 8.35 0.4 L5.95 0.75 5.9 0.95 5.75 1.3 5.6 1.6 5.2 2.6 5.15 2.7 5.2 2.65 M10.25 4.4 Q8.2 2.0 4.9 3.2 L4.85 3.8 5.35 3.45 5.6 3.45 5.75 3.5 5.9 3.6 Q7.9 7.25 8.95 11.25 9.95 14.95 9.45 18.6 L11.5 18.35 13.05 16.9 Q12.45 14.8 12.45 12.15 L12.45 11.05 12.35 10.6 12.2 7.95 12.15 7.45 11.7 6.35 11.55 5.8 10.25 4.4 M14.25 4.9 L13.85 5.3 13.65 5.45 Q13.2 5.75 13.0 6.3 L12.8 6.9 14.95 13.25 Q15.7 15.3 14.0 17.15 L12.95 18.1 12.65 19.45 12.35 20.65 12.7 20.55 12.55 20.75 14.3 23.9 Q15.2 25.5 15.75 27.25 L15.0 27.9 14.75 28.1 14.7 28.6 14.5 28.15 14.3 27.7 13.3 25.1 11.35 21.35 11.0 21.35 10.05 26.0 Q9.4 28.3 9.0 30.7 L9.25 30.75 9.0 30.75 8.95 30.95 8.9 30.75 Q4.5 30.4 0.0 29.0 L1.0 25.1 Q1.55 22.6 3.1 20.75 L2.7 20.6 Q2.1 19.85 2.4 18.95 L2.75 17.25 Q2.8 16.65 3.25 16.4 L3.4 16.45 3.65 16.55 3.7 16.65 3.75 16.75 3.75 16.85 3.75 16.95 3.95 16.95 Q3.7 14.55 2.6 12.25 L2.35 10.95 Q2.35 10.05 2.5 9.2 L2.35 9.4 Q2.2 7.75 3.2 5.95 L4.35 3.95 4.15 3.55 Q4.15 3.1 4.4 2.8 L5.5 0.8 Q5.8 0.1 6.6 0.0 9.35 -0.15 11.65 1.0 13.35 1.85 13.9 3.9 L14.25 4.85 14.25 4.9 M12.95 9.2 L13.15 10.5 13.6 13.95 13.3 13.45 13.25 16.7 13.85 15.85 15.0 14.35 13.25 10.05 12.95 9.2 M4.65 5.1 L4.15 6.35 3.0 8.45 3.0 9.3 3.15 9.35 3.55 9.95 4.15 10.65 4.3 10.9 4.35 10.95 4.55 11.0 4.9 11.1 5.1 11.25 Q6.35 11.0 7.3 9.95 L7.85 9.55 Q7.0 6.6 5.55 4.0 5.15 4.15 4.9 4.6 L4.65 5.1 M3.05 10.2 L3.55 12.85 4.5 17.0 4.55 17.3 4.6 17.4 8.15 18.45 9.25 18.6 Q9.2 16.2 8.8 13.75 6.95 13.15 5.0 12.0 3.6 11.2 3.05 10.2 M7.05 11.15 Q6.25 11.7 5.5 11.55 L7.05 12.3 Q8.15 12.65 8.75 13.35 L8.5 12.05 8.05 10.1 7.05 11.15 M3.2 17.3 Q3.05 17.55 3.05 17.85 L3.1 18.6 2.9 19.35 2.85 19.75 Q5.95 21.25 9.4 21.1 9.2 20.8 9.15 20.3 L9.25 19.45 9.25 19.25 6.95 18.85 6.35 18.45 Q5.2 18.5 4.35 17.95 L3.95 18.1 3.95 17.55 3.5 17.35 3.2 17.3 M1.8 24.45 L0.6 28.6 Q4.85 29.45 8.9 30.65 8.4 28.6 9.15 26.0 9.8 23.45 10.9 21.4 L10.3 21.45 10.3 21.5 9.9 21.45 3.9 20.95 Q3.95 21.55 3.05 22.45 2.15 23.3 1.8 24.45 M10.05 20.1 L10.15 21.0 11.8 20.75 Q11.7 20.25 11.75 19.6 L11.9 18.9 10.7 19.2 10.0 19.25 10.05 20.1 M12.25 21.6 L11.95 21.2 11.45 21.3 12.85 22.65 Q12.45 21.7 12.5 20.85 L12.35 21.0 12.3 21.5 12.25 21.6 M15.1 26.85 L14.15 24.95 Q14.6 26.1 14.7 27.25 L15.1 26.85" fill="#000000" fill-rule="evenodd" stroke="none"/>
      <path d="M10.25 4.4 L11.55 5.8 11.7 6.35 12.15 7.45 12.2 7.95 12.35 10.6 12.45 11.05 12.45 12.15 Q12.45 14.8 13.05 16.9 L11.5 18.35 9.45 18.6 Q9.95 14.95 8.95 11.25 7.9 7.25 5.9 3.6 L5.75 3.5 5.6 3.45 5.35 3.45 4.85 3.8 4.9 3.2 Q8.2 2.0 10.25 4.4 M12.95 9.2 L13.25 10.05 15.0 14.35 13.85 15.85 13.25 16.7 13.3 13.45 13.6 13.95 13.15 10.5 12.95 9.2 M3.2 17.3 L3.5 17.35 3.95 17.55 3.95 18.1 4.35 17.95 Q5.2 18.5 6.35 18.45 L6.95 18.85 9.25 19.25 9.25 19.45 9.15 20.3 Q9.2 20.8 9.4 21.1 5.95 21.25 2.85 19.75 L2.9 19.35 3.1 18.6 3.05 17.85 Q3.05 17.55 3.2 17.3 M7.05 11.15 L8.05 10.1 8.5 12.05 8.75 13.35 Q8.15 12.65 7.05 12.3 L5.5 11.55 Q6.25 11.7 7.05 11.15 M3.05 10.2 Q3.6 11.2 5.0 12.0 6.95 13.15 8.8 13.75 9.2 16.2 9.25 18.6 L8.15 18.45 4.6 17.4 4.55 17.3 4.5 17.0 3.55 12.85 3.05 10.2" fill="#63492e" fill-rule="evenodd" stroke="none"/>
      <path d="M10.05 20.1 L10.0 19.25 10.7 19.2 11.9 18.9 11.75 19.6 Q11.7 20.25 11.8 20.75 L10.15 21.0 10.05 20.1" fill="#666666" fill-rule="evenodd" stroke="none"/>
      <path d="M16.8 5.5 L15.05 7.35 14.6 8.65 14.7 8.6 16.0 12.0 16.05 12.1 16.1 11.9 16.25 11.95 16.3 12.1 Q16.3 13.6 13.45 20.2 L14.7 22.8 15.0 22.5 Q15.3 22.5 15.3 22.7 L14.85 23.15 14.9 23.3 14.7 23.5 14.6 23.4 13.5 24.2 11.65 23.7 10.4 23.15 8.15 22.85 4.5 22.4 2.55 21.85 0.35 21.05 0.3 20.85 0.4 20.8 0.4 20.75 Q1.35 18.75 2.35 18.05 2.2 18.0 2.2 17.75 L2.6 16.2 3.0 14.6 Q2.95 13.5 2.1 11.75 L1.2 9.95 Q1.2 9.2 2.5 6.0 3.45 3.55 3.95 2.7 L3.9 2.55 Q3.9 2.1 5.25 1.9 L9.2 2.15 Q9.7 2.25 10.4 2.75 L11.25 3.6 11.95 4.65 12.55 4.8 16.7 5.3 16.8 5.5 M12.2 5.05 L13.25 6.7 14.45 6.75 14.9 6.85 Q15.1 6.4 15.8 5.7 L12.75 5.3 12.2 5.05 M14.5 7.3 L13.75 7.15 13.3 7.0 13.1 7.0 11.6 4.65 Q10.1 2.25 7.05 2.25 5.3 2.25 4.3 2.75 L3.05 5.15 Q1.65 8.05 1.65 10.0 L2.55 11.65 2.8 12.15 3.15 13.1 3.4 14.45 3.4 14.6 3.4 14.75 3.1 16.95 2.9 17.1 2.8 17.05 2.6 17.55 2.85 17.8 3.0 17.75 3.05 17.75 3.1 17.9 3.0 18.05 3.1 18.15 Q3.6 18.95 4.05 19.2 5.25 20.3 6.85 20.15 L10.2 19.7 12.75 19.95 13.1 20.15 13.7 18.65 14.8 16.15 15.45 14.0 15.85 12.65 15.65 12.25 13.0 10.45 13.05 10.25 Q13.8 10.4 14.85 11.1 L15.35 11.45 15.05 10.65 14.5 8.85 14.55 8.7 14.4 8.8 14.2 8.4 Q14.2 7.75 14.5 7.45 L14.5 7.3 M5.45 4.0 Q3.2 6.35 3.2 8.05 L3.4 9.95 Q3.95 11.75 5.8 11.75 8.1 11.75 8.85 9.8 L9.1 7.7 Q9.1 6.65 8.45 5.65 7.5 4.2 5.75 4.2 L5.55 4.1 5.45 4.0 M7.3 4.15 L8.75 5.35 Q9.6 6.3 9.65 6.6 L9.5 7.7 9.2 10.15 Q8.4 12.2 5.8 12.2 3.7 12.2 3.05 10.15 L2.8 8.1 Q2.8 6.45 3.6 5.1 4.35 3.7 5.35 3.55 6.1 3.4 7.3 4.15 M0.8 20.85 L2.05 21.2 4.25 21.95 8.1 22.45 10.6 22.8 13.45 23.75 14.4 23.05 13.8 21.95 13.3 20.8 13.15 20.8 12.75 20.65 12.35 20.35 11.0 20.25 6.8 20.3 Q4.15 20.3 3.0 18.95 L2.65 18.5 2.1 19.2 0.8 20.85" fill="#000000" fill-rule="evenodd" stroke="none"/>
      <path d="M14.5 7.3 L14.5 7.45 Q14.2 7.75 14.2 8.4 L14.4 8.8 14.55 8.7 14.5 8.85 15.05 10.65 15.35 11.45 14.85 11.1 Q13.8 10.4 13.05 10.25 L13.0 10.45 15.65 12.25 15.85 12.65 15.45 14.0 14.8 16.15 13.7 18.65 13.1 20.15 12.75 19.95 10.2 19.7 6.85 20.15 Q5.25 20.3 4.05 19.2 3.6 18.95 3.1 18.15 L3.0 18.05 3.1 17.9 3.05 17.75 3.0 17.75 2.85 17.8 2.6 17.55 2.8 17.05 2.9 17.1 3.1 16.95 3.4 14.75 3.4 14.6 3.4 14.45 3.15 13.1 2.8 12.15 2.55 11.65 1.65 10.0 Q1.65 8.05 3.05 5.15 L4.3 2.75 Q5.3 2.25 7.05 2.25 10.1 2.25 11.6 4.65 L13.1 7.0 13.3 7.0 13.75 7.15 14.5 7.3 M12.2 5.05 L12.75 5.3 15.8 5.7 Q15.1 6.4 14.9 6.85 L14.45 6.75 13.25 6.7 12.2 5.05 M0.8 20.85 L2.1 19.2 2.65 18.5 3.0 18.95 Q4.15 20.3 6.8 20.3 L11.0 20.25 12.35 20.35 12.75 20.65 13.15 20.8 13.3 20.8 13.8 21.95 14.4 23.05 13.45 23.75 10.6 22.8 8.1 22.45 4.25 21.95 2.05 21.2 0.8 20.85 M7.3 4.15 Q6.1 3.4 5.35 3.55 4.35 3.7 3.6 5.1 2.8 6.45 2.8 8.1 L3.05 10.15 Q3.7 12.2 5.8 12.2 8.4 12.2 9.2 10.15 L9.5 7.7 9.65 6.6 Q9.6 6.3 8.75 5.35 L7.3 4.15" fill="#999999" fill-rule="evenodd" stroke="none"/>
    </g>
    <g id="sprite6" transform="matrix(1.0, 0.0, 0.0, 1.0, -0.9, 1.35)">
      <use height="22.6" transform="matrix(1.0, 0.0, 0.0, 1.0, 0.9, -1.35)" width="27.2" xlink:href="#shape6"/>
    </g>
    <g id="shape6" transform="matrix(1.0, 0.0, 0.0, 1.0, -0.9, 1.35)">
      <path d="M21.1 9.4 L21.95 9.1 21.1 9.5 21.1 9.4 M6.5 13.5 L6.55 13.55 6.5 13.55 6.45 13.5 6.5 13.5" fill="#333333" fill-rule="evenodd" stroke="none"/>
      <path d="M20.7 3.4 L23.15 1.75 24.4 0.4 Q24.45 0.05 24.8 -0.25 L25.05 -0.45 25.65 -1.35 25.8 -0.95 25.9 -1.0 Q27.3 1.6 27.9 4.6 28.25 6.6 28.0 8.45 L28.1 9.2 27.9 10.4 27.85 10.45 27.95 10.75 26.5 10.15 24.2 8.9 23.3 8.8 22.0 9.55 19.3 10.75 11.35 14.05 10.9 13.6 10.5 13.85 Q10.45 14.45 9.15 14.6 L7.75 15.0 7.25 15.1 6.55 14.65 6.45 14.6 Q6.0 14.7 5.75 15.25 L5.9 16.15 5.7 17.0 Q5.95 17.8 5.75 18.85 L5.4 20.95 5.5 21.0 4.6 21.05 4.5 20.95 4.05 20.75 3.85 20.7 Q1.15 18.6 0.9 15.3 0.75 12.8 2.25 11.05 2.2 10.0 3.55 9.35 5.15 8.6 6.35 7.6 L5.45 7.5 Q4.45 6.9 4.5 5.75 L8.4 6.15 8.45 5.55 12.8 4.5 20.2 2.5 20.6 2.7 Q21.5 3.15 20.65 3.35 19.8 2.7 18.85 3.05 L14.5 4.55 Q12.3 5.1 10.05 5.9 L9.4 6.1 20.7 3.4 M22.75 3.0 L23.15 3.65 Q24.25 5.9 23.8 8.3 L26.05 8.85 27.35 9.6 27.3 9.3 27.5 8.5 27.2 5.1 Q26.85 2.25 25.7 -0.2 L25.45 0.15 22.75 3.0 M19.45 4.7 L20.2 6.25 21.6 6.0 22.35 5.85 23.0 5.65 22.65 3.05 19.75 4.3 18.3 4.7 16.9 5.9 13.45 8.25 Q11.3 9.6 9.8 11.6 L9.8 11.7 9.9 11.65 12.7 11.1 Q12.7 10.05 12.85 9.1 L13.0 8.8 15.25 8.05 Q17.05 7.55 18.4 6.85 L18.3 4.75 Q19.2 5.6 19.1 6.85 L19.25 6.85 19.3 6.75 Q19.2 5.6 19.45 4.7 M21.1 9.5 L21.95 9.1 21.1 9.4 11.85 12.05 11.25 13.05 12.6 12.7 16.85 11.1 21.1 9.5 M23.4 8.25 L23.45 8.25 23.0 6.0 20.35 6.9 19.3 7.2 15.6 8.4 Q14.0 8.65 12.95 9.75 L13.1 11.15 17.45 10.35 19.5 9.6 Q21.45 8.75 23.35 8.35 L23.3 8.3 23.4 8.25 M17.3 5.2 L17.6 4.9 17.05 5.2 13.2 6.45 Q11.6 6.85 10.5 8.15 8.45 10.45 5.5 11.65 L5.15 12.7 2.45 11.95 1.9 13.6 Q1.4 15.0 1.55 16.3 L1.6 16.4 Q2.1 17.9 3.0 19.1 L3.25 19.35 4.75 20.55 5.05 20.6 Q4.7 19.85 4.9 18.75 L4.95 18.55 Q4.9 17.05 5.45 15.75 L5.45 14.3 5.6 12.8 8.05 12.15 Q9.5 11.5 10.65 10.2 L13.85 7.5 17.3 5.2 M11.1 12.1 L10.5 12.2 10.55 13.15 7.4 14.1 7.7 14.1 8.2 14.05 10.55 13.15 11.1 12.1 M12.6 5.85 L11.25 6.15 9.85 6.4 4.85 6.2 5.15 7.0 8.3 6.8 12.6 5.85 M2.5 11.7 L4.55 11.5 Q5.6 10.75 7.0 10.05 L8.15 9.4 10.95 6.8 Q8.35 7.55 6.0 8.8 L4.7 9.5 4.45 9.6 2.55 11.6 2.5 11.7 M6.65 7.6 L6.65 7.7 6.7 7.6 6.65 7.6 M8.65 12.55 Q8.05 12.6 8.7 12.8 L8.65 12.55 M8.9 13.1 L10.05 12.75 9.65 12.3 8.9 13.1 M6.55 13.55 L6.5 13.5 6.4 13.45 6.45 13.5 6.5 13.55 6.55 14.15 6.85 14.15 6.55 13.55 M7.1 13.0 L7.15 13.7 8.4 13.15 7.1 13.0 M5.15 20.75 L5.15 20.8 5.2 20.8 5.15 20.75" fill="#000000" fill-rule="evenodd" stroke="none"/>
      <path d="M20.65 3.35 L20.7 3.4 9.4 6.1 10.05 5.9 Q12.3 5.1 14.5 4.55 L18.85 3.05 Q19.8 2.7 20.65 3.35 M22.75 3.0 L25.45 0.15 25.7 -0.2 Q26.85 2.25 27.2 5.1 L27.5 8.5 27.3 9.3 27.35 9.6 26.05 8.85 23.8 8.3 Q24.25 5.9 23.15 3.65 L22.75 3.0 M19.45 4.7 Q19.2 5.6 19.3 6.75 L19.25 6.85 19.1 6.85 Q19.2 5.6 18.3 4.75 L18.3 4.7 19.75 4.3 19.45 4.7 M9.9 11.65 L9.8 11.7 9.8 11.6 9.9 11.65 M21.1 9.5 L16.85 11.1 12.6 12.7 11.25 13.05 11.85 12.05 21.1 9.4 21.1 9.5 M23.4 8.25 L23.3 8.3 23.35 8.35 Q21.45 8.75 19.5 9.6 L17.45 10.35 13.1 11.15 12.95 9.75 Q14.0 8.65 15.6 8.4 L19.3 7.2 20.35 6.9 23.0 6.0 23.45 8.25 23.4 8.25 M17.3 5.2 L13.85 7.5 10.65 10.2 Q9.5 11.5 8.05 12.15 L5.6 12.8 5.45 14.3 5.45 15.75 Q4.9 17.05 4.95 18.55 L4.9 18.75 Q4.7 19.85 5.05 20.6 L4.75 20.55 3.25 19.35 3.0 19.1 Q2.1 17.9 1.6 16.4 L1.55 16.3 Q1.4 15.0 1.9 13.6 L2.45 11.95 5.15 12.7 5.5 11.65 Q8.45 10.45 10.5 8.15 11.6 6.85 13.2 6.45 L17.05 5.2 17.6 4.9 17.3 5.2 M12.6 5.85 L8.3 6.8 5.15 7.0 4.85 6.2 9.85 6.4 11.25 6.15 12.6 5.85 M11.1 12.1 L10.55 13.15 8.2 14.05 7.7 14.1 7.4 14.1 10.55 13.15 10.5 12.2 11.1 12.1 M8.65 12.55 L8.7 12.8 Q8.05 12.6 8.65 12.55 M6.55 13.55 L6.85 14.15 6.55 14.15 6.5 13.55 6.55 13.55" fill="#999999" fill-rule="evenodd" stroke="none"/>
      <path d="M19.75 4.3 L22.65 3.05 23.0 5.65 22.35 5.85 21.6 6.0 20.2 6.25 19.45 4.7 19.75 4.3 M18.3 4.75 L18.4 6.85 Q17.05 7.55 15.25 8.05 L13.0 8.8 12.85 9.1 Q12.7 10.05 12.7 11.1 L9.9 11.65 9.8 11.6 Q11.3 9.6 13.45 8.25 L16.9 5.9 18.3 4.7 18.3 4.75 M2.5 11.7 L2.55 11.6 4.45 9.6 4.7 9.5 6.0 8.8 Q8.35 7.55 10.95 6.8 L8.15 9.4 7.0 10.05 Q5.6 10.75 4.55 11.5 L2.5 11.7" fill="#5a371d" fill-rule="evenodd" stroke="none"/>
    </g>
    <g id="sprite7" transform="matrix(1.0, 0.0, 0.0, 1.0, -2.6, 5.05)">
      <use height="10.55" transform="matrix(1.0, 0.0, 0.0, 1.0, 2.6, -5.05)" width="15.7" xlink:href="#shape7"/>
    </g>
    <g id="shape7" transform="matrix(1.0, 0.0, 0.0, 1.0, -2.6, 5.05)">
      <path d="M6.85 -3.75 L6.65 -3.95 Q4.35 -2.7 4.0 0.3 3.95 0.65 4.25 2.45 L5.6 1.65 7.9 0.45 Q8.95 -0.25 10.75 -0.7 L10.05 -2.15 Q9.3 -3.15 7.0 -3.95 L6.85 -3.75 M8.9 -5.0 Q11.3 -5.35 13.2 -4.0 L14.5 -2.6 15.65 -1.15 15.7 -1.15 18.3 0.25 18.25 0.35 18.05 0.4 17.9 0.35 13.9 1.4 9.5 2.4 5.9 4.15 Q3.45 5.5 3.25 5.45 L3.05 5.4 3.05 5.45 2.8 5.5 2.65 5.4 2.65 5.2 3.15 3.75 3.6 3.05 3.6 2.95 3.8 2.7 Q3.35 2.3 3.6 0.2 4.05 -3.3 6.85 -4.35 L8.9 -5.0 M11.05 -0.75 L15.25 -1.15 14.05 -2.55 Q12.6 -4.3 10.45 -4.6 8.45 -4.85 7.35 -4.15 9.3 -3.6 10.2 -2.55 L11.05 -0.75 M16.15 -0.55 L15.65 -0.8 15.6 -0.8 15.6 -0.75 Q11.7 -1.05 8.35 0.6 L4.05 3.1 3.5 4.45 Q4.1 3.95 5.55 3.35 L5.65 3.3 5.55 3.3 Q5.2 3.25 5.15 3.05 L5.15 2.75 Q5.15 2.4 5.65 2.45 6.15 2.5 6.1 2.95 L6.0 3.25 9.0 2.2 Q13.3 0.9 17.6 0.2 L16.15 -0.55 M15.6 -0.7 L16.1 -0.5 16.1 0.0 Q16.05 0.5 15.45 0.4 15.0 0.35 14.9 0.05 L14.9 -0.3 Q14.95 -0.8 15.6 -0.7 M15.8 -0.2 L15.55 -0.3 15.3 -0.25 15.35 -0.05 15.8 -0.1 15.8 -0.2 M10.9 0.65 L10.95 0.45 Q11.0 0.0 11.55 -0.1 12.15 -0.25 12.05 0.45 12.0 1.0 11.4 0.9 11.0 0.85 10.9 0.65 M8.55 0.95 Q9.0 0.9 8.95 1.4 L8.75 1.8 8.35 1.95 Q7.95 1.9 8.0 1.45 8.1 1.0 8.55 0.95" fill="#000000" fill-rule="evenodd" stroke="none"/>
      <path d="M6.85 -3.75 L7.0 -3.95 Q9.3 -3.15 10.05 -2.15 L10.75 -0.7 Q8.95 -0.25 7.9 0.45 L5.6 1.65 4.25 2.45 Q3.95 0.65 4.0 0.3 4.35 -2.7 6.65 -3.95 L6.85 -3.75 M11.05 -0.75 L10.2 -2.55 Q9.3 -3.6 7.35 -4.15 8.45 -4.85 10.45 -4.6 12.6 -4.3 14.05 -2.55 L15.25 -1.15 11.05 -0.75 M15.6 -0.75 L15.6 -0.7 Q14.95 -0.8 14.9 -0.3 L14.9 0.05 Q15.0 0.35 15.45 0.4 16.05 0.5 16.1 0.0 L16.1 -0.5 16.15 -0.55 17.6 0.2 Q13.3 0.9 9.0 2.2 L6.0 3.25 6.1 2.95 Q6.15 2.5 5.65 2.45 5.15 2.4 5.15 2.75 L5.15 3.05 Q5.2 3.25 5.55 3.3 L5.55 3.35 Q4.1 3.95 3.5 4.45 L4.05 3.1 8.35 0.6 Q11.7 -1.05 15.6 -0.75 M8.55 0.95 Q8.1 1.0 8.0 1.45 7.95 1.9 8.35 1.95 L8.75 1.8 8.95 1.4 Q9.0 0.9 8.55 0.95 M10.9 0.65 Q11.0 0.85 11.4 0.9 12.0 1.0 12.05 0.45 12.15 -0.25 11.55 -0.1 11.0 0.0 10.95 0.45 L10.9 0.65" fill="#5f5f5f" fill-rule="evenodd" stroke="none"/>
    </g>
    <g id="sprite8" transform="matrix(1.0, 0.0, 0.0, 1.0, 14.0, 13.8)">
      <use height="27.9" transform="matrix(1.0, 0.0, 0.0, 1.0, -14.0, -13.8)" width="27.9" xlink:href="#shape8"/>
    </g>
    <g id="shape8" transform="matrix(1.0, 0.0, 0.0, 1.0, 14.0, 13.8)">
      <path d="M-0.05 -13.05 Q5.4 -13.05 9.25 -9.2 13.15 -5.3 13.15 0.15 13.15 5.6 9.25 9.45 5.4 13.35 -0.05 13.35 -5.5 13.35 -9.4 9.45 -13.25 5.6 -13.25 0.15 -13.25 -5.3 -9.4 -9.2 -5.5 -13.05 -0.05 -13.05" fill="#ffff00" fill-rule="evenodd" stroke="none"/>
      <path d="M-0.05 -13.05 Q5.4 -13.05 9.25 -9.2 13.15 -5.3 13.15 0.15 13.15 5.6 9.25 9.45 5.4 13.35 -0.05 13.35 -5.5 13.35 -9.4 9.45 -13.25 5.6 -13.25 0.15 -13.25 -5.3 -9.4 -9.2 -5.5 -13.05 -0.05 -13.05 Z" fill="none" stroke="#170e0b" stroke-linecap="round" stroke-linejoin="round" stroke-width="1.5"/>
      <path d="M5.95 -2.3 Q6.9 -2.3 7.55 -1.6 8.25 -0.9 8.25 0.05 8.25 1.0 7.55 1.7 6.9 2.35 5.95 2.35 4.95 2.35 4.3 1.7 3.6 1.0 3.6 0.05 3.6 -0.9 4.3 -1.6 4.95 -2.3 5.95 -2.3 M-5.45 -2.3 Q-4.45 -2.3 -3.75 -1.6 -3.0 -0.9 -3.0 0.15 -3.0 1.15 -3.75 1.85 -4.45 2.6 -5.45 2.6 -6.45 2.6 -7.2 1.85 -7.9 1.15 -7.9 0.15 -7.9 -0.9 -7.2 -1.6 -6.45 -2.3 -5.45 -2.3" fill="#000000" fill-rule="evenodd" stroke="none"/>
      <path d="M-11.45 -8.65 L0.25 -1.6 10.5 -9.7 M-9.4 9.45 Q0.4 2.9 9.35 9.3" fill="none" stroke="#170e0b" stroke-linecap="round" stroke-linejoin="round" stroke-width="1.5"/>
    </g>
  </defs>
</svg>
