<?xml version="1.0" encoding="UTF-8" standalone="no"?>
<svg xmlns:xlink="http://www.w3.org/1999/xlink" height="234.0px" width="255.6px" xmlns="http://www.w3.org/2000/svg">
  <g transform="matrix(6.0, 0.0, 0.0, 6.0, 190.8, 187.5)">
    <use height="8.3" transform="matrix(1.0, 0.0, 0.0, 1.0, -24.65, -19.2)" width="8.3" xlink:href="#shape0"/>
    <use height="16.85" transform="matrix(1.0, 0.0, 0.0, 1.0, -1.1, -10.25)" width="10.8" xlink:href="#shape1"/>
    <use height="10.65" transform="matrix(0.8658, 0.4965, -0.4965, 0.8658, -1.6718, -6.9551)" width="10.7" xlink:href="#shape2"/>
    <use height="5.9" transform="matrix(0.8716, 0.4852, -0.4852, 0.8716, -25.5752, -17.8159)" width="33.55" xlink:href="#shape3"/>
    <use height="5.1" transform="matrix(1.0, 0.0, 0.0, 1.0, 5.4, -2.55)" width="5.4" xlink:href="#shape4"/>
  </g>
  <defs>
    <g id="shape0" transform="matrix(1.0, 0.0, 0.0, 1.0, 28.15, 14.9)">
      <path d="M-21.3 -13.35 L-21.2 -13.3 -20.8 -13.0 -20.7 -12.95 -20.55 -12.9 Q-20.1 -12.2 -20.15 -11.35 -20.3 -10.05 -20.7 -8.85 L-20.8 -8.75 -21.05 -8.25 Q-22.15 -6.6 -24.3 -6.85 -26.15 -7.1 -27.2 -8.65 L-27.3 -8.9 -27.55 -9.3 -27.7 -9.65 -27.8 -10.05 -27.85 -10.05 -27.85 -10.1 -27.85 -10.7 Q-27.85 -11.6 -27.45 -12.4 -26.75 -13.8 -25.3 -14.2 -25.35 -14.35 -25.55 -14.35 L-25.45 -14.35 Q-25.1 -14.4 -24.8 -14.6 -22.8 -14.65 -21.3 -13.35 M-21.4 -12.6 L-21.5 -12.55 -21.55 -12.4 -21.3 -12.3 -21.15 -12.1 -20.95 -11.3 -20.95 -11.25 -20.75 -11.25 Q-20.55 -12.2 -21.4 -12.6 M-25.75 -8.5 L-26.35 -9.0 -26.35 -8.95 Q-26.55 -8.6 -25.85 -8.3 L-25.8 -8.35 -25.7 -8.45 -25.75 -8.5 M-23.3 -11.35 L-23.4 -11.4 -23.45 -11.35 -23.5 -11.05 Q-23.3 -10.8 -23.15 -11.05 L-23.15 -11.1 -23.25 -11.3 -23.3 -11.35 M-25.1 -9.75 L-25.15 -9.7 -25.25 -9.6 Q-25.05 -9.15 -24.65 -9.3 L-25.1 -9.75 M-26.45 -9.95 Q-26.3 -9.85 -26.2 -10.05 L-26.25 -10.1 -26.3 -10.3 -26.4 -10.35 -26.45 -10.4 Q-26.7 -10.2 -26.45 -9.95 M-27.0 -11.5 L-27.05 -11.55 -27.1 -11.5 Q-27.45 -10.65 -27.2 -9.75 L-27.1 -9.7 -27.0 -9.75 -26.95 -9.85 -26.95 -11.45 -27.0 -11.5 M-25.35 -12.6 L-25.5 -12.7 -26.0 -12.35 -26.0 -12.3 -25.95 -12.2 Q-25.6 -12.2 -25.35 -12.55 L-25.35 -12.6 M-23.75 -14.1 L-23.9 -14.25 -25.4 -13.85 -25.4 -13.8 -25.4 -13.7 Q-24.55 -13.6 -23.75 -14.1 M-22.55 -7.75 L-22.7 -7.9 Q-23.15 -7.6 -23.7 -7.45 L-23.7 -7.4 -23.7 -7.3 Q-23.05 -7.15 -22.55 -7.75 M-21.7 -10.35 L-21.75 -10.4 -21.75 -10.35 Q-21.95 -10.0 -21.65 -9.45 L-21.45 -9.5 -21.4 -9.55 -21.65 -10.3 -21.7 -10.35" fill="#95917b" fill-rule="evenodd" stroke="none"/>
      <path d="M-21.4 -12.6 Q-20.55 -12.2 -20.75 -11.25 L-20.95 -11.25 -20.95 -11.3 -21.15 -12.1 -21.3 -12.3 -21.55 -12.4 -21.5 -12.55 -21.4 -12.6 M-21.3 -13.35 Q-22.8 -14.65 -24.8 -14.6 -25.1 -14.4 -25.45 -14.35 L-25.55 -14.35 Q-25.35 -14.35 -25.3 -14.2 -26.75 -13.8 -27.45 -12.4 -27.85 -11.6 -27.85 -10.7 L-27.85 -10.1 -27.85 -10.05 -27.8 -10.05 -27.7 -9.65 -27.55 -9.3 -27.3 -8.9 -27.2 -8.65 Q-26.15 -7.1 -24.3 -6.85 -22.15 -6.6 -21.05 -8.25 L-20.8 -8.75 -20.7 -8.85 Q-20.3 -10.05 -20.15 -11.35 -20.1 -12.2 -20.55 -12.9 L-20.7 -12.95 -20.8 -13.0 -21.2 -13.3 -21.3 -13.35 M-20.25 -12.8 L-19.95 -12.45 -19.9 -10.95 -20.45 -8.65 -20.5 -8.6 -20.6 -8.55 Q-21.5 -6.45 -23.95 -6.6 -25.05 -6.65 -26.0 -7.05 L-26.65 -7.7 -26.75 -7.8 -27.2 -8.2 -27.5 -8.5 -27.5 -8.55 -27.55 -8.8 -27.8 -9.1 -28.15 -10.4 Q-28.2 -11.55 -27.8 -12.55 L-27.8 -12.6 -27.7 -12.65 -27.65 -12.7 -27.65 -12.75 -27.6 -12.8 -27.5 -12.95 -27.55 -13.0 -27.55 -13.05 -27.6 -13.05 Q-27.35 -13.85 -26.55 -14.25 L-24.8 -14.9 Q-22.9 -14.9 -21.3 -13.85 L-20.25 -12.8 M-21.7 -10.35 L-21.65 -10.3 -21.4 -9.55 -21.45 -9.5 -21.65 -9.45 Q-21.95 -10.0 -21.75 -10.35 L-21.75 -10.4 -21.7 -10.35 M-22.55 -7.75 Q-23.05 -7.15 -23.7 -7.3 L-23.7 -7.4 -23.7 -7.45 Q-23.15 -7.6 -22.7 -7.9 L-22.55 -7.75 M-23.75 -14.1 Q-24.55 -13.6 -25.4 -13.7 L-25.4 -13.8 -25.4 -13.85 -23.9 -14.25 -23.75 -14.1 M-25.35 -12.6 L-25.35 -12.55 Q-25.6 -12.2 -25.95 -12.2 L-26.0 -12.3 -26.0 -12.35 -25.5 -12.7 -25.35 -12.6 M-27.0 -11.5 L-26.95 -11.45 -26.95 -9.85 -27.0 -9.75 -27.1 -9.7 -27.2 -9.75 Q-27.45 -10.65 -27.1 -11.5 L-27.05 -11.55 -27.0 -11.5 M-26.45 -9.95 Q-26.7 -10.2 -26.45 -10.4 L-26.4 -10.35 -26.3 -10.3 -26.25 -10.1 -26.2 -10.05 Q-26.3 -9.85 -26.45 -9.95 M-25.1 -9.75 L-24.65 -9.3 Q-25.05 -9.15 -25.25 -9.6 L-25.15 -9.7 -25.1 -9.75 M-23.3 -11.35 L-23.25 -11.3 -23.15 -11.1 -23.15 -11.05 Q-23.3 -10.8 -23.5 -11.05 L-23.45 -11.35 -23.4 -11.4 -23.3 -11.35 M-25.75 -8.5 L-25.7 -8.45 -25.8 -8.35 -25.85 -8.3 Q-26.55 -8.6 -26.35 -8.95 L-26.35 -9.0 -25.75 -8.5" fill="#000000" fill-rule="evenodd" stroke="none"/>
    </g>
    <g id="shape1" transform="matrix(1.0, 0.0, 0.0, 1.0, 1.1, 10.25)">
      <path d="M9.3 -0.05 L9.4 2.15 9.4 2.45 9.7 3.25 9.6 3.85 9.65 3.9 9.7 3.95 9.7 4.05 8.75 4.2 8.7 4.15 8.55 4.1 9.0 4.55 9.05 4.5 9.15 4.5 9.1 4.55 9.15 4.6 9.1 4.65 9.15 4.7 9.1 4.75 9.0 4.85 7.15 6.6 7.05 6.6 7.0 6.45 7.2 6.25 0.8 -0.05 0.6 -0.05 0.6 -0.15 0.55 -0.2 0.45 -0.3 -0.9 -1.75 -1.0 -1.85 -1.1 -1.95 -1.05 -2.0 -0.95 -2.0 -0.85 -2.2 -0.75 -2.3 -0.55 -2.5 -0.65 -2.6 -0.65 -2.7 -0.6 -2.75 -0.45 -2.7 -0.4 -2.65 3.45 -6.5 4.5 -7.55 3.65 -7.8 Q3.25 -8.0 3.1 -8.45 2.8 -9.45 3.8 -9.95 L3.95 -10.1 4.5 -10.15 5.2 -9.95 5.8 -9.15 5.85 -9.1 5.8 -9.05 5.7 -8.75 6.3 -9.35 6.35 -9.3 6.45 -9.3 6.4 -9.25 6.45 -9.2 6.4 -9.15 6.55 -9.1 7.85 -7.7 7.95 -7.7 7.95 -7.6 8.05 -7.5 8.0 -7.45 7.9 -7.35 7.8 -7.45 6.95 -6.5 8.4 -6.25 8.45 -6.2 8.55 -6.2 Q8.5 -3.65 9.15 -1.1 L9.3 -0.05 M9.35 3.9 L9.35 3.3 9.4 3.25 Q9.0 2.25 9.05 1.1 L8.6 -1.95 Q8.35 -3.2 8.35 -4.4 L8.35 -5.4 8.35 -6.0 6.75 -6.3 6.5 -6.05 6.55 -6.1 6.6 -6.05 6.55 -5.7 6.6 -5.65 Q6.55 -2.6 6.9 0.45 7.1 1.45 6.95 2.5 L8.2 3.75 8.25 3.8 8.25 3.7 8.6 3.85 9.05 3.8 9.0 3.85 9.35 3.9 9.4 3.95 9.35 3.9 M6.3 -5.45 L6.35 -5.9 3.8 -3.35 2.5 -2.05 2.55 -2.0 6.7 2.25 6.3 -3.65 6.3 -5.45 M2.3 -1.85 L0.75 -0.4 0.85 -0.3 7.3 6.15 Q8.0 5.35 8.85 4.7 L2.35 -1.8 2.3 -1.85 M6.4 -8.95 L6.35 -8.9 6.3 -8.85 5.7 -8.25 5.65 -8.1 5.55 -7.9 5.05 -7.7 2.05 -4.7 -0.25 -2.5 1.1 -1.05 4.7 -4.65 7.7 -7.55 6.4 -8.95 M5.1 -9.55 L4.95 -9.7 4.8 -9.75 4.75 -9.7 4.65 -9.9 4.3 -9.85 4.1 -9.85 3.5 -9.45 3.25 -9.1 Q3.2 -8.25 4.05 -7.8 L4.9 -7.95 5.4 -8.45 5.4 -8.55 5.45 -8.9 5.5 -9.15 5.1 -9.55 M-0.4 -2.25 L-0.7 -1.85 0.6 -0.55 0.95 -0.9 -0.45 -2.3 -0.4 -2.25" fill="#000000" fill-rule="evenodd" stroke="none"/>
      <path d="M8.2 3.75 L6.95 2.5 Q7.1 1.45 6.9 0.45 6.55 -2.6 6.6 -5.65 L6.55 -5.7 6.6 -6.05 6.55 -6.1 6.5 -6.05 6.75 -6.3 8.35 -6.0 8.35 -5.4 8.35 -4.4 Q8.35 -3.2 8.6 -1.95 L9.05 1.1 Q9.0 2.25 9.4 3.25 L9.35 3.3 9.35 3.9 9.0 3.85 9.05 3.8 8.6 3.85 8.25 3.7 8.2 3.75 M2.3 -1.85 L2.35 -1.8 8.85 4.7 Q8.0 5.35 7.3 6.15 L0.85 -0.3 0.75 -0.4 2.3 -1.85 M6.35 -8.9 L6.4 -8.95 7.7 -7.55 4.7 -4.65 1.1 -1.05 -0.25 -2.5 2.05 -4.7 5.05 -7.7 5.55 -7.9 5.65 -8.1 5.7 -8.25 6.3 -8.85 6.35 -8.9 M5.1 -9.55 L5.5 -9.15 5.45 -8.9 5.4 -8.55 5.4 -8.45 4.9 -7.95 4.05 -7.8 Q3.2 -8.25 3.25 -9.1 L3.5 -9.45 4.1 -9.85 4.3 -9.85 4.65 -9.9 4.75 -9.7 4.15 -9.8 3.85 -9.6 Q3.3 -9.45 3.35 -8.9 3.6 -8.35 4.05 -8.1 L4.1 -8.15 4.15 -8.2 4.7 -8.25 Q5.6 -8.85 5.1 -9.55" fill="#ab813a" fill-rule="evenodd" stroke="none"/>
      <path d="M6.35 -8.9 L6.4 -8.95 6.35 -8.9" fill="#715426" fill-rule="evenodd" stroke="none"/>
      <path d="M4.75 -9.7 L4.8 -9.75 4.95 -9.7 5.1 -9.55 Q5.6 -8.85 4.7 -8.25 L4.15 -8.2 4.1 -8.15 4.05 -8.1 Q3.6 -8.35 3.35 -8.9 3.3 -9.45 3.85 -9.6 L4.15 -9.8 4.75 -9.7" fill="#d8b68d" fill-rule="evenodd" stroke="none"/>
      <path d="M7.85 -7.2 L7.9 -7.15 7.85 -7.1 7.75 -7.1 7.7 -7.15 7.6 -7.05 7.55 -6.8 7.4 -6.85 5.4 -8.75 5.4 -8.95 5.3 -9.15 5.2 -9.45 4.6 -9.85 4.4 -9.95 4.05 -10.0 4.0 -9.95 3.95 -9.9 3.7 -9.85 3.6 -9.95 3.65 -10.0 3.65 -10.1 4.0 -10.25 4.1 -10.25 4.45 -10.2 4.95 -10.2 5.05 -10.1 5.1 -10.05 5.6 -9.65 7.75 -7.4 7.8 -7.35 7.85 -7.3 7.85 -7.2 M8.5 -5.55 L8.75 -4.8 8.7 -4.75 8.8 -4.65 8.85 -4.6 8.9 -4.45 8.85 -4.4 8.75 -4.4 8.65 -4.4 8.5 -4.35 8.45 -4.4 Q8.35 -4.3 8.25 -4.3 7.45 -3.7 6.5 -3.55 L6.55 -3.3 6.45 -3.3 6.3 -3.35 6.25 -3.6 6.05 -3.9 6.1 -3.95 6.05 -4.0 6.15 -4.0 7.35 -4.9 5.4 -5.55 5.45 -5.1 5.5 -5.05 4.85 -4.5 4.8 -4.45 Q4.35 -4.5 4.5 -4.85 L4.55 -4.9 4.65 -4.9 4.45 -5.8 3.1 -6.15 3.3 -6.55 3.55 -6.8 3.5 -7.05 3.55 -7.1 3.65 -7.2 3.15 -8.0 3.15 -8.5 4.15 -7.9 4.8 -7.95 4.9 -7.95 4.95 -7.9 4.95 -7.8 5.45 -6.6 8.2 -5.55 8.3 -5.55 8.35 -5.6 8.45 -5.6 8.5 -5.55 M8.4 -4.85 L8.45 -4.9 8.25 -5.2 8.2 -5.25 5.2 -6.35 4.3 -6.75 4.05 -6.8 3.9 -6.75 3.75 -6.6 3.6 -6.45 7.65 -5.1 7.85 -5.1 8.0 -4.95 8.15 -4.8 8.45 -4.8 8.4 -4.85 M7.6 -4.65 L6.5 -3.95 6.45 -3.9 6.4 -3.85 6.5 -3.75 6.6 -3.75 7.85 -4.4 7.95 -4.5 8.05 -4.5 7.75 -4.7 7.6 -4.65 M9.3 2.35 L9.4 2.25 9.55 2.3 9.55 2.6 9.6 2.65 9.7 3.25 Q9.1 3.65 8.3 3.85 L7.9 3.85 7.6 4.05 Q7.35 4.8 6.75 5.4 L6.7 5.45 6.7 5.55 6.8 5.65 6.85 5.8 6.8 5.85 6.55 5.8 5.95 5.1 5.8 5.15 5.75 5.1 5.75 4.8 Q5.25 4.6 4.9 4.15 6.6 2.95 8.85 2.4 L9.3 2.35 M9.35 3.1 L9.35 2.6 Q7.25 3.2 5.45 4.1 L5.4 4.15 5.85 4.5 6.0 4.45 6.2 4.35 7.85 3.6 8.15 3.6 9.3 3.15 9.35 3.1 M6.1 4.85 L6.5 5.25 7.25 4.2 6.3 4.65 6.25 4.7 6.15 4.8 6.1 4.85 M7.4 -7.25 L7.5 -7.35 5.7 -8.95 5.8 -8.75 7.4 -7.25 M3.9 -7.35 L4.15 -7.4 4.35 -7.6 4.05 -7.6 4.0 -7.55 Q3.85 -7.6 3.65 -7.8 L3.9 -7.35 3.95 -7.3 3.9 -7.35 M4.75 -7.4 L4.4 -7.15 4.45 -6.9 5.1 -6.65 4.75 -7.4 M4.6 -5.75 L4.9 -4.95 5.25 -5.2 5.05 -5.7 4.6 -5.75" fill="#000000" fill-rule="evenodd" stroke="none"/>
      <path d="M7.6 -4.65 L7.75 -4.7 8.05 -4.5 7.95 -4.5 7.85 -4.4 6.6 -3.75 6.5 -3.75 6.4 -3.85 6.45 -3.9 6.5 -3.95 7.6 -4.65 M8.4 -4.85 L8.45 -4.8 8.15 -4.8 8.0 -4.95 7.85 -5.1 7.65 -5.1 3.6 -6.45 3.75 -6.6 3.9 -6.75 4.05 -6.8 4.3 -6.75 5.2 -6.35 8.2 -5.25 8.25 -5.2 8.45 -4.9 8.4 -4.85 M3.9 -7.35 L3.65 -7.8 Q3.85 -7.6 4.0 -7.55 L4.05 -7.6 4.35 -7.6 4.15 -7.4 3.9 -7.35 M7.4 -7.25 L5.8 -8.75 5.7 -8.95 7.5 -7.35 7.4 -7.25 M6.1 4.85 L6.15 4.8 6.25 4.7 6.3 4.65 7.25 4.2 6.5 5.25 6.1 4.85 M9.35 3.1 L9.3 3.15 8.15 3.6 7.85 3.6 6.2 4.35 6.0 4.45 5.85 4.5 5.4 4.15 5.45 4.1 Q7.25 3.2 9.35 2.6 L9.35 3.1 M4.6 -5.75 L5.05 -5.7 5.25 -5.2 4.9 -4.95 4.6 -5.75 M4.75 -7.4 L5.1 -6.65 4.45 -6.9 4.4 -7.15 4.75 -7.4" fill="#e3cdb3" fill-rule="evenodd" stroke="none"/>
    </g>
    <g id="shape2" transform="matrix(1.0, 0.0, 0.0, 1.0, 5.0, 5.05)">
      <path d="M4.25 -3.3 L4.35 -3.25 5.1 -2.0 5.2 -1.9 5.2 -1.85 5.1 -1.75 5.0 -1.7 4.45 -1.3 4.4 -1.25 4.45 -0.7 4.45 -0.3 5.45 -0.2 5.55 -0.2 5.65 -0.15 5.7 -0.1 5.35 1.55 5.3 1.6 5.15 1.55 5.05 1.55 4.3 1.6 4.2 2.1 4.15 2.15 4.1 2.25 4.35 2.4 4.4 2.5 4.4 2.55 4.55 2.65 4.75 2.95 4.85 3.05 4.9 3.1 4.9 3.15 4.8 3.25 4.75 3.3 3.95 4.05 3.6 4.4 3.55 4.4 3.45 4.45 3.35 4.45 3.35 4.4 3.2 4.4 3.25 4.3 2.85 3.85 2.8 3.85 2.25 4.2 2.35 4.35 2.4 4.35 2.4 4.55 2.45 4.6 2.5 4.6 2.4 5.15 2.35 5.2 2.2 5.2 Q1.65 5.6 0.9 5.6 L0.7 5.5 0.5 5.45 0.5 5.25 0.5 5.0 0.45 4.8 -0.1 4.6 -0.45 4.65 -0.5 4.8 -0.55 4.9 -0.6 5.1 -0.65 5.2 -0.75 5.35 -0.9 5.45 -1.0 5.45 -2.1 5.25 -2.2 5.15 -2.3 4.95 -2.65 4.75 -2.7 4.7 -2.75 4.6 -2.3 3.9 -2.25 3.85 -2.55 3.45 -2.6 3.45 -2.75 3.55 -2.85 3.6 -3.35 4.0 -3.4 4.15 -3.6 4.2 -3.7 4.05 -3.7 4.0 -3.85 3.8 -3.9 3.75 -3.9 3.6 -4.05 3.35 -4.1 3.3 -4.2 3.2 -4.2 3.1 -4.5 2.85 -4.4 2.7 -4.35 2.65 -4.3 2.65 -4.3 2.55 -4.25 2.45 -3.8 2.0 -3.8 1.85 -3.85 1.75 -3.85 1.7 -3.9 1.65 -3.9 1.6 -3.9 1.5 -4.6 1.4 -4.7 1.45 -4.75 1.5 -4.95 1.35 -5.0 0.35 -5.0 0.2 -4.95 0.1 -4.9 0.1 -4.8 -0.2 -4.85 -0.3 -4.75 -0.4 -4.7 -0.4 -4.15 -0.35 -3.95 -0.85 -3.85 -1.1 -4.55 -1.4 -4.65 -1.5 -4.65 -1.6 -4.65 -1.7 -4.65 -1.8 -4.5 -2.1 -4.2 -2.35 -3.75 -2.95 -3.7 -3.0 -3.7 -3.1 -3.5 -3.1 -3.45 -3.0 -3.45 -2.9 -3.1 -2.65 -2.65 -2.9 -2.75 -3.05 -2.95 -3.45 -3.0 -3.5 -3.0 -3.65 -3.0 -3.7 -2.9 -3.8 -2.85 -3.8 -2.8 -3.75 -2.75 -3.85 -2.7 -3.9 -2.4 -4.05 -2.0 -4.4 -1.5 -4.55 -1.4 -4.45 -1.35 -4.4 -1.35 -4.35 -1.1 -3.9 -0.1 -3.85 0.3 -4.5 0.4 -4.75 0.3 -4.85 0.35 -4.95 0.4 -4.95 0.45 -5.0 Q1.6 -5.15 2.35 -4.4 L2.4 -4.5 2.45 -4.55 2.55 -4.45 2.6 -4.45 2.4 -3.95 2.35 -3.85 2.2 -3.75 2.25 -3.65 2.35 -3.6 Q2.55 -2.95 3.3 -2.9 3.55 -3.25 3.95 -3.25 L3.95 -3.35 4.05 -3.45 4.25 -3.3 M0.05 -3.6 L-1.3 -3.55 -1.5 -4.2 -1.85 -4.15 -2.05 -4.0 -2.1 -3.95 -2.1 -3.9 -2.6 -3.5 -2.5 -3.25 -2.45 -3.25 -2.3 -3.15 -2.25 -2.9 -2.3 -2.8 -2.85 -2.4 -2.9 -2.25 -2.95 -2.2 -3.25 -2.3 -3.25 -2.4 -3.65 -2.7 -3.9 -2.35 -3.95 -2.25 -4.2 -1.95 -4.3 -1.65 -4.2 -1.65 -4.15 -1.6 -4.1 -1.55 -4.05 -1.55 -4.05 -1.5 -3.5 -1.2 -3.6 -0.9 -3.75 -0.75 -3.8 -0.5 -3.85 -0.25 Q-4.3 0.1 -4.6 -0.05 L-4.6 0.1 -4.6 0.2 -4.65 0.3 -4.7 0.35 -4.7 0.95 -4.7 1.1 -4.6 1.3 -4.6 1.25 -3.95 1.1 Q-3.75 1.1 -3.65 1.3 L-3.65 1.35 -3.5 1.85 -3.4 1.95 -4.0 2.6 -4.05 2.75 -3.9 3.0 -3.9 3.05 -3.8 3.25 -3.75 3.25 -3.65 3.4 -3.6 3.55 -3.6 3.65 -3.5 3.75 -3.1 3.4 -2.8 3.15 -2.7 3.1 -2.65 3.05 -1.95 3.75 -1.9 3.8 -2.05 4.1 -2.1 4.15 -2.45 4.6 -1.1 5.35 -0.95 5.0 -0.55 4.3 0.55 4.45 0.6 4.5 0.75 4.75 0.8 5.25 2.15 4.95 2.15 4.8 2.1 4.75 2.1 4.6 2.1 4.5 1.95 4.2 1.9 4.1 Q2.05 3.85 2.4 3.85 L2.6 3.6 2.6 3.55 2.7 3.45 2.8 3.45 2.85 3.5 3.4 4.15 3.55 4.1 3.7 3.95 3.7 3.85 3.75 3.8 3.85 3.7 3.9 3.7 3.95 3.75 4.15 3.6 4.25 3.35 4.3 3.35 4.3 3.3 4.35 3.2 4.45 3.1 4.15 2.7 4.15 2.65 3.6 2.4 3.9 1.9 4.05 1.4 4.05 1.3 5.15 1.25 5.15 1.2 5.15 1.1 Q5.45 0.65 5.35 0.1 L4.25 0.0 4.15 -0.65 4.15 -1.1 4.0 -1.35 4.8 -1.9 4.55 -2.2 4.5 -2.25 4.5 -2.35 4.5 -2.4 4.15 -2.95 4.1 -3.05 4.05 -3.05 3.7 -2.9 3.35 -2.6 2.55 -2.8 2.1 -3.3 2.1 -3.4 2.05 -3.45 1.9 -3.5 1.85 -3.55 1.85 -3.65 1.85 -3.75 2.1 -4.0 2.25 -4.3 1.95 -4.4 1.85 -4.5 0.6 -4.7 Q0.6 -4.1 0.1 -3.6 L0.05 -3.6 M0.9 -0.65 Q1.6 0.05 1.45 0.85 L1.2 1.25 Q0.05 2.15 -1.0 1.1 -1.45 0.65 -1.3 0.05 L-1.15 -0.3 -1.1 -0.35 -1.05 -0.4 -1.0 -0.4 -0.9 -0.4 -0.7 -0.6 -0.25 -0.95 0.85 -0.65 0.9 -0.65 M0.7 -0.4 L0.45 -0.55 0.1 -0.6 -0.45 -0.45 -0.55 -0.4 -0.65 -0.3 -0.75 -0.2 -0.9 -0.1 -1.0 0.15 -1.0 0.65 -0.75 0.95 -0.5 1.25 0.75 1.3 1.2 0.85 1.3 0.45 1.0 -0.05 0.7 -0.4" fill="#000000" fill-rule="evenodd" stroke="none"/>
      <path d="M0.9 -0.65 L0.85 -0.65 -0.25 -0.95 -0.7 -0.6 -0.9 -0.4 -1.0 -0.4 -1.05 -0.4 -1.1 -0.35 -1.15 -0.3 -1.3 0.05 Q-1.45 0.65 -1.0 1.1 0.05 2.15 1.2 1.25 L1.45 0.85 Q1.6 0.05 0.9 -0.65 M0.05 -3.6 L0.1 -3.6 Q0.6 -4.1 0.6 -4.7 L1.85 -4.5 1.95 -4.4 2.25 -4.3 2.1 -4.0 1.85 -3.75 1.85 -3.65 1.85 -3.55 1.9 -3.5 2.05 -3.45 2.1 -3.4 2.1 -3.3 2.55 -2.8 3.35 -2.6 3.7 -2.9 4.05 -3.05 4.1 -3.05 4.15 -2.95 4.5 -2.4 4.5 -2.35 4.5 -2.25 4.55 -2.2 4.8 -1.9 4.0 -1.35 4.15 -1.1 4.15 -0.65 4.25 0.0 5.35 0.1 Q5.45 0.65 5.15 1.1 L5.15 1.2 5.15 1.25 4.05 1.3 4.05 1.4 3.9 1.9 3.6 2.4 4.15 2.65 4.15 2.7 4.45 3.1 4.35 3.2 4.3 3.3 4.3 3.35 4.25 3.35 4.15 3.6 3.95 3.75 3.9 3.7 3.85 3.7 3.75 3.8 3.7 3.85 3.7 3.95 3.55 4.1 3.4 4.15 2.85 3.5 2.8 3.45 2.7 3.45 2.6 3.55 2.6 3.6 2.4 3.85 Q2.05 3.85 1.9 4.1 L1.95 4.2 2.1 4.5 2.1 4.6 2.1 4.75 2.15 4.8 2.15 4.95 0.8 5.25 0.75 4.75 0.6 4.5 0.55 4.45 -0.55 4.3 -0.95 5.0 -1.1 5.35 -2.45 4.6 -2.1 4.15 -2.05 4.1 -1.9 3.8 -1.95 3.75 -2.65 3.05 -2.7 3.1 -2.8 3.15 -3.1 3.4 -3.5 3.75 -3.6 3.65 -3.6 3.55 -3.65 3.4 -3.75 3.25 -3.8 3.25 -3.9 3.05 -3.9 3.0 -4.05 2.75 -4.0 2.6 -3.4 1.95 -3.5 1.85 -3.65 1.35 -3.65 1.3 Q-3.75 1.1 -3.95 1.1 L-4.6 1.25 -4.6 1.3 -4.7 1.1 -4.7 0.95 -4.7 0.35 -4.65 0.3 -4.6 0.2 -4.6 0.1 -4.6 -0.05 Q-4.3 0.1 -3.85 -0.25 L-3.8 -0.5 -3.75 -0.75 -3.6 -0.9 -3.5 -1.2 -4.05 -1.5 -4.05 -1.55 -4.1 -1.55 -4.15 -1.6 -4.2 -1.65 -4.3 -1.65 -4.2 -1.95 -3.95 -2.25 -3.9 -2.35 -3.65 -2.7 -3.25 -2.4 -3.25 -2.3 -2.95 -2.2 -2.9 -2.25 -2.85 -2.4 -2.3 -2.8 -2.25 -2.9 -2.3 -3.15 -2.45 -3.25 -2.5 -3.25 -2.6 -3.5 -2.1 -3.9 -2.1 -3.95 -2.05 -4.0 -1.85 -4.15 -1.5 -4.2 -1.3 -3.55 0.05 -3.6" fill="#ceab73" fill-rule="evenodd" stroke="none"/>
    </g>
    <g id="shape3" transform="matrix(1.0, 0.0, 0.0, 1.0, 31.3, 2.9)">
      <path d="M2.1 -2.3 L2.2 -2.0 2.1 1.65 2.1 1.7 2.2 1.75 2.2 1.8 2.1 3.0 1.65 3.0 -1.9 2.85 -1.9 2.8 -1.95 2.75 -1.75 1.65 -7.95 1.65 -8.0 1.65 -8.1 1.75 -8.3 1.65 -12.0 1.6 -12.1 1.6 -13.0 1.6 -13.15 1.65 -13.2 1.6 -15.85 1.6 -15.9 1.65 -15.95 1.7 -16.15 1.6 -17.35 1.6 -17.6 1.65 -17.7 1.6 -22.55 1.55 -22.6 1.65 -22.8 1.7 -22.9 1.9 -22.95 1.95 -23.45 1.95 -23.9 2.05 -24.1 2.2 -24.05 2.2 -24.0 2.25 -26.3 2.4 Q-29.05 2.25 -30.35 -0.25 L-30.5 -0.4 -30.55 -1.95 -30.6 -1.95 -30.7 -1.95 -31.1 -2.05 -31.25 -2.15 -31.3 -2.15 -31.25 -2.65 -31.25 -2.7 -31.2 -2.8 -31.15 -2.9 -31.0 -2.85 -22.55 -2.85 -22.1 -2.75 -22.05 -2.7 -22.05 -2.65 -22.05 -2.6 -22.05 -2.2 -22.1 -2.05 -22.1 -2.0 -22.15 -1.9 -21.8 -1.8 -21.75 -1.75 -21.7 -1.45 -21.7 -1.4 -21.65 -1.25 -21.25 -1.2 -16.1 -1.2 -16.1 -1.25 -16.05 -1.3 -16.0 -1.3 -15.9 -1.2 -15.85 -1.2 -14.5 -1.2 -14.5 -1.25 -14.45 -1.3 -14.4 -1.3 -14.35 -1.35 -14.25 -1.25 -14.2 -1.25 -14.2 -1.2 -1.8 -1.2 -1.75 -2.2 -1.75 -2.25 -1.7 -2.3 -1.6 -2.35 2.05 -2.35 2.1 -2.3 M1.25 -1.2 L1.45 -1.15 1.45 -1.1 1.45 -1.0 1.45 -0.95 1.65 -0.65 1.7 -0.6 1.7 0.2 1.7 0.4 1.65 0.5 1.6 0.55 1.55 1.35 1.55 1.4 1.6 1.5 1.6 1.55 1.55 1.6 1.45 1.65 1.3 1.55 1.2 1.6 1.15 1.65 -1.5 1.65 -1.65 2.55 1.75 2.6 1.8 2.65 1.95 2.65 1.9 1.95 1.9 1.9 1.8 1.8 1.8 1.65 1.9 -2.0 -1.45 -2.0 -1.45 -1.95 -1.55 -1.2 1.05 -1.2 1.1 -1.2 1.15 -1.25 1.2 -1.25 1.25 -1.2 M0.9 -0.9 L-7.95 -0.95 -7.9 -0.9 -7.85 -0.9 -8.4 0.55 -8.45 0.6 -8.4 0.75 -8.45 0.85 -8.45 0.9 -8.35 1.0 -8.3 1.05 -8.2 1.1 -8.1 1.3 1.15 1.25 1.25 1.25 1.25 1.2 1.25 1.1 1.3 1.05 1.3 1.0 1.3 0.55 1.3 0.4 1.35 0.35 1.4 0.3 1.4 -0.3 1.4 -0.5 1.2 -0.8 1.05 -0.75 1.0 -0.8 0.9 -0.9 M0.0 -0.05 L-0.1 0.15 -0.05 0.5 -0.05 0.6 0.45 0.55 0.45 0.2 0.4 0.15 0.35 0.0 0.05 -0.05 0.0 -0.05 M0.65 -0.1 L0.7 -0.05 0.75 0.55 0.7 0.65 Q0.45 1.1 -0.1 0.9 L-0.3 0.65 -0.3 0.45 -0.45 0.45 -0.45 0.4 -0.5 0.3 -0.5 0.2 -0.1 -0.25 0.05 -0.4 0.45 -0.25 0.5 -0.3 0.55 -0.25 0.6 -0.25 0.65 -0.1 M-30.95 -2.4 L-30.95 -2.3 -30.95 -2.25 -30.55 -2.25 -30.5 -2.25 -30.45 -2.2 -22.4 -2.15 -22.35 -2.25 -22.35 -2.45 -22.6 -2.45 -30.9 -2.65 -30.95 -2.4 M-30.25 -0.6 L-30.0 -0.25 Q-29.35 0.95 -28.2 1.55 L-27.55 1.85 -27.35 1.9 -27.3 1.95 Q-25.7 2.1 -24.4 1.35 L-24.4 1.3 Q-23.6 0.6 -23.15 -0.3 L-22.95 -0.65 -22.9 -0.75 -22.45 -1.95 -30.35 -1.95 -30.25 -0.65 -30.25 -0.6 M-22.9 -0.05 L-23.05 0.05 -23.25 0.4 -23.7 1.0 -23.85 1.15 -23.8 1.2 -24.95 1.95 -24.7 2.0 -23.75 1.6 -23.65 1.65 -23.35 1.55 -23.2 1.7 -23.1 1.6 -23.0 1.45 -22.95 1.45 -22.85 1.55 -22.7 0.95 -22.75 0.95 -22.8 0.85 Q-22.65 0.1 -22.3 -0.5 L-22.1 -1.1 -22.05 -1.1 -22.0 -1.4 -22.0 -1.45 -21.95 -1.45 -22.0 -1.55 -22.25 -1.65 -22.9 -0.15 -22.9 -0.1 -22.9 -0.05 M-21.9 -0.55 L-22.5 1.3 -22.5 1.35 -17.55 1.35 -17.55 1.25 -17.35 1.05 -17.05 0.35 -17.05 0.25 -17.2 0.0 -17.5 -0.65 -17.6 -0.75 -17.6 -0.9 -17.6 -0.95 -21.05 -0.95 -21.15 -0.95 -21.7 -0.95 -21.9 -0.55 M-16.95 -0.1 L-16.95 0.0 -16.85 0.1 -16.25 -0.95 -17.3 -0.95 -17.3 -0.9 -16.95 -0.1 M-12.5 -0.95 L-14.2 -0.95 -14.25 -0.9 -13.5 -0.05 -12.5 -0.95 -12.45 -0.95 -12.5 -0.95 M-14.75 -0.95 L-15.95 -0.95 -16.7 0.45 -16.7 0.5 -16.75 0.5 -16.75 0.6 -17.05 1.05 -17.05 1.15 -17.25 1.35 -16.1 1.35 -15.9 1.15 -15.85 1.1 -15.45 0.35 -15.35 0.25 -15.35 0.2 -15.3 0.1 -14.75 -0.7 -14.8 -0.8 -14.7 -0.9 -14.75 -0.9 -14.75 -0.95 -14.7 -0.95 -14.75 -0.95 M-14.55 -0.55 L-13.8 0.35 -13.75 0.4 -13.7 0.45 -13.7 0.4 -13.55 0.55 -13.55 0.6 -13.55 0.65 -13.35 1.1 -13.3 1.2 -13.1 1.25 -13.05 1.3 -12.35 1.3 -12.4 1.2 -12.45 1.2 -12.6 1.2 -14.35 -0.65 -14.45 -0.75 -14.55 -0.55 M-12.45 -0.7 L-13.3 0.15 -12.45 1.0 -12.4 0.95 -12.05 1.25 -12.0 1.25 -11.95 1.3 -11.1 1.3 Q-11.1 0.65 -11.35 0.05 L-11.4 0.0 -11.9 0.4 -11.9 0.5 -12.1 0.7 -12.15 0.85 -12.15 0.9 -12.5 0.85 -12.4 0.55 -12.2 0.35 -10.85 -0.95 -12.35 -0.95 -12.25 -0.85 -12.25 -0.8 Q-12.35 -0.65 -12.45 -0.7 M-11.1 -0.2 L-11.1 -0.15 Q-10.9 0.2 -10.85 0.65 L-9.85 0.55 -9.8 0.55 -9.4 -0.95 -10.45 -0.95 -11.1 -0.35 -11.1 -0.2 M-9.15 -0.95 L-9.25 -0.1 -8.75 0.55 -8.05 -0.95 -9.15 -0.95 M-8.55 1.25 L-9.3 0.0 -9.6 0.6 -9.55 0.6 -9.5 0.65 -9.45 0.7 -9.5 0.8 -9.65 0.85 -9.75 1.25 -9.75 1.3 -8.5 1.3 -8.55 1.25 M-9.95 0.9 L-10.85 0.85 -10.9 1.05 -10.9 1.1 -10.8 1.3 -10.15 1.3 -10.15 1.25 -10.05 1.15 -9.95 0.9 M-13.8 0.85 L-14.15 1.3 -14.15 1.35 -13.5 1.3 -13.8 0.85 M-14.5 1.25 L-13.95 0.65 Q-14.25 0.1 -14.7 -0.35 L-15.05 0.3 -15.05 0.35 -15.7 1.35 -14.45 1.35 -14.5 1.25 M-25.1 2.05 L-25.05 2.0 -25.15 2.05 -25.1 2.05" fill="#000000" fill-rule="evenodd" stroke="none"/>
      <path d="M1.25 -1.2 L1.2 -1.25 1.15 -1.25 1.1 -1.2 1.05 -1.2 -1.55 -1.2 -1.45 -1.95 -1.45 -2.0 1.9 -2.0 1.8 1.65 1.8 1.8 1.9 1.9 1.9 1.95 1.95 2.65 1.8 2.65 1.75 2.6 -1.65 2.55 -1.5 1.65 1.15 1.65 1.2 1.6 1.3 1.55 1.45 1.65 1.55 1.6 1.6 1.55 1.6 1.5 1.55 1.4 1.55 1.35 1.6 0.55 1.65 0.5 1.7 0.4 1.7 0.2 1.7 -0.6 1.65 -0.65 1.45 -0.95 1.45 -1.0 1.45 -1.1 1.45 -1.15 1.25 -1.2 M0.0 -0.05 L0.05 -0.05 0.35 0.0 0.4 0.15 0.45 0.2 0.45 0.55 -0.05 0.6 -0.05 0.5 -0.1 0.15 0.0 -0.05" fill="#a69b9b" fill-rule="evenodd" stroke="none"/>
      <path d="M0.9 -0.9 L1.0 -0.8 1.05 -0.75 1.2 -0.8 1.4 -0.5 1.4 -0.3 1.4 0.3 1.35 0.35 1.3 0.4 1.3 0.55 1.3 1.0 1.3 1.05 1.25 1.1 1.25 1.2 1.25 1.25 1.15 1.25 -8.1 1.3 -8.2 1.1 -8.3 1.05 -8.35 1.0 -8.45 0.9 -8.45 0.85 -8.4 0.75 -8.45 0.6 -8.4 0.55 -7.85 -0.9 -7.9 -0.9 -7.95 -0.95 0.9 -0.9 M0.65 -0.1 L0.6 -0.25 0.55 -0.25 0.5 -0.3 0.45 -0.25 0.05 -0.4 -0.1 -0.25 -0.5 0.2 -0.5 0.3 -0.45 0.4 -0.45 0.45 -0.3 0.45 -0.3 0.65 -0.1 0.9 Q0.45 1.1 0.7 0.65 L0.75 0.55 0.7 -0.05 0.65 -0.1 M-30.25 -0.6 L-30.25 -0.65 -30.35 -1.95 -22.45 -1.95 -22.9 -0.75 -22.95 -0.65 -23.15 -0.3 Q-23.6 0.6 -24.4 1.3 L-24.4 1.35 Q-25.7 2.1 -27.3 1.95 L-27.35 1.9 -27.55 1.85 -28.2 1.55 Q-29.35 0.95 -30.0 -0.25 L-30.25 -0.6 M-21.9 -0.55 L-21.7 -0.95 -21.15 -0.95 -21.05 -0.95 -17.6 -0.95 -17.6 -0.9 -17.6 -0.75 -17.5 -0.65 -17.2 0.0 -17.05 0.25 -17.05 0.35 -17.35 1.05 -17.55 1.25 -17.55 1.35 -22.5 1.35 -22.5 1.3 -21.9 -0.55" fill="#715426" fill-rule="evenodd" stroke="none"/>
      <path d="M-30.95 -2.4 L-30.9 -2.65 -22.6 -2.45 -22.35 -2.45 -22.35 -2.25 -22.4 -2.15 -30.45 -2.2 -30.5 -2.25 -30.55 -2.25 -30.95 -2.25 -30.95 -2.3 -30.95 -2.4 M-22.9 -0.05 L-22.9 -0.1 -22.9 -0.15 -22.25 -1.65 -22.0 -1.55 -21.95 -1.45 -22.0 -1.45 -22.0 -1.4 -22.05 -1.1 -22.1 -1.1 -22.3 -0.5 Q-22.65 0.1 -22.8 0.85 L-22.75 0.95 -22.7 0.95 -22.85 1.55 -22.95 1.45 -23.0 1.45 -23.1 1.6 -23.2 1.7 -23.35 1.55 -23.65 1.65 -23.75 1.6 -24.7 2.0 -24.95 1.95 -23.8 1.2 -23.85 1.15 -23.7 1.0 -23.25 0.4 -23.05 0.05 -22.9 -0.05" fill="#9d6f37" fill-rule="evenodd" stroke="none"/>
      <path d="M-12.5 -0.95 L-13.5 -0.05 -14.25 -0.9 -14.2 -0.95 -12.5 -0.95 M-16.95 -0.1 L-17.3 -0.9 -17.3 -0.95 -16.25 -0.95 -16.85 0.1 -16.95 0.0 -16.95 -0.1 M-14.75 -0.95 L-14.75 -0.9 -14.7 -0.9 -14.8 -0.8 -14.75 -0.7 -15.3 0.1 -15.35 0.2 -15.35 0.25 -15.45 0.35 -15.85 1.1 -15.9 1.15 -16.1 1.35 -17.25 1.35 -17.05 1.15 -17.05 1.05 -16.75 0.6 -16.75 0.5 -16.7 0.5 -16.7 0.45 -15.95 -0.95 -14.75 -0.95 M-14.5 1.25 L-14.45 1.35 -15.7 1.35 -15.05 0.35 -15.05 0.3 -14.7 -0.35 Q-14.25 0.1 -13.95 0.65 L-14.5 1.25 M-13.8 0.85 L-13.5 1.3 -14.15 1.35 -14.15 1.3 -13.8 0.85 M-9.95 0.9 L-10.05 1.15 -10.15 1.25 -10.15 1.3 -10.8 1.3 -10.9 1.1 -10.9 1.05 -10.85 0.85 -9.95 0.9 M-8.55 1.25 L-8.5 1.3 -9.75 1.3 -9.75 1.25 -9.65 0.85 -9.5 0.8 -9.45 0.7 -9.5 0.65 -9.55 0.6 -9.6 0.6 -9.3 0.0 -8.55 1.25 M-9.15 -0.95 L-8.05 -0.95 -8.75 0.55 -9.25 -0.1 -9.15 -0.95 M-11.1 -0.2 L-11.1 -0.35 -10.45 -0.95 -9.4 -0.95 -9.8 0.55 -9.85 0.55 -10.85 0.65 Q-10.9 0.2 -11.1 -0.15 L-11.1 -0.2 M-12.45 -0.7 Q-12.35 -0.65 -12.25 -0.8 L-12.25 -0.85 -12.35 -0.95 -10.85 -0.95 -12.2 0.35 -12.4 0.55 -12.5 0.85 -12.15 0.9 -12.15 0.85 -12.1 0.7 -11.9 0.5 -11.9 0.4 -11.4 0.0 -11.35 0.05 Q-11.1 0.65 -11.1 1.3 L-11.95 1.3 -12.0 1.25 -12.05 1.25 -12.4 0.95 -12.45 1.0 -13.3 0.15 -12.45 -0.7 M-14.55 -0.55 L-14.45 -0.75 -14.35 -0.65 -12.6 1.2 -12.45 1.2 -12.4 1.2 -12.35 1.3 -13.05 1.3 -13.1 1.25 -13.3 1.2 -13.35 1.1 -13.55 0.65 -13.55 0.6 -13.55 0.55 -13.7 0.4 -13.7 0.45 -13.75 0.4 -13.8 0.35 -14.55 -0.55" fill="#e3cdb3" fill-rule="evenodd" stroke="none"/>
    </g>
    <g id="shape4" transform="matrix(1.0, 0.0, 0.0, 1.0, -5.4, 2.55)">
      <path d="M10.1 0.45 L9.9 0.55 9.85 0.6 9.6 0.65 9.55 0.7 9.6 0.75 8.95 1.3 8.9 1.45 8.7 1.55 8.6 1.55 8.7 2.35 8.65 2.4 8.6 2.55 8.5 2.55 7.95 2.5 7.75 2.4 7.65 1.7 7.6 1.45 7.25 1.3 6.75 0.8 6.65 0.4 Q5.85 0.5 5.4 -0.05 L5.5 -0.15 5.55 -0.2 Q5.45 -0.3 5.5 -0.45 5.75 -0.7 6.1 -0.65 6.2 -0.55 6.25 -0.6 L6.55 -0.6 6.55 -0.7 6.8 -0.95 6.8 -1.05 Q7.15 -1.4 7.6 -1.45 L7.65 -1.5 7.75 -1.6 7.7 -1.95 7.8 -2.05 7.65 -2.3 7.6 -2.45 7.65 -2.5 8.4 -2.55 8.6 -2.45 8.7 -1.35 8.75 -1.4 8.9 -1.35 Q9.5 -0.95 9.6 -0.35 L10.8 -0.05 10.6 0.55 10.5 0.55 10.1 0.45 M9.6 -0.15 L8.65 -1.1 Q8.25 -1.4 8.35 -2.0 L8.35 -2.2 8.15 -2.2 8.05 -2.2 8.05 -1.7 8.05 -1.6 8.05 -1.5 8.1 -1.45 7.9 -1.25 7.15 -1.0 6.8 -0.55 6.75 -0.4 6.8 -0.35 6.35 -0.3 6.3 -0.25 5.9 -0.35 5.8 -0.15 5.75 -0.1 5.85 0.0 6.25 0.1 6.3 0.05 6.65 0.1 6.8 0.05 7.05 0.7 7.0 0.75 7.65 1.2 7.7 1.25 7.8 1.25 7.95 1.6 8.0 2.05 8.0 2.15 8.3 2.25 8.4 1.45 8.35 1.4 8.35 1.3 8.4 1.25 8.65 1.2 8.7 1.25 9.2 0.75 9.3 0.65 9.4 0.35 9.4 0.25 9.55 0.2 9.6 0.25 9.6 0.35 10.5 0.25 9.6 -0.15 M8.0 -0.65 L8.3 -0.55 8.3 -0.45 8.4 -0.45 8.45 -0.4 8.6 -0.25 8.65 -0.2 8.65 0.0 8.65 0.2 8.6 0.25 8.5 0.25 8.5 0.35 8.4 0.45 8.3 0.45 Q7.85 0.4 7.6 -0.15 L7.65 -0.3 7.8 -0.45 7.85 -0.5 7.95 -0.6 8.0 -0.65 M8.4 0.15 L8.35 0.0 8.25 -0.2 8.15 -0.3 8.0 -0.25 7.95 -0.2 8.0 -0.15 8.3 0.15 8.4 0.15" fill="#000000" fill-rule="evenodd" stroke="none"/>
      <path d="M8.0 -0.65 L7.95 -0.6 7.85 -0.5 7.8 -0.45 7.65 -0.3 7.6 -0.15 Q7.85 0.4 8.3 0.45 L8.4 0.45 8.5 0.35 8.5 0.25 8.6 0.25 8.65 0.2 8.65 0.0 8.65 -0.2 8.6 -0.25 8.45 -0.4 8.4 -0.45 8.3 -0.45 8.3 -0.55 8.0 -0.65 M9.6 -0.15 L10.5 0.25 9.6 0.35 9.6 0.25 9.55 0.2 9.4 0.25 9.4 0.35 9.3 0.65 9.2 0.75 8.7 1.25 8.65 1.2 8.4 1.25 8.35 1.3 8.35 1.4 8.4 1.45 8.3 2.25 8.0 2.15 8.0 2.05 7.95 1.6 7.8 1.25 7.7 1.25 7.65 1.2 7.0 0.75 7.05 0.7 6.8 0.05 6.65 0.1 6.3 0.05 6.25 0.1 5.85 0.0 5.75 -0.1 5.8 -0.15 5.9 -0.35 6.3 -0.25 6.35 -0.3 6.8 -0.35 6.75 -0.4 6.8 -0.55 7.15 -1.0 7.9 -1.25 8.1 -1.45 8.05 -1.5 8.05 -1.6 8.05 -1.7 8.05 -2.2 8.15 -2.2 8.35 -2.2 8.35 -2.0 Q8.25 -1.4 8.65 -1.1 L9.6 -0.15" fill="#ceab73" fill-rule="evenodd" stroke="none"/>
      <path d="M8.4 0.15 L8.3 0.15 8.0 -0.15 7.95 -0.2 8.0 -0.25 8.15 -0.3 8.25 -0.2 8.35 0.0 8.4 0.15" fill="#a69b9b" fill-rule="evenodd" stroke="none"/>
    </g>
  </defs>
</svg>
