<?xml version="1.0" encoding="UTF-8" standalone="no"?>
<svg xmlns:xlink="http://www.w3.org/1999/xlink" height="234.0px" width="255.6px" xmlns="http://www.w3.org/2000/svg">
  <g transform="matrix(6.0, 0.0, 0.0, 6.0, 190.8, 187.5)">
    <use height="16.85" transform="matrix(1.0, 0.0, 0.0, 1.0, -1.1, -10.25)" width="10.8" xlink:href="#shape0"/>
    <use height="10.55" transform="matrix(1.0, 0.0, 0.0, 1.0, -5.05, -4.95)" width="10.75" xlink:href="#shape1"/>
    <use height="33.65" transform="matrix(1.0, 0.0, 0.0, 1.0, -3.15, -31.05)" width="6.5" xlink:href="#shape2"/>
    <use height="5.1" transform="matrix(1.0, 0.0, 0.0, 1.0, 5.4, -2.55)" width="5.4" xlink:href="#shape3"/>
  </g>
  <defs>
    <g id="shape0" transform="matrix(1.0, 0.0, 0.0, 1.0, 1.1, 10.25)">
      <path d="M9.3 -0.05 L9.4 2.15 9.4 2.45 9.7 3.25 9.6 3.85 9.65 3.9 9.7 3.95 9.7 4.05 8.75 4.2 8.7 4.15 8.55 4.1 9.0 4.55 9.05 4.5 9.15 4.5 9.1 4.55 9.15 4.6 9.1 4.65 9.15 4.7 9.1 4.75 9.0 4.85 7.15 6.6 7.05 6.6 7.0 6.45 7.2 6.25 0.8 -0.05 0.6 -0.05 0.6 -0.15 0.55 -0.2 0.45 -0.3 -0.9 -1.75 -1.0 -1.85 -1.1 -1.95 -1.05 -2.0 -0.95 -2.0 -0.85 -2.2 -0.75 -2.3 -0.55 -2.5 -0.65 -2.6 -0.65 -2.7 -0.6 -2.75 -0.45 -2.7 -0.4 -2.65 3.45 -6.5 4.5 -7.55 3.65 -7.8 Q3.25 -8.0 3.1 -8.45 2.8 -9.45 3.8 -9.95 L3.95 -10.1 4.5 -10.15 5.2 -9.95 5.8 -9.15 5.85 -9.1 5.8 -9.05 5.7 -8.75 6.3 -9.35 6.35 -9.3 6.45 -9.3 6.4 -9.25 6.45 -9.2 6.4 -9.15 6.55 -9.1 7.85 -7.7 7.95 -7.7 7.95 -7.6 8.05 -7.5 8.0 -7.45 7.9 -7.35 7.8 -7.45 6.95 -6.5 8.4 -6.25 8.45 -6.2 8.55 -6.2 Q8.5 -3.65 9.15 -1.1 L9.3 -0.05 M9.35 3.9 L9.35 3.3 9.4 3.25 Q9.0 2.25 9.05 1.1 L8.6 -1.95 Q8.35 -3.2 8.35 -4.4 L8.35 -5.4 8.35 -6.0 6.75 -6.3 6.5 -6.05 6.55 -6.1 6.6 -6.05 6.55 -5.7 6.6 -5.65 Q6.55 -2.6 6.9 0.45 7.1 1.45 6.95 2.5 L8.2 3.75 8.25 3.8 8.25 3.7 8.6 3.85 9.05 3.8 9.0 3.85 9.35 3.9 9.4 3.95 9.35 3.9 M6.3 -5.45 L6.35 -5.9 3.8 -3.35 2.5 -2.05 2.55 -2.0 6.7 2.25 6.3 -3.65 6.3 -5.45 M2.3 -1.85 L0.75 -0.4 0.85 -0.3 7.3 6.15 Q8.0 5.35 8.85 4.7 L2.35 -1.8 2.3 -1.85 M6.4 -8.95 L6.35 -8.9 6.3 -8.85 5.7 -8.25 5.65 -8.1 5.55 -7.9 5.05 -7.7 2.05 -4.7 -0.25 -2.5 1.1 -1.05 4.7 -4.65 7.7 -7.55 6.4 -8.95 M5.1 -9.55 L4.95 -9.7 4.8 -9.75 4.75 -9.7 4.65 -9.9 4.3 -9.85 4.1 -9.85 3.5 -9.45 3.25 -9.1 Q3.2 -8.25 4.05 -7.8 L4.9 -7.95 5.4 -8.45 5.4 -8.55 5.45 -8.9 5.5 -9.15 5.1 -9.55 M-0.4 -2.25 L-0.7 -1.85 0.6 -0.55 0.95 -0.9 -0.45 -2.3 -0.4 -2.25" fill="#000000" fill-rule="evenodd" stroke="none"/>
      <path d="M8.2 3.75 L6.95 2.5 Q7.1 1.45 6.9 0.45 6.55 -2.6 6.6 -5.65 L6.55 -5.7 6.6 -6.05 6.55 -6.1 6.5 -6.05 6.75 -6.3 8.35 -6.0 8.35 -5.4 8.35 -4.4 Q8.35 -3.2 8.6 -1.95 L9.05 1.1 Q9.0 2.25 9.4 3.25 L9.35 3.3 9.35 3.9 9.0 3.85 9.05 3.8 8.6 3.85 8.25 3.7 8.2 3.75 M2.3 -1.85 L2.35 -1.8 8.85 4.7 Q8.0 5.35 7.3 6.15 L0.85 -0.3 0.75 -0.4 2.3 -1.85 M6.35 -8.9 L6.4 -8.95 7.7 -7.55 4.7 -4.65 1.1 -1.05 -0.25 -2.5 2.05 -4.7 5.05 -7.7 5.55 -7.9 5.65 -8.1 5.7 -8.25 6.3 -8.85 6.35 -8.9 M5.1 -9.55 L5.5 -9.15 5.45 -8.9 5.4 -8.55 5.4 -8.45 4.9 -7.95 4.05 -7.8 Q3.2 -8.25 3.25 -9.1 L3.5 -9.45 4.1 -9.85 4.3 -9.85 4.65 -9.9 4.75 -9.7 4.15 -9.8 3.85 -9.6 Q3.3 -9.45 3.35 -8.9 3.6 -8.35 4.05 -8.1 L4.1 -8.15 4.15 -8.2 4.7 -8.25 Q5.6 -8.85 5.1 -9.55" fill="#ab813a" fill-rule="evenodd" stroke="none"/>
      <path d="M6.35 -8.9 L6.4 -8.95 6.35 -8.9" fill="#715426" fill-rule="evenodd" stroke="none"/>
      <path d="M4.75 -9.7 L4.8 -9.75 4.95 -9.7 5.1 -9.55 Q5.6 -8.85 4.7 -8.25 L4.15 -8.2 4.1 -8.15 4.05 -8.1 Q3.6 -8.35 3.35 -8.9 3.3 -9.45 3.85 -9.6 L4.15 -9.8 4.75 -9.7" fill="#d8b68d" fill-rule="evenodd" stroke="none"/>
      <path d="M7.85 -7.2 L7.9 -7.15 7.85 -7.1 7.75 -7.1 7.7 -7.15 7.6 -7.05 7.55 -6.8 7.4 -6.85 5.4 -8.75 5.4 -8.95 5.3 -9.15 5.2 -9.45 4.6 -9.85 4.4 -9.95 4.05 -10.0 4.0 -9.95 3.95 -9.9 3.7 -9.85 3.6 -9.95 3.65 -10.0 3.65 -10.1 4.0 -10.25 4.1 -10.25 4.45 -10.2 4.95 -10.2 5.05 -10.1 5.1 -10.05 5.6 -9.65 7.75 -7.4 7.8 -7.35 7.85 -7.3 7.85 -7.2 M8.5 -5.55 L8.75 -4.8 8.7 -4.75 8.8 -4.65 8.85 -4.6 8.9 -4.45 8.85 -4.4 8.75 -4.4 8.65 -4.4 8.5 -4.35 8.45 -4.4 Q8.35 -4.3 8.25 -4.3 7.45 -3.7 6.5 -3.55 L6.55 -3.3 6.45 -3.3 6.3 -3.35 6.25 -3.6 6.05 -3.9 6.1 -3.95 6.05 -4.0 6.15 -4.0 7.35 -4.9 5.4 -5.55 5.45 -5.1 5.5 -5.05 4.85 -4.5 4.8 -4.45 Q4.35 -4.5 4.5 -4.85 L4.55 -4.9 4.65 -4.9 4.45 -5.8 3.1 -6.15 3.3 -6.55 3.55 -6.8 3.5 -7.05 3.55 -7.1 3.65 -7.2 3.15 -8.0 3.15 -8.5 4.15 -7.9 4.8 -7.95 4.9 -7.95 4.95 -7.9 4.95 -7.8 5.45 -6.6 8.2 -5.55 8.3 -5.55 8.35 -5.6 8.45 -5.6 8.5 -5.55 M8.4 -4.85 L8.45 -4.9 8.25 -5.2 8.2 -5.25 5.2 -6.35 4.3 -6.75 4.05 -6.8 3.9 -6.75 3.75 -6.6 3.6 -6.45 7.65 -5.1 7.85 -5.1 8.0 -4.95 8.15 -4.8 8.45 -4.8 8.4 -4.85 M7.6 -4.65 L6.5 -3.95 6.45 -3.9 6.4 -3.85 6.5 -3.75 6.6 -3.75 7.85 -4.4 7.95 -4.5 8.05 -4.5 7.75 -4.7 7.6 -4.65 M9.3 2.35 L9.4 2.25 9.55 2.3 9.55 2.6 9.6 2.65 9.7 3.25 Q9.1 3.65 8.3 3.85 L7.9 3.85 7.6 4.05 Q7.35 4.8 6.75 5.4 L6.7 5.45 6.7 5.55 6.8 5.65 6.85 5.8 6.8 5.85 6.55 5.8 5.95 5.1 5.8 5.15 5.75 5.1 5.75 4.8 Q5.25 4.6 4.9 4.15 6.6 2.95 8.85 2.4 L9.3 2.35 M9.35 3.1 L9.35 2.6 Q7.25 3.2 5.45 4.1 L5.4 4.15 5.85 4.5 6.0 4.45 6.2 4.35 7.85 3.6 8.15 3.6 9.3 3.15 9.35 3.1 M6.1 4.85 L6.5 5.25 7.25 4.2 6.3 4.65 6.25 4.7 6.15 4.8 6.1 4.85 M7.4 -7.25 L7.5 -7.35 5.7 -8.95 5.8 -8.75 7.4 -7.25 M3.9 -7.35 L4.15 -7.4 4.35 -7.6 4.05 -7.6 4.0 -7.55 Q3.85 -7.6 3.65 -7.8 L3.9 -7.35 3.95 -7.3 3.9 -7.35 M4.75 -7.4 L4.4 -7.15 4.45 -6.9 5.1 -6.65 4.75 -7.4 M4.6 -5.75 L4.9 -4.95 5.25 -5.2 5.05 -5.7 4.6 -5.75" fill="#000000" fill-rule="evenodd" stroke="none"/>
      <path d="M7.6 -4.65 L7.75 -4.7 8.05 -4.5 7.95 -4.5 7.85 -4.4 6.6 -3.75 6.5 -3.75 6.4 -3.85 6.45 -3.9 6.5 -3.95 7.6 -4.65 M8.4 -4.85 L8.45 -4.8 8.15 -4.8 8.0 -4.95 7.85 -5.1 7.65 -5.1 3.6 -6.45 3.75 -6.6 3.9 -6.75 4.05 -6.8 4.3 -6.75 5.2 -6.35 8.2 -5.25 8.25 -5.2 8.45 -4.9 8.4 -4.85 M3.9 -7.35 L3.65 -7.8 Q3.85 -7.6 4.0 -7.55 L4.05 -7.6 4.35 -7.6 4.15 -7.4 3.9 -7.35 M7.4 -7.25 L5.8 -8.75 5.7 -8.95 7.5 -7.35 7.4 -7.25 M6.1 4.85 L6.15 4.8 6.25 4.7 6.3 4.65 7.25 4.2 6.5 5.25 6.1 4.85 M9.35 3.1 L9.3 3.15 8.15 3.6 7.85 3.6 6.2 4.35 6.0 4.45 5.85 4.5 5.4 4.15 5.45 4.1 Q7.25 3.2 9.35 2.6 L9.35 3.1 M4.6 -5.75 L5.05 -5.7 5.25 -5.2 4.9 -4.95 4.6 -5.75 M4.75 -7.4 L5.1 -6.65 4.45 -6.9 4.4 -7.15 4.75 -7.4" fill="#e3cdb3" fill-rule="evenodd" stroke="none"/>
    </g>
    <g id="shape1" transform="matrix(1.0, 0.0, 0.0, 1.0, 5.05, 4.95)">
      <path d="M4.5 3.65 L4.45 3.75 3.4 4.7 3.3 4.8 3.25 4.8 3.15 4.75 3.05 4.65 2.6 4.15 2.5 4.1 2.0 4.25 1.6 4.3 Q1.45 4.85 1.65 5.3 L1.65 5.4 1.6 5.55 1.55 5.6 -0.15 5.5 -0.2 5.45 -0.15 5.3 -0.2 5.2 -0.35 4.45 -0.8 4.4 -0.85 4.4 -0.95 4.35 -1.1 4.6 -1.2 4.7 -1.25 4.7 -1.3 4.85 -1.55 5.1 -1.65 5.2 -1.7 5.25 -1.75 5.3 -1.85 5.2 -1.9 5.15 -2.8 4.45 -3.2 4.15 -3.2 4.1 -3.25 4.05 -3.3 3.95 -3.25 3.9 -3.25 3.75 -3.15 3.8 -2.75 3.35 -2.75 3.3 -3.2 2.8 -3.35 2.9 -3.35 2.95 -3.55 3.0 -3.55 3.05 -3.55 3.1 -4.15 3.1 -4.2 3.05 -4.2 2.9 Q-4.7 2.45 -4.8 1.7 L-4.75 1.5 -4.7 1.3 -4.5 1.25 -4.25 1.2 -4.1 1.15 -3.95 0.55 -4.05 0.2 -4.25 0.2 -4.35 0.15 -4.55 0.15 -4.65 0.1 -4.8 0.0 -4.95 -0.1 -4.95 -0.2 Q-5.2 -0.75 -4.9 -1.3 L-4.85 -1.4 -4.65 -1.55 -4.5 -1.9 -4.45 -2.0 -4.35 -2.05 -3.6 -1.7 -3.55 -1.65 -3.2 -2.0 -3.2 -2.05 -3.3 -2.2 -3.4 -2.3 -3.85 -2.75 -4.0 -2.75 -4.1 -2.95 -3.95 -3.1 -3.9 -3.1 -3.75 -3.25 -3.7 -3.35 -3.55 -3.35 -3.3 -3.55 -3.3 -3.6 -3.2 -3.7 -3.1 -3.75 -2.9 -4.05 -2.7 -4.0 -2.65 -3.95 -2.65 -3.9 -2.55 -3.9 -2.45 -3.85 -2.0 -3.5 -1.85 -3.5 -1.75 -3.6 -1.7 -3.6 -1.65 -3.65 -1.6 -3.65 -1.5 -3.65 -1.5 -4.4 -1.55 -4.5 -1.65 -4.5 -1.5 -4.75 -0.5 -4.95 -0.35 -4.95 -0.25 -4.95 -0.25 -4.9 0.05 -4.85 0.15 -4.9 0.25 -4.8 0.3 -4.75 Q0.15 -4.45 0.3 -4.2 L0.85 -4.1 1.1 -4.0 1.3 -4.75 1.4 -4.9 1.5 -4.9 1.6 -4.9 1.7 -4.95 1.95 -4.8 2.25 -4.55 2.95 -4.2 3.0 -4.15 3.1 -4.15 3.1 -3.95 3.0 -3.9 2.9 -3.9 2.75 -3.5 Q2.75 -3.25 3.05 -3.1 L3.2 -3.2 3.55 -3.5 3.6 -3.55 3.75 -3.55 3.8 -3.55 3.9 -3.5 3.9 -3.45 3.85 -3.35 4.0 -3.35 4.05 -3.3 4.25 -3.0 4.65 -2.7 4.85 -2.25 4.8 -2.15 4.75 -2.05 4.7 -2.05 4.3 -1.75 4.4 -0.75 Q4.7 -0.55 5.1 -0.45 L5.35 -0.4 5.45 -0.5 5.55 -0.45 5.55 -0.4 5.6 -0.35 Q5.95 0.75 5.3 1.6 L5.4 1.6 5.5 1.65 5.4 1.75 5.4 1.8 4.85 1.7 4.75 1.65 4.65 1.55 4.55 1.6 4.5 1.7 Q3.9 2.0 3.95 2.75 L4.4 3.35 4.5 3.35 4.6 3.4 4.5 3.65 M4.15 -0.55 Q3.95 -1.25 3.9 -1.9 L4.5 -2.2 4.4 -2.55 4.25 -2.65 4.2 -2.7 4.15 -2.7 3.65 -3.15 3.4 -3.0 3.4 -2.95 3.35 -2.8 3.1 -2.7 3.0 -2.75 2.5 -3.2 2.35 -3.25 2.3 -3.3 Q2.2 -3.5 2.35 -3.6 L2.45 -3.6 2.7 -4.05 2.3 -4.25 2.2 -4.3 1.9 -4.5 1.6 -4.55 1.6 -4.45 1.55 -4.4 1.5 -4.35 1.55 -4.3 1.5 -4.3 1.25 -3.7 0.95 -3.75 0.8 -3.85 0.5 -3.9 0.25 -3.9 Q-0.15 -4.3 -0.05 -4.6 L-0.2 -4.6 -0.3 -4.55 -0.4 -4.6 -0.45 -4.65 -1.05 -4.55 -1.2 -4.55 -1.4 -4.4 -1.35 -4.4 -1.1 -3.8 -1.25 -3.45 -1.3 -3.45 -1.8 -3.2 -1.85 -3.1 -2.55 -3.6 -2.7 -3.65 -2.95 -3.45 -3.0 -3.45 -3.2 -3.3 -3.15 -3.25 -3.3 -3.15 -3.45 -3.05 -3.55 -3.05 -3.65 -2.95 -3.2 -2.6 -2.95 -2.3 -2.85 -2.25 -2.8 -2.2 -3.4 -1.45 -3.45 -1.35 -3.75 -1.4 -3.8 -1.45 -4.35 -1.75 -4.85 -0.35 -4.5 -0.25 -3.75 0.05 -3.7 1.2 -3.75 1.25 -4.0 1.45 -4.5 1.55 -3.95 2.8 -3.8 2.8 -3.8 2.75 -3.65 2.7 -3.55 2.7 -3.25 2.55 -3.15 2.5 -2.85 2.9 -2.55 3.05 -2.5 3.05 -2.4 3.15 -2.35 3.25 -2.4 3.3 -3.0 3.95 -2.9 4.1 Q-2.8 4.1 -2.75 4.2 L-2.65 4.2 -2.6 4.25 -2.45 4.3 -2.45 4.35 -2.5 4.4 -2.3 4.6 -2.05 4.65 -2.05 4.7 -2.0 4.7 -1.9 4.75 -1.75 4.8 -1.4 4.45 -1.35 4.45 -1.2 3.85 -0.7 4.1 -0.2 4.15 -0.1 4.15 0.15 5.25 0.2 5.25 0.3 5.2 1.3 5.25 Q1.15 4.8 1.25 4.15 L1.9 3.95 2.35 3.9 2.55 3.7 3.25 4.4 3.45 4.1 3.5 4.05 3.6 4.05 3.65 4.05 Q3.85 3.75 4.15 3.6 L4.25 3.55 4.2 3.5 4.0 3.15 3.65 2.85 3.75 2.0 4.15 1.5 4.25 1.5 4.3 1.4 4.35 1.3 4.4 1.25 4.5 1.25 4.6 1.25 4.85 1.4 5.2 1.5 5.25 1.25 5.35 1.1 5.35 -0.15 Q4.75 -0.1 4.15 -0.5 L4.15 -0.55 M1.1 0.6 L1.2 0.3 1.2 -0.05 1.0 -0.55 0.9 -0.65 0.8 -0.75 0.7 -0.85 0.55 -0.95 0.3 -1.05 -0.2 -0.95 -0.45 -0.65 -0.75 -0.35 -0.6 0.9 -0.05 1.3 0.35 1.3 0.8 0.95 1.1 0.6 M1.4 0.75 Q0.8 1.55 -0.05 1.55 L-0.45 1.35 Q-1.5 0.35 -0.65 -0.9 -0.25 -1.4 0.35 -1.35 L0.7 -1.25 0.8 -1.2 0.85 -1.15 0.85 -1.1 0.85 -1.0 1.1 -0.85 1.5 -0.45 Q1.65 0.15 1.4 0.7 L1.4 0.75" fill="#000000" fill-rule="evenodd" stroke="none"/>
      <path d="M4.15 -0.55 L4.15 -0.5 Q4.75 -0.1 5.35 -0.15 L5.35 1.1 5.25 1.25 5.2 1.5 4.85 1.4 4.6 1.25 4.5 1.25 4.4 1.25 4.35 1.3 4.3 1.4 4.25 1.5 4.15 1.5 3.75 2.0 3.65 2.85 4.0 3.15 4.2 3.5 4.25 3.55 4.15 3.6 Q3.85 3.75 3.65 4.05 L3.6 4.05 3.5 4.05 3.45 4.1 3.25 4.4 2.55 3.7 2.35 3.9 1.9 3.95 1.25 4.15 Q1.15 4.8 1.3 5.25 L0.3 5.2 0.2 5.25 0.15 5.25 -0.1 4.15 -0.2 4.15 -0.7 4.1 -1.2 3.85 -1.35 4.45 -1.4 4.45 -1.75 4.8 -1.9 4.75 -2.0 4.7 -2.05 4.7 -2.05 4.65 -2.3 4.6 -2.5 4.4 -2.45 4.35 -2.45 4.3 -2.6 4.25 -2.65 4.2 -2.75 4.2 Q-2.8 4.1 -2.9 4.1 L-3.0 3.95 -2.4 3.3 -2.35 3.25 -2.4 3.15 -2.5 3.05 -2.55 3.05 -2.85 2.9 -3.15 2.5 -3.25 2.55 -3.55 2.7 -3.65 2.7 -3.8 2.75 -3.8 2.8 -3.95 2.8 -4.5 1.55 -4.0 1.45 -3.75 1.25 -3.7 1.2 -3.75 0.05 -4.5 -0.25 -4.85 -0.35 -4.35 -1.75 -3.8 -1.45 -3.75 -1.4 -3.45 -1.35 -3.4 -1.45 -2.8 -2.2 -2.85 -2.25 -2.95 -2.3 -3.2 -2.6 -3.65 -2.95 -3.55 -3.05 -3.45 -3.05 -3.3 -3.15 -3.15 -3.25 -3.2 -3.3 -3.0 -3.45 -2.95 -3.45 -2.7 -3.65 -2.55 -3.6 -1.85 -3.1 -1.8 -3.2 -1.3 -3.45 -1.25 -3.45 -1.1 -3.8 -1.35 -4.4 -1.4 -4.4 -1.2 -4.55 -1.05 -4.55 -0.45 -4.65 -0.4 -4.6 -0.3 -4.55 -0.2 -4.6 -0.05 -4.6 Q-0.15 -4.3 0.25 -3.9 L0.5 -3.9 0.8 -3.85 0.95 -3.75 1.25 -3.7 1.5 -4.3 1.55 -4.3 1.5 -4.35 1.55 -4.4 1.6 -4.45 1.6 -4.55 1.9 -4.5 2.2 -4.3 2.3 -4.25 2.7 -4.05 2.45 -3.6 2.35 -3.6 Q2.2 -3.5 2.3 -3.3 L2.35 -3.25 2.5 -3.2 3.0 -2.75 3.1 -2.7 3.35 -2.8 3.4 -2.95 3.4 -3.0 3.65 -3.15 4.15 -2.7 4.2 -2.7 4.25 -2.65 4.4 -2.55 4.5 -2.2 3.9 -1.9 Q3.95 -1.25 4.15 -0.55 M1.4 0.75 L1.4 0.7 Q1.65 0.15 1.5 -0.45 L1.1 -0.85 0.85 -1.0 0.85 -1.1 0.85 -1.15 0.8 -1.2 0.7 -1.25 0.35 -1.35 Q-0.25 -1.4 -0.65 -0.9 -1.5 0.35 -0.45 1.35 L-0.05 1.55 Q0.8 1.55 1.4 0.75" fill="#ceab73" fill-rule="evenodd" stroke="none"/>
    </g>
    <g id="shape2" transform="matrix(1.0, 0.0, 0.0, 1.0, 3.15, 31.05)">
      <path d="M3.0 2.35 L-0.65 2.45 -0.7 2.45 -0.75 2.55 -0.8 2.55 -2.0 2.55 -2.05 2.1 -2.1 -1.45 -2.05 -1.5 -2.0 -1.55 -0.9 -1.4 -1.3 -7.55 -1.3 -7.6 -1.4 -7.7 -1.3 -7.9 -1.5 -11.6 -1.5 -11.7 -1.55 -12.6 -1.6 -12.75 -1.55 -12.8 -1.75 -15.4 -1.8 -15.45 -1.85 -15.5 -1.75 -15.7 -1.8 -16.9 -1.9 -17.15 -1.85 -17.25 -2.1 -22.1 -2.2 -22.15 -2.25 -22.35 -2.45 -22.45 -2.5 -22.5 Q-2.7 -22.7 -2.55 -22.95 L-2.65 -23.35 -2.85 -23.55 -2.85 -23.5 -2.9 -23.45 Q-3.2 -24.5 -3.15 -25.75 -3.2 -28.5 -0.75 -29.95 L-0.65 -30.1 0.9 -30.25 0.9 -30.3 0.9 -30.4 1.0 -30.85 1.05 -31.0 1.05 -31.05 1.55 -31.0 1.6 -31.0 1.75 -30.95 1.85 -30.95 1.8 -30.8 2.3 -22.4 2.25 -21.9 2.2 -21.85 2.15 -21.85 2.1 -21.85 1.7 -21.85 1.55 -21.9 1.5 -21.85 1.4 -21.9 1.3 -21.55 1.25 -21.5 0.95 -21.45 0.9 -21.45 0.75 -21.4 0.75 -20.95 1.05 -15.8 1.1 -15.85 1.15 -15.8 1.15 -15.75 1.05 -15.6 1.05 -15.55 1.15 -14.2 1.2 -14.25 1.25 -14.2 1.25 -14.15 1.3 -14.1 1.2 -14.0 1.25 -13.95 1.2 -13.9 1.95 -1.6 2.95 -1.65 3.0 -1.65 3.05 -1.6 3.1 -1.5 3.35 2.15 3.3 2.2 3.0 2.35 M2.1 1.3 L2.15 1.3 2.15 1.35 2.15 1.45 2.1 1.65 2.05 1.65 1.95 1.65 1.9 1.65 1.6 1.85 1.55 1.9 0.75 1.95 0.55 1.95 0.45 1.95 0.4 1.9 -0.4 1.9 -0.45 1.9 -0.55 1.95 -0.6 1.95 -0.65 1.9 -0.7 1.8 -0.6 1.65 -0.7 1.55 -0.75 1.5 -0.9 -1.15 -1.8 -1.25 -1.65 2.15 -1.7 2.2 -1.7 2.35 -1.0 2.25 -0.95 2.25 -0.85 2.15 -0.7 2.15 2.95 2.05 2.75 -1.3 2.7 -1.3 1.95 -1.35 2.1 1.25 2.1 1.3 M1.8 1.1 L1.3 -7.7 1.25 -7.65 1.25 -7.6 -0.2 -8.05 -0.25 -8.1 -0.4 -8.05 -0.5 -8.1 -0.55 -8.1 -0.65 -8.0 -0.7 -7.95 -0.75 -7.85 -0.95 -7.7 -0.35 1.5 -0.3 1.6 -0.25 1.55 -0.15 1.55 -0.1 1.6 -0.05 1.6 0.4 1.6 0.55 1.55 0.6 1.6 0.65 1.65 1.25 1.65 1.45 1.6 1.7 1.4 1.65 1.25 1.7 1.2 1.8 1.1 M1.0 0.9 L0.95 0.95 0.35 1.05 0.25 1.0 Q-0.2 0.75 -0.05 0.2 L0.2 0.0 0.4 0.0 0.35 -0.15 0.4 -0.2 0.5 -0.25 0.6 -0.25 1.1 0.15 1.25 0.3 1.15 0.7 1.2 0.75 1.15 0.8 1.15 0.85 1.0 0.9 M0.9 0.25 L0.7 0.15 0.35 0.25 0.25 0.25 Q0.1 0.5 0.35 0.75 L0.7 0.7 0.7 0.65 0.85 0.6 0.9 0.3 0.9 0.25 M1.35 -30.7 L1.25 -30.7 1.2 -30.7 1.2 -30.3 1.2 -30.25 1.15 -30.2 1.6 -22.2 1.7 -22.15 1.9 -22.15 1.9 -22.4 1.6 -30.65 1.35 -30.7 M-0.4 -29.9 L-0.75 -29.6 Q-1.9 -28.9 -2.45 -27.7 L-2.7 -27.05 -2.75 -26.85 -2.8 -26.8 Q-2.85 -25.15 -2.0 -23.9 L-1.95 -23.9 -0.3 -22.75 0.1 -22.65 0.2 -22.6 1.4 -22.2 0.95 -30.05 -0.35 -29.9 -0.4 -29.9 M-0.5 -22.55 L-0.6 -22.7 -1.0 -22.85 -1.6 -23.25 -1.75 -23.4 -1.8 -23.35 -2.65 -24.45 -2.65 -24.2 -2.2 -23.25 -2.25 -23.15 -2.15 -22.85 -2.3 -22.7 -2.15 -22.6 -2.0 -22.55 -2.0 -22.5 -2.1 -22.4 -1.5 -22.3 -1.5 -22.35 -1.4 -22.4 0.0 -22.0 0.6 -21.8 0.6 -21.75 0.9 -21.75 0.95 -21.75 0.95 -21.7 1.05 -21.75 1.15 -22.0 -0.4 -22.55 -0.45 -22.55 -0.5 -22.55 M0.05 -21.6 L-1.85 -22.05 -1.9 -22.05 -1.6 -17.1 -1.5 -17.1 -1.25 -16.95 -0.55 -16.7 -0.45 -16.7 Q-0.3 -16.95 -0.2 -16.85 L0.4 -17.2 0.5 -17.3 0.65 -17.3 0.7 -17.3 0.5 -20.75 0.5 -20.85 0.45 -21.4 0.05 -21.6 M-0.1 -16.6 L-0.2 -16.6 -0.3 -16.5 0.8 -15.95 0.75 -17.0 0.7 -17.0 -0.1 -16.6 M1.05 -12.25 L0.95 -13.9 0.85 -13.95 0.05 -13.2 1.05 -12.25 1.05 -12.2 1.05 -12.25 M0.9 -14.45 L0.9 -14.4 0.9 -14.45 0.8 -15.65 -0.65 -16.3 -0.7 -16.3 -0.7 -16.35 -0.8 -16.35 -1.25 -16.65 -1.35 -16.65 -1.55 -16.8 -1.5 -15.65 -1.3 -15.5 -1.25 -15.45 -0.45 -15.1 -0.35 -15.0 -0.3 -15.0 -0.2 -14.95 0.65 -14.45 0.75 -14.5 0.85 -14.4 0.85 -14.45 0.9 -14.45 M0.5 -14.25 L-0.35 -13.5 -0.4 -13.45 -0.45 -13.35 -0.4 -13.4 -0.55 -13.2 -0.6 -13.2 -0.65 -13.2 Q-0.9 -13.05 -1.05 -13.0 L-1.15 -12.95 -1.2 -12.7 -1.25 -12.65 -1.2 -11.95 -1.1 -12.05 -1.1 -12.1 -1.15 -12.25 0.6 -14.05 0.7 -14.15 0.5 -14.25 M0.8 -12.2 L-0.1 -13.0 -0.9 -12.1 -0.85 -12.05 -1.15 -11.65 -1.15 -11.6 -1.2 -11.55 -1.15 -10.7 0.1 -11.05 0.15 -11.1 -0.3 -11.6 -0.4 -11.55 -0.6 -11.75 -0.75 -11.8 -0.8 -11.8 -0.75 -12.15 -0.45 -12.05 -0.25 -11.9 1.15 -10.6 1.05 -12.1 0.95 -12.0 0.9 -12.0 0.8 -12.2 M0.35 -10.8 L0.3 -10.8 Q0.0 -10.6 -0.45 -10.5 -0.25 -10.1 -0.3 -9.5 L-0.3 -9.45 1.2 -9.15 1.15 -10.2 0.5 -10.8 0.35 -10.8 M1.25 -8.9 L0.4 -8.95 -0.25 -8.4 1.3 -7.8 1.25 -8.9 M-0.95 -8.15 L0.3 -9.0 -0.35 -9.25 -0.35 -9.2 -0.4 -9.15 -0.45 -9.1 -0.55 -9.15 -0.6 -9.3 -1.0 -9.35 -1.05 -9.35 -0.95 -8.1 -0.95 -8.15 M-0.65 -9.6 L-0.65 -10.5 -0.85 -10.55 -0.9 -10.55 -1.1 -10.4 -1.1 -9.75 -1.05 -9.75 -0.9 -9.7 -0.65 -9.6 M-0.85 -13.45 L-1.3 -13.7 -1.35 -13.7 -1.3 -13.1 -0.85 -13.45 M-1.3 -14.05 L-0.65 -13.55 0.3 -14.35 -0.4 -14.7 -0.45 -14.7 -1.45 -15.25 -1.4 -14.0 -1.3 -14.05 M-2.75 -24.55 L-2.7 -24.55 -2.75 -24.6 -2.75 -24.55" fill="#000000" fill-rule="evenodd" stroke="none"/>
      <path d="M2.1 1.3 L2.1 1.25 1.95 -1.35 2.7 -1.3 2.75 -1.3 2.95 2.05 -0.7 2.15 -0.85 2.15 -0.95 2.25 -1.0 2.25 -1.7 2.35 -1.7 2.2 -1.65 2.15 -1.8 -1.25 -0.9 -1.15 -0.75 1.5 -0.7 1.55 -0.6 1.65 -0.7 1.8 -0.65 1.9 -0.6 1.95 -0.55 1.95 -0.45 1.9 -0.4 1.9 0.4 1.9 0.45 1.95 0.55 1.95 0.75 1.95 1.55 1.9 1.6 1.85 1.9 1.65 1.95 1.65 2.05 1.65 2.1 1.65 2.15 1.45 2.15 1.35 2.15 1.3 2.1 1.3 M0.9 0.25 L0.9 0.3 0.85 0.6 0.7 0.65 0.7 0.7 0.35 0.75 Q0.1 0.5 0.25 0.25 L0.35 0.25 0.7 0.15 0.9 0.25" fill="#a69b9b" fill-rule="evenodd" stroke="none"/>
      <path d="M1.0 0.9 L1.15 0.85 1.15 0.8 1.2 0.75 1.15 0.7 1.25 0.3 1.1 0.15 0.6 -0.25 0.5 -0.25 0.4 -0.2 0.35 -0.15 0.4 0.0 0.2 0.0 -0.05 0.2 Q-0.2 0.75 0.25 1.0 L0.35 1.05 0.95 0.95 1.0 0.9 M1.8 1.1 L1.7 1.2 1.65 1.25 1.7 1.4 1.45 1.6 1.25 1.65 0.65 1.65 0.6 1.6 0.55 1.55 0.4 1.6 -0.05 1.6 -0.1 1.6 -0.15 1.55 -0.25 1.55 -0.3 1.6 -0.35 1.5 -0.95 -7.7 -0.75 -7.85 -0.7 -7.95 -0.65 -8.0 -0.55 -8.1 -0.5 -8.1 -0.4 -8.05 -0.25 -8.1 -0.2 -8.05 1.25 -7.6 1.25 -7.65 1.3 -7.7 1.8 1.1 M-0.4 -29.9 L-0.35 -29.9 0.95 -30.05 1.4 -22.2 0.2 -22.6 0.1 -22.65 -0.3 -22.75 -1.95 -23.9 -2.0 -23.9 Q-2.85 -25.15 -2.8 -26.8 L-2.75 -26.85 -2.7 -27.05 -2.45 -27.7 Q-1.9 -28.9 -0.75 -29.6 L-0.4 -29.9 M0.05 -21.6 L0.45 -21.4 0.5 -20.85 0.5 -20.75 0.7 -17.3 0.65 -17.3 0.5 -17.3 0.4 -17.2 -0.2 -16.85 Q-0.3 -16.95 -0.45 -16.7 L-0.55 -16.7 -1.25 -16.95 -1.5 -17.1 -1.6 -17.1 -1.9 -22.05 -1.85 -22.05 0.05 -21.6" fill="#715426" fill-rule="evenodd" stroke="none"/>
      <path d="M1.35 -30.7 L1.6 -30.65 1.9 -22.4 1.9 -22.15 1.7 -22.15 1.6 -22.2 1.15 -30.2 1.2 -30.25 1.2 -30.3 1.2 -30.7 1.25 -30.7 1.35 -30.7 M-0.5 -22.55 L-0.45 -22.55 -0.4 -22.55 1.15 -22.0 1.05 -21.75 0.95 -21.7 0.95 -21.75 0.9 -21.75 0.6 -21.75 0.6 -21.8 0.0 -22.0 -1.4 -22.4 -1.5 -22.35 -1.5 -22.3 -2.1 -22.4 -2.0 -22.5 -2.0 -22.55 -2.15 -22.6 -2.3 -22.7 -2.15 -22.85 -2.25 -23.15 -2.2 -23.25 -2.65 -24.2 -2.65 -24.45 -1.8 -23.35 -1.75 -23.4 -1.6 -23.25 -1.0 -22.85 -0.6 -22.7 -0.5 -22.55" fill="#9d6f37" fill-rule="evenodd" stroke="none"/>
      <path d="M1.05 -12.25 L0.05 -13.2 0.85 -13.95 0.95 -13.9 1.05 -12.25 M-0.1 -16.6 L0.7 -17.0 0.75 -17.0 0.8 -15.95 -0.3 -16.5 -0.2 -16.6 -0.1 -16.6 M0.9 -14.45 L0.85 -14.45 0.85 -14.4 0.75 -14.5 0.65 -14.45 -0.2 -14.95 -0.3 -15.0 -0.35 -15.0 -0.45 -15.1 -1.25 -15.45 -1.3 -15.5 -1.5 -15.65 -1.55 -16.8 -1.35 -16.65 -1.25 -16.65 -0.8 -16.35 -0.7 -16.35 -0.7 -16.3 -0.65 -16.3 0.8 -15.65 0.9 -14.45 M-1.3 -14.05 L-1.4 -14.0 -1.45 -15.25 -0.45 -14.7 -0.4 -14.7 0.3 -14.35 -0.65 -13.55 -1.3 -14.05 M-0.85 -13.45 L-1.3 -13.1 -1.35 -13.7 -1.3 -13.7 -0.85 -13.45 M-0.65 -9.6 L-0.9 -9.7 -1.05 -9.75 -1.1 -9.75 -1.1 -10.4 -0.9 -10.55 -0.85 -10.55 -0.65 -10.5 -0.65 -9.6 M-0.95 -8.15 L-0.95 -8.1 -1.05 -9.35 -1.0 -9.35 -0.6 -9.3 -0.55 -9.15 -0.45 -9.1 -0.4 -9.15 -0.35 -9.2 -0.35 -9.25 0.3 -9.0 -0.95 -8.15 M1.25 -8.9 L1.3 -7.8 -0.25 -8.4 0.4 -8.95 1.25 -8.9 M0.35 -10.8 L0.5 -10.8 1.15 -10.2 1.2 -9.15 -0.3 -9.45 -0.3 -9.5 Q-0.25 -10.1 -0.45 -10.5 0.0 -10.6 0.3 -10.8 L0.35 -10.8 M0.8 -12.2 L0.9 -12.0 0.95 -12.0 1.05 -12.1 1.15 -10.6 -0.25 -11.9 -0.45 -12.05 -0.75 -12.15 -0.8 -11.8 -0.75 -11.8 -0.6 -11.75 -0.4 -11.55 -0.3 -11.6 0.15 -11.1 0.1 -11.05 -1.15 -10.7 -1.2 -11.55 -1.15 -11.6 -1.15 -11.65 -0.85 -12.05 -0.9 -12.1 -0.1 -13.0 0.8 -12.2 M0.5 -14.25 L0.7 -14.15 0.6 -14.05 -1.15 -12.25 -1.1 -12.1 -1.1 -12.05 -1.2 -11.95 -1.25 -12.65 -1.2 -12.7 -1.15 -12.95 -1.05 -13.0 Q-0.9 -13.05 -0.65 -13.2 L-0.6 -13.2 -0.55 -13.2 -0.4 -13.4 -0.45 -13.35 -0.4 -13.45 -0.35 -13.5 0.5 -14.25" fill="#e3cdb3" fill-rule="evenodd" stroke="none"/>
    </g>
    <g id="shape3" transform="matrix(1.0, 0.0, 0.0, 1.0, -5.4, 2.55)">
      <path d="M10.1 0.45 L9.9 0.55 9.85 0.6 9.6 0.65 9.55 0.7 9.6 0.75 8.95 1.3 8.9 1.45 8.7 1.55 8.6 1.55 8.7 2.35 8.65 2.4 8.6 2.55 8.5 2.55 7.95 2.5 7.75 2.4 7.65 1.7 7.6 1.45 7.25 1.3 6.75 0.8 6.65 0.4 Q5.85 0.5 5.4 -0.05 L5.5 -0.15 5.55 -0.2 Q5.45 -0.3 5.5 -0.45 5.75 -0.7 6.1 -0.65 6.2 -0.55 6.25 -0.6 L6.55 -0.6 6.55 -0.7 6.8 -0.95 6.8 -1.05 Q7.15 -1.4 7.6 -1.45 L7.65 -1.5 7.75 -1.6 7.7 -1.95 7.8 -2.05 7.65 -2.3 7.6 -2.45 7.65 -2.5 8.4 -2.55 8.6 -2.45 8.7 -1.35 8.75 -1.4 8.9 -1.35 Q9.5 -0.95 9.6 -0.35 L10.8 -0.05 10.6 0.55 10.5 0.55 10.1 0.45 M9.6 -0.15 L8.65 -1.1 Q8.25 -1.4 8.35 -2.0 L8.35 -2.2 8.15 -2.2 8.05 -2.2 8.05 -1.7 8.05 -1.6 8.05 -1.5 8.1 -1.45 7.9 -1.25 7.15 -1.0 6.8 -0.55 6.75 -0.4 6.8 -0.35 6.35 -0.3 6.3 -0.25 5.9 -0.35 5.8 -0.15 5.75 -0.1 5.85 0.0 6.25 0.1 6.3 0.05 6.65 0.1 6.8 0.05 7.05 0.7 7.0 0.75 7.65 1.2 7.7 1.25 7.8 1.25 7.95 1.6 8.0 2.05 8.0 2.15 8.3 2.25 8.4 1.45 8.35 1.4 8.35 1.3 8.4 1.25 8.65 1.2 8.7 1.25 9.2 0.75 9.3 0.65 9.4 0.35 9.4 0.25 9.55 0.2 9.6 0.25 9.6 0.35 10.5 0.25 9.6 -0.15 M8.0 -0.65 L8.3 -0.55 8.3 -0.45 8.4 -0.45 8.45 -0.4 8.6 -0.25 8.65 -0.2 8.65 0.0 8.65 0.2 8.6 0.25 8.5 0.25 8.5 0.35 8.4 0.45 8.3 0.45 Q7.85 0.4 7.6 -0.15 L7.65 -0.3 7.8 -0.45 7.85 -0.5 7.95 -0.6 8.0 -0.65 M8.4 0.15 L8.35 0.0 8.25 -0.2 8.15 -0.3 8.0 -0.25 7.95 -0.2 8.0 -0.15 8.3 0.15 8.4 0.15" fill="#000000" fill-rule="evenodd" stroke="none"/>
      <path d="M8.0 -0.65 L7.95 -0.6 7.85 -0.5 7.8 -0.45 7.65 -0.3 7.6 -0.15 Q7.85 0.4 8.3 0.45 L8.4 0.45 8.5 0.35 8.5 0.25 8.6 0.25 8.65 0.2 8.65 0.0 8.65 -0.2 8.6 -0.25 8.45 -0.4 8.4 -0.45 8.3 -0.45 8.3 -0.55 8.0 -0.65 M9.6 -0.15 L10.5 0.25 9.6 0.35 9.6 0.25 9.55 0.2 9.4 0.25 9.4 0.35 9.3 0.65 9.2 0.75 8.7 1.25 8.65 1.2 8.4 1.25 8.35 1.3 8.35 1.4 8.4 1.45 8.3 2.25 8.0 2.15 8.0 2.05 7.95 1.6 7.8 1.25 7.7 1.25 7.65 1.2 7.0 0.75 7.05 0.7 6.8 0.05 6.65 0.1 6.3 0.05 6.25 0.1 5.85 0.0 5.75 -0.1 5.8 -0.15 5.9 -0.35 6.3 -0.25 6.35 -0.3 6.8 -0.35 6.75 -0.4 6.8 -0.55 7.15 -1.0 7.9 -1.25 8.1 -1.45 8.05 -1.5 8.05 -1.6 8.05 -1.7 8.05 -2.2 8.15 -2.2 8.35 -2.2 8.35 -2.0 Q8.25 -1.4 8.65 -1.1 L9.6 -0.15" fill="#ceab73" fill-rule="evenodd" stroke="none"/>
      <path d="M8.4 0.15 L8.3 0.15 8.0 -0.15 7.95 -0.2 8.0 -0.25 8.15 -0.3 8.25 -0.2 8.35 0.0 8.4 0.15" fill="#a69b9b" fill-rule="evenodd" stroke="none"/>
    </g>
  </defs>
</svg>
