<?xml version="1.0" encoding="UTF-8" standalone="no"?>
<svg xmlns:xlink="http://www.w3.org/1999/xlink" height="170.4px" width="341.4px" xmlns="http://www.w3.org/2000/svg">
  <g transform="matrix(6.0, 0.0, 0.0, 6.0, 54.9, 86.7)">
    <use height="5.1" transform="matrix(1.0, 0.0, 0.0, 1.0, 6.75, -4.8)" width="20.9" xlink:href="#shape0"/>
    <use height="5.1" transform="matrix(1.0, 0.0, 0.0, 1.0, 6.75, 0.3)" width="20.9" xlink:href="#shape1"/>
    <use height="14.1" transform="matrix(1.0, 0.0, 0.0, 1.0, -9.15, -7.05)" width="18.25" xlink:href="#shape2"/>
  </g>
  <defs>
    <g id="shape0" transform="matrix(1.0, 0.0, 0.0, 1.0, -6.75, 4.8)">
      <path d="M6.9 -3.25 L6.95 -3.6 7.8 -3.7 7.8 -3.8 7.85 -3.85 7.9 -3.85 Q7.85 -4.4 8.05 -4.75 L8.05 -4.8 8.1 -4.75 8.15 -4.7 8.2 -3.8 8.3 -3.7 8.35 -3.7 8.55 -3.65 8.6 -3.6 8.65 -3.6 8.65 -3.55 21.55 -3.5 21.55 -3.65 21.45 -3.65 21.5 -3.75 21.6 -3.95 Q22.0 -4.1 22.25 -4.45 L22.3 -4.45 22.4 -4.55 22.9 -4.5 23.0 -4.5 23.0 -4.45 23.05 -4.4 23.15 -4.4 23.2 -4.15 23.1 -4.15 23.15 -4.1 23.25 -4.1 23.5 -3.85 23.4 -3.85 23.35 -3.8 23.4 -3.8 23.6 -3.8 24.4 -3.75 24.95 -3.75 25.9 -3.75 26.0 -3.75 26.4 -3.75 26.0 -3.75 26.0 -3.8 26.55 -4.0 26.65 -4.1 26.7 -4.15 26.95 -4.5 27.35 -4.45 27.4 -4.45 27.5 -4.4 27.55 -4.2 27.55 -4.15 27.55 0.05 27.65 0.1 27.55 0.15 27.55 0.2 27.4 0.25 26.75 0.05 26.8 -0.05 26.8 -0.15 23.3 -0.2 23.25 0.0 23.25 0.05 23.25 0.15 22.55 0.25 22.5 0.2 22.4 0.1 22.35 0.05 22.3 0.05 22.25 0.0 22.25 -0.1 21.9 -0.3 21.8 -0.3 21.65 -0.3 21.55 -0.5 21.55 -0.55 21.5 -0.55 21.35 -0.65 20.7 -0.8 20.55 -0.8 20.45 -0.75 20.25 -0.85 19.65 -0.8 19.65 -0.85 19.35 -0.85 11.05 -0.8 8.4 -0.8 8.35 -0.7 8.25 -0.65 8.2 -0.05 8.2 0.0 8.0 0.0 8.0 -0.3 7.9 -0.35 7.9 -0.45 7.95 -0.5 7.95 -0.6 7.0 -0.65 Q6.6 -1.4 6.8 -2.3 L6.9 -3.25 M8.1 -3.35 L7.2 -3.3 7.1 -2.35 Q7.0 -1.6 7.15 -0.95 L7.3 -0.9 Q7.55 -1.15 7.9 -1.1 L7.9 -1.55 7.9 -1.7 8.0 -1.75 8.05 -1.8 8.1 -1.75 8.1 -1.8 8.15 -1.75 8.25 -1.75 8.3 -1.75 8.45 -1.1 11.15 -1.05 11.15 -1.1 20.8 -1.05 21.25 -1.05 21.55 -1.05 21.6 -1.05 21.65 -1.1 21.75 -1.0 21.8 -1.05 21.85 -1.1 Q22.15 -0.9 22.05 -0.55 L21.95 -0.5 21.95 -0.45 22.0 -0.5 22.55 -0.15 22.7 -0.05 22.95 -0.1 22.95 -0.15 23.0 -0.3 23.05 -0.35 23.15 -0.5 23.15 -0.55 23.25 -0.6 23.45 -0.5 26.9 -0.5 27.05 -0.35 27.1 -0.3 27.1 -0.15 27.15 -0.1 27.3 -0.05 27.4 -4.1 27.35 -4.15 27.3 -4.2 27.25 -4.15 27.15 -4.15 27.05 -4.15 27.0 -4.05 26.95 -4.0 26.75 -3.8 26.75 -3.7 26.65 -3.55 26.45 -3.5 23.35 -3.55 23.25 -3.55 23.1 -3.55 Q22.9 -3.65 22.75 -3.85 L22.75 -3.9 22.8 -3.95 22.75 -4.2 22.5 -4.2 22.0 -3.75 21.95 -3.65 21.95 -3.55 21.85 -3.35 21.85 -3.3 21.6 -3.3 8.25 -3.25 8.1 -3.35 M26.05 -1.6 L22.8 -1.9 22.75 -2.0 22.7 -2.0 22.8 -2.4 Q22.9 -2.6 23.15 -2.65 L23.15 -2.7 23.2 -2.75 23.25 -2.75 24.0 -2.9 26.9 -2.45 26.95 -2.4 27.0 -2.35 26.95 -2.3 26.95 -2.25 26.9 -2.1 26.45 -1.8 26.2 -1.75 26.2 -1.7 26.2 -1.65 26.05 -1.6 M23.05 -2.05 L23.05 -2.0 26.45 -2.1 26.5 -2.2 26.55 -2.2 Q26.35 -2.45 25.75 -2.5 L23.95 -2.6 23.85 -2.55 23.5 -2.55 23.35 -2.45 23.05 -2.3 23.0 -2.25 23.0 -2.15 23.05 -2.05 M20.75 -0.8 L20.7 -0.8 20.75 -0.8" fill="#000000" fill-rule="evenodd" stroke="none"/>
      <path d="M8.1 -3.35 L8.25 -3.25 21.6 -3.3 21.85 -3.3 21.85 -3.35 21.95 -3.55 21.95 -3.65 22.0 -3.75 22.5 -4.2 22.75 -4.2 22.8 -3.95 22.75 -3.9 22.75 -3.85 Q22.9 -3.65 23.1 -3.55 L23.25 -3.55 23.35 -3.55 26.45 -3.5 26.65 -3.55 26.75 -3.7 26.75 -3.8 26.95 -4.0 27.0 -4.05 27.05 -4.15 27.15 -4.15 27.25 -4.15 27.3 -4.2 27.35 -4.15 27.4 -4.1 27.3 -0.05 27.15 -0.1 27.1 -0.15 27.1 -0.3 27.05 -0.35 26.9 -0.5 23.45 -0.5 23.25 -0.6 23.15 -0.55 23.15 -0.5 23.05 -0.35 23.0 -0.3 22.95 -0.15 22.95 -0.1 22.7 -0.05 22.55 -0.15 22.0 -0.5 21.95 -0.45 21.95 -0.5 22.05 -0.55 Q22.15 -0.9 21.85 -1.1 L21.8 -1.05 21.75 -1.0 21.65 -1.1 21.6 -1.05 21.55 -1.05 21.25 -1.05 20.8 -1.05 11.15 -1.1 11.15 -1.05 8.45 -1.1 8.3 -1.75 8.25 -1.75 8.15 -1.75 8.1 -1.8 8.1 -1.75 8.05 -1.8 8.0 -1.75 7.9 -1.7 7.9 -1.55 7.9 -1.1 Q7.55 -1.15 7.3 -0.9 L7.15 -0.95 Q7.0 -1.6 7.1 -2.35 L7.2 -3.3 8.1 -3.35 M19.1 -2.95 L18.5 -2.95 18.15 -3.0 18.15 -2.95 18.1 -2.95 8.5 -3.0 8.5 -2.95 8.35 -2.85 8.35 -2.8 8.5 -2.7 18.05 -2.75 18.4 -2.65 18.65 -2.7 18.65 -2.75 19.4 -2.75 19.4 -2.7 Q19.5 -2.5 19.65 -2.65 L19.7 -2.7 19.7 -2.75 19.9 -2.75 19.9 -2.6 Q20.05 -2.4 20.2 -2.6 L20.2 -2.65 20.35 -2.5 20.4 -2.55 20.6 -2.6 20.85 -2.6 20.95 -2.6 21.0 -2.6 21.15 -2.6 21.3 -2.55 21.55 -2.6 22.0 -2.65 22.05 -2.7 22.2 -2.8 22.2 -2.9 22.25 -2.95 22.3 -3.15 22.5 -3.15 22.55 -3.15 22.65 -3.25 22.75 -3.45 22.75 -3.65 22.7 -3.65 22.4 -3.8 22.35 -3.75 22.05 -3.6 22.0 -3.45 22.05 -3.3 21.9 -3.1 21.9 -3.0 21.85 -3.0 21.8 -2.95 21.5 -2.95 21.4 -3.0 21.35 -2.95 21.3 -2.95 21.2 -3.0 21.15 -2.95 21.15 -3.0 19.25 -3.15 19.1 -3.0 19.1 -2.95 M20.2 -2.7 L20.2 -2.75 20.25 -2.75 20.2 -2.7 M26.2 -1.65 L26.2 -1.7 26.2 -1.75 26.45 -1.8 26.9 -2.1 26.95 -2.25 26.95 -2.3 27.0 -2.35 26.95 -2.4 26.9 -2.45 24.0 -2.9 23.25 -2.75 23.2 -2.75 23.15 -2.7 23.15 -2.65 Q22.9 -2.6 22.8 -2.4 L22.7 -2.0 22.75 -2.0 22.8 -1.9 26.05 -1.6 25.1 -1.35 Q26.05 -1.1 26.9 -1.75 L26.75 -1.9 26.2 -1.65 M25.3 -3.05 L25.3 -3.0 25.45 -2.95 26.9 -3.0 27.0 -3.0 27.05 -3.1 27.15 -3.6 27.15 -3.65 27.05 -3.7 27.0 -3.65 26.75 -3.25 26.75 -3.2 26.05 -3.2 26.1 -3.25 25.95 -3.4 25.1 -3.15 25.3 -3.05" fill="#333333" fill-rule="evenodd" stroke="none"/>
      <path d="M22.3 -3.15 L22.25 -2.95 22.2 -2.9 22.2 -2.8 22.05 -2.7 22.0 -2.65 21.55 -2.6 21.3 -2.55 21.15 -2.6 21.0 -2.6 20.95 -2.6 20.85 -2.6 20.6 -2.6 20.4 -2.55 20.35 -2.5 20.2 -2.65 20.2 -2.6 Q20.05 -2.4 19.9 -2.6 L19.9 -2.75 19.7 -2.75 19.7 -2.7 19.65 -2.65 Q19.5 -2.5 19.4 -2.7 L19.4 -2.75 18.65 -2.75 18.65 -2.7 18.4 -2.65 18.05 -2.75 8.5 -2.7 8.35 -2.8 8.35 -2.85 8.5 -2.95 8.5 -3.0 18.1 -2.95 18.15 -2.95 18.15 -3.0 18.5 -2.95 19.1 -2.95 21.15 -2.8 21.2 -2.9 21.15 -2.95 21.2 -3.0 21.3 -2.95 21.35 -2.95 21.4 -3.0 21.5 -2.95 21.8 -2.95 21.85 -3.0 21.9 -3.0 21.9 -3.1 22.05 -3.3 22.3 -3.15 M20.2 -2.7 L20.25 -2.75 20.2 -2.75 20.2 -2.7 M26.05 -3.2 L26.75 -3.2 26.75 -3.25 27.0 -3.65 27.05 -3.7 27.15 -3.65 27.15 -3.6 27.05 -3.1 27.0 -3.0 26.9 -3.0 25.45 -2.95 25.3 -3.0 25.3 -3.05 26.05 -3.2" fill="#c1c1c1" fill-rule="evenodd" stroke="none"/>
      <path d="M19.1 -2.95 L19.1 -3.0 19.25 -3.15 21.15 -3.0 21.15 -2.95 21.2 -2.9 21.15 -2.8 19.1 -2.95 M22.05 -3.3 L22.0 -3.45 22.05 -3.6 22.35 -3.75 22.4 -3.8 22.7 -3.65 22.75 -3.65 22.75 -3.45 22.65 -3.25 22.55 -3.15 22.5 -3.15 22.3 -3.15 22.05 -3.3 M26.2 -1.65 L26.75 -1.9 26.9 -1.75 Q26.05 -1.1 25.1 -1.35 L26.05 -1.6 26.2 -1.65 M25.3 -3.05 L25.1 -3.15 25.95 -3.4 26.1 -3.25 26.05 -3.2 25.3 -3.05" fill="#fcfcfc" fill-rule="evenodd" stroke="none"/>
    </g>
    <g id="shape1" transform="matrix(1.0, 0.0, 0.0, 1.0, -6.75, -0.3)">
      <path d="M6.9 1.85 L6.95 1.5 7.8 1.4 7.8 1.3 7.85 1.25 7.9 1.25 Q7.85 0.7 8.05 0.35 L8.05 0.3 8.1 0.35 8.15 0.4 8.2 1.3 8.3 1.4 8.35 1.4 8.55 1.45 8.6 1.5 8.65 1.5 8.65 1.55 21.55 1.6 21.55 1.45 21.45 1.45 21.5 1.35 21.6 1.15 Q22.0 1.0 22.25 0.65 L22.3 0.65 22.4 0.55 22.9 0.6 23.0 0.6 23.0 0.65 23.05 0.7 23.15 0.7 23.2 0.95 23.1 0.95 23.15 1.0 23.25 1.0 23.5 1.25 23.4 1.25 23.35 1.3 23.4 1.3 23.6 1.3 24.4 1.35 24.95 1.35 25.9 1.35 26.0 1.35 26.4 1.35 26.0 1.35 26.0 1.3 26.55 1.1 26.65 1.0 26.7 0.95 26.95 0.6 27.35 0.65 27.4 0.65 27.5 0.7 27.55 0.9 27.55 0.95 27.55 5.15 27.65 5.2 27.55 5.25 27.55 5.3 27.4 5.35 26.75 5.15 26.8 5.05 26.8 4.95 23.3 4.9 23.25 5.1 23.25 5.15 23.25 5.25 22.55 5.35 22.5 5.3 22.4 5.2 22.35 5.15 22.3 5.15 22.25 5.1 22.25 5.0 21.9 4.8 21.8 4.8 21.65 4.8 21.55 4.6 21.55 4.55 21.5 4.55 21.35 4.45 20.7 4.3 20.55 4.3 20.45 4.35 20.25 4.25 19.65 4.3 19.65 4.25 19.35 4.25 11.05 4.3 8.4 4.3 8.35 4.4 8.25 4.45 8.2 5.05 8.2 5.1 8.0 5.1 8.0 4.8 7.9 4.75 7.9 4.65 7.95 4.6 7.95 4.5 7.0 4.45 Q6.6 3.7 6.8 2.8 L6.9 1.85 M8.1 1.75 L7.2 1.8 7.1 2.75 7.15 4.15 7.3 4.2 Q7.55 3.95 7.9 4.0 L7.9 3.55 7.9 3.4 8.0 3.35 8.05 3.3 8.1 3.35 8.1 3.3 8.15 3.35 8.25 3.35 8.3 3.35 8.45 4.0 11.15 4.05 11.15 4.0 20.8 4.05 21.25 4.05 21.55 4.05 21.6 4.05 21.65 4.0 21.75 4.1 21.8 4.05 21.85 4.0 Q22.15 4.2 22.05 4.55 L21.95 4.6 21.95 4.65 22.0 4.6 Q22.35 4.65 22.55 4.95 L22.7 5.05 22.95 5.0 22.95 4.95 23.0 4.8 23.05 4.75 23.15 4.6 23.15 4.55 23.25 4.5 23.45 4.6 26.9 4.6 27.05 4.75 27.1 4.8 27.1 4.95 27.15 5.0 27.3 5.05 27.4 1.0 27.35 0.95 27.3 0.9 27.25 0.95 27.15 0.95 27.05 0.95 27.0 1.05 26.95 1.1 26.75 1.3 26.75 1.4 26.65 1.55 26.45 1.6 23.35 1.55 23.25 1.55 23.1 1.55 22.75 1.25 22.75 1.2 22.8 1.15 22.75 0.9 22.5 0.9 22.0 1.35 21.95 1.45 21.95 1.55 21.85 1.75 21.85 1.8 21.6 1.8 8.25 1.85 8.1 1.75 M26.05 3.5 L22.8 3.2 22.75 3.1 22.7 3.1 22.8 2.7 Q22.9 2.5 23.15 2.45 L23.15 2.4 23.2 2.35 23.25 2.35 24.0 2.2 26.9 2.65 26.95 2.7 27.0 2.75 26.95 2.8 26.95 2.85 26.9 3.0 26.45 3.3 26.2 3.35 26.2 3.4 26.2 3.45 26.05 3.5 M23.05 3.05 L23.05 3.1 26.45 3.0 26.5 2.9 26.55 2.9 Q26.35 2.65 25.75 2.6 L23.95 2.5 23.85 2.55 23.5 2.55 23.35 2.65 23.05 2.8 23.0 2.85 23.0 2.95 23.05 3.05 M20.75 4.3 L20.7 4.3 20.75 4.3" fill="#000000" fill-rule="evenodd" stroke="none"/>
      <path d="M8.1 1.75 L8.25 1.85 21.6 1.8 21.85 1.8 21.85 1.75 21.95 1.55 21.95 1.45 22.0 1.35 22.5 0.9 22.75 0.9 22.8 1.15 22.75 1.2 22.75 1.25 23.1 1.55 23.25 1.55 23.35 1.55 26.45 1.6 26.65 1.55 26.75 1.4 26.75 1.3 26.95 1.1 27.0 1.05 27.05 0.95 27.15 0.95 27.25 0.95 27.3 0.9 27.35 0.95 27.4 1.0 27.3 5.05 27.15 5.0 27.1 4.95 27.1 4.8 27.05 4.75 26.9 4.6 23.45 4.6 23.25 4.5 23.15 4.55 23.15 4.6 23.05 4.75 23.0 4.8 22.95 4.95 22.95 5.0 22.7 5.05 22.55 4.95 Q22.35 4.65 22.0 4.6 L21.95 4.65 21.95 4.6 22.05 4.55 Q22.15 4.2 21.85 4.0 L21.8 4.05 21.75 4.1 21.65 4.0 21.6 4.05 21.55 4.05 21.25 4.05 20.8 4.05 11.15 4.0 11.15 4.05 8.45 4.0 8.3 3.35 8.25 3.35 8.15 3.35 8.1 3.3 8.1 3.35 8.05 3.3 8.0 3.35 7.9 3.4 7.9 3.55 7.9 4.0 Q7.55 3.95 7.3 4.2 L7.15 4.15 7.1 2.75 7.2 1.8 8.1 1.75 M19.1 2.15 L18.5 2.15 18.15 2.1 18.15 2.15 18.1 2.15 8.5 2.1 8.5 2.15 8.35 2.25 8.35 2.3 8.5 2.4 18.05 2.35 18.4 2.45 18.65 2.4 18.65 2.35 19.4 2.35 19.4 2.4 19.65 2.45 19.7 2.4 19.7 2.35 19.9 2.35 19.9 2.5 Q20.05 2.7 20.2 2.5 L20.2 2.45 20.35 2.6 20.4 2.55 20.6 2.5 20.85 2.5 20.95 2.5 21.0 2.5 21.15 2.5 21.3 2.55 21.55 2.5 22.0 2.45 22.05 2.4 22.2 2.3 22.2 2.2 22.25 2.15 22.3 1.95 22.5 1.95 22.55 1.95 22.65 1.85 22.75 1.65 22.75 1.45 22.7 1.45 Q22.6 1.3 22.4 1.3 L22.35 1.35 22.05 1.5 22.0 1.65 22.05 1.8 21.9 2.0 21.9 2.1 21.85 2.1 21.8 2.15 21.5 2.15 21.4 2.1 21.35 2.15 21.3 2.15 21.2 2.1 21.15 2.15 21.15 2.1 19.25 1.95 19.1 2.1 19.1 2.15 M20.2 2.4 L20.2 2.35 20.25 2.35 20.2 2.4 M26.2 3.45 L26.2 3.4 26.2 3.35 26.45 3.3 26.9 3.0 26.95 2.85 26.95 2.8 27.0 2.75 26.95 2.7 26.9 2.65 24.0 2.2 23.25 2.35 23.2 2.35 23.15 2.4 23.15 2.45 Q22.9 2.5 22.8 2.7 L22.7 3.1 22.75 3.1 22.8 3.2 26.05 3.5 25.1 3.75 Q26.05 4.0 26.9 3.35 L26.75 3.2 26.2 3.45 M25.3 2.05 L25.3 2.1 25.45 2.15 26.9 2.1 27.0 2.1 27.05 2.0 27.15 1.5 27.15 1.45 27.05 1.4 27.0 1.45 26.75 1.85 26.75 1.9 26.05 1.9 26.1 1.85 25.95 1.7 Q25.45 1.75 25.1 1.95 L25.3 2.05" fill="#333333" fill-rule="evenodd" stroke="none"/>
      <path d="M22.3 1.95 L22.25 2.15 22.2 2.2 22.2 2.3 22.05 2.4 22.0 2.45 21.55 2.5 21.3 2.55 21.15 2.5 21.0 2.5 20.95 2.5 20.85 2.5 20.6 2.5 20.4 2.55 20.35 2.6 20.2 2.45 20.2 2.5 Q20.05 2.7 19.9 2.5 L19.9 2.35 19.7 2.35 19.7 2.4 19.65 2.45 19.4 2.4 19.4 2.35 18.65 2.35 18.65 2.4 18.4 2.45 18.05 2.35 8.5 2.4 8.35 2.3 8.35 2.25 8.5 2.15 8.5 2.1 18.1 2.15 18.15 2.15 18.15 2.1 18.5 2.15 19.1 2.15 21.15 2.3 21.2 2.2 21.15 2.15 21.2 2.1 21.3 2.15 21.35 2.15 21.4 2.1 21.5 2.15 21.8 2.15 21.85 2.1 21.9 2.1 21.9 2.0 22.05 1.8 22.3 1.95 M20.2 2.4 L20.25 2.35 20.2 2.35 20.2 2.4 M26.05 1.9 L26.75 1.9 26.75 1.85 27.0 1.45 27.05 1.4 27.15 1.45 27.15 1.5 27.05 2.0 27.0 2.1 26.9 2.1 25.45 2.15 25.3 2.1 25.3 2.05 26.05 1.9" fill="#c1c1c1" fill-rule="evenodd" stroke="none"/>
      <path d="M19.1 2.15 L19.1 2.1 19.25 1.95 21.15 2.1 21.15 2.15 21.2 2.2 21.15 2.3 19.1 2.15 M22.05 1.8 L22.0 1.65 22.05 1.5 22.35 1.35 22.4 1.3 Q22.6 1.3 22.7 1.45 L22.75 1.45 22.75 1.65 22.65 1.85 22.55 1.95 22.5 1.95 22.3 1.95 22.05 1.8 M26.2 3.45 L26.75 3.2 26.9 3.35 Q26.05 4.0 25.1 3.75 L26.05 3.5 26.2 3.45 M25.3 2.05 L25.1 1.95 Q25.45 1.75 25.95 1.7 L26.1 1.85 26.05 1.9 25.3 2.05" fill="#fcfcfc" fill-rule="evenodd" stroke="none"/>
    </g>
    <g id="shape2" transform="matrix(1.0, 0.0, 0.0, 1.0, 9.15, 7.05)">
      <path d="M5.9 -6.7 L6.1 -6.2 6.35 -5.7 6.5 -5.65 6.85 -5.2 6.85 -4.75 6.9 -4.7 8.8 -4.7 8.95 -4.75 9.05 -4.55 9.1 -4.35 9.0 -3.75 9.0 5.3 7.15 5.3 7.1 5.45 6.15 7.05 -2.05 7.05 -2.5 7.0 -3.25 7.05 -3.7 6.6 -6.4 6.6 -6.65 6.6 -7.2 6.3 -7.4 5.7 -7.5 5.4 -7.6 5.2 -7.8 4.7 -7.8 4.55 -8.75 4.55 -9.0 4.6 -9.0 4.55 -9.05 4.4 -9.0 4.35 -9.15 -3.2 -9.15 -3.3 -9.0 -3.5 -8.8 -3.5 -7.9 -3.5 -7.9 -3.7 Q-7.6 -4.25 -7.4 -5.25 L-7.2 -6.05 -6.75 -6.55 -6.75 -6.6 -3.6 -6.55 -3.35 -6.75 -3.3 -6.85 4.5 -6.85 4.85 -6.95 5.5 -6.9 5.5 -7.05 5.9 -6.7 M6.6 5.4 L6.55 5.35 6.55 -4.6 6.35 -4.95 6.15 -5.0 6.15 -5.2 6.0 -5.4 5.8 -5.85 5.5 -6.6 4.8 -6.6 4.8 -6.5 -3.0 -6.45 -3.2 -6.45 -4.5 -5.0 -5.9 -3.3 -6.0 -3.3 -6.0 -3.2 -8.75 -3.1 -8.75 4.25 -5.45 4.25 -5.4 4.3 -4.7 4.95 -3.7 6.05 -3.45 6.3 -3.4 6.35 -3.1 6.7 5.8 6.7 5.8 6.85 6.45 5.85 6.65 5.45 6.65 5.4 6.6 5.4 M0.8 -1.2 L-2.3 -0.9 -3.95 -0.8 -5.25 -0.85 -5.25 -0.65 -5.15 -0.15 -5.15 1.0 -5.05 1.0 -2.65 1.0 1.25 1.3 2.25 1.7 Q2.7 1.7 2.55 1.85 2.4 1.95 2.6 1.95 L2.9 2.0 3.4 2.2 3.95 2.45 4.05 0.1 3.85 -2.0 1.6 -1.4 0.8 -1.2 M2.25 -0.55 L2.5 -0.55 2.6 -0.1 2.6 0.5 2.45 0.55 2.25 0.1 2.1 -0.35 2.25 -0.55 M-4.45 -1.2 L-2.3 -1.2 -0.25 -1.45 1.65 -1.75 2.25 -1.95 3.15 -2.1 3.35 -2.2 -6.7 -2.2 -5.5 -1.1 -5.5 -1.25 -5.2 -1.25 -4.5 -1.15 -3.95 -1.15 -4.45 -1.2 M4.05 -2.45 L4.1 -2.45 4.35 -1.05 4.25 2.6 4.25 2.8 4.25 2.95 -6.55 3.05 -6.85 2.95 -6.9 2.95 -7.2 3.1 -7.2 -2.45 -7.05 -2.35 -6.65 -2.55 3.85 -2.5 3.9 -2.45 4.05 -2.5 4.05 -2.45 M8.6 -4.4 L6.85 -4.4 6.85 4.9 7.05 4.95 7.1 4.9 7.1 4.95 8.75 5.0 8.7 -3.6 8.6 -4.3 8.6 -4.4 M8.2 -3.7 L7.15 -3.7 7.1 -3.75 7.1 -4.0 7.5 -4.05 8.2 -4.0 8.25 -3.85 8.2 -3.7 M8.1 -1.05 L7.7 -0.95 Q7.35 -0.95 7.35 -1.15 7.35 -1.35 7.75 -1.35 L8.1 -1.05 M8.1 1.6 L8.15 1.75 7.8 1.95 7.45 1.95 7.4 1.8 Q7.4 1.45 7.85 1.6 L8.1 1.6 M7.25 4.2 L8.1 4.2 8.15 4.35 Q8.15 4.55 7.7 4.55 L7.25 4.45 7.25 4.2 M3.1 2.4 L2.45 2.2 1.9 1.95 0.25 1.55 -0.55 1.4 -5.15 1.35 -5.2 1.35 -6.05 2.2 -6.45 2.65 3.7 2.65 3.1 2.4 M-7.15 -4.9 L-7.4 -4.1 -7.55 -3.5 -6.2 -3.5 -6.15 -3.65 -5.85 -3.9 -5.45 -4.4 Q-5.05 -4.65 -4.8 -5.2 L-3.95 -6.0 -3.75 -6.25 -6.5 -6.3 -6.75 -6.05 -6.95 -5.65 -7.15 -4.9 M-6.4 -1.5 L-6.85 -1.85 -6.9 -1.15 -6.9 1.8 -6.85 2.55 -6.7 2.3 -5.7 1.45 -5.5 1.2 -5.55 -0.7 -6.4 -1.5 M-4.85 5.3 L-5.7 4.55 -7.4 4.55 -7.1 5.4 -6.9 6.0 Q-6.75 6.35 -5.95 6.2 L-5.9 6.3 -4.0 6.3 -4.15 6.2 -4.5 5.7 -4.85 5.3" fill="#000000" fill-rule="evenodd" stroke="none"/>
      <path d="M6.65 5.45 L6.45 5.85 5.8 6.85 5.8 6.7 -3.1 6.7 -3.4 6.35 -3.45 6.3 -3.7 6.05 -4.7 4.95 -5.4 4.3 -5.45 4.25 -8.75 4.25 -8.75 -3.1 -6.0 -3.2 -6.0 -3.3 -5.9 -3.3 -4.5 -5.0 -3.2 -6.45 -3.0 -6.45 4.8 -6.5 4.8 -6.6 5.5 -6.6 5.8 -5.85 6.0 -5.4 6.15 -5.2 6.15 -5.0 6.35 -4.95 6.55 -4.6 6.55 5.35 6.6 5.4 6.65 5.45 M4.05 -2.45 L4.05 -2.5 3.9 -2.45 3.85 -2.5 -6.65 -2.55 -7.05 -2.35 -7.2 -2.45 -7.2 3.1 -6.9 2.95 -6.85 2.95 -6.55 3.05 4.25 2.95 4.25 2.8 4.25 2.6 4.35 -1.05 4.1 -2.45 4.05 -2.45" fill="#3e4d33" fill-rule="evenodd" stroke="none"/>
      <path d="M-7.15 -4.9 L-6.95 -5.65 -6.75 -6.05 -6.5 -6.3 -3.75 -6.25 -3.95 -6.0 -4.8 -5.2 Q-5.05 -4.65 -5.45 -4.4 L-5.85 -3.9 -6.15 -3.65 -6.2 -3.5 -7.55 -3.5 -7.4 -4.1 -7.15 -4.9 M-4.85 5.3 L-4.5 5.7 -4.15 6.2 -4.0 6.3 -5.9 6.3 -5.95 6.2 Q-6.75 6.35 -6.9 6.0 L-7.1 5.4 -7.4 4.55 -5.7 4.55 -4.85 5.3" fill="#6b623f" fill-rule="evenodd" stroke="none"/>
      <path d="M-4.5 -1.15 L-5.2 -1.25 -5.5 -1.25 -5.5 -1.1 -6.7 -2.2 3.35 -2.2 3.15 -2.1 2.25 -1.95 1.65 -1.75 -0.25 -1.45 -2.3 -1.2 -4.45 -1.2 -4.5 -1.15 M2.25 -0.55 L2.1 -0.35 2.25 0.1 2.45 0.55 2.6 0.5 2.6 -0.1 2.5 -0.55 2.25 -0.55 M0.8 -1.2 L1.6 -1.4 3.85 -2.0 4.05 0.1 3.95 2.45 3.4 2.2 2.9 2.0 2.6 1.95 Q2.4 1.95 2.55 1.85 2.7 1.7 2.25 1.7 L1.25 1.3 -2.65 1.0 -5.05 1.0 -5.15 1.0 -5.15 -0.15 -5.25 -0.65 -5.25 -0.85 -3.95 -0.8 -2.3 -0.9 0.8 -1.2" fill="#8ca77a" fill-rule="evenodd" stroke="none"/>
      <path d="M3.1 2.4 L3.7 2.65 -6.45 2.65 -6.05 2.2 -5.2 1.35 -5.15 1.35 -0.55 1.4 0.25 1.55 1.9 1.95 2.45 2.2 3.1 2.4 M-6.4 -1.5 L-5.55 -0.7 -5.5 1.2 -5.7 1.45 -6.7 2.3 -6.85 2.55 -6.9 1.8 -6.9 -1.15 -6.85 -1.85 -6.4 -1.5" fill="#668055" fill-rule="evenodd" stroke="none"/>
      <path d="M7.25 4.2 L7.25 4.45 7.7 4.55 Q8.15 4.55 8.15 4.35 L8.1 4.2 7.25 4.2 M8.1 1.6 L7.85 1.6 Q7.4 1.45 7.4 1.8 L7.45 1.95 7.8 1.95 8.15 1.75 8.1 1.6 M8.1 -1.05 L7.75 -1.35 Q7.35 -1.35 7.35 -1.15 7.35 -0.95 7.7 -0.95 L8.1 -1.05 M8.2 -3.7 L8.25 -3.85 8.2 -4.0 7.5 -4.05 7.1 -4.0 7.1 -3.75 7.15 -3.7 8.2 -3.7 M8.6 -4.4 L8.6 -4.3 8.7 -3.6 8.75 5.0 7.1 4.95 7.1 4.9 7.05 4.95 6.85 4.9 6.85 -4.4 8.6 -4.4" fill="#999999" fill-rule="evenodd" stroke="none"/>
    </g>
  </defs>
</svg>
