<?xml version="1.0" encoding="UTF-8" standalone="no"?>
<svg xmlns:xlink="http://www.w3.org/1999/xlink" height="170.4px" width="341.4px" xmlns="http://www.w3.org/2000/svg">
  <g transform="matrix(6.0, 0.0, 0.0, 6.0, 54.9, 86.7)">
    <use height="5.1" transform="matrix(1.0, 0.0, 0.0, 1.0, 5.55, -4.8)" width="20.9" xlink:href="#shape0"/>
    <use height="5.1" transform="matrix(1.0, 0.0, 0.0, 1.0, 6.75, 0.3)" width="20.9" xlink:href="#shape1"/>
    <use height="14.1" transform="matrix(1.0, 0.0, 0.0, 1.0, -9.15, -7.05)" width="18.25" xlink:href="#shape2"/>
    <use height="7.05" transform="matrix(1.0, 0.0, 0.0, 1.0, 27.6, -5.5)" width="13.35" xlink:href="#sprite0"/>
  </g>
  <defs>
    <g id="shape0" transform="matrix(1.0, 0.0, 0.0, 1.0, 0.05, 4.8)">
      <path d="M0.1 -3.25 L0.15 -3.6 1.0 -3.7 1.0 -3.8 1.05 -3.85 1.1 -3.85 Q1.05 -4.4 1.25 -4.75 L1.25 -4.8 1.3 -4.75 1.35 -4.7 1.4 -3.8 1.5 -3.7 1.55 -3.7 1.75 -3.65 1.8 -3.6 1.85 -3.6 1.85 -3.55 14.75 -3.5 14.75 -3.65 14.65 -3.65 14.7 -3.75 14.8 -3.95 15.45 -4.45 15.5 -4.45 15.6 -4.55 16.1 -4.5 16.2 -4.5 16.2 -4.45 16.25 -4.4 16.35 -4.4 16.4 -4.15 16.3 -4.15 16.35 -4.1 16.45 -4.1 16.7 -3.85 16.6 -3.85 16.55 -3.8 16.6 -3.8 16.8 -3.8 17.6 -3.75 18.15 -3.75 19.1 -3.75 19.2 -3.75 19.6 -3.75 19.2 -3.75 19.2 -3.8 19.75 -4.0 19.85 -4.1 19.9 -4.15 20.15 -4.5 20.55 -4.45 20.6 -4.45 20.7 -4.4 20.75 -4.2 20.75 -4.15 20.75 0.05 20.85 0.1 20.75 0.15 20.75 0.2 20.6 0.25 19.95 0.05 20.0 -0.05 20.0 -0.15 16.5 -0.2 16.45 0.0 16.45 0.05 16.45 0.15 15.75 0.25 15.7 0.2 15.6 0.1 15.55 0.05 15.5 0.05 15.45 0.0 15.45 -0.1 15.1 -0.3 15.0 -0.3 14.85 -0.3 14.75 -0.5 14.75 -0.55 14.7 -0.55 14.55 -0.65 13.9 -0.8 13.75 -0.8 13.65 -0.75 13.45 -0.85 12.85 -0.8 12.85 -0.85 12.55 -0.85 4.25 -0.8 1.6 -0.8 1.55 -0.7 1.45 -0.65 1.4 -0.05 1.4 0.0 1.2 0.0 1.2 -0.3 1.1 -0.35 1.1 -0.45 1.15 -0.5 1.15 -0.6 0.2 -0.65 Q-0.2 -1.4 0.0 -2.3 L0.1 -3.25 M1.3 -3.35 L0.4 -3.3 0.3 -2.35 Q0.2 -1.6 0.35 -0.95 L0.5 -0.9 1.1 -1.1 1.1 -1.55 1.1 -1.7 1.2 -1.75 1.25 -1.8 1.3 -1.75 1.3 -1.8 1.35 -1.75 1.45 -1.75 1.5 -1.75 1.65 -1.1 4.35 -1.05 4.35 -1.1 14.0 -1.05 14.45 -1.05 14.75 -1.05 14.8 -1.05 14.85 -1.1 14.95 -1.0 15.0 -1.05 15.05 -1.1 Q15.35 -0.9 15.25 -0.55 L15.15 -0.5 15.15 -0.45 15.2 -0.5 15.75 -0.15 15.9 -0.05 16.15 -0.1 16.15 -0.15 16.2 -0.3 16.25 -0.35 16.35 -0.5 16.35 -0.55 16.45 -0.6 16.65 -0.5 20.1 -0.5 20.25 -0.35 20.3 -0.3 20.3 -0.15 20.35 -0.1 20.5 -0.05 20.6 -4.1 20.55 -4.15 20.5 -4.2 20.45 -4.15 20.35 -4.15 20.25 -4.15 20.2 -4.05 20.15 -4.0 19.95 -3.8 19.95 -3.7 19.85 -3.55 19.65 -3.5 16.55 -3.55 16.45 -3.55 16.3 -3.55 15.95 -3.85 15.95 -3.9 16.0 -3.95 15.95 -4.2 15.7 -4.2 Q15.65 -3.95 15.2 -3.75 L15.15 -3.65 15.15 -3.55 15.05 -3.35 15.05 -3.3 14.8 -3.3 1.45 -3.25 1.3 -3.35 M19.25 -1.6 L16.0 -1.9 15.95 -2.0 15.9 -2.0 16.0 -2.4 16.35 -2.65 16.35 -2.7 16.4 -2.75 16.45 -2.75 17.2 -2.9 20.1 -2.45 20.15 -2.4 20.2 -2.35 20.15 -2.3 20.15 -2.25 20.1 -2.1 19.65 -1.8 19.4 -1.75 19.4 -1.7 19.4 -1.65 19.25 -1.6 M16.25 -2.05 L16.25 -2.0 19.65 -2.1 19.7 -2.2 19.75 -2.2 Q19.55 -2.45 18.95 -2.5 L17.15 -2.6 17.05 -2.55 16.7 -2.55 16.55 -2.45 16.25 -2.3 16.2 -2.25 16.2 -2.15 16.25 -2.05 M13.95 -0.8 L13.9 -0.8 13.95 -0.8" fill="#000000" fill-rule="evenodd" stroke="none"/>
      <path d="M1.3 -3.35 L1.45 -3.25 14.8 -3.3 15.05 -3.3 15.05 -3.35 15.15 -3.55 15.15 -3.65 15.2 -3.75 Q15.65 -3.95 15.7 -4.2 L15.95 -4.2 16.0 -3.95 15.95 -3.9 15.95 -3.85 16.3 -3.55 16.45 -3.55 16.55 -3.55 19.65 -3.5 19.85 -3.55 19.95 -3.7 19.95 -3.8 20.15 -4.0 20.2 -4.05 20.25 -4.15 20.35 -4.15 20.45 -4.15 20.5 -4.2 20.55 -4.15 20.6 -4.1 20.5 -0.05 20.35 -0.1 20.3 -0.15 20.3 -0.3 20.25 -0.35 20.1 -0.5 16.65 -0.5 16.45 -0.6 16.35 -0.55 16.35 -0.5 16.25 -0.35 16.2 -0.3 16.15 -0.15 16.15 -0.1 15.9 -0.05 15.75 -0.15 15.2 -0.5 15.15 -0.45 15.15 -0.5 15.25 -0.55 Q15.35 -0.9 15.05 -1.1 L15.0 -1.05 14.95 -1.0 14.85 -1.1 14.8 -1.05 14.75 -1.05 14.45 -1.05 14.0 -1.05 4.35 -1.1 4.35 -1.05 1.65 -1.1 1.5 -1.75 1.45 -1.75 1.35 -1.75 1.3 -1.8 1.3 -1.75 1.25 -1.8 1.2 -1.75 1.1 -1.7 1.1 -1.55 1.1 -1.1 0.5 -0.9 0.35 -0.95 Q0.2 -1.6 0.3 -2.35 L0.4 -3.3 1.3 -3.35 M12.3 -2.95 L11.7 -2.95 11.35 -3.0 11.35 -2.95 11.3 -2.95 1.7 -3.0 1.7 -2.95 Q1.6 -3.0 1.55 -2.85 L1.55 -2.8 1.7 -2.7 11.25 -2.75 11.6 -2.65 Q11.7 -2.5 11.85 -2.7 L11.85 -2.75 12.6 -2.75 12.6 -2.7 12.85 -2.65 12.9 -2.7 12.9 -2.75 13.1 -2.75 13.1 -2.6 Q13.25 -2.4 13.4 -2.6 L13.4 -2.65 13.55 -2.5 13.6 -2.55 13.8 -2.6 14.05 -2.6 14.15 -2.6 14.2 -2.6 14.35 -2.6 14.5 -2.55 14.75 -2.6 15.2 -2.65 15.25 -2.7 15.4 -2.8 15.4 -2.9 15.45 -2.95 15.5 -3.15 15.7 -3.15 15.75 -3.15 15.85 -3.25 15.95 -3.45 15.95 -3.65 15.9 -3.65 15.6 -3.8 15.55 -3.75 15.25 -3.6 15.2 -3.45 15.25 -3.3 15.1 -3.1 15.1 -3.0 15.05 -3.0 15.0 -2.95 14.7 -2.95 14.6 -3.0 14.55 -2.95 14.5 -2.95 14.4 -3.0 14.35 -2.95 14.35 -3.0 12.45 -3.15 12.3 -3.0 12.3 -2.95 M13.4 -2.7 L13.4 -2.75 13.45 -2.75 13.4 -2.7 M19.4 -1.65 L19.4 -1.7 19.4 -1.75 19.65 -1.8 20.1 -2.1 20.15 -2.25 20.15 -2.3 20.2 -2.35 20.15 -2.4 20.1 -2.45 17.2 -2.9 16.45 -2.75 16.4 -2.75 16.35 -2.7 16.35 -2.65 16.0 -2.4 15.9 -2.0 15.95 -2.0 16.0 -1.9 19.25 -1.6 18.3 -1.35 Q19.25 -1.1 20.1 -1.75 L19.95 -1.9 19.4 -1.65 M18.5 -3.05 L18.5 -3.0 18.65 -2.95 20.1 -3.0 20.2 -3.0 20.25 -3.1 20.35 -3.6 20.35 -3.65 20.25 -3.7 20.2 -3.65 19.95 -3.25 19.95 -3.2 19.25 -3.2 19.3 -3.25 19.15 -3.4 18.3 -3.15 18.5 -3.05" fill="#333333" fill-rule="evenodd" stroke="none"/>
      <path d="M15.5 -3.15 L15.45 -2.95 15.4 -2.9 15.4 -2.8 15.25 -2.7 15.2 -2.65 14.75 -2.6 14.5 -2.55 14.35 -2.6 14.2 -2.6 14.15 -2.6 14.05 -2.6 13.8 -2.6 13.6 -2.55 13.55 -2.5 13.4 -2.65 13.4 -2.6 Q13.25 -2.4 13.1 -2.6 L13.1 -2.75 12.9 -2.75 12.9 -2.7 12.85 -2.65 12.6 -2.7 12.6 -2.75 11.85 -2.75 11.85 -2.7 Q11.7 -2.5 11.6 -2.65 L11.25 -2.75 1.7 -2.7 1.55 -2.8 1.55 -2.85 Q1.6 -3.0 1.7 -2.95 L1.7 -3.0 11.3 -2.95 11.35 -2.95 11.35 -3.0 11.7 -2.95 12.3 -2.95 14.35 -2.8 14.4 -2.9 14.35 -2.95 14.4 -3.0 14.5 -2.95 14.55 -2.95 14.6 -3.0 14.7 -2.95 15.0 -2.95 15.05 -3.0 15.1 -3.0 15.1 -3.1 15.25 -3.3 15.5 -3.15 M13.4 -2.7 L13.45 -2.75 13.4 -2.75 13.4 -2.7 M19.25 -3.2 L19.95 -3.2 19.95 -3.25 20.2 -3.65 20.25 -3.7 20.35 -3.65 20.35 -3.6 20.25 -3.1 20.2 -3.0 20.1 -3.0 18.65 -2.95 18.5 -3.0 18.5 -3.05 19.25 -3.2" fill="#c1c1c1" fill-rule="evenodd" stroke="none"/>
      <path d="M12.3 -2.95 L12.3 -3.0 12.45 -3.15 14.35 -3.0 14.35 -2.95 14.4 -2.9 14.35 -2.8 12.3 -2.95 M15.25 -3.3 L15.2 -3.45 15.25 -3.6 15.55 -3.75 15.6 -3.8 15.9 -3.65 15.95 -3.65 15.95 -3.45 15.85 -3.25 15.75 -3.15 15.7 -3.15 15.5 -3.15 15.25 -3.3 M19.4 -1.65 L19.95 -1.9 20.1 -1.75 Q19.25 -1.1 18.3 -1.35 L19.25 -1.6 19.4 -1.65 M18.5 -3.05 L18.3 -3.15 19.15 -3.4 19.3 -3.25 19.25 -3.2 18.5 -3.05" fill="#fcfcfc" fill-rule="evenodd" stroke="none"/>
    </g>
    <g id="shape1" transform="matrix(1.0, 0.0, 0.0, 1.0, -6.75, -0.3)">
      <path d="M6.9 1.85 L6.95 1.5 7.8 1.4 7.8 1.3 7.85 1.25 7.9 1.25 Q7.85 0.7 8.05 0.35 L8.05 0.3 8.1 0.35 8.15 0.4 8.2 1.3 8.3 1.4 8.35 1.4 8.55 1.45 8.6 1.5 8.65 1.5 8.65 1.55 21.55 1.6 21.55 1.45 21.45 1.45 21.5 1.35 21.6 1.15 Q22.0 1.0 22.25 0.65 L22.3 0.65 22.4 0.55 22.9 0.6 23.0 0.6 23.0 0.65 23.05 0.7 23.15 0.7 23.2 0.95 23.1 0.95 23.15 1.0 23.25 1.0 23.5 1.25 23.4 1.25 23.35 1.3 23.4 1.3 23.6 1.3 24.4 1.35 24.95 1.35 25.9 1.35 26.0 1.35 26.4 1.35 26.0 1.35 26.0 1.3 26.55 1.1 26.65 1.0 26.7 0.95 26.95 0.6 27.35 0.65 27.4 0.65 27.5 0.7 27.55 0.9 27.55 0.95 27.55 5.15 27.65 5.2 27.55 5.25 27.55 5.3 27.4 5.35 26.75 5.15 26.8 5.05 26.8 4.95 23.3 4.9 23.25 5.1 23.25 5.15 23.25 5.25 22.55 5.35 22.5 5.3 22.4 5.2 22.35 5.15 22.3 5.15 22.25 5.1 22.25 5.0 21.9 4.8 21.8 4.8 21.65 4.8 21.55 4.6 21.55 4.55 21.5 4.55 21.35 4.45 20.7 4.3 20.55 4.3 20.45 4.35 20.25 4.25 19.65 4.3 19.65 4.25 19.35 4.25 11.05 4.3 8.4 4.3 8.35 4.4 8.25 4.45 8.2 5.05 8.2 5.1 8.0 5.1 8.0 4.8 7.9 4.75 7.9 4.65 7.95 4.6 7.95 4.5 7.0 4.45 Q6.6 3.7 6.8 2.8 L6.9 1.85 M8.1 1.75 L7.2 1.8 7.1 2.75 7.15 4.15 7.3 4.2 Q7.55 3.95 7.9 4.0 L7.9 3.55 7.9 3.4 8.0 3.35 8.05 3.3 8.1 3.35 8.1 3.3 8.15 3.35 8.25 3.35 8.3 3.35 8.45 4.0 11.15 4.05 11.15 4.0 20.8 4.05 21.25 4.05 21.55 4.05 21.6 4.05 21.65 4.0 21.75 4.1 21.8 4.05 21.85 4.0 Q22.15 4.2 22.05 4.55 L21.95 4.6 21.95 4.65 22.0 4.6 Q22.35 4.65 22.55 4.95 L22.7 5.05 22.95 5.0 22.95 4.95 23.0 4.8 23.05 4.75 23.15 4.6 23.15 4.55 23.25 4.5 23.45 4.6 26.9 4.6 27.05 4.75 27.1 4.8 27.1 4.95 27.15 5.0 27.3 5.05 27.4 1.0 27.35 0.95 27.3 0.9 27.25 0.95 27.15 0.95 27.05 0.95 27.0 1.05 26.95 1.1 26.75 1.3 26.75 1.4 26.65 1.55 26.45 1.6 23.35 1.55 23.25 1.55 23.1 1.55 22.75 1.25 22.75 1.2 22.8 1.15 22.75 0.9 22.5 0.9 22.0 1.35 21.95 1.45 21.95 1.55 21.85 1.75 21.85 1.8 21.6 1.8 8.25 1.85 8.1 1.75 M26.05 3.5 L22.8 3.2 22.75 3.1 22.7 3.1 22.8 2.7 Q22.9 2.5 23.15 2.45 L23.15 2.4 23.2 2.35 23.25 2.35 24.0 2.2 26.9 2.65 26.95 2.7 27.0 2.75 26.95 2.8 26.95 2.85 26.9 3.0 26.45 3.3 26.2 3.35 26.2 3.4 26.2 3.45 26.05 3.5 M23.05 3.05 L23.05 3.1 26.45 3.0 26.5 2.9 26.55 2.9 Q26.35 2.65 25.75 2.6 L23.95 2.5 23.85 2.55 23.5 2.55 23.35 2.65 23.05 2.8 23.0 2.85 23.0 2.95 23.05 3.05 M20.75 4.3 L20.7 4.3 20.75 4.3" fill="#000000" fill-rule="evenodd" stroke="none"/>
      <path d="M8.1 1.75 L8.25 1.85 21.6 1.8 21.85 1.8 21.85 1.75 21.95 1.55 21.95 1.45 22.0 1.35 22.5 0.9 22.75 0.9 22.8 1.15 22.75 1.2 22.75 1.25 23.1 1.55 23.25 1.55 23.35 1.55 26.45 1.6 26.65 1.55 26.75 1.4 26.75 1.3 26.95 1.1 27.0 1.05 27.05 0.95 27.15 0.95 27.25 0.95 27.3 0.9 27.35 0.95 27.4 1.0 27.3 5.05 27.15 5.0 27.1 4.95 27.1 4.8 27.05 4.75 26.9 4.6 23.45 4.6 23.25 4.5 23.15 4.55 23.15 4.6 23.05 4.75 23.0 4.8 22.95 4.95 22.95 5.0 22.7 5.05 22.55 4.95 Q22.35 4.65 22.0 4.6 L21.95 4.65 21.95 4.6 22.05 4.55 Q22.15 4.2 21.85 4.0 L21.8 4.05 21.75 4.1 21.65 4.0 21.6 4.05 21.55 4.05 21.25 4.05 20.8 4.05 11.15 4.0 11.15 4.05 8.45 4.0 8.3 3.35 8.25 3.35 8.15 3.35 8.1 3.3 8.1 3.35 8.05 3.3 8.0 3.35 7.9 3.4 7.9 3.55 7.9 4.0 Q7.55 3.95 7.3 4.2 L7.15 4.15 7.1 2.75 7.2 1.8 8.1 1.75 M19.1 2.15 L18.5 2.15 18.15 2.1 18.15 2.15 18.1 2.15 8.5 2.1 8.5 2.15 8.35 2.25 8.35 2.3 8.5 2.4 18.05 2.35 18.4 2.45 18.65 2.4 18.65 2.35 19.4 2.35 19.4 2.4 19.65 2.45 19.7 2.4 19.7 2.35 19.9 2.35 19.9 2.5 Q20.05 2.7 20.2 2.5 L20.2 2.45 20.35 2.6 20.4 2.55 20.6 2.5 20.85 2.5 20.95 2.5 21.0 2.5 21.15 2.5 21.3 2.55 21.55 2.5 22.0 2.45 22.05 2.4 22.2 2.3 22.2 2.2 22.25 2.15 22.3 1.95 22.5 1.95 22.55 1.95 22.65 1.85 22.75 1.65 22.75 1.45 22.7 1.45 Q22.6 1.3 22.4 1.3 L22.35 1.35 22.05 1.5 22.0 1.65 22.05 1.8 21.9 2.0 21.9 2.1 21.85 2.1 21.8 2.15 21.5 2.15 21.4 2.1 21.35 2.15 21.3 2.15 21.2 2.1 21.15 2.15 21.15 2.1 19.25 1.95 19.1 2.1 19.1 2.15 M20.2 2.4 L20.2 2.35 20.25 2.35 20.2 2.4 M26.2 3.45 L26.2 3.4 26.2 3.35 26.45 3.3 26.9 3.0 26.95 2.85 26.95 2.8 27.0 2.75 26.95 2.7 26.9 2.65 24.0 2.2 23.25 2.35 23.2 2.35 23.15 2.4 23.15 2.45 Q22.9 2.5 22.8 2.7 L22.7 3.1 22.75 3.1 22.8 3.2 26.05 3.5 25.1 3.75 Q26.05 4.0 26.9 3.35 L26.75 3.2 26.2 3.45 M25.3 2.05 L25.3 2.1 25.45 2.15 26.9 2.1 27.0 2.1 27.05 2.0 27.15 1.5 27.15 1.45 27.05 1.4 27.0 1.45 26.75 1.85 26.75 1.9 26.05 1.9 26.1 1.85 25.95 1.7 Q25.45 1.75 25.1 1.95 L25.3 2.05" fill="#333333" fill-rule="evenodd" stroke="none"/>
      <path d="M22.3 1.95 L22.25 2.15 22.2 2.2 22.2 2.3 22.05 2.4 22.0 2.45 21.55 2.5 21.3 2.55 21.15 2.5 21.0 2.5 20.95 2.5 20.85 2.5 20.6 2.5 20.4 2.55 20.35 2.6 20.2 2.45 20.2 2.5 Q20.05 2.7 19.9 2.5 L19.9 2.35 19.7 2.35 19.7 2.4 19.65 2.45 19.4 2.4 19.4 2.35 18.65 2.35 18.65 2.4 18.4 2.45 18.05 2.35 8.5 2.4 8.35 2.3 8.35 2.25 8.5 2.15 8.5 2.1 18.1 2.15 18.15 2.15 18.15 2.1 18.5 2.15 19.1 2.15 21.15 2.3 21.2 2.2 21.15 2.15 21.2 2.1 21.3 2.15 21.35 2.15 21.4 2.1 21.5 2.15 21.8 2.15 21.85 2.1 21.9 2.1 21.9 2.0 22.05 1.8 22.3 1.95 M20.2 2.4 L20.25 2.35 20.2 2.35 20.2 2.4 M26.05 1.9 L26.75 1.9 26.75 1.85 27.0 1.45 27.05 1.4 27.15 1.45 27.15 1.5 27.05 2.0 27.0 2.1 26.9 2.1 25.45 2.15 25.3 2.1 25.3 2.05 26.05 1.9" fill="#c1c1c1" fill-rule="evenodd" stroke="none"/>
      <path d="M19.1 2.15 L19.1 2.1 19.25 1.95 21.15 2.1 21.15 2.15 21.2 2.2 21.15 2.3 19.1 2.15 M22.05 1.8 L22.0 1.65 22.05 1.5 22.35 1.35 22.4 1.3 Q22.6 1.3 22.7 1.45 L22.75 1.45 22.75 1.65 22.65 1.85 22.55 1.95 22.5 1.95 22.3 1.95 22.05 1.8 M26.2 3.45 L26.75 3.2 26.9 3.35 Q26.05 4.0 25.1 3.75 L26.05 3.5 26.2 3.45 M25.3 2.05 L25.1 1.95 Q25.45 1.75 25.95 1.7 L26.1 1.85 26.05 1.9 25.3 2.05" fill="#fcfcfc" fill-rule="evenodd" stroke="none"/>
    </g>
    <g id="shape2" transform="matrix(1.0, 0.0, 0.0, 1.0, 9.15, 7.05)">
      <path d="M5.9 -6.7 L6.1 -6.2 6.35 -5.7 6.5 -5.65 6.85 -5.2 6.85 -4.75 6.9 -4.7 8.8 -4.7 8.95 -4.75 9.05 -4.55 9.1 -4.35 9.0 -3.75 9.0 5.3 7.15 5.3 7.1 5.45 6.15 7.05 -2.05 7.05 -2.5 7.0 -3.25 7.05 -3.7 6.6 -6.4 6.6 -6.65 6.6 -7.2 6.3 -7.4 5.7 -7.5 5.4 -7.6 5.2 -7.8 4.7 -7.8 4.55 -8.75 4.55 -9.0 4.6 -9.0 4.55 -9.05 4.4 -9.0 4.35 -9.15 -3.2 -9.15 -3.3 -9.0 -3.5 -8.8 -3.5 -7.9 -3.5 -7.9 -3.7 Q-7.6 -4.25 -7.4 -5.25 L-7.2 -6.05 -6.75 -6.55 -6.75 -6.6 -3.6 -6.55 -3.35 -6.75 -3.3 -6.85 4.5 -6.85 4.85 -6.95 5.5 -6.9 5.5 -7.05 5.9 -6.7 M6.6 5.4 L6.55 5.35 6.55 -4.6 6.35 -4.95 6.15 -5.0 6.15 -5.2 6.0 -5.4 5.8 -5.85 5.5 -6.6 4.8 -6.6 4.8 -6.5 -3.0 -6.45 -3.2 -6.45 -4.5 -5.0 -5.9 -3.3 -6.0 -3.3 -6.0 -3.2 -8.75 -3.1 -8.75 4.25 -5.45 4.25 -5.4 4.3 -4.7 4.95 -3.7 6.05 -3.45 6.3 -3.4 6.35 -3.1 6.7 5.8 6.7 5.8 6.85 6.45 5.85 6.65 5.45 6.65 5.4 6.6 5.4 M0.8 -1.2 L-2.3 -0.9 -3.95 -0.8 -5.25 -0.85 -5.25 -0.65 -5.15 -0.15 -5.15 1.0 -5.05 1.0 -2.65 1.0 1.25 1.3 2.25 1.7 Q2.7 1.7 2.55 1.85 2.4 1.95 2.6 1.95 L2.9 2.0 3.4 2.2 3.95 2.45 4.05 0.1 3.85 -2.0 1.6 -1.4 0.8 -1.2 M2.25 -0.55 L2.5 -0.55 2.6 -0.1 2.6 0.5 2.45 0.55 2.25 0.1 2.1 -0.35 2.25 -0.55 M-4.45 -1.2 L-2.3 -1.2 -0.25 -1.45 1.65 -1.75 2.25 -1.95 3.15 -2.1 3.35 -2.2 -6.7 -2.2 -5.5 -1.1 -5.5 -1.25 -5.2 -1.25 -4.5 -1.15 -3.95 -1.15 -4.45 -1.2 M4.05 -2.45 L4.1 -2.45 4.35 -1.05 4.25 2.6 4.25 2.8 4.25 2.95 -6.55 3.05 -6.85 2.95 -6.9 2.95 -7.2 3.1 -7.2 -2.45 -7.05 -2.35 -6.65 -2.55 3.85 -2.5 3.9 -2.45 4.05 -2.5 4.05 -2.45 M8.6 -4.4 L6.85 -4.4 6.85 4.9 7.05 4.95 7.1 4.9 7.1 4.95 8.75 5.0 8.7 -3.6 8.6 -4.3 8.6 -4.4 M8.2 -3.7 L7.15 -3.7 7.1 -3.75 7.1 -4.0 7.5 -4.05 8.2 -4.0 8.25 -3.85 8.2 -3.7 M8.1 -1.05 L7.7 -0.95 Q7.35 -0.95 7.35 -1.15 7.35 -1.35 7.75 -1.35 L8.1 -1.05 M8.1 1.6 L8.15 1.75 7.8 1.95 7.45 1.95 7.4 1.8 Q7.4 1.45 7.85 1.6 L8.1 1.6 M7.25 4.2 L8.1 4.2 8.15 4.35 Q8.15 4.55 7.7 4.55 L7.25 4.45 7.25 4.2 M3.1 2.4 L2.45 2.2 1.9 1.95 0.25 1.55 -0.55 1.4 -5.15 1.35 -5.2 1.35 -6.05 2.2 -6.45 2.65 3.7 2.65 3.1 2.4 M-7.15 -4.9 L-7.4 -4.1 -7.55 -3.5 -6.2 -3.5 -6.15 -3.65 -5.85 -3.9 -5.45 -4.4 Q-5.05 -4.65 -4.8 -5.2 L-3.95 -6.0 -3.75 -6.25 -6.5 -6.3 -6.75 -6.05 -6.95 -5.65 -7.15 -4.9 M-6.4 -1.5 L-6.85 -1.85 -6.9 -1.15 -6.9 1.8 -6.85 2.55 -6.7 2.3 -5.7 1.45 -5.5 1.2 -5.55 -0.7 -6.4 -1.5 M-4.85 5.3 L-5.7 4.55 -7.4 4.55 -7.1 5.4 -6.9 6.0 Q-6.75 6.35 -5.95 6.2 L-5.9 6.3 -4.0 6.3 -4.15 6.2 -4.5 5.7 -4.85 5.3" fill="#000000" fill-rule="evenodd" stroke="none"/>
      <path d="M6.65 5.45 L6.45 5.85 5.8 6.85 5.8 6.7 -3.1 6.7 -3.4 6.35 -3.45 6.3 -3.7 6.05 -4.7 4.95 -5.4 4.3 -5.45 4.25 -8.75 4.25 -8.75 -3.1 -6.0 -3.2 -6.0 -3.3 -5.9 -3.3 -4.5 -5.0 -3.2 -6.45 -3.0 -6.45 4.8 -6.5 4.8 -6.6 5.5 -6.6 5.8 -5.85 6.0 -5.4 6.15 -5.2 6.15 -5.0 6.35 -4.95 6.55 -4.6 6.55 5.35 6.6 5.4 6.65 5.45 M4.05 -2.45 L4.05 -2.5 3.9 -2.45 3.85 -2.5 -6.65 -2.55 -7.05 -2.35 -7.2 -2.45 -7.2 3.1 -6.9 2.95 -6.85 2.95 -6.55 3.05 4.25 2.95 4.25 2.8 4.25 2.6 4.35 -1.05 4.1 -2.45 4.05 -2.45" fill="#3e4d33" fill-rule="evenodd" stroke="none"/>
      <path d="M-7.15 -4.9 L-6.95 -5.65 -6.75 -6.05 -6.5 -6.3 -3.75 -6.25 -3.95 -6.0 -4.8 -5.2 Q-5.05 -4.65 -5.45 -4.4 L-5.85 -3.9 -6.15 -3.65 -6.2 -3.5 -7.55 -3.5 -7.4 -4.1 -7.15 -4.9 M-4.85 5.3 L-4.5 5.7 -4.15 6.2 -4.0 6.3 -5.9 6.3 -5.95 6.2 Q-6.75 6.35 -6.9 6.0 L-7.1 5.4 -7.4 4.55 -5.7 4.55 -4.85 5.3" fill="#6b623f" fill-rule="evenodd" stroke="none"/>
      <path d="M-4.5 -1.15 L-5.2 -1.25 -5.5 -1.25 -5.5 -1.1 -6.7 -2.2 3.35 -2.2 3.15 -2.1 2.25 -1.95 1.65 -1.75 -0.25 -1.45 -2.3 -1.2 -4.45 -1.2 -4.5 -1.15 M2.25 -0.55 L2.1 -0.35 2.25 0.1 2.45 0.55 2.6 0.5 2.6 -0.1 2.5 -0.55 2.25 -0.55 M0.8 -1.2 L1.6 -1.4 3.85 -2.0 4.05 0.1 3.95 2.45 3.4 2.2 2.9 2.0 2.6 1.95 Q2.4 1.95 2.55 1.85 2.7 1.7 2.25 1.7 L1.25 1.3 -2.65 1.0 -5.05 1.0 -5.15 1.0 -5.15 -0.15 -5.25 -0.65 -5.25 -0.85 -3.95 -0.8 -2.3 -0.9 0.8 -1.2" fill="#8ca77a" fill-rule="evenodd" stroke="none"/>
      <path d="M3.1 2.4 L3.7 2.65 -6.45 2.65 -6.05 2.2 -5.2 1.35 -5.15 1.35 -0.55 1.4 0.25 1.55 1.9 1.95 2.45 2.2 3.1 2.4 M-6.4 -1.5 L-5.55 -0.7 -5.5 1.2 -5.7 1.45 -6.7 2.3 -6.85 2.55 -6.9 1.8 -6.9 -1.15 -6.85 -1.85 -6.4 -1.5" fill="#668055" fill-rule="evenodd" stroke="none"/>
      <path d="M7.25 4.2 L7.25 4.45 7.7 4.55 Q8.15 4.55 8.15 4.35 L8.1 4.2 7.25 4.2 M8.1 1.6 L7.85 1.6 Q7.4 1.45 7.4 1.8 L7.45 1.95 7.8 1.95 8.15 1.75 8.1 1.6 M8.1 -1.05 L7.75 -1.35 Q7.35 -1.35 7.35 -1.15 7.35 -0.95 7.7 -0.95 L8.1 -1.05 M8.2 -3.7 L8.25 -3.85 8.2 -4.0 7.5 -4.05 7.1 -4.0 7.1 -3.75 7.15 -3.7 8.2 -3.7 M8.6 -4.4 L8.6 -4.3 8.7 -3.6 8.75 5.0 7.1 4.95 7.1 4.9 7.05 4.95 6.85 4.9 6.85 -4.4 8.6 -4.4" fill="#999999" fill-rule="evenodd" stroke="none"/>
    </g>
    <g id="sprite0" transform="matrix(1.0, 0.0, 0.0, 1.0, 0.0, 0.0)">
      <use height="7.05" transform="matrix(1.0, 0.0, 0.0, 1.0, 0.0, 0.0)" width="13.35" xlink:href="#shape3"/>
    </g>
    <g id="shape3" transform="matrix(1.0, 0.0, 0.0, 1.0, 0.0, 0.0)">
      <path d="M0.7 3.15 Q0.95 2.95 1.25 2.9 L3.35 1.8 3.75 1.1 3.55 0.85 3.5 0.85 3.6 0.7 3.65 0.7 3.8 0.75 3.85 0.7 4.05 0.65 4.1 0.65 5.5 0.95 7.05 0.95 7.0 0.9 7.05 0.85 7.1 0.8 7.15 0.75 Q7.8 0.8 8.3 0.25 L8.7 0.0 Q9.4 0.0 9.9 0.4 L10.1 0.3 10.4 0.2 Q12.7 0.65 13.25 2.9 13.75 4.75 12.25 5.8 L11.35 6.2 10.85 6.3 Q9.65 7.3 7.85 7.0 L6.6 6.7 6.55 6.65 6.65 6.65 6.6 6.6 Q5.3 7.05 3.95 6.2 L3.65 5.85 3.65 5.7 3.45 5.5 3.45 5.65 3.2 5.65 Q2.95 5.9 2.65 5.85 L2.55 5.75 2.55 5.7 3.55 4.95 3.6 4.9 Q2.05 4.0 0.3 3.9 L0.25 3.95 0.2 3.95 Q0.05 4.0 0.0 3.85 L0.25 3.55 0.2 3.5 0.2 3.45 0.45 3.25 0.45 3.2 0.7 3.15 M3.7 5.3 L3.65 5.35 3.85 5.5 3.85 5.4 3.8 5.35 3.7 5.3" fill="#cccccc" fill-opacity="0.0" fill-rule="evenodd" stroke="none"/>
    </g>
  </defs>
</svg>
