<?xml version="1.0" encoding="UTF-8" standalone="no"?>
<svg xmlns:xlink="http://www.w3.org/1999/xlink" height="415.5px" width="589.2px" xmlns="http://www.w3.org/2000/svg">
  <g transform="matrix(6.0, 0.0, 0.0, 6.0, 194.7, 403.2)">
    <use height="21.25" transform="matrix(0.9382, -0.3146, 0.3146, 0.9382, 5.4745, -26.0864)" width="16.15" xlink:href="#sprite0"/>
    <use height="10.7" transform="matrix(0.9728, 0.225, -0.225, 0.9728, 18.163, -12.8336)" width="6.15" xlink:href="#sprite1"/>
    <use height="6.8" transform="matrix(0.9978, -0.035, 0.035, 0.9978, 17.9105, -5.8308)" width="5.6" xlink:href="#sprite2"/>
    <use height="32.75" transform="matrix(0.9757, 0.2127, -0.2127, 0.9757, 9.3076, -53.657)" width="28.65" xlink:href="#sprite3"/>
    <use height="18.25" transform="matrix(0.9865, 0.157, -0.157, 0.9865, 6.4725, -39.0522)" width="21.75" xlink:href="#sprite4"/>
    <use height="21.25" transform="matrix(0.9913, -0.0791, 0.0791, 0.9913, 5.3837, -27.7421)" width="16.15" xlink:href="#sprite0"/>
    <use height="10.7" transform="matrix(0.9793, 0.1958, -0.1958, 0.9793, 14.0241, -12.3083)" width="6.15" xlink:href="#sprite1"/>
    <use height="6.8" transform="matrix(1.0, 0.0, 0.0, 1.0, 13.7, -4.75)" width="5.6" xlink:href="#sprite2"/>
    <use height="21.25" transform="matrix(0.9784, 0.1693, -0.1693, 0.9784, -23.656, -31.1423)" width="16.15" xlink:href="#sprite0"/>
    <use height="10.7" transform="matrix(-0.7224, 0.6879, 0.6879, 0.7224, -17.9772, -14.1302)" width="6.15" xlink:href="#sprite1"/>
    <use height="6.8" transform="matrix(1.0, 0.0, 0.0, 1.0, -16.35, -6.65)" width="5.6" xlink:href="#sprite2"/>
    <use height="21.25" transform="matrix(0.9387, 0.3238, -0.3238, 0.9387, -25.5804, -31.5229)" width="16.15" xlink:href="#sprite0"/>
    <use height="10.7" transform="matrix(-0.8889, 0.4537, 0.4537, 0.8889, -22.6607, -13.3452)" width="6.15" xlink:href="#sprite1"/>
    <use height="6.8" transform="matrix(1.0, 0.0, 0.0, 1.0, -23.65, -5.25)" width="5.6" xlink:href="#sprite2"/>
    <use height="34.6" transform="matrix(1.0, 0.0, 0.0, 1.0, -30.45, -43.95)" width="47.4" xlink:href="#sprite5"/>
    <use height="24.3" transform="matrix(0.9858, 0.1613, -0.1613, 0.9858, 12.3505, -55.2246)" width="19.8" xlink:href="#sprite6"/>
    <use height="10.05" transform="matrix(0.9819, 0.183, -0.183, 0.9819, 25.5843, -54.3802)" width="12.85" xlink:href="#sprite7"/>
    <use height="21.0" transform="matrix(0.9858, 0.1614, -0.1614, 0.9858, 32.1378, -53.9248)" width="14.5" xlink:href="#sprite8"/>
    <use height="13.55" transform="matrix(1.0, 0.0, 0.0, 1.0, -13.05, -41.0)" width="20.2" xlink:href="#sprite9"/>
    <use height="11.15" transform="matrix(1.0, 0.1726, 0.0, 1.0, 8.6502, -47.6878)" width="29.4" xlink:href="#sprite10"/>
    <use height="11.45" transform="matrix(0.5767, -0.8132, 0.8132, 0.5767, -2.59, -53.4068)" width="5.35" xlink:href="#sprite11"/>
    <use height="12.1" transform="matrix(1.0, 0.0, 0.0, 1.0, -1.95, -66.8)" width="8.75" xlink:href="#sprite12"/>
    <use height="6.55" transform="matrix(1.0, 0.0, 0.0, 1.0, 5.2, -51.05)" width="5.25" xlink:href="#sprite13"/>
    <use height="14.15" transform="matrix(0.7823, -0.6185, 0.6185, 0.7823, -5.8714, -41.7926)" width="7.65" xlink:href="#sprite14"/>
    <use height="20.4" transform="matrix(0.9248, 0.3745, -0.3745, 0.9248, 1.8238, -38.212)" width="11.4" xlink:href="#sprite15"/>
    <use height="16.45" transform="matrix(1.0788, 0.0, 0.0, 1.0, -13.9965, -46.9)" width="16.35" xlink:href="#sprite16"/>
    <use height="17.0" transform="matrix(0.9982, -0.0533, 0.0533, 0.9982, -6.9428, -59.4919)" width="10.95" xlink:href="#sprite17"/>
    <use height="83.95" transform="matrix(-0.113, 0.9907, -0.9907, -0.113, 63.93, -34.2585)" width="9.0" xlink:href="#sprite18"/>
    <use height="12.15" transform="matrix(0.803, 0.5907, -0.5907, 0.803, -1.6196, -59.4879)" width="7.55" xlink:href="#sprite19"/>
    <use height="14.95" transform="matrix(0.997, 0.0707, -0.0707, 0.997, -8.5241, -51.1227)" width="9.55" xlink:href="#sprite20"/>
  </g>
  <defs>
    <g id="sprite0" transform="matrix(1.0, 0.0, 0.0, 1.0, 8.75, 1.8)">
      <use height="21.25" transform="matrix(1.0, 0.0, 0.0, 1.0, -8.75, -1.8)" width="16.15" xlink:href="#shape0"/>
    </g>
    <g id="shape0" transform="matrix(1.0, 0.0, 0.0, 1.0, 8.75, 1.8)">
      <path d="M-8.75 -1.2 L-8.3 -1.8 -4.3 -1.05 Q-5.7 3.2 -1.9 5.35 L2.3 5.25 1.45 6.95 Q-1.0 6.9 -3.0 5.95 -7.6 3.75 -8.75 -1.2 M-2.6 8.85 L-2.8 8.5 0.0 8.6 0.35 9.6 -0.4 11.3 0.55 15.15 2.5 15.35 1.85 19.05 -0.2 19.0 -1.0 18.1 Q0.15 13.05 -2.6 8.85" fill="#221f1b" fill-rule="evenodd" stroke="none"/>
      <path d="M-8.75 -1.2 Q-7.6 3.75 -3.0 5.95 -1.0 6.9 1.45 6.95 L2.3 5.25 4.85 3.4 7.4 5.2 3.6 15.25 2.75 16.05 2.05 19.45 -0.55 19.2 -1.5 17.35 Q-0.6 13.0 -2.6 8.85 0.15 13.05 -1.0 18.1 L-0.2 19.0 1.85 19.05 2.5 15.35 0.55 15.15 -0.4 11.3 0.35 9.6 0.0 8.6 -2.8 8.5 -3.6 7.1 Q-8.65 4.5 -8.75 -1.2 M6.55 4.75 L5.6 4.0 4.3 4.4 4.75 4.8 3.6 5.05 0.6 11.85 1.4 14.6 3.2 14.3 6.35 5.25 5.65 4.8 6.45 4.8 6.85 5.15 6.6 4.8 6.55 4.75 M1.3 14.95 L0.3 11.8 3.25 5.35 Q0.65 7.7 -0.2 11.55 L1.3 15.0 3.45 14.7 1.3 14.95" fill="#000000" fill-rule="evenodd" stroke="none"/>
      <path d="M6.55 4.75 L6.6 4.8 6.45 4.8 6.55 4.75 M5.65 4.8 L6.35 5.25 3.2 14.3 1.4 14.6 0.6 11.85 3.6 5.05 4.75 4.8 5.65 4.8" fill="#5c5c5c" fill-rule="evenodd" stroke="none"/>
      <path d="M4.75 4.8 L4.3 4.4 5.6 4.0 6.55 4.75 6.45 4.8 5.65 4.8 4.75 4.8 M1.3 15.0 L-0.2 11.55 Q0.65 7.7 3.25 5.35 L0.3 11.8 1.3 14.95 1.3 15.0" fill="#998a0a" fill-rule="evenodd" stroke="none"/>
      <path d="M3.8 11.1 L2.8 7.5 4.45 5.0 3.8 11.1" fill="#7a7a7a" fill-rule="evenodd" stroke="none"/>
    </g>
    <g id="sprite1" transform="matrix(1.0, 0.0, 0.0, 1.0, 3.1, 2.35)">
      <use height="10.7" transform="matrix(1.0, 0.0, 0.0, 1.0, -3.1, -2.35)" width="6.15" xlink:href="#shape1"/>
    </g>
    <g id="shape1" transform="matrix(1.0, 0.0, 0.0, 1.0, 3.1, 2.35)">
      <path d="M-1.4 -1.1 L-2.65 -0.6 -2.7 0.55 -0.35 1.2 0.1 2.2 2.1 -1.2 1.15 -1.95 1.35 0.0 -0.25 -1.5 0.65 -2.35 1.95 -2.0 3.05 0.0 1.45 4.5 1.4 3.0 0.25 2.9 -2.15 1.0 -1.85 2.2 -3.1 0.85 -3.0 -0.95 -1.4 -1.1 M0.65 7.6 L0.45 8.35 -1.25 6.25 -1.15 5.15 -0.9 6.15 0.65 7.6 M0.8 0.1 L0.8 0.4 -0.4 0.4 -0.4 0.1 0.8 0.1" fill="#000000" fill-rule="evenodd" stroke="none"/>
      <path d="M-0.25 -1.5 L1.35 0.0 1.15 -1.95 2.1 -1.2 0.1 2.2 -0.35 1.2 -2.7 0.55 -2.65 -0.6 -1.4 -1.1 -0.25 -1.5 M0.8 0.1 L-0.4 0.1 -0.4 0.4 0.8 0.4 0.8 0.1" fill="#5c5c5c" fill-rule="evenodd" stroke="none"/>
      <path d="M-1.85 2.2 L-2.15 1.0 0.25 2.9 1.4 3.0 1.45 4.5 0.65 7.6 -0.9 6.15 -1.15 5.15 -1.85 2.2" fill="#221f1b" fill-rule="evenodd" stroke="none"/>
      <path d="M2.1 -0.95 Q2.1 -0.15 1.65 -0.15 1.1 -0.15 0.75 -1.65 0.75 -2.8 2.1 -0.95" fill="#7a7a7a" fill-rule="evenodd" stroke="none"/>
    </g>
    <g id="sprite2" transform="matrix(1.0, 0.0, 0.0, 1.0, 1.9, 1.25)">
      <use height="6.8" transform="matrix(1.0, 0.0, 0.0, 1.0, -1.9, -1.25)" width="5.6" xlink:href="#shape2"/>
    </g>
    <g id="shape2" transform="matrix(1.0, 0.0, 0.0, 1.0, 1.9, 1.25)">
      <path d="M1.25 -0.7 Q1.6 -0.45 1.6 0.15 L2.05 0.7 2.35 1.2 2.35 1.55 2.25 1.75 2.95 2.85 Q3.6 4.05 3.65 4.55 L3.7 4.7 3.3 5.2 3.0 5.2 2.85 5.25 1.1 5.55 -1.05 5.25 -1.75 4.85 -1.75 4.7 -1.85 4.7 -1.9 4.45 -1.7 2.8 -1.35 2.0 -1.65 1.1 Q-1.65 0.4 -1.3 -0.15 L-1.0 -0.5 -1.0 -0.25 -1.05 -0.2 -1.25 0.4 -1.2 0.5 -1.35 1.1 -1.0 1.8 -0.95 1.85 -0.95 1.9 -0.95 1.95 -0.75 2.1 -0.4 2.3 1.15 1.95 1.7 1.8 1.65 1.75 2.05 1.2 1.7 0.7 1.3 0.2 1.25 -0.05 1.25 -0.6 1.25 -0.7 M1.05 2.35 L-0.4 2.65 -0.25 2.65 -1.05 2.4 -1.45 3.25 -1.6 4.6 -1.0 4.9 0.7 5.2 3.25 4.7 3.45 4.7 2.85 3.4 2.05 2.1 1.05 2.35" fill="#000000" fill-rule="evenodd" stroke="none"/>
      <path d="M-1.0 -0.5 L-0.5 -1.1 Q-0.2 -1.4 0.8 -1.1 L1.25 -0.7 1.25 -0.6 1.25 -0.05 1.3 0.2 1.7 0.7 2.05 1.2 1.65 1.75 1.7 1.8 1.15 1.95 -0.4 2.3 -0.75 2.1 -0.95 1.95 -0.95 1.9 -0.95 1.85 -1.0 1.8 -1.35 1.1 -1.2 0.5 -1.25 0.4 -1.05 -0.2 -1.0 -0.25 -1.0 -0.5" fill="#221f1b" fill-rule="evenodd" stroke="none"/>
      <path d="M1.05 2.35 L2.05 2.1 2.85 3.4 3.45 4.7 3.25 4.7 0.7 5.2 -1.0 4.9 -1.6 4.6 -1.45 3.25 -1.05 2.4 -0.25 2.65 -0.4 2.65 1.05 2.35" fill="#0a0a0a" fill-rule="evenodd" stroke="none"/>
    </g>
    <g id="sprite3" transform="matrix(1.0, 0.0, 0.0, 1.0, 10.55, 22.1)">
      <use height="32.75" transform="matrix(1.0, 0.0, 0.0, 1.0, -10.55, -22.1)" width="28.65" xlink:href="#shape3"/>
    </g>
    <g id="shape3" transform="matrix(1.0, 0.0, 0.0, 1.0, 10.55, 22.1)">
      <path d="M7.1 -20.8 L12.25 -13.25 6.1 -20.1 7.1 -20.8 M10.3 -0.55 L8.25 -3.8 10.95 -10.95 11.05 -3.45 10.3 -0.55 M15.8 -12.75 L12.45 -8.0 11.85 -10.95 14.95 -14.8 16.1 -13.25 15.8 -12.75" fill="#999999" fill-rule="evenodd" stroke="none"/>
      <path d="M16.45 -20.4 L15.45 -20.9 Q9.95 -23.05 7.8 -20.35 L12.95 -14.1 14.8 -15.95 16.4 -13.8 16.1 -13.25 14.95 -14.8 11.85 -10.95 12.45 -8.0 15.8 -12.75 11.05 -3.45 10.95 -10.95 8.25 -3.8 10.3 -0.55 9.95 1.0 7.9 -3.8 10.85 -12.05 5.95 -20.0 2.2 -16.65 8.3 -9.0 10.65 -11.65 7.3 -4.0 8.1 -7.55 1.3 -15.8 Q-0.5 -13.7 -2.9 -12.4 -7.35 -9.95 -9.3 -5.35 -11.45 -0.35 -8.95 4.55 -10.25 2.2 -10.5 -0.7 -10.9 -5.55 -7.55 -8.95 L-0.2 -15.95 Q3.1 -18.95 7.1 -20.8 L8.1 -21.25 Q12.9 -23.3 16.45 -20.4 M7.1 -20.8 L6.1 -20.1 12.25 -13.25 7.1 -20.8 M17.25 -15.25 L17.75 -19.05 Q18.55 -17.6 17.5 -15.75 L17.25 -15.25 M9.95 1.05 Q8.75 6.55 3.9 9.35 -1.2 12.3 -5.7 8.45 L-7.45 6.75 Q-5.3 9.1 -1.95 9.55 5.25 10.95 8.2 4.35 9.45 1.6 8.95 -0.75 L9.95 1.05" fill="#000000" fill-rule="evenodd" stroke="none"/>
      <path d="M16.4 -13.8 L14.8 -15.95 12.95 -14.1 7.8 -20.35 Q9.95 -23.05 15.45 -20.9 L16.45 -20.4 17.75 -19.05 17.25 -15.25 16.4 -13.8 M-8.95 4.55 Q-11.45 -0.35 -9.3 -5.35 -7.35 -9.95 -2.9 -12.4 -0.5 -13.7 1.3 -15.8 L8.1 -7.55 7.3 -4.0 8.95 -0.75 Q9.45 1.6 8.2 4.35 5.25 10.95 -1.95 9.55 -5.3 9.1 -7.45 6.75 L-8.95 4.55 M10.65 -11.65 L8.3 -9.0 2.2 -16.65 5.95 -20.0 10.85 -12.05 10.65 -11.65" fill="#39342d" fill-rule="evenodd" stroke="none"/>
      <path d="M7.3 -4.0 L10.65 -11.65 10.85 -12.05 7.9 -3.8 9.95 1.0 9.95 1.05 8.95 -0.75 7.3 -4.0" fill="#ffe711" fill-rule="evenodd" stroke="none"/>
      <path d="M15.05 -11.0 L13.75 -10.2 15.15 -13.85 15.05 -11.0 M11.05 -9.45 L10.35 -4.8 9.85 -7.0 11.05 -9.45 M7.05 -10.4 L7.1 -10.15 7.05 -9.8 6.75 -9.75 6.3 -9.8 6.2 -10.05 Q6.2 -10.55 7.05 -10.4 M11.6 -15.1 L11.55 -14.8 11.2 -14.75 Q10.6 -14.75 10.6 -15.15 10.6 -15.65 11.1 -15.55 L11.6 -15.1" fill="#cccccc" fill-rule="evenodd" stroke="none"/>
    </g>
    <g id="sprite4" transform="matrix(1.0, 0.0, 0.0, 1.0, 10.75, 10.05)">
      <use height="18.25" transform="matrix(1.0, 0.0, 0.0, 1.0, -10.75, -10.05)" width="21.75" xlink:href="#shape4"/>
    </g>
    <g id="shape4" transform="matrix(1.0, 0.0, 0.0, 1.0, 10.75, 10.05)">
      <path d="M0.55 -9.65 Q1.65 -9.3 2.75 -8.6 3.9 -7.85 4.85 -6.5 6.65 -4.1 7.55 -1.4 L9.7 -1.45 11.0 3.9 4.4 6.85 5.3 6.1 2.8 4.95 2.9 4.15 2.6 3.9 Q-0.3 0.5 2.45 -3.25 L-2.1 -9.5 -6.5 -8.95 Q-2.9 -10.7 0.4 -9.7 L-1.75 -9.55 2.65 -3.45 3.85 -3.6 Q0.35 -1.45 2.05 2.3 L2.45 3.1 Q0.95 -0.9 4.25 -3.65 L6.0 -3.9 0.55 -9.65 M1.45 7.8 Q-4.05 9.35 -8.05 4.85 -11.85 0.55 -10.35 -5.05 -11.2 0.25 -7.85 4.55 -4.3 9.15 1.45 7.8 M3.5 -0.2 L3.55 -0.1 3.6 -0.1 4.55 -2.15 5.4 -1.8 3.6 1.05 3.5 -0.2 M6.0 -1.75 L6.95 -1.95 6.75 -0.9 7.1 -0.9 7.1 -0.35 6.7 -0.35 6.7 -0.75 6.5 0.4 6.05 -0.5 6.65 -1.75 6.0 -1.75 M6.5 0.45 L6.7 2.55 6.7 2.7 6.75 2.55 7.1 1.4 Q8.1 -1.85 5.5 -3.55 0.55 -1.25 3.2 3.55 L5.6 3.75 5.75 3.65 6.0 3.25 Q6.25 2.2 5.7 3.55 L5.55 3.65 Q4.7 3.65 4.1 2.55 L4.05 2.45 Q5.25 2.0 5.55 2.6 L6.1 1.95 4.7 0.6 5.9 0.95 5.5 -0.05 4.8 0.4 5.55 -0.65 6.5 0.45 M5.9 -2.25 Q5.6 -2.95 6.0 -2.25 L5.9 -2.25 M3.05 -0.75 L3.4 -1.0 Q4.3 -1.05 3.05 -0.75 M9.3 -0.4 L7.8 -0.2 6.75 3.1 4.0 5.05 5.9 5.75 8.45 4.05 9.55 1.7 9.3 -0.4 M3.2 4.2 L3.25 4.55 Q4.3 4.75 3.2 4.2 M2.95 1.1 L2.95 1.65 2.5 1.65 2.5 1.1 2.95 1.1 M9.1 3.3 L9.15 3.6 Q11.25 3.4 9.1 3.3 M4.25 3.5 L4.2 3.6 Q3.3 3.2 4.25 3.5" fill="#000000" fill-rule="evenodd" stroke="none"/>
      <path d="M0.4 -9.7 L0.5 -9.7 0.55 -9.65 6.0 -3.9 4.25 -3.65 4.55 -3.8 3.85 -3.6 2.65 -3.45 -1.75 -9.55 0.4 -9.7 M3.5 -0.2 L3.6 -0.1 3.55 -0.1 3.5 -0.2 M5.4 -1.8 L6.0 -1.75 6.65 -1.75 6.05 -0.5 6.5 0.4 6.55 0.5 6.5 0.45 5.55 -0.65 4.8 0.4 4.7 0.6 6.1 1.95 5.55 2.6 Q5.25 2.0 4.05 2.45 L3.6 1.05 5.4 -1.8 M6.7 2.55 L6.75 2.55 6.7 2.7 6.7 2.55 M5.6 3.75 L5.55 3.65 5.7 3.55 5.75 3.65 5.6 3.75 M9.3 -0.4 L9.55 1.7 8.45 4.05 5.9 5.75 4.0 5.05 6.75 3.1 7.8 -0.2 9.3 -0.4" fill="#999999" fill-rule="evenodd" stroke="none"/>
      <path d="M3.85 -3.6 L4.55 -3.8 4.25 -3.65 Q0.95 -0.9 2.45 3.1 L2.05 2.3 Q0.35 -1.45 3.85 -3.6 M3.6 -0.1 L3.5 -0.2 3.6 1.05 4.05 2.45 4.1 2.55 Q4.7 3.65 5.55 3.65 L5.6 3.75 3.2 3.55 Q0.55 -1.25 5.5 -3.55 8.1 -1.85 7.1 1.4 L6.75 2.55 6.7 2.55 6.5 0.45 6.55 0.5 6.5 0.4 6.7 -0.75 6.7 -0.35 7.1 -0.35 7.1 -0.9 6.75 -0.9 6.95 -1.95 6.0 -1.75 5.4 -1.8 4.55 -2.15 3.6 -0.1 M3.05 -0.75 Q4.3 -1.05 3.4 -1.0 L3.05 -0.75 M5.9 -2.25 L6.0 -2.25 Q5.6 -2.95 5.9 -2.25 M4.7 0.6 L4.8 0.4 5.5 -0.05 5.9 0.95 4.7 0.6 M5.75 3.65 L5.7 3.55 Q6.25 2.2 6.0 3.25 L5.75 3.65 M9.1 3.3 Q11.25 3.4 9.15 3.6 L9.1 3.3 M2.95 1.1 L2.5 1.1 2.5 1.65 2.95 1.65 2.95 1.1 M3.2 4.2 Q4.3 4.75 3.25 4.55 L3.2 4.2 M4.25 3.5 Q3.3 3.2 4.2 3.6 L4.25 3.5" fill="#ffe711" fill-rule="evenodd" stroke="none"/>
      <path d="M4.4 6.85 Q3.25 7.5 1.45 7.8 -4.3 9.15 -7.85 4.55 -11.2 0.25 -10.35 -5.05 L-6.5 -8.95 -2.1 -9.5 2.45 -3.25 Q-0.3 0.5 2.6 3.9 L2.9 4.15 2.8 4.95 5.3 6.1 4.4 6.85" fill="#39342d" fill-rule="evenodd" stroke="none"/>
      <path d="M8.2 -0.2 L9.6 1.9 Q7.75 2.4 8.2 -0.2 M4.6 -1.2 L4.6 -1.4 Q4.6 -1.95 5.45 -1.8 L5.5 -1.55 5.3 -1.15 5.05 -1.0 Q4.65 -1.0 4.6 -1.2 M1.0 -8.0 L2.8 -8.0 4.65 -4.15 1.0 -8.0" fill="#cccccc" fill-rule="evenodd" stroke="none"/>
    </g>
    <g id="sprite5" transform="matrix(1.0, 0.0, 0.0, 1.0, 23.7, 17.3)">
      <use height="34.6" transform="matrix(1.0, 0.0, 0.0, 1.0, -23.7, -17.3)" width="47.4" xlink:href="#shape5"/>
    </g>
    <g id="shape5" transform="matrix(1.0, 0.0, 0.0, 1.0, 23.7, 17.3)">
      <path d="M15.75 -2.25 L15.5 -2.25 Q14.95 2.8 12.6 9.1 L12.6 9.4 12.85 9.4 14.45 4.55 Q15.8 -0.05 15.8 -1.8 L15.75 -2.25 M5.75 -2.05 L5.65 -1.25 5.25 0.15 5.25 0.55 5.5 0.55 6.2 -2.0 6.2 -2.55 5.75 -2.05 M3.75 -2.3 L3.7 -2.55 3.45 -2.55 2.2 1.8 2.25 2.0 Q2.75 1.5 3.3 -0.4 L3.75 -2.3 M4.8 -2.6 L4.75 -2.9 4.45 -2.9 Q3.95 0.45 1.85 9.1 L1.95 9.25 3.55 3.4 4.8 -2.6 M11.9 -13.05 L13.55 -13.35 13.75 -13.3 Q14.35 -13.3 16.55 -15.1 L18.45 -16.7 18.45 -16.65 20.55 -12.3 22.85 -8.8 Q20.8 -6.9 20.1 -3.9 L19.2 2.1 Q19.0 4.45 17.8 8.0 L16.8 10.95 16.4 12.4 Q16.1 13.5 15.5 13.75 L11.5 13.7 9.65 13.8 9.2 13.95 7.2 14.45 4.45 15.0 Q3.6 15.15 3.4 15.5 L1.8 15.45 Q4.85 14.2 6.55 11.7 L8.8 7.5 9.55 5.4 10.1 3.2 11.1 0.95 11.8 -1.0 11.75 -1.2 Q10.85 0.4 9.9 3.1 L8.45 7.5 Q7.95 9.0 6.1 11.55 4.85 13.3 3.05 14.5 L1.45 15.3 1.5 15.45 0.2 15.25 -5.0 15.05 -4.65 15.05 -6.7 15.1 -6.8 15.05 Q-6.25 14.8 -5.4 12.9 -4.5 10.95 -4.5 9.95 L-4.55 9.75 -5.05 10.95 -5.45 12.3 -6.4 13.8 -6.95 14.85 -6.9 15.0 -7.55 14.6 Q-8.45 14.2 -9.9 14.2 L-12.05 14.4 -15.55 14.7 -17.15 15.1 -19.6 15.45 Q-20.55 15.45 -22.75 13.7 L-22.85 13.7 Q-22.15 12.3 -21.55 8.95 -20.95 5.45 -20.95 3.15 L-21.35 -1.2 Q-21.35 -2.65 -20.55 -4.6 -19.8 -6.55 -18.85 -7.6 L-17.5 -9.2 -15.75 -10.65 Q-14.7 -11.1 -13.55 -12.0 L-12.2 -12.6 -11.75 -12.7 -11.05 -12.9 -9.6 -13.1 -6.85 -12.6 -0.1 -12.1 0.5 -12.15 2.25 -12.05 8.65 -12.75 11.9 -13.05 M-0.8 -2.15 Q-1.2 -2.05 -1.3 -1.4 L-1.45 -0.45 -1.8 1.5 -1.75 1.75 Q-1.4 1.05 -1.2 0.0 L-0.8 -1.9 -0.8 -2.15 M-3.5 -5.4 L-4.35 -3.5 -4.8 -1.35 -4.75 -1.15 Q-4.25 -1.7 -3.8 -3.45 L-3.45 -5.15 -3.5 -5.4 M-9.0 -1.85 L-9.05 -2.0 -9.5 -1.6 -9.65 -1.4 -10.05 -0.65 -10.8 1.2 -12.2 4.45 -14.4 11.25 -14.35 11.4 -14.05 11.35 Q-13.65 8.45 -11.3 3.1 L-9.3 -1.15 -9.2 -1.45 -9.0 -1.85 M-6.65 -11.9 Q-8.15 -10.5 -9.45 -8.6 L-11.65 -5.25 Q-15.05 0.2 -15.05 1.55 L-15.0 1.7 -11.3 -5.2 Q-10.25 -7.2 -8.2 -9.65 L-6.35 -11.7 -6.4 -11.9 -6.65 -11.9 M-16.35 -6.55 L-16.4 -6.7 Q-17.8 -4.75 -18.65 -1.85 L-19.8 3.3 -19.8 4.05 -19.55 4.05 -18.45 -1.3 -16.35 -6.55 M-8.45 -12.65 L-8.5 -12.8 Q-12.55 -10.45 -14.65 -7.3 -15.9 -5.4 -17.3 -1.45 -18.55 2.2 -20.2 10.75 L-20.2 11.55 -19.95 11.55 Q-18.45 3.3 -17.1 -1.0 L-16.0 -4.1 -14.45 -7.15 Q-12.8 -9.4 -10.45 -11.2 L-8.45 -12.65" fill="#d81616" fill-rule="evenodd" stroke="none"/>
      <path d="M13.4 -13.65 Q14.75 -14.1 16.35 -15.45 L18.7 -17.3 18.75 -17.1 18.75 -17.0 20.8 -12.75 Q21.9 -10.75 23.2 -9.1 L23.5 -9.35 23.6 -9.2 23.4 -8.85 23.7 -8.5 23.7 -8.15 23.55 -8.1 23.5 -8.1 22.4 -6.3 Q21.2 -4.05 20.9 -2.45 L20.05 3.7 18.35 9.75 Q18.05 10.7 17.95 12.75 17.65 14.25 16.5 15.15 L16.55 15.25 16.25 15.45 16.0 15.45 14.6 15.2 13.65 14.95 Q8.5 14.95 5.75 16.15 2.95 17.3 2.2 17.3 L-2.2 16.5 -2.25 16.35 -3.45 16.15 -5.05 16.15 -5.95 16.3 -7.05 16.55 Q-7.75 16.55 -8.7 16.0 -9.6 15.4 -12.0 15.4 L-15.95 16.1 -19.65 16.8 Q-20.65 16.8 -22.2 15.95 -23.7 15.15 -23.7 14.75 L-23.5 13.95 -23.2 13.65 -23.2 13.6 Q-22.5 12.15 -21.85 8.75 -21.25 5.4 -21.25 3.1 L-21.4 1.65 -21.3 1.0 -21.65 -1.2 Q-21.65 -4.6 -19.15 -7.85 -16.4 -11.4 -11.8 -13.05 L-11.65 -13.05 -10.9 -13.3 -9.55 -13.45 -6.65 -13.0 -5.85 -12.6 -0.85 -12.5 2.2 -12.4 13.4 -13.6 13.4 -13.65 M11.9 -13.05 L8.65 -12.75 2.25 -12.05 0.5 -12.15 -0.1 -12.1 -6.85 -12.6 -9.6 -13.1 -11.05 -12.9 -11.75 -12.7 -12.2 -12.6 -13.55 -12.0 Q-14.7 -11.1 -15.75 -10.65 L-17.5 -9.2 -18.85 -7.6 Q-19.8 -6.55 -20.55 -4.6 -21.35 -2.65 -21.35 -1.2 L-20.95 3.15 Q-20.95 5.45 -21.55 8.95 -22.15 12.3 -22.85 13.7 L-22.75 13.7 Q-20.55 15.45 -19.6 15.45 L-17.15 15.1 -15.55 14.7 -12.05 14.4 -9.9 14.2 Q-8.45 14.2 -7.55 14.6 L-6.9 15.0 -6.95 14.85 -6.4 13.8 -5.45 12.3 -5.05 10.95 -4.55 9.75 -4.5 9.95 Q-4.5 10.95 -5.4 12.9 -6.25 14.8 -6.8 15.05 L-6.7 15.1 -4.65 15.05 -5.0 15.05 0.2 15.25 1.5 15.45 1.45 15.3 3.05 14.5 Q4.85 13.3 6.1 11.55 7.95 9.0 8.45 7.5 L9.9 3.1 Q10.85 0.4 11.75 -1.2 L11.8 -1.0 11.1 0.95 10.1 3.2 9.55 5.4 8.8 7.5 6.55 11.7 Q4.85 14.2 1.8 15.45 L3.4 15.5 Q3.6 15.15 4.45 15.0 L7.2 14.45 9.2 13.95 9.65 13.8 11.5 13.7 15.5 13.75 Q16.1 13.5 16.4 12.4 L16.8 10.95 17.8 8.0 Q19.0 4.45 19.2 2.1 L20.1 -3.9 Q20.8 -6.9 22.85 -8.8 L20.55 -12.3 18.45 -16.65 18.45 -16.7 16.55 -15.1 Q14.35 -13.3 13.75 -13.3 L13.55 -13.35 11.9 -13.05 M4.8 -2.6 L3.55 3.4 1.95 9.25 1.85 9.1 Q3.95 0.45 4.45 -2.9 L4.75 -2.9 4.8 -2.6 M3.75 -2.3 L3.3 -0.4 Q2.75 1.5 2.25 2.0 L2.2 1.8 3.45 -2.55 3.7 -2.55 3.75 -2.3 M5.75 -2.05 L6.2 -2.55 6.2 -2.0 5.5 0.55 5.25 0.55 5.25 0.15 5.65 -1.25 5.75 -2.05 M15.75 -2.25 L15.8 -1.8 Q15.8 -0.05 14.45 4.55 L12.85 9.4 12.6 9.4 12.6 9.1 Q14.95 2.8 15.5 -2.25 L15.75 -2.25 M23.1 -8.5 L22.35 -7.65 Q20.9 -6.0 20.3 -3.6 L19.85 -0.6 19.5 2.35 Q19.05 5.45 18.1 8.3 L17.1 11.25 16.7 13.05 Q16.4 13.85 15.8 13.95 L15.75 14.05 14.35 14.0 9.05 14.25 Q8.55 14.35 7.45 14.75 L4.9 15.25 3.95 15.5 3.8 15.65 3.75 15.85 3.3 15.85 0.3 15.7 -3.65 15.35 -4.55 15.4 -7.0 15.4 -7.05 15.35 -7.05 15.25 -7.55 14.95 -9.95 14.55 -12.7 14.75 -15.65 15.05 -17.35 15.45 -19.65 15.8 Q-20.3 15.8 -22.95 14.05 L-23.4 14.7 -22.35 15.6 Q-21.0 16.45 -19.65 16.45 L-15.9 15.75 -12.05 15.05 Q-9.5 15.05 -8.6 15.65 -7.65 16.2 -7.1 16.2 L-5.0 15.8 -3.05 16.0 -1.7 16.25 0.05 16.55 0.8 16.6 1.55 16.75 2.15 16.95 5.25 16.1 7.3 15.2 8.45 14.85 11.55 14.65 14.5 14.8 16.1 15.1 16.75 14.35 Q17.5 13.5 17.5 12.45 L18.05 9.4 18.95 6.4 19.75 3.4 20.7 -2.7 Q21.4 -6.15 23.3 -8.25 L23.1 -8.5 M-8.45 -12.65 L-10.45 -11.2 Q-12.8 -9.4 -14.45 -7.15 L-16.0 -4.1 -17.1 -1.0 Q-18.45 3.3 -19.95 11.55 L-20.2 11.55 -20.2 10.75 Q-18.55 2.2 -17.3 -1.45 -15.9 -5.4 -14.65 -7.3 -12.55 -10.45 -8.5 -12.8 L-8.45 -12.65 M-16.35 -6.55 L-18.45 -1.3 -19.55 4.05 -19.8 4.05 -19.8 3.3 -18.65 -1.85 Q-17.8 -4.75 -16.4 -6.7 L-16.35 -6.55 M-6.65 -11.9 L-6.4 -11.9 -6.35 -11.7 -8.2 -9.65 Q-10.25 -7.2 -11.3 -5.2 L-15.0 1.7 -15.05 1.55 Q-15.05 0.2 -11.65 -5.25 L-9.45 -8.6 Q-8.15 -10.5 -6.65 -11.9 M-9.0 -1.85 L-9.2 -1.45 -9.3 -1.15 -11.3 3.1 Q-13.65 8.45 -14.05 11.35 L-14.35 11.4 -14.4 11.25 -12.2 4.45 -10.8 1.2 -10.05 -0.65 -9.65 -1.4 -9.5 -1.6 -9.05 -2.0 -9.0 -1.85 M-3.5 -5.4 L-3.45 -5.15 -3.8 -3.45 Q-4.25 -1.7 -4.75 -1.15 L-4.8 -1.35 -4.35 -3.5 -3.5 -5.4 M-0.8 -2.15 L-0.8 -1.9 -1.2 0.0 Q-1.4 1.05 -1.75 1.75 L-1.8 1.5 -1.45 -0.45 -1.3 -1.4 Q-1.2 -2.05 -0.8 -2.15" fill="#000000" fill-rule="evenodd" stroke="none"/>
      <path d="M23.1 -8.5 L23.3 -8.25 Q21.4 -6.15 20.7 -2.7 L19.75 3.4 18.95 6.4 18.05 9.4 17.5 12.45 Q17.5 13.5 16.75 14.35 L16.1 15.1 14.5 14.8 11.55 14.65 8.45 14.85 7.3 15.2 5.25 16.1 2.15 16.95 1.55 16.75 0.8 16.6 0.05 16.55 -1.7 16.25 -3.05 16.0 -5.0 15.8 -7.1 16.2 Q-7.65 16.2 -8.6 15.65 -9.5 15.05 -12.05 15.05 L-15.9 15.75 -19.65 16.45 Q-21.0 16.45 -22.35 15.6 L-23.4 14.7 -22.95 14.05 Q-20.3 15.8 -19.65 15.8 L-17.35 15.45 -15.65 15.05 -12.7 14.75 -9.95 14.55 -7.55 14.95 -7.05 15.25 -7.05 15.35 -7.0 15.4 -4.55 15.4 -3.65 15.35 0.3 15.7 3.3 15.85 3.75 15.85 3.8 15.65 3.95 15.5 4.9 15.25 7.45 14.75 Q8.55 14.35 9.05 14.25 L14.35 14.0 15.75 14.05 15.8 13.95 Q16.4 13.85 16.7 13.05 L17.1 11.25 18.1 8.3 Q19.05 5.45 19.5 2.35 L19.85 -0.6 20.3 -3.6 Q20.9 -6.0 22.35 -7.65 L23.1 -8.5" fill="#ffe711" fill-rule="evenodd" stroke="none"/>
    </g>
    <g id="sprite6" transform="matrix(1.0, 0.0, 0.0, 1.0, 9.9, 12.15)">
      <use height="24.3" transform="matrix(1.0, 0.0, 0.0, 1.0, -9.9, -12.15)" width="19.8" xlink:href="#shape6"/>
    </g>
    <g id="shape6" transform="matrix(1.0, 0.0, 0.0, 1.0, 9.9, 12.15)">
      <path d="M8.5 -12.1 L8.7 -12.15 8.75 -12.15 8.95 -12.0 9.0 -11.95 9.7 -11.3 9.85 -9.8 9.65 -6.9 9.7 -6.45 9.85 -6.6 9.9 -6.4 9.75 -6.1 9.75 -6.0 9.65 -5.95 6.85 -1.2 5.9 1.4 Q5.2 3.0 3.5 3.7 1.65 4.5 0.15 5.9 L-2.0 8.25 -2.75 8.6 -4.7 9.1 Q-5.55 9.35 -6.65 9.95 -7.6 10.35 -9.4 11.95 L-9.45 12.05 -9.55 12.05 -9.7 12.15 -9.85 12.1 -9.9 12.0 -9.65 11.6 -9.25 9.4 Q-8.95 8.2 -8.95 7.3 L-9.25 4.65 -9.6 1.85 Q-9.6 0.45 -9.3 -0.1 L-9.35 -0.25 -8.15 -1.45 -8.15 -1.5 -8.1 -1.5 -5.4 -3.5 -0.7 -6.8 1.15 -8.3 3.35 -10.0 5.95 -11.15 7.95 -11.95 8.2 -12.0 8.5 -12.1 M8.6 -11.85 L8.35 -11.75 8.7 -10.95 8.85 -9.5 8.75 -8.0 8.9 -6.4 7.75 -4.6 6.15 -2.05 5.25 0.5 Q4.65 2.0 3.8 2.55 L0.9 4.4 Q-0.6 5.45 -1.45 6.35 L-3.1 7.6 -4.75 8.25 -6.4 9.15 -7.5 9.8 -8.0 10.05 -8.0 10.0 -8.35 10.0 -8.4 9.9 -7.95 9.65 -7.6 8.8 -8.05 6.4 Q-8.55 4.45 -8.55 2.2 L-8.65 0.5 Q-8.6 -0.35 -8.2 -0.65 L-8.2 -0.8 -8.85 -0.35 -9.3 1.85 -8.95 4.6 -8.65 7.3 Q-8.65 8.3 -8.95 9.7 L-9.25 11.2 -6.85 9.65 -5.85 9.25 -4.85 8.8 Q-2.45 8.35 -2.15 7.95 L-0.15 5.65 Q1.2 4.25 3.15 3.45 5.05 2.7 5.7 1.15 L6.7 -1.6 8.0 -4.2 8.8 -5.45 9.4 -6.2 9.35 -6.55 9.35 -7.15 9.55 -9.8 Q9.55 -10.75 9.0 -11.4 L8.6 -11.85 M5.1 -8.45 L4.05 -6.65 2.8 -3.65 1.7 -0.4 0.65 2.4 0.6 2.2 Q0.6 1.1 2.65 -4.1 L3.95 -7.15 4.6 -8.65 Q5.0 -9.45 5.7 -9.9 L5.75 -9.7 5.1 -8.45 M8.05 -11.65 Q5.65 -10.95 3.65 -9.75 L1.45 -8.15 -0.45 -6.55 -2.85 -4.9 -5.3 -3.2 Q-6.6 -1.95 -7.85 -1.05 L-7.9 -0.15 -8.0 -0.1 -8.2 2.2 Q-8.2 4.55 -7.75 6.25 -7.3 7.9 -7.3 8.8 L-7.3 9.25 -4.95 7.95 -2.85 7.2 -1.85 6.2 Q-0.4 4.3 3.55 2.35 L4.6 1.3 4.95 0.05 5.9 -2.3 7.1 -4.45 Q7.9 -5.7 8.6 -6.35 L8.45 -7.9 8.55 -9.45 Q8.55 -10.65 8.05 -11.65 M1.7 -5.05 Q1.7 -3.85 -0.1 -0.35 L-2.3 3.5 -2.45 3.3 -1.5 1.45 -0.15 -1.0 0.65 -3.2 Q1.1 -4.6 1.65 -5.3 L1.7 -5.05 M-3.65 -1.15 L-3.6 -0.9 -3.85 0.15 -4.1 0.15 -4.1 -0.3 Q-3.95 -1.05 -3.65 -1.15 M-5.05 -1.0 L-5.55 3.0 -5.35 4.35 -5.05 5.65 -5.2 5.75 Q-5.85 4.5 -5.85 2.9 -5.85 0.3 -5.1 -1.2 L-5.05 -1.0" fill="#000000" fill-rule="evenodd" stroke="none"/>
      <path d="M8.6 -11.85 L9.0 -11.4 Q9.55 -10.75 9.55 -9.8 L9.35 -7.15 9.35 -6.55 9.4 -6.2 8.8 -5.45 8.0 -4.2 6.7 -1.6 5.7 1.15 Q5.05 2.7 3.15 3.45 1.2 4.25 -0.15 5.65 L-2.15 7.95 Q-2.45 8.35 -4.85 8.8 L-5.85 9.25 -6.85 9.65 -9.25 11.2 -8.95 9.7 Q-8.65 8.3 -8.65 7.3 L-8.95 4.6 -9.3 1.85 -8.85 -0.35 -8.2 -0.8 -8.2 -0.65 Q-8.6 -0.35 -8.65 0.5 L-8.55 2.2 Q-8.55 4.45 -8.05 6.4 L-7.6 8.8 -7.95 9.65 -8.4 9.9 -8.35 10.0 -8.0 10.0 -8.0 10.05 -7.5 9.8 -6.4 9.15 -4.75 8.25 -3.1 7.6 -1.45 6.35 Q-0.6 5.45 0.9 4.4 L3.8 2.55 Q4.65 2.0 5.25 0.5 L6.15 -2.05 7.75 -4.6 8.9 -6.4 8.75 -8.0 8.85 -9.5 8.7 -10.95 8.35 -11.75 8.6 -11.85" fill="#ffe711" fill-rule="evenodd" stroke="none"/>
      <path d="M-5.05 -1.0 L-5.1 -1.2 Q-5.85 0.3 -5.85 2.9 -5.85 4.5 -5.2 5.75 L-5.05 5.65 -5.35 4.35 -5.55 3.0 -5.05 -1.0 M-3.65 -1.15 Q-3.95 -1.05 -4.1 -0.3 L-4.1 0.15 -3.85 0.15 -3.6 -0.9 -3.65 -1.15 M1.7 -5.05 L1.65 -5.3 Q1.1 -4.6 0.65 -3.2 L-0.15 -1.0 -1.5 1.45 -2.45 3.3 -2.3 3.5 -0.1 -0.35 Q1.7 -3.85 1.7 -5.05 M8.05 -11.65 Q8.55 -10.65 8.55 -9.45 L8.45 -7.9 8.6 -6.35 Q7.9 -5.7 7.1 -4.45 L5.9 -2.3 4.95 0.05 4.6 1.3 3.55 2.35 Q-0.4 4.3 -1.85 6.2 L-2.85 7.2 -4.95 7.95 -7.3 9.25 -7.3 8.8 Q-7.3 7.9 -7.75 6.25 -8.2 4.55 -8.2 2.2 L-8.0 -0.1 -7.9 -0.15 -7.85 -1.05 Q-6.6 -1.95 -5.3 -3.2 L-2.85 -4.9 -0.45 -6.55 1.45 -8.15 3.65 -9.75 Q5.65 -10.95 8.05 -11.65 M5.1 -8.45 L5.75 -9.7 5.7 -9.9 Q5.0 -9.45 4.6 -8.65 L3.95 -7.15 2.65 -4.1 Q0.6 1.1 0.6 2.2 L0.65 2.4 1.7 -0.4 2.8 -3.65 4.05 -6.65 5.1 -8.45" fill="#d81616" fill-rule="evenodd" stroke="none"/>
    </g>
    <g id="sprite7" transform="matrix(1.0, 0.0, 0.0, 1.0, 9.45, 11.0)">
      <use height="10.05" transform="matrix(1.0, 0.0, 0.0, 1.0, -9.45, -11.0)" width="12.85" xlink:href="#shape7"/>
    </g>
    <g id="shape7" transform="matrix(1.0, 0.0, 0.0, 1.0, 9.45, 11.0)">
      <path d="M-5.5 -8.45 L-6.5 -10.45 -1.05 -2.7 Q0.45 -2.9 1.4 -3.85 L0.55 -1.55 -3.05 -3.6 -3.85 -5.25 -3.3 -4.35 Q-3.75 -7.35 -5.5 -8.45" fill="#ffe711" fill-rule="evenodd" stroke="none"/>
      <path d="M-3.85 -5.25 L-3.05 -3.6 0.55 -1.55 1.4 -3.85 Q0.45 -2.9 -1.05 -2.7 L-6.5 -10.45 -5.5 -8.45 -5.75 -8.45 Q-7.7 -7.05 -3.85 -5.25 M1.8 -9.3 L3.4 -7.6 0.6 -0.95 -3.4 -2.4 -5.3 -5.3 -9.45 -9.15 -6.45 -9.6 -7.0 -11.0 1.0 -9.85 -4.9 -10.0 -0.45 -2.9 -0.25 -3.05 Q3.6 -5.85 1.8 -9.3" fill="#000000" fill-rule="evenodd" stroke="none"/>
      <path d="M-3.85 -5.25 Q-7.7 -7.05 -5.75 -8.45 L-5.5 -8.45 Q-3.75 -7.35 -3.3 -4.35 L-3.85 -5.25 M1.0 -9.85 L1.8 -9.3 Q3.6 -5.85 -0.25 -3.05 L-0.45 -2.9 -4.9 -10.0 1.0 -9.85" fill="#999999" fill-rule="evenodd" stroke="none"/>
      <path d="M-6.85 -9.0 L-6.4 -9.0 Q-5.65 -8.9 -5.65 -8.55 L-5.3 -8.2 Q-5.3 -7.8 -5.85 -7.8 -6.4 -7.8 -6.9 -8.15 L-7.3 -8.55 -6.85 -9.0 M-2.55 -6.3 L-4.45 -10.0 Q-2.0 -9.45 0.05 -8.35 L-2.65 -7.9 -2.55 -6.3" fill="#cccccc" fill-rule="evenodd" stroke="none"/>
    </g>
    <g id="sprite8" transform="matrix(1.0, 0.0, 0.0, 1.0, 3.1, 12.35)">
      <use height="21.0" transform="matrix(1.0, 0.0, 0.0, 1.0, -3.1, -12.35)" width="14.5" xlink:href="#shape8"/>
    </g>
    <g id="shape8" transform="matrix(1.0, 0.0, 0.0, 1.0, 3.1, 12.35)">
      <path d="M6.85 -10.9 L5.4 -8.75 Q4.65 -9.8 6.85 -10.9 M3.05 -8.5 Q2.9 -7.25 3.35 -5.9 L1.9 -6.25 3.05 -8.5 M3.15 -7.95 L4.6 -10.7 3.85 -6.5 3.15 -7.95 M5.15 -1.75 Q4.8 -2.55 4.8 -3.0 4.8 -4.4 5.9 -3.75 6.95 -3.05 6.95 -1.5 L6.95 -1.05 Q6.85 -0.7 6.2 -0.7 5.6 -0.7 5.15 -1.75 M6.85 5.9 Q6.45 5.1 6.2 6.0 L6.3 6.25 Q6.3 6.55 6.6 6.65 L7.65 8.1 5.6 7.35 4.4 4.8 4.5 3.9 5.9 5.25 9.4 6.65 10.0 5.7 9.6 7.7 7.9 7.8 7.3 6.45 7.3 6.4 Q7.3 6.0 6.85 5.9 M2.6 2.55 Q4.4 2.45 3.5 3.8 L1.75 2.85 2.6 2.55" fill="#39342d" fill-rule="evenodd" stroke="none"/>
      <path d="M-2.65 -0.25 L-2.2 -0.25 -2.2 0.1 -2.65 0.1 -2.65 -0.25 M-1.15 -3.0 L-0.45 -3.4 0.7 -11.9 2.5 -10.2 5.1 -12.35 4.85 -10.35 7.3 -11.15 5.9 -8.45 10.3 -7.35 7.9 -5.2 8.65 -2.05 10.65 -1.6 9.35 -0.35 10.75 -0.1 9.75 0.85 11.4 5.7 9.8 8.0 7.5 8.65 4.9 7.5 4.35 5.25 1.5 2.95 -0.15 3.2 -1.4 2.5 Q2.45 3.75 3.1 0.05 L3.5 1.35 6.1 4.95 10.85 5.3 9.2 3.65 7.6 -4.2 5.55 -6.0 5.15 -8.4 3.75 -5.4 1.6 -5.8 1.35 -6.5 0.95 -4.15 2.1 -3.15 0.75 -3.95 0.65 -11.35 0.05 -3.6 1.45 -3.0 -1.15 -3.0 M-1.95 1.75 L-2.05 1.75 -2.05 1.6 -2.05 1.3 Q-1.15 1.4 -1.95 1.75 M-2.9 0.45 Q-3.5 -1.15 -2.05 -2.4 L-2.9 0.45 M-1.05 -2.15 L-1.05 -2.05 Q-1.9 -2.05 -1.05 -2.15 M6.85 -10.9 Q4.65 -9.8 5.4 -8.75 L6.85 -10.9 M6.85 -6.55 L7.45 -5.65 9.45 -7.2 6.6 -7.15 6.2 -8.05 6.3 -5.35 7.65 -4.55 6.85 -6.55 M3.15 -7.95 L3.85 -6.5 4.6 -10.7 3.15 -7.95 M3.05 -8.5 L1.9 -6.25 3.35 -5.9 Q2.9 -7.25 3.05 -8.5 M4.75 -10.0 L4.75 -10.05 4.7 -10.0 4.75 -10.0 M-1.4 -1.5 L1.1 -2.25 2.05 -1.9 2.05 0.15 2.3 0.75 Q2.25 1.9 1.75 1.4 L1.75 -1.5 -1.4 -1.5 -1.4 1.1 -2.15 0.85 -1.4 -1.5 M0.55 -2.7 L0.55 -2.25 0.1 -2.25 0.1 -2.7 0.55 -2.7 M1.4 1.55 L1.05 2.5 -1.15 1.55 1.4 1.55 M4.85 -1.55 Q4.45 -2.45 4.45 -3.05 4.45 -4.3 5.6 -4.3 6.35 -4.3 6.9 -2.95 L7.3 -1.35 7.2 -0.75 Q6.95 -0.35 6.15 -0.35 5.35 -0.35 4.85 -1.55 M8.85 3.7 L6.3 4.35 3.85 1.5 3.75 -0.25 Q3.6 -1.35 3.05 -2.2 L3.65 -1.4 Q4.7 0.0 4.15 1.65 L6.2 4.0 8.85 3.7 M2.8 -0.05 Q2.25 -0.2 2.95 -0.1 L2.8 -0.05 M5.15 -1.75 Q5.6 -0.7 6.2 -0.7 6.85 -0.7 6.95 -1.05 L6.95 -1.5 Q6.95 -3.05 5.9 -3.75 4.8 -4.4 4.8 -3.0 4.8 -2.55 5.15 -1.75 M8.4 -1.75 L9.15 -0.65 9.95 -1.75 8.4 -1.75 M0.0 -0.45 L-0.55 -0.05 -0.4 0.15 -0.05 0.35 Q0.45 0.35 0.55 0.05 0.55 -0.45 0.0 -0.45 M9.85 0.2 L9.45 0.3 Q9.3 1.15 9.85 0.25 L9.9 0.2 9.85 0.2 M-0.9 -0.05 Q-0.9 -0.8 0.0 -0.85 0.85 -0.9 0.85 0.05 0.85 0.7 0.0 0.7 -0.45 0.7 -0.7 0.35 L-0.9 -0.05 M6.85 5.9 L6.8 5.85 Q6.3 5.65 6.3 6.25 L6.2 6.0 Q6.45 5.1 6.85 5.9 M6.6 6.65 L7.3 6.45 7.9 7.8 9.6 7.7 10.0 5.7 9.4 6.65 5.9 5.25 4.5 3.9 4.4 4.8 5.6 7.35 7.65 8.1 6.6 6.65 M2.6 2.55 L1.75 2.85 3.5 3.8 Q4.4 2.45 2.6 2.55" fill="#000000" fill-rule="evenodd" stroke="none"/>
      <path d="M-2.65 -0.25 L-2.65 0.1 -2.2 0.1 -2.2 -0.25 -2.65 -0.25 M-2.05 -2.4 Q-1.65 -2.8 -1.15 -3.0 L1.45 -3.0 0.05 -3.6 0.65 -11.35 0.75 -3.95 2.1 -3.15 3.05 -2.2 Q3.6 -1.35 3.75 -0.25 L3.85 1.5 6.3 4.35 8.85 3.7 9.2 3.65 10.85 5.3 6.1 4.95 3.5 1.35 3.1 0.05 Q2.45 3.75 -1.4 2.5 L-1.95 1.75 Q-1.15 1.4 -2.05 1.3 L-2.05 1.6 -2.9 0.45 -2.05 -2.4 M-1.05 -2.15 Q-1.9 -2.05 -1.05 -2.05 L-1.05 -2.15 M6.85 -6.55 L7.65 -4.55 6.3 -5.35 6.2 -8.05 6.6 -7.15 6.85 -6.55 M0.55 -2.7 L0.1 -2.7 0.1 -2.25 0.55 -2.25 0.55 -2.7 M1.75 1.4 Q2.25 1.9 2.3 0.75 L2.05 0.15 2.05 -1.9 1.1 -2.25 -1.4 -1.5 -2.15 0.85 -1.4 1.1 -1.15 1.55 1.05 2.5 1.4 1.55 1.75 1.55 1.75 1.4 M2.8 -0.05 L2.95 -0.1 Q2.25 -0.2 2.8 -0.05 M0.0 -0.45 Q0.55 -0.45 0.55 0.05 0.45 0.35 -0.05 0.35 L-0.4 0.15 -0.55 -0.05 0.0 -0.45 M6.3 6.25 Q6.3 5.65 6.8 5.85 L6.85 5.9 Q7.3 6.0 7.3 6.4 L7.3 6.45 6.6 6.65 Q6.3 6.55 6.3 6.25" fill="#ffe711" fill-rule="evenodd" stroke="none"/>
      <path d="M6.6 -7.15 L9.45 -7.2 7.45 -5.65 6.85 -6.55 6.6 -7.15 M2.1 -3.15 L0.95 -4.15 1.35 -6.5 1.6 -5.8 3.75 -5.4 5.15 -8.4 5.55 -6.0 7.6 -4.2 9.2 3.65 8.85 3.7 6.2 4.0 4.15 1.65 Q4.7 0.0 3.65 -1.4 L3.05 -2.2 2.1 -3.15 M-1.4 -1.5 L1.75 -1.5 1.75 1.4 1.75 1.55 1.4 1.55 -1.15 1.55 -1.4 1.1 -1.4 -1.5 M4.85 -1.55 Q5.35 -0.35 6.15 -0.35 6.95 -0.35 7.2 -0.75 L7.3 -1.35 6.9 -2.95 Q6.35 -4.3 5.6 -4.3 4.45 -4.3 4.45 -3.05 4.45 -2.45 4.85 -1.55 M8.4 -1.75 L9.95 -1.75 9.15 -0.65 8.4 -1.75 M-0.9 -0.05 L-0.7 0.35 Q-0.45 0.7 0.0 0.7 0.85 0.7 0.85 0.05 0.85 -0.9 0.0 -0.85 -0.9 -0.8 -0.9 -0.05 M9.85 0.25 Q9.3 1.15 9.45 0.3 L9.85 0.2 9.85 0.25" fill="#999999" fill-rule="evenodd" stroke="none"/>
      <path d="M4.1 -4.3 L4.1 -7.0 5.15 -7.0 5.15 -4.3 4.1 -4.3 M5.85 -0.05 L7.05 -0.5 8.2 1.7 7.1 0.45 5.85 -0.05 M9.7 -1.55 Q9.7 -1.15 9.25 -1.15 L8.7 -1.2 8.6 -1.45 Q8.6 -1.85 9.15 -1.9 9.7 -1.95 9.7 -1.55 M1.35 -0.3 L1.3 -0.05 1.0 0.0 Q0.25 0.0 0.35 -0.75 0.35 -1.4 0.85 -1.0 L1.35 -0.3 M2.35 -10.1 L2.3 -9.8 1.95 -9.75 Q1.35 -9.75 1.2 -10.25 1.2 -10.7 1.8 -10.6 2.35 -10.5 2.35 -10.1 M5.55 -7.55 L5.3 -7.5 Q4.85 -7.5 4.75 -7.75 L4.7 -8.05 4.75 -8.4 Q5.6 -8.65 5.6 -7.95 L5.55 -7.55 M7.65 -7.7 Q8.95 -7.7 8.95 -7.3 8.95 -6.75 7.8 -6.75 6.35 -6.75 6.35 -7.2 6.35 -7.7 7.65 -7.7" fill="#cccccc" fill-rule="evenodd" stroke="none"/>
      <path d="M6.15 -2.4 L6.1 -1.8 Q5.9 -1.0 5.3 -2.35 5.9 -3.05 6.1 -2.55 L5.9 -2.65 Q5.7 -1.95 6.15 -2.4 M5.3 -2.35 Q5.75 -1.8 5.4 -2.35 L5.3 -2.35" fill="#000000" fill-rule="evenodd" stroke="none"/>
      <path d="M6.1 -2.55 L6.15 -2.4 Q5.7 -1.95 5.9 -2.65 L6.1 -2.55 M5.3 -2.35 L5.4 -2.35 Q5.75 -1.8 5.3 -2.35" fill="#ffffff" fill-rule="evenodd" stroke="none"/>
    </g>
    <g id="sprite9" transform="matrix(1.0, 0.0, 0.0, 1.0, 10.1, 6.8)">
      <use height="13.55" transform="matrix(1.0, 0.0, 0.0, 1.0, -10.1, -6.8)" width="20.2" xlink:href="#shape9"/>
    </g>
    <g id="shape9" transform="matrix(1.0, 0.0, 0.0, 1.0, 10.1, 6.8)">
      <path d="M0.15 3.7 L0.15 3.65 0.0 3.7 -0.1 3.7 -0.1 3.8 -0.2 4.35 -0.2 4.6 -0.35 4.6 -0.35 4.95 -0.3 5.0 1.25 4.8 1.95 4.9 1.95 4.95 2.15 5.0 2.3 4.95 2.4 4.8 2.35 4.6 2.7 3.8 2.65 3.65 1.7 3.6 0.15 3.7 M2.0 4.6 L1.4 4.4 0.9 4.5 0.2 4.6 0.2 4.0 2.15 3.95 2.0 4.6 M8.25 -5.95 L7.95 -5.4 8.0 -5.3 8.05 -5.3 7.35 -3.25 6.55 -0.3 5.1 3.3 4.3 5.25 3.8 5.35 0.45 5.45 -3.65 4.95 -3.65 4.85 -5.25 2.2 -6.7 -0.4 -7.95 -3.75 -8.65 -5.45 -1.6 -5.1 5.0 -5.55 8.25 -5.95 M9.35 -6.45 L9.7 -6.45 9.8 -5.75 Q9.8 -5.05 8.9 -2.8 L7.7 0.0 Q5.8 5.0 5.7 5.85 L4.0 6.05 2.0 6.1 -1.75 6.3 -4.5 5.85 -4.85 5.65 -4.85 5.6 -6.65 2.95 -8.0 0.25 -9.1 -2.5 -9.75 -4.95 -9.55 -5.3 Q-9.55 -5.5 -9.15 -5.5 L-8.25 -3.4 -6.95 -0.1 -5.55 2.55 -4.2 4.6 -4.1 4.7 -3.8 5.05 -3.75 5.05 -3.5 5.3 -2.9 5.6 2.15 5.8 4.2 5.65 4.3 5.8 Q5.0 4.85 5.7 2.95 L6.75 0.1 Q7.25 -0.8 7.6 -2.75 L8.3 -5.3 8.35 -5.3 8.4 -5.35 Q8.35 -5.65 8.8 -6.05 L8.9 -6.05 8.9 -6.1 9.35 -6.45" fill="#6d4b2c" fill-rule="evenodd" stroke="none"/>
      <path d="M9.55 -6.8 L10.05 -6.3 10.1 -5.75 8.4 -0.7 6.25 5.45 6.3 5.55 6.1 5.85 6.0 6.05 5.85 6.05 5.35 6.35 1.35 6.6 -1.5 6.65 -3.9 6.5 Q-4.85 6.2 -5.2 5.75 -6.2 5.3 -8.25 0.5 L-10.1 -4.9 -10.1 -5.5 -9.9 -5.5 -9.85 -5.75 -9.1 -5.85 -8.75 -5.6 -8.5 -5.8 -7.15 -5.8 -4.2 -5.7 -2.15 -5.55 -1.55 -5.45 5.25 -5.85 8.65 -6.4 Q9.05 -6.8 9.55 -6.8 M9.35 -6.45 L8.9 -6.1 8.9 -6.05 8.8 -6.05 Q8.35 -5.65 8.4 -5.35 L8.35 -5.3 8.3 -5.3 7.6 -2.75 Q7.25 -0.8 6.75 0.1 L5.7 2.95 Q5.0 4.85 4.3 5.8 L4.2 5.65 2.15 5.8 -2.9 5.6 -3.5 5.3 -3.75 5.05 -3.8 5.05 -4.1 4.7 -4.2 4.6 -5.55 2.55 -6.95 -0.1 -8.25 -3.4 -9.15 -5.5 Q-9.55 -5.5 -9.55 -5.3 L-9.75 -4.95 -9.1 -2.5 -8.0 0.25 -6.65 2.95 -4.85 5.6 -4.85 5.65 -4.5 5.85 -1.75 6.3 2.0 6.1 4.0 6.05 5.7 5.85 Q5.8 5.0 7.7 0.0 L8.9 -2.8 Q9.8 -5.05 9.8 -5.75 L9.7 -6.45 9.35 -6.45 M8.25 -5.95 L5.0 -5.55 -1.6 -5.1 -8.65 -5.45 -7.95 -3.75 -6.7 -0.4 -5.25 2.2 -3.65 4.85 -3.65 4.95 0.45 5.45 3.8 5.35 4.3 5.25 5.1 3.3 6.55 -0.3 7.35 -3.25 8.05 -5.3 8.0 -5.3 7.95 -5.4 8.25 -5.95 M2.0 4.6 L2.15 3.95 0.2 4.0 0.2 4.6 0.9 4.5 1.4 4.4 2.0 4.6 M0.15 3.7 L1.7 3.6 2.65 3.65 2.7 3.8 2.35 4.6 2.4 4.8 2.3 4.95 2.15 5.0 1.95 4.95 1.95 4.9 1.25 4.8 -0.3 5.0 -0.35 4.95 -0.35 4.6 -0.2 4.6 -0.2 4.35 -0.1 3.8 -0.1 3.7 0.0 3.7 0.15 3.65 0.15 3.7" fill="#000000" fill-rule="evenodd" stroke="none"/>
    </g>
    <g id="sprite10" transform="matrix(1.0, 0.0, 0.0, 1.0, 14.7, 5.6)">
      <use height="11.15" transform="matrix(1.0, 0.0, 0.0, 1.0, -14.7, -5.6)" width="29.4" xlink:href="#shape10"/>
    </g>
    <g id="shape10" transform="matrix(1.0, 0.0, 0.0, 1.0, 14.7, 5.6)">
      <path d="M14.7 3.05 Q14.7 3.6 10.65 4.55 6.55 5.55 4.25 5.55 -0.65 5.55 -3.95 4.0 -5.8 3.1 -8.25 1.3 -11.9 -0.9 -13.15 -3.2 L-13.2 -3.2 -14.7 -5.2 Q-14.7 -6.3 -13.35 -4.25 L-13.0 -4.15 -12.95 -3.8 Q-12.95 -2.05 -7.45 1.25 -1.3 5.0 4.25 5.0 7.65 5.0 10.55 4.1 12.15 3.65 14.15 2.8 L14.65 2.8 14.7 3.05" fill="#000000" fill-rule="evenodd" stroke="none"/>
    </g>
    <g id="sprite11" transform="matrix(1.0, 0.0, 0.0, 1.0, 2.5, 2.15)">
      <use height="11.45" transform="matrix(1.0, 0.0, 0.0, 1.0, -2.5, -2.15)" width="5.35" xlink:href="#shape11"/>
    </g>
    <g id="shape11" transform="matrix(1.0, 0.0, 0.0, 1.0, 2.5, 2.15)">
      <path d="M1.7 3.4 L1.65 5.15 1.3 6.75 0.45 6.55 -1.65 6.4 -2.05 4.2 Q-2.45 0.85 -1.35 0.0 -0.95 -0.3 -0.2 -0.4 0.7 -0.45 1.1 0.05 1.55 0.6 1.65 2.3 L1.7 3.3 1.45 2.65 1.3 1.85 Q1.15 1.35 1.15 0.3 0.85 0.2 0.55 0.45 L0.9 3.55 0.75 4.4 0.55 5.3 Q0.55 5.85 1.15 6.05 L1.35 5.6 1.55 4.4 1.7 3.4 M-1.0 8.0 L-1.6 6.8 -1.1 6.85 -0.35 6.65 0.55 6.75 1.2 7.2 0.75 8.65 Q0.0 9.25 -1.0 8.0 M1.75 -1.2 L2.4 -0.45 2.5 1.1 2.3 2.9 2.0 2.85 Q1.95 0.55 1.65 0.15 0.95 -0.75 -0.2 -0.7 L-0.7 -0.6 -0.6 -0.8 -0.15 -1.45 Q0.8 -2.2 1.75 -1.2" fill="#999999" fill-rule="evenodd" stroke="none"/>
      <path d="M2.8 -0.4 L2.75 -0.3 2.85 1.4 2.6 3.1 2.25 3.15 2.0 3.15 1.95 5.35 Q1.9 8.15 0.9 8.95 L0.1 9.3 Q-0.5 9.25 -1.3 8.15 -2.4 6.8 -2.5 2.95 -2.65 0.65 -1.5 -0.3 L-1.1 -0.5 Q-1.25 -0.8 -0.45 -1.7 0.9 -2.75 2.1 -1.25 L2.8 -0.4 M1.75 -1.2 Q0.8 -2.2 -0.15 -1.45 L-0.6 -0.8 -0.7 -0.6 -0.2 -0.7 Q0.95 -0.75 1.65 0.15 1.95 0.55 2.0 2.85 L2.3 2.9 2.5 1.1 2.4 -0.45 1.75 -1.2 M-1.0 8.0 Q0.0 9.25 0.75 8.65 L1.2 7.2 0.55 6.75 -0.35 6.65 -1.1 6.85 -1.6 6.8 -1.0 8.0 M1.7 3.3 L1.65 2.3 Q1.55 0.6 1.1 0.05 0.7 -0.45 -0.2 -0.4 -0.95 -0.3 -1.35 0.0 -2.45 0.85 -2.05 4.2 L-1.65 6.4 0.45 6.55 1.3 6.75 1.65 5.15 1.7 3.4 1.7 3.3" fill="#000000" fill-rule="evenodd" stroke="none"/>
      <path d="M1.7 3.4 L1.55 4.4 1.35 5.6 1.15 6.05 Q0.55 5.85 0.55 5.3 L0.75 4.4 0.9 3.55 0.55 0.45 Q0.85 0.2 1.15 0.3 1.15 1.35 1.3 1.85 L1.45 2.65 1.7 3.3 1.7 3.4" fill="#d9d9d9" fill-rule="evenodd" stroke="none"/>
    </g>
    <g id="sprite12" transform="matrix(1.0, 0.0, 0.0, 1.0, 3.25, 9.9)">
      <use height="12.1" transform="matrix(1.0, 0.0, 0.0, 1.0, -3.25, -9.9)" width="8.75" xlink:href="#shape12"/>
    </g>
    <g id="shape12" transform="matrix(1.0, 0.0, 0.0, 1.0, 3.25, 9.9)">
      <path d="M1.25 -1.45 L3.0 -0.3 4.65 1.0 4.35 -1.4 Q4.35 -2.1 4.7 -3.4 L5.2 -4.75 5.05 -4.75 5.0 -4.9 4.2 -5.35 3.3 -5.9 0.8 -5.85 0.6 -6.0 5.15 -6.4 5.1 -6.7 5.2 -7.25 3.6 -8.45 1.7 -9.5 1.5 -9.15 1.15 -8.8 1.1 -9.0 1.25 -9.4 0.3 -9.15 -1.6 -8.5 -2.7 -7.3 -2.0 -7.0 -2.0 -6.8 -2.15 -6.75 -2.7 -6.9 -2.85 -6.95 -2.6 -6.3 Q-2.1 -4.9 -2.1 -3.9 L-2.25 -2.85 -2.5 -2.15 -2.4 -2.0 -2.15 -2.05 -2.15 -2.1 -1.95 -2.1 -1.85 -2.1 -0.75 -2.15 Q-0.1 -2.15 0.95 -1.6 L0.1 -3.4 0.55 -3.25 0.7 -2.75 1.3 -1.65 1.25 -1.5 1.2 -1.5 1.25 -1.45 M5.45 -7.55 L5.5 -7.25 5.5 -7.15 5.45 -7.0 5.45 -6.5 5.45 -6.2 5.4 -6.15 5.0 -6.0 4.85 -5.4 4.8 -5.35 4.85 -5.35 5.1 -5.15 5.15 -5.15 5.4 -4.9 5.4 -4.75 Q4.65 -2.45 4.65 -1.35 L4.85 0.1 5.35 1.7 5.3 1.75 5.25 1.9 2.75 0.05 2.15 1.05 1.9 1.75 Q1.65 2.2 1.1 2.2 -0.45 2.2 -1.65 1.5 -2.65 0.95 -2.65 0.45 L-2.2 -1.65 -2.2 -1.7 -2.25 -1.7 -2.25 -1.65 -2.3 -1.5 -2.55 -1.5 -2.9 -2.0 -3.0 -2.15 -3.0 -2.2 -2.4 -3.9 Q-2.4 -5.45 -3.1 -7.0 L-3.25 -7.1 Q-3.25 -7.9 -1.75 -8.8 -0.25 -9.75 1.35 -9.75 L1.65 -9.9 Q2.2 -9.9 3.85 -8.75 L5.3 -7.55 5.45 -7.55 M2.0 -0.55 Q0.5 -1.8 -0.8 -1.8 L-1.8 -1.75 -2.3 0.4 Q-2.3 0.9 -1.3 1.35 L1.05 1.85 1.9 0.85 2.5 -0.15 2.0 -0.55" fill="#000000" fill-rule="evenodd" stroke="none"/>
      <path d="M1.25 -1.5 L1.3 -1.65 0.7 -2.75 0.55 -3.25 0.1 -3.4 0.95 -1.6 Q-0.1 -2.15 -0.75 -2.15 L-1.85 -2.1 -1.95 -2.1 -2.15 -2.1 -2.15 -2.05 -2.4 -2.0 -2.5 -2.15 -2.25 -2.85 -2.1 -3.9 Q-2.1 -4.9 -2.6 -6.3 L-2.85 -6.95 -2.7 -6.9 -2.15 -6.75 -2.0 -6.8 -2.0 -7.0 -2.7 -7.3 -1.6 -8.5 0.3 -9.15 1.25 -9.4 1.1 -9.0 1.15 -8.8 1.5 -9.15 1.7 -9.5 3.6 -8.45 5.2 -7.25 5.1 -6.7 5.15 -6.4 0.6 -6.0 0.8 -5.85 3.3 -5.9 4.2 -5.35 5.0 -4.9 5.05 -4.75 5.2 -4.75 4.7 -3.4 Q4.35 -2.1 4.35 -1.4 L4.65 1.0 3.0 -0.3 1.25 -1.45 1.25 -1.5 M2.0 -0.55 L2.5 -0.15 1.9 0.85 1.05 1.85 -1.3 1.35 Q-2.3 0.9 -2.3 0.4 L-1.8 -1.75 -0.8 -1.8 Q0.5 -1.8 2.0 -0.55" fill="#999999" fill-rule="evenodd" stroke="none"/>
      <path d="M2.2 -9.2 L2.2 -9.3 2.5 -9.15 3.4 -8.6 4.5 -7.65 4.45 -7.4 4.2 -7.35 Q3.85 -7.35 3.55 -7.7 3.45 -7.75 3.45 -7.75 L2.95 -7.35 0.5 -7.5 -1.65 -7.1 Q-2.25 -7.1 -2.25 -7.55 -2.25 -8.2 0.0 -9.0 L2.15 -9.2 2.2 -9.2 M0.25 -4.15 L0.5 -4.5 0.7 -4.35 0.7 -4.45 0.75 -4.5 Q2.3 -3.25 4.25 -0.25 L4.1 0.0 4.4 0.25 4.15 0.5 Q3.9 0.5 3.5 0.1 L3.5 -0.05 Q3.05 -0.2 2.65 -0.6 1.85 -0.6 0.75 -3.05 L0.8 -3.1 0.25 -4.15" fill="#d9d9d9" fill-rule="evenodd" stroke="none"/>
    </g>
    <g id="sprite13" transform="matrix(1.0, 0.0, 0.0, 1.0, 2.6, 2.0)">
      <use height="6.55" transform="matrix(1.0, 0.0, 0.0, 1.0, -2.6, -2.0)" width="5.25" xlink:href="#shape13"/>
    </g>
    <g id="shape13" transform="matrix(1.0, 0.0, 0.0, 1.0, 2.6, 2.0)">
      <path d="M0.45 -0.95 L0.05 -1.25 -0.35 -1.05 -0.45 -0.75 Q-0.45 -0.15 0.1 -0.15 0.6 -0.15 0.6 -0.6 L0.45 -0.95 M0.25 -0.6 L0.15 -0.5 -0.1 -0.7 -0.05 -0.85 0.25 -0.6 M0.8 -0.9 Q0.65 -0.8 0.65 -0.5 L0.9 -0.1 1.15 0.25 1.4 0.1 1.4 -0.2 1.75 0.3 1.65 0.5 -0.6 0.2 Q-1.05 0.2 -1.65 0.9 L-1.95 1.3 -2.0 1.15 -2.25 0.15 -2.0 -0.05 -1.55 0.0 Q-0.75 0.0 -0.75 -0.4 L-0.6 -0.85 -0.7 -1.0 0.25 -1.65 0.8 -0.9 M-1.05 3.05 Q-1.5 2.7 -1.6 2.15 L0.0 2.95 Q0.95 3.4 1.4 3.85 L0.85 4.2 -1.05 3.05 M-1.65 1.85 L-1.7 1.6 Q-1.7 1.25 -1.15 0.95 0.05 1.05 1.2 1.8 L2.2 2.6 1.8 3.3 1.6 3.65 0.35 2.8 Q-1.2 1.85 -1.55 1.85 L-1.65 1.85 M-2.2 2.6 L-2.1 2.1 -1.15 3.4 -0.4 4.05 -0.65 4.05 -2.2 2.6 M-0.75 1.3 L-0.65 1.7 Q-0.05 1.75 0.7 2.2 L1.4 2.65 1.6 2.55 1.65 2.45 0.6 1.5 Q-0.4 0.9 -0.75 1.3 M2.25 2.0 L1.5 1.35 Q0.6 0.75 -0.35 0.6 L0.95 0.75 Q2.05 1.15 2.25 2.0" fill="#999999" fill-rule="evenodd" stroke="none"/>
      <path d="M0.25 -0.6 L-0.05 -0.85 -0.1 -0.7 0.15 -0.5 0.25 -0.6 M0.45 -0.95 L0.6 -0.6 Q0.6 -0.15 0.1 -0.15 -0.45 -0.15 -0.45 -0.75 L-0.35 -1.05 0.05 -1.25 0.45 -0.95 M0.8 -0.9 L0.25 -1.65 -0.7 -1.0 -0.85 -1.1 -1.5 -0.8 Q-0.2 -2.0 0.3 -2.0 L2.15 0.2 1.95 0.65 2.4 1.05 2.65 2.5 2.05 3.6 1.85 3.9 1.8 4.0 1.75 4.0 Q1.3 4.55 0.95 4.55 L0.0 4.3 -0.15 4.35 -0.6 4.55 -1.7 3.55 -2.5 2.55 -2.25 1.55 -2.45 1.0 -2.6 0.15 -2.1 -0.3 -2.0 -0.05 -2.25 0.15 -2.0 1.15 -1.95 1.3 -1.65 0.9 Q-1.05 0.2 -0.6 0.2 L1.65 0.5 1.75 0.3 1.4 -0.2 0.9 -1.0 0.8 -0.9 M-2.2 2.6 L-0.65 4.05 -0.4 4.05 -1.15 3.4 -2.1 2.1 -2.2 2.6 M-1.65 1.85 L-1.55 1.85 Q-1.2 1.85 0.35 2.8 L1.6 3.65 1.8 3.3 2.2 2.6 1.2 1.8 Q0.05 1.05 -1.15 0.95 -1.7 1.25 -1.7 1.6 L-1.65 1.85 M-1.05 3.05 L0.85 4.2 1.4 3.85 Q0.95 3.4 0.0 2.95 L-1.6 2.15 Q-1.5 2.7 -1.05 3.05 M2.25 2.0 Q2.05 1.15 0.95 0.75 L-0.35 0.6 Q0.6 0.75 1.5 1.35 L2.25 2.0" fill="#000000" fill-rule="evenodd" stroke="none"/>
      <path d="M1.4 -0.2 L1.4 0.1 1.15 0.25 0.9 -0.1 0.65 -0.5 Q0.65 -0.8 0.8 -0.9 L0.9 -1.0 1.4 -0.2 M-0.7 -1.0 L-0.6 -0.85 -0.75 -0.4 Q-0.75 0.0 -1.55 0.0 L-2.0 -0.05 -2.1 -0.3 -2.1 -0.35 Q-2.1 -0.75 -1.7 -0.8 L-1.5 -0.8 -0.85 -1.1 -0.7 -1.0 M-0.75 1.3 Q-0.4 0.9 0.6 1.5 L1.65 2.45 1.6 2.55 1.4 2.65 0.7 2.2 Q-0.05 1.75 -0.65 1.7 L-0.75 1.3" fill="#d9d9d9" fill-rule="evenodd" stroke="none"/>
    </g>
    <g id="sprite14" transform="matrix(1.0, 0.0, 0.0, 1.0, 3.8, 2.1)">
      <use height="14.15" transform="matrix(1.0, 0.0, 0.0, 1.0, -3.8, -2.1)" width="7.65" xlink:href="#shape14"/>
    </g>
    <g id="shape14" transform="matrix(1.0, 0.0, 0.0, 1.0, 3.8, 2.1)">
      <path d="M0.2 -1.65 Q-2.2 -1.95 -2.85 -1.15 -3.25 -0.7 -3.35 1.4 L-3.45 3.65 Q-3.6 4.6 -3.2 6.65 L-2.75 8.6 -2.0 10.45 Q-1.6 11.65 -1.3 11.45 -0.55 12.05 0.3 11.7 L1.45 10.95 Q2.35 9.85 2.95 4.55 L3.4 -0.65 Q2.4 -1.45 0.2 -1.65 M3.8 -0.5 L3.75 -0.4 Q4.0 0.65 3.35 4.95 2.55 10.05 1.7 11.1 L0.45 11.95 Q-0.65 12.35 -1.75 11.4 -2.4 10.85 -2.9 9.1 -3.55 8.4 -3.75 6.3 L-3.75 3.4 Q-3.7 -0.8 -3.2 -1.4 -2.25 -2.55 1.0 -1.8 4.25 -1.05 3.8 -0.5" fill="#000000" fill-rule="evenodd" stroke="none"/>
      <path d="M0.2 -1.65 Q2.4 -1.45 3.4 -0.65 L2.95 4.55 Q2.35 9.85 1.45 10.95 L0.3 11.7 Q-0.55 12.05 -1.3 11.45 -1.6 11.65 -2.0 10.45 L-2.75 8.6 -3.2 6.65 Q-3.6 4.6 -3.45 3.65 L-3.35 1.4 Q-3.25 -0.7 -2.85 -1.15 -2.2 -1.95 0.2 -1.65" fill="#999999" fill-rule="evenodd" stroke="none"/>
      <path d="M2.6 5.05 Q1.95 8.2 1.25 9.3 L0.6 8.6 Q0.6 7.6 1.6 3.95 L2.4 1.2 Q2.3 0.7 2.7 1.0 L3.15 1.8 2.6 5.05" fill="#d9d9d9" fill-rule="evenodd" stroke="none"/>
    </g>
    <g id="sprite15" transform="matrix(1.0, 0.0, 0.0, 1.0, 4.0, 3.8)">
      <use height="20.4" transform="matrix(1.0, 0.0, 0.0, 1.0, -4.0, -3.8)" width="11.4" xlink:href="#shape15"/>
    </g>
    <g id="shape15" transform="matrix(1.0, 0.0, 0.0, 1.0, 4.0, 3.8)">
      <path d="M1.75 -3.8 L1.8 -3.75 1.9 -3.8 3.0 -2.05 4.25 -1.4 3.5 -0.4 3.5 -0.35 3.5 0.9 3.35 1.85 3.35 2.2 2.95 4.05 Q2.5 6.35 2.75 7.35 L2.5 7.45 2.45 7.35 2.55 8.9 2.4 9.0 2.2 8.8 2.15 9.6 2.15 10.75 2.05 10.85 2.25 12.6 Q2.7 12.5 4.7 13.3 L4.7 13.5 6.35 14.3 6.3 14.5 7.35 15.95 7.4 16.2 7.3 16.35 5.9 16.35 5.25 16.15 3.15 16.1 2.35 15.95 2.3 16.0 2.0 16.1 Q-1.25 17.35 -1.7 15.5 L-1.65 13.95 -1.35 12.75 -1.45 12.65 -1.45 12.6 Q-1.2 10.8 -1.5 9.45 L-2.8 6.25 -2.65 4.25 -2.4 3.15 -2.65 3.2 -2.75 3.05 -2.55 1.7 Q-2.65 1.25 -3.3 1.0 L-4.0 0.75 -4.0 0.65 Q-4.1 0.25 -0.05 -1.55 L1.1 -2.7 1.7 -3.75 1.75 -3.8 M3.2 -0.15 Q3.0 -0.1 2.95 -0.25 L1.95 -0.9 1.05 -0.85 1.0 -0.95 1.0 -1.15 1.35 -1.2 2.0 -1.25 2.35 -1.3 2.5 -1.4 2.8 -1.6 1.85 -3.3 1.45 -2.45 0.4 -1.4 Q0.2 -1.2 -3.35 0.55 L-2.85 0.8 -2.35 1.25 -0.5 -0.25 -0.45 -0.1 -1.1 0.6 -2.2 1.55 -2.25 2.25 -2.3 2.5 Q-0.5 0.6 0.25 0.4 L0.6 0.4 Q1.55 0.25 2.5 0.8 L3.15 1.4 3.1 0.7 3.3 -0.15 3.3 -0.2 3.2 -0.15 M3.2 -1.6 L2.3 -0.95 3.05 -0.45 3.85 -1.3 Q3.45 -1.45 3.2 -1.6 M3.1 1.9 L3.15 1.8 2.45 1.15 Q1.6 0.6 0.65 0.75 0.4 3.3 0.5 3.7 L1.55 5.4 2.2 6.45 2.25 6.4 2.3 6.45 Q2.3 5.6 2.6 4.0 L3.1 1.95 3.1 1.9 M0.35 0.8 L0.35 0.75 0.3 0.8 -1.35 1.8 -2.0 2.6 -2.0 2.7 -2.5 6.15 -1.2 9.45 Q-1.05 10.05 -1.05 11.1 L-1.25 12.4 -1.2 12.4 -1.1 12.3 -1.05 12.45 -0.15 12.6 1.05 13.15 1.7 13.5 1.8 13.1 1.95 12.85 1.85 12.65 Q1.7 12.05 1.7 11.2 L1.75 10.45 0.85 9.35 Q0.6 8.45 1.0 7.6 L0.5 7.05 0.4 4.55 0.5 4.45 0.2 3.75 Q0.0 1.65 0.35 0.8 M0.85 5.05 L0.85 6.85 2.0 8.3 2.05 8.25 2.15 8.35 2.05 6.75 1.15 5.5 0.85 5.05 M1.2 8.3 L1.15 9.2 1.7 9.8 1.75 9.0 Q1.75 8.7 1.9 8.5 L1.25 7.9 1.2 8.3 M6.05 15.2 L5.75 15.9 5.75 16.0 6.6 16.1 7.05 16.0 6.7 15.35 6.25 14.85 6.05 15.2 M6.0 14.5 L4.6 13.85 4.45 14.3 4.0 15.35 4.0 15.6 5.45 15.8 5.7 15.15 6.0 14.5 M3.5 15.25 L3.7 15.25 Q3.65 14.95 4.0 14.35 L4.35 13.55 Q3.95 13.25 2.9 13.05 L2.35 12.95 2.15 13.3 1.9 13.65 1.95 13.65 2.15 14.35 2.3 15.15 2.45 15.1 3.4 15.2 3.45 15.2 3.5 15.25 M0.6 13.2 Q-0.15 12.75 -1.1 12.65 L-1.25 13.7 -1.35 15.4 -0.9 16.05 1.7 15.85 Q2.0 15.35 1.8 14.5 1.6 13.7 0.6 13.2 M2.4 15.65 L3.1 15.75 3.15 15.65 Q2.5 15.65 2.3 15.4 L2.3 15.75 2.4 15.65" fill="#000000" fill-rule="evenodd" stroke="none"/>
      <path d="M3.3 -0.15 L3.1 0.7 3.15 1.4 2.5 0.8 Q1.55 0.25 0.6 0.4 L0.25 0.4 Q-0.5 0.6 -2.3 2.5 L-2.25 2.25 -2.2 1.55 -1.1 0.6 -0.45 -0.1 -0.5 -0.25 -2.35 1.25 -2.85 0.8 -3.35 0.55 Q0.2 -1.2 0.4 -1.4 L1.45 -2.45 1.85 -3.3 2.8 -1.6 2.5 -1.4 2.35 -1.3 2.0 -1.25 1.35 -1.2 1.0 -1.15 1.0 -0.95 1.05 -0.85 1.95 -0.9 2.95 -0.25 Q3.0 -0.1 3.2 -0.15 L3.3 -0.15 M3.1 1.9 L3.1 1.95 2.6 4.0 Q2.3 5.6 2.3 6.45 L2.25 6.4 2.2 6.45 1.55 5.4 0.5 3.7 Q0.4 3.3 0.65 0.75 1.6 0.6 2.45 1.15 L3.15 1.8 3.1 1.9 M3.2 -1.6 Q3.45 -1.45 3.85 -1.3 L3.05 -0.45 2.3 -0.95 3.2 -1.6 M0.3 0.8 L0.35 0.8 Q0.0 1.65 0.2 3.75 L0.5 4.45 0.4 4.55 0.5 7.05 1.0 7.6 Q0.6 8.45 0.85 9.35 L1.75 10.45 1.7 11.2 Q1.7 12.05 1.85 12.65 L1.95 12.85 1.8 13.1 1.7 13.5 1.05 13.15 -0.15 12.6 -1.05 12.45 -1.1 12.3 -1.2 12.4 -1.25 12.4 -1.05 11.1 Q-1.05 10.05 -1.2 9.45 L-2.5 6.15 -2.0 2.7 -2.0 2.6 -1.35 1.8 0.3 0.8 M2.4 15.65 L2.3 15.75 2.3 15.4 Q2.5 15.65 3.15 15.65 L3.1 15.75 2.4 15.65 M0.6 13.2 Q1.6 13.7 1.8 14.5 2.0 15.35 1.7 15.85 L-0.9 16.05 -1.35 15.4 -1.25 13.7 -1.1 12.65 Q-0.15 12.75 0.6 13.2 M3.5 15.25 L3.45 15.2 3.4 15.2 2.45 15.1 2.3 15.15 2.15 14.35 1.95 13.65 1.9 13.65 2.15 13.3 2.35 12.95 2.9 13.05 Q3.95 13.25 4.35 13.55 L4.0 14.35 Q3.65 14.95 3.7 15.25 L3.5 15.25 M6.0 14.5 L5.7 15.15 5.45 15.8 4.0 15.6 4.0 15.35 4.45 14.3 4.6 13.85 6.0 14.5 M6.05 15.2 L6.25 14.85 6.7 15.35 7.05 16.0 6.6 16.1 5.75 16.0 5.75 15.9 6.05 15.2 M1.2 8.3 L1.25 7.9 1.9 8.5 Q1.75 8.7 1.75 9.0 L1.7 9.8 1.15 9.2 1.2 8.3 M0.85 5.05 L1.15 5.5 2.05 6.75 2.15 8.35 2.05 8.25 2.0 8.3 0.85 6.85 0.85 5.05" fill="#999999" fill-rule="evenodd" stroke="none"/>
      <path d="M2.35 -2.35 L2.75 -1.9 2.75 -1.7 2.55 -1.55 1.75 -1.8 -1.65 1.0 -2.0 0.7 0.0 -1.2 Q1.5 -2.65 1.95 -2.65 L2.35 -2.35 M2.3 1.15 L2.8 1.7 2.45 1.85 1.55 2.75 1.05 3.05 Q0.75 2.65 0.75 2.2 L0.75 1.3 Q0.75 0.85 1.0 0.8 L1.6 0.85 2.3 1.15 M1.7 5.75 L2.3 6.55 2.3 6.8 2.1 6.9 Q1.6 6.9 1.4 6.55 L1.1 6.7 0.85 6.35 1.05 5.8 1.35 5.45 1.65 5.5 1.75 5.6 1.7 5.75 M1.2 8.1 Q1.35 7.95 1.5 7.95 1.95 7.95 1.95 8.35 L1.9 8.9 1.6 9.0 Q1.25 9.0 1.05 8.3 L1.2 8.1 M5.55 14.6 L4.8 14.7 Q4.7 14.7 4.55 14.55 L4.3 14.25 4.55 13.95 4.8 13.95 Q5.2 13.95 5.6 14.25 L5.55 14.6 M6.05 15.3 L6.0 15.05 6.05 14.85 Q6.7 14.85 6.7 15.25 L6.7 15.35 6.35 15.5 6.05 15.3 M4.05 13.9 L3.75 14.0 2.8 13.75 2.7 14.15 2.5 14.2 2.25 14.15 2.15 13.3 Q2.15 12.65 2.8 12.65 3.45 12.65 3.8 13.05 L4.05 13.9 M0.05 13.75 L-0.5 13.85 -0.95 13.75 -1.1 13.3 -0.95 12.85 -0.6 12.55 -0.3 12.55 -0.4 13.05 0.05 13.4 0.05 13.75 M-0.15 1.6 L-0.05 1.8 Q-0.05 2.55 -0.55 3.8 -1.15 5.35 -1.85 5.35 L-2.3 5.3 -2.4 5.05 Q-1.15 1.35 -0.25 1.55 L-0.15 1.6" fill="#d9d9d9" fill-rule="evenodd" stroke="none"/>
    </g>
    <g id="sprite16" transform="matrix(1.0, 0.0, 0.0, 1.0, 8.2, 8.25)">
      <use height="16.45" transform="matrix(1.0, 0.0, 0.0, 1.0, -8.2, -8.25)" width="16.35" xlink:href="#shape16"/>
    </g>
    <g id="shape16" transform="matrix(1.0, 0.0, 0.0, 1.0, 8.2, 8.25)">
      <path d="M-0.7 6.3 L-0.7 6.25 -0.7 6.3" fill="#999999" fill-rule="evenodd" stroke="none"/>
      <path d="M0.75 -7.35 Q-0.3 -6.8 -0.3 -6.3 L-0.45 -6.25 -0.95 -5.3 -0.95 -5.25 Q-0.95 -4.25 -2.05 -2.15 -3.2 0.15 -4.1 0.2 L-4.15 0.05 -3.35 -0.65 Q-2.45 -1.4 -2.15 -2.55 L-2.4 -2.45 Q-3.15 -2.0 -3.85 -1.8 -5.0 -1.4 -6.75 -1.1 L-6.9 -0.8 -5.95 0.7 -4.45 3.1 -4.2 4.15 -3.7 5.05 Q-3.45 5.3 -3.25 6.2 -3.05 6.95 -2.7 6.95 -1.0 6.95 0.7 0.8 L1.7 -2.6 Q1.9 -3.4 2.7 -4.1 3.9 -5.2 5.85 -5.2 L6.9 -4.85 Q7.2 -4.7 7.45 -4.6 L6.4 -6.1 Q4.85 -7.9 3.15 -7.9 1.9 -7.9 0.75 -7.35 M3.0 -8.25 Q4.75 -8.25 6.6 -6.15 L7.95 -4.35 8.05 -4.3 8.05 -4.15 8.15 -3.75 8.1 -3.45 Q7.8 -3.5 7.0 -4.0 L6.3 -4.05 5.35 -4.15 Q3.7 -4.15 2.55 -1.65 L1.55 1.2 0.9 4.05 Q0.6 5.1 -0.15 5.8 L-0.15 5.9 -0.25 6.2 -0.4 6.45 -0.45 6.45 -1.55 7.35 Q-2.7 8.2 -3.05 8.2 L-3.85 7.95 -4.15 7.55 -4.05 6.8 Q-4.05 6.35 -4.6 5.7 L-5.2 4.85 Q-5.2 4.0 -5.65 2.85 -5.9 2.15 -6.75 1.1 L-8.2 -0.7 -8.2 -1.35 -7.95 -1.35 -7.95 -1.3 -3.9 -2.1 Q-2.5 -2.5 -1.95 -3.25 L-1.8 -4.05 -1.4 -4.9 -1.35 -5.25 Q-1.15 -6.25 -0.5 -6.75 L0.65 -7.55 Q2.05 -8.25 3.0 -8.25 M2.55 -6.4 Q1.0 -3.25 0.2 -0.4 L-0.65 3.05 Q-1.35 5.05 -2.55 5.6 L-2.65 5.5 -2.25 5.05 Q-1.65 4.55 -0.9 2.45 L-0.1 -0.55 0.75 -3.6 Q1.3 -5.35 2.45 -6.55 L2.55 -6.4 M0.65 -4.3 L-0.05 -2.3 -0.95 0.2 Q-1.5 3.05 -3.45 4.45 L-3.75 4.45 -3.8 4.3 Q-2.1 3.1 -1.3 -0.1 L-0.5 -2.3 0.6 -4.45 0.65 -4.3 M7.75 -4.0 L7.7 -4.15 7.5 -4.2 7.5 -4.1 7.7 -4.0 7.75 -4.0 M6.85 -4.5 L5.8 -4.9 Q3.0 -4.9 2.15 -2.9 L1.05 1.15 Q0.05 4.8 -1.05 6.3 -0.2 6.05 0.55 3.65 L1.4 0.75 Q2.15 -1.7 2.95 -2.85 4.05 -4.45 5.8 -4.45 L7.15 -4.35 6.85 -4.5 M-1.15 6.4 Q-1.9 7.3 -2.7 7.3 -3.4 7.3 -3.55 6.45 -3.8 5.4 -4.0 5.25 -4.4 4.95 -4.55 4.25 L-4.85 3.1 -6.15 1.05 -7.2 -0.8 -7.1 -1.05 -7.75 -0.95 -6.6 0.75 -5.3 2.7 Q-5.0 3.35 -4.9 4.85 L-4.6 5.1 -4.3 5.25 -4.05 5.7 Q-3.7 6.35 -3.7 6.7 L-3.8 7.55 -3.05 7.85 Q-2.7 7.85 -1.6 7.0 L-0.7 6.3 -0.7 6.25 -1.1 6.45 -1.1 6.35 -1.15 6.4" fill="#000000" fill-rule="evenodd" stroke="none"/>
      <path d="M0.75 -7.35 Q1.9 -7.9 3.15 -7.9 4.85 -7.9 6.4 -6.1 L7.45 -4.6 Q7.2 -4.7 6.9 -4.85 L5.85 -5.2 Q3.9 -5.2 2.7 -4.1 1.9 -3.4 1.7 -2.6 L0.7 0.8 Q-1.0 6.95 -2.7 6.95 -3.05 6.95 -3.25 6.2 -3.45 5.3 -3.7 5.05 L-4.2 4.15 -4.45 3.1 -5.95 0.7 -6.9 -0.8 -6.75 -1.1 Q-5.0 -1.4 -3.85 -1.8 -3.15 -2.0 -2.4 -2.45 L-2.15 -2.55 Q-2.45 -1.4 -3.35 -0.65 L-4.15 0.05 -4.1 0.2 Q-3.2 0.15 -2.05 -2.15 -0.95 -4.25 -0.95 -5.25 L-0.95 -5.3 -0.45 -6.25 -0.3 -6.3 Q-0.3 -6.8 0.75 -7.35 M0.65 -4.3 L0.6 -4.45 -0.5 -2.3 -1.3 -0.1 Q-2.1 3.1 -3.8 4.3 L-3.75 4.45 -3.45 4.45 Q-1.5 3.05 -0.95 0.2 L-0.05 -2.3 0.65 -4.3 M2.55 -6.4 L2.45 -6.55 Q1.3 -5.35 0.75 -3.6 L-0.1 -0.55 -0.9 2.45 Q-1.65 4.55 -2.25 5.05 L-2.65 5.5 -2.55 5.6 Q-1.35 5.05 -0.65 3.05 L0.2 -0.4 Q1.0 -3.25 2.55 -6.4" fill="#d50000" fill-rule="evenodd" stroke="none"/>
      <path d="M-0.7 6.3 L-1.6 7.0 Q-2.7 7.85 -3.05 7.85 L-3.8 7.55 -3.7 6.7 Q-3.7 6.35 -4.05 5.7 L-4.3 5.25 -4.6 5.1 -4.9 4.85 Q-5.0 3.35 -5.3 2.7 L-6.6 0.75 -7.75 -0.95 -7.1 -1.05 -7.2 -0.8 -6.15 1.05 -4.85 3.1 -4.55 4.25 Q-4.4 4.95 -4.0 5.25 -3.8 5.4 -3.55 6.45 -3.4 7.3 -2.7 7.3 -1.9 7.3 -1.15 6.4 L-1.1 6.45 -0.7 6.25 -0.7 6.3 M6.85 -4.5 L7.15 -4.35 5.8 -4.45 Q4.05 -4.45 2.95 -2.85 2.15 -1.7 1.4 0.75 L0.55 3.65 Q-0.2 6.05 -1.05 6.3 0.05 4.8 1.05 1.15 L2.15 -2.9 Q3.0 -4.9 5.8 -4.9 L6.85 -4.5" fill="#e6e600" fill-rule="evenodd" stroke="none"/>
    </g>
    <g id="sprite17" transform="matrix(1.0, 0.0, 0.0, 1.0, 5.5, 8.5)">
      <use height="17.0" transform="matrix(1.0, 0.0, 0.0, 1.0, -5.5, -8.5)" width="10.95" xlink:href="#shape17"/>
    </g>
    <g id="shape17" transform="matrix(1.0, 0.0, 0.0, 1.0, 5.5, 8.5)">
      <path d="M2.25 -6.1 L2.8 -5.95 3.7 -5.15 4.9 -3.6 5.15 -0.85 5.1 -0.3 3.7 -1.3 1.5 -2.55 5.0 0.1 3.7 2.25 2.65 4.95 2.25 4.6 Q1.55 4.0 1.15 4.05 L1.75 4.75 2.55 5.45 3.2 7.6 1.95 6.6 0.1 6.0 -2.85 5.5 -4.25 5.7 -5.05 5.95 -5.15 5.8 -4.8 5.2 -4.3 4.4 -3.9 3.35 -4.0 3.35 Q-3.4 0.55 -3.4 -2.85 L-2.6 -3.7 -2.55 -3.65 -2.4 -4.3 -1.55 -6.2 -1.3 -6.2 0.1 -6.25 2.25 -6.1 M-1.65 -6.55 L-1.55 -8.15 0.5 -7.0 1.4 -6.5 -0.7 -6.6 -1.55 -6.55 -1.6 -6.6 -1.65 -6.55" fill="#999999" fill-rule="evenodd" stroke="none"/>
      <path d="M2.25 -6.1 L0.1 -6.25 -1.3 -6.2 -1.55 -6.2 -2.4 -4.3 -2.55 -3.65 -2.6 -3.7 -3.4 -2.85 Q-3.4 0.55 -4.0 3.35 L-3.9 3.35 -4.3 4.4 -4.8 5.2 -5.15 5.8 -5.05 5.95 -4.25 5.7 -2.85 5.5 0.1 6.0 1.95 6.6 3.2 7.6 2.55 5.45 1.75 4.75 1.15 4.05 Q1.55 4.0 2.25 4.6 L2.65 4.95 3.7 2.25 5.0 0.1 1.5 -2.55 3.7 -1.3 5.1 -0.3 5.15 -0.85 4.9 -3.6 3.7 -5.15 2.8 -5.95 2.25 -6.1 M3.2 -6.0 L3.1 -6.0 3.2 -5.95 4.25 -5.05 5.15 -3.8 5.45 -0.85 5.4 -0.25 5.4 -0.2 5.45 0.0 5.45 0.1 5.4 0.25 5.35 0.25 4.15 2.5 Q2.85 5.0 2.85 5.45 L3.25 6.85 3.7 7.9 3.7 8.05 3.9 8.35 3.85 8.5 Q3.45 8.35 2.0 7.05 0.15 5.85 -2.85 5.85 L-4.2 5.9 -4.75 6.25 -4.95 6.25 -4.95 6.3 -5.1 6.35 -5.4 6.1 -5.5 5.8 -4.35 3.15 -4.15 2.1 -3.9 -0.3 -3.85 -2.25 -3.45 -4.1 -3.4 -2.9 -1.9 -6.2 -2.05 -6.25 -2.1 -6.35 Q-1.85 -8.5 -1.5 -8.5 -1.1 -8.5 1.0 -7.4 L3.25 -6.15 3.2 -6.0 M-1.6 -6.6 L-1.55 -6.55 -0.7 -6.6 1.4 -6.5 0.5 -7.0 -1.55 -8.15 -1.65 -6.55 -1.65 -6.5 -1.6 -6.6" fill="#000000" fill-rule="evenodd" stroke="none"/>
      <path d="M0.1 -6.6 L-1.05 -7.4 -1.4 -7.1 -1.65 -7.4 Q-1.65 -7.95 -1.25 -8.35 L-1.15 -8.25 0.35 -6.9 0.3 -6.7 Q0.35 -6.6 0.1 -6.6 M4.8 -3.8 L4.95 -3.75 5.1 -2.6 5.0 -1.9 4.9 -1.4 5.0 -0.8 4.9 -0.65 4.75 -0.6 Q4.55 -0.6 4.45 -0.95 3.05 -1.9 2.75 -2.8 L3.1 -3.0 3.1 -3.65 3.25 -3.7 3.2 -3.9 Q2.9 -5.15 2.0 -5.9 L2.0 -6.2 Q2.85 -6.1 3.7 -5.15 L4.05 -4.65 Q4.7 -4.55 4.8 -3.8 M1.75 4.45 L1.8 4.3 1.85 4.25 2.2 4.55 2.35 4.75 2.15 5.0 Q2.85 5.95 2.85 6.85 L2.75 7.2 2.6 7.25 2.0 6.7 0.95 5.8 -0.15 4.5 -0.1 4.45 -0.65 3.55 Q0.75 3.5 1.75 4.5 L1.75 4.45 M-1.15 -5.2 L-1.5 -3.75 -1.1 -3.7 -1.0 -3.5 -1.15 -3.25 Q-1.3 -3.1 -1.45 -3.1 L-1.95 -3.3 -2.0 -3.15 -1.9 -2.35 -1.95 -2.05 -2.4 -2.15 -2.55 -1.55 Q-2.7 -1.1 -3.0 -1.0 L-3.2 -1.55 -3.15 -2.25 -3.4 -3.05 -1.9 -5.15 -1.65 -5.75 -1.25 -5.4 -1.15 -5.2" fill="#d9d9d9" fill-rule="evenodd" stroke="none"/>
    </g>
    <g id="sprite18" transform="matrix(1.0, 0.0, 0.0, 1.0, 4.4, 66.4)">
      <use height="83.95" transform="matrix(1.0, 0.0, 0.0, 1.0, -4.4, -66.4)" width="9.0" xlink:href="#shape18"/>
    </g>
    <g id="shape18" transform="matrix(1.0, 0.0, 0.0, 1.0, 4.4, 66.4)">
      <path d="M0.0 -64.25 L0.65 -50.5 0.7 -50.45 0.7 -49.65 0.65 -49.65 0.95 -39.3 1.0 -39.3 1.0 -38.8 1.05 -38.7 1.0 -38.6 1.05 -38.6 1.2 -18.65 1.25 -18.4 1.2 -18.15 1.2 -18.05 1.1 -16.6 1.15 -13.75 1.15 -12.0 1.1 -8.6 Q1.85 -8.55 1.85 -8.25 L1.7 -7.8 1.5 -7.6 Q1.95 -6.15 3.1 -4.6 L4.15 -3.5 4.4 -3.45 4.6 -3.05 4.45 -2.7 1.0 -2.5 1.05 5.15 1.45 6.5 1.55 6.5 1.6 6.7 1.55 6.75 1.35 7.1 Q1.05 7.45 1.0 8.95 L1.0 15.25 1.3 15.6 1.5 16.15 Q1.5 17.55 0.45 17.55 -1.15 17.55 -1.15 16.25 L-1.1 15.6 -0.75 15.3 -0.7 11.25 Q-0.7 8.55 -1.2 6.9 L-1.2 6.8 -1.25 6.8 -1.3 6.6 -1.0 5.8 Q-0.75 5.25 -0.85 4.95 L-0.8 5.0 -0.85 -2.5 -4.2 -2.55 -4.3 -2.6 -4.4 -3.0 -4.25 -3.3 -4.05 -3.4 -3.75 -3.55 -3.25 -3.8 Q-2.35 -4.5 -1.95 -5.55 L-1.7 -6.95 -1.45 -7.55 -1.8 -7.75 -1.8 -8.1 -1.75 -8.5 Q-1.7 -8.7 -1.3 -8.75 L-1.3 -12.0 -1.35 -14.75 -1.4 -17.65 -1.4 -19.05 -1.45 -19.2 -1.5 -19.4 -1.45 -19.7 -1.55 -39.7 -1.5 -39.7 -1.5 -39.85 -1.45 -40.0 -1.5 -40.4 -1.45 -40.4 -1.3 -50.8 -1.35 -50.8 -1.3 -51.6 -1.25 -51.55 -0.75 -65.5 -0.65 -65.45 -0.65 -66.4 -0.2 -66.4 -0.15 -65.8 0.0 -64.25 M-0.45 -63.2 L-0.5 -63.05 -0.55 -63.05 -1.15 -39.85 -1.2 -39.7 -1.1 -20.45 -1.05 -20.3 -1.0 -9.25 -0.95 -9.05 -0.95 -8.75 0.85 -8.7 0.85 -12.0 0.8 -19.3 0.9 -19.4 0.75 -38.55 0.65 -38.65 -0.15 -61.9 -0.2 -61.9 -0.25 -62.0 -0.2 -62.2 -0.15 -62.2 -0.2 -63.2 -0.25 -64.25 -0.5 -65.3 -0.55 -63.35 -0.5 -63.35 -0.45 -63.2 M1.2 -7.6 L-0.1 -7.55 -1.15 -7.6 -1.1 -6.45 -1.9 -4.85 Q-2.35 -3.95 -3.2 -3.45 L3.55 -3.5 2.25 -5.0 Q1.25 -6.5 1.2 -7.5 L1.2 -7.6 M0.9 -8.3 L-1.5 -8.4 -1.55 -8.3 -1.5 -7.8 -1.3 -7.85 -1.2 -7.85 -1.2 -7.8 1.2 -7.85 1.5 -8.3 0.9 -8.3 M0.1 -2.5 L-0.6 -2.5 -0.55 5.9 -0.65 5.9 -0.8 6.3 -0.85 6.4 -0.65 6.4 -0.65 6.45 1.0 6.5 0.95 6.3 0.8 6.3 0.65 -2.4 0.6 -2.5 0.1 -2.5 M0.95 -2.8 L4.1 -2.85 4.3 -3.0 4.1 -3.15 -3.85 -3.15 -4.05 -3.0 -4.0 -2.8 0.85 -2.8 0.95 -2.8 M-0.5 7.4 L-0.5 15.05 -0.35 15.05 -0.2 15.0 -0.25 15.1 0.75 15.0 0.7 7.2 1.1 6.8 -0.85 6.9 -0.5 7.4 M-0.5 16.9 L0.45 17.2 Q1.2 17.15 1.15 16.2 L1.0 15.85 0.75 15.85 0.75 15.55 0.7 15.5 0.2 15.5 -0.45 15.5 -0.5 15.5 -0.5 15.6 -0.6 15.65 Q-0.9 16.0 -0.8 16.3 L-0.5 16.9" fill="#000000" fill-rule="evenodd" stroke="none"/>
      <path d="M-0.2 -63.2 L-0.45 -63.2 -0.5 -63.35 -0.55 -63.35 -0.5 -65.3 -0.25 -64.25 -0.2 -63.2 M1.2 -7.6 L1.2 -7.5 Q1.25 -6.5 2.25 -5.0 L3.55 -3.5 -3.2 -3.45 Q-2.35 -3.95 -1.9 -4.85 L-1.1 -6.45 -1.15 -7.6 -0.1 -7.55 1.2 -7.6" fill="#999999" fill-rule="evenodd" stroke="none"/>
      <path d="M-0.2 -63.2 L-0.15 -62.2 -0.2 -62.2 -0.25 -62.0 -0.2 -61.9 -0.15 -61.9 0.65 -38.65 0.75 -38.55 0.9 -19.4 0.8 -19.3 0.85 -12.0 0.85 -8.7 -0.95 -8.75 -0.95 -9.05 -1.0 -9.25 -1.05 -20.3 -1.1 -20.45 -1.2 -39.7 -1.15 -39.85 -0.55 -63.05 -0.5 -63.05 -0.45 -63.2 -0.2 -63.2 M-0.5 16.9 L-0.8 16.3 Q-0.9 16.0 -0.6 15.65 L-0.5 15.6 -0.5 15.5 -0.45 15.5 0.2 15.5 0.7 15.5 0.75 15.55 0.75 15.85 1.0 15.85 1.15 16.2 Q1.2 17.15 0.45 17.2 L-0.5 16.9" fill="#f2f2f2" fill-rule="evenodd" stroke="none"/>
      <path d="M0.1 -2.5 L0.6 -2.5 0.65 -2.4 0.8 6.3 0.95 6.3 1.0 6.5 -0.65 6.45 -0.65 6.4 -0.85 6.4 -0.8 6.3 -0.65 5.9 -0.55 5.9 -0.6 -2.5 0.1 -2.5 M-0.5 7.4 L-0.85 6.9 1.1 6.8 0.7 7.2 0.75 15.0 -0.25 15.1 -0.2 15.0 -0.35 15.05 -0.5 15.05 -0.5 7.4" fill="#ad9f8d" fill-rule="evenodd" stroke="none"/>
      <path d="M0.9 -8.3 L1.5 -8.3 1.2 -7.85 -1.2 -7.8 -1.2 -7.85 -1.3 -7.85 -1.5 -7.8 -1.55 -8.3 -1.5 -8.4 0.9 -8.3 M0.95 -2.8 L0.85 -2.8 -4.0 -2.8 -4.05 -3.0 -3.85 -3.15 4.1 -3.15 4.3 -3.0 4.1 -2.85 0.95 -2.8" fill="#ffff11" fill-rule="evenodd" stroke="none"/>
      <path d="M-0.9 -4.15 L-0.95 -3.95 -1.75 -4.1 -1.5 -4.2 Q-1.1 -4.35 -0.95 -4.55 L-0.95 -4.65 -0.85 -4.8 -0.9 -4.15 M-1.8 -4.1 Q-2.3 -4.4 -2.05 -5.15 -1.75 -6.1 -0.75 -6.8 L-0.6 -6.8 -0.6 -6.75 -0.65 -6.75 -1.35 -5.4 -1.55 -4.65 -1.8 -4.1" fill="#cccccc" fill-rule="evenodd" stroke="none"/>
      <path d="M0.2 -5.25 L0.8 -4.65 Q0.8 -4.25 0.6 -4.1 0.0 -4.6 0.0 -5.25 L0.2 -5.25 M-0.6 -6.8 L-0.6 -7.4 -0.4 -7.5 -0.05 -7.4 0.0 -7.05 0.0 -6.9 0.15 -6.3 -0.1 -5.1 Q-0.4 -4.1 -0.9 -3.9 L-0.9 -4.15 -0.85 -4.8 -0.95 -4.65 -0.95 -4.55 Q-1.1 -4.35 -1.5 -4.2 L-1.75 -4.1 -1.8 -4.1 -1.55 -4.65 -1.35 -5.4 -0.65 -6.75 -0.6 -6.75 -0.6 -6.8" fill="#dddddd" fill-rule="evenodd" stroke="none"/>
      <path d="M0.2 -53.35 L-0.3 -52.5 Q-0.85 -52.55 -0.8 -52.75 L-0.6 -53.35 -0.95 -56.05 -0.75 -56.3 Q-0.3 -55.95 -0.25 -55.2 L-0.15 -54.65 0.15 -54.65 0.15 -54.4 -0.15 -53.5 0.15 -53.55 0.2 -53.35 M0.25 -43.75 L0.15 -43.7 0.0 -43.7 Q-0.3 -43.7 -0.75 -44.9 L-1.15 -46.0 Q-1.35 -46.55 -0.65 -46.35 L-0.75 -48.15 Q-0.8 -49.35 -0.3 -49.85 L-0.05 -49.75 0.3 -47.65 0.3 -46.15 0.0 -44.8 Q0.0 -44.6 0.15 -44.35 L0.3 -43.95 0.25 -43.75 M0.7 -38.15 L0.5 -38.05 1.1 -35.95 0.65 -35.95 Q0.5 -35.95 0.5 -35.65 L0.7 -35.4 0.9 -35.2 0.75 -34.95 0.45 -34.65 -0.8 -35.5 -0.9 -36.3 Q-0.9 -36.8 -1.2 -37.2 -1.5 -37.6 -1.5 -38.35 L-0.9 -39.4 -1.05 -39.65 -1.2 -39.85 Q-1.2 -40.3 -0.6 -40.45 L-1.2 -41.45 -1.2 -41.6 -0.95 -41.7 Q-0.2 -41.7 0.2 -39.95 L0.45 -39.1 0.9 -38.3 Q0.9 -38.1 0.7 -38.15 M0.9 -29.25 Q0.9 -29.0 0.5 -29.0 L0.45 -28.5 0.95 -27.7 Q0.95 -27.5 0.6 -27.5 L1.05 -27.0 0.6 -26.85 0.9 -26.25 0.6 -26.0 0.95 -25.6 0.5 -25.2 0.95 -24.7 0.95 -24.55 Q0.95 -24.45 0.75 -24.45 -0.5 -24.45 -0.9 -25.9 L-1.05 -27.65 -1.5 -29.25 -1.35 -31.55 -1.25 -31.75 -1.05 -31.85 0.0 -30.75 0.9 -29.25 M0.6 -18.95 L0.6 -18.45 0.9 -18.2 1.05 -17.35 0.65 -15.85 0.8 -15.4 0.7 -15.15 0.6 -14.9 0.55 -14.7 0.45 -14.5 0.2 -14.45 Q-1.2 -14.45 -1.2 -16.05 L-0.9 -17.7 -0.9 -18.4 -1.05 -19.2 Q-1.05 -19.75 -1.4 -20.35 L-1.35 -20.6 -1.05 -20.8 0.0 -19.75 0.6 -18.95 M0.4 -17.55 L0.55 -16.45 0.5 -17.6 0.4 -17.6 0.4 -17.55" fill="#db3535" fill-rule="evenodd" stroke="none"/>
    </g>
    <g id="sprite19" transform="matrix(1.0, 0.0, 0.0, 1.0, 3.4, 3.15)">
      <use height="12.15" transform="matrix(1.0, 0.0, 0.0, 1.0, -3.4, -3.15)" width="7.55" xlink:href="#shape19"/>
    </g>
    <g id="shape19" transform="matrix(1.0, 0.0, 0.0, 1.0, 3.4, 3.15)">
      <path d="M3.75 -0.6 L4.15 0.85 4.0 0.9 3.55 1.95 3.45 2.0 3.45 2.05 3.1 2.5 2.9 2.25 2.9 2.4 2.8 2.5 2.4 4.8 2.3 6.15 Q2.0 7.6 1.05 8.4 L-1.3 8.45 Q-2.0 7.55 -2.4 5.55 -2.75 3.75 -2.45 2.8 L-2.7 2.5 -2.8 2.45 -3.1 2.05 -3.35 1.9 -3.15 0.0 Q-2.75 -1.8 -2.25 -2.2 -0.55 -3.55 1.2 -2.95 2.35 -2.55 3.1 -1.65 L3.75 -0.6 M-2.65 1.9 L-2.8 1.15 -2.5 0.2 -2.15 -0.3 -1.2 -1.2 Q0.0 -2.2 1.4 -1.45 L2.65 -0.35 Q3.4 0.6 3.5 1.4 L3.6 1.1 3.75 0.75 3.75 0.7 Q3.6 -0.45 2.85 -1.4 L1.25 -2.55 Q-0.4 -3.2 -2.05 -1.9 -2.55 -1.5 -2.8 -0.1 L-2.95 1.85 -2.65 1.9 -2.65 1.95 -2.65 1.9 M3.15 1.8 L3.2 1.8 3.3 1.6 3.15 1.4 3.1 1.3 3.05 1.25 2.5 -0.05 Q0.65 -2.25 -1.05 -0.85 -2.1 0.0 -2.4 1.05 L-2.5 1.8 -2.5 1.85 -2.45 2.2 Q-2.3 2.25 -2.3 2.3 L-2.25 2.25 -2.15 2.3 -1.9 2.1 -1.6 1.8 -1.5 1.6 -1.4 1.65 Q-0.15 0.65 1.4 1.15 L2.6 1.55 2.7 1.85 2.8 2.0 3.0 1.95 3.15 1.8 M-2.15 2.75 L-2.0 4.8 Q-1.7 7.4 -1.0 8.25 L0.8 8.15 Q1.9 7.3 2.25 4.75 L2.45 1.9 Q1.65 1.3 0.3 1.4 -0.1 3.0 -0.2 5.5 L-0.4 5.65 -0.55 5.55 Q-1.5 3.05 -1.55 2.05 L-2.15 2.75 M-0.5 2.95 Q-0.45 2.15 0.0 1.45 -0.75 1.5 -1.3 1.9 L-0.6 4.35 -0.5 2.95" fill="#000000" fill-rule="evenodd" stroke="none"/>
      <path d="M-2.65 1.9 L-2.95 1.85 -2.8 -0.1 Q-2.55 -1.5 -2.05 -1.9 -0.4 -3.2 1.25 -2.55 L2.85 -1.4 Q3.6 -0.45 3.75 0.7 L3.75 0.75 3.6 1.1 3.5 1.4 Q3.4 0.6 2.65 -0.35 L1.4 -1.45 Q0.0 -2.2 -1.2 -1.2 L-2.15 -0.3 -2.5 0.2 -2.8 1.15 -2.65 1.9 M-2.25 2.25 L-2.3 2.3 Q-2.3 2.25 -2.45 2.2 L-2.5 1.85 -2.5 1.8 -2.4 1.05 Q-2.1 0.0 -1.05 -0.85 0.65 -2.25 2.5 -0.05 L3.05 1.25 3.1 1.3 3.15 1.4 3.3 1.6 3.2 1.8 3.15 1.8 3.0 1.95 2.8 2.0 2.7 1.85 2.6 1.55 1.4 1.15 Q-0.15 0.65 -1.4 1.65 L-1.5 1.6 -1.6 1.8 -1.9 2.1 -1.95 2.1 -2.25 2.25 M-0.5 2.95 L-0.6 4.35 -1.3 1.9 Q-0.75 1.5 0.0 1.45 -0.45 2.15 -0.5 2.95 M-2.15 2.75 L-1.55 2.05 Q-1.5 3.05 -0.55 5.55 L-0.4 5.65 -0.2 5.5 Q-0.1 3.0 0.3 1.4 1.65 1.3 2.45 1.9 L2.25 4.75 Q1.9 7.3 0.8 8.15 L-1.0 8.25 Q-1.7 7.4 -2.0 4.8 L-2.15 2.75" fill="#999999" fill-rule="evenodd" stroke="none"/>
      <path d="M1.0 -0.25 Q1.0 0.15 0.5 -0.05 0.05 0.45 -0.5 0.45 L-1.3 0.05 -0.55 -0.8 0.2 -1.0 Q1.0 -1.0 1.0 -0.25 M1.85 -1.8 Q1.5 -1.45 1.15 -1.45 0.95 -1.45 0.7 -1.65 L0.25 -1.9 -1.0 -1.7 -1.5 -1.55 -1.95 -1.3 -2.25 -1.6 Q-2.25 -2.2 -1.2 -2.25 L0.3 -2.6 Q1.05 -2.6 1.85 -1.8 M-1.05 1.5 L-0.7 1.5 -0.65 1.55 -0.5 1.75 -0.65 2.3 -0.65 2.85 -0.55 3.3 -0.4 4.3 -0.85 4.45 -1.05 4.4 -1.2 2.95 -1.3 2.6 -1.25 2.35 -1.2 2.2 -1.15 1.5 -1.05 1.5 M-1.8 3.25 L-1.15 8.1 -1.2 8.2 -1.4 8.25 Q-1.85 8.25 -2.25 3.9 L-2.15 3.25 -1.8 3.25" fill="#d9d9d9" fill-rule="evenodd" stroke="none"/>
    </g>
    <g id="sprite20" transform="matrix(1.0, 0.0, 0.0, 1.0, 3.25, 2.35)">
      <use height="14.95" transform="matrix(1.0, 0.0, 0.0, 1.0, -3.25, -2.35)" width="9.55" xlink:href="#shape20"/>
    </g>
    <g id="shape20" transform="matrix(1.0, 0.0, 0.0, 1.0, 3.25, 2.35)">
      <path d="M-1.0 -2.35 Q-1.25 -1.4 0.75 -0.55 L2.8 0.2 Q3.0 0.3 3.0 1.05 L2.95 1.8 4.05 4.8 4.05 5.05 4.6 5.4 4.95 5.75 5.15 6.1 5.15 6.85 5.45 8.3 5.6 8.3 6.05 9.7 6.1 9.75 6.15 10.15 6.05 10.75 6.25 10.75 6.3 10.9 6.3 11.0 6.15 11.4 5.85 11.95 4.95 12.6 Q3.8 12.6 2.8 11.95 1.95 11.45 1.8 10.85 L1.6 10.7 1.5 10.15 1.6 9.4 1.8 8.8 1.55 8.45 1.1 7.6 1.1 7.55 1.05 7.55 1.0 7.4 1.25 6.9 Q0.45 6.75 -1.3 2.05 L-1.75 2.4 -3.25 0.1 -2.15 -1.3 -1.75 -1.9 -1.0 -2.35 M-1.55 -0.2 L0.2 0.0 1.1 0.35 0.95 0.55 0.2 0.35 -1.6 0.15 -2.5 0.25 -2.7 0.25 -1.75 1.9 -1.0 1.45 0.4 1.05 2.1 1.25 2.65 1.4 2.65 0.55 Q1.3 0.2 0.1 -0.45 -1.3 -1.15 -1.35 -1.8 L-2.65 -0.1 -1.55 -0.2 M3.7 4.8 L2.7 1.8 2.15 1.6 0.45 1.4 Q-0.3 1.4 -1.05 1.9 L-0.15 4.15 1.45 6.6 1.55 6.35 2.2 4.8 Q2.35 4.35 2.65 4.4 L3.65 4.8 3.7 4.85 3.7 4.8 M2.95 5.0 Q3.3 5.0 3.5 5.45 L3.65 5.95 Q3.65 6.45 3.05 6.45 2.5 6.45 2.5 5.9 L2.6 5.35 Q2.75 5.0 2.95 5.0 M2.85 6.1 L3.2 6.1 3.35 6.05 3.35 5.8 2.9 5.45 2.85 5.6 2.85 6.1 M4.0 5.5 L3.8 5.5 3.8 5.35 2.65 4.7 1.45 7.35 1.9 8.2 2.05 8.4 Q2.5 8.0 3.8 7.95 L5.0 8.25 5.25 8.35 4.95 7.2 4.7 5.85 4.0 5.5 M3.85 8.3 Q3.3 8.3 2.3 8.85 L2.3 8.9 2.25 9.05 2.1 9.0 2.05 9.0 1.9 9.4 4.6 9.95 5.7 9.75 5.65 9.4 5.45 8.8 5.4 8.8 4.85 8.55 3.85 8.3 M1.95 10.5 L2.0 10.5 2.1 10.65 3.2 11.1 4.4 11.35 5.1 11.2 5.7 11.0 5.65 10.9 5.8 10.1 5.45 10.15 4.55 10.3 1.85 9.85 1.85 10.35 1.95 10.5 M2.4 11.0 L2.35 11.0 2.4 11.05 2.7 11.4 Q3.5 12.3 4.6 12.3 5.4 12.3 5.65 11.7 L5.8 11.45 5.65 11.25 5.65 11.2 4.45 11.7 2.4 11.0" fill="#000000" fill-rule="evenodd" stroke="none"/>
      <path d="M3.65 4.8 L2.65 4.4 Q2.35 4.35 2.2 4.8 L1.55 6.35 1.45 6.6 -0.15 4.15 -1.05 1.9 Q-0.3 1.4 0.45 1.4 L2.15 1.6 2.7 1.8 3.7 4.8 3.65 4.8 M-1.55 -0.2 L-2.65 -0.1 -1.35 -1.8 Q-1.3 -1.15 0.1 -0.45 1.3 0.2 2.65 0.55 L2.65 1.4 2.1 1.25 0.4 1.05 -1.0 1.45 -1.75 1.9 -2.7 0.25 -2.5 0.25 -1.6 0.15 0.2 0.35 0.95 0.55 1.1 0.35 0.2 0.0 -1.55 -0.2 M1.95 10.5 L1.85 10.35 1.85 9.85 4.55 10.3 5.45 10.15 5.8 10.1 5.65 10.9 5.7 11.0 5.1 11.2 4.4 11.35 3.2 11.1 2.1 10.65 2.0 10.5 1.95 10.5 M3.85 8.3 L4.85 8.55 5.4 8.8 5.45 8.8 5.65 9.4 5.7 9.75 4.6 9.95 1.9 9.4 2.05 9.0 2.1 9.0 2.25 9.05 2.3 8.9 2.3 8.85 Q3.3 8.3 3.85 8.3 M4.0 5.5 L4.7 5.85 4.95 7.2 5.25 8.35 5.0 8.25 3.8 7.95 Q2.5 8.0 2.05 8.4 L1.9 8.2 1.45 7.35 2.65 4.7 3.8 5.35 3.8 5.5 4.0 5.5 M2.85 6.1 L2.85 5.6 2.9 5.45 3.35 5.8 3.35 6.05 3.2 6.1 2.85 6.1 M2.95 5.0 Q2.75 5.0 2.6 5.35 L2.5 5.9 Q2.5 6.45 3.05 6.45 3.65 6.45 3.65 5.95 L3.5 5.45 Q3.3 5.0 2.95 5.0 M2.4 11.05 L2.4 11.0 4.45 11.7 5.65 11.2 5.65 11.25 5.8 11.45 5.65 11.7 Q5.4 12.3 4.6 12.3 3.5 12.3 2.7 11.4 L2.4 11.05" fill="#999999" fill-rule="evenodd" stroke="none"/>
      <path d="M0.5 -0.4 L-0.05 -0.15 Q-1.0 -0.15 -1.3 -0.5 L-2.1 -0.5 -2.35 -0.65 Q-2.15 -1.15 -1.6 -1.1 L-1.45 -1.1 -1.25 -1.4 -0.95 -1.4 -0.95 -0.9 -0.75 -0.75 -0.7 -0.75 0.4 -0.65 0.5 -0.4 M-0.35 1.9 Q2.2 1.6 2.5 2.35 L0.4 4.5 Q0.0 4.1 -0.15 3.55 L-0.35 2.55 -0.35 1.9 M3.15 5.25 L3.5 5.7 3.35 6.15 3.15 6.25 2.9 5.75 3.15 5.25 M3.15 9.2 L2.5 9.5 2.25 9.15 Q2.25 8.6 3.6 8.6 L5.55 8.9 5.65 9.1 5.25 9.35 4.65 9.2 4.2 9.0 3.15 9.2" fill="#d9d9d9" fill-rule="evenodd" stroke="none"/>
    </g>
  </defs>
</svg>
