<?xml version="1.0" encoding="UTF-8" standalone="no"?>
<svg xmlns:xlink="http://www.w3.org/1999/xlink" height="74.4px" width="249.9px" xmlns="http://www.w3.org/2000/svg">
  <g transform="matrix(6.0, 0.0, 0.0, 6.0, 68.7, 38.4)">
    <use height="12.4" transform="matrix(1.0, 0.0, 0.0, 1.0, -6.2, -6.4)" width="11.8" xlink:href="#shape0"/>
    <use height="7.9" transform="matrix(1.0, 0.0, 0.0, 1.0, -9.7, -4.05)" width="25.6" xlink:href="#shape1"/>
  </g>
  <defs>
    <g id="shape0" transform="matrix(1.0, 0.0, 0.0, 1.0, 6.2, 6.4)">
      <path d="M-6.0 -3.3 L-6.05 -3.3 Q-5.9 -4.15 -5.15 -4.7 L-4.6 -4.9 -4.55 -4.95 -4.5 -5.05 -4.4 -5.05 -4.4 -5.1 -4.25 -5.05 -4.25 -5.1 -4.2 -5.05 -4.1 -5.05 -4.1 -5.0 -4.05 -4.95 -4.05 -4.9 -3.6 -4.25 Q-3.0 -4.95 -2.1 -5.2 L-1.95 -5.2 -1.9 -5.15 -1.8 -5.1 -1.75 -5.1 -1.65 -6.2 -1.55 -6.3 -1.45 -6.25 -1.35 -6.3 -1.25 -6.35 1.2 -6.25 1.25 -6.2 1.3 -6.25 1.4 -6.2 1.4 -6.15 1.4 -5.1 1.4 -5.0 1.3 -4.95 1.25 -4.9 1.25 -4.8 1.3 -4.75 2.25 -4.35 2.95 -5.35 3.05 -5.45 3.1 -5.5 Q3.75 -5.4 4.2 -5.0 L5.35 -3.9 5.4 -3.85 5.4 -3.8 5.45 -3.75 4.9 -3.0 5.55 -1.45 5.6 -1.3 5.55 -1.2 5.1 0.25 4.4 1.95 4.75 2.3 4.8 2.25 4.95 2.4 5.05 2.5 5.1 2.55 4.05 4.3 3.95 4.4 3.85 4.55 3.75 4.6 3.65 4.55 3.45 4.6 3.5 4.7 3.4 4.75 3.25 4.75 3.15 4.65 3.0 4.65 2.9 4.45 2.9 4.4 2.6 4.2 2.45 4.2 2.3 4.1 1.95 4.5 2.0 4.55 1.5 4.85 1.45 5.45 1.4 5.55 1.45 5.65 Q1.1 6.0 0.7 5.95 L0.0 5.85 -0.6 5.85 -0.6 5.9 Q-1.0 6.15 -1.3 5.9 L-1.35 5.9 -1.5 5.8 -1.6 5.1 -1.65 5.05 -1.65 5.0 -1.75 4.95 -1.85 4.9 -1.8 4.95 -3.35 4.5 -3.85 4.8 Q-4.0 5.05 -4.25 5.0 -5.15 4.4 -5.25 3.35 L-5.5 2.7 -5.6 2.5 -4.9 2.1 -5.1 1.95 Q-5.05 1.7 -4.75 1.75 -4.6 1.6 -4.45 1.55 L-4.55 1.45 -4.6 1.4 -4.8 1.0 -5.2 -0.2 -5.3 -1.15 -5.5 -1.7 -5.5 -1.8 -5.5 -1.9 -5.55 -2.05 -5.6 -2.1 -5.55 -2.15 -6.05 -2.6 -6.0 -2.7 -5.95 -2.8 -6.15 -2.85 -6.2 -2.85 -6.15 -3.15 -6.05 -3.25 -5.2 -2.2 -5.2 -2.15 -5.3 -2.05 -5.15 -1.8 -5.15 -1.85 -5.1 -1.8 -5.05 -1.75 -5.05 -1.5 -4.9 -0.65 -4.7 0.5 -4.35 1.25 -3.95 1.5 -3.95 1.65 -4.0 1.75 -4.25 1.75 -4.5 1.9 -4.5 2.1 -4.5 2.2 Q-4.9 2.5 -5.25 2.6 L-5.0 3.1 -5.05 3.3 Q-4.85 4.1 -4.2 4.75 L-3.55 4.1 -3.5 4.05 -3.4 4.05 -3.25 4.15 -3.05 4.2 -3.05 4.25 -3.05 4.3 -1.5 4.45 -1.5 4.5 -1.45 4.55 -1.35 4.6 -1.35 4.65 -1.15 5.55 -1.05 5.55 -1.0 5.5 0.7 5.65 1.1 5.5 Q0.95 5.05 1.15 4.8 L1.15 4.75 1.2 4.8 1.2 4.7 1.2 4.6 1.3 4.55 1.35 4.5 1.4 4.55 1.45 4.55 1.5 4.5 1.55 4.5 2.0 4.0 2.2 3.7 2.3 3.65 2.35 3.6 2.45 3.7 2.5 3.7 2.5 3.75 2.8 3.9 2.85 3.9 2.9 3.95 2.9 4.05 3.25 4.3 Q4.15 3.75 4.6 2.9 L4.65 2.95 4.7 2.85 4.7 2.7 4.25 2.25 4.2 2.25 4.15 2.3 4.0 2.15 4.05 2.1 3.8 1.9 3.75 1.85 3.8 1.75 3.9 1.7 4.15 1.8 4.5 0.85 4.4 0.75 4.65 0.4 4.95 -0.55 4.95 -0.6 5.05 -0.65 5.1 -0.7 5.15 -0.65 5.35 -1.25 4.7 -2.55 4.65 -2.6 4.3 -3.05 4.4 -3.2 4.45 -3.2 4.5 -3.15 5.05 -3.65 5.0 -3.7 4.8 -4.0 4.7 -4.15 4.75 -4.0 4.75 -3.95 4.7 -3.95 4.5 -3.95 Q4.15 -4.9 3.25 -5.15 L3.2 -5.15 2.25 -4.05 2.1 -4.15 1.4 -4.3 1.05 -4.45 1.0 -4.45 0.95 -4.5 0.85 -4.55 0.95 -4.7 1.0 -6.0 1.0 -6.1 -1.15 -5.95 -1.35 -5.95 -1.4 -4.55 -1.45 -4.45 -1.55 -4.45 -1.7 -4.5 -1.7 -4.6 -1.7 -4.75 -1.7 -4.85 Q-2.7 -4.65 -3.55 -4.0 L-3.65 -3.95 -3.75 -4.0 -4.35 -4.7 -4.35 -4.75 Q-5.3 -4.3 -5.7 -3.3 -5.75 -3.2 -5.9 -3.2 L-5.95 -3.25 -6.0 -3.3 M2.5 3.75 L2.45 3.8 2.5 3.75 M-1.15 5.55 L-1.15 5.6 -1.15 5.55" fill="#000000" fill-rule="evenodd" stroke="none"/>
      <path d="M-6.05 -3.25 L-6.0 -3.3 -5.95 -3.25 -5.9 -3.2 Q-5.75 -3.2 -5.7 -3.3 -5.3 -4.3 -4.35 -4.75 L-4.35 -4.7 -3.75 -4.0 -3.65 -3.95 -3.55 -4.0 Q-2.7 -4.65 -1.7 -4.85 L-1.7 -4.75 -1.7 -4.6 -1.7 -4.5 -1.55 -4.45 -1.45 -4.45 -1.4 -4.55 -1.35 -5.95 -1.15 -5.95 1.0 -6.1 1.0 -6.0 0.95 -4.7 0.85 -4.55 0.95 -4.5 1.0 -4.45 1.05 -4.45 1.4 -4.3 2.1 -4.15 2.25 -4.05 3.2 -5.15 3.25 -5.15 Q4.15 -4.9 4.5 -3.95 L4.7 -3.95 4.75 -3.95 4.75 -4.0 4.8 -4.0 5.0 -3.7 5.05 -3.65 4.5 -3.15 4.45 -3.2 4.4 -3.2 4.3 -3.05 4.65 -2.6 4.7 -2.55 5.35 -1.25 5.15 -0.65 5.1 -0.7 5.05 -0.65 4.95 -0.6 4.95 -0.55 4.65 0.4 4.4 0.75 4.5 0.85 4.15 1.8 3.9 1.7 3.8 1.75 3.75 1.85 3.8 1.9 4.05 2.1 4.0 2.15 4.15 2.3 4.2 2.25 4.25 2.25 4.7 2.7 4.7 2.85 4.65 2.95 4.6 2.9 Q4.15 3.75 3.25 4.3 L2.9 4.05 2.9 3.95 2.85 3.9 2.8 3.9 2.5 3.75 2.5 3.7 2.45 3.7 2.35 3.6 2.3 3.65 2.2 3.7 2.0 4.0 1.55 4.5 1.5 4.5 1.45 4.55 1.4 4.55 1.35 4.5 1.3 4.55 1.2 4.6 1.2 4.7 1.2 4.8 1.15 4.75 1.15 4.8 Q0.95 5.05 1.1 5.5 L0.7 5.65 -1.0 5.5 -1.05 5.55 -1.15 5.55 -1.35 4.65 -1.35 4.6 -1.45 4.55 -1.5 4.5 -1.5 4.45 -3.05 4.3 -3.05 4.25 -3.05 4.2 -3.25 4.15 -3.4 4.05 -3.5 4.05 -3.55 4.1 -4.2 4.75 Q-4.85 4.1 -5.05 3.3 L-5.0 3.1 -5.25 2.6 Q-4.9 2.5 -4.5 2.2 L-4.5 2.1 -4.5 1.9 -4.25 1.75 -4.0 1.75 -3.95 1.65 -3.95 1.5 -4.35 1.25 -4.7 0.5 -4.9 -0.65 -5.05 -1.5 -5.05 -1.75 -5.1 -1.8 -5.15 -1.85 -5.15 -1.8 -5.3 -2.05 -5.2 -2.15 -5.2 -2.2 -6.05 -3.25" fill="#754e39" fill-rule="evenodd" stroke="none"/>
    </g>
    <g id="shape1" transform="matrix(1.0, 0.0, 0.0, 1.0, 11.45, 4.05)">
      <path d="M0.75 -2.7 L0.7 -2.8 0.65 -2.8 0.55 -2.9 0.5 -2.85 0.4 -2.75 -0.55 -2.85 -3.05 -3.15 -4.25 -3.35 -4.3 -3.55 -4.35 -3.55 -4.45 -3.65 -4.5 -3.6 -4.65 -3.4 -6.65 -3.7 -6.7 -3.65 -6.7 -3.6 -6.75 -3.6 -6.8 -3.55 Q-8.55 -3.9 -10.0 -2.8 L-10.65 -2.0 -11.1 -0.5 -11.15 -0.5 -11.15 -0.4 -11.15 -0.05 -11.2 0.0 -11.2 0.1 -11.1 0.3 -11.05 0.65 -11.05 1.5 -10.85 1.65 -10.3 2.3 -10.2 2.4 -10.15 2.55 -10.0 2.6 -9.8 2.75 -9.55 3.0 -9.45 3.05 -9.35 3.05 -9.3 3.15 -8.6 3.35 -8.25 3.4 -7.2 3.4 -6.75 3.4 -6.7 3.4 -7.15 3.5 -5.6 3.5 -5.5 3.55 -5.45 3.5 -5.4 3.5 -4.55 3.35 -4.4 3.4 -4.3 3.4 -4.05 3.25 -4.05 3.15 -4.0 3.15 -3.95 3.15 -3.45 3.05 -2.45 2.9 -0.35 2.7 -0.3 2.7 0.4 2.65 0.45 2.8 -1.15 3.0 -7.0 3.8 -7.05 3.75 -7.75 3.85 -8.7 3.6 Q-10.05 3.15 -10.95 2.05 L-10.95 1.85 -11.15 1.65 -11.45 0.25 -11.45 -0.05 -11.45 -0.15 -11.45 -0.45 -11.15 -1.85 -10.95 -2.05 -10.95 -2.25 Q-10.05 -3.35 -8.7 -3.8 L-7.75 -4.05 -7.05 -3.95 -7.0 -4.0 -1.15 -3.2 1.9 -2.85 7.7 -2.25 12.95 -1.95 12.9 -2.0 12.9 -2.05 13.2 -2.3 13.45 -2.5 13.8 -2.45 13.85 -2.45 13.9 -2.4 14.1 -2.25 14.15 -0.15 14.15 -0.05 14.1 2.05 13.9 2.2 13.85 2.25 13.8 2.25 13.45 2.3 13.2 2.1 12.9 1.85 12.9 1.8 12.95 1.75 7.7 2.05 1.9 2.65 0.9 2.75 0.95 2.7 0.95 2.6 1.25 2.55 1.3 2.5 1.35 2.45 1.45 2.45 1.6 2.45 2.0 2.55 2.05 2.55 2.15 2.5 2.4 2.4 2.6 2.35 2.75 2.35 2.8 2.35 3.6 2.25 4.55 2.3 4.6 2.25 4.6 2.2 4.65 2.15 4.8 2.15 5.25 2.15 5.45 2.1 5.5 2.15 5.6 2.2 5.85 2.05 5.9 2.0 6.45 1.9 6.65 1.9 6.75 1.85 7.1 1.8 7.15 1.8 7.45 1.8 7.55 1.8 7.95 1.75 8.0 1.75 9.6 1.65 10.05 1.7 11.3 1.55 12.75 1.6 12.8 1.65 13.3 1.8 13.35 1.85 13.4 1.9 13.4 1.95 13.45 2.05 13.8 2.0 13.8 1.95 13.9 1.85 13.9 1.75 14.05 0.95 14.05 0.9 13.95 0.65 14.0 0.6 13.9 0.5 13.85 0.5 13.95 0.1 13.95 -0.05 13.9 -0.05 13.9 -0.15 13.95 -0.15 13.95 -0.3 Q13.75 -0.95 13.8 -1.65 L13.8 -1.9 13.85 -1.95 13.8 -2.0 13.8 -2.15 13.75 -2.15 13.45 -2.2 13.45 -2.15 13.4 -2.05 13.35 -2.0 Q13.25 -1.9 13.15 -1.9 L13.1 -1.95 13.05 -1.9 12.95 -1.85 12.95 -1.8 Q10.9 -1.6 8.85 -1.75 L8.6 -1.8 3.0 -2.55 1.6 -2.6 0.75 -2.7" fill="#000000" fill-rule="evenodd" stroke="none"/>
      <path d="M-4.05 -2.05 L-4.1 -1.3 -4.15 -1.25 -4.2 -1.2 -4.2 -1.1 -4.25 -0.7 -4.2 -0.65 -4.15 -0.2 -4.2 -0.15 -4.25 0.3 -4.25 0.55 -4.3 0.55 -4.35 0.6 -4.35 0.95 -4.4 1.05 Q-4.6 1.55 -4.3 2.05 L-4.3 2.25 -4.3 2.3 -4.35 2.25 -4.4 2.3 -4.45 2.35 -4.45 2.25 -4.45 2.0 -4.5 0.6 -4.5 0.35 -4.5 0.2 -4.5 0.1 -4.45 0.1 -4.5 -1.1 -4.4 -2.1 -4.3 -2.45 -4.3 -2.5 -4.3 -2.6 -4.3 -2.95 -4.3 -3.1 -4.25 -3.25 -4.2 -3.3 -4.25 -3.3 -4.25 -3.35 -3.05 -3.15 -0.55 -2.85 0.4 -2.75 0.35 -2.7 0.3 -2.65 0.2 -2.6 0.15 -2.6 -1.4 -2.75 -4.15 -3.3 -4.15 -3.25 -4.1 -3.2 -4.05 -3.05 -4.0 -3.05 -4.0 -2.85 -4.0 -2.45 -4.05 -2.05 M0.75 -2.7 L1.6 -2.6 0.8 -2.6 0.85 -2.55 0.9 -2.55 0.95 -2.45 0.95 -2.4 1.0 -2.4 1.0 -2.15 0.95 -1.35 0.9 -1.0 0.85 -0.95 0.8 -0.9 0.75 -0.5 0.8 -0.45 0.8 -0.3 Q4.5 -0.6 8.25 -0.4 L8.4 -0.4 9.4 -0.4 11.4 -0.1 Q12.4 0.05 13.1 -0.4 L13.2 0.0 13.2 0.35 13.15 0.4 13.05 0.45 5.75 0.8 2.1 1.25 1.55 1.35 0.95 1.45 1.0 0.0 0.95 0.0 0.85 -0.1 0.8 -0.05 0.75 0.5 0.7 0.5 0.65 0.55 Q0.5 0.65 0.65 0.85 L0.6 0.9 Q0.45 1.2 0.55 1.5 L0.7 1.75 0.7 1.9 0.65 1.9 0.6 1.95 0.55 1.95 0.55 1.7 0.5 1.5 0.5 0.55 0.5 0.2 0.5 0.15 0.55 0.1 0.5 -0.25 0.55 -1.35 0.7 -1.95 0.7 -2.05 0.7 -2.15 0.7 -2.45 0.75 -2.55 0.8 -2.6 0.75 -2.6 0.75 -2.7 M8.85 -1.75 Q10.9 -1.6 12.95 -1.8 L13.0 -1.55 8.85 -1.75 M13.15 -1.9 Q13.25 -1.9 13.35 -2.0 L13.4 -2.05 13.45 -2.15 13.45 -2.2 13.75 -2.15 13.8 -2.15 13.8 -2.0 13.7 -2.1 13.7 -2.05 13.5 -2.0 13.45 -1.95 13.45 -1.9 13.2 -1.8 13.2 -1.85 13.15 -1.9 M13.8 -1.65 Q13.75 -0.95 13.95 -0.3 L13.95 -0.15 13.9 -0.15 13.9 -0.05 13.95 -0.05 13.95 0.1 13.85 0.5 Q13.75 0.45 13.7 0.6 L13.55 0.65 13.55 0.6 13.6 0.55 13.6 0.45 13.6 -0.45 13.65 -0.5 13.7 -0.55 13.75 -1.55 13.75 -1.6 13.8 -1.65 M-9.8 2.75 L-10.0 2.6 -9.85 2.7 -9.8 2.75 M-10.2 2.4 L-10.3 2.3 -10.25 2.35 -10.2 2.4 M-11.05 0.65 L-11.1 0.3 -11.05 0.55 -11.05 0.65 M-11.1 -0.5 L-10.65 -2.0 -10.0 -2.8 Q-8.55 -3.9 -6.8 -3.55 L-6.75 -3.6 -6.7 -3.6 -6.7 -3.65 -6.65 -3.7 -4.65 -3.4 -4.7 -3.35 -7.25 -3.55 -7.4 -3.5 Q-8.6 -3.3 -9.7 -2.7 L-10.55 -1.9 -10.55 -1.8 -10.55 -1.7 -10.55 -1.65 -10.55 -1.4 -10.55 -1.35 -10.5 -1.3 -10.5 -1.25 -10.35 -0.5 -9.85 0.15 Q-8.3 0.95 -6.55 0.65 L-4.7 0.4 -4.7 0.5 -4.7 0.85 Q-5.0 1.4 -4.75 2.15 L-4.7 2.2 -4.7 2.3 Q-6.85 2.55 -8.95 2.3 -9.15 2.0 -9.55 1.9 L-10.05 1.35 -10.05 1.3 -10.05 1.2 -10.7 0.15 -10.65 -0.05 -10.7 -0.05 -10.8 -0.15 -10.85 -0.1 -10.85 -0.15 -10.9 -0.5 -10.95 -0.55 -11.0 -0.6 -11.05 -0.55 -11.1 -0.5 M0.3 -0.25 L0.3 -0.1 0.3 0.45 0.3 0.75 Q0.05 1.1 0.2 1.55 L-4.05 2.2 -4.0 0.3 -3.6 0.2 -1.0 -0.1 0.3 -0.25 M-10.5 1.25 L-10.6 0.95 -10.35 1.35 -10.35 1.45 -10.35 1.5 -10.4 1.4 -10.45 1.35 -10.45 1.3 -10.5 1.25" fill="#928647" fill-rule="evenodd" stroke="none"/>
      <path d="M13.85 0.5 L13.9 0.5 14.0 0.6 13.95 0.65 14.05 0.9 14.05 0.95 13.9 1.75 13.9 1.85 13.8 1.95 13.8 2.0 13.45 2.05 13.4 1.95 13.4 1.9 13.35 1.85 13.3 1.8 12.8 1.65 12.75 1.6 11.3 1.55 10.05 1.7 9.6 1.65 8.0 1.75 7.95 1.75 7.55 1.8 7.45 1.8 7.15 1.8 7.1 1.8 6.75 1.85 6.65 1.9 6.45 1.9 5.9 2.0 5.85 2.05 5.6 2.2 5.5 2.15 5.45 2.1 5.25 2.15 4.8 2.15 4.65 2.15 4.6 2.2 4.6 2.25 4.55 2.3 3.6 2.25 2.8 2.35 2.75 2.35 2.6 2.35 2.4 2.4 2.15 2.5 2.05 2.55 2.0 2.55 1.6 2.45 1.45 2.45 1.35 2.45 1.3 2.5 1.25 2.55 0.95 2.6 0.95 2.7 0.9 2.75 0.7 2.8 0.6 2.8 0.45 2.8 0.4 2.65 -0.3 2.7 -0.35 2.7 -2.45 2.9 -3.45 3.05 -3.95 3.15 -4.0 3.15 -4.05 3.15 -4.05 3.25 -4.3 3.4 -4.4 3.4 -4.55 3.35 -5.4 3.5 -5.45 3.5 -5.5 3.55 -5.6 3.5 -7.15 3.5 -6.7 3.4 -6.75 3.4 -7.2 3.4 -8.25 3.4 -8.6 3.35 -9.3 3.15 -9.35 3.05 -9.45 3.05 -9.55 3.0 -9.8 2.75 -9.85 2.7 -10.0 2.6 -10.15 2.55 -10.2 2.4 -10.25 2.35 -10.3 2.3 -10.85 1.65 -11.05 1.5 -11.05 0.65 -11.05 0.55 -11.1 0.3 -11.2 0.1 -11.2 0.0 -11.15 -0.05 -11.15 -0.4 -11.15 -0.5 -11.1 -0.5 -11.05 -0.55 -11.0 -0.6 -10.95 -0.55 -10.9 -0.5 -10.85 -0.15 -10.85 -0.1 -10.8 -0.15 -10.7 -0.05 -10.65 -0.05 -10.7 0.15 -10.05 1.2 -10.05 1.3 -10.05 1.35 -9.55 1.9 Q-9.15 2.0 -8.95 2.3 -6.85 2.55 -4.7 2.3 L-4.7 2.9 -4.65 2.95 -4.65 2.7 -4.55 2.7 -4.5 2.4 -4.5 2.35 -4.45 2.35 -4.4 2.3 -4.35 2.25 -4.3 2.3 -4.3 2.25 -4.3 2.05 Q-4.6 1.55 -4.4 1.05 L-4.35 0.95 -4.35 0.6 -4.3 0.55 -4.25 0.55 -4.25 0.3 -4.2 -0.15 -4.15 -0.2 -4.05 -0.1 -4.0 -0.1 -4.0 0.3 -4.05 2.2 0.2 1.55 0.25 1.8 0.3 1.85 0.3 2.4 0.35 2.45 0.35 2.25 0.45 2.25 0.5 2.0 0.5 1.95 0.55 1.95 0.6 1.95 0.65 1.9 0.7 1.9 0.7 1.75 0.55 1.5 Q0.45 1.2 0.6 0.9 L0.65 0.85 Q0.5 0.65 0.65 0.55 L0.7 0.5 0.75 0.5 0.8 -0.05 0.85 -0.1 0.95 0.0 1.0 0.0 0.95 1.45 1.55 1.35 2.1 1.25 5.75 0.8 13.05 0.45 13.15 0.4 13.2 0.35 13.2 0.5 13.25 0.55 13.3 1.2 13.55 1.25 13.55 1.15 13.55 0.65 13.7 0.6 Q13.75 0.45 13.85 0.5 M-10.5 1.25 L-10.45 1.3 -10.45 1.35 -10.4 1.4 -10.35 1.5 -10.35 1.45 -10.35 1.35 -10.6 0.95 -10.5 1.25" fill="#443c22" fill-rule="evenodd" stroke="none"/>
      <path d="M-4.05 -2.05 L-1.5 -1.95 -1.5 -2.0 -1.45 -2.05 -1.45 -2.1 -1.5 -2.1 -1.6 -2.15 -4.0 -2.45 -4.0 -2.85 0.05 -2.2 0.2 -2.2 0.2 -1.95 0.25 -1.95 0.25 -1.8 0.25 -1.7 0.15 -1.7 0.15 -1.6 0.15 -1.35 -0.3 -1.35 -4.2 -1.1 -4.2 -1.2 -4.15 -1.25 -4.1 -1.3 -4.05 -2.05 M0.5 -2.3 L0.5 -2.35 0.55 -2.35 0.6 -2.35 0.65 -2.45 0.65 -2.5 0.7 -2.45 0.7 -2.15 0.7 -2.05 0.7 -1.95 0.55 -1.35 0.5 -0.25 0.55 0.1 0.5 0.15 0.5 0.2 0.5 0.55 0.45 0.55 0.3 0.5 0.3 0.45 0.3 -0.1 0.3 -0.25 0.3 -0.3 0.35 -0.75 0.35 -1.0 0.35 -1.35 0.35 -1.45 0.3 -1.5 0.45 -2.15 0.5 -2.3 M1.0 -2.15 L5.55 -1.95 6.2 -1.85 8.5 -1.6 11.9 -1.4 12.8 -1.4 12.85 -1.45 13.0 -1.5 13.05 -1.05 0.95 -1.35 1.0 -2.15 M13.2 0.0 L13.2 -0.3 13.2 -0.35 13.3 -0.4 13.3 -0.55 13.35 -1.05 13.35 -1.3 13.35 -1.35 13.45 -1.4 13.5 -1.45 13.55 -1.4 13.6 -1.45 13.65 -1.6 13.65 -1.65 13.7 -1.6 13.75 -1.6 13.75 -1.55 13.7 -0.55 13.65 -0.5 13.6 -0.45 13.6 0.45 13.6 0.55 13.55 0.6 13.55 0.65 13.55 1.15 13.55 1.25 13.3 1.2 13.25 0.55 13.25 0.35 13.2 0.0 M-4.75 -3.0 L-4.8 -2.55 -7.5 -3.0 -7.55 -2.95 -7.65 -2.9 -7.65 -2.8 -8.25 -2.85 -8.25 -2.8 -9.3 -2.35 -9.25 -2.25 -8.95 -2.1 -8.8 -2.15 -8.7 -2.1 -8.7 -2.05 -7.25 -2.1 -6.5 -2.05 -5.4 -2.1 -4.85 -2.1 -4.85 -2.05 -4.8 -1.05 -6.7 -0.8 Q-8.5 -0.55 -10.05 -1.3 L-10.1 -1.85 -10.1 -1.9 -10.1 -2.1 -9.3 -2.65 -7.5 -3.2 -7.25 -3.25 -5.9 -3.15 -4.8 -3.05 -4.75 -3.0 M-4.65 -0.95 L-4.65 -1.3 -4.65 -1.85 -4.7 -1.95 -4.65 -2.1 -4.6 -2.55 -4.5 -2.9 -4.5 -2.95 -4.45 -3.0 -4.4 -2.95 -4.4 -3.0 -4.35 -3.1 -4.35 -3.15 -4.3 -3.1 -4.3 -2.95 -4.3 -2.6 -4.3 -2.5 -4.3 -2.45 -4.4 -2.1 -4.5 -1.1 -4.45 0.1 -4.5 0.1 -4.5 0.2 -4.5 0.35 -4.5 0.6 -4.55 0.6 -4.7 0.55 -4.7 0.5 -4.7 0.4 -4.7 -0.15 -4.7 -0.45 -4.65 -0.95" fill="#f7eebd" fill-rule="evenodd" stroke="none"/>
      <path d="M-4.0 -2.45 L-1.6 -2.15 -1.5 -2.1 -1.45 -2.1 -1.45 -2.05 -1.5 -2.0 -1.5 -1.95 -4.05 -2.05 -4.0 -2.45 M0.15 -1.35 L0.15 -1.6 0.15 -1.7 0.25 -1.7 0.3 -1.75 0.25 -1.8 0.25 -1.95 0.2 -1.95 0.2 -2.2 0.25 -2.4 0.3 -2.55 0.3 -2.6 0.35 -2.7 0.4 -2.75 0.5 -2.85 0.55 -2.9 0.65 -2.8 0.7 -2.8 0.75 -2.7 0.75 -2.6 0.75 -2.55 0.7 -2.45 0.65 -2.5 0.65 -2.45 0.6 -2.35 0.55 -2.35 0.5 -2.35 0.5 -2.3 0.45 -2.15 0.3 -1.5 0.35 -1.45 0.35 -1.35 0.35 -1.0 0.35 -0.75 0.25 -0.75 0.2 -0.8 0.15 -1.35 M12.95 -1.8 L12.95 -1.85 13.05 -1.9 13.1 -1.95 13.15 -1.9 13.2 -1.85 13.2 -1.8 13.45 -1.9 13.45 -1.95 13.5 -2.0 13.7 -2.05 13.7 -2.1 13.8 -2.0 13.85 -1.95 13.8 -1.9 13.8 -1.65 13.75 -1.6 13.7 -1.6 13.65 -1.65 13.65 -1.6 13.6 -1.45 13.55 -1.4 13.5 -1.45 13.45 -1.4 13.35 -1.35 13.35 -1.3 13.35 -1.05 13.3 -0.55 13.3 -0.4 13.2 -0.35 13.2 -0.3 13.2 0.0 13.1 -0.4 13.05 -1.05 13.0 -1.5 13.0 -1.55 12.95 -1.8 M-4.65 -3.4 L-4.5 -3.6 -4.45 -3.65 -4.35 -3.55 -4.3 -3.55 -4.25 -3.35 -4.25 -3.3 -4.25 -3.25 -4.3 -3.1 -4.35 -3.15 -4.35 -3.1 -4.4 -3.0 -4.4 -2.95 -4.45 -3.0 -4.5 -2.95 -4.5 -2.9 -4.6 -2.55 -4.65 -2.1 -4.7 -1.95 -4.65 -1.85 -4.65 -1.3 -4.65 -0.95 -4.75 -1.0 -4.8 -1.05 -4.85 -2.05 -4.85 -2.1 -5.4 -2.1 -6.5 -2.05 -7.25 -2.1 -8.7 -2.05 -8.7 -2.1 -8.8 -2.15 -8.95 -2.1 -9.25 -2.25 -9.3 -2.35 -8.25 -2.8 -8.25 -2.85 -7.65 -2.8 -7.65 -2.9 -7.55 -2.95 -7.5 -3.0 -4.8 -2.55 -4.75 -3.0 -4.75 -3.05 -4.7 -3.25 -4.65 -3.35 -4.65 -3.4 M13.2 0.35 L13.2 0.0 13.25 0.35 13.25 0.55 13.2 0.5 13.2 0.35 M-4.75 -2.25 L-4.75 -2.2 -4.7 -2.2 -4.75 -2.25" fill="#ffffff" fill-rule="evenodd" stroke="none"/>
      <path d="M-4.2 -1.1 L-0.3 -1.35 0.15 -1.35 0.2 -0.8 0.25 -0.75 0.35 -0.75 0.3 -0.3 0.3 -0.25 -1.0 -0.1 -3.6 0.2 -4.0 0.3 -4.0 -0.1 -4.05 -0.1 -4.15 -0.2 -4.2 -0.65 -4.25 -0.7 -4.2 -1.1 M0.25 -1.7 L0.25 -1.8 0.3 -1.75 0.25 -1.7 M0.2 -2.2 L0.05 -2.2 -4.0 -2.85 -4.0 -3.05 -4.05 -3.05 -4.1 -3.2 -4.15 -3.25 -4.15 -3.3 -1.4 -2.75 0.15 -2.6 0.2 -2.6 0.3 -2.65 0.35 -2.7 0.3 -2.6 0.3 -2.55 0.25 -2.4 0.2 -2.2 M1.6 -2.6 L3.0 -2.55 8.6 -1.8 8.85 -1.75 13.0 -1.55 13.0 -1.5 12.85 -1.45 12.8 -1.4 11.9 -1.4 8.5 -1.6 6.2 -1.85 5.55 -1.95 1.0 -2.15 1.0 -2.4 0.95 -2.4 0.95 -2.45 0.9 -2.55 0.85 -2.55 0.8 -2.6 1.6 -2.6 M0.5 -2.3 L0.5 -2.35 0.5 -2.3 M0.75 -2.55 L0.75 -2.6 0.8 -2.6 0.75 -2.55 M13.1 -0.4 Q12.4 0.05 11.4 -0.1 L9.4 -0.4 8.4 -0.4 8.25 -0.4 Q4.5 -0.6 0.8 -0.3 L0.8 -0.45 0.75 -0.5 0.8 -0.9 0.85 -0.95 0.9 -1.0 0.95 -1.35 13.05 -1.05 13.1 -0.4 M0.3 0.45 L0.3 0.5 0.45 0.55 0.5 0.55 0.5 1.5 0.55 1.7 0.55 1.95 0.5 1.95 0.5 2.0 0.45 2.25 0.35 2.25 0.35 2.45 0.3 2.4 0.3 1.85 0.25 1.8 0.2 1.55 Q0.05 1.1 0.3 0.75 L0.3 0.45 M-4.75 -3.0 L-4.8 -3.05 -5.9 -3.15 -7.25 -3.25 -7.5 -3.2 -9.3 -2.65 -10.1 -2.1 -10.1 -1.9 -10.1 -1.85 -10.05 -1.3 Q-8.5 -0.55 -6.7 -0.8 L-4.8 -1.05 -4.75 -1.0 -4.65 -0.95 -4.7 -0.45 -4.7 -0.15 -4.7 0.4 -6.55 0.65 Q-8.3 0.95 -9.85 0.15 L-10.35 -0.5 -10.5 -1.25 -10.5 -1.3 -10.55 -1.35 -10.55 -1.4 -10.55 -1.65 -10.55 -1.7 -10.55 -1.8 -10.55 -1.9 -9.7 -2.7 Q-8.6 -3.3 -7.4 -3.5 L-7.25 -3.55 -4.7 -3.35 -4.65 -3.4 -4.65 -3.35 -4.7 -3.25 -4.75 -3.05 -4.75 -3.0 M-4.5 -2.9 L-4.5 -2.95 -4.5 -2.9 M-4.25 -3.25 L-4.25 -3.3 -4.2 -3.3 -4.25 -3.25 M-4.7 2.3 L-4.7 2.2 -4.75 2.15 Q-5.0 1.4 -4.7 0.85 L-4.7 0.5 -4.7 0.55 -4.55 0.6 -4.5 0.6 -4.45 2.0 -4.45 2.25 -4.45 2.35 -4.5 2.35 -4.5 2.4 -4.55 2.7 -4.65 2.7 -4.65 2.95 -4.7 2.9 -4.7 2.3 M-4.75 -2.25 L-4.7 -2.2 -4.75 -2.2 -4.75 -2.25" fill="#c6c664" fill-rule="evenodd" stroke="none"/>
    </g>
  </defs>
</svg>
