<?xml version="1.0" encoding="UTF-8" standalone="no"?>
<svg xmlns:xlink="http://www.w3.org/1999/xlink" height="164.4px" width="222.9px" xmlns="http://www.w3.org/2000/svg">
  <g transform="matrix(6.0, 0.0, 0.0, 6.0, 107.4, 112.8)">
    <use height="16.35" transform="matrix(1.0, 0.0, 0.0, 1.0, -8.3, -7.75)" width="15.95" xlink:href="#shape0"/>
    <use height="11.85" transform="matrix(1.0, 0.0, 0.0, 1.0, -1.9, -8.2)" width="21.15" xlink:href="#shape1"/>
    <use height="12.3" transform="matrix(1.0, 0.0, 0.0, 1.0, -12.6, -5.9)" width="31.55" xlink:href="#shape2"/>
    <use height="10.45" transform="matrix(0.2588, -0.9651, 0.9651, 0.2588, -17.8977, -3.5404)" width="14.9" xlink:href="#shape3"/>
  </g>
  <defs>
    <g id="shape0" transform="matrix(1.0, 0.0, 0.0, 1.0, 8.3, 7.75)">
      <path d="M3.6 -7.35 L3.95 -6.9 4.0 -6.75 4.0 3.8 4.2 3.9 4.35 3.85 4.35 -6.4 4.8 -5.85 Q6.05 -4.35 6.3 -4.35 L6.75 -3.65 7.3 -2.75 7.25 -2.25 7.25 -2.2 Q6.9 -2.15 6.9 -0.8 L6.9 1.1 6.75 2.85 Q6.65 3.75 6.95 4.2 5.8 4.95 4.2 6.55 L2.75 8.05 0.65 8.05 -3.5 7.95 -4.05 8.0 Q-4.95 6.85 -5.8 6.0 L-5.9 5.9 Q-6.7 4.85 -8.0 3.75 L-7.9 -0.95 -8.0 -1.95 -7.95 -2.0 -7.85 -2.6 -7.0 -3.7 -5.6 -5.0 Q-3.6 -6.9 -3.6 -7.2 L-3.6 -7.35 -2.65 -7.35 -2.7 -7.1 -2.65 -6.15 -2.65 -4.3 -2.6 -0.85 -2.35 -0.9 -2.3 -7.35 3.6 -7.35 M-5.4 -1.15 L-5.5 -1.8 Q-5.8 -1.65 -5.8 0.0 L-5.75 6.0 -5.5 6.0 -5.4 -1.15 M-1.75 -6.75 Q-2.15 -6.65 -2.15 -6.45 L-1.7 -6.15 Q-1.4 -6.15 -1.4 -6.45 -1.4 -6.9 -1.75 -6.75 M1.25 7.1 Q1.25 7.4 1.55 7.4 1.95 7.4 1.95 7.0 L1.75 6.7 Q1.25 6.7 1.25 7.1 M3.05 6.7 L3.0 6.35 Q2.4 6.25 2.4 7.0 2.4 7.35 2.7 7.35 3.05 7.35 3.05 6.7 M0.95 -4.6 L0.9 -4.65 0.65 -4.65 0.65 7.95 0.7 8.0 0.95 7.95 0.95 -4.6" fill="#734d26" fill-rule="evenodd" stroke="none"/>
      <path d="M3.6 -7.35 L-2.3 -7.35 -2.35 -0.9 -2.6 -0.85 -2.65 -4.3 -2.65 -6.15 -2.7 -7.1 -2.65 -7.35 -3.6 -7.35 -3.6 -7.2 Q-3.6 -6.9 -5.6 -5.0 L-7.0 -3.7 -7.85 -2.6 -7.95 -2.0 -8.0 -1.95 -7.9 -0.95 -8.0 3.75 Q-6.7 4.85 -5.9 5.9 L-5.8 6.0 Q-4.95 6.85 -4.05 8.0 L-3.5 7.95 0.65 8.05 2.75 8.05 4.2 6.55 Q5.8 4.95 6.95 4.2 6.65 3.75 6.75 2.85 L6.9 1.1 6.9 -0.8 Q6.9 -2.15 7.25 -2.2 L7.25 -2.25 7.3 -2.75 6.75 -3.65 6.3 -4.35 Q6.05 -4.35 4.8 -5.85 L4.35 -6.4 4.35 3.85 4.2 3.9 4.0 3.8 4.0 -6.75 3.95 -6.9 3.6 -7.35 M4.05 -7.25 Q6.45 -5.1 7.45 -3.05 L7.6 -3.1 7.65 -2.9 7.6 -1.65 7.45 -1.6 7.35 -1.65 7.2 4.0 7.3 3.95 7.35 4.1 Q7.35 4.35 5.35 6.2 L3.3 8.05 4.7 8.0 4.75 8.15 3.05 8.25 2.5 8.6 2.45 8.4 2.55 8.25 -3.7 8.35 -3.9 8.35 -3.9 8.45 -4.05 8.5 -7.1 5.2 -8.0 4.15 -8.0 4.2 -8.1 4.25 -8.25 4.15 -8.25 3.8 -8.3 3.75 -8.3 3.5 -8.25 3.55 -8.25 -2.1 -8.2 -2.1 -8.25 -2.3 -8.25 -2.5 -8.25 -2.85 -8.05 -2.95 -8.0 -3.0 -7.95 -3.05 -8.0 -3.15 Q-8.0 -3.55 -6.05 -5.35 L-3.7 -7.35 -3.75 -7.35 -3.8 -7.4 -3.8 -7.65 -2.45 -7.7 -2.3 -7.75 -2.3 -7.7 3.95 -7.65 4.0 -7.45 3.95 -7.35 4.05 -7.25 M0.95 -4.6 L0.95 7.95 0.7 8.0 0.65 7.95 0.65 -4.65 0.9 -4.65 0.95 -4.6 M3.05 6.7 Q3.05 7.35 2.7 7.35 2.4 7.35 2.4 7.0 2.4 6.25 3.0 6.35 L3.05 6.7 M1.25 7.1 Q1.25 6.7 1.75 6.7 L1.95 7.0 Q1.95 7.4 1.55 7.4 1.25 7.4 1.25 7.1 M-1.75 -6.75 Q-1.4 -6.9 -1.4 -6.45 -1.4 -6.15 -1.7 -6.15 L-2.15 -6.45 Q-2.15 -6.65 -1.75 -6.75 M-5.4 -1.15 L-5.5 6.0 -5.75 6.0 -5.8 0.0 Q-5.8 -1.65 -5.5 -1.8 L-5.4 -1.15" fill="#000000" fill-rule="evenodd" stroke="none"/>
    </g>
    <g id="shape1" transform="matrix(1.0, 0.0, 0.0, 1.0, 1.9, 8.2)">
      <path d="M-0.25 -3.0 L-0.2 -2.85 -0.1 -2.7 0.1 -2.4 Q0.5 -1.9 1.1 -2.0 L1.55 -2.1 1.6 -2.25 1.6 -2.3 1.65 -2.3 1.65 -2.35 1.9 -2.35 1.95 -2.3 2.1 -2.35 Q2.9 -2.4 3.95 -1.1 4.5 -0.3 4.95 -0.05 L5.3 0.1 6.7 1.0 Q8.45 1.7 13.75 1.8 L13.8 1.85 13.8 2.0 14.3 2.35 15.45 3.15 15.55 3.2 15.6 3.05 15.5 2.65 15.0 2.45 Q14.4 2.15 14.45 1.9 L14.45 1.85 15.6 2.1 16.7 2.35 16.7 2.2 Q16.45 1.95 16.35 1.5 15.05 1.85 14.85 1.15 L15.0 1.0 16.3 1.15 17.15 0.75 16.85 -0.1 Q16.2 0.45 15.6 0.5 15.35 0.55 15.3 0.2 L15.6 0.15 Q16.05 0.1 16.9 -0.65 L17.7 -1.75 16.8 -1.9 Q16.0 -2.1 15.95 -2.4 L16.1 -2.7 Q16.25 -2.45 17.0 -2.25 L17.55 -2.85 Q18.3 -3.9 18.75 -5.5 L18.4 -5.5 17.75 -5.3 17.5 -5.1 17.4 -5.2 16.65 -4.7 16.35 -4.65 16.3 -4.8 Q16.25 -5.2 17.65 -5.6 L18.25 -6.8 18.45 -7.5 18.6 -7.9 Q17.45 -7.7 16.8 -7.1 L15.6 -6.0 14.35 -4.85 Q13.7 -4.25 13.2 -4.0 L13.15 -3.9 11.65 -5.05 Q10.3 -6.0 8.7 -5.85 L8.0 -5.6 7.85 -5.55 7.2 -5.4 5.9 -5.1 5.8 -5.1 5.8 -5.05 4.2 -4.65 3.2 -4.05 2.9 -3.95 2.8 -4.15 2.8 -4.2 2.85 -4.35 2.45 -4.6 Q1.95 -4.85 1.9 -5.2 L0.95 -5.25 Q0.4 -5.2 0.0 -4.45 L-0.4 -3.8 -0.35 -3.75 -0.35 -3.5 -0.5 -3.5 -0.5 -3.4 -1.4 -2.85 -0.75 -3.0 -0.45 -3.05 -0.45 -3.0 -0.25 -3.0 M3.0 -4.5 L3.15 -4.55 3.2 -4.4 Q4.7 -5.2 5.75 -5.4 L5.8 -5.45 7.9 -6.0 8.8 -6.2 Q10.35 -6.35 11.85 -5.45 L13.1 -4.3 17.95 -8.15 18.8 -8.2 18.85 -8.15 18.85 -8.1 18.95 -8.15 18.95 -7.85 18.45 -6.45 18.1 -5.8 19.2 -6.05 19.25 -5.95 18.55 -3.9 Q18.3 -3.1 17.25 -2.2 18.05 -2.05 18.05 -1.8 18.1 -1.3 17.25 -0.4 L17.1 -0.25 17.4 0.3 17.4 0.45 17.6 0.65 17.45 0.85 17.4 0.9 16.65 1.45 16.95 1.95 17.0 2.35 17.05 2.35 17.05 2.7 16.3 2.75 15.9 2.75 16.05 3.3 16.05 3.65 15.75 3.65 14.45 2.9 13.35 2.1 11.95 2.05 10.65 2.1 6.75 1.4 5.25 0.55 5.3 0.8 5.1 0.75 5.1 0.55 Q4.45 0.35 3.55 -0.75 L3.1 -1.55 Q2.9 -1.95 1.9 -1.95 L1.65 -1.7 0.3 -1.75 0.95 -1.75 0.4 -1.7 0.3 -1.75 Q0.05 -1.85 -0.15 -2.1 L-0.5 -1.95 -0.8 -2.15 -1.05 -2.4 -1.35 -2.3 Q-1.55 -2.1 -1.85 -2.1 L-1.9 -2.3 -1.55 -3.2 Q-1.1 -3.65 -0.65 -3.75 L-0.65 -3.8 -0.1 -4.95 Q0.6 -5.7 1.2 -5.75 L1.4 -5.7 1.4 -5.55 2.5 -5.55 2.5 -5.25 2.25 -5.1 2.7 -4.8 3.0 -4.5 M0.6 -4.05 L0.5 -3.8 Q0.5 -3.5 1.05 -3.55 L1.4 -3.55 1.55 -3.8 1.15 -4.25 1.1 -4.25 0.95 -3.95 0.6 -3.9 0.6 -4.05 M0.95 -4.65 Q1.85 -4.5 1.9 -3.8 1.95 -3.25 1.1 -3.2 0.25 -3.1 0.2 -3.75 0.1 -4.8 0.95 -4.65 M8.6 -3.85 L8.95 -3.55 Q8.55 -6.25 9.55 -4.8 L9.95 -3.7 Q10.05 -3.0 10.3 -2.7 11.6 -2.55 11.9 -2.2 L12.1 -1.1 12.75 1.1 12.75 1.4 12.4 1.45 12.25 1.45 11.85 1.2 11.65 0.95 Q11.3 0.95 11.15 -0.55 11.0 -1.1 10.3 -1.45 L9.95 -1.6 10.0 -1.25 Q9.9 -0.8 9.3 -0.5 L9.2 -0.7 9.25 -1.25 8.65 -1.85 8.0 -2.25 8.05 -2.45 8.55 -2.7 8.0 -3.8 8.0 -4.15 8.1 -4.2 8.6 -3.85 M8.7 -3.2 L8.95 -2.45 8.75 -2.25 Q9.65 -1.7 9.55 -1.25 L9.65 -1.9 9.9 -1.9 Q11.3 -1.9 11.45 -1.0 L11.75 0.6 11.8 0.65 12.05 0.8 12.15 1.05 12.35 1.05 12.1 -0.2 11.65 -1.95 10.7 -2.2 10.1 -2.45 Q9.9 -2.45 9.6 -3.3 L9.15 -4.7 9.1 -4.7 9.3 -2.75 9.2 -2.7 Q9.0 -2.65 8.75 -3.25 L8.7 -3.25 8.7 -3.2 M-0.4 -2.7 L-0.85 -2.55 -0.4 -2.55 -0.4 -2.7" fill="#000000" fill-rule="evenodd" stroke="none"/>
      <path d="M-0.35 -3.5 L-0.35 -3.75 -0.4 -3.8 0.0 -4.45 Q0.4 -5.2 0.95 -5.25 L1.9 -5.2 Q1.95 -4.85 2.45 -4.6 L2.85 -4.35 2.8 -4.2 2.8 -4.15 2.9 -3.95 3.2 -4.05 4.2 -4.65 5.8 -5.05 5.8 -5.1 5.9 -5.1 7.2 -5.4 7.85 -5.55 8.0 -5.6 8.7 -5.85 Q10.3 -6.0 11.65 -5.05 L13.15 -3.9 13.2 -4.0 Q13.7 -4.25 14.35 -4.85 L15.6 -6.0 16.8 -7.1 Q17.45 -7.7 18.6 -7.9 L18.45 -7.5 18.25 -6.8 17.65 -5.6 Q16.25 -5.2 16.3 -4.8 L16.35 -4.65 16.65 -4.7 17.4 -5.2 17.5 -5.1 17.75 -5.3 18.4 -5.5 18.75 -5.5 Q18.3 -3.9 17.55 -2.85 L17.0 -2.25 Q16.25 -2.45 16.1 -2.7 L15.95 -2.4 Q16.0 -2.1 16.8 -1.9 L17.7 -1.75 16.9 -0.65 Q16.05 0.1 15.6 0.15 L15.3 0.2 Q15.35 0.55 15.6 0.5 16.2 0.45 16.85 -0.1 L17.15 0.75 16.3 1.15 15.0 1.0 14.85 1.15 Q15.05 1.85 16.35 1.5 16.45 1.95 16.7 2.2 L16.7 2.35 15.6 2.1 14.45 1.85 14.45 1.9 Q14.4 2.15 15.0 2.45 L15.5 2.65 15.6 3.05 15.55 3.2 15.45 3.15 14.3 2.35 13.8 2.0 13.8 1.85 13.75 1.8 Q8.45 1.7 6.7 1.0 L5.3 0.1 4.95 -0.05 Q4.5 -0.3 3.95 -1.1 2.9 -2.4 2.1 -2.35 L1.95 -2.3 1.9 -2.35 1.65 -2.35 1.65 -2.3 1.6 -2.3 1.6 -2.25 1.55 -2.1 1.1 -2.0 Q0.5 -1.9 0.1 -2.4 L-0.1 -2.7 -0.2 -2.85 -0.25 -3.0 -0.2 -3.0 -0.15 -3.25 -0.25 -3.5 -0.35 -3.5 M8.6 -3.85 L8.1 -4.2 8.0 -4.15 8.0 -3.8 8.55 -2.7 8.05 -2.45 8.0 -2.25 8.65 -1.85 9.25 -1.25 9.2 -0.7 9.3 -0.5 Q9.9 -0.8 10.0 -1.25 L9.95 -1.6 10.3 -1.45 Q11.0 -1.1 11.15 -0.55 11.3 0.95 11.65 0.95 L11.85 1.2 12.25 1.45 12.4 1.45 12.75 1.4 12.75 1.1 12.1 -1.1 11.9 -2.2 Q11.6 -2.55 10.3 -2.7 10.05 -3.0 9.95 -3.7 L9.55 -4.8 Q8.55 -6.25 8.95 -3.55 L8.6 -3.85 M0.95 -4.65 Q0.1 -4.8 0.2 -3.75 0.25 -3.1 1.1 -3.2 1.95 -3.25 1.9 -3.8 1.85 -4.5 0.95 -4.65 M0.6 -4.05 L0.6 -3.9 0.95 -3.95 1.1 -4.25 1.15 -4.25 1.55 -3.8 1.4 -3.55 1.05 -3.55 Q0.5 -3.5 0.5 -3.8 L0.6 -4.05" fill="#ffffff" fill-rule="evenodd" stroke="none"/>
      <path d="M-0.35 -3.5 L-0.25 -3.5 -0.15 -3.25 -0.2 -3.0 -0.25 -3.0 -0.45 -3.0 -0.45 -3.05 -0.75 -3.0 -1.4 -2.85 -0.5 -3.4 -0.5 -3.5 -0.35 -3.5 M8.75 -3.25 Q9.0 -2.65 9.2 -2.7 L9.3 -2.75 9.1 -4.7 9.15 -4.7 9.6 -3.3 Q9.9 -2.45 10.1 -2.45 L10.7 -2.2 11.65 -1.95 12.1 -0.2 12.35 1.05 12.15 1.05 12.05 0.8 11.8 0.65 11.75 0.6 11.45 -1.0 Q11.3 -1.9 9.9 -1.9 L9.65 -1.9 9.55 -1.25 Q9.65 -1.7 8.75 -2.25 L8.95 -2.45 8.7 -3.2 8.75 -3.25 M-0.4 -2.7 L-0.4 -2.55 -0.85 -2.55 -0.4 -2.7" fill="#ffff09" fill-rule="evenodd" stroke="none"/>
    </g>
    <g id="shape2" transform="matrix(1.0, 0.0, 0.0, 1.0, 12.6, 5.9)">
      <path d="M1.4 -1.55 L1.5 -1.55 1.55 -1.55 1.2 -1.5 1.8 -1.4 2.0 -0.65 2.1 0.2 1.9 1.0 2.3 1.0 2.3 0.95 2.55 0.9 2.6 1.0 3.95 0.95 5.1 1.05 5.3 1.0 5.5 1.0 5.35 0.95 Q5.55 0.8 5.55 0.25 L5.55 0.2 5.65 -0.25 5.75 -1.7 5.8 -2.15 5.9 -2.8 6.0 -3.6 6.1 -4.4 6.05 -4.9 6.05 -5.15 6.05 -5.25 Q6.3 -6.0 7.25 -5.85 L7.65 -5.85 7.75 -5.75 7.75 -5.7 7.75 -5.6 7.55 -3.85 7.6 -3.45 7.5 -2.9 7.25 0.35 Q7.1 0.3 7.1 0.55 7.1 1.15 7.85 1.15 L7.75 1.2 9.35 1.4 Q12.9 1.85 15.85 2.7 L17.0 2.95 17.05 3.0 18.3 3.35 18.9 3.45 18.95 3.6 18.8 3.65 12.15 3.15 Q7.75 2.85 3.6 3.1 L3.6 3.2 3.45 3.25 3.3 3.05 0.5 3.25 0.4 3.65 0.2 3.65 -0.85 3.6 -1.1 3.6 -1.15 3.4 -2.7 3.6 -5.5 4.15 -5.4 4.85 -5.35 5.1 -5.4 5.35 Q-5.35 5.6 -6.45 5.8 L-6.4 6.05 -6.65 6.15 -6.75 5.85 -6.95 5.85 -7.0 5.7 -6.85 5.55 -7.1 4.75 -7.4 4.9 Q-7.4 5.45 -7.95 5.85 L-8.15 6.1 Q-8.35 6.35 -8.7 6.4 -9.25 6.45 -9.6 5.9 L-9.9 5.3 -9.8 4.6 -10.55 4.2 -10.65 3.85 -10.45 3.05 -10.2 2.8 -12.5 -3.7 -12.45 -3.75 -12.5 -3.75 -12.6 -3.85 -12.2 -4.6 -11.8 -5.05 -11.85 -5.05 -11.85 -5.3 -11.65 -5.45 -8.9 -4.9 -6.65 -4.4 -6.45 -4.45 -4.7 0.85 -4.65 0.9 Q-4.5 0.8 -4.4 1.0 L-4.35 1.3 -4.3 1.6 -2.7 1.45 -2.4 1.4 -2.5 1.1 -2.4 -0.1 -2.55 -0.75 -2.55 -1.1 -1.15 -1.35 0.05 -1.45 0.1 -1.45 1.1 -1.55 1.25 -1.55 1.4 -1.55 M2.2 -1.8 L2.1 -1.8 2.2 -1.8 M1.65 -1.05 L-2.3 -0.9 -2.25 -0.65 -2.1 -0.15 Q-2.0 0.95 -2.15 1.4 L-1.1 1.3 -0.8 1.25 -0.65 0.75 -0.65 0.8 -0.6 0.7 -0.05 0.65 0.8 0.75 1.0 0.9 1.0 1.05 1.5 1.0 1.75 -0.1 1.65 -1.05 M6.45 -4.95 L6.35 -4.95 6.3 -4.85 6.35 -4.0 Q6.2 -3.6 6.2 -2.4 L5.75 0.8 5.9 0.95 5.9 1.05 6.8 1.15 6.8 0.9 7.15 -2.35 7.3 -5.55 6.45 -5.1 6.45 -4.95 M17.15 3.3 L12.15 2.25 8.2 1.7 Q8.0 1.85 8.1 2.2 L8.15 2.65 11.95 2.9 17.15 3.3 M7.8 2.3 Q7.75 1.85 7.85 1.65 L6.65 1.55 5.9 2.65 7.9 2.7 7.8 2.3 M7.6 1.15 L7.5 1.15 7.65 1.2 7.6 1.15 M5.65 2.6 L6.0 1.95 6.4 1.55 5.15 1.45 5.15 1.55 4.9 1.9 4.85 1.9 4.85 2.05 5.2 2.65 5.65 2.65 5.65 2.6 M4.3 1.45 L4.55 1.65 4.6 1.6 4.75 1.45 4.3 1.45 M2.9 2.25 L2.7 2.5 2.6 2.7 3.15 2.7 3.0 2.5 2.9 2.25 M4.8 2.65 L3.95 1.4 2.8 1.45 3.45 2.7 4.8 2.65 M0.35 1.05 L0.2 1.0 0.05 1.05 -0.15 1.0 -0.25 1.05 -0.85 3.05 Q-0.75 3.35 -0.1 3.3 L0.25 2.95 0.3 2.95 0.35 2.7 0.4 2.55 0.55 1.7 0.55 1.55 0.55 1.4 0.45 1.1 0.55 1.1 0.6 1.0 0.35 1.05 M0.65 2.85 L0.9 2.85 2.25 2.75 2.5 2.3 2.75 1.95 2.4 1.45 0.9 1.5 0.75 2.15 0.65 2.85 M-12.25 -3.8 L-11.05 -0.6 -10.0 2.7 -10.0 2.75 -9.6 2.75 -9.05 2.55 -9.0 2.5 -7.95 2.4 -8.15 1.95 -8.15 1.85 -8.35 1.85 -8.45 1.65 Q-8.45 1.25 -7.5 1.3 L-6.35 1.2 -6.15 1.2 -6.0 1.95 -5.85 1.9 -4.55 1.6 -4.6 1.55 -4.95 1.55 Q-5.05 0.45 -5.8 -1.45 -6.55 -3.15 -6.7 -4.1 L-11.4 -4.95 -11.75 -4.45 -12.25 -3.8 M-1.45 2.15 L-1.65 1.7 -2.7 1.8 -5.9 2.35 -5.55 3.75 -4.8 3.55 -1.15 3.1 -1.25 3.0 -1.15 2.7 -1.3 2.7 -1.45 2.15 M-0.85 1.6 L-1.25 1.65 -1.2 1.85 -1.05 2.3 -0.95 1.85 -0.85 1.6 M-6.25 2.4 L-6.2 2.0 -6.4 1.6 -6.45 1.5 -7.95 1.8 -7.6 2.3 -7.65 2.55 -7.1 3.55 -6.95 3.95 -6.65 4.75 -6.5 5.1 -6.5 5.4 -5.65 5.25 -5.75 4.9 -5.75 4.65 -6.05 3.35 -6.1 3.1 -6.1 2.85 -6.25 2.4 M-9.75 3.0 Q-10.35 3.1 -10.35 3.75 L-10.25 4.05 -9.35 4.25 -9.25 4.35 -9.6 5.2 -9.4 5.7 Q-9.1 6.05 -8.7 6.05 L-8.25 5.85 -8.2 5.8 -8.1 5.5 -7.85 5.15 -7.75 5.0 -7.8 4.95 Q-7.85 4.6 -7.3 4.35 L-7.2 4.35 -7.75 2.8 -8.65 3.0 -8.7 3.05 -8.7 3.1 -8.85 3.15 -9.15 3.0 -9.4 2.9 -9.4 3.05 -9.55 3.15 -9.7 3.0 -9.75 3.0" fill="#000000" fill-rule="evenodd" stroke="none"/>
      <path d="M1.65 -1.05 L1.75 -0.1 1.5 1.0 1.0 1.05 1.0 0.9 0.8 0.75 -0.05 0.65 -0.6 0.7 -0.65 0.8 -0.65 0.75 -0.8 1.25 -1.1 1.3 -2.15 1.4 Q-2.0 0.95 -2.1 -0.15 L-2.25 -0.65 -2.3 -0.9 1.65 -1.05 M-12.25 -3.8 L-11.75 -4.45 -11.4 -4.95 -6.7 -4.1 Q-6.55 -3.15 -5.8 -1.45 -5.05 0.45 -4.95 1.55 L-4.6 1.55 -4.55 1.6 -5.85 1.9 -6.0 1.95 -6.15 1.2 -6.35 1.2 -7.5 1.3 Q-8.45 1.25 -8.45 1.65 L-8.35 1.85 -8.15 1.85 -8.15 1.95 -7.95 2.4 -9.0 2.5 -9.05 2.55 -9.6 2.75 -10.0 2.75 -10.0 2.7 -11.05 -0.6 -12.25 -3.8" fill="#ac7339" fill-rule="evenodd" stroke="none"/>
      <path d="M6.45 -4.95 L6.45 -5.1 7.3 -5.55 7.15 -2.35 6.8 0.9 6.8 1.15 5.9 1.05 5.9 0.95 5.75 0.8 6.2 -2.4 Q6.2 -3.6 6.35 -4.0 L6.3 -4.85 6.35 -4.95 6.45 -4.95 M7.8 2.3 L7.9 2.7 5.9 2.65 6.65 1.55 7.85 1.65 Q7.75 1.85 7.8 2.3 M0.35 1.05 L0.6 1.0 0.55 1.1 0.45 1.1 0.55 1.4 0.55 1.55 0.55 1.7 0.4 2.55 0.35 2.7 0.3 2.95 0.25 2.95 -0.1 3.3 Q-0.75 3.35 -0.85 3.05 L-0.25 1.05 -0.15 1.0 0.05 1.05 0.2 1.0 0.35 1.05 M4.8 2.65 L3.45 2.7 2.8 1.45 3.95 1.4 4.8 2.65 M2.9 2.25 L3.0 2.5 3.15 2.7 2.6 2.7 2.7 2.5 2.9 2.25 M4.3 1.45 L4.75 1.45 4.6 1.6 4.55 1.65 4.3 1.45 M5.65 2.6 L5.65 2.65 5.2 2.65 4.85 2.05 4.85 1.9 4.9 1.9 5.15 1.55 5.15 1.45 6.4 1.55 6.0 1.95 5.65 2.6 M-0.85 1.6 L-0.95 1.85 -1.05 2.3 -1.2 1.85 -1.25 1.65 -0.85 1.6 M-6.25 2.4 L-6.1 2.85 -6.1 3.1 -6.05 3.35 -5.75 4.65 -5.75 4.9 -5.65 5.25 -6.5 5.4 -6.5 5.1 -6.65 4.75 -6.95 3.95 -7.1 3.55 -7.65 2.55 -7.6 2.3 -7.95 1.8 -6.45 1.5 -6.4 1.6 -6.2 2.0 -6.25 2.4" fill="#c8b159" fill-rule="evenodd" stroke="none"/>
      <path d="M14.3 -2.2 L14.9 -2.4 14.9 -2.35 15.05 -2.0 15.35 -1.85 15.35 -1.8 14.3 -2.2 M13.25 -2.2 L13.6 -2.45 13.7 -2.3 Q13.45 -2.25 13.35 -2.1 L13.35 -2.05 13.25 -2.2" fill="#ffffff" fill-rule="evenodd" stroke="none"/>
      <path d="M17.15 3.3 L11.95 2.9 8.15 2.65 8.1 2.2 Q8.0 1.85 8.2 1.7 L12.15 2.25 17.15 3.3 M0.65 2.85 L0.75 2.15 0.9 1.5 2.4 1.45 2.75 1.95 2.5 2.3 2.25 2.75 0.9 2.85 0.65 2.85 M-1.45 2.15 L-1.3 2.7 -1.15 2.7 -1.25 3.0 -1.15 3.1 -4.8 3.55 -5.55 3.75 -5.9 2.35 -2.7 1.8 -1.65 1.7 -1.45 2.15 M-9.75 3.0 L-9.7 3.0 -9.55 3.15 -9.4 3.05 -9.4 2.9 -9.15 3.0 -8.85 3.15 -8.7 3.1 -8.7 3.05 -8.65 3.0 -7.75 2.8 -7.2 4.35 -7.3 4.35 Q-7.85 4.6 -7.8 4.95 L-7.75 5.0 -7.85 5.15 -8.1 5.5 -8.2 5.8 -8.25 5.85 -8.7 6.05 Q-9.1 6.05 -9.4 5.7 L-9.6 5.2 -9.25 4.35 -9.35 4.25 -10.25 4.05 -10.35 3.75 Q-10.35 3.1 -9.75 3.0" fill="#e2e0d8" fill-rule="evenodd" stroke="none"/>
    </g>
    <g id="shape3" transform="matrix(1.0, 0.0, 0.0, 1.0, 10.05, 11.55)">
      <path d="M2.8 -2.75 Q2.05 -2.55 1.25 -3.25 L-0.15 -4.85 -0.7 -5.6 -0.75 -5.55 -1.0 -6.0 -6.9 -2.45 -7.15 -2.35 Q-7.15 -2.0 -7.5 -1.7 L-8.3 -1.2 -9.15 -1.15 Q-9.65 -1.25 -9.95 -2.05 -10.15 -2.8 -9.85 -3.45 L-9.3 -4.05 -8.15 -3.95 -7.85 -3.75 Q-6.55 -4.35 -1.65 -7.1 L-2.05 -7.55 -1.9 -7.6 -1.7 -7.5 -1.7 -7.55 -1.8 -7.65 -1.95 -7.75 -1.85 -7.8 -2.35 -8.85 Q-2.65 -9.8 -2.55 -10.1 L-1.75 -10.85 -0.55 -11.4 0.75 -11.35 2.1 -9.55 2.6 -9.75 3.15 -9.85 3.55 -9.1 Q3.6 -8.95 3.05 -8.35 L3.85 -7.3 Q5.05 -6.1 4.8 -4.8 L3.95 -3.7 Q3.15 -2.85 2.8 -2.75 M3.25 -9.0 L2.95 -9.55 2.45 -9.4 2.3 -9.3 2.15 -9.2 2.75 -8.85 2.85 -8.7 3.2 -9.0 3.25 -9.0 M1.55 -9.5 L1.6 -9.45 1.7 -9.55 0.6 -11.1 -0.45 -11.15 -1.55 -10.6 -2.0 -10.2 -2.3 -10.15 -2.0 -8.95 -1.6 -7.95 0.0 -8.15 0.4 -8.55 0.65 -8.75 1.15 -9.0 1.2 -9.45 1.45 -9.55 1.45 -9.45 1.55 -9.5 M1.85 -8.05 L1.75 -8.05 1.85 -8.0 1.85 -8.05 M2.35 -7.8 L2.35 -7.85 1.8 -7.4 1.55 -7.3 1.6 -7.3 1.1 -6.8 1.0 -6.75 1.0 -6.9 0.95 -6.9 0.1 -4.95 0.5 -4.5 Q1.9 -2.85 2.7 -3.1 3.25 -3.3 3.9 -3.95 4.7 -4.75 4.5 -5.55 4.2 -6.55 2.75 -8.05 L2.35 -7.8 M1.55 -8.3 L2.3 -8.4 2.55 -8.5 1.6 -8.95 1.55 -8.65 1.55 -8.3 M-0.3 -6.2 L-0.45 -6.15 -0.6 -6.1 -0.55 -5.75 -0.05 -5.2 0.5 -6.65 0.2 -6.5 -0.15 -6.15 -0.3 -6.2 M-0.95 -7.15 Q-0.45 -7.0 -0.1 -6.7 L0.0 -6.75 0.75 -7.15 0.8 -7.25 0.85 -7.6 -0.3 -7.55 -0.9 -7.2 -0.95 -7.2 -0.95 -7.15 M1.1 -8.6 L1.1 -8.65 1.0 -8.5 1.0 -8.4 1.1 -8.6 M-1.2 -7.45 L-1.1 -7.6 -1.25 -7.55 -1.2 -7.45 M-1.35 -6.9 Q-1.75 -6.6 -2.25 -6.35 L-4.15 -5.35 Q-5.05 -5.1 -7.5 -3.5 L-7.15 -2.8 -7.2 -2.6 -1.15 -6.25 -1.25 -6.45 -1.35 -6.9 M-7.65 -3.2 L-7.75 -3.1 -7.9 -3.1 Q-8.55 -3.9 -9.15 -3.75 L-9.5 -3.25 Q-9.75 -2.75 -9.6 -2.15 -9.3 -1.3 -8.4 -1.55 -7.15 -1.95 -7.55 -2.95 L-7.65 -3.2" fill="#000000" fill-rule="evenodd" stroke="none"/>
      <path d="M3.25 -9.0 L3.2 -9.0 2.85 -8.7 2.75 -8.85 2.15 -9.2 2.3 -9.3 2.45 -9.4 2.95 -9.55 3.25 -9.0 M1.55 -8.3 L1.55 -8.65 1.6 -8.95 2.55 -8.5 2.3 -8.4 1.55 -8.3 M-0.9 -7.2 L-0.3 -7.55 0.85 -7.6 0.8 -7.25 0.75 -7.15 0.0 -6.75 -0.1 -6.7 Q-0.45 -7.0 -0.95 -7.15 L-0.9 -7.2 M-7.65 -3.2 L-7.55 -2.95 Q-7.15 -1.95 -8.4 -1.55 -9.3 -1.3 -9.6 -2.15 -9.75 -2.75 -9.5 -3.25 L-9.15 -3.75 Q-8.55 -3.9 -7.9 -3.1 L-7.75 -3.1 -7.65 -3.2 M-1.35 -6.9 L-1.25 -6.45 -1.15 -6.25 -7.2 -2.6 -7.15 -2.8 -7.5 -3.5 Q-5.05 -5.1 -4.15 -5.35 L-2.25 -6.35 Q-1.75 -6.6 -1.35 -6.9" fill="#734d26" fill-rule="evenodd" stroke="none"/>
      <path d="M1.55 -9.5 L1.45 -9.45 1.45 -9.55 1.2 -9.45 1.15 -9.0 0.65 -8.75 0.4 -8.55 0.0 -8.15 -1.6 -7.95 -2.0 -8.95 -2.3 -10.15 -2.0 -10.2 -1.55 -10.6 -0.45 -11.15 0.6 -11.1 1.7 -9.55 1.6 -9.45 1.55 -9.5 M2.35 -7.8 L2.75 -8.05 Q4.2 -6.55 4.5 -5.55 4.7 -4.75 3.9 -3.95 3.25 -3.3 2.7 -3.1 1.9 -2.85 0.5 -4.5 L0.1 -4.95 0.95 -6.9 1.0 -6.9 1.0 -6.75 1.1 -6.8 1.6 -7.3 1.55 -7.3 1.8 -7.4 2.35 -7.85 2.35 -7.8 M-0.3 -6.2 L-0.15 -6.15 0.2 -6.5 0.5 -6.65 -0.05 -5.2 -0.55 -5.75 -0.6 -6.1 -0.45 -6.15 -0.3 -6.2" fill="#9d9d9d" fill-rule="evenodd" stroke="none"/>
    </g>
  </defs>
</svg>
