<?xml version="1.0" encoding="UTF-8" standalone="no"?>
<svg xmlns:xlink="http://www.w3.org/1999/xlink" height="98.1px" width="299.7px" xmlns="http://www.w3.org/2000/svg">
  <g transform="matrix(6.0, 0.0, 0.0, 6.0, 105.0, 46.5)">
    <use height="16.35" transform="matrix(1.0, 0.0, 0.0, 1.0, -8.3, -7.75)" width="15.95" xlink:href="#shape0"/>
    <use height="10.25" transform="matrix(1.0, 0.0, 0.0, 1.0, -17.35, -4.75)" width="13.4" xlink:href="#shape1"/>
    <use height="10.85" transform="matrix(1.0, 0.0, 0.0, 1.0, -15.1, -5.0)" width="31.9" xlink:href="#shape2"/>
    <use height="3.7" transform="matrix(1.0, 0.0, 0.0, 1.0, -15.15, -2.6)" width="31.3" xlink:href="#shape3"/>
  </g>
  <defs>
    <g id="shape0" transform="matrix(1.0, 0.0, 0.0, 1.0, 8.3, 7.75)">
      <path d="M3.6 -7.35 L3.95 -6.9 4.0 -6.75 4.0 3.8 4.2 3.9 4.35 3.85 4.35 -6.4 4.8 -5.85 Q6.05 -4.35 6.3 -4.35 L6.75 -3.65 7.3 -2.75 7.25 -2.25 7.25 -2.2 Q6.9 -2.15 6.9 -0.8 L6.9 1.1 6.75 2.85 Q6.65 3.75 6.95 4.2 5.8 4.95 4.2 6.55 L2.75 8.05 0.65 8.05 -3.5 7.95 -4.05 8.0 Q-4.95 6.85 -5.8 6.0 L-5.9 5.9 Q-6.7 4.85 -8.0 3.75 L-7.9 -0.95 -8.0 -1.95 -7.95 -2.0 -7.85 -2.6 -7.0 -3.7 -5.6 -5.0 Q-3.6 -6.9 -3.6 -7.2 L-3.6 -7.35 -2.65 -7.35 -2.7 -7.1 -2.65 -6.15 -2.65 -4.3 -2.6 -0.85 -2.35 -0.9 -2.3 -7.35 3.6 -7.35 M-5.4 -1.15 L-5.5 -1.8 Q-5.8 -1.65 -5.8 0.0 L-5.75 6.0 -5.5 6.0 -5.4 -1.15 M-1.75 -6.75 Q-2.15 -6.65 -2.15 -6.45 L-1.7 -6.15 Q-1.4 -6.15 -1.4 -6.45 -1.4 -6.9 -1.75 -6.75 M1.25 7.1 Q1.25 7.4 1.55 7.4 1.95 7.4 1.95 7.0 L1.75 6.7 Q1.25 6.7 1.25 7.1 M3.05 6.7 L3.0 6.35 Q2.4 6.25 2.4 7.0 2.4 7.35 2.7 7.35 3.05 7.35 3.05 6.7 M0.95 -4.6 L0.9 -4.65 0.65 -4.65 0.65 7.95 0.7 8.0 0.95 7.95 0.95 -4.6" fill="#734d26" fill-rule="evenodd" stroke="none"/>
      <path d="M3.6 -7.35 L-2.3 -7.35 -2.35 -0.9 -2.6 -0.85 -2.65 -4.3 -2.65 -6.15 -2.7 -7.1 -2.65 -7.35 -3.6 -7.35 -3.6 -7.2 Q-3.6 -6.9 -5.6 -5.0 L-7.0 -3.7 -7.85 -2.6 -7.95 -2.0 -8.0 -1.95 -7.9 -0.95 -8.0 3.75 Q-6.7 4.85 -5.9 5.9 L-5.8 6.0 Q-4.95 6.85 -4.05 8.0 L-3.5 7.95 0.65 8.05 2.75 8.05 4.2 6.55 Q5.8 4.95 6.95 4.2 6.65 3.75 6.75 2.85 L6.9 1.1 6.9 -0.8 Q6.9 -2.15 7.25 -2.2 L7.25 -2.25 7.3 -2.75 6.75 -3.65 6.3 -4.35 Q6.05 -4.35 4.8 -5.85 L4.35 -6.4 4.35 3.85 4.2 3.9 4.0 3.8 4.0 -6.75 3.95 -6.9 3.6 -7.35 M4.05 -7.25 Q6.45 -5.1 7.45 -3.05 L7.6 -3.1 7.65 -2.9 7.6 -1.65 7.45 -1.6 7.35 -1.65 7.2 4.0 7.3 3.95 7.35 4.1 Q7.35 4.35 5.35 6.2 L3.3 8.05 4.7 8.0 4.75 8.15 3.05 8.25 2.5 8.6 2.45 8.4 2.55 8.25 -3.7 8.35 -3.9 8.35 -3.9 8.45 -4.05 8.5 -7.1 5.2 -8.0 4.15 -8.0 4.2 -8.1 4.25 -8.25 4.15 -8.25 3.8 -8.3 3.75 -8.3 3.5 -8.25 3.55 -8.25 -2.1 -8.2 -2.1 -8.25 -2.3 -8.25 -2.5 -8.25 -2.85 -8.05 -2.95 -8.0 -3.0 -7.95 -3.05 -8.0 -3.15 Q-8.0 -3.55 -6.05 -5.35 L-3.7 -7.35 -3.75 -7.35 -3.8 -7.4 -3.8 -7.65 -2.45 -7.7 -2.3 -7.75 -2.3 -7.7 3.95 -7.65 4.0 -7.45 3.95 -7.35 4.05 -7.25 M0.95 -4.6 L0.95 7.95 0.7 8.0 0.65 7.95 0.65 -4.65 0.9 -4.65 0.95 -4.6 M3.05 6.7 Q3.05 7.35 2.7 7.35 2.4 7.35 2.4 7.0 2.4 6.25 3.0 6.35 L3.05 6.7 M1.25 7.1 Q1.25 6.7 1.75 6.7 L1.95 7.0 Q1.95 7.4 1.55 7.4 1.25 7.4 1.25 7.1 M-1.75 -6.75 Q-1.4 -6.9 -1.4 -6.45 -1.4 -6.15 -1.7 -6.15 L-2.15 -6.45 Q-2.15 -6.65 -1.75 -6.75 M-5.4 -1.15 L-5.5 6.0 -5.75 6.0 -5.8 0.0 Q-5.8 -1.65 -5.5 -1.8 L-5.4 -1.15" fill="#000000" fill-rule="evenodd" stroke="none"/>
    </g>
    <g id="shape1" transform="matrix(1.0, 0.0, 0.0, 1.0, 17.35, 4.75)">
      <path d="M-11.75 -3.55 L-11.05 -3.95 -9.25 -4.25 -7.4 -4.2 Q-5.4 -2.7 -5.1 -2.05 L-4.6 -0.8 Q-4.25 0.2 -4.25 0.45 -4.25 2.1 -5.2 2.85 -7.95 4.25 -9.8 4.25 -12.1 4.25 -13.05 1.95 -13.6 0.65 -13.6 -0.75 -13.6 -1.95 -12.4 -3.0 L-11.75 -3.55 M-12.1 1.15 L-12.35 0.4 Q-12.65 0.35 -12.65 0.75 -12.65 1.15 -12.25 1.35 L-12.1 1.15 M-10.0 3.35 L-9.85 3.25 Q-10.0 2.4 -10.5 2.7 L-10.35 3.1 -10.0 3.35 M-8.05 2.35 L-8.1 2.1 -8.4 2.15 -8.35 2.4 -8.1 2.4 -8.05 2.35 M-5.45 -0.65 L-5.65 -1.95 -6.4 -2.65 -7.1 -3.1 -7.35 -2.9 Q-5.75 -1.85 -5.75 -0.7 L-6.05 1.55 -5.9 1.75 Q-5.6 1.45 -5.5 0.45 L-5.45 -0.65 M-9.45 -0.25 Q-9.8 -0.55 -10.1 -0.55 L-9.65 0.0 Q-9.25 0.35 -8.95 0.35 -8.5 0.35 -8.5 0.15 L-8.55 0.0 Q-9.15 0.05 -9.45 -0.25 M-10.35 -1.7 L-10.3 -1.6 Q-9.75 -1.6 -9.35 -2.0 L-9.0 -2.4 -9.05 -2.55 Q-10.35 -2.2 -10.35 -1.7 M-12.85 -0.8 L-12.8 -0.6 Q-12.5 -0.6 -12.5 -0.95 L-12.2 -1.25 -12.0 -1.45 -12.05 -1.65 Q-12.35 -1.65 -12.6 -1.3 L-12.85 -0.8" fill="#857e69" fill-rule="evenodd" stroke="none"/>
      <path d="M-11.75 -3.55 L-12.4 -3.0 Q-13.6 -1.95 -13.6 -0.75 -13.6 0.65 -13.05 1.95 -12.1 4.25 -9.8 4.25 -7.95 4.25 -5.2 2.85 -4.25 2.1 -4.25 0.45 -4.25 0.2 -4.6 -0.8 L-5.1 -2.05 Q-5.4 -2.7 -7.4 -4.2 L-9.25 -4.25 -11.05 -3.95 -11.75 -3.55 M-11.55 -4.15 L-9.9 -4.65 -9.75 -4.75 -8.95 -4.75 Q-6.2 -4.75 -4.85 -2.4 -3.95 -0.85 -3.95 0.45 -3.95 2.6 -5.1 3.25 -5.85 3.7 -7.3 4.15 L-9.5 4.6 Q-12.3 4.6 -13.35 2.2 -13.9 0.95 -13.9 -0.75 L-13.65 -2.05 Q-13.35 -2.9 -12.8 -3.15 L-12.3 -3.6 -11.55 -4.15 M-12.85 -0.8 L-12.6 -1.3 Q-12.35 -1.65 -12.05 -1.65 L-12.0 -1.45 -12.2 -1.25 -12.5 -0.95 Q-12.5 -0.6 -12.8 -0.6 L-12.85 -0.8 M-10.35 -1.7 Q-10.35 -2.2 -9.05 -2.55 L-9.0 -2.4 -9.35 -2.0 Q-9.75 -1.6 -10.3 -1.6 L-10.35 -1.7 M-9.45 -0.25 Q-9.15 0.05 -8.55 0.0 L-8.5 0.15 Q-8.5 0.35 -8.95 0.35 -9.25 0.35 -9.65 0.0 L-10.1 -0.55 Q-9.8 -0.55 -9.45 -0.25 M-5.45 -0.65 L-5.5 0.45 Q-5.6 1.45 -5.9 1.75 L-6.05 1.55 -5.75 -0.7 Q-5.75 -1.85 -7.35 -2.9 L-7.1 -3.1 -6.4 -2.65 -5.65 -1.95 -5.45 -0.65 M-8.05 2.35 L-8.1 2.4 -8.35 2.4 -8.4 2.15 -8.1 2.1 -8.05 2.35 M-10.0 3.35 L-10.35 3.1 -10.5 2.7 Q-10.0 2.4 -9.85 3.25 L-10.0 3.35 M-12.1 1.15 L-12.25 1.35 Q-12.65 1.15 -12.65 0.75 -12.65 0.35 -12.35 0.4 L-12.1 1.15" fill="#000000" fill-rule="evenodd" stroke="none"/>
      <path d="M-13.65 -2.9 L-14.15 -2.9 -14.1 0.3 -14.25 2.05 -14.25 2.1 -16.85 4.5 -16.6 4.75 -16.5 4.9 Q-15.95 4.35 -14.25 3.45 L-14.2 3.5 -13.55 3.35 Q-13.05 3.25 -13.05 2.95 L-13.35 2.55 -13.55 2.4 -13.6 2.35 -13.75 2.25 -13.65 2.15 -13.75 -0.45 -13.65 -2.9 M-13.4 -3.2 L-13.4 2.05 Q-13.1 2.1 -12.9 2.5 L-12.75 2.95 Q-12.75 3.85 -13.9 3.85 L-14.35 3.85 -15.3 4.55 -16.7 5.5 -16.75 5.3 -16.7 5.15 -17.05 4.65 -17.3 4.65 -17.35 4.5 -16.1 3.25 -14.5 2.05 -14.55 1.7 -14.5 -1.4 -14.35 -2.9 -14.4 -2.9 -14.4 -3.25 -13.6 -3.2 Q-13.55 -3.6 -13.4 -3.2" fill="#000000" fill-rule="evenodd" stroke="none"/>
      <path d="M-13.65 -2.9 L-13.75 -0.45 -13.65 2.15 -13.75 2.25 -13.6 2.35 -13.55 2.4 -13.35 2.55 -13.05 2.95 Q-13.05 3.25 -13.55 3.35 L-14.2 3.5 -14.25 3.45 Q-15.95 4.35 -16.5 4.9 L-16.6 4.75 -16.85 4.5 -14.25 2.1 -14.25 2.05 -14.1 0.3 -14.15 -2.9 -13.65 -2.9" fill="#734d26" fill-rule="evenodd" stroke="none"/>
    </g>
    <g id="shape2" transform="matrix(1.0, 0.0, 0.0, 1.0, 15.1, 5.0)">
      <path d="M13.15 -3.95 L13.15 -3.65 Q13.15 -3.25 13.4 -3.0 L13.7 -2.45 13.85 -2.5 13.85 1.4 15.2 1.4 15.15 0.55 15.15 -0.55 15.25 -2.4 15.2 -2.4 15.15 -2.55 15.85 -3.1 Q16.5 -3.6 16.5 -4.05 L16.3 -4.4 16.0 -4.65 Q15.75 -4.65 15.3 -4.05 L14.85 -3.25 14.8 -3.25 14.8 -3.2 14.65 -3.15 Q14.45 -3.15 14.35 -3.65 14.2 -4.2 13.55 -4.2 13.2 -4.2 13.15 -3.95 M15.55 1.5 L15.65 1.4 15.75 2.0 15.65 5.45 15.85 5.45 15.9 5.6 15.85 5.75 -14.45 5.85 -14.65 5.75 -14.65 5.8 -14.8 5.85 Q-15.05 5.85 -15.1 2.75 L-14.95 1.4 -15.0 1.35 -14.95 1.2 -14.9 1.2 -14.65 1.1 -14.6 1.2 -12.25 1.45 12.75 1.45 12.7 1.4 13.5 1.4 13.5 -2.15 Q13.1 -2.2 12.9 -3.0 12.75 -3.5 12.75 -3.95 12.75 -4.55 13.6 -4.55 14.5 -4.55 14.75 -3.95 L14.75 -3.9 15.2 -4.4 Q15.75 -5.0 16.05 -5.0 16.5 -5.0 16.8 -4.05 16.8 -3.55 16.45 -3.2 L15.5 -2.45 15.5 1.4 15.35 1.6 15.3 1.6 13.5 1.75 13.15 1.75 -12.45 1.85 -14.65 1.55 -14.8 2.7 -14.65 5.2 -14.65 5.45 -14.55 5.45 15.3 5.45 15.3 5.5 15.55 5.5 15.6 5.35 15.45 5.15 15.4 5.15 15.35 3.6 Q15.35 2.3 15.5 1.75 L15.6 1.75 15.65 1.6 15.55 1.5" fill="#000000" fill-rule="evenodd" stroke="none"/>
      <path d="M13.15 -3.95 Q13.2 -4.2 13.55 -4.2 14.2 -4.2 14.35 -3.65 14.45 -3.15 14.65 -3.15 L14.8 -3.2 14.8 -3.25 14.85 -3.25 15.3 -4.05 Q15.75 -4.65 16.0 -4.65 L16.3 -4.4 16.5 -4.05 Q16.5 -3.6 15.85 -3.1 L15.15 -2.55 15.2 -2.4 15.25 -2.4 15.15 -0.55 15.15 0.55 15.2 1.4 13.85 1.4 13.85 -2.5 13.7 -2.45 13.4 -3.0 Q13.15 -3.25 13.15 -3.65 L13.15 -3.95" fill="#ede8de" fill-rule="evenodd" stroke="none"/>
      <path d="M15.5 1.4 L15.55 1.5 15.65 1.6 15.6 1.75 15.5 1.75 Q15.35 2.3 15.35 3.6 L15.4 5.15 15.45 5.15 15.6 5.35 15.55 5.5 15.3 5.5 15.3 5.45 -14.55 5.45 -14.65 5.45 -14.65 5.2 -14.8 2.7 -14.65 1.55 -12.45 1.85 13.15 1.75 13.5 1.75 15.3 1.6 15.35 1.6 15.5 1.4 M15.05 2.55 L15.0 2.4 13.15 2.35 Q12.65 2.35 12.65 2.55 L12.7 2.7 15.0 2.7 15.05 2.55 M5.9 4.6 L5.95 4.75 14.45 4.75 14.5 4.6 12.0 4.4 12.0 4.35 Q12.0 4.2 11.45 4.15 L6.1 4.0 5.9 4.1 5.8 4.25 5.6 4.3 5.5 4.4 -9.7 4.4 -9.85 4.55 -9.8 4.7 5.7 4.7 5.7 4.6 5.9 4.6 M1.05 3.7 L10.9 3.7 10.95 3.55 10.9 3.4 -6.7 3.3 -8.6 3.6 -8.55 3.65 -11.65 3.65 -11.8 3.85 -11.75 4.0 1.05 4.0 1.1 3.85 1.05 3.7 M8.25 2.6 L7.9 2.4 6.25 2.4 4.45 2.4 4.45 2.65 4.5 2.7 8.05 2.8 8.25 2.6 M6.15 2.15 L6.1 2.0 4.35 2.0 4.35 2.25 4.4 2.3 6.1 2.3 6.15 2.15 M-2.45 2.7 L-2.5 2.5 -13.05 2.55 -14.05 2.7 -14.0 2.85 -2.5 2.85 -2.45 2.7" fill="#85732e" fill-rule="evenodd" stroke="none"/>
      <path d="M15.05 2.55 L15.0 2.7 12.7 2.7 12.65 2.55 Q12.65 2.35 13.15 2.35 L15.0 2.4 15.05 2.55 M12.0 4.4 L11.95 4.5 8.3 4.5 5.95 4.5 5.95 4.6 5.9 4.6 5.7 4.6 5.7 4.7 -9.8 4.7 -9.85 4.55 -9.7 4.4 5.5 4.4 5.6 4.3 5.8 4.25 5.9 4.1 6.1 4.0 11.45 4.15 Q12.0 4.2 12.0 4.35 L12.0 4.4 M1.05 3.7 L1.1 3.85 1.05 4.0 -11.75 4.0 -11.8 3.85 -11.65 3.65 -8.55 3.65 0.55 3.65 1.05 3.7 M6.15 2.15 L6.1 2.3 4.4 2.3 4.35 2.25 4.35 2.0 6.1 2.0 6.15 2.15" fill="#9d8837" fill-rule="evenodd" stroke="none"/>
      <path d="M8.3 4.5 L11.95 4.5 12.0 4.4 14.5 4.6 14.45 4.75 5.95 4.75 5.9 4.6 5.95 4.6 8.3 4.5 M-8.55 3.65 L-8.6 3.6 -6.7 3.3 10.9 3.4 10.95 3.55 10.9 3.7 1.05 3.7 0.55 3.65 -8.55 3.65 M8.25 2.6 L8.05 2.8 4.5 2.7 4.45 2.65 4.45 2.4 6.25 2.4 7.9 2.4 8.25 2.6 M-2.45 2.7 L-2.5 2.85 -14.0 2.85 -14.05 2.7 -13.05 2.55 -2.5 2.5 -2.45 2.7" fill="#665126" fill-rule="evenodd" stroke="none"/>
      <path d="M8.3 4.5 L5.95 4.6 5.95 4.5 8.3 4.5" fill="#bfa748" fill-rule="evenodd" stroke="none"/>
    </g>
    <g id="shape3" transform="matrix(1.0, 0.0, 0.0, 1.0, 15.15, 2.6)">
      <path d="M16.1 -2.4 L16.05 -2.25 16.05 0.7 16.15 0.85 16.1 0.9 16.05 0.9 16.05 1.0 15.9 1.1 15.75 1.0 15.75 0.9 -15.0 0.9 -15.05 0.85 -15.05 0.6 -14.95 0.6 -15.0 -0.85 -14.85 -2.25 -15.1 -2.25 -15.15 -2.3 -15.15 -2.55 -14.75 -2.55 -14.75 -2.6 -14.7 -2.55 16.05 -2.55 16.1 -2.4 M15.75 -2.25 L-14.65 -2.25 -14.65 0.6 15.75 0.55 15.75 -2.25" fill="#000000" fill-rule="evenodd" stroke="none"/>
      <path d="M15.75 -2.25 L15.75 0.55 -14.65 0.6 -14.65 -2.25 15.75 -2.25" fill="#990000" fill-rule="evenodd" stroke="none"/>
    </g>
  </defs>
</svg>
