<?xml version="1.0" encoding="UTF-8" standalone="no"?>
<svg xmlns:xlink="http://www.w3.org/1999/xlink" height="45.0px" width="45.0px" xmlns="http://www.w3.org/2000/svg">
  <g transform="matrix(6.0, 0.0, 0.0, 6.0, 22.8, 22.5)">
    <use height="14.5" transform="matrix(0.5175, 0.0, 0.0, 0.5175, -3.8018, -3.7518)" width="14.5" xlink:href="#sprite0"/>
  </g>
  <defs>
    <g id="sprite0" transform="matrix(1.0, 0.0, 0.0, 1.0, 7.25, 7.25)">
      <use height="11.7" transform="matrix(1.2393, 0.0, 0.0, 1.2393, -7.25, -7.25)" width="11.7" xlink:href="#shape0"/>
    </g>
    <g id="shape0" transform="matrix(1.0, 0.0, 0.0, 1.0, 5.85, 5.85)">
      <path d="M4.1 -4.15 Q5.85 -2.4 5.85 0.0 5.85 2.4 4.1 4.1 2.4 5.85 0.0 5.85 -2.4 5.85 -4.15 4.1 -5.85 2.4 -5.85 0.0 -5.85 -2.4 -4.15 -4.15 -2.4 -5.85 0.0 -5.85 2.4 -5.85 4.1 -4.15" fill="url(#gradient0)" fill-rule="evenodd" stroke="none"/>
    </g>
    <radialGradient cx="0" cy="0" gradientTransform="matrix(0.0078, 0.0, 0.0, 0.0078, 0.0, 0.0)" gradientUnits="userSpaceOnUse" id="gradient0" r="819.2" spreadMethod="pad">
      <stop offset="0.1607843137254902" stop-color="#ffffff" stop-opacity="0.92156863"/>
      <stop offset="0.30196078431372547" stop-color="#fd1313" stop-opacity="0.87058824"/>
      <stop offset="0.8705882352941177" stop-color="#e60000" stop-opacity="0.0"/>
    </radialGradient>
  </defs>
</svg>
