<?xml version="1.0" encoding="UTF-8" standalone="no"?>
<svg xmlns:xlink="http://www.w3.org/1999/xlink" height="995.7px" width="1042.2px" xmlns="http://www.w3.org/2000/svg">
  <g transform="matrix(6.0, 0.0, 0.0, 6.0, 315.0, 574.5)">
    <use height="15.0" transform="matrix(0.9946, 0.0565, -0.049, 0.8621, 56.75, 13.8)" width="35.45" xlink:href="#sprite0"/>
    <use height="22.3" transform="matrix(0.9974, 0.0265, -0.0265, 0.9974, 18.8, 9.35)" width="49.1" xlink:href="#sprite1"/>
    <use height="47.6" transform="matrix(0.9987, 0.0135, -0.0135, 0.9987, -13.1, 20.05)" width="121.05" xlink:href="#sprite2"/>
    <use height="55.45" transform="matrix(0.9987, 0.0135, -0.0135, 0.9987, -9.95, 9.85)" width="113.0" xlink:href="#sprite3"/>
    <use height="61.1" transform="matrix(0.7222, 0.0, 0.0, 0.7222, 40.9722, 2.8802)" width="69.9" xlink:href="#sprite4"/>
    <use height="97.35" transform="matrix(1.0, 0.0, 0.0, 1.0, 25.25, -53.2)" width="98.45" xlink:href="#shape5"/>
    <use height="96.0" transform="matrix(0.922, 0.0, 0.0, 1.3576, -7.1034, -90.6407)" width="92.65" xlink:href="#shape6"/>
  </g>
  <defs>
    <g id="sprite0" transform="matrix(1.0, 0.0, 0.0, 1.0, 0.0, 0.0)">
      <use height="15.0" transform="matrix(1.0, 0.0, 0.0, 1.0, 0.0, 0.0)" width="35.45" xlink:href="#shape0"/>
    </g>
    <g id="shape0" transform="matrix(1.0, 0.0, 0.0, 1.0, 0.0, 0.0)">
      <path d="M31.25 5.2 L31.7 5.3 32.35 5.8 32.05 5.9 31.75 6.15 31.75 7.8 Q31.75 8.7 32.25 9.05 L31.75 9.45 31.5 9.5 27.15 10.2 Q26.85 8.95 27.1 7.55 L27.15 5.05 30.95 5.2 31.25 5.2 M7.7 11.8 Q5.4 11.45 3.25 10.45 L3.25 10.35 5.0 10.8 Q3.9 10.2 3.15 9.25 L3.05 9.15 1.95 7.05 Q1.7 6.7 2.15 6.4 L2.7 5.7 2.75 5.5 2.75 5.3 2.8 5.2 14.25 4.95 14.55 4.9 16.75 4.9 16.25 6.25 15.55 6.4 14.65 6.6 Q11.9 7.15 9.6 8.55 7.15 9.95 7.75 11.5 L7.7 11.8 M12.35 5.6 L10.55 5.55 6.6 5.8 4.05 6.15 4.1 6.2 3.9 6.2 3.8 6.45 Q3.8 6.85 4.2 7.0 L5.4 7.05 6.55 6.75 9.3 6.45 Q9.85 6.45 10.0 6.85 L10.3 7.25 10.85 7.1 10.95 6.75 10.75 6.35 12.45 6.2 12.45 6.0 12.35 5.6" fill="#3e434a" fill-rule="evenodd" stroke="none"/>
      <path d="M31.25 5.2 L30.95 5.2 27.15 5.05 27.1 7.55 Q26.85 8.95 27.15 10.2 L31.5 9.5 31.75 9.45 32.25 9.05 Q31.75 8.7 31.75 7.8 L31.75 6.15 32.05 5.9 32.35 5.8 31.7 5.3 31.25 5.2 M30.65 4.1 L28.5 1.75 Q27.8 1.75 27.9 2.65 L28.05 3.7 30.8 4.3 30.65 4.1 M34.9 6.15 L35.0 6.0 Q35.95 7.3 35.0 8.95 34.15 10.4 32.75 9.85 32.55 10.8 31.0 12.1 L27.45 14.95 27.25 15.0 Q26.5 14.5 26.75 13.35 L27.1 11.65 16.75 12.4 Q10.75 14.55 4.15 12.3 L2.0 11.45 2.2 10.4 2.3 10.05 Q1.55 9.75 1.2 8.95 0.9 8.15 1.0 7.05 L1.1 6.95 0.5 6.75 0.2 6.6 0.05 6.4 0.0 6.25 0.05 6.1 0.2 5.9 0.5 5.8 1.5 5.55 1.65 5.45 1.7 5.25 1.75 5.05 1.75 4.9 1.75 4.7 1.85 4.5 2.0 4.3 2.2 4.15 2.5 4.05 14.2 3.8 14.5 3.75 24.3 3.55 26.8 3.6 26.8 3.0 27.2 0.55 Q27.3 0.05 27.75 0.0 29.6 1.15 31.1 2.55 32.35 3.75 32.8 5.05 L34.75 5.8 34.9 6.15 M34.45 8.2 L34.35 8.3 34.1 8.6 34.3 8.5 34.45 8.2 M30.15 11.0 L28.65 11.35 28.3 11.45 28.1 12.25 28.0 12.75 30.05 11.1 30.15 11.0 M25.95 10.3 Q25.4 9.45 25.45 8.0 25.5 6.4 26.15 5.05 L17.7 4.9 Q18.0 5.85 17.3 7.7 16.6 9.5 17.5 11.05 L25.65 10.3 25.95 10.3 M7.75 11.5 Q7.15 9.95 9.6 8.55 11.9 7.15 14.65 6.6 L15.55 6.4 16.25 6.25 16.75 4.9 14.55 4.9 14.25 4.95 2.8 5.2 2.75 5.3 2.75 5.5 2.7 5.7 2.15 6.4 Q1.7 6.7 1.95 7.05 L3.05 9.15 3.15 9.25 Q3.9 10.2 5.0 10.8 L3.25 10.35 3.25 10.45 Q5.4 11.45 7.7 11.8 L7.75 11.8 11.45 12.0 10.15 11.85 11.75 11.7 16.1 11.2 16.2 11.15 16.35 11.1 Q15.75 10.4 15.8 8.8 L15.9 7.7 14.7 7.9 Q11.4 8.15 9.2 10.4 L7.75 11.5" fill="#000000" fill-rule="evenodd" stroke="none"/>
      <path d="M30.65 4.1 L30.8 4.3 28.05 3.7 27.9 2.65 Q27.8 1.75 28.5 1.75 L30.65 4.1 M22.15 5.0 L20.4 5.2 Q19.05 5.4 19.05 5.65 L19.1 5.85 19.95 6.15 23.6 6.35 24.45 6.2 24.6 5.85 24.15 5.25 22.15 5.0 M25.95 10.3 L25.65 10.3 17.5 11.05 Q16.6 9.5 17.3 7.7 18.0 5.85 17.7 4.9 L26.15 5.05 Q25.5 6.4 25.45 8.0 25.4 9.45 25.95 10.3 M30.15 11.0 L30.05 11.1 28.0 12.75 28.1 12.25 28.3 11.45 28.65 11.35 30.15 11.0 M7.7 11.8 L7.75 11.5 9.2 10.4 Q11.4 8.15 14.7 7.9 L15.9 7.7 15.8 8.8 Q15.75 10.4 16.35 11.1 L16.2 11.15 16.1 11.2 11.75 11.7 10.15 11.85 11.45 12.0 7.75 11.8 7.7 11.8" fill="#1d2023" fill-rule="evenodd" stroke="none"/>
      <path d="M22.15 5.0 L24.15 5.25 24.6 5.85 24.45 6.2 23.6 6.35 19.95 6.15 19.1 5.85 19.05 5.65 Q19.05 5.4 20.4 5.2 L22.15 5.0 M12.35 5.6 L12.45 6.0 12.45 6.2 10.75 6.35 10.95 6.75 10.85 7.1 10.3 7.25 10.0 6.85 Q9.85 6.45 9.3 6.45 L6.55 6.75 5.4 7.05 4.2 7.0 Q3.8 6.85 3.8 6.45 L3.9 6.2 4.1 6.2 4.05 6.15 6.6 5.8 10.55 5.55 12.35 5.6" fill="#a8adb5" fill-rule="evenodd" stroke="none"/>
    </g>
    <g id="sprite1" transform="matrix(1.0, 0.0, 0.0, 1.0, 0.0, 0.0)">
      <use height="22.3" transform="matrix(1.0, 0.0, 0.0, 1.0, 0.0, 0.0)" width="49.1" xlink:href="#shape1"/>
    </g>
    <g id="shape1" transform="matrix(1.0, 0.0, 0.0, 1.0, 0.0, 0.0)">
      <path d="M41.05 4.75 L41.25 5.55 41.3 6.4 41.2 6.9 40.95 7.25 40.8 7.5 41.15 7.15 42.1 7.75 Q43.55 8.7 45.05 8.65 L46.6 9.2 Q47.75 9.8 49.0 9.85 49.4 11.45 48.0 12.3 46.5 13.25 44.7 13.75 L42.3 14.2 Q40.85 14.6 39.6 15.35 39.4 16.85 39.35 18.35 L39.3 20.0 Q39.35 21.1 38.7 21.75 37.35 22.5 35.9 22.25 L28.75 21.0 21.65 19.55 20.6 19.65 20.5 19.8 Q18.8 21.2 16.65 21.4 15.35 21.4 14.3 20.8 L13.5 20.15 13.95 18.55 11.95 18.5 10.25 15.65 4.45 15.25 2.75 12.1 0.7 9.9 0.05 8.65 Q-0.1 8.05 0.1 7.55 0.25 7.1 0.0 6.55 L2.7 4.05 10.2 4.25 11.25 3.15 Q13.45 1.05 16.25 0.1 L22.4 0.4 28.9 2.2 30.25 2.85 32.15 2.9 Q32.3 2.75 32.55 2.75 33.1 2.5 33.75 2.4 L34.3 2.5 35.3 3.05 Q35.95 3.5 36.3 4.25 L38.65 4.0 Q39.95 4.15 41.05 4.75 M35.5 7.9 L36.4 7.9 37.6 9.0 40.25 5.9 37.1 5.6 36.55 6.45 35.4 7.75 Q33.8 9.4 31.9 10.45 L29.95 11.1 Q28.4 11.05 27.3 10.05 27.1 14.5 23.95 17.65 23.3 18.3 22.2 18.5 L22.95 17.2 23.85 15.55 24.15 14.95 26.1 11.3 27.3 9.45 31.65 9.4 Q33.05 6.7 35.65 5.2 L32.6 3.5 29.4 4.15 Q28.95 5.5 27.85 6.4 26.05 7.7 23.75 8.3 L22.7 8.65 22.4 9.2 21.5 9.75 Q21.2 9.95 21.05 10.25 L21.0 10.6 20.95 10.75 20.4 11.4 19.85 12.45 19.8 12.5 19.95 12.5 Q21.35 11.95 22.8 12.85 L23.5 13.6 Q24.0 14.45 23.65 15.45 L22.9 17.15 22.05 18.4 21.8 18.65 Q24.1 19.65 26.6 20.05 L36.35 20.65 37.65 20.35 37.8 10.3 36.05 9.05 35.6 8.4 35.5 7.9 M42.2 9.0 L40.55 7.75 38.95 9.2 39.6 14.45 Q39.95 14.25 40.35 14.2 41.7 13.55 43.15 13.05 L46.15 12.3 Q47.35 11.9 48.0 10.85 L42.2 9.0 M11.5 7.75 L22.25 8.1 22.45 8.05 Q26.05 7.1 28.45 4.3 L19.3 5.4 Q12.8 5.85 6.45 5.55 L2.65 5.45 1.0 7.15 5.05 13.25 5.0 14.0 5.95 14.4 Q8.85 15.3 11.5 14.1 L11.5 11.3 13.35 9.9 11.8 8.15 10.1 7.7 10.15 7.65 10.0 7.3 9.7 6.9 9.45 6.25 Q9.4 6.1 9.5 5.9 L10.5 7.05 11.5 7.6 10.9 7.7 11.5 7.75 M28.2 3.15 L22.25 1.9 Q20.3 1.25 18.3 1.35 L15.9 1.9 Q13.85 2.6 12.35 4.25 L28.2 3.15 M20.5 10.5 L20.75 9.65 21.7 8.8 19.75 8.25 16.55 8.3 Q14.85 8.6 12.8 8.3 L13.3 8.7 14.05 9.2 14.85 9.6 16.0 9.85 16.2 9.9 17.15 11.1 18.15 13.5 20.5 10.5 M23.1 14.75 L22.95 14.1 22.55 13.7 19.5 13.75 Q17.95 16.15 15.5 17.7 L14.75 19.8 15.65 20.55 19.5 19.1 19.85 18.55 20.35 18.05 Q20.75 17.8 21.25 17.65 L23.1 14.75 M13.05 10.65 L12.0 11.75 11.95 14.9 11.1 15.05 12.2 16.2 12.7 17.4 13.85 16.95 15.0 16.25 17.55 14.0 Q17.35 11.55 15.5 10.1 L13.05 10.65" fill="#000000" fill-rule="evenodd" stroke="none"/>
      <path d="M42.2 9.0 L48.0 10.85 Q47.35 11.9 46.15 12.3 L43.15 13.05 Q41.7 13.55 40.35 14.2 39.95 14.25 39.6 14.45 L38.95 9.2 40.55 7.75 42.2 9.0 M35.4 7.75 L36.55 6.45 37.1 5.6 40.25 5.9 37.6 9.0 36.4 7.9 35.5 7.9 35.4 7.75 M22.9 17.15 L23.65 15.45 Q24.0 14.45 23.5 13.6 L22.8 12.85 Q21.35 11.95 19.95 12.5 L19.85 12.45 20.4 11.4 20.95 10.75 21.0 10.6 21.05 10.25 Q21.2 9.95 21.5 9.75 L22.4 9.2 22.7 8.65 23.75 8.3 Q26.05 7.7 27.85 6.4 28.95 5.5 29.4 4.15 L32.6 3.5 35.65 5.2 Q33.05 6.7 31.65 9.4 L27.3 9.45 26.1 11.3 24.15 14.95 23.85 15.55 22.95 17.2 22.9 17.15 M11.5 7.6 L10.5 7.05 9.5 5.9 Q9.4 6.1 9.45 6.25 L9.7 6.9 10.0 7.3 10.15 7.65 10.1 7.7 11.8 8.15 13.35 9.9 11.5 11.3 11.5 14.1 Q8.85 15.3 5.95 14.4 L5.0 14.0 5.05 13.25 1.0 7.15 2.65 5.45 6.45 5.55 Q12.8 5.85 19.3 5.4 L28.45 4.3 Q26.05 7.1 22.45 8.05 L22.25 8.1 11.5 7.75 11.5 7.6 M20.5 10.5 L18.15 13.5 17.15 11.1 16.2 9.9 16.0 9.85 14.85 9.6 14.05 9.2 13.3 8.7 12.8 8.3 Q14.85 8.6 16.55 8.3 L19.75 8.25 21.7 8.8 20.75 9.65 20.5 10.5 M28.2 3.15 L12.35 4.25 Q13.85 2.6 15.9 1.9 L18.3 1.35 Q20.3 1.25 22.25 1.9 L28.2 3.15 M13.05 10.65 L15.5 10.1 Q17.35 11.55 17.55 14.0 L15.0 16.25 13.85 16.95 12.7 17.4 12.2 16.2 11.1 15.05 11.95 14.9 12.0 11.75 13.05 10.65" fill="#3e434a" fill-rule="evenodd" stroke="none"/>
      <path d="M35.5 7.9 L35.6 8.4 36.05 9.05 37.8 10.3 37.65 20.35 36.35 20.65 26.6 20.05 Q24.1 19.65 21.8 18.65 L22.05 18.4 22.2 18.5 Q23.3 18.3 23.95 17.65 27.1 14.5 27.3 10.05 28.4 11.05 29.95 11.1 L31.9 10.45 Q33.8 9.4 35.4 7.75 L35.5 7.9 M23.1 14.75 L21.25 17.65 Q20.75 17.8 20.35 18.05 L19.85 18.55 19.5 19.1 15.65 20.55 14.75 19.8 15.5 17.7 Q17.95 16.15 19.5 13.75 L22.55 13.7 22.95 14.1 23.1 14.75" fill="#1d2023" fill-rule="evenodd" stroke="none"/>
      <path d="M41.4 8.85 Q42.15 8.85 43.25 9.5 45.1 10.2 46.4 10.1 46.4 10.35 46.55 10.35 46.2 10.85 45.75 10.85 L44.6 10.8 44.6 11.0 44.4 11.1 42.65 10.5 41.9 10.05 Q40.85 9.5 40.55 8.7 L41.4 8.85 M38.7 6.15 L38.7 6.5 38.35 6.6 Q37.8 6.6 37.5 6.3 37.4 6.55 37.4 6.15 L37.5 5.85 38.7 6.15 M34.15 5.1 L31.9 5.0 31.1 4.7 30.8 4.35 Q31.15 3.95 31.7 3.9 L33.15 3.9 34.5 4.65 34.55 4.95 34.15 5.1 M22.85 5.85 Q21.4 6.6 20.7 6.6 L15.5 6.45 12.15 6.3 Q12.0 6.4 12.0 6.0 12.0 5.55 13.3 5.65 L15.45 5.85 20.05 5.7 22.7 5.4 22.85 5.85 M21.0 2.25 L19.95 2.65 17.1 2.7 16.9 2.7 15.5 3.0 15.2 2.9 15.15 2.6 15.6 2.25 17.35 2.0 17.6 2.05 19.4 1.7 20.85 1.95 21.0 2.25 M4.05 7.2 L4.0 7.5 3.65 7.5 3.45 7.45 3.45 7.8 3.75 8.25 4.05 8.85 3.95 9.3 3.6 9.35 Q3.0 9.35 2.25 7.6 2.25 7.1 2.85 6.8 L2.95 6.8 2.85 6.6 4.6 6.3 5.9 6.55 Q6.7 6.8 6.95 7.05 L6.6 7.35 5.4 7.15 4.15 7.0 4.05 7.2" fill="#a8adb5" fill-rule="evenodd" stroke="none"/>
    </g>
    <g id="sprite2" transform="matrix(1.0, 0.0, 0.0, 1.0, 0.0, 0.0)">
      <use height="47.6" transform="matrix(1.0, 0.0, 0.0, 1.0, 0.0, 0.0)" width="121.05" xlink:href="#shape2"/>
    </g>
    <g id="shape2" transform="matrix(1.0, 0.0, 0.0, 1.0, 0.0, 0.0)">
      <path d="M103.4 23.1 L101.65 23.25 105.05 25.9 105.3 23.85 Q105.75 20.0 104.05 16.75 L103.4 23.1 M83.45 12.5 L92.55 13.0 92.45 14.55 93.1 14.55 93.7 15.35 Q95.85 15.8 97.5 17.5 L102.55 22.25 102.3 13.65 104.05 14.85 Q105.6 16.25 106.05 18.4 106.95 22.45 105.9 26.55 L109.85 29.2 Q117.1 34.4 119.85 42.85 L121.05 43.0 120.4 44.75 Q105.95 48.95 90.9 47.0 L91.0 44.2 Q86.7 46.55 81.7 46.35 77.95 46.05 74.55 44.2 71.45 42.45 68.25 41.05 65.5 40.0 64.0 37.5 59.2 37.9 54.95 39.55 53.35 40.15 51.85 39.25 L48.45 39.7 46.4 40.0 Q44.15 39.6 42.55 38.5 40.55 37.2 38.1 36.9 L37.8 32.05 35.9 33.85 31.15 32.95 31.55 34.35 37.9 36.85 36.95 37.1 35.1 37.05 34.25 36.7 Q31.5 35.55 30.15 33.05 L27.5 34.75 28.3 37.8 Q25.8 41.6 21.3 42.05 L18.15 41.75 16.9 42.0 Q16.15 42.15 15.6 42.6 12.8 44.75 9.15 45.45 L4.2 45.65 1.95 44.7 Q0.1 43.85 0.0 41.8 L0.1 41.2 Q0.5 39.55 2.15 38.9 L1.05 36.85 3.55 35.75 22.05 2.5 25.05 3.1 38.25 7.0 38.3 7.0 46.1 8.55 51.6 10.25 51.8 9.8 52.3 10.75 53.1 14.0 Q54.7 18.7 58.2 22.25 L60.7 24.6 62.05 25.5 64.95 23.65 65.25 23.2 66.1 22.55 66.95 22.0 67.2 21.7 67.35 21.2 67.35 21.05 74.8 20.75 74.65 20.85 69.3 21.75 Q67.45 22.2 65.7 23.25 L65.5 23.6 63.75 25.35 63.1 25.8 62.4 26.1 64.0 27.1 Q68.05 29.5 72.65 30.0 L76.5 30.15 81.75 22.1 79.9 21.9 81.6 21.7 81.5 21.65 77.05 21.15 75.8 20.75 79.4 20.55 81.05 20.85 Q81.65 21.1 82.25 21.5 L86.15 17.75 81.35 18.55 Q78.7 18.95 76.2 19.95 L74.05 20.25 74.75 19.6 Q76.85 18.6 79.15 18.0 82.85 17.05 86.6 17.35 L90.55 14.55 Q87.9 13.75 85.2 13.5 L81.05 13.0 83.45 12.5 M89.6 17.05 L87.85 18.15 Q85.25 19.85 83.3 22.0 L83.1 22.1 Q80.35 25.3 78.35 29.0 L81.4 29.15 Q82.1 26.4 83.45 23.95 85.7 19.9 89.6 17.05 M86.8 22.25 Q85.3 23.05 84.25 24.4 L83.6 25.25 83.1 26.2 82.7 27.2 82.15 29.3 83.0 30.0 83.2 30.6 88.8 32.35 94.35 33.7 105.55 35.75 105.95 31.75 104.9 30.85 105.3 33.35 93.05 16.2 93.5 22.1 93.45 23.85 93.1 25.3 91.95 27.95 92.6 24.8 92.75 23.2 92.7 21.4 92.7 18.55 92.75 15.85 90.55 17.25 Q89.8 20.65 86.8 22.25 M81.05 33.5 L81.2 30.3 78.0 30.05 Q77.85 31.25 76.7 32.1 L76.1 32.65 74.4 34.6 68.2 34.25 69.7 35.3 69.8 35.75 74.6 35.7 78.85 36.8 Q83.15 38.3 86.15 41.75 L90.95 39.45 88.95 34.3 81.05 33.5 M83.8 41.7 L82.1 40.9 80.9 43.05 80.65 44.3 82.6 44.75 83.8 41.7 M88.4 42.85 L84.3 41.9 83.05 44.8 84.3 44.95 Q89.1 45.05 92.2 41.5 L91.75 40.7 88.4 42.85 M106.85 31.55 L106.55 36.1 Q104.95 36.9 103.0 36.95 L101.8 36.95 Q99.3 37.05 96.85 35.9 96.55 39.55 94.7 42.65 L94.1 43.5 Q92.95 44.9 91.55 45.6 L118.05 44.75 118.55 43.25 119.1 43.05 114.95 37.3 105.85 27.15 105.55 28.85 105.05 26.5 101.6 23.9 104.85 29.75 106.9 30.85 106.85 31.55 M96.25 35.75 L90.7 34.6 93.45 40.3 96.25 35.75 M71.05 9.5 L64.6 5.15 65.0 8.25 71.0 9.75 72.35 10.2 71.7 10.1 73.05 11.3 Q73.65 11.85 74.4 12.25 L75.05 12.6 79.3 13.0 Q75.9 14.1 72.85 12.15 L72.0 11.45 71.2 10.5 71.1 10.3 71.05 10.0 66.05 9.4 61.0 8.95 56.05 8.65 46.1 8.5 46.05 8.5 54.9 6.25 54.05 4.6 48.3 5.2 Q44.15 5.2 40.35 3.95 L38.3 6.85 39.1 3.6 Q37.35 2.55 35.15 2.15 32.4 1.45 29.55 2.05 L25.05 3.0 31.6 0.1 51.1 3.1 58.05 0.0 Q61.3 0.8 64.25 2.55 68.5 5.1 71.05 9.5 M57.05 6.6 L64.2 8.05 61.55 3.35 51.65 3.15 54.8 3.5 57.05 6.5 57.0 6.6 57.05 6.6 M54.65 20.25 Q53.05 17.0 52.45 13.55 L52.1 11.6 Q51.45 13.85 49.85 15.5 L48.0 17.45 46.2 19.1 45.55 19.5 46.1 18.9 52.05 11.05 22.95 4.2 23.1 5.8 22.95 5.25 22.75 8.55 22.2 13.4 22.05 14.7 21.9 13.25 Q21.6 8.95 22.45 4.75 L22.45 4.05 22.35 4.65 22.05 5.5 Q13.5 14.4 14.75 26.8 16.75 23.0 19.7 19.9 21.9 17.55 24.85 16.6 29.25 15.3 33.9 16.15 L34.8 15.5 37.65 16.15 37.45 16.15 Q36.6 16.1 37.3 16.75 L37.75 16.95 37.6 16.55 37.7 16.55 38.45 17.3 39.7 18.65 39.2 17.95 Q42.05 20.0 43.8 22.7 45.5 25.4 45.9 28.65 46.35 31.95 46.05 35.35 L52.65 34.25 72.55 32.0 69.65 31.6 Q64.95 30.6 61.1 27.75 57.1 24.75 54.65 20.25 M41.9 22.9 L41.1 22.05 39.4 20.3 38.65 19.55 37.45 20.7 38.35 18.4 38.2 18.1 Q37.2 17.5 36.1 17.2 L32.65 16.95 32.05 22.6 30.95 17.25 26.55 18.45 26.3 21.7 26.1 18.55 25.55 18.7 20.35 20.6 Q22.6 22.2 23.9 24.55 L24.4 25.35 25.5 27.4 27.3 25.8 26.8 24.05 27.6 25.4 31.7 23.9 31.9 23.9 32.05 24.15 32.0 24.3 35.0 25.2 36.75 23.0 36.7 23.35 35.95 25.15 35.75 25.8 37.25 26.7 40.3 25.75 41.9 22.9 M59.95 34.3 L50.9 35.45 52.55 38.4 63.5 37.05 59.95 34.3 M42.9 32.4 L41.8 32.75 Q40.1 33.3 38.6 32.45 L38.55 35.75 39.55 36.45 45.3 35.3 44.6 31.2 42.9 32.4 M70.2 38.7 L69.0 40.0 74.1 41.5 75.2 39.25 75.55 39.0 76.9 39.3 77.4 40.15 76.75 40.2 75.9 39.65 74.55 41.95 78.35 42.9 78.55 43.45 80.45 44.2 80.35 43.4 81.7 40.7 71.15 37.05 70.2 38.7 M67.7 39.5 L68.85 39.95 70.9 37.0 69.65 36.75 67.7 39.5 M62.5 34.2 Q63.75 35.1 64.7 36.55 L65.75 38.45 67.5 39.2 68.9 36.6 68.3 35.05 67.25 34.25 62.5 34.2 M49.0 39.15 L50.05 38.85 51.2 38.4 49.55 35.75 43.2 37.45 46.6 38.85 49.0 39.15 M44.6 29.55 L42.55 23.85 40.9 26.75 37.95 27.4 38.25 29.45 40.15 28.85 40.4 28.85 40.4 29.15 40.25 29.35 38.25 29.65 38.6 32.0 44.6 29.55 M19.85 21.2 L17.45 24.55 Q17.5 25.55 18.15 26.1 L20.25 27.7 19.0 27.35 17.7 26.3 17.1 25.15 15.5 29.3 15.45 29.55 15.45 29.6 Q14.55 32.4 14.9 35.35 L19.05 37.35 21.25 35.15 21.25 33.4 22.0 32.55 Q20.0 33.05 18.2 32.15 16.6 31.25 15.8 29.65 L22.05 32.5 23.1 30.75 22.65 30.45 21.85 29.75 21.45 29.05 23.45 30.15 24.7 28.3 24.0 27.1 19.85 21.2 M13.6 26.75 L13.05 29.85 12.75 24.0 11.1 27.65 9.0 30.95 7.25 33.0 2.55 37.6 5.05 41.75 13.85 35.2 13.6 26.75 M15.2 39.05 L14.9 40.1 13.55 42.15 Q16.65 39.6 20.5 39.35 L20.35 38.65 15.25 36.75 15.2 39.05 M14.85 36.55 L14.3 36.35 Q9.75 38.7 6.6 42.45 L4.3 42.85 2.35 39.2 0.8 41.8 1.75 42.95 1.85 43.65 3.6 45.4 6.55 45.65 Q8.3 45.45 9.9 44.4 14.2 41.55 14.85 36.55 M30.45 31.7 L30.45 26.25 27.35 28.15 Q25.8 29.25 24.6 30.6 L24.75 30.7 Q24.45 30.8 24.25 31.0 L22.5 33.35 23.05 34.2 23.05 35.25 30.45 31.7 M33.75 27.9 L30.8 26.2 31.5 31.45 37.0 30.25 33.75 27.9 M22.15 35.75 L21.65 35.65 20.75 37.8 21.45 39.5 23.15 39.95 Q22.15 38.0 22.15 35.75 M24.9 36.35 L22.45 35.85 24.6 40.45 27.2 37.4 26.4 35.45 24.9 36.35" fill="#000000" fill-rule="evenodd" stroke="none"/>
      <path d="M103.4 23.1 L104.05 16.75 Q105.75 20.0 105.3 23.85 L105.05 25.9 101.65 23.25 103.4 23.1 M46.1 8.55 L38.3 7.0 38.3 6.85 38.25 7.0 25.05 3.1 25.05 3.0 29.55 2.05 Q32.4 1.45 35.15 2.15 37.35 2.55 39.1 3.6 L38.3 6.85 40.35 3.95 Q44.15 5.2 48.3 5.2 L54.05 4.6 54.9 6.25 46.05 8.5 46.1 8.55 M37.9 36.85 L31.55 34.35 31.15 32.95 35.9 33.85 37.8 32.05 38.1 36.9 37.9 36.85 M89.6 17.05 Q85.7 19.9 83.45 23.95 82.1 26.4 81.4 29.15 L78.35 29.0 Q80.35 25.3 83.1 22.1 L83.3 22.0 Q85.25 19.85 87.85 18.15 L89.6 17.05 M86.8 22.25 Q89.8 20.65 90.55 17.25 L92.75 15.85 92.7 18.55 92.7 21.4 92.75 23.2 92.6 24.8 91.95 27.95 93.1 25.3 93.45 23.85 93.5 22.1 93.05 16.2 105.3 33.35 104.9 30.85 105.95 31.75 105.55 35.75 94.35 33.7 88.8 32.35 83.2 30.6 83.0 30.0 82.15 29.3 82.7 27.2 83.1 26.2 83.6 25.25 84.25 24.4 Q85.3 23.05 86.8 22.25 M96.25 35.75 L93.45 40.3 90.7 34.6 96.25 35.75 M71.05 9.5 L71.0 9.75 65.0 8.25 64.6 5.15 71.05 9.5 M57.05 6.5 L54.8 3.5 51.65 3.15 61.55 3.35 64.2 8.05 57.05 6.6 57.05 6.5 M46.2 19.1 L48.0 17.45 49.85 15.5 Q51.45 13.85 52.1 11.6 L52.45 13.55 Q53.05 17.0 54.65 20.25 L51.6 24.05 50.5 23.0 Q49.3 21.95 47.7 21.7 L46.2 19.1 M22.35 4.65 L22.45 4.05 22.45 4.75 22.35 4.65 M22.2 13.4 L22.75 8.55 23.1 5.8 22.95 4.2 52.05 11.05 46.1 18.9 45.1 17.6 42.95 15.35 Q41.45 13.8 39.45 12.8 35.4 10.7 30.9 11.1 26.35 11.6 22.2 13.4 M33.75 27.9 L37.0 30.25 31.5 31.45 30.8 26.2 33.75 27.9 M30.45 31.7 L23.05 35.25 23.05 34.2 22.5 33.35 24.25 31.0 Q24.45 30.8 24.75 30.7 L24.6 30.6 Q25.8 29.25 27.35 28.15 L30.45 26.25 30.45 31.7" fill="#282c31" fill-rule="evenodd" stroke="none"/>
      <path d="M90.55 14.55 L86.6 17.35 Q82.85 17.05 79.15 18.0 76.85 18.6 74.75 19.6 L74.05 20.25 76.2 19.95 Q78.7 18.95 81.35 18.55 L86.15 17.75 82.25 21.5 Q81.65 21.1 81.05 20.85 L79.4 20.55 75.8 20.75 77.05 21.15 81.5 21.65 81.6 21.7 79.9 21.9 81.75 22.1 76.5 30.15 72.65 30.0 Q68.05 29.5 64.0 27.1 L62.4 26.1 63.1 25.8 63.75 25.35 65.5 23.6 65.7 23.25 Q67.45 22.2 69.3 21.75 L74.65 20.85 74.8 20.75 67.35 21.05 67.35 21.2 67.2 21.7 66.95 22.0 66.1 22.55 65.25 23.2 64.95 23.65 62.05 25.5 60.7 24.6 58.2 22.25 Q54.7 18.7 53.1 14.0 L53.55 13.25 54.1 13.5 54.55 13.75 54.9 14.1 55.55 14.95 59.8 15.9 68.2 16.9 Q72.3 17.5 76.4 16.9 L84.8 15.9 Q87.4 15.15 90.55 14.55 M114.95 37.3 L119.1 43.05 118.55 43.25 118.05 44.75 91.55 45.6 Q92.95 44.9 94.1 43.5 L94.7 42.65 Q96.55 39.55 96.85 35.9 99.3 37.05 101.8 36.95 L103.0 36.95 Q104.95 36.9 106.55 36.1 L106.85 31.55 107.35 32.25 Q107.75 32.9 107.8 33.65 L107.8 40.05 109.45 39.85 Q112.35 39.05 114.95 37.3" fill="#26292d" fill-rule="evenodd" stroke="none"/>
      <path d="M83.45 12.5 L81.05 13.0 85.2 13.5 Q87.9 13.75 90.55 14.55 87.4 15.15 84.8 15.9 L76.4 16.9 Q72.3 17.5 68.2 16.9 L59.8 15.9 55.55 14.95 54.9 14.1 54.55 13.75 54.1 13.5 53.55 13.25 53.1 14.0 52.3 10.75 51.8 9.8 51.6 10.25 46.1 8.55 46.1 8.5 56.05 8.65 61.0 8.95 66.05 9.4 71.05 10.0 71.1 10.3 71.2 10.5 72.0 11.45 72.85 12.15 Q75.9 14.1 79.3 13.0 L75.05 12.6 74.4 12.25 Q73.65 11.85 73.05 11.3 L71.7 10.1 72.35 10.2 83.45 12.5 M88.4 42.85 L91.75 40.7 92.2 41.5 Q89.1 45.05 84.3 44.95 L83.05 44.8 84.3 41.9 88.4 42.85 M83.8 41.7 L82.6 44.75 80.65 44.3 80.9 43.05 82.1 40.9 83.8 41.7 M106.85 31.55 L106.9 30.85 104.85 29.75 101.6 23.9 105.05 26.5 105.55 28.85 105.85 27.15 114.95 37.3 Q112.35 39.05 109.45 39.85 L107.8 40.05 107.8 33.65 Q107.75 32.9 107.35 32.25 L106.85 31.55 M59.95 34.3 L63.5 37.05 52.55 38.4 50.9 35.45 59.95 34.3 M49.0 39.15 L46.6 38.85 43.2 37.45 49.55 35.75 51.2 38.4 50.05 38.85 49.0 39.15 M62.5 34.2 L67.25 34.25 68.3 35.05 68.9 36.6 67.5 39.2 65.75 38.45 64.7 36.55 Q63.75 35.1 62.5 34.2 M67.7 39.5 L69.65 36.75 70.9 37.0 68.85 39.95 67.7 39.5 M70.2 38.7 L71.15 37.05 81.7 40.7 80.35 43.4 80.45 44.2 78.55 43.45 78.35 42.9 74.55 41.95 75.9 39.65 76.75 40.2 77.4 40.15 76.9 39.3 75.55 39.0 75.2 39.25 74.1 41.5 69.0 40.0 70.2 38.7 M14.85 36.55 Q14.2 41.55 9.9 44.4 8.3 45.45 6.55 45.65 L3.6 45.4 1.85 43.65 1.75 42.95 0.8 41.8 2.35 39.2 4.3 42.85 6.6 42.45 Q9.75 38.7 14.3 36.35 L14.85 36.55 M15.2 39.05 L15.25 36.75 20.35 38.65 20.5 39.35 Q16.65 39.6 13.55 42.15 L14.9 40.1 15.2 39.05 M24.9 36.35 L26.4 35.45 27.2 37.4 24.6 40.45 22.45 35.85 24.9 36.35 M22.15 35.75 Q22.15 38.0 23.15 39.95 L21.45 39.5 20.75 37.8 21.65 35.65 22.15 35.75" fill="#3e434a" fill-rule="evenodd" stroke="none"/>
      <path d="M81.05 33.5 L88.95 34.3 90.95 39.45 86.15 41.75 Q83.15 38.3 78.85 36.8 L74.6 35.7 69.8 35.75 69.7 35.3 68.2 34.25 74.4 34.6 76.1 32.65 76.7 32.1 Q77.85 31.25 78.0 30.05 L81.2 30.3 81.05 33.5" fill="#1c1e20" fill-rule="evenodd" stroke="none"/>
      <path d="M46.05 8.5 L46.1 8.5 46.1 8.55 46.05 8.5" fill="#535964" fill-rule="evenodd" stroke="none"/>
      <path d="M54.65 20.25 Q57.1 24.75 61.1 27.75 64.95 30.6 69.65 31.6 L72.55 32.0 52.65 34.25 46.05 35.35 Q46.35 31.95 45.9 28.65 45.5 25.4 43.8 22.7 42.05 20.0 39.2 17.95 L38.9 17.5 38.45 17.3 37.7 16.55 37.6 16.55 37.75 16.95 37.3 16.75 Q36.6 16.1 37.45 16.15 L37.65 16.15 34.8 15.5 33.9 16.15 Q29.25 15.3 24.85 16.6 21.9 17.55 19.7 19.9 16.75 23.0 14.75 26.8 13.5 14.4 22.05 5.5 L22.35 4.65 22.45 4.75 Q21.6 8.95 21.9 13.25 L22.05 14.7 22.2 13.4 Q26.35 11.6 30.9 11.1 35.4 10.7 39.45 12.8 41.45 13.8 42.95 15.35 L45.1 17.6 46.1 18.9 45.55 19.5 46.2 19.1 47.7 21.7 Q49.3 21.95 50.5 23.0 L51.6 24.05 54.65 20.25 M22.75 8.55 L22.95 5.25 23.1 5.8 22.75 8.55 M13.6 26.75 L13.85 35.2 5.05 41.75 2.55 37.6 7.25 33.0 9.0 30.95 11.1 27.65 12.75 24.0 13.05 29.85 13.6 26.75" fill="#1d2023" fill-rule="evenodd" stroke="none"/>
      <path d="M39.2 17.95 L39.7 18.65 38.45 17.3 38.9 17.5 39.2 17.95" fill="#4e5661" fill-rule="evenodd" stroke="none"/>
      <path d="M41.9 22.9 L40.3 25.75 37.25 26.7 35.75 25.8 35.95 25.15 36.7 23.35 36.75 23.0 35.0 25.2 32.0 24.3 32.05 24.15 31.9 23.9 31.7 23.9 27.6 25.4 26.8 24.05 27.3 25.8 25.5 27.4 24.4 25.35 23.9 24.55 Q22.6 22.2 20.35 20.6 L25.55 18.7 26.1 18.55 26.3 21.7 26.55 18.45 30.95 17.25 32.05 22.6 32.65 16.95 36.1 17.2 Q37.2 17.5 38.2 18.1 L38.35 18.4 37.45 20.7 38.65 19.55 39.4 20.3 41.1 22.05 41.9 22.9 M42.9 32.4 L44.6 31.2 45.3 35.3 39.55 36.45 38.55 35.75 38.6 32.45 Q40.1 33.3 41.8 32.75 L42.9 32.4 M44.6 29.55 L38.6 32.0 38.25 29.65 40.25 29.35 40.4 29.15 40.4 28.85 40.15 28.85 38.25 29.45 37.95 27.4 40.9 26.75 42.55 23.85 44.6 29.55 M19.85 21.2 L24.0 27.1 24.7 28.3 23.45 30.15 21.45 29.05 21.85 29.75 22.65 30.45 23.1 30.75 22.05 32.5 15.8 29.65 Q16.6 31.25 18.2 32.15 20.0 33.05 22.0 32.55 L21.25 33.4 21.25 35.15 19.05 37.35 14.9 35.35 Q14.55 32.4 15.45 29.6 L15.45 29.55 15.5 29.3 17.1 25.15 17.7 26.3 19.0 27.35 20.25 27.7 18.15 26.1 Q17.5 25.55 17.45 24.55 L19.85 21.2" fill="#353a42" fill-rule="evenodd" stroke="none"/>
      <path d="M40.95 9.9 L35.5 9.4 32.1 9.0 32.0 9.0 32.45 9.2 32.45 9.6 26.15 9.5 26.3 9.75 25.95 10.1 Q25.65 10.0 25.4 9.35 L25.35 9.45 25.25 9.45 Q24.8 9.45 24.75 8.8 L24.75 8.25 24.6 7.95 24.7 7.65 24.8 7.65 Q24.8 6.9 25.05 6.75 L25.2 7.1 25.35 6.9 25.85 7.55 26.25 7.55 28.65 7.75 29.2 7.75 29.4 7.8 30.75 7.85 30.9 7.85 31.7 7.8 Q34.95 7.85 36.85 8.8 L41.85 9.45 Q43.8 9.7 45.35 10.6 L47.7 12.3 47.65 12.5 47.4 12.6 44.6 11.4 40.95 9.9 M52.15 15.45 L52.2 16.2 52.2 17.0 52.9 18.2 54.5 20.75 54.5 20.9 56.85 23.85 56.45 24.15 54.05 21.15 Q53.45 20.95 52.7 19.6 L52.5 19.7 51.9 18.1 51.5 17.3 51.3 17.3 50.4 16.8 50.9 15.7 Q51.3 14.95 51.75 14.85 L52.15 15.45 M25.5 8.9 L25.5 9.15 25.85 8.9 25.8 8.9 25.5 8.9" fill="#8c949d" fill-rule="evenodd" stroke="none"/>
      <path d="M90.0 19.65 L89.9 19.4 Q89.9 19.1 90.6 18.5 L91.25 18.0 91.55 18.2 Q90.95 19.55 90.2 19.7 L90.0 19.65 M94.35 19.9 L94.5 19.65 94.65 19.55 96.6 22.25 97.1 22.9 97.25 23.1 97.85 23.9 99.7 26.65 101.0 28.5 100.8 28.65 Q100.4 28.65 100.1 28.3 L99.75 27.95 Q99.6 27.95 99.6 28.1 L99.45 28.25 97.0 24.7 93.3 19.2 94.35 19.9 M106.55 28.85 Q107.7 28.9 109.4 31.05 L112.1 34.5 114.4 37.65 Q115.65 39.5 115.7 40.95 L115.4 41.1 114.95 40.1 114.8 40.1 114.75 40.35 114.5 40.5 Q113.3 38.35 109.4 33.3 L108.05 31.55 106.9 30.45 Q104.1 27.8 104.1 27.35 104.1 27.0 104.4 26.9 L105.95 28.65 105.9 28.55 105.9 28.35 106.5 29.0 106.55 28.85 M67.0 11.85 L68.55 12.3 69.0 12.3 69.1 12.3 69.15 12.45 69.9 12.65 70.05 12.85 73.05 13.5 73.05 13.85 72.9 13.95 72.45 14.4 69.05 13.8 64.05 13.05 55.65 11.7 55.55 11.7 54.35 12.15 54.05 11.9 54.25 11.65 53.8 11.25 Q53.45 10.8 53.45 10.4 L53.55 10.05 53.75 10.05 53.9 10.25 53.9 10.05 59.05 10.7 60.25 10.85 66.6 11.45 66.65 11.75 66.65 11.8 67.0 11.85 M41.75 22.5 L41.45 22.8 39.8 21.7 39.45 21.45 39.45 21.5 39.15 21.6 38.4 21.45 Q38.25 21.5 38.25 21.1 L38.6 20.7 38.55 20.6 38.9 20.45 38.55 19.85 Q39.1 19.5 39.8 20.3 L40.6 21.35 41.75 22.5 M43.25 26.25 L42.35 25.2 42.45 24.95 Q43.2 24.95 43.55 25.95 L43.25 26.25 M66.35 34.35 L66.45 34.1 66.65 34.05 67.85 35.7 67.55 36.0 Q66.35 35.15 66.35 34.35 M70.8 37.65 L73.15 37.7 75.6 38.45 75.6 38.7 75.1 38.85 73.2 38.4 70.85 38.0 70.8 37.65 M80.9 40.85 L80.95 40.8 81.0 41.05 80.9 41.3 80.55 41.55 79.4 41.35 78.2 40.8 78.05 40.35 78.75 40.2 Q79.5 40.2 80.9 40.85 M20.6 10.15 L19.55 12.65 Q18.35 14.9 17.45 15.45 L17.25 15.4 17.15 15.15 Q17.15 14.6 18.55 12.35 20.0 10.1 20.55 9.9 L20.6 10.15 M30.05 18.15 L30.3 18.45 30.25 18.5 30.35 18.65 30.3 18.9 30.05 18.95 29.8 18.85 28.5 19.45 28.5 19.55 28.35 20.15 Q28.2 20.6 28.2 21.2 L27.9 21.45 27.6 20.6 Q27.6 19.95 27.75 19.6 L27.6 19.5 Q28.5 18.05 29.65 18.1 L29.95 18.15 30.05 18.15 M24.9 19.2 Q25.45 19.1 25.6 19.95 L25.8 21.3 25.8 22.05 25.75 22.1 25.95 23.1 25.65 23.25 25.2 22.05 25.15 21.9 25.1 21.8 25.1 21.6 25.0 21.3 24.9 21.3 24.6 21.15 24.6 20.7 24.65 20.45 24.4 20.55 23.1 21.15 22.4 21.15 22.35 20.75 Q22.35 20.4 23.65 19.9 L24.85 19.6 24.9 19.2 M20.6 23.45 L21.5 24.75 21.45 24.95 21.2 25.05 20.55 24.7 19.85 24.05 19.1 24.9 Q18.8 24.9 18.8 24.55 L19.25 23.4 Q19.75 22.5 20.0 22.35 L20.25 22.35 20.3 22.65 20.25 23.05 20.6 23.45 M35.6 17.95 L35.1 18.05 35.05 18.05 34.8 18.2 34.55 18.2 34.55 18.15 34.35 18.2 34.1 18.2 33.75 18.6 33.05 18.95 32.85 18.9 32.75 18.65 Q32.75 18.2 33.25 17.6 33.8 17.0 34.15 17.75 34.25 17.6 34.6 17.55 34.75 17.3 35.15 17.25 35.9 17.15 36.95 17.7 L37.05 18.05 Q37.1 18.2 36.75 18.2 L35.85 18.05 35.6 17.95" fill="#a8adb5" fill-rule="evenodd" stroke="none"/>
    </g>
    <g id="sprite3" transform="matrix(1.0, 0.0, 0.0, 1.0, 0.0, 0.0)">
      <use height="55.45" transform="matrix(1.0, 0.0, 0.0, 1.0, 0.0, 0.0)" width="113.0" xlink:href="#shape3"/>
    </g>
    <g id="shape3" transform="matrix(1.0, 0.0, 0.0, 1.0, 0.0, 0.0)">
      <path d="M48.05 4.85 Q45.05 4.7 45.35 1.5 45.45 0.55 46.6 0.45 L48.1 0.2 Q53.8 -0.85 52.4 3.3 L51.95 4.05 51.15 4.45 48.05 4.85" fill="url(#gradient0)" fill-rule="evenodd" stroke="none"/>
      <path d="M98.2 10.5 L96.65 8.95 Q94.3 9.05 93.45 11.05 92.65 13.05 94.85 12.9 L95.0 12.9 Q92.95 13.5 90.8 11.9 L64.8 11.05 Q64.15 10.95 64.7 10.3 66.95 7.45 71.65 7.95 L83.15 7.45 96.85 8.3 Q99.6 8.55 98.2 10.5" fill="url(#gradient1)" fill-rule="evenodd" stroke="none"/>
      <path d="M95.0 12.9 L94.85 12.9 Q92.65 13.05 93.45 11.05 94.3 9.05 96.65 8.95 L98.2 10.5 Q99.6 12.5 95.0 12.9" fill="url(#gradient2)" fill-rule="evenodd" stroke="none"/>
      <path d="M94.05 34.15 Q95.1 34.15 96.25 34.95 100.9 38.15 102.15 41.6 98.65 36.95 94.05 34.15 M94.35 46.2 Q93.1 45.1 92.15 43.5 74.1 50.35 54.55 45.45 57.0 43.35 57.15 39.7 57.25 37.4 55.5 38.25 46.4 42.35 39.7 36.25 L43.25 34.9 Q47.3 33.25 46.0 29.6 44.05 24.3 37.75 25.9 L34.9 23.6 Q34.0 22.95 33.6 22.3 L42.55 21.5 Q43.9 21.35 44.95 20.75 L47.25 22.3 Q52.5 26.2 50.8 32.6 L50.6 33.0 55.15 34.9 Q57.1 35.7 58.15 37.45 L58.3 37.65 58.75 38.25 65.4 39.3 Q68.7 41.85 73.1 39.5 L81.35 38.45 82.6 39.1 Q85.5 40.9 88.95 41.5 92.75 42.1 94.8 44.75 L94.5 45.45 94.35 46.2" fill="url(#gradient3)" fill-rule="evenodd" stroke="none"/>
      <path d="M103.55 43.55 Q106.9 44.55 105.8 47.75 L105.2 49.0 Q102.55 49.2 100.45 50.8 99.85 51.3 99.75 51.7 93.25 52.15 94.35 46.2 L94.5 45.45 94.8 44.75 Q95.45 43.35 97.15 43.25 L103.55 43.55" fill="url(#gradient4)" fill-rule="evenodd" stroke="none"/>
      <path d="M82.35 30.1 Q88.9 31.0 94.05 34.15 98.65 36.95 102.15 41.6 L103.55 43.55 97.15 43.25 Q95.45 43.35 94.8 44.75 92.75 42.1 88.95 41.5 85.5 40.9 82.6 39.1 L81.35 38.45 Q77.55 36.7 74.15 38.9 L73.1 39.5 Q68.7 41.85 65.4 39.3 L64.1 38.1 63.95 37.9 Q61.5 34.95 65.5 33.95 L69.15 32.8 69.35 32.7 Q72.45 31.45 75.15 29.7 L82.35 30.1 M105.8 47.75 L106.05 49.0 105.2 49.0 105.8 47.75" fill="url(#gradient5)" fill-rule="evenodd" stroke="none"/>
      <path d="M109.75 49.55 L109.4 49.15 105.75 44.8 Q103.45 42.3 106.7 41.25 113.1 43.85 110.55 49.2 L110.3 49.6 110.2 49.55 109.75 49.55" fill="url(#gradient6)" fill-rule="evenodd" stroke="none"/>
      <path d="M106.05 49.0 L109.55 49.5 109.75 49.55 110.2 49.55 110.3 49.6 Q115.95 51.6 109.85 53.55 104.85 55.15 100.7 52.9 99.6 52.35 99.75 51.7 99.85 51.3 100.45 50.8 102.55 49.2 105.2 49.0 L106.05 49.0" fill="url(#gradient7)" fill-rule="evenodd" stroke="none"/>
      <path d="M51.95 4.05 L55.6 3.7 Q68.05 4.6 61.15 13.3 58.2 17.0 53.55 18.55 L52.0 19.0 46.85 18.85 44.95 20.75 Q43.9 21.35 42.55 21.5 L33.6 22.3 32.7 22.35 Q25.45 28.25 26.0 19.85 L27.75 18.7 33.25 14.65 33.7 14.35 Q37.4 13.85 39.6 12.7 39.35 11.4 39.5 10.4 41.0 9.1 40.9 8.0 41.35 7.55 42.0 7.25 44.95 5.75 48.05 4.85 L51.15 4.45 51.95 4.05 M45.9 14.45 Q46.9 14.4 47.85 13.75 53.3 10.25 48.35 7.95 45.5 8.7 43.6 11.15 41.8 13.55 44.2 14.25 43.1 14.75 43.3 16.25 43.5 17.85 44.9 17.35 48.5 16.15 45.9 14.45 M38.5 19.2 Q38.6 20.6 39.85 20.1 45.35 17.85 41.1 14.75 38.25 15.95 38.5 19.2" fill="url(#gradient8)" fill-rule="evenodd" stroke="none"/>
      <path d="M53.55 18.55 Q66.05 20.5 77.7 26.35 80.55 27.75 82.35 30.1 L75.15 29.7 Q72.45 31.45 69.35 32.7 L69.15 32.6 69.15 32.8 65.5 33.95 Q61.5 34.95 63.95 37.9 L58.3 37.65 58.15 37.45 Q57.1 35.7 55.15 34.9 L50.6 33.0 50.8 32.6 Q52.5 26.2 47.25 22.3 L44.95 20.75 46.85 18.85 52.0 19.0 53.55 18.55" fill="url(#gradient9)" fill-rule="evenodd" stroke="none"/>
      <path d="M54.55 45.45 Q52.65 47.05 49.25 47.65 40.8 49.2 34.05 44.75 31.7 43.2 28.7 44.5 24.55 46.35 20.0 47.45 17.6 48.1 15.45 47.15 19.75 44.65 16.8 41.7 18.8 40.35 16.65 37.5 L21.95 31.05 Q24.1 28.65 24.05 26.8 29.05 25.5 35.25 26.25 L36.6 26.2 37.75 25.9 Q44.05 24.3 46.0 29.6 47.3 33.25 43.25 34.9 L39.7 36.25 Q46.4 42.35 55.5 38.25 57.25 37.4 57.15 39.7 57.0 43.35 54.55 45.45 M7.45 45.75 L7.8 43.25 8.0 42.55 12.6 42.75 15.25 42.35 Q12.4 44.9 8.25 45.6 L7.45 45.75 M11.1 36.2 Q13.55 32.6 16.7 30.3 L16.45 30.65 Q14.4 34.0 11.1 36.2" fill="url(#gradient10)" fill-rule="evenodd" stroke="none"/>
      <path d="M69.4 48.05 Q77.15 52.6 84.85 49.25 85.65 48.9 86.55 48.7 90.5 47.8 88.7 51.15 86.5 55.3 81.8 55.45 72.9 55.75 67.85 49.6 67.4 49.05 68.15 48.5 68.75 48.05 69.4 48.05" fill="url(#gradient11)" fill-rule="evenodd" stroke="none"/>
      <path d="M44.2 14.25 Q41.8 13.55 43.6 11.15 45.5 8.7 48.35 7.95 53.3 10.25 47.85 13.75 46.9 14.4 45.9 14.45 L45.1 14.0 Q44.55 14.05 44.2 14.25" fill="url(#gradient12)" fill-rule="evenodd" stroke="none"/>
      <path d="M26.0 19.85 Q23.45 21.1 23.9 17.55 24.05 16.65 24.9 15.95 L33.7 9.15 34.7 8.95 36.45 7.2 38.6 5.7 Q40.75 6.75 40.9 8.0 41.0 9.1 39.5 10.4 L37.85 11.6 Q35.75 12.95 33.7 14.35 L33.25 14.65 27.75 18.7 26.0 19.85" fill="url(#gradient13)" fill-rule="evenodd" stroke="none"/>
      <path d="M33.7 9.15 L33.25 9.0 Q28.0 6.8 32.25 4.2 37.35 5.2 36.45 7.2 L34.7 8.95 33.7 9.15" fill="url(#gradient14)" fill-rule="evenodd" stroke="none"/>
      <path d="M38.5 19.2 Q38.25 15.95 41.1 14.75 45.35 17.85 39.85 20.1 38.6 20.6 38.5 19.2" fill="url(#gradient15)" fill-rule="evenodd" stroke="none"/>
      <path d="M45.9 14.45 Q48.5 16.15 44.9 17.35 43.5 17.85 43.3 16.25 43.1 14.75 44.2 14.25 44.55 14.05 45.1 14.0 L45.9 14.45" fill="url(#gradient16)" fill-rule="evenodd" stroke="none"/>
      <path d="M8.0 42.55 L6.3 42.1 Q4.95 41.65 5.85 40.6 7.9 38.15 10.75 36.4 L11.1 36.2 Q14.4 34.0 16.45 30.65 L16.7 30.3 Q19.05 26.4 22.3 24.0 23.95 25.2 24.05 26.8 24.1 28.65 21.95 31.05 L16.65 37.5 Q18.8 40.35 16.8 41.7 L16.3 41.25 15.25 42.35 12.6 42.75 8.0 42.55" fill="url(#gradient17)" fill-rule="evenodd" stroke="none"/>
      <path d="M11.75 48.9 L13.3 48.8 Q17.55 51.9 11.3 53.9 4.35 56.2 0.2 52.6 -0.35 52.1 0.5 51.8 L2.5 51.15 Q7.05 49.7 11.75 48.9" fill="url(#gradient18)" fill-rule="evenodd" stroke="none"/>
      <path d="M15.45 47.15 L14.25 47.75 11.75 48.9 Q7.05 49.7 2.5 51.15 2.55 46.9 7.45 45.75 L8.25 45.6 Q12.4 44.9 15.25 42.35 L16.3 41.25 16.8 41.7 Q19.75 44.65 15.45 47.15" fill="url(#gradient19)" fill-rule="evenodd" stroke="none"/>
    </g>
    <radialGradient cx="0" cy="0" gradientTransform="matrix(0.0054, 0.0, 0.0, 0.0054, 49.0, 2.45)" gradientUnits="userSpaceOnUse" id="gradient0" r="819.2" spreadMethod="pad">
      <stop offset="0.047058823529411764" stop-color="#000000"/>
      <stop offset="0.11372549019607843" stop-color="#000000"/>
      <stop offset="0.6588235294117647" stop-color="#000000" stop-opacity="0.2"/>
    </radialGradient>
    <radialGradient cx="0" cy="0" gradientTransform="matrix(0.0211, 0.0, 0.0, 0.0211, 81.55, 10.25)" gradientUnits="userSpaceOnUse" id="gradient1" r="819.2" spreadMethod="pad">
      <stop offset="0.047058823529411764" stop-color="#000000"/>
      <stop offset="0.11372549019607843" stop-color="#000000"/>
      <stop offset="0.6588235294117647" stop-color="#000000" stop-opacity="0.2"/>
    </radialGradient>
    <radialGradient cx="0" cy="0" gradientTransform="matrix(0.0037, 0.0, 0.0, 0.0037, 95.9, 10.95)" gradientUnits="userSpaceOnUse" id="gradient2" r="819.2" spreadMethod="pad">
      <stop offset="0.047058823529411764" stop-color="#000000"/>
      <stop offset="0.11372549019607843" stop-color="#000000"/>
      <stop offset="0.6588235294117647" stop-color="#000000" stop-opacity="0.2"/>
    </radialGradient>
    <radialGradient cx="0" cy="0" gradientTransform="matrix(0.0453, 0.0, 0.0, 0.0453, 67.9, 32.95)" gradientUnits="userSpaceOnUse" id="gradient3" r="819.2" spreadMethod="pad">
      <stop offset="0.047058823529411764" stop-color="#000000"/>
      <stop offset="0.11372549019607843" stop-color="#000000"/>
      <stop offset="0.6588235294117647" stop-color="#000000" stop-opacity="0.2"/>
    </radialGradient>
    <radialGradient cx="0" cy="0" gradientTransform="matrix(0.0079, 0.0, 0.0, 0.0079, 100.1, 47.45)" gradientUnits="userSpaceOnUse" id="gradient4" r="819.2" spreadMethod="pad">
      <stop offset="0.047058823529411764" stop-color="#000000"/>
      <stop offset="0.11372549019607843" stop-color="#000000"/>
      <stop offset="0.6588235294117647" stop-color="#000000" stop-opacity="0.2"/>
    </radialGradient>
    <radialGradient cx="0" cy="0" gradientTransform="matrix(0.0287, 0.0, 0.0, 0.0287, 84.5, 40.2)" gradientUnits="userSpaceOnUse" id="gradient5" r="819.2" spreadMethod="pad">
      <stop offset="0.047058823529411764" stop-color="#000000"/>
      <stop offset="0.11372549019607843" stop-color="#000000"/>
      <stop offset="0.6588235294117647" stop-color="#000000" stop-opacity="0.2"/>
    </radialGradient>
    <radialGradient cx="0" cy="0" gradientTransform="matrix(0.0059, 0.0, 0.0, 0.0059, 108.05, 45.45)" gradientUnits="userSpaceOnUse" id="gradient6" r="819.2" spreadMethod="pad">
      <stop offset="0.047058823529411764" stop-color="#000000"/>
      <stop offset="0.11372549019607843" stop-color="#000000"/>
      <stop offset="0.6588235294117647" stop-color="#000000" stop-opacity="0.2"/>
    </radialGradient>
    <radialGradient cx="0" cy="0" gradientTransform="matrix(0.0085, 0.0, 0.0, 0.0085, 106.35, 51.6)" gradientUnits="userSpaceOnUse" id="gradient7" r="819.2" spreadMethod="pad">
      <stop offset="0.047058823529411764" stop-color="#000000"/>
      <stop offset="0.11372549019607843" stop-color="#000000"/>
      <stop offset="0.6588235294117647" stop-color="#000000" stop-opacity="0.2"/>
    </radialGradient>
    <radialGradient cx="0" cy="0" gradientTransform="matrix(0.0259, 0.0, 0.0, 0.0259, 44.75, 14.25)" gradientUnits="userSpaceOnUse" id="gradient8" r="819.2" spreadMethod="pad">
      <stop offset="0.047058823529411764" stop-color="#000000"/>
      <stop offset="0.11372549019607843" stop-color="#000000"/>
      <stop offset="0.6588235294117647" stop-color="#000000" stop-opacity="0.2"/>
    </radialGradient>
    <radialGradient cx="0" cy="0" gradientTransform="matrix(0.0286, 0.0, 0.0, 0.0286, 63.0, 27.95)" gradientUnits="userSpaceOnUse" id="gradient9" r="819.2" spreadMethod="pad">
      <stop offset="0.047058823529411764" stop-color="#000000"/>
      <stop offset="0.11372549019607843" stop-color="#000000"/>
      <stop offset="0.6588235294117647" stop-color="#000000" stop-opacity="0.2"/>
    </radialGradient>
    <radialGradient cx="0" cy="0" gradientTransform="matrix(0.0331, 0.0, 0.0, 0.0331, 32.3, 37.35)" gradientUnits="userSpaceOnUse" id="gradient10" r="819.2" spreadMethod="pad">
      <stop offset="0.047058823529411764" stop-color="#000000"/>
      <stop offset="0.11372549019607843" stop-color="#000000"/>
      <stop offset="0.6588235294117647" stop-color="#000000" stop-opacity="0.2"/>
    </radialGradient>
    <radialGradient cx="0" cy="0" gradientTransform="matrix(0.014, 0.0, 0.0, 0.014, 78.45, 51.75)" gradientUnits="userSpaceOnUse" id="gradient11" r="819.2" spreadMethod="pad">
      <stop offset="0.047058823529411764" stop-color="#000000"/>
      <stop offset="0.11372549019607843" stop-color="#000000"/>
      <stop offset="0.6588235294117647" stop-color="#000000" stop-opacity="0.2"/>
    </radialGradient>
    <radialGradient cx="0" cy="0" gradientTransform="matrix(0.0057, 0.0, 0.0, 0.0057, 46.75, 11.2)" gradientUnits="userSpaceOnUse" id="gradient12" r="819.2" spreadMethod="pad">
      <stop offset="0.047058823529411764" stop-color="#000000"/>
      <stop offset="0.11372549019607843" stop-color="#000000"/>
      <stop offset="0.6588235294117647" stop-color="#000000" stop-opacity="0.2"/>
    </radialGradient>
    <radialGradient cx="0" cy="0" gradientTransform="matrix(0.0134, 0.0, 0.0, 0.0134, 32.35, 12.95)" gradientUnits="userSpaceOnUse" id="gradient13" r="819.2" spreadMethod="pad">
      <stop offset="0.047058823529411764" stop-color="#000000"/>
      <stop offset="0.11372549019607843" stop-color="#000000"/>
      <stop offset="0.6588235294117647" stop-color="#000000" stop-opacity="0.2"/>
    </radialGradient>
    <radialGradient cx="0" cy="0" gradientTransform="matrix(0.0043, 0.0, 0.0, 0.0043, 33.45, 6.7)" gradientUnits="userSpaceOnUse" id="gradient14" r="819.2" spreadMethod="pad">
      <stop offset="0.047058823529411764" stop-color="#000000"/>
      <stop offset="0.11372549019607843" stop-color="#000000"/>
      <stop offset="0.6588235294117647" stop-color="#000000" stop-opacity="0.2"/>
    </radialGradient>
    <radialGradient cx="0" cy="0" gradientTransform="matrix(0.004, 0.0, 0.0, 0.004, 40.7, 17.5)" gradientUnits="userSpaceOnUse" id="gradient15" r="819.2" spreadMethod="pad">
      <stop offset="0.047058823529411764" stop-color="#000000"/>
      <stop offset="0.11372549019607843" stop-color="#000000"/>
      <stop offset="0.6588235294117647" stop-color="#000000" stop-opacity="0.2"/>
    </radialGradient>
    <radialGradient cx="0" cy="0" gradientTransform="matrix(0.0027, 0.0, 0.0, 0.0027, 45.1, 15.75)" gradientUnits="userSpaceOnUse" id="gradient16" r="819.2" spreadMethod="pad">
      <stop offset="0.047058823529411764" stop-color="#000000"/>
      <stop offset="0.11372549019607843" stop-color="#000000"/>
      <stop offset="0.6588235294117647" stop-color="#000000" stop-opacity="0.2"/>
    </radialGradient>
    <radialGradient cx="0" cy="0" gradientTransform="matrix(0.0153, 0.0, 0.0, 0.0153, 14.75, 33.4)" gradientUnits="userSpaceOnUse" id="gradient17" r="819.2" spreadMethod="pad">
      <stop offset="0.047058823529411764" stop-color="#000000"/>
      <stop offset="0.11372549019607843" stop-color="#000000"/>
      <stop offset="0.6588235294117647" stop-color="#000000" stop-opacity="0.2"/>
    </radialGradient>
    <radialGradient cx="0" cy="0" gradientTransform="matrix(0.0092, 0.0, 0.0, 0.0092, 7.5, 51.8)" gradientUnits="userSpaceOnUse" id="gradient18" r="819.2" spreadMethod="pad">
      <stop offset="0.047058823529411764" stop-color="#000000"/>
      <stop offset="0.11372549019607843" stop-color="#000000"/>
      <stop offset="0.6588235294117647" stop-color="#000000" stop-opacity="0.2"/>
    </radialGradient>
    <radialGradient cx="0" cy="0" gradientTransform="matrix(0.0114, 0.0, 0.0, 0.0114, 10.25, 46.75)" gradientUnits="userSpaceOnUse" id="gradient19" r="819.2" spreadMethod="pad">
      <stop offset="0.047058823529411764" stop-color="#000000"/>
      <stop offset="0.11372549019607843" stop-color="#000000"/>
      <stop offset="0.6588235294117647" stop-color="#000000" stop-opacity="0.2"/>
    </radialGradient>
    <g id="sprite4" transform="matrix(1.0, 0.0, 0.0, 1.0, 5.3, 54.65)">
      <use height="41.4" transform="matrix(1.0, 0.0, 0.0, 1.0, -1.45, -35.95)" width="64.8" xlink:href="#shape4"/>
    </g>
    <g id="shape4" transform="matrix(1.0, 0.0, 0.0, 1.0, 1.45, 35.95)">
      <path d="M21.55 -31.75 L20.95 -30.25 20.3 -28.45 20.4 -27.7 20.9 -27.4 20.65 -26.95 20.7 -26.75 20.6 -26.65 20.1 -27.0 Q19.25 -27.3 18.75 -28.9 L18.35 -30.9 Q18.35 -31.65 18.85 -32.75 19.35 -33.85 19.35 -34.5 L19.1 -35.95 19.55 -35.65 19.6 -35.7 21.0 -33.65 Q21.55 -32.7 21.55 -31.75 M38.6 -27.75 L38.85 -28.0 39.9 -26.55 41.65 -23.95 Q42.45 -22.25 42.45 -20.15 L42.2 -18.5 Q42.2 -16.85 45.2 -14.9 48.15 -13.0 48.15 -10.7 L47.9 -8.8 Q47.9 -7.8 49.4 -7.8 51.0 -7.8 51.4 -8.65 L51.55 -10.85 Q51.55 -14.15 54.05 -15.85 L54.1 -16.15 54.2 -16.3 54.5 -16.15 54.75 -16.3 54.6 -16.05 54.7 -15.65 54.1 -13.25 Q54.1 -10.25 56.45 -8.45 58.8 -6.6 58.8 -4.7 L58.55 -3.25 59.5 -2.7 Q60.75 -2.85 61.25 -4.95 L61.0 -6.05 60.7 -7.2 60.75 -7.2 60.65 -7.4 60.8 -7.3 60.85 -7.4 61.15 -6.9 Q61.95 -6.05 62.6 -4.5 63.35 -2.6 63.35 -1.0 63.35 2.65 61.95 4.9 61.95 5.45 61.5 5.45 61.05 5.45 60.8 4.1 L60.6 2.7 60.8 1.05 Q60.8 -0.6 58.7 -2.1 58.2 -2.2 58.05 -2.55 56.25 -3.65 51.55 -5.6 48.45 -6.8 43.2 -8.05 35.0 -10.0 28.8 -10.0 L26.25 -9.6 25.6 -9.25 24.7 -9.25 25.0 -9.15 Q24.5 -8.7 22.25 -8.55 L19.8 -8.5 11.75 -6.25 11.65 -6.3 Q9.3 -5.05 7.5 -4.65 3.2 -3.65 1.25 -1.0 -0.1 0.85 -0.1 3.0 L-0.05 3.1 0.3 3.7 0.25 4.1 -0.05 4.15 -0.25 4.2 -0.65 3.9 -1.15 3.05 -1.45 1.95 -1.2 0.65 -0.85 -0.05 -0.25 -1.7 0.55 -3.7 0.7 -4.4 2.15 -7.1 2.65 -8.0 2.85 -8.65 3.05 -9.3 3.1 -10.35 3.1 -10.55 2.1 -12.6 Q1.95 -12.95 1.95 -14.25 L1.95 -14.4 1.95 -14.75 Q1.95 -15.9 2.5 -16.95 L4.05 -19.25 4.15 -19.0 4.1 -18.9 4.05 -17.0 Q4.05 -15.6 4.8 -14.75 5.85 -13.45 8.6 -12.8 9.45 -12.55 11.0 -10.45 12.45 -8.5 13.55 -8.5 L13.7 -8.5 14.15 -8.65 Q14.7 -8.95 15.45 -9.8 16.55 -11.1 17.2 -11.15 L18.1 -11.55 Q18.75 -11.85 19.1 -12.2 L19.1 -12.75 19.35 -14.65 Q19.6 -15.9 20.85 -15.85 L20.3 -14.7 Q20.3 -14.25 20.95 -13.35 L21.45 -12.75 Q21.85 -12.45 22.1 -12.45 L25.9 -12.65 Q27.1 -12.65 27.85 -12.05 L28.95 -12.3 30.75 -12.6 33.65 -12.1 36.55 -11.65 Q38.1 -11.65 38.85 -12.8 L39.3 -14.15 Q39.3 -14.85 38.7 -15.75 38.05 -16.65 38.05 -17.55 38.05 -18.05 39.2 -19.85 40.35 -21.65 40.35 -23.55 40.35 -24.7 39.5 -26.25 L38.7 -27.6 38.6 -27.7 38.65 -27.7 38.6 -27.75 M19.45 -12.55 L19.55 -13.05 19.55 -13.1 19.45 -12.55 M40.8 -24.15 L40.8 -24.2 40.8 -24.15 M-0.65 2.1 L-0.55 1.25 -0.7 1.9 -0.65 2.1" fill="#ffff00" fill-opacity="0.5803922" fill-rule="evenodd" stroke="none"/>
    </g>
    <g id="shape5" transform="matrix(1.0, 0.0, 0.0, 1.0, 52.5, 95.35)">
      <path d="M31.15 -76.8 Q31.75 -67.35 28.35 -58.95 34.65 -56.75 32.8 -49.0 L32.05 -46.75 32.25 -46.95 32.25 -47.0 Q37.55 -43.5 37.5 -37.5 L37.4 -35.25 Q36.9 -29.25 34.7 -23.65 32.9 -19.2 28.75 -20.25 L28.75 -20.45 28.75 -20.8 Q28.75 -21.15 29.05 -21.4 L29.35 -21.9 29.5 -22.5 29.5 -22.6 Q27.4 -22.2 25.9 -23.3 L25.8 -23.7 25.7 -24.45 25.85 -25.2 26.3 -26.0 26.3 -26.1 Q22.6 -30.65 15.95 -30.0 14.05 -29.85 13.7 -31.7 L13.5 -33.25 Q7.45 -33.95 2.35 -29.7 1.3 -28.8 0.1 -29.15 -4.7 -30.6 -9.9 -29.35 L-11.95 -29.55 Q-13.8 -30.35 -14.35 -32.3 -17.0 -32.6 -19.0 -30.9 -19.95 -30.05 -20.4 -28.75 L-20.55 -28.0 Q-23.15 -25.5 -26.95 -27.35 -28.05 -27.85 -28.95 -28.6 -31.2 -28.8 -31.95 -26.85 -32.45 -25.5 -31.85 -24.15 -31.15 -22.45 -30.85 -20.8 L-30.85 -20.6 Q-33.25 -20.55 -35.25 -22.95 -37.0 -25.0 -37.75 -27.5 -38.3 -29.4 -38.25 -31.5 -41.75 -33.0 -44.25 -35.95 -45.1 -36.95 -44.8 -38.5 L-43.7 -44.7 -43.4 -45.35 Q-45.2 -48.1 -45.9 -51.75 -46.65 -55.6 -45.25 -59.15 -42.7 -65.7 -34.75 -65.5 L-30.75 -65.5 -28.75 -65.4 Q-28.95 -67.75 -28.45 -70.55 -27.25 -77.15 -20.15 -78.4 L-20.1 -78.4 -20.15 -78.75 Q-21.1 -86.4 -15.5 -89.75 -9.7 -91.1 -5.6 -89.1 L-3.75 -90.3 Q1.55 -92.25 7.3 -93.4 L9.0 -93.75 Q24.3 -93.95 30.25 -80.55 31.0 -78.8 31.15 -76.8 M4.35 -52.15 L4.7 -53.2 4.0 -54.1 Q1.95 -56.5 -0.95 -57.4 L-1.2 -57.15 1.15 -54.25 Q2.05 -52.95 3.7 -52.4 L4.35 -52.15 M6.15 -50.2 Q6.1 -47.85 7.2 -45.1 7.4 -47.75 6.5 -50.1 L6.15 -50.2 M8.75 -27.9 Q9.7 -29.65 11.75 -29.75 L12.25 -29.7 12.65 -29.6 Q13.05 -28.6 14.1 -28.05 15.6 -27.2 15.55 -25.45 15.55 -23.8 14.45 -22.65 L14.25 -22.45 Q11.25 -21.3 8.85 -22.9 L8.45 -23.25 Q8.1 -24.3 8.15 -25.5 8.2 -26.8 8.75 -27.9 M13.0 -19.55 L13.05 -19.75 13.15 -19.95 13.35 -20.1 13.75 -20.25 14.3 -20.0 14.8 -19.65 14.95 -19.15 14.9 -18.95 14.65 -18.7 13.75 -18.5 Q13.05 -18.55 13.0 -19.2 L13.0 -19.35 13.0 -19.55 M1.85 -23.6 L2.05 -23.45 2.2 -23.25 2.2 -23.05 2.1 -22.7 1.95 -22.3 1.85 -22.15 1.75 -21.95 Q-0.5 -21.0 -2.9 -21.95 L-3.25 -22.45 -3.25 -22.6 -3.2 -22.95 -2.75 -23.55 -2.25 -23.8 -1.75 -24.0 -0.75 -23.9 -0.2 -23.65 0.0 -23.35 0.7 -23.6 1.5 -23.75 1.85 -23.6 M3.25 -16.45 L3.35 -16.95 Q3.6 -17.6 4.25 -17.75 L5.25 -18.0 5.9 -17.5 Q6.1 -17.1 5.9 -16.7 L5.55 -16.0 5.45 -15.85 4.0 -15.7 Q3.3 -15.8 3.25 -16.45 M31.25 -22.45 L31.25 -22.25 31.4 -22.3 31.25 -22.45 M43.35 -6.55 L43.6 -6.8 44.0 -6.95 44.0 -7.0 Q44.6 -6.9 44.65 -6.3 44.75 -5.8 44.3 -5.6 43.75 -5.35 43.4 -5.85 L43.25 -6.2 43.25 -6.35 43.35 -6.55 M45.25 -2.2 L45.6 -2.05 45.95 -1.75 45.95 -1.55 45.85 -0.8 Q45.75 -0.35 45.8 0.1 L45.65 1.05 45.55 1.25 45.45 1.35 43.75 1.45 43.15 1.2 42.95 0.6 43.2 -0.65 Q43.4 -1.4 43.95 -2.0 44.2 -2.25 44.5 -2.25 L45.25 -2.2 M28.55 1.9 Q28.0 2.15 27.65 1.65 L27.5 1.3 27.5 1.15 27.6 0.95 27.85 0.7 28.25 0.55 28.25 0.5 Q28.85 0.6 28.9 1.2 29.0 1.7 28.55 1.9 M-16.9 -77.2 L-16.8 -77.35 -17.35 -77.25 -16.95 -76.4 -17.0 -76.6 -16.9 -77.2 M-26.45 -63.25 Q-24.95 -58.2 -20.4 -55.85 L-17.3 -58.05 Q-19.35 -60.95 -23.75 -62.5 L-26.45 -63.25 M-17.9 -54.9 L-15.8 -54.35 Q-15.95 -55.25 -16.25 -56.0 L-17.9 -54.9 M-14.4 -54.2 Q-9.7 -53.8 -5.5 -56.4 L-7.35 -56.7 -15.2 -56.5 -14.4 -54.2 M-17.35 -53.6 L-18.85 -54.05 -19.45 -53.4 Q-23.55 -48.65 -20.75 -42.95 L-20.55 -42.6 -18.35 -44.6 Q-16.35 -46.7 -15.85 -49.55 -15.5 -51.5 -15.65 -53.2 L-17.35 -53.6 M-51.75 -5.75 Q-51.15 -5.65 -51.1 -5.05 -51.0 -4.55 -51.45 -4.35 -52.0 -4.1 -52.35 -4.6 L-52.5 -4.95 -52.5 -5.1 -52.4 -5.3 -52.15 -5.55 -51.75 -5.7 -51.75 -5.75 M-41.1 -10.95 L-41.35 -10.7 -41.7 -10.35 -41.75 -9.6 -41.75 -9.45 Q-41.9 -8.85 -42.5 -8.7 -43.6 -8.45 -44.35 -9.05 L-44.45 -9.25 -44.5 -10.2 -44.15 -11.25 Q-43.7 -11.85 -43.0 -11.95 L-43.0 -12.0 -41.75 -11.95 Q-41.25 -11.95 -41.1 -11.5 L-41.0 -11.1 -41.1 -10.95 M-28.05 -25.25 L-27.95 -25.35 -27.8 -25.4 -27.5 -25.45 -27.5 -25.5 -27.0 -25.45 -26.6 -25.35 -26.45 -25.2 -26.3 -25.0 -26.25 -24.85 -26.25 -24.8 -25.5 -24.7 -25.15 -24.6 -24.95 -24.45 -24.8 -24.05 -24.75 -23.3 -24.75 -22.95 -24.75 -22.0 Q-24.7 -21.6 -24.95 -21.25 L-25.9 -20.55 Q-26.9 -20.0 -28.0 -20.3 L-28.6 -20.55 -28.8 -21.7 -28.8 -22.45 -28.75 -24.0 -28.25 -25.05 -28.05 -25.25 M-27.0 -23.3 L-27.1 -22.95 -27.2 -22.55 -27.25 -22.2 -27.2 -21.95 Q-26.55 -22.0 -26.35 -22.55 -26.25 -22.85 -26.4 -23.05 L-26.8 -23.35 -27.0 -23.3 M-34.75 -0.45 L-34.75 -0.6 -34.65 -0.8 -34.4 -1.05 -34.0 -1.2 -34.0 -1.25 Q-33.4 -1.15 -33.35 -0.55 -33.25 -0.05 -33.7 0.15 -34.25 0.4 -34.6 -0.1 L-34.75 -0.45 M-10.0 -20.8 L-10.05 -20.65 -10.2 -20.25 -10.45 -20.1 -10.75 -19.95 Q-10.75 -19.45 -10.9 -19.05 -11.65 -16.95 -14.15 -17.9 L-14.35 -18.05 Q-14.6 -18.4 -14.5 -18.8 -14.4 -19.75 -13.55 -20.35 L-12.0 -21.35 -11.5 -21.5 -10.75 -21.45 -10.4 -21.35 -10.05 -21.0 -10.0 -20.8" fill="#666666" fill-rule="evenodd" stroke="none"/>
      <path d="M20.3 -82.1 L18.8 -83.65 Q11.75 -89.2 4.85 -83.75 2.8 -82.15 2.5 -79.55 2.1 -75.9 1.4 -72.75 L1.45 -72.6 1.75 -72.2 1.7 -72.0 1.5 -71.7 1.05 -70.8 Q0.05 -70.9 -0.4 -71.95 L-3.5 -73.0 -4.7 -73.85 -8.2 -74.4 Q-16.6 -76.2 -21.75 -70.55 -23.4 -68.7 -23.55 -66.2 L-23.45 -65.25 -23.4 -65.0 -21.5 -64.15 Q-20.2 -63.25 -19.65 -61.95 -19.05 -60.6 -18.75 -59.2 -11.55 -64.65 -2.3 -60.8 1.85 -59.0 4.7 -55.7 L4.9 -56.6 Q5.85 -59.85 9.0 -61.0 12.6 -62.3 16.25 -62.75 L21.6 -62.4 26.5 -61.35 27.0 -62.75 Q28.25 -66.15 28.25 -69.95 28.25 -74.25 26.75 -78.15 25.95 -80.3 24.05 -81.85 L24.0 -81.9 20.75 -82.05 20.3 -82.1 M30.35 -82.25 Q33.2 -75.45 32.0 -67.6 31.3 -63.15 29.0 -59.6 L29.6 -59.3 30.55 -58.7 Q31.45 -55.75 31.85 -52.7 32.15 -50.55 31.9 -48.55 34.75 -47.1 36.15 -44.05 37.5 -41.1 37.65 -37.6 37.75 -34.4 36.05 -31.8 L35.75 -31.75 35.5 -31.75 35.1 -31.9 34.9 -32.05 Q34.65 -32.95 34.7 -33.95 L34.8 -36.2 Q34.85 -37.6 34.3 -38.8 L33.45 -40.5 Q30.4 -39.75 28.05 -41.05 L27.7 -41.35 Q26.6 -40.85 25.25 -41.0 31.1 -45.95 28.3 -52.4 26.95 -55.55 23.45 -56.35 11.45 -59.05 8.0 -49.3 8.4 -47.55 8.4 -45.55 8.3 -40.45 5.2 -36.7 3.1 -34.1 0.25 -35.25 L0.25 -35.45 Q0.25 -36.45 0.85 -37.3 1.65 -38.4 1.95 -39.8 2.25 -41.65 1.3 -43.1 0.6 -44.1 0.25 -45.45 L0.2 -45.5 Q-2.3 -46.55 -5.0 -47.4 -11.25 -49.3 -16.95 -47.0 L-16.95 -46.8 -16.6 -45.5 -15.95 -43.8 -15.0 -41.55 -13.8 -38.75 -13.5 -38.55 -12.4 -37.8 -12.05 -37.65 Q-11.35 -37.3 -10.65 -37.25 -8.95 -37.05 -8.5 -35.7 -9.15 -34.45 -10.7 -35.0 -16.5 -37.05 -21.3 -40.7 -23.0 -42.0 -23.7 -43.95 -24.5 -46.4 -24.5 -49.05 -24.5 -52.45 -22.8 -55.25 L-26.65 -57.55 Q-35.3 -62.95 -38.75 -54.85 -39.45 -53.25 -39.25 -51.5 -38.4 -42.65 -29.05 -41.2 -27.7 -40.95 -26.7 -40.15 -26.45 -39.95 -26.5 -39.6 L-26.65 -39.5 -34.55 -39.3 Q-37.25 -39.75 -39.2 -41.25 L-39.25 -41.05 -39.25 -40.85 -39.35 -40.5 -39.65 -40.15 -39.85 -39.9 -39.8 -39.75 -39.7 -39.6 -39.25 -38.8 -39.15 -38.45 -39.05 -38.25 -38.95 -38.1 -38.45 -37.45 -38.25 -36.8 -38.2 -36.75 Q-36.65 -35.95 -35.85 -34.6 -35.15 -33.35 -35.75 -31.9 -36.55 -29.95 -36.3 -27.55 -36.2 -26.65 -35.75 -25.85 L-35.65 -25.7 Q-35.1 -24.95 -35.35 -24.2 L-35.45 -24.0 -35.55 -23.9 -35.7 -23.8 -36.0 -23.8 -36.7 -23.85 -36.85 -24.1 -37.4 -25.4 -37.9 -27.1 -38.3 -29.5 Q-38.5 -31.15 -37.6 -32.55 L-37.35 -33.05 -37.5 -33.15 -41.75 -34.95 Q-44.1 -36.15 -44.4 -38.55 -44.7 -40.65 -43.8 -42.5 L-43.5 -43.25 -44.15 -44.35 Q-45.25 -47.7 -45.7 -51.3 L-45.8 -54.9 -45.7 -56.55 Q-45.5 -60.2 -43.0 -62.65 -39.85 -65.75 -35.5 -66.25 L-28.0 -66.2 -28.0 -66.7 -27.9 -68.75 -27.75 -70.1 Q-27.65 -71.7 -27.2 -73.1 -25.95 -77.5 -21.4 -78.5 -20.35 -78.75 -19.75 -79.05 L-19.75 -80.0 -19.75 -80.95 -19.75 -82.6 -19.75 -83.35 -19.75 -84.85 Q-19.7 -87.15 -18.15 -88.9 -16.8 -90.4 -15.0 -91.0 L-11.4 -90.65 -9.1 -90.3 -5.75 -89.9 -5.5 -89.85 Q-4.6 -91.3 -3.05 -92.15 L2.2 -94.65 5.75 -95.25 Q16.35 -96.05 24.55 -89.7 28.4 -86.75 30.35 -82.25 M28.85 -63.3 L28.55 -62.75 28.5 -62.55 28.9 -63.1 29.15 -63.7 Q29.35 -64.0 29.2 -64.4 L29.15 -64.45 29.0 -63.9 28.85 -63.3 M30.15 -54.05 L30.0 -53.9 30.15 -53.7 30.15 -54.05 M29.9 -33.05 L29.95 -32.85 30.0 -32.7 30.0 -32.3 30.05 -31.75 29.95 -31.15 Q29.75 -30.75 29.25 -30.75 L28.85 -30.9 Q28.7 -30.95 28.65 -31.05 L28.55 -31.25 28.5 -31.45 28.5 -31.6 28.5 -31.8 28.5 -32.0 28.05 -32.4 Q27.6 -32.85 26.85 -32.75 22.55 -32.25 23.05 -34.55 L23.25 -34.75 25.65 -34.65 28.0 -34.25 Q29.0 -33.9 29.8 -33.25 L29.9 -33.05 M1.2 -32.6 L2.2 -32.4 3.75 -32.65 4.15 -32.6 4.3 -32.45 4.45 -32.25 4.5 -32.05 4.5 -31.85 4.5 -31.7 4.5 -31.5 4.5 -31.3 4.45 -31.15 4.4 -30.95 4.3 -30.75 3.35 -30.0 2.85 -29.7 Q0.3 -28.3 -2.65 -29.2 L-2.75 -29.2 -3.25 -29.15 Q-7.6 -28.4 -11.4 -30.1 -13.95 -31.25 -15.2 -33.2 L-15.25 -33.2 -16.95 -32.7 -17.3 -32.45 Q-17.15 -31.9 -17.7 -31.6 L-19.15 -30.7 -19.75 -30.55 -20.35 -30.8 Q-20.75 -32.0 -19.9 -33.05 -19.2 -33.85 -18.05 -34.25 L-15.0 -35.0 -14.3 -34.8 -13.75 -34.95 -13.75 -35.0 Q-12.4 -34.65 -11.6 -33.45 -11.05 -32.65 -10.2 -32.5 L-7.5 -32.15 Q-6.75 -32.1 -6.75 -31.35 -6.2 -30.55 -5.0 -30.6 L-5.0 -30.8 -5.0 -31.0 -5.0 -31.2 -4.75 -31.55 -4.55 -31.65 -4.2 -31.85 -4.2 -31.95 -4.25 -32.15 -4.25 -32.3 -4.05 -32.6 -3.5 -32.95 -3.5 -33.0 -1.35 -32.75 0.75 -32.45 1.2 -32.6 M8.3 -26.6 Q8.2 -26.9 8.25 -27.2 L8.35 -27.35 8.6 -27.95 9.1 -28.7 9.7 -29.15 10.0 -29.25 11.5 -29.15 12.7 -28.9 13.9 -28.6 14.1 -28.4 14.4 -27.85 14.7 -27.1 14.95 -26.55 14.95 -26.0 14.8 -25.85 10.3 -25.75 10.15 -25.55 9.8 -25.0 9.3 -24.0 Q9.05 -23.5 8.5 -23.55 L8.05 -23.6 7.9 -23.8 7.65 -24.55 Q7.65 -25.15 8.05 -25.6 8.5 -26.15 8.3 -26.6 M0.8 -23.9 L1.0 -23.35 0.75 -23.1 Q-0.6 -22.25 -2.15 -22.7 L-2.5 -23.2 -2.45 -23.35 -2.3 -23.75 Q-2.1 -24.0 -1.75 -24.05 L-0.75 -24.25 0.25 -24.15 0.8 -23.9 M-6.5 -88.0 L-6.5 -87.85 -6.45 -88.0 -6.5 -88.0 M-11.9 -84.0 L-12.75 -83.1 -13.8 -81.85 -14.5 -79.9 -14.6 -79.25 -14.5 -79.25 -9.8 -79.1 -6.35 -78.45 -1.95 -78.2 Q-1.9 -79.35 -2.75 -80.35 -5.2 -83.15 -9.0 -84.15 L-11.6 -84.35 -11.9 -84.0 M-2.2 -75.05 L-2.25 -75.0 -2.1 -74.95 -2.2 -75.05 M-3.45 -31.4 L-3.7 -31.45 -3.05 -31.05 -2.65 -31.25 -3.45 -31.4 M-35.85 -42.05 L-35.85 -41.95 -35.8 -41.95 -35.85 -42.05 M-31.25 -33.45 L-31.25 -33.6 -31.2 -33.8 Q-30.15 -35.5 -27.25 -34.7 L-27.25 -34.75 -25.75 -34.7 Q-25.25 -34.7 -25.1 -34.25 L-25.0 -33.85 Q-25.15 -33.5 -25.45 -33.4 L-31.1 -33.2 -31.25 -33.45 M-27.3 -25.15 L-27.0 -25.25 -25.75 -25.15 -25.15 -24.9 -24.75 -24.35 -24.8 -24.2 -25.0 -23.85 Q-25.55 -23.25 -26.5 -23.35 L-26.6 -23.2 -26.8 -22.8 Q-26.85 -22.45 -27.2 -22.4 L-27.95 -22.35 -28.1 -22.55 -28.2 -22.75 -28.25 -23.1 -28.25 -23.7 -28.25 -24.25 -28.1 -24.45 -27.95 -24.6 -27.55 -25.0 -27.3 -25.15" fill="#333333" fill-rule="evenodd" stroke="none"/>
      <path d="M6.5 -63.75 Q7.0 -64.4 7.75 -64.5 9.1 -63.65 8.15 -62.1 L7.85 -61.55 8.75 -61.75 9.25 -61.7 9.6 -61.6 9.9 -61.25 10.0 -61.05 Q9.45 -59.75 7.75 -59.35 L6.65 -59.25 Q6.15 -58.3 5.25 -57.7 L5.25 -57.5 5.25 -57.3 5.25 -57.15 5.15 -56.75 5.05 -56.55 4.5 -56.3 2.8 -56.1 2.65 -56.3 2.55 -56.5 2.5 -56.7 2.5 -56.85 2.5 -57.0 Q-0.5 -57.65 -2.95 -59.2 -5.0 -60.55 -7.5 -61.15 -8.3 -61.35 -8.25 -62.1 -4.65 -62.3 -0.55 -61.0 1.85 -60.25 4.25 -60.3 L4.25 -60.35 4.7 -60.95 5.3 -61.9 6.5 -63.75 M24.8 -41.7 Q21.1 -39.3 17.2 -37.3 12.95 -35.1 10.0 -37.35 L10.0 -37.55 10.05 -37.75 10.25 -38.15 10.25 -38.25 Q9.05 -37.85 7.85 -38.25 7.5 -38.35 7.5 -38.7 13.4 -41.2 20.15 -43.5 24.4 -44.95 27.25 -48.3 27.6 -48.75 28.0 -48.75 29.2 -44.55 24.8 -41.7 M28.4 -29.8 L28.75 -30.0 30.2 -29.85 31.5 -29.55 Q32.35 -29.3 32.25 -28.45 L31.9 -28.1 Q30.2 -28.15 28.45 -28.9 27.65 -29.25 28.4 -29.8 M24.9 -32.25 L25.0 -32.05 Q23.35 -30.1 20.35 -30.75 20.0 -30.8 19.7 -31.0 L18.8 -31.2 Q16.3 -31.15 15.25 -32.95 L14.6 -33.2 14.0 -33.65 Q13.7 -33.9 13.75 -34.25 L13.9 -34.55 14.5 -35.25 14.85 -35.55 15.25 -35.75 15.6 -35.6 15.9 -35.25 16.05 -34.7 16.05 -34.5 Q19.45 -32.5 23.65 -32.85 24.5 -32.9 24.9 -32.25 M32.85 -27.05 Q33.1 -27.5 33.5 -27.5 L34.25 -27.4 34.8 -27.15 35.0 -26.6 34.65 -26.25 Q33.25 -25.55 32.85 -26.7 L32.85 -27.05 M17.25 -46.75 Q18.95 -46.3 17.55 -45.25 16.55 -44.5 15.4 -44.0 L12.95 -44.15 Q12.8 -44.25 12.75 -44.45 12.85 -45.25 13.7 -45.35 15.1 -45.5 16.2 -46.25 L17.25 -46.75 M14.75 -38.25 Q14.2 -37.9 15.5 -38.3 L16.0 -38.5 16.15 -38.6 16.0 -38.75 15.65 -38.6 15.25 -38.45 Q15.15 -38.35 15.05 -38.35 L14.75 -38.25 M9.25 -33.35 L9.15 -33.2 8.8 -32.8 Q5.35 -31.35 3.35 -33.35 L3.25 -33.6 3.35 -33.8 4.0 -34.25 8.5 -34.15 Q9.25 -34.1 9.25 -33.35 M0.8 -35.7 Q-1.55 -34.25 -4.55 -35.05 -7.0 -35.65 -8.9 -37.15 L-9.25 -37.5 -9.25 -37.7 -9.25 -38.05 -9.25 -38.45 -9.15 -38.8 -8.9 -39.1 -8.8 -39.15 -8.5 -39.2 -8.5 -39.25 -5.4 -38.45 Q-3.9 -37.85 -2.2 -38.05 -0.35 -38.25 1.3 -37.45 1.85 -36.35 0.8 -35.7 M-37.25 -49.8 L-37.05 -49.9 -36.75 -50.0 -36.25 -50.1 -36.25 -50.3 -36.2 -50.5 -36.1 -50.65 -35.5 -50.95 -35.5 -51.0 Q-34.35 -50.7 -33.55 -49.75 L-31.85 -48.1 -30.25 -46.3 Q-28.1 -45.65 -25.75 -46.25 -24.65 -45.5 -23.25 -45.65 -22.75 -45.7 -22.55 -45.25 -23.15 -43.65 -24.3 -43.0 L-23.0 -42.75 -21.7 -42.0 Q-21.05 -41.35 -21.05 -40.55 -21.25 -39.9 -21.85 -40.25 L-24.45 -41.4 Q-25.6 -41.75 -25.0 -42.7 L-28.9 -42.9 -33.2 -44.35 -34.9 -45.0 Q-37.45 -45.95 -37.55 -48.5 L-37.45 -49.6 -37.25 -49.8 M-10.85 -40.6 L-10.8 -40.25 Q-11.4 -39.35 -12.3 -40.0 L-14.25 -41.45 Q-14.7 -41.9 -14.15 -42.3 L-13.75 -42.5 -12.75 -42.3 -11.65 -41.7 Q-11.05 -41.3 -10.85 -40.6 M-19.85 -33.45 L-19.95 -33.3 Q-23.15 -31.6 -25.75 -33.55 L-26.0 -33.85 -26.0 -34.05 -25.95 -34.25 -25.85 -34.45 -25.65 -34.6 -25.25 -34.75 -24.85 -34.7 -20.5 -34.4 Q-19.75 -34.35 -19.75 -33.6 L-19.85 -33.45 M-34.75 -37.25 L-33.9 -36.85 -33.0 -36.5 Q-32.4 -36.4 -32.25 -35.8 L-32.25 -35.6 Q-32.65 -34.7 -33.75 -35.0 -34.9 -35.3 -35.35 -36.35 -35.6 -36.9 -35.05 -37.15 L-34.75 -37.25 M-31.25 -29.35 L-29.65 -29.75 -29.75 -29.8 Q-30.85 -30.05 -30.3 -31.0 L-30.15 -31.1 -29.75 -31.25 -25.25 -31.3 -23.8 -31.1 -22.8 -31.3 -20.75 -31.75 Q-18.8 -30.1 -22.5 -28.95 L-26.15 -28.05 Q-28.95 -27.55 -30.85 -28.85 L-31.25 -29.35" fill="#c0ab58" fill-rule="evenodd" stroke="none"/>
    </g>
    <g id="shape6" transform="matrix(1.0, 0.0, 0.0, 1.0, 46.1, 95.75)">
      <path d="M1.5 -94.25 L16.35 -93.6 Q20.8 -93.2 23.9 -89.8 34.95 -77.5 29.65 -62.4 31.4 -60.55 32.35 -57.45 33.6 -53.5 33.15 -49.15 L32.95 -47.9 Q35.05 -47.15 35.15 -43.5 35.25 -40.1 34.4 -37.0 33.35 -33.3 30.05 -32.75 L29.9 -32.8 Q29.65 -33.35 29.85 -33.9 L30.05 -35.45 30.0 -36.75 30.0 -37.85 Q24.25 -39.65 17.65 -38.35 16.55 -38.1 15.55 -38.8 11.1 -41.9 6.1 -39.75 -3.4 -35.6 -13.8 -38.85 -19.05 -40.5 -23.4 -37.4 -26.95 -34.85 -29.85 -37.8 -32.3 -38.3 -33.05 -35.95 -33.4 -34.8 -33.2 -33.5 -33.05 -32.4 -33.6 -31.6 -37.5 -34.35 -41.35 -38.15 -44.3 -41.0 -44.1 -45.35 -44.0 -48.15 -41.7 -49.9 L-43.15 -51.75 Q-47.7 -59.5 -42.5 -66.9 -39.5 -71.15 -33.45 -70.55 L-29.25 -70.65 -29.4 -72.45 Q-29.6 -78.1 -23.8 -80.55 -22.05 -81.3 -20.2 -82.15 L-20.1 -82.2 Q-19.8 -87.65 -13.75 -91.0 -8.35 -92.25 -4.45 -90.5 L-3.1 -91.9 Q-1.55 -93.4 0.55 -94.0 L1.5 -94.25 M6.05 -56.6 L6.0 -56.5 Q5.6 -54.0 5.95 -51.7 L6.55 -51.55 Q6.65 -54.2 6.05 -56.6 M32.65 -46.8 L32.7 -46.75 32.65 -46.8 M24.5 -37.45 L24.85 -37.35 25.15 -37.0 25.25 -36.8 25.1 -36.35 25.2 -36.2 Q26.3 -36.3 26.25 -35.2 L26.25 -33.5 Q26.3 -32.55 25.6 -31.8 L25.25 -31.45 24.75 -31.35 22.05 -31.35 Q21.25 -32.1 21.4 -33.25 L22.0 -35.3 22.7 -36.65 Q23.1 -37.45 24.0 -37.45 L24.0 -37.5 24.5 -37.45 M1.0 -24.95 L1.05 -25.1 1.25 -25.5 1.6 -25.8 2.0 -26.0 Q2.6 -25.9 2.65 -25.3 L2.45 -24.2 1.95 -23.25 1.8 -23.05 Q0.95 -22.35 -0.25 -22.8 L-0.85 -23.05 -0.95 -23.25 -1.0 -23.6 -1.0 -24.2 -0.8 -24.75 -0.55 -24.9 0.65 -24.95 1.0 -24.95 M9.95 -30.5 L10.05 -30.6 10.2 -30.65 10.9 -31.05 11.25 -31.2 11.25 -31.25 Q15.7 -31.45 15.15 -27.4 14.6 -23.25 10.7 -25.1 8.55 -26.1 9.5 -28.75 L9.8 -30.3 9.95 -30.5 M14.25 -22.5 Q14.85 -22.4 14.9 -21.8 15.0 -21.3 14.55 -21.1 14.0 -20.85 13.65 -21.35 L13.5 -21.7 13.5 -21.85 13.6 -22.05 13.85 -22.3 14.25 -22.45 14.25 -22.5 M6.15 -20.05 Q6.25 -19.55 5.8 -19.35 5.25 -19.1 4.9 -19.6 L4.75 -19.95 4.75 -20.1 4.85 -20.3 5.1 -20.55 5.5 -20.7 5.5 -20.75 Q6.1 -20.65 6.15 -20.05 M46.55 -1.4 Q46.6 -0.75 46.25 -0.3 L45.25 0.25 44.85 0.1 44.65 -0.05 44.55 -0.25 44.5 -0.45 44.65 -0.75 45.0 -1.55 Q45.05 -2.2 45.75 -2.2 L45.75 -2.25 Q46.5 -2.1 46.55 -1.4 M-8.7 -89.35 L-8.8 -89.35 -8.8 -89.25 -8.7 -89.35 M-18.3 -81.1 L-18.3 -80.9 -18.3 -81.1 M-1.3 -78.3 L-1.35 -78.2 -1.3 -78.1 -1.3 -78.3 M-42.45 -9.8 L-43.4 -9.95 Q-43.9 -10.25 -43.7 -10.8 -43.5 -11.25 -43.0 -11.2 L-43.0 -11.25 -42.4 -11.05 -42.05 -10.55 Q-42.05 -10.15 -42.3 -9.9 L-42.45 -9.8 M-8.4 -39.35 L-8.4 -39.3 -8.0 -39.25 -8.4 -39.35 M-22.45 -34.7 L-22.1 -33.0 Q-22.05 -31.5 -23.25 -30.6 -24.65 -29.55 -26.15 -30.45 L-26.55 -30.75 -26.65 -30.95 -26.75 -31.3 -26.75 -32.05 -26.75 -32.8 -26.75 -33.0 -26.6 -33.2 -25.85 -33.95 -24.4 -34.8 -24.0 -35.0 -23.0 -34.95 -22.65 -34.85 -22.45 -34.7 M-27.5 -27.95 L-27.15 -27.85 -26.95 -27.75 -26.65 -27.6 -26.45 -27.45 -26.2 -26.7 Q-26.3 -26.0 -26.55 -25.4 L-27.2 -24.1 -27.5 -23.7 -28.0 -23.6 -29.4 -23.7 -29.6 -23.8 -29.85 -24.95 Q-29.95 -25.9 -29.5 -26.65 -29.05 -27.55 -28.05 -27.9 L-27.75 -28.0 -27.5 -27.95 M-10.75 -22.75 Q-9.55 -22.3 -10.35 -21.3 -10.9 -20.65 -11.75 -20.45 -12.85 -20.2 -13.55 -20.9 L-13.75 -21.2 -13.75 -21.35 -13.7 -21.7 -13.4 -22.1 -13.05 -22.45 -12.75 -22.5 -12.5 -22.45 -12.15 -22.35 -11.95 -22.25 -11.75 -22.25 -11.45 -22.4 -11.05 -22.65 -10.75 -22.75" fill="#666666" fill-rule="evenodd" stroke="none"/>
      <path d="M9.5 -95.5 Q19.4 -96.95 26.2 -90.5 33.05 -84.05 32.2 -74.2 L31.2 -66.7 Q30.8 -64.65 30.0 -62.85 31.3 -61.95 32.05 -60.15 33.6 -56.3 33.6 -52.0 33.55 -49.6 32.7 -47.55 L33.25 -47.5 33.65 -47.35 34.7 -45.5 35.5 -44.0 36.8 -41.65 37.25 -40.6 37.15 -40.45 37.05 -40.25 36.8 -40.1 36.5 -39.95 36.5 -39.55 36.4 -38.8 36.2 -38.45 35.9 -38.05 35.75 -37.85 35.75 -37.5 35.65 -36.75 35.4 -36.4 35.05 -36.0 34.8 -35.8 34.5 -35.75 34.25 -35.8 33.65 -36.05 Q33.4 -36.75 33.45 -37.55 L33.2 -38.85 Q32.9 -39.5 32.9 -40.2 L32.6 -42.05 32.5 -42.35 Q28.45 -41.9 25.25 -43.25 25.15 -44.1 25.8 -44.65 L27.4 -45.5 Q30.0 -45.95 29.05 -46.35 28.75 -46.6 28.75 -46.95 L28.75 -47.7 28.85 -48.05 29.2 -48.4 29.5 -48.5 29.85 -48.35 30.1 -48.2 30.3 -48.0 30.55 -47.95 30.7 -49.85 30.35 -54.75 Q29.8 -54.9 29.75 -55.4 29.25 -55.7 28.85 -56.35 27.95 -57.8 26.25 -58.5 25.1 -59.0 24.55 -59.65 21.3 -59.35 17.8 -59.7 L13.25 -59.25 Q10.7 -58.45 8.65 -56.7 8.25 -56.35 7.75 -56.2 L7.75 -56.0 7.75 -55.45 7.75 -54.5 7.75 -53.2 7.75 -53.0 7.75 -52.8 7.75 -52.6 7.75 -52.45 7.75 -52.25 7.7 -52.05 7.6 -51.9 7.5 -51.7 7.3 -51.55 7.05 -51.4 7.0 -51.25 7.05 -51.1 7.3 -50.55 7.35 -50.55 7.95 -50.0 7.9 -49.45 7.9 -49.4 8.0 -49.2 8.4 -48.05 8.45 -47.85 8.5 -47.7 8.5 -47.5 8.45 -47.3 8.4 -47.1 8.25 -46.95 Q7.8 -46.6 7.35 -46.95 6.95 -47.25 6.7 -47.7 L6.0 -48.7 6.0 -48.6 6.0 -48.45 5.95 -48.25 5.8 -48.05 5.6 -47.9 5.25 -47.75 5.0 -47.75 4.65 -47.95 Q3.3 -49.55 2.8 -51.6 2.3 -53.5 2.65 -55.55 L2.75 -55.9 2.5 -56.15 -0.6 -59.6 Q-5.15 -64.1 -12.0 -62.9 L-12.2 -62.8 -12.25 -62.7 -12.1 -62.35 Q-11.9 -62.05 -12.05 -61.75 L-12.2 -61.55 Q-12.5 -61.2 -13.0 -61.2 L-13.45 -61.25 -13.25 -59.6 Q-12.85 -54.5 -16.05 -51.55 -16.6 -51.1 -17.0 -51.75 L-17.0 -52.1 -16.55 -54.6 Q-16.05 -56.7 -17.45 -58.45 L-20.4 -62.55 Q-20.95 -63.45 -22.0 -64.2 L-25.9 -64.8 -25.0 -63.3 Q-24.55 -62.65 -25.1 -62.1 L-25.4 -62.15 Q-26.85 -63.3 -27.65 -64.9 -31.75 -65.05 -35.8 -64.05 -41.25 -62.7 -43.2 -57.5 L-42.65 -55.4 Q-42.25 -53.85 -41.15 -52.75 -40.05 -51.7 -39.55 -50.35 L-39.5 -50.0 -39.05 -49.6 -38.65 -49.3 -37.65 -48.35 Q-37.45 -48.1 -37.55 -47.8 -40.4 -47.25 -42.6 -50.4 L-44.25 -53.1 -44.5 -53.1 Q-44.8 -53.15 -45.1 -53.35 L-45.3 -53.5 -45.85 -56.05 Q-46.6 -60.1 -45.05 -63.8 -43.7 -66.9 -40.7 -68.4 -35.8 -70.85 -30.5 -72.0 L-28.65 -72.0 -28.35 -73.45 Q-27.4 -77.3 -24.1 -79.5 L-23.5 -79.85 -23.5 -80.05 -23.5 -80.25 -23.5 -80.45 -23.45 -80.6 -23.25 -80.8 -22.25 -81.25 -20.25 -81.7 -20.25 -81.75 -20.15 -81.75 -20.25 -83.2 Q-20.0 -86.1 -17.6 -87.75 -13.55 -90.6 -8.75 -91.95 L-8.75 -92.0 Q-6.15 -92.1 -3.95 -91.15 -3.0 -92.55 -1.5 -93.25 3.35 -95.7 9.05 -95.45 L9.5 -95.5 M1.4 -82.15 Q0.9 -78.7 -0.45 -75.5 L-0.65 -75.35 -0.85 -75.2 Q0.75 -72.25 1.5 -69.0 1.7 -68.15 1.25 -67.4 L2.1 -67.05 Q4.75 -65.9 6.5 -63.7 L7.4 -62.2 Q11.5 -64.95 16.75 -65.0 L27.25 -64.75 27.3 -64.75 Q26.6 -67.2 27.25 -70.3 28.5 -76.4 25.3 -81.9 18.75 -93.25 5.55 -87.8 L1.1 -85.9 Q1.7 -84.15 1.4 -82.15 M21.75 -62.6 L21.8 -62.7 21.75 -62.7 21.75 -62.6 M22.75 -43.0 L23.65 -42.95 25.4 -42.7 Q26.35 -42.4 26.8 -41.6 27.1 -41.1 26.9 -40.6 26.6 -40.15 26.1 -40.45 24.75 -41.2 23.1 -41.45 21.5 -41.7 22.45 -42.75 L22.75 -43.0 M23.7 -37.5 L23.8 -37.6 23.95 -37.65 24.25 -37.7 24.25 -37.75 Q24.75 -37.8 25.1 -37.45 L25.7 -36.8 25.95 -35.95 25.95 -35.55 Q25.6 -34.8 24.65 -34.7 23.45 -34.55 22.35 -34.7 22.2 -34.7 22.15 -34.8 L22.05 -35.0 22.0 -35.2 22.0 -35.55 22.0 -35.95 22.0 -36.3 22.0 -36.5 22.15 -36.7 22.35 -36.8 23.5 -37.1 23.6 -37.3 23.7 -37.5 M15.7 -43.1 L17.0 -42.8 Q17.9 -42.55 17.95 -41.7 L17.95 -41.5 Q17.75 -41.05 17.3 -41.2 L14.3 -41.9 Q13.0 -42.15 13.9 -43.0 L14.25 -43.25 15.7 -43.1 M4.65 -40.25 L5.2 -40.5 5.25 -40.65 4.7 -40.6 4.3 -40.35 4.0 -40.25 3.4 -40.1 3.0 -40.0 Q2.2 -39.45 4.65 -40.25 M4.6 -42.05 Q7.05 -43.3 8.45 -41.75 7.45 -39.15 4.2 -38.7 -3.95 -37.6 -11.95 -38.35 -12.85 -38.45 -13.0 -39.2 L-12.95 -39.35 -12.8 -39.7 -12.6 -39.95 -12.55 -40.25 -14.4 -41.5 Q-15.25 -41.95 -15.8 -42.7 L-16.75 -44.0 -16.75 -44.35 -16.7 -44.95 -16.3 -45.4 -16.0 -45.5 Q-14.05 -42.6 -10.7 -42.1 L-7.6 -41.5 Q-3.95 -40.6 -0.7 -42.05 L0.35 -42.55 Q1.35 -43.1 1.95 -42.25 2.55 -41.0 4.6 -42.05 M2.0 -25.1 Q1.6 -24.4 0.75 -24.2 -0.45 -23.95 -0.75 -24.95 L-0.5 -25.45 0.65 -26.25 1.5 -26.45 1.5 -26.5 Q2.65 -26.1 2.0 -25.1 M8.25 -28.85 L8.3 -29.25 8.4 -29.4 9.5 -30.1 10.9 -31.05 11.25 -31.25 12.15 -31.15 14.0 -30.95 14.4 -30.85 14.65 -30.5 14.75 -30.3 Q14.8 -29.85 15.2 -29.5 L15.55 -28.8 15.3 -28.05 15.1 -27.9 14.75 -27.8 14.25 -27.8 13.8 -27.85 13.65 -28.05 13.55 -28.25 13.5 -28.45 13.4 -28.55 13.3 -28.55 13.0 -28.5 12.55 -28.55 12.45 -28.5 12.35 -28.3 12.25 -27.95 11.9 -27.35 11.05 -27.35 10.8 -27.3 Q9.4 -26.85 8.65 -27.6 8.2 -28.1 8.25 -28.85 M-1.0 -78.7 L-0.9 -78.7 -0.85 -78.75 -1.0 -78.85 -1.0 -78.7 M-2.55 -79.0 Q-3.05 -84.65 -9.15 -85.1 -13.95 -85.45 -14.6 -81.6 L-8.05 -81.25 Q-4.95 -81.0 -3.0 -78.45 L-2.45 -77.75 -2.55 -79.0 M-25.2 -71.6 Q-22.05 -70.95 -19.2 -69.25 -16.15 -67.45 -14.65 -64.7 L-14.45 -65.0 -14.25 -65.15 -12.5 -66.1 Q-8.05 -67.3 -3.5 -67.75 -1.8 -68.05 -0.2 -67.75 -2.6 -71.6 -6.6 -73.5 -15.0 -77.55 -23.75 -73.95 L-23.85 -73.75 -25.2 -71.6 M-20.0 -48.3 Q-20.5 -47.2 -21.9 -46.75 L-24.75 -45.7 Q-26.45 -44.95 -27.25 -46.2 -26.8 -47.35 -25.2 -47.55 -23.6 -47.75 -22.25 -48.55 L-21.25 -49.0 -20.75 -48.95 -20.4 -48.85 -20.1 -48.5 -20.0 -48.3 M-27.85 -42.05 Q-29.85 -42.95 -32.0 -43.45 -35.4 -44.15 -33.75 -45.75 L-30.65 -44.8 -27.5 -44.0 Q-25.35 -43.7 -25.1 -42.2 L-27.85 -42.05 M-22.15 -35.15 L-21.75 -34.6 -21.75 -34.45 -21.75 -34.25 -21.8 -34.05 -21.9 -33.9 -22.2 -33.5 -22.3 -33.4 -22.45 -33.35 -23.85 -33.1 -24.05 -32.9 Q-24.15 -32.65 -24.45 -32.6 L-25.75 -32.2 -26.45 -32.1 Q-26.85 -32.4 -26.9 -32.9 -27.15 -34.05 -26.0 -34.55 L-24.95 -35.0 -23.75 -35.5 -22.75 -35.4 -22.15 -35.15" fill="#333333" fill-rule="evenodd" stroke="none"/>
      <path d="M20.85 -45.8 L21.05 -45.65 21.25 -45.65 Q22.0 -45.6 22.0 -44.85 20.1 -43.25 17.4 -43.85 L17.15 -43.6 11.0 -43.65 10.4 -43.8 10.2 -44.4 10.25 -45.1 10.2 -46.05 9.85 -46.45 Q9.7 -46.45 9.65 -46.55 L9.55 -46.95 9.55 -47.3 9.7 -47.6 10.25 -47.95 10.25 -48.0 Q11.0 -47.8 11.55 -47.25 L12.85 -46.4 13.4 -46.1 Q13.6 -46.5 14.0 -46.5 L15.65 -46.15 15.75 -46.2 16.8 -47.15 Q17.35 -47.75 18.15 -47.35 18.5 -47.1 18.4 -46.65 L18.2 -45.85 19.7 -45.75 20.25 -45.95 20.25 -46.0 20.85 -45.8 M-2.5 -43.95 Q-1.1 -43.9 -1.0 -42.7 L-1.1 -42.55 Q-5.3 -40.95 -8.55 -43.6 L-8.45 -43.85 -8.3 -43.9 -8.0 -44.0 -2.5 -43.95 M-19.45 -39.85 L-22.0 -38.95 Q-23.95 -38.4 -24.25 -39.85 -23.2 -41.0 -21.2 -41.1 -20.2 -41.15 -19.3 -41.65 L-19.0 -41.75 Q-17.45 -40.75 -19.45 -39.85 M-36.25 -38.95 L-36.25 -39.0 Q-35.65 -38.9 -35.6 -38.3 -35.5 -37.8 -35.95 -37.6 -36.5 -37.35 -36.85 -37.85 L-37.0 -38.2 -37.0 -38.35 -36.9 -38.55 -36.65 -38.8 -36.25 -38.95" fill="#c0ab58" fill-rule="evenodd" stroke="none"/>
    </g>
  </defs>
</svg>
