<?xml version="1.0" encoding="UTF-8" standalone="no"?>
<svg xmlns:xlink="http://www.w3.org/1999/xlink" height="140.4px" width="215.1px" xmlns="http://www.w3.org/2000/svg">
  <g transform="matrix(6.0, 0.0, 0.0, 6.0, 27.0, 76.2)">
    <use height="23.4" transform="matrix(1.0, 0.0, 0.0, 1.0, 6.0, -12.7)" width="25.35" xlink:href="#shape0"/>
    <use height="15.85" transform="matrix(1.0, 0.0, 0.0, 1.0, -4.5, -7.75)" width="17.65" xlink:href="#shape1"/>
    <use height="14.5" transform="matrix(1.0, 0.0, 0.0, 1.0, 2.95, -7.2)" width="14.5" xlink:href="#sprite0"/>
    <use height="14.05" transform="matrix(1.0, 0.0, 0.0, 1.0, -1.6, -7.3)" width="7.35" xlink:href="#shape3"/>
    <use height="12.9" transform="matrix(1.0, 0.0, 0.0, 1.0, -0.6, -6.25)" width="9.2" xlink:href="#shape4"/>
  </g>
  <defs>
    <g id="shape0" transform="matrix(1.0, 0.0, 0.0, 1.0, -6.0, 12.7)">
      <path d="M9.55 -12.7 L9.6 -12.65 9.65 -12.65 9.7 -12.0 10.3 -6.2 10.3 -5.65 10.45 -5.5 10.5 -5.45 10.8 -4.05 11.4 -5.3 11.6 -5.1 11.6 -5.05 11.65 -5.0 11.5 -3.4 11.75 -2.4 11.8 -2.4 12.0 -2.25 11.6 -1.9 11.4 -1.85 10.5 -1.05 9.55 -0.95 9.85 -0.4 9.9 -0.4 10.8 -0.75 11.05 -0.45 11.4 -0.35 11.45 -0.1 11.55 0.0 11.55 0.05 11.6 0.1 12.05 -0.1 12.2 0.0 12.2 0.05 11.2 0.5 11.05 0.5 10.3 0.5 10.25 0.4 10.2 0.35 Q10.2 0.15 10.0 0.3 L9.8 0.95 9.7 1.35 Q9.15 1.4 9.15 0.8 L9.15 0.6 8.9 1.0 8.7 1.05 8.7 1.0 8.65 0.95 8.65 0.9 8.7 0.75 8.7 0.6 7.7 0.5 7.25 0.5 7.05 0.35 7.1 0.3 6.05 0.25 6.05 0.2 6.1 0.1 8.35 -0.2 8.2 -0.4 7.75 -0.85 7.75 -0.9 7.85 -0.95 7.9 -1.0 Q8.55 -0.65 9.2 -0.65 L9.2 -1.0 7.7 -1.45 7.8 -1.55 7.85 -1.6 7.8 -1.65 7.45 -1.85 7.5 -1.9 7.4 -2.0 6.95 -2.35 6.0 -3.0 6.05 -3.1 6.15 -3.15 7.15 -2.65 7.2 -2.6 7.8 -2.2 7.85 -2.3 Q7.4 -3.65 7.3 -4.95 L7.25 -5.3 Q7.0 -5.75 7.0 -6.25 L7.05 -6.3 7.1 -6.25 7.2 -6.25 7.2 -6.2 7.25 -6.15 7.3 -6.15 7.55 -5.3 7.95 -4.8 8.0 -4.75 7.9 -4.65 7.9 -4.6 8.4 -3.65 8.45 -3.6 8.75 -3.5 8.85 -3.7 8.8 -3.7 8.65 -3.85 9.1 -5.5 9.4 -9.05 9.45 -9.1 9.45 -9.75 9.45 -10.8 9.45 -11.25 9.5 -11.75 9.5 -12.65 9.55 -12.7 M13.8 -3.5 Q14.85 -4.1 15.5 -5.15 L15.55 -5.1 15.6 -5.2 15.7 -5.15 15.75 -5.1 15.55 -4.05 15.55 -3.95 15.6 -3.9 15.65 -3.85 15.5 -3.4 15.65 -3.45 15.75 -3.4 15.8 -3.35 16.0 -3.3 16.8 -3.75 16.95 -3.65 16.95 -3.6 16.3 -2.95 16.25 -2.9 16.25 -2.85 16.4 -2.8 16.4 -2.75 16.45 -2.65 16.45 -2.6 17.1 -2.5 17.15 -2.45 17.25 -2.4 17.3 -2.35 16.75 -1.6 19.55 -1.25 19.6 -1.25 19.65 -1.3 25.55 -0.65 25.75 -0.6 25.8 -0.65 26.0 -0.6 26.05 -0.6 26.05 -0.55 26.8 -0.4 26.8 -0.45 26.85 -0.45 26.9 -0.5 26.95 -0.5 27.05 -0.45 27.45 -0.4 29.8 -0.2 30.4 -0.3 30.55 -0.2 30.55 -0.15 31.35 -0.05 30.3 0.1 29.8 0.2 28.7 0.2 26.75 0.2 21.3 1.25 19.45 1.6 18.75 1.75 16.15 2.2 16.55 2.85 16.6 2.95 15.9 2.95 16.0 3.05 15.8 3.25 15.5 3.4 15.45 3.35 15.35 3.25 15.35 3.2 15.15 3.0 15.1 2.95 14.65 2.6 14.5 2.75 14.65 3.55 14.7 3.75 14.95 4.1 Q14.7 4.25 14.5 3.95 L14.3 4.0 14.2 4.05 13.7 3.6 12.25 2.05 12.2 1.9 Q12.35 1.4 12.95 1.2 L13.0 1.2 13.15 1.3 13.2 1.3 13.15 1.25 13.15 1.2 12.3 0.6 12.3 0.55 12.35 0.5 12.4 0.5 12.4 0.2 12.4 0.15 Q12.75 -0.35 13.2 -0.55 L12.3 -1.25 12.25 -1.25 Q12.05 -1.2 12.05 -1.35 L12.0 -1.35 Q11.95 -1.75 12.3 -2.15 L12.45 -2.3 12.55 -2.25 12.55 -2.3 12.6 -2.25 12.65 -2.25 13.85 -3.3 13.8 -3.35 13.75 -3.45 13.8 -3.5 M11.3 1.8 L11.35 1.85 11.5 1.85 11.55 1.9 11.5 2.05 12.1 3.65 12.1 3.75 12.45 4.45 12.45 4.5 12.35 4.55 12.25 4.5 11.1 2.8 10.6 4.6 10.25 7.55 10.2 8.25 10.2 8.9 10.2 9.6 10.15 9.65 9.95 9.6 9.95 9.35 9.8 9.25 9.85 9.0 9.75 8.95 9.75 9.25 9.95 10.6 9.9 10.65 9.7 10.6 9.4 8.55 9.3 8.45 8.9 4.2 7.95 6.25 7.8 6.2 8.0 5.25 7.95 5.25 Q7.8 5.3 7.75 5.15 L8.2 2.9 7.95 3.15 7.9 3.2 7.65 3.2 7.3 3.65 7.0 4.0 6.85 4.05 6.8 3.9 7.4 3.0 7.35 2.9 7.9 1.85 8.0 1.95 8.45 1.75 8.55 1.85 8.6 1.9 8.6 1.95 8.65 1.95 8.65 2.0 9.75 1.85 10.8 1.75 11.15 1.8 11.2 1.85 11.25 1.8 11.3 1.8 M12.35 2.05 L12.7 2.35 12.5 1.95 12.45 2.0 12.4 2.05 12.35 2.05" fill="#ffffff" fill-rule="evenodd" stroke="none"/>
    </g>
    <g id="shape1" transform="matrix(1.0, 0.0, 0.0, 1.0, 4.5, 7.75)">
      <path d="M6.95 -7.05 L6.35 -7.2 5.05 -7.4 3.9 -7.3 1.65 -7.25 1.25 -7.1 -0.25 -6.9 -1.45 -6.5 -2.1 -6.3 -2.2 -6.25 -1.85 -6.1 -1.6 -5.75 -1.3 -5.3 -1.25 -4.85 Q-1.25 -4.5 -1.4 -4.2 L-1.3 -4.25 0.25 -4.65 1.45 -4.45 Q1.65 -4.3 1.95 -4.25 1.5 -4.7 1.5 -5.05 L1.7 -5.75 2.1 -6.1 2.7 -6.15 Q3.75 -6.15 4.15 -5.55 L4.4 -4.9 4.45 -4.85 Q5.6 -5.75 6.45 -5.9 L8.5 -6.2 10.05 -6.4 10.45 -6.4 9.3 -6.7 8.4 -6.85 7.5 -6.9 6.95 -7.05 M7.05 -7.35 L8.7 -7.15 9.55 -6.9 10.55 -6.65 11.9 -6.3 13.05 -5.8 13.15 -5.55 13.0 -5.5 12.9 -5.5 12.85 -5.5 Q12.55 -5.6 12.1 -5.85 L11.95 -5.85 11.5 -5.95 9.85 -6.05 8.85 -5.9 8.15 -5.8 6.15 -5.45 5.0 -4.85 4.3 -4.3 4.0 -5.2 Q3.7 -5.8 2.7 -5.8 L2.25 -5.8 2.2 -5.65 1.95 -5.5 Q1.8 -5.4 1.8 -5.05 L2.1 -4.6 2.45 -4.3 2.65 -4.0 3.15 -3.8 3.4 -3.6 4.4 -2.65 5.0 -1.45 5.15 -1.15 5.15 -0.9 5.1 -0.9 5.15 -0.05 Q5.15 1.5 4.15 2.8 L3.7 3.5 3.2 3.95 3.4 3.95 3.15 4.15 2.65 4.35 2.45 4.65 2.1 4.95 1.8 5.4 Q1.8 5.75 1.95 5.85 L2.2 6.0 2.25 6.15 2.7 6.15 Q3.7 6.15 4.0 5.55 L4.3 4.65 5.0 5.2 6.15 5.8 8.15 6.15 8.85 6.25 9.85 6.4 11.5 6.3 11.95 6.2 12.1 6.2 Q12.55 5.95 12.85 5.85 L12.9 5.85 13.0 5.85 13.15 5.9 13.05 6.15 11.9 6.65 10.55 7.0 9.55 7.25 8.7 7.5 7.05 7.7 Q6.0 8.1 5.25 8.1 L4.05 8.0 2.75 7.95 1.55 7.9 -0.3 7.55 -1.45 7.15 -1.85 7.05 -2.55 6.95 -2.7 6.75 -2.95 6.75 -2.95 6.45 -2.8 6.4 -1.9 5.95 -1.55 5.2 Q-1.55 4.9 -1.85 4.55 L-2.0 4.3 -2.5 4.0 -2.9 3.7 -3.8 2.85 Q-4.5 1.65 -4.5 0.1 L-4.2 -1.3 -3.55 -2.65 -3.35 -2.95 -2.25 -3.75 -2.1 -3.8 -1.85 -4.2 Q-1.55 -4.55 -1.55 -4.85 L-1.9 -5.6 -2.8 -6.05 -2.95 -6.1 -2.95 -6.4 -2.7 -6.4 -2.55 -6.6 -1.85 -6.7 -1.45 -6.8 -0.3 -7.2 1.55 -7.55 2.75 -7.6 4.05 -7.65 5.25 -7.75 7.05 -7.35 M3.65 -2.85 L3.2 -3.3 3.15 -3.25 3.05 -3.35 3.0 -3.35 2.6 -3.6 2.5 -3.7 1.75 -4.0 0.05 -4.3 0.05 -4.25 -0.15 -4.2 Q-0.25 -4.1 -0.5 -4.1 L-0.65 -4.2 -1.75 -3.6 -2.0 -3.45 -3.5 -2.25 -3.9 -1.0 -4.0 -0.55 -4.15 -0.55 -4.15 0.0 -4.2 0.15 Q-4.2 1.1 -3.6 2.45 L-2.4 3.65 -1.9 3.95 -1.75 3.95 -1.2 4.35 -0.6 4.5 -0.5 4.45 -0.15 4.55 Q1.3 4.5 2.95 3.75 L3.95 2.55 4.35 1.9 4.2 1.9 Q3.85 1.9 3.75 1.45 L3.75 0.95 3.8 -0.55 3.9 -1.25 Q3.95 -1.75 4.5 -1.8 L3.95 -2.6 3.65 -2.85 M-2.65 1.0 L-2.6 1.0 -2.6 0.75 -2.65 0.7 -2.7 0.7 -2.85 0.0 -2.7 -0.6 -2.5 -1.45 -2.45 -1.45 -2.4 -1.6 -2.45 -1.75 -2.45 -1.8 -2.25 -2.35 -2.05 -2.75 -1.85 -2.9 -0.1 -3.0 0.55 -2.95 0.5 -2.85 0.55 -2.65 0.9 -2.75 1.4 -2.0 1.15 -1.35 0.85 -0.8 0.75 0.1 0.6 0.3 0.7 0.45 0.7 0.6 0.95 1.55 1.2 2.3 Q1.2 3.15 0.55 3.15 L-0.7 3.1 -1.35 3.15 -2.05 2.75 Q-2.2 2.3 -2.4 2.3 L-2.5 1.85 -2.65 1.0 M0.85 -2.4 L-0.2 -2.6 -1.4 -2.5 -1.9 -2.4 -1.9 -2.25 -1.95 -2.0 Q-1.95 -1.85 -2.1 -1.85 L-2.5 0.05 -2.2 1.7 -1.8 2.5 Q-1.5 2.95 0.3 2.8 L0.8 2.8 0.9 2.3 0.5 1.5 0.4 0.6 0.5 -0.75 0.7 -1.35 1.05 -2.0 0.85 -2.4 M4.8 -0.9 L4.65 -1.4 4.65 -1.5 4.2 -1.3 4.2 -1.0 4.05 1.4 4.1 1.45 Q4.35 1.2 4.55 1.2 L4.6 1.35 4.6 1.4 4.7 1.2 4.85 -0.05 4.8 -0.9 M1.7 6.1 L1.5 5.4 Q1.5 5.05 1.95 4.6 L1.45 4.8 0.25 5.0 -0.5 4.9 -0.55 4.9 -0.65 4.85 -1.15 4.65 -1.35 4.65 -1.25 5.2 -1.3 5.65 -1.6 6.1 -1.85 6.45 -2.2 6.6 -2.1 6.65 -1.45 6.85 -0.25 7.25 1.25 7.45 1.65 7.6 3.9 7.65 5.05 7.75 6.35 7.55 6.95 7.4 7.5 7.25 8.4 7.2 9.3 7.05 10.45 6.75 10.05 6.75 8.5 6.55 6.45 6.25 Q5.6 6.1 4.45 5.2 L4.4 5.25 4.15 5.9 Q3.75 6.5 2.7 6.5 L2.1 6.45 1.7 6.1 M-0.35 -1.7 Q-0.3 -1.4 -0.4 -1.2 L-0.45 -0.15 -0.3 1.3 -0.3 2.0 -0.8 2.05 -1.7 1.95 -1.9 1.75 -2.1 0.2 -1.95 -1.65 -1.5 -2.05 -0.9 -2.15 Q-0.4 -2.15 -0.35 -1.7 M-1.25 -1.75 L-1.65 -1.15 -1.8 0.15 -1.6 1.6 -1.0 1.7 -0.6 1.7 -0.6 1.45 -0.7 0.85 -1.1 0.85 -1.15 0.7 Q-1.05 0.45 -0.75 0.5 L-0.75 0.1 -0.75 -0.1 -1.2 -0.1 -1.25 -0.2 Q-1.25 -0.5 -0.85 -0.5 L-0.75 -0.45 -0.7 -0.95 -1.0 -0.95 -1.25 -1.0 -1.25 -1.25 -1.0 -1.3 -0.7 -1.25 -0.65 -1.55 Q-0.7 -1.8 -1.25 -1.75" fill="#000000" fill-rule="evenodd" stroke="none"/>
      <path d="M6.95 -7.05 L7.5 -6.9 8.4 -6.85 9.3 -6.7 10.45 -6.4 10.05 -6.4 8.5 -6.2 6.45 -5.9 Q5.6 -5.75 4.45 -4.85 L4.4 -4.9 4.15 -5.55 Q3.75 -6.15 2.7 -6.15 L2.1 -6.1 1.7 -5.75 1.5 -5.05 Q1.5 -4.7 1.95 -4.25 1.65 -4.3 1.45 -4.45 L0.25 -4.65 -1.3 -4.25 -1.4 -4.2 Q-1.25 -4.5 -1.25 -4.85 L-1.3 -5.3 -1.6 -5.75 -1.85 -6.1 -2.2 -6.25 -2.1 -6.3 -1.45 -6.5 -0.25 -6.9 1.25 -7.1 1.65 -7.25 3.9 -7.3 5.05 -7.4 6.35 -7.2 6.95 -7.05 M1.7 6.1 L2.1 6.45 2.7 6.5 Q3.75 6.5 4.15 5.9 L4.4 5.25 4.45 5.2 Q5.6 6.1 6.45 6.25 L8.5 6.55 10.05 6.75 10.45 6.75 9.3 7.05 8.4 7.2 7.5 7.25 6.95 7.4 6.35 7.55 5.05 7.75 3.9 7.65 1.65 7.6 1.25 7.45 -0.25 7.25 -1.45 6.85 -2.1 6.65 -2.2 6.6 -1.85 6.45 -1.6 6.1 -1.3 5.65 -1.25 5.2 -1.35 4.65 -1.15 4.65 -0.65 4.85 -0.55 4.9 -0.5 4.9 0.25 5.0 1.45 4.8 1.95 4.6 Q1.5 5.05 1.5 5.4 L1.7 6.1" fill="#333333" fill-rule="evenodd" stroke="none"/>
      <path d="M3.65 -2.85 L3.95 -2.6 4.5 -1.8 Q3.95 -1.75 3.9 -1.25 L3.8 -0.55 3.75 0.95 3.75 1.45 Q3.85 1.9 4.2 1.9 L4.35 1.9 3.95 2.55 2.95 3.75 Q1.3 4.5 -0.15 4.55 L-0.5 4.45 -0.6 4.5 -1.2 4.35 -1.75 3.95 -1.9 3.95 -2.4 3.65 -3.6 2.45 Q-4.2 1.1 -4.2 0.15 L-4.15 0.0 -4.0 0.45 -3.6 0.95 -3.45 0.95 -3.3 1.0 -2.65 1.0 -2.5 1.85 -2.4 2.3 Q-2.2 2.3 -2.05 2.75 L-1.35 3.15 -0.7 3.1 0.55 3.15 Q1.2 3.15 1.2 2.3 L0.95 1.55 0.7 0.6 0.7 0.45 0.95 0.5 1.5 0.3 1.9 0.15 2.05 0.05 3.05 -0.6 Q3.8 -1.2 3.8 -2.05 L3.65 -2.85" fill="#848484" fill-rule="evenodd" stroke="none"/>
      <path d="M0.85 -2.4 L1.05 -2.0 0.7 -1.35 0.5 -0.75 0.4 0.6 0.5 1.5 0.9 2.3 0.8 2.8 0.3 2.8 Q-1.5 2.95 -1.8 2.5 L-2.2 1.7 -2.5 0.05 -2.1 -1.85 Q-1.95 -1.85 -1.95 -2.0 L-1.9 -2.25 -1.9 -2.4 -1.4 -2.5 -0.2 -2.6 0.85 -2.4 M-0.35 -1.7 Q-0.4 -2.15 -0.9 -2.15 L-1.5 -2.05 -1.95 -1.65 -2.1 0.2 -1.9 1.75 -1.7 1.95 -0.8 2.05 -0.3 2.0 -0.3 1.3 -0.45 -0.15 -0.4 -1.2 Q-0.3 -1.4 -0.35 -1.7" fill="#b17a56" fill-rule="evenodd" stroke="none"/>
      <path d="M-1.25 -1.75 Q-0.7 -1.8 -0.65 -1.55 L-0.7 -1.25 -1.0 -1.3 -1.25 -1.25 -1.25 -1.0 -1.0 -0.95 -0.7 -0.95 -0.75 -0.45 -0.85 -0.5 Q-1.25 -0.5 -1.25 -0.2 L-1.2 -0.1 -0.75 -0.1 -0.75 0.1 -0.75 0.5 Q-1.05 0.45 -1.15 0.7 L-1.1 0.85 -0.7 0.85 -0.6 1.45 -0.6 1.7 -1.0 1.7 -1.6 1.6 -1.8 0.15 -1.65 -1.15 -1.25 -1.75" fill="#5c3f2c" fill-rule="evenodd" stroke="none"/>
      <path d="M4.8 -0.9 L4.85 -0.05 4.7 1.2 4.6 1.4 4.6 1.35 4.55 1.2 Q4.35 1.2 4.1 1.45 L4.05 1.4 4.2 -1.0 4.2 -1.3 4.65 -1.5 4.65 -1.4 4.8 -0.9" fill="#f70000" fill-rule="evenodd" stroke="none"/>
      <path d="M-4.15 0.0 L-4.15 -0.55 -4.0 -0.55 -3.9 -1.0 -3.5 -2.25 -2.0 -3.45 -1.75 -3.6 -0.65 -4.2 -0.5 -4.1 Q-0.25 -4.1 -0.15 -4.2 L0.05 -4.25 0.05 -4.3 1.75 -4.0 2.5 -3.7 2.6 -3.6 3.0 -3.35 3.05 -3.35 3.15 -3.25 3.2 -3.3 3.65 -2.85 3.8 -2.05 Q3.8 -1.2 3.05 -0.6 L2.05 0.05 1.9 0.15 1.5 0.3 0.95 0.5 0.7 0.45 0.6 0.3 0.75 0.1 0.85 -0.8 1.15 -1.35 1.4 -2.0 0.9 -2.75 1.15 -3.3 Q0.95 -4.15 -0.55 -4.0 -1.3 -3.85 -1.5 -3.55 -2.0 -3.4 -2.55 -2.85 L-3.1 -1.85 -2.85 -1.45 -2.5 -1.45 -2.7 -0.6 -2.85 0.0 -2.7 0.7 -2.65 0.7 -2.6 0.75 -2.6 1.0 -2.65 1.0 -3.3 1.0 -3.45 0.95 -3.6 0.95 -4.0 0.45 -4.15 0.0 M-2.05 -2.75 L-2.25 -2.35 -2.45 -1.8 -2.45 -1.75 -2.8 -1.8 -2.05 -2.75" fill="#c8c8c8" fill-rule="evenodd" stroke="none"/>
      <path d="M-2.5 -1.45 L-2.85 -1.45 -3.1 -1.85 -2.55 -2.85 Q-2.0 -3.4 -1.5 -3.55 -1.3 -3.85 -0.55 -4.0 0.95 -4.15 1.15 -3.3 L0.9 -2.75 0.55 -2.65 0.5 -2.85 0.55 -2.95 -0.1 -3.0 -1.85 -2.9 -2.05 -2.75 -2.8 -1.8 -2.45 -1.75 -2.4 -1.6 -2.45 -1.45 -2.5 -1.45" fill="#dddddd" fill-rule="evenodd" stroke="none"/>
    </g>
    <g id="sprite0" transform="matrix(1.0, 0.0, 0.0, 1.0, 7.25, 7.25)">
      <use height="11.7" transform="matrix(1.2393, 0.0, 0.0, 1.2393, -7.25, -7.25)" width="11.7" xlink:href="#shape2"/>
    </g>
    <g id="shape2" transform="matrix(1.0, 0.0, 0.0, 1.0, 5.85, 5.85)">
      <path d="M4.1 -4.15 Q5.85 -2.4 5.85 0.0 5.85 2.4 4.1 4.1 2.4 5.85 0.0 5.85 -2.4 5.85 -4.15 4.1 -5.85 2.4 -5.85 0.0 -5.85 -2.4 -4.15 -4.15 -2.4 -5.85 0.0 -5.85 2.4 -5.85 4.1 -4.15" fill="url(#gradient0)" fill-rule="evenodd" stroke="none"/>
    </g>
    <radialGradient cx="0" cy="0" gradientTransform="matrix(0.0078, 0.0, 0.0, 0.0078, 0.0, 0.0)" gradientUnits="userSpaceOnUse" id="gradient0" r="819.2" spreadMethod="pad">
      <stop offset="0.1607843137254902" stop-color="#ffffff" stop-opacity="0.92156863"/>
      <stop offset="0.30196078431372547" stop-color="#fd1313" stop-opacity="0.87058824"/>
      <stop offset="0.8705882352941177" stop-color="#e60000" stop-opacity="0.0"/>
    </radialGradient>
    <g id="shape3" transform="matrix(1.0, 0.0, 0.0, 1.0, 1.6, 7.3)">
      <path d="M2.2 -6.85 L1.2 -6.75 0.05 -6.5 -0.55 -6.35 Q-0.75 -6.15 -1.0 -6.0 L-1.55 -6.0 -1.6 -6.15 0.05 -6.85 1.2 -7.1 2.8 -7.3 3.3 -7.3 3.35 -7.15 3.3 -7.0 2.2 -6.85 M5.75 6.05 Q5.75 6.25 5.3 6.25 L4.55 6.15 3.6 6.75 3.35 6.75 3.3 6.6 Q3.3 6.45 3.45 6.45 L3.85 6.3 4.2 5.95 Q4.35 5.7 4.7 5.8 L5.7 5.9 5.75 6.05" fill="#ffffff" fill-rule="evenodd" stroke="none"/>
    </g>
    <g id="shape4" transform="matrix(1.0, 0.0, 0.0, 1.0, 0.6, 6.25)">
      <path d="M3.45 -3.15 Q3.9 -3.15 4.0 -2.9 L4.25 -2.55 4.75 -1.9 5.05 -1.2 5.05 -0.45 4.95 0.9 4.05 2.55 2.7 3.9 2.3 4.2 1.85 4.4 1.6 4.5 1.7 4.5 Q1.95 4.5 1.95 4.85 L1.85 5.3 Q1.75 5.5 1.8 5.85 1.25 5.9 1.4 5.4 0.65 5.35 0.65 4.95 0.65 4.7 1.35 4.7 L1.4 4.6 0.65 4.75 0.4 4.65 0.0 4.7 -0.6 4.45 -0.4 4.25 0.05 4.35 1.85 3.55 2.2 3.3 2.3 3.05 2.75 2.5 3.25 0.05 3.2 -0.55 2.95 -1.15 3.05 -1.4 2.95 -1.7 2.9 -2.05 2.65 -2.35 Q2.5 -2.45 2.45 -2.7 L1.95 -3.5 1.65 -3.85 1.8 -4.1 2.25 -3.75 2.6 -3.75 3.1 -3.6 3.45 -3.15" fill="url(#gradient1)" fill-rule="evenodd" stroke="none"/>
      <path d="M4.8 -5.85 L5.7 -5.65 5.9 -5.65 6.05 -5.7 6.2 -5.75 6.85 -6.0 7.0 -6.1 7.05 -6.05 8.25 -6.25 Q8.7 -6.25 8.6 -6.05 L8.35 -5.85 7.45 -5.7 6.35 -5.45 5.4 -5.1 5.25 -5.0 Q4.85 -4.65 4.55 -4.65 L4.5 -4.65 4.45 -4.65 4.4 -4.4 4.15 -4.4 4.15 -4.9 4.25 -4.9 4.2 -5.15 4.0 -5.65 4.05 -5.8 4.2 -5.85 4.5 -5.75 4.8 -5.85" fill="url(#gradient2)" fill-rule="evenodd" stroke="none"/>
      <path d="M5.45 5.7 L6.95 6.35 7.0 6.5 6.95 6.65 6.7 6.65 Q6.15 6.6 5.25 6.0 L4.9 6.2 4.85 6.05 4.95 5.8 5.0 5.8 4.95 5.75 Q4.75 5.7 4.7 5.9 L4.5 6.1 Q4.25 6.1 4.25 5.8 L4.0 5.8 3.95 5.65 4.3 5.3 4.4 5.2 4.25 4.9 4.4 4.65 4.6 4.95 Q5.05 4.5 5.05 5.4 L5.45 5.65 5.45 5.7" fill="url(#gradient3)" fill-rule="evenodd" stroke="none"/>
    </g>
    <radialGradient cx="0" cy="0" gradientTransform="matrix(0.0089, 0.0, 0.0, 0.0089, 4.45, 0.05)" gradientUnits="userSpaceOnUse" id="gradient1" r="819.2" spreadMethod="pad">
      <stop offset="0.1607843137254902" stop-color="#ffffff" stop-opacity="0.92156863"/>
      <stop offset="0.30196078431372547" stop-color="#fd1313" stop-opacity="0.87058824"/>
      <stop offset="0.8705882352941177" stop-color="#e60000" stop-opacity="0.0"/>
    </radialGradient>
    <radialGradient cx="0" cy="0" gradientTransform="matrix(0.0054, 0.0, 0.0, 0.0054, 4.9, -5.0)" gradientUnits="userSpaceOnUse" id="gradient2" r="819.2" spreadMethod="pad">
      <stop offset="0.1607843137254902" stop-color="#ffffff" stop-opacity="0.92156863"/>
      <stop offset="0.30196078431372547" stop-color="#fd1313" stop-opacity="0.87058824"/>
      <stop offset="0.8705882352941177" stop-color="#e60000" stop-opacity="0.0"/>
    </radialGradient>
    <radialGradient cx="0" cy="0" gradientTransform="matrix(0.0033, 0.0, 0.0, 0.0033, 4.7, 5.2)" gradientUnits="userSpaceOnUse" id="gradient3" r="819.2" spreadMethod="pad">
      <stop offset="0.1607843137254902" stop-color="#ffffff" stop-opacity="0.92156863"/>
      <stop offset="0.30196078431372547" stop-color="#fd1313" stop-opacity="0.87058824"/>
      <stop offset="0.8705882352941177" stop-color="#e60000" stop-opacity="0.0"/>
    </radialGradient>
  </defs>
</svg>
