<?xml version="1.0" encoding="UTF-8" standalone="no"?>
<svg xmlns:xlink="http://www.w3.org/1999/xlink" height="384.9px" width="263.4px" xmlns="http://www.w3.org/2000/svg">
  <g transform="matrix(6.0, 0.0, 0.0, 6.0, 11.7, 5.7)">
    <use height="12.7" transform="matrix(0.9825, 0.1782, -0.1782, 0.9825, 17.8, -0.8)" width="10.45" xlink:href="#sprite0"/>
    <use height="13.9" transform="matrix(0.0046, -0.9971, 0.9971, 0.0046, 15.6, 25.9)" width="11.5" xlink:href="#sprite1"/>
    <use height="17.0" transform="matrix(0.0349, -0.8849, 0.9172, 0.2385, 23.3, 29.05)" width="11.9" xlink:href="#sprite2"/>
    <use height="20.2" transform="matrix(0.9718, 0.2294, -0.0932, 1.0041, 11.1, 24.45)" width="8.7" xlink:href="#sprite3"/>
    <use height="20.2" transform="matrix(0.9892, 0.1351, -0.1351, 0.9892, 6.8, 41.05)" width="11.55" xlink:href="#sprite4"/>
    <use height="20.2" transform="matrix(0.896, -0.4381, 0.5609, 0.836, 9.9, 30.1)" width="8.7" xlink:href="#sprite3"/>
    <use height="20.2" transform="matrix(0.9716, -0.2246, 0.2246, 0.9716, 16.35, 43.55)" width="11.55" xlink:href="#sprite4"/>
    <use height="30.95" transform="matrix(0.9825, 0.1782, -0.1604, 0.8842, 11.3, 7.65)" width="15.75" xlink:href="#sprite5"/>
    <use height="13.9" transform="matrix(0.8224, 0.5623, -0.5623, 0.8224, 11.8, 7.55)" width="11.5" xlink:href="#sprite1"/>
    <use height="9.5" transform="matrix(0.9481, 0.3095, -0.3095, 0.9481, 2.1746, 24.037)" width="41.35" xlink:href="#sprite6"/>
    <use height="17.0" transform="matrix(0.9673, -0.2416, 0.2416, 0.9673, -0.55, 15.55)" width="11.9" xlink:href="#sprite2"/>
  </g>
  <defs>
    <g id="sprite0" transform="matrix(1.0, 0.0, 0.0, 1.0, 0.0, 0.0)">
      <use height="12.7" transform="matrix(1.0, 0.0, 0.0, 1.0, 0.0, 0.0)" width="10.45" xlink:href="#shape0"/>
    </g>
    <g id="shape0" transform="matrix(1.0, 0.0, 0.0, 1.0, 0.0, 0.0)">
      <path d="M3.5 0.55 L3.55 0.5 Q3.9 0.85 4.1 0.4 L4.35 0.1 4.45 0.1 4.7 0.0 5.05 0.2 5.05 0.45 5.15 0.45 8.2 0.9 8.3 0.9 8.4 1.1 8.4 1.25 Q9.15 1.55 9.75 2.2 L9.95 2.65 Q10.55 3.5 10.4 4.8 10.2 5.95 9.5 6.45 L9.6 8.0 10.05 8.55 10.4 8.9 Q10.55 9.55 10.0 9.85 L9.2 10.05 8.9 11.2 Q8.65 12.05 8.1 12.35 L7.9 12.7 Q5.45 12.5 3.45 11.2 L3.4 11.25 3.4 11.15 3.35 11.1 3.25 11.0 3.0 11.1 2.6 11.05 2.55 11.05 2.45 11.4 2.15 11.65 2.05 11.6 1.8 11.55 1.75 11.55 1.65 11.75 1.3 12.0 1.2 11.8 1.2 11.75 0.55 12.4 Q0.25 12.25 0.35 12.0 L0.55 11.65 0.55 11.5 0.55 11.4 0.45 11.3 0.35 11.2 0.45 10.55 0.4 8.9 0.15 7.6 Q0.05 6.7 0.2 6.05 -0.05 5.45 0.05 4.6 L0.45 3.55 Q0.45 3.15 0.85 2.7 1.65 1.7 2.9 1.15 L2.95 1.25 2.95 1.2 3.25 0.9 3.25 0.85 3.5 0.55 M4.35 7.2 L4.1 9.1 3.55 10.75 3.95 10.9 4.45 11.4 7.65 12.25 Q7.65 12.0 7.8 11.85 L8.0 11.7 8.25 10.9 8.75 10.0 8.7 10.0 9.25 9.55 10.0 9.25 9.7 8.65 9.35 8.25 9.2 8.15 9.15 8.0 Q8.95 7.7 8.9 7.1 L8.9 6.7 8.85 6.7 Q8.65 6.35 8.75 6.0 L8.75 5.95 8.6 5.95 8.35 5.95 7.55 6.75 7.35 6.15 5.85 7.0 5.95 6.8 5.8 6.95 5.5 7.25 5.0 7.2 5.15 6.9 4.45 7.2 4.55 6.85 4.3 7.05 4.35 7.2 M8.7 5.2 L8.65 5.0 8.65 5.15 8.7 5.2 M8.15 5.05 L8.1 5.35 8.1 5.4 8.2 5.15 8.15 5.05 M8.55 5.45 L8.45 5.7 Q8.5 5.6 8.6 5.6 L8.55 5.5 8.55 5.45 M2.0 6.95 L1.85 6.7 1.85 7.0 Q1.85 8.1 2.3 9.1 L2.45 9.05 2.6 9.05 2.4 8.1 2.35 7.35 2.0 7.1 2.0 6.95 M4.0 6.8 L4.05 6.75 4.0 6.75 4.0 6.8 M3.4 7.95 L3.4 7.85 3.3 7.85 3.4 7.95 M2.2 9.2 L2.05 9.05 2.2 9.3 2.2 9.2 M1.0 8.4 L1.0 8.45 1.1 8.45 1.0 8.4 M1.1 10.85 L1.15 10.85 1.1 10.75 1.1 10.85" fill="#000000" fill-rule="evenodd" stroke="none"/>
      <path d="M5.85 7.0 L7.35 6.15 7.55 6.75 8.35 5.95 8.6 5.95 8.75 5.95 8.75 6.0 Q8.65 6.35 8.85 6.7 L8.9 6.7 8.9 7.1 Q8.95 7.7 9.15 8.0 L9.2 8.15 9.35 8.25 9.7 8.65 10.0 9.25 9.25 9.55 8.7 10.0 8.75 10.0 8.25 10.9 8.0 11.7 7.8 11.85 Q7.65 12.0 7.65 12.25 L4.45 11.4 3.95 10.9 3.55 10.75 4.1 9.1 4.35 7.2 4.45 7.2 5.15 6.9 5.0 7.2 5.5 7.25 5.8 6.95 5.85 7.0 M1.85 7.0 L2.0 6.95 2.0 7.1 2.35 7.35 2.4 8.1 2.6 9.05 2.45 9.05 2.3 9.1 Q1.85 8.1 1.85 7.0" fill="#eedc9d" fill-rule="evenodd" stroke="none"/>
    </g>
    <g id="sprite1" transform="matrix(1.0, 0.0, 0.0, 1.0, 0.0, 0.0)">
      <use height="13.9" transform="matrix(1.0, 0.0, 0.0, 1.0, 0.0, 0.0)" width="11.5" xlink:href="#shape1"/>
    </g>
    <g id="shape1" transform="matrix(1.0, 0.0, 0.0, 1.0, 0.0, 0.0)">
      <path d="M5.65 1.45 Q6.9 0.45 8.75 0.55 L10.35 2.5 11.45 4.6 11.5 4.95 10.4 6.65 Q9.6 7.9 8.3 8.75 L8.0 9.05 Q7.05 9.25 6.4 9.95 L3.8 12.95 3.6 13.35 Q2.45 12.85 1.55 11.95 0.85 11.25 0.65 10.4 L0.9 10.1 1.0 9.6 1.7 8.7 1.75 8.65 1.85 8.45 2.8 6.0 4.45 3.8 Q5.35 2.45 5.65 1.45" fill="#ffffff" fill-rule="evenodd" stroke="none"/>
      <path d="M6.5 0.0 L8.9 0.05 9.05 0.05 Q11.7 2.25 11.5 5.4 L11.35 5.75 Q9.7 8.95 6.7 11.0 6.25 11.25 5.85 11.6 4.8 12.45 4.1 13.55 L4.4 13.6 3.95 13.8 3.9 13.85 3.85 13.85 2.6 13.7 Q1.1 12.9 0.3 11.45 -0.25 10.5 0.25 9.4 L0.65 9.1 0.65 9.15 0.8 9.05 0.95 8.95 1.0 8.35 Q0.9 7.95 1.2 7.5 L3.05 4.4 3.6 3.55 4.45 2.4 Q4.4 1.95 4.8 1.75 L5.2 1.2 5.25 0.9 5.35 0.85 6.0 0.35 6.5 0.0 M5.65 1.45 Q5.35 2.45 4.45 3.8 L2.8 6.0 1.85 8.45 1.75 8.65 1.7 8.7 1.0 9.6 0.9 10.1 0.65 10.4 Q0.85 11.25 1.55 11.95 2.45 12.85 3.6 13.35 L3.8 12.95 6.4 9.95 Q7.05 9.25 8.0 9.05 L8.3 8.75 Q9.6 7.9 10.4 6.65 L11.5 4.95 11.45 4.6 10.35 2.5 8.75 0.55 Q6.9 0.45 5.65 1.45" fill="#000000" fill-rule="evenodd" stroke="none"/>
    </g>
    <g id="sprite2" transform="matrix(1.0, 0.0, 0.0, 1.0, 0.0, 0.0)">
      <use height="17.0" transform="matrix(1.0, 0.0, 0.0, 1.0, 0.0, 0.0)" width="11.9" xlink:href="#shape2"/>
    </g>
    <g id="shape2" transform="matrix(1.0, 0.0, 0.0, 1.0, 0.0, 0.0)">
      <path d="M5.85 2.05 Q5.4 1.95 5.0 1.65 L4.8 1.3 4.75 1.2 4.15 0.8 3.9 0.45 Q3.85 3.2 3.05 6.05 2.9 6.45 3.35 6.55 6.65 7.45 9.5 9.05 10.15 8.0 10.45 6.75 L10.85 5.95 10.75 5.85 10.65 5.65 10.5 5.45 9.5 5.3 7.85 3.85 Q6.75 3.25 5.95 2.2 L5.85 2.05 M6.3 1.65 Q6.75 2.65 7.7 3.15 L9.4 4.25 9.75 4.7 10.8 5.0 11.25 5.55 11.45 5.55 11.85 5.5 11.85 5.8 11.9 6.05 11.65 6.2 11.4 6.15 Q11.35 7.3 10.8 8.3 L9.5 9.8 8.2 9.0 Q8.2 9.65 7.5 10.35 6.75 11.15 6.3 12.1 L6.85 13.15 7.05 14.0 7.0 14.2 5.6 15.45 4.15 16.35 Q4.15 16.95 3.55 17.0 L2.9 16.95 Q2.55 16.65 2.55 16.2 L1.6 15.8 Q1.15 15.45 1.1 14.85 -0.35 14.15 0.1 12.2 0.25 11.4 0.75 10.8 1.3 10.15 2.1 9.65 L2.4 8.55 2.85 7.65 Q2.9 7.25 3.1 7.0 2.4 6.7 1.9 6.1 L3.0 2.9 3.85 0.2 3.9 0.1 3.9 0.0 3.9 0.05 4.05 0.0 4.5 0.4 Q4.7 0.6 5.05 0.65 L5.4 1.15 Q5.65 1.45 6.05 1.6 L6.3 1.65 M3.55 7.6 L3.4 8.45 3.35 8.45 3.2 9.0 Q2.8 9.95 2.1 10.3 L1.15 11.65 Q0.85 12.0 0.9 12.5 L0.65 14.1 Q1.3 14.2 1.6 14.7 L1.8 15.15 2.6 15.5 2.7 15.55 2.8 15.5 3.05 15.85 3.15 16.0 3.05 16.05 3.15 16.3 3.15 16.4 3.65 16.35 Q3.95 15.55 4.85 15.0 L6.5 13.95 Q5.65 12.65 6.2 11.35 6.9 9.9 7.75 8.75 5.8 7.75 3.65 7.15 L3.55 7.6" fill="#000000" fill-rule="evenodd" stroke="none"/>
      <path d="M5.85 2.05 L5.95 2.2 Q6.75 3.25 7.85 3.85 L9.5 5.3 10.5 5.45 10.65 5.65 10.75 5.85 10.85 5.95 10.45 6.75 Q10.15 8.0 9.5 9.05 6.65 7.45 3.35 6.55 2.9 6.45 3.05 6.05 3.85 3.2 3.9 0.45 L4.15 0.8 4.75 1.2 4.8 1.3 5.0 1.65 Q5.4 1.95 5.85 2.05 M3.55 7.6 L3.65 7.15 Q5.8 7.75 7.75 8.75 6.9 9.9 6.2 11.35 5.65 12.65 6.5 13.95 L4.85 15.0 Q3.95 15.55 3.65 16.35 L3.15 16.4 3.15 16.3 3.05 16.05 3.15 16.0 3.05 15.85 2.8 15.5 2.7 15.55 2.6 15.5 1.8 15.15 1.6 14.7 Q1.3 14.2 0.65 14.1 L0.9 12.5 Q0.85 12.0 1.15 11.65 L2.1 10.3 Q2.8 9.95 3.2 9.0 L3.35 8.45 3.4 8.45 3.55 7.6" fill="#63492e" fill-rule="evenodd" stroke="none"/>
    </g>
    <g id="sprite3" transform="matrix(1.0, 0.0, 0.0, 1.0, 0.0, 0.0)">
      <use height="20.2" transform="matrix(1.0, 0.0, 0.0, 1.0, 0.0, 0.0)" width="8.7" xlink:href="#shape3"/>
    </g>
    <g id="shape3" transform="matrix(1.0, 0.0, 0.0, 1.0, 0.0, 0.0)">
      <path d="M6.9 1.6 L6.6 0.95 5.9 0.45 Q5.55 0.1 4.95 0.45 0.8 4.25 0.5 9.9 0.2 14.6 1.95 18.55 L2.8 19.75 Q4.2 19.9 5.35 19.25 6.0 16.2 7.1 13.45 8.45 10.0 8.3 6.15 L8.2 5.75 Q7.65 5.05 7.6 3.85 7.6 2.6 6.9 1.6 M4.75 0.0 Q8.25 0.65 8.6 4.55 9.1 10.45 6.85 15.8 6.05 17.6 5.55 19.5 L5.5 19.85 4.6 20.0 2.65 20.15 Q-0.15 17.25 0.0 12.9 0.15 10.05 0.6 7.35 1.4 2.9 4.75 0.0" fill="#000000" fill-rule="evenodd" stroke="none"/>
      <path d="M6.9 1.6 Q7.6 2.6 7.6 3.85 7.65 5.05 8.2 5.75 L8.3 6.15 Q8.45 10.0 7.1 13.45 6.0 16.2 5.35 19.25 4.2 19.9 2.8 19.75 L1.95 18.55 Q0.2 14.6 0.5 9.9 0.8 4.25 4.95 0.45 5.55 0.1 5.9 0.45 L6.6 0.95 6.9 1.6" fill="#3c3e7d" fill-rule="evenodd" stroke="none"/>
    </g>
    <g id="sprite4" transform="matrix(1.0, 0.0, 0.0, 1.0, 0.0, 0.0)">
      <use height="20.2" transform="matrix(1.0, 0.0, 0.0, 1.0, 0.0, 0.0)" width="11.55" xlink:href="#shape4"/>
    </g>
    <g id="shape4" transform="matrix(1.0, 0.0, 0.0, 1.0, 0.0, 0.0)">
      <path d="M1.9 0.1 L1.95 0.0 2.65 0.0 Q4.55 0.25 5.2 2.15 L6.1 2.15 6.9 2.15 Q7.9 2.2 8.4 1.65 L8.75 0.2 10.75 1.2 10.65 1.3 10.25 2.35 9.35 5.7 8.85 5.95 8.4 5.9 Q6.5 8.8 5.95 12.35 L5.65 14.1 5.95 14.55 5.9 15.15 5.85 15.15 Q7.2 16.35 8.85 17.2 10.1 17.8 11.5 17.85 L11.55 18.65 10.55 20.2 3.6 19.95 3.3 19.55 2.4 19.55 1.65 19.45 0.3 18.55 0.3 18.3 0.75 18.6 Q-1.05 12.2 1.35 5.95 L0.25 5.5 1.75 0.25 1.9 0.1 M1.8 0.85 L0.85 5.2 4.7 6.75 Q5.8 5.9 6.85 5.55 L8.95 5.3 9.8 2.0 Q6.35 3.5 3.25 1.85 L1.85 0.85 1.8 0.8 1.8 0.85 M11.15 18.3 Q8.7 18.25 6.9 16.65 L5.1 14.8 Q5.6 14.75 5.65 12.9 5.7 11.1 6.3 9.35 L7.6 6.25 7.65 6.25 8.0 5.65 6.35 6.15 6.1 6.55 4.95 7.2 1.35 5.95 Q0.4 10.7 0.6 15.5 L1.0 18.7 1.6 18.95 3.6 19.15 4.2 19.8 8.2 20.0 10.25 19.8 11.15 18.3" fill="#000000" fill-rule="evenodd" stroke="none"/>
      <path d="M1.85 0.85 L3.25 1.85 Q6.35 3.5 9.8 2.0 L8.95 5.3 6.85 5.55 Q5.8 5.9 4.7 6.75 L0.85 5.2 1.8 0.85 1.85 0.85 M11.15 18.3 L10.25 19.8 8.2 20.0 4.2 19.8 3.6 19.15 1.6 18.95 1.0 18.7 0.6 15.5 Q0.4 10.7 1.35 5.95 L4.95 7.2 6.1 6.55 6.35 6.15 8.0 5.65 7.65 6.25 7.6 6.25 6.3 9.35 Q5.7 11.1 5.65 12.9 5.6 14.75 5.1 14.8 L6.9 16.65 Q8.7 18.25 11.15 18.3" fill="#63492e" fill-rule="evenodd" stroke="none"/>
    </g>
    <g id="sprite5" transform="matrix(1.0, 0.0, 0.0, 1.0, 0.0, 0.0)">
      <use height="30.95" transform="matrix(1.0, 0.0, 0.0, 1.0, 0.0, 0.0)" width="15.75" xlink:href="#shape5"/>
    </g>
    <g id="shape5" transform="matrix(1.0, 0.0, 0.0, 1.0, 0.0, 0.0)">
      <path d="M13.85 5.3 L13.65 5.45 Q13.2 5.75 13.0 6.3 L12.8 6.9 14.95 13.25 Q15.7 15.3 14.0 17.15 L12.95 18.1 12.65 19.45 12.35 20.65 12.7 20.55 12.55 20.75 14.3 23.9 Q15.2 25.5 15.75 27.25 L15.0 27.9 14.75 28.1 14.7 28.6 14.5 28.15 14.3 27.7 13.3 25.1 11.35 21.35 11.0 21.35 10.05 26.0 Q9.4 28.3 9.0 30.7 L9.25 30.75 9.0 30.75 8.95 30.95 8.9 30.75 Q4.5 30.4 0.0 29.0 L1.0 25.1 Q1.55 22.6 3.1 20.75 L2.7 20.6 Q2.1 19.85 2.4 18.95 L2.75 17.25 Q2.8 16.65 3.25 16.4 L3.4 16.45 3.65 16.55 3.7 16.65 3.75 16.75 3.75 16.85 3.75 16.95 3.95 16.95 Q3.7 14.55 2.6 12.25 L2.35 10.95 Q2.35 10.05 2.5 9.2 L2.35 9.4 Q2.2 7.75 3.2 5.95 L4.35 3.95 4.15 3.55 Q4.15 3.1 4.4 2.8 L5.5 0.8 Q5.8 0.1 6.6 0.0 9.35 -0.15 11.65 1.0 13.35 1.85 13.9 3.9 L14.25 4.85 14.25 4.9 13.85 5.3 M13.25 16.7 L13.85 15.85 15.0 14.35 13.25 10.05 12.95 9.2 13.15 10.5 13.6 13.95 13.3 13.45 13.25 16.7 M12.45 6.45 L12.45 6.0 12.5 6.0 12.6 6.25 12.85 5.85 Q14.0 4.65 13.05 3.1 L12.2 1.6 11.55 1.25 Q10.1 0.5 8.35 0.4 L5.95 0.75 5.9 0.95 5.75 1.3 5.6 1.6 5.2 2.6 5.15 2.7 5.2 2.65 5.45 2.6 6.6 2.4 Q9.4 1.9 11.0 4.05 L12.45 6.45 12.45 6.5 12.45 6.45 M5.35 3.45 L5.6 3.45 5.75 3.5 5.9 3.6 Q7.9 7.25 8.95 11.25 9.95 14.95 9.45 18.6 L11.5 18.35 13.05 16.9 Q12.45 14.8 12.45 12.15 L12.45 11.05 12.35 10.6 12.2 7.95 12.15 7.45 11.7 6.35 11.55 5.8 10.25 4.4 Q8.2 2.0 4.9 3.2 L4.85 3.8 5.35 3.45 M3.0 8.45 L3.0 9.3 3.15 9.35 3.55 9.95 4.15 10.65 4.3 10.9 4.35 10.95 4.55 11.0 4.9 11.1 5.1 11.25 Q6.35 11.0 7.3 9.95 L7.85 9.55 Q7.0 6.6 5.55 4.0 5.15 4.15 4.9 4.6 L4.65 5.1 4.15 6.35 3.0 8.45 M5.5 11.55 L7.05 12.3 Q8.15 12.65 8.75 13.35 L8.5 12.05 8.05 10.1 7.05 11.15 Q6.25 11.7 5.5 11.55 M5.0 12.0 Q3.6 11.2 3.05 10.2 L3.55 12.85 4.5 17.0 4.55 17.3 4.6 17.4 8.15 18.45 9.25 18.6 Q9.2 16.2 8.8 13.75 6.95 13.15 5.0 12.0 M11.9 18.9 L10.7 19.2 10.0 19.25 10.05 20.1 10.15 21.0 11.8 20.75 Q11.7 20.25 11.75 19.6 L11.9 18.9 M9.25 19.25 L6.95 18.85 6.35 18.45 Q5.2 18.5 4.35 17.95 L3.95 18.1 3.95 17.55 3.5 17.35 3.2 17.3 Q3.05 17.55 3.05 17.85 L3.1 18.6 2.9 19.35 2.85 19.75 Q5.95 21.25 9.4 21.1 9.2 20.8 9.15 20.3 L9.25 19.45 9.25 19.25 M9.9 21.45 L3.9 20.95 Q3.95 21.55 3.05 22.45 2.15 23.3 1.8 24.45 L0.6 28.6 Q4.85 29.45 8.9 30.65 8.4 28.6 9.15 26.0 9.8 23.45 10.9 21.4 L10.3 21.45 10.3 21.5 9.9 21.45 M12.35 21.0 L12.3 21.5 12.25 21.6 11.95 21.2 11.45 21.3 12.85 22.65 Q12.45 21.7 12.5 20.85 L12.35 21.0 M15.1 26.85 L14.15 24.95 Q14.6 26.1 14.7 27.25 L15.1 26.85" fill="#000000" fill-rule="evenodd" stroke="none"/>
      <path d="M13.25 16.7 L13.3 13.45 13.6 13.95 13.15 10.5 12.95 9.2 13.25 10.05 15.0 14.35 13.85 15.85 13.25 16.7 M5.35 3.45 L4.85 3.8 4.9 3.2 Q8.2 2.0 10.25 4.4 L11.55 5.8 11.7 6.35 12.15 7.45 12.2 7.95 12.35 10.6 12.45 11.05 12.45 12.15 Q12.45 14.8 13.05 16.9 L11.5 18.35 9.45 18.6 Q9.95 14.95 8.95 11.25 7.9 7.25 5.9 3.6 L5.75 3.5 5.6 3.45 5.35 3.45 M5.0 12.0 Q6.95 13.15 8.8 13.75 9.2 16.2 9.25 18.6 L8.15 18.45 4.6 17.4 4.55 17.3 4.5 17.0 3.55 12.85 3.05 10.2 Q3.6 11.2 5.0 12.0 M5.5 11.55 Q6.25 11.7 7.05 11.15 L8.05 10.1 8.5 12.05 8.75 13.35 Q8.15 12.65 7.05 12.3 L5.5 11.55 M9.25 19.25 L9.25 19.45 9.15 20.3 Q9.2 20.8 9.4 21.1 5.95 21.25 2.85 19.75 L2.9 19.35 3.1 18.6 3.05 17.85 Q3.05 17.55 3.2 17.3 L3.5 17.35 3.95 17.55 3.95 18.1 4.35 17.95 Q5.2 18.5 6.35 18.45 L6.95 18.85 9.25 19.25" fill="#63492e" fill-rule="evenodd" stroke="none"/>
      <path d="M5.2 2.6 L5.6 1.6 5.75 1.3 5.9 0.95 5.95 0.75 8.35 0.4 Q10.1 0.5 11.55 1.25 L12.2 1.6 13.05 3.1 Q14.0 4.65 12.85 5.85 L12.6 6.25 12.5 6.0 12.45 6.0 12.45 6.45 11.0 4.05 Q9.4 1.9 6.6 2.4 L5.45 2.6 5.2 2.65 5.2 2.6 M3.0 8.45 L4.15 6.35 4.65 5.1 4.9 4.6 Q5.15 4.15 5.55 4.0 7.0 6.6 7.85 9.55 L7.3 9.95 Q6.35 11.0 5.1 11.25 L4.9 11.1 4.55 11.0 4.35 10.95 4.3 10.9 4.15 10.65 3.55 9.95 3.15 9.35 3.0 9.3 3.0 8.45 M15.1 26.85 L14.7 27.25 Q14.6 26.1 14.15 24.95 L15.1 26.85 M12.35 21.0 L12.5 20.85 Q12.45 21.7 12.85 22.65 L11.45 21.3 11.95 21.2 12.25 21.6 12.3 21.5 12.35 21.0 M9.9 21.45 L10.3 21.5 10.3 21.45 10.9 21.4 Q9.8 23.45 9.15 26.0 8.4 28.6 8.9 30.65 4.85 29.45 0.6 28.6 L1.8 24.45 Q2.15 23.3 3.05 22.45 3.95 21.55 3.9 20.95 L9.9 21.45" fill="#ffffff" fill-rule="evenodd" stroke="none"/>
      <path d="M11.9 18.9 L11.75 19.6 Q11.7 20.25 11.8 20.75 L10.15 21.0 10.05 20.1 10.0 19.25 10.7 19.2 11.9 18.9" fill="#666666" fill-rule="evenodd" stroke="none"/>
    </g>
    <g id="sprite6" transform="matrix(1.0, 0.0, 0.0, 1.0, 3.5, -10.2)">
      <use height="9.5" transform="matrix(1.0, 0.0, 0.0, 1.0, -3.5, 10.2)" width="41.35" xlink:href="#shape6"/>
    </g>
    <g id="shape6" transform="matrix(1.0, 0.0, 0.0, 1.0, 3.5, -10.2)">
      <path d="M5.75 16.25 L6.65 16.15 11.2 15.8 Q13.65 15.7 16.15 15.75 18.15 15.6 20.15 15.7 L24.65 15.75 29.3 16.1 Q31.35 16.5 33.2 16.05 L34.3 15.7 35.25 15.5 36.15 15.25 29.8 14.1 29.85 14.2 6.3 13.4 5.45 13.3 Q5.45 14.5 5.6 15.55 L5.75 16.25 M25.4 13.55 L26.2 13.65 Q28.6 13.85 31.1 13.7 L33.75 14.05 Q35.9 14.1 37.85 15.4 L36.75 15.95 Q34.6 16.9 32.2 16.95 L30.6 16.95 26.3 16.45 21.85 16.4 Q18.6 16.15 15.25 16.4 L10.0 16.7 5.4 16.95 5.3 18.2 3.95 19.15 2.6 19.7 Q0.8 19.35 -0.85 18.55 -1.9 18.15 -2.45 17.35 -3.75 15.2 -3.45 12.7 L3.7 12.25 4.0 10.2 4.4 10.75 5.8 12.9 7.45 13.0 Q8.05 13.1 8.5 12.6 L9.4 12.85 Q10.85 12.2 12.5 12.2 L17.3 12.7 21.5 13.25 24.95 13.8 25.4 13.55 M4.05 12.85 L4.0 12.8 4.0 12.85 3.65 16.5 2.9 14.5 Q1.3 15.15 -0.5 15.05 L-1.7 14.9 -0.15 17.0 -2.9 14.85 -2.95 14.8 -3.0 14.85 Q-2.25 17.15 -0.1 18.4 1.1 19.05 2.6 18.95 L3.95 18.55 4.65 18.3 Q5.15 16.15 4.85 14.2 L4.3 11.6 4.35 12.45 4.05 12.85 M0.2 12.75 L0.2 14.25 1.1 14.25 1.1 12.75 0.2 12.75 M1.85 13.1 L1.65 14.25 2.3 14.2 2.35 12.7 1.85 13.1 M3.55 16.65 Q3.15 18.2 1.75 18.05 L1.3 18.1 -0.05 17.05 2.95 16.95 3.55 16.65 M-2.4 13.4 L-2.35 14.35 -1.7 13.0 -2.4 13.4 M-0.8 13.1 L-0.85 14.1 -0.35 14.3 -0.25 12.7 -0.8 13.1" fill="#000000" fill-rule="evenodd" stroke="none"/>
      <path d="M5.75 16.25 L5.6 15.55 Q5.45 14.5 5.45 13.3 L6.3 13.4 5.75 16.25" fill="#e5e5e5" fill-rule="evenodd" stroke="none"/>
      <path d="M4.0 12.85 L4.05 12.85 4.35 12.45 4.3 11.6 4.85 14.2 Q5.15 16.15 4.65 18.3 L3.95 18.55 2.6 18.95 Q1.1 19.05 -0.1 18.4 -2.25 17.15 -3.0 14.85 L-2.9 14.85 -0.15 17.0 -0.05 17.05 1.3 18.1 1.75 18.05 Q3.15 18.2 3.55 16.65 L3.65 16.5 4.0 12.85 M1.85 13.1 L2.35 12.7 2.3 14.2 1.65 14.25 1.85 13.1 M0.2 12.75 L1.1 12.75 1.1 14.25 0.2 14.25 0.2 12.75 M-0.8 13.1 L-0.25 12.7 -0.35 14.3 -0.85 14.1 -0.8 13.1 M-2.4 13.4 L-1.7 13.0 -2.35 14.35 -2.4 13.4" fill="#e0dc8f" fill-rule="evenodd" stroke="none"/>
      <path d="M6.3 13.4 L29.85 14.2 29.8 14.1 36.15 15.25 35.25 15.5 34.3 15.7 33.2 16.05 Q31.35 16.5 29.3 16.1 L24.65 15.75 20.15 15.7 Q18.15 15.6 16.15 15.75 13.65 15.7 11.2 15.8 L6.65 16.15 5.75 16.25 6.3 13.4" fill="#e8e8e8" fill-rule="evenodd" stroke="none"/>
    </g>
  </defs>
</svg>
